<?xml version="1.0" encoding="UTF-8"?>
<svg xmlns="http://www.w3.org/2000/svg" version="1.1" width="300" height="300" viewBox="0 0 300 300"><rect x="0" y="0" width="300" height="300" fill="#ffffff"/><g transform="scale(8.108)"><g transform="translate(0,0)"><path fill-rule="evenodd" d="M10 0L10 1L11 1L11 0ZM13 0L13 2L11 2L11 4L12 4L12 3L13 3L13 2L14 2L14 4L13 4L13 5L14 5L14 4L15 4L15 5L19 5L19 6L18 6L18 7L17 7L17 6L16 6L16 7L17 7L17 8L19 8L19 6L20 6L20 8L21 8L21 6L20 6L20 5L22 5L22 8L23 8L23 9L22 9L22 10L21 10L21 11L22 11L22 10L23 10L23 12L20 12L20 11L18 11L18 10L20 10L20 9L18 9L18 10L17 10L17 11L16 11L16 10L15 10L15 13L14 13L14 15L13 15L13 16L12 16L12 13L13 13L13 12L14 12L14 11L13 11L13 12L12 12L12 10L11 10L11 9L16 9L16 8L15 8L15 6L14 6L14 8L12 8L12 7L13 7L13 6L12 6L12 5L11 5L11 6L10 6L10 8L9 8L9 6L8 6L8 10L9 10L9 9L10 9L10 11L11 11L11 13L9 13L9 12L6 12L6 11L7 11L7 10L5 10L5 9L7 9L7 8L3 8L3 9L4 9L4 10L3 10L3 11L2 11L2 8L1 8L1 10L0 10L0 11L2 11L2 12L3 12L3 13L4 13L4 12L6 12L6 13L7 13L7 14L6 14L6 15L8 15L8 16L6 16L6 17L8 17L8 18L9 18L9 19L10 19L10 20L12 20L12 21L9 21L9 20L8 20L8 21L7 21L7 20L6 20L6 19L7 19L7 18L6 18L6 19L5 19L5 20L4 20L4 21L3 21L3 19L4 19L4 16L5 16L5 15L3 15L3 16L2 16L2 13L1 13L1 12L0 12L0 14L1 14L1 16L0 16L0 17L1 17L1 19L2 19L2 20L0 20L0 29L1 29L1 27L2 27L2 29L3 29L3 27L5 27L5 29L8 29L8 30L9 30L9 28L10 28L10 27L12 27L12 29L11 29L11 35L14 35L14 36L13 36L13 37L16 37L16 36L17 36L17 35L16 35L16 34L18 34L18 37L20 37L20 36L19 36L19 33L18 33L18 30L19 30L19 32L20 32L20 34L21 34L21 35L22 35L22 34L23 34L23 33L22 33L22 31L21 31L21 30L23 30L23 31L25 31L25 32L24 32L24 33L25 33L25 34L24 34L24 35L25 35L25 36L24 36L24 37L26 37L26 33L25 33L25 32L26 32L26 28L25 28L25 29L24 29L24 28L23 28L23 27L21 27L21 28L20 28L20 29L21 29L21 30L19 30L19 28L18 28L18 27L20 27L20 25L21 25L21 26L22 26L22 25L21 25L21 20L20 20L20 24L19 24L19 25L18 25L18 23L19 23L19 22L18 22L18 23L17 23L17 20L18 20L18 21L19 21L19 20L18 20L18 19L19 19L19 16L21 16L21 17L20 17L20 18L21 18L21 19L22 19L22 22L23 22L23 26L25 26L25 27L27 27L27 28L28 28L28 29L27 29L27 30L28 30L28 32L27 32L27 33L28 33L28 34L27 34L27 37L29 37L29 36L30 36L30 37L31 37L31 36L32 36L32 37L33 37L33 36L32 36L32 35L34 35L34 36L36 36L36 37L37 37L37 34L35 34L35 33L36 33L36 32L37 32L37 30L35 30L35 29L34 29L34 26L35 26L35 27L36 27L36 29L37 29L37 26L35 26L35 25L34 25L34 24L36 24L36 23L34 23L34 22L33 22L33 21L34 21L34 19L32 19L32 18L30 18L30 17L31 17L31 16L33 16L33 15L30 15L30 13L32 13L32 14L34 14L34 13L35 13L35 14L36 14L36 17L37 17L37 14L36 14L36 13L37 13L37 10L36 10L36 8L35 8L35 9L34 9L34 8L32 8L32 9L31 9L31 8L29 8L29 6L28 6L28 8L27 8L27 4L25 4L25 3L24 3L24 2L25 2L25 1L24 1L24 0L18 0L18 1L17 1L17 2L16 2L16 1L15 1L15 0ZM28 0L28 1L29 1L29 0ZM8 1L8 2L9 2L9 3L8 3L8 5L9 5L9 3L10 3L10 2L9 2L9 1ZM14 1L14 2L15 2L15 1ZM18 1L18 2L17 2L17 3L16 3L16 4L18 4L18 2L19 2L19 1ZM20 1L20 2L22 2L22 1ZM27 2L27 3L28 3L28 5L29 5L29 2ZM22 3L22 5L23 5L23 7L24 7L24 8L26 8L26 6L25 6L25 7L24 7L24 5L25 5L25 4L24 4L24 5L23 5L23 3ZM11 6L11 7L12 7L12 6ZM10 8L10 9L11 9L11 8ZM28 8L28 9L27 9L27 10L28 10L28 9L29 9L29 10L30 10L30 11L29 11L29 12L30 12L30 11L33 11L33 12L32 12L32 13L34 13L34 11L35 11L35 13L36 13L36 11L35 11L35 10L34 10L34 9L32 9L32 10L30 10L30 9L29 9L29 8ZM24 9L24 12L25 12L25 13L24 13L24 14L23 14L23 15L21 15L21 16L22 16L22 17L21 17L21 18L23 18L23 17L25 17L25 18L24 18L24 19L23 19L23 22L24 22L24 23L25 23L25 24L24 24L24 25L25 25L25 26L27 26L27 27L28 27L28 28L29 28L29 27L28 27L28 25L25 25L25 24L26 24L26 22L27 22L27 19L26 19L26 21L25 21L25 20L24 20L24 19L25 19L25 18L27 18L27 17L25 17L25 16L29 16L29 17L30 17L30 16L29 16L29 15L25 15L25 13L26 13L26 11L25 11L25 10L26 10L26 9ZM4 10L4 11L3 11L3 12L4 12L4 11L5 11L5 10ZM17 11L17 12L18 12L18 14L17 14L17 13L15 13L15 15L17 15L17 16L16 16L16 17L15 17L15 19L14 19L14 18L12 18L12 19L13 19L13 20L14 20L14 22L12 22L12 23L13 23L13 25L12 25L12 24L11 24L11 23L8 23L8 22L9 22L9 21L8 21L8 22L7 22L7 21L4 21L4 22L2 22L2 21L1 21L1 23L3 23L3 24L2 24L2 25L5 25L5 27L6 27L6 28L9 28L9 26L10 26L10 25L12 25L12 26L13 26L13 28L15 28L15 29L13 29L13 31L14 31L14 30L15 30L15 34L16 34L16 33L17 33L17 31L16 31L16 30L18 30L18 29L16 29L16 27L18 27L18 25L17 25L17 26L16 26L16 24L17 24L17 23L16 23L16 22L15 22L15 20L16 20L16 19L17 19L17 18L16 18L16 17L17 17L17 16L19 16L19 14L20 14L20 12L18 12L18 11ZM27 11L27 12L28 12L28 11ZM8 13L8 15L9 15L9 16L8 16L8 17L9 17L9 16L10 16L10 18L11 18L11 17L12 17L12 16L11 16L11 14L9 14L9 13ZM21 13L21 14L22 14L22 13ZM27 13L27 14L29 14L29 13ZM24 15L24 16L25 16L25 15ZM34 15L34 17L33 17L33 18L35 18L35 19L36 19L36 20L35 20L35 21L36 21L36 22L37 22L37 18L35 18L35 15ZM13 16L13 17L14 17L14 16ZM2 18L2 19L3 19L3 18ZM28 18L28 19L30 19L30 18ZM28 20L28 21L30 21L30 22L31 22L31 25L32 25L32 24L33 24L33 22L32 22L32 20L31 20L31 21L30 21L30 20ZM24 21L24 22L25 22L25 21ZM5 22L5 23L7 23L7 22ZM14 22L14 23L15 23L15 22ZM28 22L28 23L29 23L29 24L30 24L30 23L29 23L29 22ZM5 24L5 25L9 25L9 24ZM14 24L14 27L16 27L16 26L15 26L15 24ZM6 26L6 27L8 27L8 26ZM31 26L31 27L30 27L30 28L32 28L32 27L33 27L33 26ZM15 29L15 30L16 30L16 29ZM23 29L23 30L24 30L24 29ZM29 29L29 32L32 32L32 29ZM30 30L30 31L31 31L31 30ZM33 30L33 33L31 33L31 34L30 34L30 33L29 33L29 34L28 34L28 36L29 36L29 35L31 35L31 34L33 34L33 33L35 33L35 30ZM8 31L8 34L9 34L9 35L8 35L8 36L9 36L9 37L10 37L10 34L9 34L9 31ZM12 32L12 33L13 33L13 34L14 34L14 33L13 33L13 32ZM21 33L21 34L22 34L22 33ZM21 36L21 37L23 37L23 36ZM0 0L0 7L7 7L7 0ZM1 1L1 6L6 6L6 1ZM2 2L2 5L5 5L5 2ZM30 0L30 7L37 7L37 0ZM31 1L31 6L36 6L36 1ZM32 2L32 5L35 5L35 2ZM0 30L0 37L7 37L7 30ZM1 31L1 36L6 36L6 31ZM2 32L2 35L5 35L5 32Z" fill="#000000"/></g></g></svg>
