<?xml version="1.0" encoding="UTF-8"?>
<svg xmlns="http://www.w3.org/2000/svg" version="1.1" width="300" height="300" viewBox="0 0 300 300"><rect x="0" y="0" width="300" height="300" fill="#ffffff"/><g transform="scale(6.122)"><g transform="translate(0,0)"><path fill-rule="evenodd" d="M8 0L8 1L9 1L9 4L8 4L8 7L9 7L9 6L10 6L10 7L11 7L11 6L12 6L12 7L13 7L13 8L11 8L11 9L10 9L10 11L9 11L9 9L8 9L8 8L1 8L1 9L0 9L0 11L2 11L2 10L1 10L1 9L5 9L5 11L4 11L4 10L3 10L3 11L4 11L4 13L3 13L3 12L2 12L2 13L1 13L1 14L0 14L0 16L3 16L3 17L5 17L5 19L7 19L7 20L6 20L6 21L7 21L7 22L3 22L3 24L2 24L2 23L1 23L1 21L2 21L2 20L1 20L1 19L3 19L3 21L4 21L4 19L3 19L3 18L1 18L1 19L0 19L0 20L1 20L1 21L0 21L0 26L1 26L1 24L2 24L2 25L3 25L3 26L4 26L4 27L5 27L5 28L3 28L3 30L2 30L2 31L1 31L1 29L2 29L2 28L1 28L1 29L0 29L0 33L1 33L1 34L0 34L0 36L1 36L1 37L0 37L0 38L1 38L1 40L0 40L0 41L3 41L3 40L4 40L4 39L2 39L2 36L3 36L3 32L4 32L4 35L5 35L5 36L4 36L4 37L3 37L3 38L4 38L4 37L8 37L8 38L5 38L5 39L7 39L7 40L6 40L6 41L8 41L8 48L9 48L9 49L10 49L10 48L11 48L11 49L12 49L12 48L13 48L13 46L14 46L14 48L15 48L15 49L18 49L18 46L19 46L19 45L20 45L20 44L21 44L21 43L20 43L20 42L19 42L19 41L21 41L21 42L22 42L22 45L21 45L21 48L20 48L20 47L19 47L19 48L20 48L20 49L21 49L21 48L22 48L22 46L23 46L23 45L27 45L27 44L29 44L29 45L28 45L28 46L27 46L27 49L28 49L28 48L29 48L29 49L30 49L30 47L28 47L28 46L31 46L31 47L32 47L32 48L31 48L31 49L32 49L32 48L33 48L33 49L34 49L34 47L37 47L37 48L35 48L35 49L38 49L38 48L39 48L39 49L40 49L40 48L39 48L39 47L40 47L40 46L38 46L38 45L41 45L41 46L42 46L42 47L41 47L41 48L43 48L43 47L44 47L44 48L45 48L45 49L49 49L49 45L48 45L48 44L46 44L46 46L45 46L45 43L46 43L46 42L45 42L45 41L46 41L46 40L47 40L47 41L48 41L48 40L47 40L47 39L49 39L49 38L47 38L47 36L48 36L48 37L49 37L49 34L47 34L47 36L46 36L46 35L44 35L44 34L42 34L42 33L41 33L41 32L42 32L42 31L44 31L44 30L43 30L43 29L44 29L44 27L45 27L45 25L47 25L47 24L48 24L48 23L49 23L49 22L47 22L47 20L48 20L48 21L49 21L49 18L47 18L47 17L48 17L48 16L47 16L47 17L46 17L46 15L45 15L45 14L46 14L46 13L48 13L48 12L45 12L45 11L47 11L47 10L46 10L46 9L45 9L45 8L43 8L43 9L41 9L41 8L37 8L37 6L38 6L38 7L39 7L39 5L38 5L38 3L35 3L35 2L37 2L37 1L38 1L38 2L39 2L39 4L40 4L40 3L41 3L41 0L40 0L40 1L38 1L38 0L35 0L35 1L31 1L31 0L29 0L29 1L27 1L27 3L22 3L22 2L25 2L25 1L26 1L26 0L25 0L25 1L24 1L24 0L23 0L23 1L22 1L22 0L21 0L21 1L20 1L20 2L19 2L19 0L16 0L16 1L15 1L15 0ZM12 1L12 2L10 2L10 3L12 3L12 4L13 4L13 5L12 5L12 6L13 6L13 7L14 7L14 8L15 8L15 7L16 7L16 6L17 6L17 7L18 7L18 6L19 6L19 8L20 8L20 10L16 10L16 9L13 9L13 10L14 10L14 11L15 11L15 12L14 12L14 13L16 13L16 14L14 14L14 15L13 15L13 14L11 14L11 13L12 13L12 12L11 12L11 11L10 11L10 12L9 12L9 11L8 11L8 10L7 10L7 9L6 9L6 10L7 10L7 11L6 11L6 12L7 12L7 11L8 11L8 12L9 12L9 13L5 13L5 14L3 14L3 13L2 13L2 14L1 14L1 15L2 15L2 14L3 14L3 15L4 15L4 16L5 16L5 17L6 17L6 18L7 18L7 17L8 17L8 18L10 18L10 19L9 19L9 20L10 20L10 21L9 21L9 22L10 22L10 23L11 23L11 24L12 24L12 22L11 22L11 21L13 21L13 25L9 25L9 26L10 26L10 27L9 27L9 28L8 28L8 27L6 27L6 28L7 28L7 29L5 29L5 30L4 30L4 32L5 32L5 31L6 31L6 32L7 32L7 31L6 31L6 30L7 30L7 29L10 29L10 31L9 31L9 32L10 32L10 31L12 31L12 29L13 29L13 28L14 28L14 29L15 29L15 33L16 33L16 34L17 34L17 33L16 33L16 32L18 32L18 33L20 33L20 32L21 32L21 33L22 33L22 32L21 32L21 31L23 31L23 32L24 32L24 33L23 33L23 34L22 34L22 35L25 35L25 36L26 36L26 35L27 35L27 36L28 36L28 37L27 37L27 38L28 38L28 39L27 39L27 40L28 40L28 42L27 42L27 43L30 43L30 42L31 42L31 43L33 43L33 44L32 44L32 47L33 47L33 46L35 46L35 44L37 44L37 43L40 43L40 41L39 41L39 42L37 42L37 41L38 41L38 40L37 40L37 39L35 39L35 40L37 40L37 41L36 41L36 42L37 42L37 43L35 43L35 42L34 42L34 41L33 41L33 40L34 40L34 39L33 39L33 38L36 38L36 36L37 36L37 35L36 35L36 34L35 34L35 33L36 33L36 32L35 32L35 31L36 31L36 30L35 30L35 27L34 27L34 26L36 26L36 28L37 28L37 29L38 29L38 30L37 30L37 32L38 32L38 33L37 33L37 34L39 34L39 36L38 36L38 37L37 37L37 38L39 38L39 36L40 36L40 37L41 37L41 39L39 39L39 40L41 40L41 39L42 39L42 40L43 40L43 39L44 39L44 40L46 40L46 39L44 39L44 38L46 38L46 37L41 37L41 36L43 36L43 35L42 35L42 34L39 34L39 32L40 32L40 31L41 31L41 30L42 30L42 29L41 29L41 28L40 28L40 27L38 27L38 26L39 26L39 25L40 25L40 24L39 24L39 23L38 23L38 22L39 22L39 21L40 21L40 22L41 22L41 21L42 21L42 18L43 18L43 14L42 14L42 13L40 13L40 14L42 14L42 16L40 16L40 17L39 17L39 15L38 15L38 14L39 14L39 13L38 13L38 12L44 12L44 13L45 13L45 12L44 12L44 11L45 11L45 10L44 10L44 9L43 9L43 10L41 10L41 9L38 9L38 10L37 10L37 8L36 8L36 6L37 6L37 4L33 4L33 3L34 3L34 2L33 2L33 3L32 3L32 2L31 2L31 1L29 1L29 2L28 2L28 3L27 3L27 4L28 4L28 6L27 6L27 8L28 8L28 9L25 9L25 10L24 10L24 9L23 9L23 10L21 10L21 8L22 8L22 6L21 6L21 8L20 8L20 5L22 5L22 3L21 3L21 4L19 4L19 3L18 3L18 2L17 2L17 1L16 1L16 3L17 3L17 5L16 5L16 6L15 6L15 7L14 7L14 5L15 5L15 4L14 4L14 3L12 3L12 2L13 2L13 1ZM21 1L21 2L22 2L22 1ZM29 2L29 6L28 6L28 8L29 8L29 9L30 9L30 10L31 10L31 12L30 12L30 13L29 13L29 12L26 12L26 10L25 10L25 11L24 11L24 10L23 10L23 12L22 12L22 11L21 11L21 10L20 10L20 11L21 11L21 12L20 12L20 14L18 14L18 13L19 13L19 12L17 12L17 15L18 15L18 18L13 18L13 17L15 17L15 16L16 16L16 17L17 17L17 16L16 16L16 15L15 15L15 16L13 16L13 17L12 17L12 15L10 15L10 13L9 13L9 14L5 14L5 16L6 16L6 17L7 17L7 16L8 16L8 15L9 15L9 17L12 17L12 18L11 18L11 19L10 19L10 20L12 20L12 19L17 19L17 20L19 20L19 21L18 21L18 22L17 22L17 21L16 21L16 20L15 20L15 21L14 21L14 22L15 22L15 23L14 23L14 25L13 25L13 26L12 26L12 27L10 27L10 28L12 28L12 27L16 27L16 29L17 29L17 27L18 27L18 28L20 28L20 27L21 27L21 29L22 29L22 30L23 30L23 31L24 31L24 32L25 32L25 35L26 35L26 32L27 32L27 33L28 33L28 32L27 32L27 31L28 31L28 29L27 29L27 28L29 28L29 30L31 30L31 32L30 32L30 31L29 31L29 33L30 33L30 34L29 34L29 35L28 35L28 34L27 34L27 35L28 35L28 36L30 36L30 37L28 37L28 38L33 38L33 37L31 37L31 36L33 36L33 35L35 35L35 36L36 36L36 35L35 35L35 34L33 34L33 35L30 35L30 34L32 34L32 33L31 33L31 32L32 32L32 28L33 28L33 29L34 29L34 28L33 28L33 25L32 25L32 24L33 24L33 23L34 23L34 25L36 25L36 26L37 26L37 24L38 24L38 23L37 23L37 21L39 21L39 19L40 19L40 21L41 21L41 18L42 18L42 17L40 17L40 18L39 18L39 19L38 19L38 18L36 18L36 17L38 17L38 16L36 16L36 17L35 17L35 18L36 18L36 19L37 19L37 20L36 20L36 21L35 21L35 22L33 22L33 21L32 21L32 22L31 22L31 20L30 20L30 19L32 19L32 20L34 20L34 19L32 19L32 18L34 18L34 17L31 17L31 16L34 16L34 15L35 15L35 14L36 14L36 15L37 15L37 12L34 12L34 11L36 11L36 10L34 10L34 9L33 9L33 8L31 8L31 6L30 6L30 5L32 5L32 4L30 4L30 2ZM10 4L10 6L11 6L11 4ZM17 5L17 6L18 6L18 5ZM23 5L23 8L26 8L26 5ZM33 5L33 6L32 6L32 7L33 7L33 6L34 6L34 8L35 8L35 9L36 9L36 8L35 8L35 5ZM24 6L24 7L25 7L25 6ZM29 6L29 7L30 7L30 6ZM40 6L40 7L41 7L41 6ZM17 8L17 9L18 9L18 8ZM48 8L48 9L49 9L49 8ZM11 9L11 10L12 10L12 9ZM31 9L31 10L32 10L32 9ZM15 10L15 11L16 11L16 10ZM27 10L27 11L29 11L29 10ZM33 10L33 11L34 11L34 10ZM38 10L38 11L39 11L39 10ZM43 10L43 11L44 11L44 10ZM48 10L48 11L49 11L49 10ZM23 12L23 13L24 13L24 14L23 14L23 15L22 15L22 14L20 14L20 15L21 15L21 17L20 17L20 16L19 16L19 18L18 18L18 19L19 19L19 20L20 20L20 21L19 21L19 22L18 22L18 23L16 23L16 27L17 27L17 25L18 25L18 26L20 26L20 25L19 25L19 24L21 24L21 25L22 25L22 21L24 21L24 22L27 22L27 23L28 23L28 24L27 24L27 25L28 25L28 24L29 24L29 25L30 25L30 24L29 24L29 21L28 21L28 20L29 20L29 18L30 18L30 17L28 17L28 15L29 15L29 16L30 16L30 15L34 15L34 14L35 14L35 13L34 13L34 14L33 14L33 12L31 12L31 13L32 13L32 14L27 14L27 13L26 13L26 12ZM25 13L25 17L23 17L23 16L24 16L24 15L23 15L23 16L22 16L22 17L23 17L23 18L25 18L25 19L28 19L28 17L27 17L27 18L25 18L25 17L26 17L26 13ZM47 14L47 15L49 15L49 14ZM6 15L6 16L7 16L7 15ZM44 16L44 17L45 17L45 16ZM21 18L21 19L20 19L20 20L21 20L21 19L22 19L22 20L24 20L24 19L22 19L22 18ZM46 18L46 19L45 19L45 20L44 20L44 21L43 21L43 22L46 22L46 23L45 23L45 24L47 24L47 22L46 22L46 20L47 20L47 18ZM15 21L15 22L16 22L16 21ZM19 22L19 23L21 23L21 22ZM30 22L30 23L31 23L31 24L32 24L32 23L33 23L33 22L32 22L32 23L31 23L31 22ZM5 23L5 26L8 26L8 23ZM23 23L23 26L26 26L26 23ZM35 23L35 24L37 24L37 23ZM41 23L41 26L44 26L44 23ZM3 24L3 25L4 25L4 24ZM6 24L6 25L7 25L7 24ZM24 24L24 25L25 25L25 24ZM42 24L42 25L43 25L43 24ZM14 25L14 26L15 26L15 25ZM27 26L27 27L28 27L28 26ZM29 26L29 28L30 28L30 29L31 29L31 28L32 28L32 27L31 27L31 26ZM46 26L46 27L47 27L47 28L46 28L46 31L45 31L45 32L43 32L43 33L45 33L45 32L46 32L46 33L47 33L47 32L46 32L46 31L47 31L47 30L48 30L48 33L49 33L49 30L48 30L48 29L49 29L49 26ZM22 27L22 28L23 28L23 29L26 29L26 27L24 27L24 28L23 28L23 27ZM30 27L30 28L31 28L31 27ZM42 27L42 28L43 28L43 27ZM38 28L38 29L39 29L39 30L38 30L38 31L40 31L40 28ZM47 28L47 29L48 29L48 28ZM18 29L18 32L19 32L19 31L21 31L21 30L20 30L20 29ZM13 30L13 31L14 31L14 30ZM33 30L33 31L35 31L35 30ZM11 32L11 34L10 34L10 35L9 35L9 36L8 36L8 35L6 35L6 34L7 34L7 33L6 33L6 34L5 34L5 35L6 35L6 36L8 36L8 37L9 37L9 36L10 36L10 35L11 35L11 34L13 34L13 35L14 35L14 33L13 33L13 32ZM33 32L33 33L34 33L34 32ZM8 33L8 34L9 34L9 33ZM18 34L18 37L17 37L17 35L15 35L15 36L16 36L16 38L18 38L18 41L19 41L19 39L20 39L20 40L22 40L22 39L23 39L23 40L25 40L25 39L23 39L23 38L24 38L24 37L23 37L23 36L22 36L22 37L21 37L21 39L20 39L20 35L21 35L21 34L20 34L20 35L19 35L19 34ZM40 35L40 36L41 36L41 35ZM11 36L11 38L9 38L9 39L11 39L11 40L10 40L10 42L9 42L9 44L10 44L10 42L11 42L11 43L12 43L12 42L13 42L13 39L14 39L14 38L15 38L15 37L14 37L14 38L12 38L12 37L13 37L13 36ZM25 37L25 38L26 38L26 37ZM11 38L11 39L12 39L12 38ZM42 38L42 39L43 39L43 38ZM15 39L15 40L16 40L16 39ZM28 39L28 40L30 40L30 39ZM31 39L31 40L33 40L33 39ZM8 40L8 41L9 41L9 40ZM11 40L11 41L12 41L12 40ZM14 41L14 43L13 43L13 44L14 44L14 45L15 45L15 42L16 42L16 41ZM23 41L23 44L26 44L26 41ZM29 41L29 42L30 42L30 41ZM32 41L32 42L33 42L33 43L34 43L34 44L33 44L33 45L34 45L34 44L35 44L35 43L34 43L34 42L33 42L33 41ZM41 41L41 44L44 44L44 41ZM17 42L17 43L18 43L18 42ZM24 42L24 43L25 43L25 42ZM42 42L42 43L43 43L43 42ZM47 42L47 43L49 43L49 42ZM11 44L11 45L10 45L10 47L11 47L11 46L12 46L12 44ZM17 44L17 45L18 45L18 44ZM43 45L43 46L44 46L44 47L45 47L45 48L48 48L48 47L47 47L47 46L46 46L46 47L45 47L45 46L44 46L44 45ZM15 46L15 47L16 47L16 48L17 48L17 46ZM24 46L24 47L23 47L23 48L24 48L24 49L25 49L25 48L26 48L26 47L25 47L25 46ZM37 46L37 47L38 47L38 46ZM24 47L24 48L25 48L25 47ZM0 0L0 7L7 7L7 0ZM1 1L1 6L6 6L6 1ZM2 2L2 5L5 5L5 2ZM42 0L42 7L49 7L49 0ZM43 1L43 6L48 6L48 1ZM44 2L44 5L47 5L47 2ZM0 42L0 49L7 49L7 42ZM1 43L1 48L6 48L6 43ZM2 44L2 47L5 47L5 44Z" fill="#000000"/></g></g></svg>
