<?xml version="1.0" encoding="UTF-8"?>
<svg xmlns="http://www.w3.org/2000/svg" version="1.1" width="300" height="300" viewBox="0 0 300 300"><rect x="0" y="0" width="300" height="300" fill="#ffffff"/><g transform="scale(8.108)"><g transform="translate(0,0)"><path fill-rule="evenodd" d="M8 0L8 5L9 5L9 6L8 6L8 8L6 8L6 9L7 9L7 10L5 10L5 8L4 8L4 9L3 9L3 8L1 8L1 9L0 9L0 11L1 11L1 12L5 12L5 14L6 14L6 15L5 15L5 16L3 16L3 14L4 14L4 13L2 13L2 15L1 15L1 17L0 17L0 19L1 19L1 17L2 17L2 16L3 16L3 18L2 18L2 21L3 21L3 19L4 19L4 20L5 20L5 21L7 21L7 22L2 22L2 24L3 24L3 25L4 25L4 26L6 26L6 27L5 27L5 28L4 28L4 27L3 27L3 28L2 28L2 27L1 27L1 26L2 26L2 25L1 25L1 24L0 24L0 25L1 25L1 26L0 26L0 27L1 27L1 28L0 28L0 29L1 29L1 28L2 28L2 29L5 29L5 28L6 28L6 29L7 29L7 28L8 28L8 27L9 27L9 29L8 29L8 31L9 31L9 32L8 32L8 33L10 33L10 34L8 34L8 36L10 36L10 34L11 34L11 33L12 33L12 32L14 32L14 31L15 31L15 33L14 33L14 34L12 34L12 36L11 36L11 37L13 37L13 35L15 35L15 36L14 36L14 37L15 37L15 36L16 36L16 37L19 37L19 36L20 36L20 35L19 35L19 36L17 36L17 34L16 34L16 33L18 33L18 32L19 32L19 34L20 34L20 31L18 31L18 32L17 32L17 30L14 30L14 28L13 28L13 29L11 29L11 28L12 28L12 27L15 27L15 29L16 29L16 27L15 27L15 26L17 26L17 27L18 27L18 26L17 26L17 25L18 25L18 24L19 24L19 23L20 23L20 25L19 25L19 26L21 26L21 27L22 27L22 26L23 26L23 24L24 24L24 26L25 26L25 24L26 24L26 26L27 26L27 27L24 27L24 28L25 28L25 29L26 29L26 30L27 30L27 31L25 31L25 30L24 30L24 31L23 31L23 32L24 32L24 33L23 33L23 34L22 34L22 33L21 33L21 34L22 34L22 35L21 35L21 36L22 36L22 37L25 37L25 35L26 35L26 34L28 34L28 37L29 37L29 36L30 36L30 37L34 37L34 30L33 30L33 28L32 28L32 27L33 27L33 26L32 26L32 25L33 25L33 24L30 24L30 25L31 25L31 26L30 26L30 27L31 27L31 28L29 28L29 24L28 24L28 23L29 23L29 22L30 22L30 23L31 23L31 22L32 22L32 23L35 23L35 25L34 25L34 26L35 26L35 27L34 27L34 29L36 29L36 31L37 31L37 25L36 25L36 24L37 24L37 23L36 23L36 21L37 21L37 20L36 20L36 19L37 19L37 16L36 16L36 15L37 15L37 12L36 12L36 15L35 15L35 22L34 22L34 15L33 15L33 22L32 22L32 20L29 20L29 22L28 22L28 23L27 23L27 21L28 21L28 19L29 19L29 16L28 16L28 15L27 15L27 14L28 14L28 13L29 13L29 15L30 15L30 14L31 14L31 15L32 15L32 12L33 12L33 13L35 13L35 12L34 12L34 11L35 11L35 10L34 10L34 9L36 9L36 11L37 11L37 8L32 8L32 10L33 10L33 11L32 11L32 12L31 12L31 10L30 10L30 9L31 9L31 8L30 8L30 9L29 9L29 10L30 10L30 11L29 11L29 12L28 12L28 11L27 11L27 12L26 12L26 11L25 11L25 12L24 12L24 11L23 11L23 10L22 10L22 8L23 8L23 9L24 9L24 10L26 10L26 9L25 9L25 6L24 6L24 8L23 8L23 6L22 6L22 7L21 7L21 5L18 5L18 7L17 7L17 6L16 6L16 5L17 5L17 4L16 4L16 3L14 3L14 4L13 4L13 1L12 1L12 0ZM14 0L14 2L17 2L17 0ZM18 0L18 2L21 2L21 0L20 0L20 1L19 1L19 0ZM22 0L22 1L23 1L23 0ZM25 0L25 1L26 1L26 2L25 2L25 5L26 5L26 7L27 7L27 8L29 8L29 6L28 6L28 3L29 3L29 0L27 0L27 1L26 1L26 0ZM10 2L10 3L9 3L9 5L10 5L10 4L12 4L12 5L11 5L11 7L10 7L10 6L9 6L9 7L10 7L10 8L12 8L12 9L15 9L15 8L16 8L16 9L17 9L17 11L16 11L16 10L15 10L15 11L14 11L14 10L13 10L13 11L14 11L14 12L11 12L11 9L9 9L9 8L8 8L8 9L9 9L9 10L7 10L7 11L6 11L6 12L7 12L7 13L6 13L6 14L7 14L7 13L8 13L8 12L9 12L9 14L8 14L8 15L6 15L6 16L8 16L8 17L9 17L9 18L8 18L8 19L6 19L6 18L7 18L7 17L5 17L5 18L4 18L4 19L5 19L5 20L8 20L8 21L9 21L9 20L10 20L10 19L9 19L9 18L10 18L10 16L8 16L8 15L9 15L9 14L10 14L10 15L12 15L12 16L16 16L16 20L15 20L15 17L14 17L14 20L13 20L13 17L12 17L12 18L11 18L11 21L10 21L10 22L11 22L11 24L10 24L10 25L11 25L11 26L12 26L12 25L13 25L13 23L14 23L14 24L15 24L15 25L14 25L14 26L15 26L15 25L16 25L16 23L17 23L17 21L19 21L19 20L20 20L20 23L21 23L21 20L20 20L20 19L21 19L21 18L20 18L20 19L19 19L19 17L18 17L18 16L17 16L17 15L19 15L19 16L20 16L20 17L22 17L22 16L21 16L21 15L22 15L22 14L21 14L21 13L22 13L22 12L21 12L21 11L22 11L22 10L21 10L21 11L20 11L20 12L21 12L21 13L20 13L20 14L19 14L19 12L17 12L17 11L19 11L19 7L20 7L20 9L21 9L21 7L20 7L20 6L19 6L19 7L18 7L18 9L17 9L17 7L16 7L16 6L15 6L15 5L14 5L14 6L13 6L13 4L12 4L12 3L11 3L11 2ZM23 2L23 3L24 3L24 2ZM27 2L27 3L28 3L28 2ZM20 3L20 4L21 4L21 3ZM12 6L12 7L13 7L13 6ZM14 6L14 7L15 7L15 6ZM27 6L27 7L28 7L28 6ZM1 9L1 10L2 10L2 11L4 11L4 10L2 10L2 9ZM27 9L27 10L28 10L28 9ZM9 10L9 11L10 11L10 10ZM23 12L23 15L26 15L26 16L27 16L27 15L26 15L26 14L27 14L27 13L28 13L28 12L27 12L27 13L26 13L26 14L24 14L24 12ZM0 13L0 14L1 14L1 13ZM10 13L10 14L11 14L11 13ZM13 13L13 14L17 14L17 13ZM20 14L20 15L21 15L21 14ZM23 16L23 17L24 17L24 18L22 18L22 19L24 19L24 20L23 20L23 21L22 21L22 22L23 22L23 23L22 23L22 24L23 24L23 23L24 23L24 24L25 24L25 23L26 23L26 22L25 22L25 21L26 21L26 20L25 20L25 19L26 19L26 18L27 18L27 19L28 19L28 17L26 17L26 18L25 18L25 16ZM30 16L30 18L32 18L32 17L31 17L31 16ZM17 18L17 20L16 20L16 21L17 21L17 20L18 20L18 18ZM8 19L8 20L9 20L9 19ZM0 20L0 21L1 21L1 20ZM12 20L12 21L11 21L11 22L13 22L13 20ZM23 21L23 22L24 22L24 21ZM0 22L0 23L1 23L1 22ZM8 22L8 23L6 23L6 24L9 24L9 22ZM14 22L14 23L15 23L15 22ZM3 23L3 24L5 24L5 23ZM11 24L11 25L12 25L12 24ZM6 25L6 26L8 26L8 25ZM21 25L21 26L22 26L22 25ZM6 27L6 28L7 28L7 27ZM10 27L10 28L11 28L11 27ZM19 27L19 29L18 29L18 28L17 28L17 29L18 29L18 30L19 30L19 29L21 29L21 28L20 28L20 27ZM27 27L27 28L28 28L28 27ZM10 29L10 33L11 33L11 31L14 31L14 30L11 30L11 29ZM27 29L27 30L28 30L28 29ZM29 29L29 32L32 32L32 29ZM21 30L21 31L22 31L22 30ZM30 30L30 31L31 31L31 30ZM24 31L24 32L25 32L25 31ZM27 32L27 33L28 33L28 32ZM35 32L35 34L36 34L36 35L35 35L35 37L37 37L37 36L36 36L36 35L37 35L37 33L36 33L36 32ZM25 33L25 34L26 34L26 33ZM30 33L30 35L31 35L31 36L33 36L33 35L32 35L32 33ZM15 34L15 35L16 35L16 34ZM23 35L23 36L24 36L24 35ZM0 0L0 7L7 7L7 0ZM1 1L1 6L6 6L6 1ZM2 2L2 5L5 5L5 2ZM30 0L30 7L37 7L37 0ZM31 1L31 6L36 6L36 1ZM32 2L32 5L35 5L35 2ZM0 30L0 37L7 37L7 30ZM1 31L1 36L6 36L6 31ZM2 32L2 35L5 35L5 32Z" fill="#000000"/></g></g></svg>
