<?xml version="1.0" encoding="UTF-8"?>
<svg xmlns="http://www.w3.org/2000/svg" version="1.1" width="300" height="300" viewBox="0 0 300 300"><rect x="0" y="0" width="300" height="300" fill="#ffffff"/><g transform="scale(8.108)"><g transform="translate(0,0)"><path fill-rule="evenodd" d="M8 0L8 1L9 1L9 2L10 2L10 3L9 3L9 4L8 4L8 7L9 7L9 8L10 8L10 9L8 9L8 8L1 8L1 9L0 9L0 10L2 10L2 14L1 14L1 13L0 13L0 14L1 14L1 15L0 15L0 16L2 16L2 15L3 15L3 17L4 17L4 15L5 15L5 14L4 14L4 15L3 15L3 12L4 12L4 9L5 9L5 10L6 10L6 11L5 11L5 13L7 13L7 14L6 14L6 15L7 15L7 14L8 14L8 15L9 15L9 16L8 16L8 18L6 18L6 17L7 17L7 16L5 16L5 18L6 18L6 19L7 19L7 20L6 20L6 21L7 21L7 22L4 22L4 21L5 21L5 19L4 19L4 18L3 18L3 19L4 19L4 21L3 21L3 20L2 20L2 21L0 21L0 29L1 29L1 24L2 24L2 25L3 25L3 24L4 24L4 26L2 26L2 27L3 27L3 28L5 28L5 25L7 25L7 26L6 26L6 27L7 27L7 26L8 26L8 28L11 28L11 29L8 29L8 36L9 36L9 37L10 37L10 36L9 36L9 35L10 35L10 34L12 34L12 35L11 35L11 37L13 37L13 36L14 36L14 37L15 37L15 36L14 36L14 35L13 35L13 34L14 34L14 33L16 33L16 34L18 34L18 37L19 37L19 33L21 33L21 34L20 34L20 35L21 35L21 36L20 36L20 37L22 37L22 36L23 36L23 37L25 37L25 36L26 36L26 37L28 37L28 36L29 36L29 37L32 37L32 36L31 36L31 35L32 35L32 34L33 34L33 36L34 36L34 37L37 37L37 34L36 34L36 36L34 36L34 35L35 35L35 34L34 34L34 33L36 33L36 32L37 32L37 30L36 30L36 29L37 29L37 28L36 28L36 27L37 27L37 26L35 26L35 25L36 25L36 24L33 24L33 25L34 25L34 26L33 26L33 27L34 27L34 28L29 28L29 27L28 27L28 31L27 31L27 29L26 29L26 28L27 28L27 26L30 26L30 27L32 27L32 26L31 26L31 25L32 25L32 24L31 24L31 22L30 22L30 23L28 23L28 22L29 22L29 21L33 21L33 23L36 23L36 22L37 22L37 18L36 18L36 17L37 17L37 14L36 14L36 13L37 13L37 12L35 12L35 14L31 14L31 15L30 15L30 14L28 14L28 11L30 11L30 12L29 12L29 13L33 13L33 12L34 12L34 11L33 11L33 10L34 10L34 9L33 9L33 8L31 8L31 9L30 9L30 10L28 10L28 9L29 9L29 6L28 6L28 5L26 5L26 4L29 4L29 2L28 2L28 1L27 1L27 0L25 0L25 1L23 1L23 2L22 2L22 0L21 0L21 1L20 1L20 3L18 3L18 2L19 2L19 0L18 0L18 1L16 1L16 0L14 0L14 1L16 1L16 2L17 2L17 3L16 3L16 5L17 5L17 6L16 6L16 7L15 7L15 6L14 6L14 7L13 7L13 6L12 6L12 7L13 7L13 8L14 8L14 9L13 9L13 10L12 10L12 11L11 11L11 9L12 9L12 8L11 8L11 5L12 5L12 3L13 3L13 5L14 5L14 4L15 4L15 3L14 3L14 2L10 2L10 0ZM11 0L11 1L12 1L12 0ZM24 2L24 3L25 3L25 4L23 4L23 3L21 3L21 4L20 4L20 6L19 6L19 4L18 4L18 6L17 6L17 7L16 7L16 8L15 8L15 7L14 7L14 8L15 8L15 9L16 9L16 8L17 8L17 7L18 7L18 8L20 8L20 9L22 9L22 11L23 11L23 12L22 12L22 13L25 13L25 14L22 14L22 15L23 15L23 16L22 16L22 17L23 17L23 19L22 19L22 20L20 20L20 22L19 22L19 20L18 20L18 18L16 18L16 17L18 17L18 16L19 16L19 18L20 18L20 16L19 16L19 15L20 15L20 12L19 12L19 11L21 11L21 10L18 10L18 14L17 14L17 10L16 10L16 11L15 11L15 10L14 10L14 11L15 11L15 12L14 12L14 14L15 14L15 18L14 18L14 17L13 17L13 18L12 18L12 17L11 17L11 16L12 16L12 15L13 15L13 16L14 16L14 15L13 15L13 12L12 12L12 15L11 15L11 16L10 16L10 17L11 17L11 19L13 19L13 20L11 20L11 22L7 22L7 23L6 23L6 24L7 24L7 25L8 25L8 26L9 26L9 25L8 25L8 23L10 23L10 24L11 24L11 23L13 23L13 24L14 24L14 26L15 26L15 24L16 24L16 25L17 25L17 24L18 24L18 25L19 25L19 26L21 26L21 28L23 28L23 29L20 29L20 27L18 27L18 26L17 26L17 27L16 27L16 28L14 28L14 29L13 29L13 28L12 28L12 27L13 27L13 26L12 26L12 27L11 27L11 26L10 26L10 27L11 27L11 28L12 28L12 29L11 29L11 30L12 30L12 29L13 29L13 30L14 30L14 31L15 31L15 29L16 29L16 28L18 28L18 29L20 29L20 32L24 32L24 31L25 31L25 32L26 32L26 33L27 33L27 32L26 32L26 30L25 30L25 29L24 29L24 28L26 28L26 26L25 26L25 25L27 25L27 24L26 24L26 23L27 23L27 22L28 22L28 21L29 21L29 19L31 19L31 20L32 20L32 19L33 19L33 20L36 20L36 18L35 18L35 17L34 17L34 18L35 18L35 19L33 19L33 17L32 17L32 16L36 16L36 14L35 14L35 15L31 15L31 17L27 17L27 16L26 16L26 14L27 14L27 9L26 9L26 8L28 8L28 6L27 6L27 7L26 7L26 6L25 6L25 7L24 7L24 6L23 6L23 5L25 5L25 4L26 4L26 3L28 3L28 2L26 2L26 3L25 3L25 2ZM9 4L9 7L10 7L10 4ZM21 4L21 6L20 6L20 8L22 8L22 9L23 9L23 10L26 10L26 9L24 9L24 7L23 7L23 6L22 6L22 5L23 5L23 4ZM18 6L18 7L19 7L19 6ZM21 6L21 7L22 7L22 6ZM25 7L25 8L26 8L26 7ZM36 8L36 9L37 9L37 8ZM6 9L6 10L7 10L7 9ZM8 10L8 11L10 11L10 12L7 12L7 11L6 11L6 12L7 12L7 13L9 13L9 15L10 15L10 12L11 12L11 11L10 11L10 10ZM31 10L31 11L32 11L32 10ZM35 10L35 11L37 11L37 10ZM0 11L0 12L1 12L1 11ZM15 12L15 14L16 14L16 12ZM25 12L25 13L26 13L26 12ZM16 15L16 16L17 16L17 15ZM24 15L24 16L25 16L25 17L24 17L24 18L25 18L25 17L26 17L26 16L25 16L25 15ZM1 17L1 19L2 19L2 17ZM9 18L9 19L10 19L10 18ZM13 18L13 19L14 19L14 18ZM15 18L15 19L16 19L16 18ZM27 18L27 19L26 19L26 20L28 20L28 18ZM24 19L24 20L25 20L25 19ZM9 20L9 21L10 21L10 20ZM2 21L2 22L1 22L1 23L2 23L2 24L3 24L3 21ZM13 21L13 22L15 22L15 23L16 23L16 24L17 24L17 23L19 23L19 22L15 22L15 21ZM21 21L21 22L20 22L20 23L21 23L21 24L20 24L20 25L21 25L21 24L22 24L22 23L23 23L23 22L22 22L22 21ZM24 21L24 22L25 22L25 21ZM26 21L26 22L27 22L27 21ZM34 21L34 22L36 22L36 21ZM21 22L21 23L22 23L22 22ZM24 23L24 25L22 25L22 27L23 27L23 26L24 26L24 27L25 27L25 26L24 26L24 25L25 25L25 23ZM28 24L28 25L30 25L30 24ZM6 28L6 29L7 29L7 28ZM34 28L34 29L33 29L33 31L34 31L34 32L33 32L33 33L34 33L34 32L35 32L35 31L36 31L36 30L35 30L35 28ZM23 29L23 30L22 30L22 31L23 31L23 30L24 30L24 29ZM29 29L29 32L32 32L32 29ZM9 30L9 31L10 31L10 32L9 32L9 34L10 34L10 32L11 32L11 33L13 33L13 31L12 31L12 32L11 32L11 31L10 31L10 30ZM16 30L16 33L17 33L17 31L18 31L18 33L19 33L19 30ZM30 30L30 31L31 31L31 30ZM22 33L22 35L23 35L23 34L25 34L25 33ZM31 33L31 34L27 34L27 35L26 35L26 36L28 36L28 35L29 35L29 36L30 36L30 35L31 35L31 34L32 34L32 33ZM12 35L12 36L13 36L13 35ZM16 35L16 37L17 37L17 35ZM24 35L24 36L25 36L25 35ZM0 0L0 7L7 7L7 0ZM1 1L1 6L6 6L6 1ZM2 2L2 5L5 5L5 2ZM30 0L30 7L37 7L37 0ZM31 1L31 6L36 6L36 1ZM32 2L32 5L35 5L35 2ZM0 30L0 37L7 37L7 30ZM1 31L1 36L6 36L6 31ZM2 32L2 35L5 35L5 32Z" fill="#000000"/></g></g></svg>
