<?xml version="1.0" encoding="UTF-8"?>
<svg xmlns="http://www.w3.org/2000/svg" version="1.1" width="300" height="300" viewBox="0 0 300 300"><rect x="0" y="0" width="300" height="300" fill="#ffffff"/><g transform="scale(6.122)"><g transform="translate(0,0)"><path fill-rule="evenodd" d="M8 0L8 1L9 1L9 3L11 3L11 5L9 5L9 4L8 4L8 7L9 7L9 9L10 9L10 10L11 10L11 11L12 11L12 10L11 10L11 8L10 8L10 7L11 7L11 6L12 6L12 7L13 7L13 8L15 8L15 9L18 9L18 13L16 13L16 12L15 12L15 11L17 11L17 10L14 10L14 9L13 9L13 10L14 10L14 12L15 12L15 13L14 13L14 14L17 14L17 15L19 15L19 14L22 14L22 15L23 15L23 16L22 16L22 17L23 17L23 18L25 18L25 19L24 19L24 20L23 20L23 19L22 19L22 18L21 18L21 17L20 17L20 16L19 16L19 17L20 17L20 18L19 18L19 19L18 19L18 18L17 18L17 20L20 20L20 21L18 21L18 22L15 22L15 21L14 21L14 22L15 22L15 23L14 23L14 25L13 25L13 19L15 19L15 18L16 18L16 17L18 17L18 16L16 16L16 15L15 15L15 16L16 16L16 17L15 17L15 18L12 18L12 23L10 23L10 22L6 22L6 21L7 21L7 20L8 20L8 21L10 21L10 20L11 20L11 19L10 19L10 18L11 18L11 17L10 17L10 18L8 18L8 17L7 17L7 16L8 16L8 15L9 15L9 14L10 14L10 16L11 16L11 14L13 14L13 12L11 12L11 14L10 14L10 13L9 13L9 12L8 12L8 8L1 8L1 9L0 9L0 10L3 10L3 11L4 11L4 13L9 13L9 14L6 14L6 15L7 15L7 16L6 16L6 17L5 17L5 16L4 16L4 15L5 15L5 14L2 14L2 12L1 12L1 11L0 11L0 14L2 14L2 16L3 16L3 17L4 17L4 19L3 19L3 18L1 18L1 15L0 15L0 18L1 18L1 19L0 19L0 20L1 20L1 21L0 21L0 26L1 26L1 28L0 28L0 30L1 30L1 32L0 32L0 33L3 33L3 32L4 32L4 34L1 34L1 35L2 35L2 37L0 37L0 38L1 38L1 40L0 40L0 41L3 41L3 40L4 40L4 39L2 39L2 37L4 37L4 38L5 38L5 39L8 39L8 40L6 40L6 41L8 41L8 48L9 48L9 49L10 49L10 48L11 48L11 49L12 49L12 48L11 48L11 47L12 47L12 46L14 46L14 48L15 48L15 49L18 49L18 46L19 46L19 44L20 44L20 42L22 42L22 45L20 45L20 47L19 47L19 48L20 48L20 49L21 49L21 48L22 48L22 46L23 46L23 45L27 45L27 44L29 44L29 45L28 45L28 46L27 46L27 49L28 49L28 48L29 48L29 49L30 49L30 47L28 47L28 46L31 46L31 47L32 47L32 48L31 48L31 49L32 49L32 48L33 48L33 49L34 49L34 47L37 47L37 48L35 48L35 49L38 49L38 48L40 48L40 49L41 49L41 47L42 47L42 48L43 48L43 47L44 47L44 48L45 48L45 49L49 49L49 45L48 45L48 44L46 44L46 46L45 46L45 43L46 43L46 42L45 42L45 41L48 41L48 40L45 40L45 39L46 39L46 37L47 37L47 36L48 36L48 37L49 37L49 34L47 34L47 36L44 36L44 37L42 37L42 36L41 36L41 35L40 35L40 36L39 36L39 34L42 34L42 35L43 35L43 34L42 34L42 33L41 33L41 32L42 32L42 31L43 31L43 33L47 33L47 32L48 32L48 33L49 33L49 30L48 30L48 31L47 31L47 28L46 28L46 31L47 31L47 32L44 32L44 31L43 31L43 30L44 30L44 29L45 29L45 28L44 28L44 27L45 27L45 25L47 25L47 26L46 26L46 27L47 27L47 26L48 26L48 27L49 27L49 26L48 26L48 24L45 24L45 23L46 23L46 22L47 22L47 23L49 23L49 22L47 22L47 20L48 20L48 21L49 21L49 18L47 18L47 17L48 17L48 16L46 16L46 15L49 15L49 14L46 14L46 15L45 15L45 13L44 13L44 12L46 12L46 13L48 13L48 12L46 12L46 11L44 11L44 10L43 10L43 9L45 9L45 8L43 8L43 9L42 9L42 10L41 10L41 11L42 11L42 12L43 12L43 13L42 13L42 14L40 14L40 13L41 13L41 12L38 12L38 13L39 13L39 14L37 14L37 12L36 12L36 14L34 14L34 13L32 13L32 12L33 12L33 11L32 11L32 12L31 12L31 11L30 11L30 10L32 10L32 9L31 9L31 8L32 8L32 7L33 7L33 8L34 8L34 9L33 9L33 10L34 10L34 12L35 12L35 10L36 10L36 11L39 11L39 10L37 10L37 9L41 9L41 8L37 8L37 6L38 6L38 7L39 7L39 5L38 5L38 3L35 3L35 2L37 2L37 1L38 1L38 2L39 2L39 4L40 4L40 3L41 3L41 0L40 0L40 1L38 1L38 0L35 0L35 1L31 1L31 0L29 0L29 1L31 1L31 2L32 2L32 3L33 3L33 4L37 4L37 6L36 6L36 7L35 7L35 5L33 5L33 6L32 6L32 7L31 7L31 6L30 6L30 5L32 5L32 4L30 4L30 2L27 2L27 3L25 3L25 1L24 1L24 4L21 4L21 3L23 3L23 2L22 2L22 0L21 0L21 1L20 1L20 2L19 2L19 0L16 0L16 1L15 1L15 0ZM10 1L10 2L11 2L11 3L12 3L12 4L13 4L13 3L14 3L14 6L13 6L13 5L12 5L12 6L13 6L13 7L14 7L14 6L15 6L15 7L16 7L16 6L17 6L17 8L19 8L19 9L20 9L20 10L21 10L21 11L19 11L19 13L20 13L20 12L21 12L21 11L22 11L22 10L24 10L24 9L22 9L22 6L21 6L21 8L20 8L20 5L21 5L21 4L17 4L17 5L16 5L16 6L15 6L15 2L14 2L14 1L12 1L12 2L11 2L11 1ZM16 1L16 3L17 3L17 1ZM12 2L12 3L13 3L13 2ZM18 2L18 3L19 3L19 2ZM33 2L33 3L34 3L34 2ZM27 3L27 5L28 5L28 3ZM18 5L18 7L19 7L19 5ZM23 5L23 8L26 8L26 5ZM9 6L9 7L10 7L10 6ZM24 6L24 7L25 7L25 6ZM27 6L27 7L28 7L28 6ZM29 6L29 7L30 7L30 6ZM33 6L33 7L34 7L34 8L35 8L35 9L34 9L34 10L35 10L35 9L36 9L36 8L35 8L35 7L34 7L34 6ZM40 6L40 7L41 7L41 6ZM28 8L28 10L27 10L27 9L26 9L26 10L27 10L27 11L26 11L26 12L23 12L23 13L24 13L24 14L23 14L23 15L24 15L24 16L23 16L23 17L25 17L25 18L27 18L27 17L28 17L28 20L27 20L27 19L25 19L25 21L23 21L23 20L22 20L22 19L20 19L20 20L21 20L21 21L22 21L22 22L20 22L20 23L21 23L21 25L22 25L22 22L27 22L27 21L29 21L29 19L30 19L30 20L31 20L31 22L30 22L30 23L31 23L31 24L32 24L32 25L33 25L33 28L32 28L32 27L31 27L31 26L29 26L29 25L30 25L30 24L29 24L29 22L28 22L28 23L27 23L27 24L28 24L28 25L27 25L27 26L28 26L28 27L29 27L29 28L27 28L27 29L26 29L26 28L24 28L24 27L23 27L23 30L22 30L22 28L21 28L21 27L22 27L22 26L21 26L21 27L20 27L20 28L19 28L19 29L16 29L16 27L17 27L17 28L18 28L18 26L20 26L20 25L19 25L19 22L18 22L18 23L17 23L17 24L16 24L16 27L15 27L15 25L14 25L14 27L12 27L12 26L13 26L13 25L9 25L9 28L7 28L7 27L4 27L4 26L3 26L3 27L4 27L4 28L7 28L7 29L5 29L5 30L4 30L4 29L3 29L3 28L1 28L1 30L3 30L3 31L4 31L4 32L5 32L5 31L6 31L6 32L7 32L7 33L6 33L6 34L5 34L5 35L3 35L3 36L4 36L4 37L5 37L5 38L8 38L8 37L5 37L5 35L6 35L6 36L9 36L9 40L8 40L8 41L9 41L9 40L10 40L10 39L11 39L11 40L12 40L12 38L10 38L10 37L12 37L12 34L10 34L10 35L11 35L11 36L9 36L9 33L13 33L13 36L15 36L15 37L13 37L13 40L14 40L14 41L12 41L12 42L11 42L11 41L10 41L10 42L9 42L9 44L10 44L10 42L11 42L11 43L12 43L12 45L13 45L13 44L14 44L14 45L18 45L18 44L15 44L15 43L16 43L16 42L17 42L17 43L18 43L18 42L20 42L20 40L24 40L24 38L25 38L25 39L29 39L29 40L27 40L27 42L30 42L30 41L29 41L29 40L30 40L30 39L31 39L31 41L34 41L34 42L31 42L31 43L33 43L33 44L32 44L32 47L33 47L33 46L35 46L35 44L37 44L37 43L35 43L35 42L38 42L38 43L40 43L40 41L39 41L39 40L44 40L44 39L45 39L45 37L44 37L44 39L37 39L37 38L39 38L39 36L38 36L38 34L39 34L39 33L38 33L38 34L37 34L37 32L40 32L40 31L41 31L41 30L42 30L42 29L41 29L41 28L40 28L40 27L38 27L38 26L40 26L40 24L39 24L39 23L40 23L40 22L41 22L41 21L42 21L42 17L41 17L41 16L39 16L39 17L40 17L40 18L37 18L37 19L35 19L35 18L34 18L34 17L33 17L33 16L34 16L34 14L32 14L32 15L31 15L31 14L30 14L30 13L29 13L29 14L27 14L27 13L26 13L26 12L30 12L30 11L29 11L29 10L30 10L30 9L29 9L29 8ZM48 8L48 9L46 9L46 10L48 10L48 11L49 11L49 10L48 10L48 9L49 9L49 8ZM4 9L4 11L5 11L5 10L7 10L7 9ZM42 10L42 11L43 11L43 12L44 12L44 11L43 11L43 10ZM6 11L6 12L7 12L7 11ZM25 13L25 17L26 17L26 13ZM29 14L29 15L28 15L28 17L29 17L29 18L30 18L30 19L32 19L32 20L34 20L34 18L32 18L32 16L33 16L33 15L32 15L32 16L31 16L31 18L30 18L30 17L29 17L29 16L30 16L30 14ZM42 14L42 15L43 15L43 14ZM35 15L35 16L37 16L37 17L38 17L38 16L37 16L37 15ZM12 16L12 17L14 17L14 16ZM44 16L44 17L46 17L46 16ZM6 17L6 18L5 18L5 19L4 19L4 21L3 21L3 19L1 19L1 20L2 20L2 21L1 21L1 23L2 23L2 24L1 24L1 26L2 26L2 24L3 24L3 25L4 25L4 24L3 24L3 22L5 22L5 21L6 21L6 20L7 20L7 19L6 19L6 18L7 18L7 17ZM46 18L46 19L45 19L45 20L44 20L44 21L43 21L43 22L46 22L46 20L47 20L47 18ZM5 19L5 20L6 20L6 19ZM9 19L9 20L10 20L10 19ZM37 19L37 20L36 20L36 21L35 21L35 22L33 22L33 21L32 21L32 22L31 22L31 23L32 23L32 24L33 24L33 23L34 23L34 25L36 25L36 26L34 26L34 27L35 27L35 30L33 30L33 32L31 32L31 31L32 31L32 28L31 28L31 27L30 27L30 28L29 28L29 29L27 29L27 30L25 30L25 29L24 29L24 31L25 31L25 32L23 32L23 31L22 31L22 30L20 30L20 29L19 29L19 31L17 31L17 32L16 32L16 35L15 35L15 34L14 34L14 35L15 35L15 36L16 36L16 37L15 37L15 38L14 38L14 39L15 39L15 40L16 40L16 39L17 39L17 41L18 41L18 40L19 40L19 39L20 39L20 38L19 38L19 37L20 37L20 35L22 35L22 39L23 39L23 36L24 36L24 37L25 37L25 38L26 38L26 37L25 37L25 36L26 36L26 35L27 35L27 36L30 36L30 37L29 37L29 38L31 38L31 36L36 36L36 37L35 37L35 38L34 38L34 37L33 37L33 38L34 38L34 39L32 39L32 40L34 40L34 39L35 39L35 38L37 38L37 37L38 37L38 36L36 36L36 34L33 34L33 32L35 32L35 33L36 33L36 32L37 32L37 30L38 30L38 31L40 31L40 30L41 30L41 29L40 29L40 28L38 28L38 29L37 29L37 28L36 28L36 26L37 26L37 24L38 24L38 23L39 23L39 22L38 22L38 23L37 23L37 21L41 21L41 20L40 20L40 19ZM32 22L32 23L33 23L33 22ZM5 23L5 26L8 26L8 23ZM23 23L23 26L26 26L26 23ZM35 23L35 24L37 24L37 23ZM41 23L41 26L44 26L44 23ZM6 24L6 25L7 25L7 24ZM24 24L24 25L25 25L25 24ZM42 24L42 25L43 25L43 24ZM17 25L17 26L18 26L18 25ZM11 27L11 28L12 28L12 27ZM14 27L14 28L15 28L15 27ZM42 27L42 28L43 28L43 29L44 29L44 28L43 28L43 27ZM9 28L9 29L8 29L8 32L10 32L10 31L9 31L9 29L10 29L10 28ZM30 28L30 29L31 29L31 28ZM33 28L33 29L34 29L34 28ZM48 28L48 29L49 29L49 28ZM12 29L12 31L11 31L11 32L14 32L14 30L13 30L13 29ZM38 29L38 30L39 30L39 29ZM6 30L6 31L7 31L7 30ZM28 30L28 32L27 32L27 31L26 31L26 33L28 33L28 32L29 32L29 34L30 34L30 35L31 35L31 34L32 34L32 33L31 33L31 34L30 34L30 31L31 31L31 30ZM35 30L35 32L36 32L36 30ZM19 31L19 35L18 35L18 32L17 32L17 35L16 35L16 36L18 36L18 37L17 37L17 39L18 39L18 37L19 37L19 35L20 35L20 32L21 32L21 34L22 34L22 35L23 35L23 34L22 34L22 33L23 33L23 32L21 32L21 31ZM7 33L7 34L6 34L6 35L8 35L8 33ZM24 34L24 36L25 36L25 35L26 35L26 34ZM27 34L27 35L28 35L28 34ZM44 34L44 35L46 35L46 34ZM40 36L40 37L41 37L41 36ZM27 37L27 38L28 38L28 37ZM15 38L15 39L16 39L16 38ZM47 38L47 39L49 39L49 38ZM35 40L35 41L38 41L38 40ZM14 41L14 42L13 42L13 43L14 43L14 42L16 42L16 41ZM23 41L23 44L26 44L26 41ZM41 41L41 44L44 44L44 41ZM24 42L24 43L25 43L25 42ZM42 42L42 43L43 43L43 42ZM47 42L47 43L49 43L49 42ZM34 43L34 44L33 44L33 45L34 45L34 44L35 44L35 43ZM10 45L10 47L11 47L11 45ZM38 45L38 46L37 46L37 47L38 47L38 46L39 46L39 47L40 47L40 46L44 46L44 47L45 47L45 48L48 48L48 47L47 47L47 46L46 46L46 47L45 47L45 46L44 46L44 45L40 45L40 46L39 46L39 45ZM15 46L15 47L17 47L17 46ZM24 46L24 47L23 47L23 48L24 48L24 49L25 49L25 48L26 48L26 47L25 47L25 46ZM24 47L24 48L25 48L25 47ZM0 0L0 7L7 7L7 0ZM1 1L1 6L6 6L6 1ZM2 2L2 5L5 5L5 2ZM42 0L42 7L49 7L49 0ZM43 1L43 6L48 6L48 1ZM44 2L44 5L47 5L47 2ZM0 42L0 49L7 49L7 42ZM1 43L1 48L6 48L6 43ZM2 44L2 47L5 47L5 44Z" fill="#000000"/></g></g></svg>
