<?xml version="1.0" encoding="UTF-8"?>
<svg xmlns="http://www.w3.org/2000/svg" version="1.1" width="300" height="300" viewBox="0 0 300 300"><rect x="0" y="0" width="300" height="300" fill="#ffffff"/><g transform="scale(8.108)"><g transform="translate(0,0)"><path fill-rule="evenodd" d="M9 0L9 1L10 1L10 0ZM11 0L11 1L12 1L12 0ZM14 0L14 1L13 1L13 2L14 2L14 3L13 3L13 4L12 4L12 5L11 5L11 6L10 6L10 7L11 7L11 6L12 6L12 8L11 8L11 9L10 9L10 8L8 8L8 9L7 9L7 8L6 8L6 9L5 9L5 8L4 8L4 10L2 10L2 12L1 12L1 9L2 9L2 8L1 8L1 9L0 9L0 13L1 13L1 15L2 15L2 16L5 16L5 18L4 18L4 17L1 17L1 16L0 16L0 22L3 22L3 21L4 21L4 20L3 20L3 19L2 19L2 18L4 18L4 19L5 19L5 18L6 18L6 19L7 19L7 20L5 20L5 25L7 25L7 24L6 24L6 23L7 23L7 22L6 22L6 21L7 21L7 20L9 20L9 24L8 24L8 25L9 25L9 24L10 24L10 25L11 25L11 26L6 26L6 27L4 27L4 23L3 23L3 24L2 24L2 23L1 23L1 24L0 24L0 26L2 26L2 27L3 27L3 28L0 28L0 29L4 29L4 28L5 28L5 29L7 29L7 28L8 28L8 30L9 30L9 29L10 29L10 28L11 28L11 29L12 29L12 28L14 28L14 30L12 30L12 31L9 31L9 32L8 32L8 33L10 33L10 35L8 35L8 36L11 36L11 37L12 37L12 36L13 36L13 35L15 35L15 37L17 37L17 36L18 36L18 37L20 37L20 36L18 36L18 34L20 34L20 35L21 35L21 36L22 36L22 35L23 35L23 34L21 34L21 33L18 33L18 32L19 32L19 31L21 31L21 30L22 30L22 29L23 29L23 31L22 31L22 33L23 33L23 31L24 31L24 29L25 29L25 28L24 28L24 29L23 29L23 27L24 27L24 25L27 25L27 24L28 24L28 23L30 23L30 22L28 22L28 21L31 21L31 22L33 22L33 21L31 21L31 19L34 19L34 21L36 21L36 23L34 23L34 25L33 25L33 24L32 24L32 25L31 25L31 24L30 24L30 25L28 25L28 27L30 27L30 26L31 26L31 27L32 27L32 26L33 26L33 27L34 27L34 26L35 26L35 25L36 25L36 24L37 24L37 20L36 20L36 19L34 19L34 17L37 17L37 16L36 16L36 13L37 13L37 11L36 11L36 9L35 9L35 8L34 8L34 9L35 9L35 10L34 10L34 11L33 11L33 10L32 10L32 11L28 11L28 10L27 10L27 9L26 9L26 7L27 7L27 8L28 8L28 9L30 9L30 10L31 10L31 9L33 9L33 8L31 8L31 9L30 9L30 8L29 8L29 5L28 5L28 4L27 4L27 3L29 3L29 0L26 0L26 1L28 1L28 2L27 2L27 3L26 3L26 2L25 2L25 1L21 1L21 0L18 0L18 1L15 1L15 0ZM20 1L20 2L16 2L16 3L15 3L15 5L16 5L16 6L15 6L15 7L14 7L14 6L13 6L13 7L14 7L14 10L13 10L13 9L12 9L12 10L11 10L11 11L10 11L10 12L11 12L11 13L10 13L10 14L9 14L9 10L7 10L7 9L6 9L6 10L7 10L7 11L5 11L5 12L4 12L4 13L3 13L3 12L2 12L2 13L3 13L3 14L2 14L2 15L3 15L3 14L4 14L4 15L5 15L5 13L6 13L6 14L7 14L7 13L8 13L8 14L9 14L9 15L8 15L8 18L9 18L9 17L11 17L11 18L12 18L12 16L11 16L11 13L12 13L12 15L13 15L13 13L14 13L14 12L15 12L15 13L16 13L16 11L14 11L14 10L16 10L16 9L15 9L15 8L17 8L17 10L19 10L19 11L21 11L21 10L22 10L22 9L23 9L23 8L24 8L24 6L23 6L23 8L22 8L22 9L21 9L21 10L19 10L19 8L20 8L20 6L21 6L21 7L22 7L22 5L25 5L25 7L26 7L26 6L27 6L27 7L28 7L28 5L26 5L26 3L24 3L24 2L23 2L23 3L20 3L20 2L21 2L21 1ZM8 2L8 3L10 3L10 4L8 4L8 7L9 7L9 5L10 5L10 4L11 4L11 2ZM17 3L17 4L16 4L16 5L17 5L17 6L16 6L16 7L17 7L17 8L18 8L18 7L19 7L19 6L20 6L20 3ZM13 4L13 5L14 5L14 4ZM17 4L17 5L19 5L19 4ZM17 6L17 7L18 7L18 6ZM24 9L24 11L22 11L22 12L20 12L20 13L19 13L19 12L17 12L17 13L18 13L18 14L19 14L19 17L20 17L20 18L21 18L21 19L22 19L22 21L21 21L21 22L19 22L19 21L20 21L20 20L19 20L19 18L18 18L18 16L15 16L15 18L14 18L14 19L10 19L10 20L11 20L11 22L12 22L12 23L11 23L11 24L12 24L12 25L14 25L14 24L15 24L15 23L17 23L17 24L16 24L16 25L15 25L15 26L16 26L16 27L17 27L17 28L19 28L19 27L18 27L18 26L20 26L20 27L21 27L21 28L20 28L20 30L21 30L21 29L22 29L22 27L23 27L23 26L20 26L20 25L19 25L19 24L20 24L20 23L23 23L23 22L24 22L24 21L25 21L25 20L26 20L26 19L27 19L27 18L25 18L25 19L24 19L24 20L23 20L23 19L22 19L22 17L23 17L23 18L24 18L24 17L26 17L26 15L27 15L27 14L28 14L28 15L29 15L29 16L31 16L31 15L32 15L32 17L33 17L33 15L34 15L34 14L35 14L35 13L36 13L36 11L35 11L35 12L34 12L34 14L33 14L33 15L32 15L32 14L31 14L31 13L33 13L33 12L31 12L31 13L30 13L30 12L27 12L27 10L26 10L26 9ZM7 11L7 12L6 12L6 13L7 13L7 12L8 12L8 11ZM12 11L12 13L13 13L13 12L14 12L14 11ZM24 11L24 12L25 12L25 11ZM26 12L26 13L22 13L22 14L21 14L21 13L20 13L20 15L21 15L21 16L22 16L22 15L24 15L24 16L25 16L25 15L26 15L26 14L27 14L27 12ZM29 13L29 14L30 14L30 15L31 15L31 14L30 14L30 13ZM14 14L14 15L15 15L15 14ZM16 14L16 15L17 15L17 14ZM24 14L24 15L25 15L25 14ZM6 15L6 16L7 16L7 15ZM9 15L9 16L10 16L10 15ZM13 16L13 17L14 17L14 16ZM27 16L27 17L28 17L28 19L29 19L29 18L30 18L30 19L31 19L31 17L28 17L28 16ZM6 17L6 18L7 18L7 17ZM16 17L16 18L17 18L17 19L14 19L14 20L12 20L12 21L14 21L14 20L15 20L15 22L16 22L16 21L17 21L17 20L18 20L18 21L19 21L19 20L18 20L18 18L17 18L17 17ZM1 19L1 21L2 21L2 19ZM27 20L27 21L26 21L26 22L25 22L25 23L24 23L24 24L22 24L22 25L24 25L24 24L26 24L26 23L27 23L27 21L28 21L28 20ZM18 23L18 24L19 24L19 23ZM16 25L16 26L17 26L17 25ZM11 26L11 28L12 28L12 26ZM26 26L26 29L28 29L28 34L27 34L27 33L26 33L26 34L25 34L25 35L24 35L24 36L23 36L23 37L26 37L26 35L29 35L29 37L31 37L31 36L32 36L32 37L37 37L37 36L36 36L36 34L34 34L34 35L33 35L33 36L32 36L32 33L36 33L36 32L35 32L35 31L36 31L36 29L37 29L37 28L36 28L36 27L35 27L35 28L36 28L36 29L35 29L35 31L34 31L34 30L33 30L33 28L27 28L27 26ZM6 27L6 28L7 28L7 27ZM8 27L8 28L10 28L10 27ZM15 29L15 30L14 30L14 32L11 32L11 33L14 33L14 32L16 32L16 33L15 33L15 35L16 35L16 36L17 36L17 34L18 34L18 33L17 33L17 32L18 32L18 31L17 31L17 29ZM18 29L18 30L19 30L19 29ZM29 29L29 32L32 32L32 29ZM15 30L15 31L16 31L16 32L17 32L17 31L16 31L16 30ZM26 30L26 32L27 32L27 30ZM30 30L30 31L31 31L31 30ZM24 32L24 33L25 33L25 32ZM16 33L16 34L17 34L17 33ZM12 34L12 35L11 35L11 36L12 36L12 35L13 35L13 34ZM30 35L30 36L31 36L31 35ZM0 0L0 7L7 7L7 0ZM1 1L1 6L6 6L6 1ZM2 2L2 5L5 5L5 2ZM30 0L30 7L37 7L37 0ZM31 1L31 6L36 6L36 1ZM32 2L32 5L35 5L35 2ZM0 30L0 37L7 37L7 30ZM1 31L1 36L6 36L6 31ZM2 32L2 35L5 35L5 32Z" fill="#000000"/></g></g></svg>
