<?xml version="1.0" encoding="UTF-8"?>
<svg xmlns="http://www.w3.org/2000/svg" version="1.1" width="300" height="300" viewBox="0 0 300 300"><rect x="0" y="0" width="300" height="300" fill="#ffffff"/><g transform="scale(8.108)"><g transform="translate(0,0)"><path fill-rule="evenodd" d="M8 0L8 1L9 1L9 4L8 4L8 7L9 7L9 9L10 9L10 10L9 10L9 11L8 11L8 10L6 10L6 11L8 11L8 12L4 12L4 9L8 9L8 8L1 8L1 9L0 9L0 10L2 10L2 11L1 11L1 12L0 12L0 17L2 17L2 19L1 19L1 18L0 18L0 20L2 20L2 21L0 21L0 29L1 29L1 24L2 24L2 25L3 25L3 24L4 24L4 23L5 23L5 25L4 25L4 26L2 26L2 27L3 27L3 28L5 28L5 29L7 29L7 28L8 28L8 36L9 36L9 37L10 37L10 36L11 36L11 37L13 37L13 36L14 36L14 37L17 37L17 36L18 36L18 37L19 37L19 33L21 33L21 34L20 34L20 35L21 35L21 36L20 36L20 37L22 37L22 36L23 36L23 37L25 37L25 36L26 36L26 37L27 37L27 36L29 36L29 37L31 37L31 36L32 36L32 35L31 35L31 36L29 36L29 35L30 35L30 34L35 34L35 33L36 33L36 32L37 32L37 30L36 30L36 29L37 29L37 26L36 26L36 24L34 24L34 22L35 22L35 23L36 23L36 22L37 22L37 18L35 18L35 17L37 17L37 14L36 14L36 13L37 13L37 10L36 10L36 9L37 9L37 8L36 8L36 9L35 9L35 10L36 10L36 13L35 13L35 14L34 14L34 13L33 13L33 12L34 12L34 11L33 11L33 10L34 10L34 9L33 9L33 8L31 8L31 9L30 9L30 10L28 10L28 9L29 9L29 8L28 8L28 7L29 7L29 6L28 6L28 5L26 5L26 4L29 4L29 2L28 2L28 1L27 1L27 0L25 0L25 1L22 1L22 0L21 0L21 1L20 1L20 3L19 3L19 0L14 0L14 1L13 1L13 2L11 2L11 1L12 1L12 0L11 0L11 1L9 1L9 0ZM15 1L15 2L13 2L13 3L12 3L12 4L11 4L11 5L9 5L9 7L10 7L10 9L11 9L11 11L10 11L10 13L9 13L9 12L8 12L8 13L9 13L9 15L10 15L10 14L11 14L11 15L12 15L12 14L13 14L13 15L14 15L14 16L13 16L13 17L14 17L14 16L15 16L15 15L14 15L14 14L15 14L15 12L16 12L16 13L17 13L17 11L18 11L18 13L19 13L19 11L18 11L18 8L19 8L19 10L21 10L21 9L23 9L23 7L24 7L24 9L25 9L25 10L27 10L27 9L26 9L26 8L27 8L27 7L28 7L28 6L27 6L27 7L26 7L26 6L25 6L25 7L24 7L24 6L23 6L23 5L25 5L25 4L26 4L26 3L27 3L27 2L26 2L26 3L25 3L25 2L24 2L24 3L25 3L25 4L22 4L22 3L20 3L20 4L22 4L22 6L21 6L21 5L20 5L20 6L19 6L19 7L18 7L18 6L17 6L17 5L19 5L19 3L18 3L18 2L17 2L17 1ZM10 2L10 3L11 3L11 2ZM16 2L16 3L17 3L17 2ZM14 3L14 4L13 4L13 5L12 5L12 7L11 7L11 6L10 6L10 7L11 7L11 8L12 8L12 9L13 9L13 10L12 10L12 11L11 11L11 13L13 13L13 14L14 14L14 12L13 12L13 11L14 11L14 10L15 10L15 11L16 11L16 10L17 10L17 8L18 8L18 7L17 7L17 6L16 6L16 8L14 8L14 7L15 7L15 6L14 6L14 7L13 7L13 5L17 5L17 4L15 4L15 3ZM20 6L20 7L21 7L21 8L20 8L20 9L21 9L21 8L22 8L22 7L23 7L23 6L22 6L22 7L21 7L21 6ZM25 7L25 8L26 8L26 7ZM13 8L13 9L14 9L14 8ZM22 10L22 11L23 11L23 12L22 12L22 13L25 13L25 14L22 14L22 15L25 15L25 16L22 16L22 17L23 17L23 19L22 19L22 20L20 20L20 21L22 21L22 22L20 22L20 23L19 23L19 21L17 21L17 20L18 20L18 19L19 19L19 18L20 18L20 16L19 16L19 14L17 14L17 15L16 15L16 18L17 18L17 19L14 19L14 18L12 18L12 17L11 17L11 16L10 16L10 17L11 17L11 18L10 18L10 19L13 19L13 20L11 20L11 22L12 22L12 23L13 23L13 24L11 24L11 23L10 23L10 24L9 24L9 23L6 23L6 24L7 24L7 25L5 25L5 28L7 28L7 27L8 27L8 26L7 26L7 25L9 25L9 26L10 26L10 27L9 27L9 28L11 28L11 31L10 31L10 30L9 30L9 31L10 31L10 32L9 32L9 35L10 35L10 32L11 32L11 33L13 33L13 32L14 32L14 31L15 31L15 32L16 32L16 34L15 34L15 33L14 33L14 34L13 34L13 35L12 35L12 34L11 34L11 35L12 35L12 36L13 36L13 35L14 35L14 36L15 36L15 35L16 35L16 36L17 36L17 35L18 35L18 34L17 34L17 31L18 31L18 33L19 33L19 31L21 31L21 32L23 32L23 33L22 33L22 35L23 35L23 34L25 34L25 33L24 33L24 32L23 32L23 31L24 31L24 30L25 30L25 32L26 32L26 30L25 30L25 29L24 29L24 28L26 28L26 29L27 29L27 31L28 31L28 27L30 27L30 28L34 28L34 29L33 29L33 30L35 30L35 31L34 31L34 32L33 32L33 33L34 33L34 32L35 32L35 31L36 31L36 30L35 30L35 29L36 29L36 28L34 28L34 27L33 27L33 26L34 26L34 24L33 24L33 23L32 23L32 25L31 25L31 26L32 26L32 27L30 27L30 26L27 26L27 28L26 28L26 26L25 26L25 27L24 27L24 26L23 26L23 27L22 27L22 25L27 25L27 24L28 24L28 25L30 25L30 24L28 24L28 23L27 23L27 22L29 22L29 23L30 23L30 22L31 22L31 21L32 21L32 22L33 22L33 21L34 21L34 20L36 20L36 19L35 19L35 18L34 18L34 20L33 20L33 17L32 17L32 16L36 16L36 14L35 14L35 15L32 15L32 14L33 14L33 13L32 13L32 12L31 12L31 13L29 13L29 11L28 11L28 14L30 14L30 15L31 15L31 17L30 17L30 16L29 16L29 17L27 17L27 16L26 16L26 15L27 15L27 12L26 12L26 11L24 11L24 10ZM31 10L31 11L32 11L32 10ZM1 12L1 15L3 15L3 16L4 16L4 17L3 17L3 18L4 18L4 19L5 19L5 20L4 20L4 22L5 22L5 21L6 21L6 22L9 22L9 21L10 21L10 20L8 20L8 21L6 21L6 20L7 20L7 19L5 19L5 18L4 18L4 17L5 17L5 16L8 16L8 14L7 14L7 13L6 13L6 14L5 14L5 13L4 13L4 14L3 14L3 13L2 13L2 12ZM25 12L25 13L26 13L26 12ZM20 13L20 15L21 15L21 13ZM31 13L31 14L32 14L32 13ZM4 14L4 15L5 15L5 14ZM6 14L6 15L7 15L7 14ZM18 16L18 17L17 17L17 18L19 18L19 16ZM25 16L25 17L24 17L24 18L25 18L25 17L26 17L26 16ZM6 17L6 18L8 18L8 17ZM29 17L29 18L27 18L27 19L26 19L26 20L27 20L27 21L26 21L26 22L27 22L27 21L29 21L29 22L30 22L30 21L31 21L31 20L32 20L32 21L33 21L33 20L32 20L32 18L30 18L30 17ZM29 18L29 19L28 19L28 20L29 20L29 21L30 21L30 20L31 20L31 19L30 19L30 18ZM2 19L2 20L3 20L3 19ZM24 19L24 20L25 20L25 19ZM29 19L29 20L30 20L30 19ZM15 20L15 21L12 21L12 22L15 22L15 23L16 23L16 24L17 24L17 25L15 25L15 26L14 26L14 24L13 24L13 26L14 26L14 27L11 27L11 28L14 28L14 29L12 29L12 31L11 31L11 32L13 32L13 31L14 31L14 29L15 29L15 28L16 28L16 27L17 27L17 25L18 25L18 23L16 23L16 22L15 22L15 21L16 21L16 20ZM2 21L2 22L1 22L1 23L2 23L2 24L3 24L3 21ZM24 21L24 22L25 22L25 21ZM35 21L35 22L36 22L36 21ZM22 22L22 23L20 23L20 24L23 24L23 22ZM24 23L24 24L25 24L25 23ZM26 23L26 24L27 24L27 23ZM11 25L11 26L12 26L12 25ZM19 25L19 26L18 26L18 28L17 28L17 30L21 30L21 29L23 29L23 30L22 30L22 31L23 31L23 30L24 30L24 29L23 29L23 28L21 28L21 27L19 27L19 26L21 26L21 25ZM6 26L6 27L7 27L7 26ZM35 26L35 27L36 27L36 26ZM14 27L14 28L15 28L15 27ZM18 28L18 29L19 29L19 28ZM29 29L29 32L32 32L32 29ZM15 30L15 31L16 31L16 30ZM30 30L30 31L31 31L31 30ZM26 33L26 34L27 34L27 35L26 35L26 36L27 36L27 35L29 35L29 34L30 34L30 33L28 33L28 34L27 34L27 33ZM14 34L14 35L15 35L15 34ZM36 34L36 36L33 36L33 37L37 37L37 34ZM24 35L24 36L25 36L25 35ZM0 0L0 7L7 7L7 0ZM1 1L1 6L6 6L6 1ZM2 2L2 5L5 5L5 2ZM30 0L30 7L37 7L37 0ZM31 1L31 6L36 6L36 1ZM32 2L32 5L35 5L35 2ZM0 30L0 37L7 37L7 30ZM1 31L1 36L6 36L6 31ZM2 32L2 35L5 35L5 32Z" fill="#000000"/></g></g></svg>
