<?xml version="1.0" encoding="UTF-8"?>
<svg xmlns="http://www.w3.org/2000/svg" version="1.1" width="300" height="300" viewBox="0 0 300 300"><rect x="0" y="0" width="300" height="300" fill="#ffffff"/><g transform="scale(6.122)"><g transform="translate(0,0)"><path fill-rule="evenodd" d="M8 0L8 1L9 1L9 2L10 2L10 3L11 3L11 4L10 4L10 5L9 5L9 4L8 4L8 7L9 7L9 6L10 6L10 7L11 7L11 6L12 6L12 7L13 7L13 8L14 8L14 9L13 9L13 10L14 10L14 11L13 11L13 12L15 12L15 11L17 11L17 10L15 10L15 9L17 9L17 6L16 6L16 5L17 5L17 4L18 4L18 11L21 11L21 12L19 12L19 13L18 13L18 14L17 14L17 13L15 13L15 18L12 18L12 16L13 16L13 17L14 17L14 16L13 16L13 15L12 15L12 12L11 12L11 14L10 14L10 16L11 16L11 17L10 17L10 18L8 18L8 17L7 17L7 16L8 16L8 15L9 15L9 14L6 14L6 13L10 13L10 9L11 9L11 8L10 8L10 9L9 9L9 10L8 10L8 8L1 8L1 11L0 11L0 12L1 12L1 11L3 11L3 12L2 12L2 13L4 13L4 16L3 16L3 14L2 14L2 16L3 16L3 17L4 17L4 19L3 19L3 18L1 18L1 15L0 15L0 18L1 18L1 19L0 19L0 20L1 20L1 21L0 21L0 26L1 26L1 27L2 27L2 28L1 28L1 29L0 29L0 30L2 30L2 31L1 31L1 33L0 33L0 35L1 35L1 34L3 34L3 35L2 35L2 36L1 36L1 40L0 40L0 41L3 41L3 40L4 40L4 39L2 39L2 36L3 36L3 38L5 38L5 39L7 39L7 40L6 40L6 41L8 41L8 48L9 48L9 49L10 49L10 48L11 48L11 49L12 49L12 48L13 48L13 46L14 46L14 48L15 48L15 49L18 49L18 46L19 46L19 44L20 44L20 43L21 43L21 42L22 42L22 45L20 45L20 47L21 47L21 48L20 48L20 49L21 49L21 48L22 48L22 46L23 46L23 45L27 45L27 44L29 44L29 45L28 45L28 46L27 46L27 49L28 49L28 48L29 48L29 49L30 49L30 47L28 47L28 46L31 46L31 47L32 47L32 48L31 48L31 49L32 49L32 48L33 48L33 49L34 49L34 47L37 47L37 48L35 48L35 49L38 49L38 48L40 48L40 49L41 49L41 47L42 47L42 48L43 48L43 47L44 47L44 48L45 48L45 49L49 49L49 45L48 45L48 44L46 44L46 46L45 46L45 43L46 43L46 42L45 42L45 41L48 41L48 40L45 40L45 39L44 39L44 37L45 37L45 38L46 38L46 39L49 39L49 38L46 38L46 37L47 37L47 36L48 36L48 37L49 37L49 34L47 34L47 36L46 36L46 34L45 34L45 36L44 36L44 37L42 37L42 36L41 36L41 35L40 35L40 36L39 36L39 38L37 38L37 37L38 37L38 35L39 35L39 34L42 34L42 35L43 35L43 34L44 34L44 33L49 33L49 30L48 30L48 31L47 31L47 29L49 29L49 28L46 28L46 31L47 31L47 32L44 32L44 31L43 31L43 30L44 30L44 29L45 29L45 28L44 28L44 27L45 27L45 25L47 25L47 26L46 26L46 27L47 27L47 26L48 26L48 27L49 27L49 26L48 26L48 24L45 24L45 23L46 23L46 22L47 22L47 23L49 23L49 22L47 22L47 20L48 20L48 21L49 21L49 18L47 18L47 17L48 17L48 16L45 16L45 15L49 15L49 14L45 14L45 13L44 13L44 12L46 12L46 13L48 13L48 12L46 12L46 11L44 11L44 10L43 10L43 9L45 9L45 8L43 8L43 9L42 9L42 10L41 10L41 11L42 11L42 12L43 12L43 13L42 13L42 14L40 14L40 13L41 13L41 12L38 12L38 13L37 13L37 12L36 12L36 13L35 13L35 14L34 14L34 13L33 13L33 14L34 14L34 16L33 16L33 15L31 15L31 16L33 16L33 17L34 17L34 18L32 18L32 17L31 17L31 18L30 18L30 17L29 17L29 16L30 16L30 14L32 14L32 13L31 13L31 12L33 12L33 11L29 11L29 12L26 12L26 11L27 11L27 10L28 10L28 9L29 9L29 10L32 10L32 9L31 9L31 8L32 8L32 7L33 7L33 6L34 6L34 7L35 7L35 8L36 8L36 9L35 9L35 10L34 10L34 8L33 8L33 10L34 10L34 12L35 12L35 10L36 10L36 11L39 11L39 10L37 10L37 6L38 6L38 7L39 7L39 5L38 5L38 3L35 3L35 2L37 2L37 1L38 1L38 2L39 2L39 4L40 4L40 3L41 3L41 0L40 0L40 1L38 1L38 0L35 0L35 1L31 1L31 0L28 0L28 1L27 1L27 0L25 0L25 2L24 2L24 1L22 1L22 0L21 0L21 1L20 1L20 2L18 2L18 1L19 1L19 0L16 0L16 1L15 1L15 0ZM12 1L12 2L11 2L11 3L12 3L12 4L13 4L13 5L12 5L12 6L13 6L13 7L14 7L14 8L15 8L15 7L16 7L16 6L15 6L15 7L14 7L14 6L13 6L13 5L15 5L15 3L14 3L14 2L13 2L13 1ZM16 1L16 3L17 3L17 1ZM26 1L26 2L25 2L25 3L28 3L28 2L27 2L27 1ZM29 1L29 2L30 2L30 4L32 4L32 5L30 5L30 6L29 6L29 5L28 5L28 4L27 4L27 7L28 7L28 8L27 8L27 9L26 9L26 10L27 10L27 9L28 9L28 8L31 8L31 7L32 7L32 6L33 6L33 5L35 5L35 7L36 7L36 6L37 6L37 4L33 4L33 3L34 3L34 2L33 2L33 3L32 3L32 2L31 2L31 1ZM12 2L12 3L13 3L13 4L14 4L14 3L13 3L13 2ZM21 2L21 4L19 4L19 9L20 9L20 10L21 10L21 11L22 11L22 10L24 10L24 11L25 11L25 9L21 9L21 8L20 8L20 5L21 5L21 7L22 7L22 5L21 5L21 4L22 4L22 3L23 3L23 4L24 4L24 3L23 3L23 2ZM10 5L10 6L11 6L11 5ZM23 5L23 8L26 8L26 5ZM24 6L24 7L25 7L25 6ZM28 6L28 7L29 7L29 6ZM30 6L30 7L31 7L31 6ZM40 6L40 7L41 7L41 6ZM39 8L39 9L41 9L41 8ZM48 8L48 9L46 9L46 10L48 10L48 11L49 11L49 10L48 10L48 9L49 9L49 8ZM4 9L4 10L3 10L3 11L4 11L4 12L5 12L5 9ZM6 9L6 10L7 10L7 9ZM11 10L11 11L12 11L12 10ZM42 10L42 11L43 11L43 12L44 12L44 11L43 11L43 10ZM6 11L6 12L7 12L7 11ZM8 11L8 12L9 12L9 11ZM23 12L23 13L24 13L24 14L23 14L23 15L22 15L22 14L20 14L20 17L19 17L19 15L17 15L17 14L16 14L16 15L17 15L17 16L18 16L18 17L17 17L17 18L15 18L15 19L11 19L11 18L10 18L10 19L9 19L9 20L10 20L10 21L8 21L8 20L7 20L7 19L6 19L6 20L5 20L5 19L4 19L4 21L3 21L3 19L1 19L1 20L2 20L2 21L1 21L1 23L2 23L2 24L1 24L1 26L2 26L2 24L3 24L3 25L4 25L4 24L3 24L3 22L5 22L5 21L6 21L6 22L10 22L10 23L11 23L11 24L13 24L13 25L9 25L9 28L8 28L8 29L9 29L9 30L7 30L7 29L5 29L5 30L4 30L4 29L2 29L2 30L4 30L4 32L3 32L3 33L4 33L4 32L5 32L5 31L6 31L6 32L7 32L7 33L6 33L6 34L5 34L5 35L3 35L3 36L4 36L4 37L5 37L5 38L7 38L7 37L6 37L6 36L7 36L7 35L8 35L8 37L9 37L9 35L10 35L10 33L14 33L14 35L16 35L16 36L18 36L18 37L16 37L16 38L17 38L17 39L18 39L18 37L19 37L19 40L18 40L18 41L17 41L17 40L16 40L16 41L17 41L17 42L16 42L16 43L15 43L15 42L14 42L14 41L15 41L15 39L14 39L14 38L15 38L15 37L14 37L14 36L12 36L12 34L11 34L11 37L13 37L13 38L12 38L12 39L11 39L11 38L8 38L8 39L9 39L9 40L8 40L8 41L9 41L9 40L10 40L10 39L11 39L11 41L10 41L10 42L9 42L9 44L10 44L10 42L11 42L11 43L13 43L13 44L14 44L14 45L15 45L15 44L16 44L16 43L18 43L18 42L19 42L19 43L20 43L20 41L21 41L21 40L23 40L23 39L22 39L22 35L23 35L23 36L24 36L24 35L23 35L23 34L24 34L24 33L25 33L25 35L28 35L28 34L27 34L27 33L28 33L28 32L29 32L29 33L31 33L31 34L29 34L29 35L31 35L31 34L32 34L32 33L31 33L31 32L33 32L33 34L36 34L36 36L35 36L35 35L34 35L34 38L33 38L33 36L30 36L30 37L29 37L29 36L25 36L25 37L26 37L26 38L24 38L24 37L23 37L23 38L24 38L24 39L27 39L27 40L28 40L28 41L27 41L27 42L28 42L28 43L29 43L29 42L30 42L30 41L29 41L29 40L30 40L30 39L31 39L31 41L32 41L32 42L31 42L31 43L33 43L33 44L32 44L32 47L33 47L33 46L35 46L35 44L37 44L37 43L36 43L36 42L38 42L38 43L40 43L40 41L39 41L39 40L41 40L41 39L42 39L42 40L44 40L44 39L42 39L42 38L41 38L41 39L37 39L37 38L36 38L36 36L37 36L37 34L39 34L39 32L40 32L40 31L41 31L41 30L42 30L42 29L40 29L40 31L39 31L39 32L38 32L38 30L39 30L39 29L38 29L38 28L41 28L41 27L40 27L40 24L39 24L39 23L40 23L40 22L41 22L41 21L42 21L42 17L43 17L43 16L39 16L39 17L40 17L40 18L37 18L37 17L38 17L38 16L37 16L37 15L38 15L38 14L39 14L39 13L38 13L38 14L37 14L37 15L36 15L36 16L35 16L35 18L34 18L34 20L32 20L32 19L30 19L30 18L29 18L29 17L28 17L28 15L29 15L29 14L30 14L30 12L29 12L29 14L27 14L27 13L26 13L26 12ZM0 13L0 14L1 14L1 13ZM13 13L13 14L14 14L14 13ZM25 13L25 17L23 17L23 16L24 16L24 15L23 15L23 16L22 16L22 17L23 17L23 18L25 18L25 19L24 19L24 20L23 20L23 19L22 19L22 18L21 18L21 17L20 17L20 18L19 18L19 19L18 19L18 18L17 18L17 19L15 19L15 20L16 20L16 21L17 21L17 20L20 20L20 21L18 21L18 22L17 22L17 23L16 23L16 24L15 24L15 23L14 23L14 25L13 25L13 26L12 26L12 27L11 27L11 26L10 26L10 27L11 27L11 28L12 28L12 27L13 27L13 29L12 29L12 31L11 31L11 30L9 30L9 31L10 31L10 32L9 32L9 33L10 33L10 32L14 32L14 33L15 33L15 28L14 28L14 27L13 27L13 26L14 26L14 25L15 25L15 27L16 27L16 29L17 29L17 30L18 30L18 31L17 31L17 32L16 32L16 35L18 35L18 36L20 36L20 35L22 35L22 33L24 33L24 31L25 31L25 33L27 33L27 32L28 32L28 31L25 31L25 30L26 30L26 28L29 28L29 30L31 30L31 31L29 31L29 32L31 32L31 31L32 31L32 28L33 28L33 29L34 29L34 28L33 28L33 25L32 25L32 24L33 24L33 23L34 23L34 25L36 25L36 26L34 26L34 27L35 27L35 30L33 30L33 32L35 32L35 33L36 33L36 32L37 32L37 30L38 30L38 29L37 29L37 28L36 28L36 26L37 26L37 24L38 24L38 23L39 23L39 22L38 22L38 23L37 23L37 21L41 21L41 20L40 20L40 19L37 19L37 18L36 18L36 19L37 19L37 20L36 20L36 21L35 21L35 22L33 22L33 21L32 21L32 22L31 22L31 20L30 20L30 19L29 19L29 21L27 21L27 20L28 20L28 17L27 17L27 18L25 18L25 17L26 17L26 13ZM5 14L5 16L7 16L7 15L6 15L6 14ZM42 14L42 15L43 15L43 14ZM36 16L36 17L37 17L37 16ZM44 16L44 17L45 17L45 16ZM6 17L6 18L7 18L7 17ZM20 18L20 19L21 19L21 21L20 21L20 22L18 22L18 23L17 23L17 24L16 24L16 27L17 27L17 29L18 29L18 30L19 30L19 29L20 29L20 30L21 30L21 31L18 31L18 32L17 32L17 34L19 34L19 35L20 35L20 32L22 32L22 31L24 31L24 30L25 30L25 29L24 29L24 27L20 27L20 28L19 28L19 29L18 29L18 27L17 27L17 25L18 25L18 26L20 26L20 25L19 25L19 24L20 24L20 22L21 22L21 24L22 24L22 22L27 22L27 21L26 21L26 20L25 20L25 21L23 21L23 20L22 20L22 19L21 19L21 18ZM46 18L46 19L45 19L45 20L44 20L44 21L43 21L43 22L46 22L46 20L47 20L47 18ZM10 19L10 20L11 20L11 19ZM6 20L6 21L7 21L7 20ZM14 21L14 22L15 22L15 21ZM12 22L12 23L13 23L13 22ZM28 22L28 23L27 23L27 24L28 24L28 25L27 25L27 26L28 26L28 27L29 27L29 28L30 28L30 29L31 29L31 28L32 28L32 27L31 27L31 26L29 26L29 25L30 25L30 24L29 24L29 22ZM30 22L30 23L31 23L31 24L32 24L32 23L33 23L33 22L32 22L32 23L31 23L31 22ZM5 23L5 26L8 26L8 23ZM23 23L23 26L26 26L26 23ZM35 23L35 24L37 24L37 23ZM41 23L41 26L44 26L44 23ZM6 24L6 25L7 25L7 24ZM24 24L24 25L25 25L25 24ZM42 24L42 25L43 25L43 24ZM21 25L21 26L22 26L22 25ZM3 26L3 27L4 27L4 28L7 28L7 27L4 27L4 26ZM38 26L38 27L39 27L39 26ZM30 27L30 28L31 28L31 27ZM42 27L42 28L43 28L43 29L44 29L44 28L43 28L43 27ZM9 28L9 29L10 29L10 28ZM21 28L21 30L22 30L22 28ZM13 29L13 31L14 31L14 29ZM6 30L6 31L7 31L7 32L8 32L8 31L7 31L7 30ZM35 30L35 32L36 32L36 30ZM42 31L42 32L41 32L41 33L42 33L42 34L43 34L43 33L44 33L44 32L43 32L43 31ZM18 32L18 33L19 33L19 32ZM7 33L7 34L6 34L6 35L5 35L5 36L6 36L6 35L7 35L7 34L8 34L8 33ZM40 36L40 37L41 37L41 36ZM45 36L45 37L46 37L46 36ZM30 37L30 38L29 38L29 39L28 39L28 40L29 40L29 39L30 39L30 38L32 38L32 40L34 40L34 39L35 39L35 38L34 38L34 39L33 39L33 38L32 38L32 37ZM20 38L20 40L19 40L19 41L20 41L20 40L21 40L21 38ZM12 40L12 41L14 41L14 40ZM35 40L35 42L36 42L36 41L38 41L38 40ZM23 41L23 44L26 44L26 41ZM28 41L28 42L29 42L29 41ZM33 41L33 42L34 42L34 41ZM41 41L41 44L44 44L44 41ZM13 42L13 43L14 43L14 42ZM24 42L24 43L25 43L25 42ZM42 42L42 43L43 43L43 42ZM47 42L47 43L49 43L49 42ZM34 43L34 44L33 44L33 45L34 45L34 44L35 44L35 43ZM17 44L17 45L18 45L18 44ZM10 45L10 47L12 47L12 46L13 46L13 45L12 45L12 46L11 46L11 45ZM38 45L38 46L37 46L37 47L38 47L38 46L39 46L39 47L40 47L40 46L42 46L42 47L43 47L43 46L44 46L44 47L45 47L45 48L48 48L48 47L47 47L47 46L46 46L46 47L45 47L45 46L44 46L44 45L43 45L43 46L42 46L42 45L40 45L40 46L39 46L39 45ZM15 46L15 47L16 47L16 46ZM24 46L24 47L23 47L23 48L24 48L24 49L25 49L25 48L26 48L26 47L25 47L25 46ZM24 47L24 48L25 48L25 47ZM0 0L0 7L7 7L7 0ZM1 1L1 6L6 6L6 1ZM2 2L2 5L5 5L5 2ZM42 0L42 7L49 7L49 0ZM43 1L43 6L48 6L48 1ZM44 2L44 5L47 5L47 2ZM0 42L0 49L7 49L7 42ZM1 43L1 48L6 48L6 43ZM2 44L2 47L5 47L5 44Z" fill="#000000"/></g></g></svg>
