<?xml version="1.0" encoding="UTF-8"?>
<svg xmlns="http://www.w3.org/2000/svg" version="1.1" width="300" height="300" viewBox="0 0 300 300"><rect x="0" y="0" width="300" height="300" fill="#ffffff"/><g transform="scale(8.108)"><g transform="translate(0,0)"><path fill-rule="evenodd" d="M8 0L8 1L9 1L9 0ZM10 0L10 1L11 1L11 2L12 2L12 3L14 3L14 4L15 4L15 5L13 5L13 6L12 6L12 7L11 7L11 6L10 6L10 7L9 7L9 5L8 5L8 8L5 8L5 9L4 9L4 8L3 8L3 9L2 9L2 8L1 8L1 9L2 9L2 10L4 10L4 11L3 11L3 12L4 12L4 13L2 13L2 12L1 12L1 14L0 14L0 15L1 15L1 16L3 16L3 17L2 17L2 18L3 18L3 17L4 17L4 18L6 18L6 19L1 19L1 20L2 20L2 22L0 22L0 23L2 23L2 25L9 25L9 24L10 24L10 22L11 22L11 23L12 23L12 22L13 22L13 24L12 24L12 25L10 25L10 29L8 29L8 27L9 27L9 26L5 26L5 27L3 27L3 26L2 26L2 27L1 27L1 26L0 26L0 27L1 27L1 28L0 28L0 29L3 29L3 28L5 28L5 27L7 27L7 28L6 28L6 29L8 29L8 32L9 32L9 33L8 33L8 34L10 34L10 35L8 35L8 36L9 36L9 37L10 37L10 35L11 35L11 37L12 37L12 36L13 36L13 34L12 34L12 35L11 35L11 33L10 33L10 32L12 32L12 31L13 31L13 33L15 33L15 35L14 35L14 36L15 36L15 37L16 37L16 35L17 35L17 36L18 36L18 37L19 37L19 36L22 36L22 37L25 37L25 33L26 33L26 34L27 34L27 35L26 35L26 36L27 36L27 35L28 35L28 37L31 37L31 35L32 35L32 36L33 36L33 37L34 37L34 35L35 35L35 34L36 34L36 35L37 35L37 33L35 33L35 34L34 34L34 33L33 33L33 28L32 28L32 26L31 26L31 28L30 28L30 26L28 26L28 25L29 25L29 24L30 24L30 25L34 25L34 22L32 22L32 21L33 21L33 18L34 18L34 17L35 17L35 18L36 18L36 19L34 19L34 20L36 20L36 21L35 21L35 23L36 23L36 24L35 24L35 26L36 26L36 27L34 27L34 28L35 28L35 30L36 30L36 31L37 31L37 28L36 28L36 27L37 27L37 25L36 25L36 24L37 24L37 23L36 23L36 21L37 21L37 20L36 20L36 19L37 19L37 16L36 16L36 15L37 15L37 8L36 8L36 12L34 12L34 9L35 9L35 8L33 8L33 9L32 9L32 8L29 8L29 6L28 6L28 5L29 5L29 4L27 4L27 3L26 3L26 2L28 2L28 3L29 3L29 2L28 2L28 1L29 1L29 0L27 0L27 1L26 1L26 0L25 0L25 4L26 4L26 5L27 5L27 6L26 6L26 7L25 7L25 6L24 6L24 5L22 5L22 7L21 7L21 6L20 6L20 7L21 7L21 9L20 9L20 8L19 8L19 9L20 9L20 10L22 10L22 8L23 8L23 6L24 6L24 10L25 10L25 11L24 11L24 12L25 12L25 13L27 13L27 14L22 14L22 13L23 13L23 11L20 11L20 12L22 12L22 13L21 13L21 14L22 14L22 15L20 15L20 13L19 13L19 12L18 12L18 11L19 11L19 10L18 10L18 11L17 11L17 12L16 12L16 13L15 13L15 12L14 12L14 10L17 10L17 9L18 9L18 8L17 8L17 6L18 6L18 7L19 7L19 4L17 4L17 3L18 3L18 2L19 2L19 0L16 0L16 1L15 1L15 2L14 2L14 1L12 1L12 0ZM20 0L20 3L21 3L21 2L22 2L22 4L23 4L23 2L22 2L22 1L23 1L23 0L22 0L22 1L21 1L21 0ZM16 1L16 2L18 2L18 1ZM8 2L8 4L10 4L10 5L12 5L12 4L10 4L10 3L9 3L9 2ZM16 5L16 6L15 6L15 7L14 7L14 6L13 6L13 7L14 7L14 8L11 8L11 7L10 7L10 8L9 8L9 9L10 9L10 11L12 11L12 10L14 10L14 8L15 8L15 9L17 9L17 8L16 8L16 6L17 6L17 5ZM27 6L27 7L26 7L26 8L25 8L25 9L26 9L26 11L28 11L28 12L27 12L27 13L28 13L28 12L29 12L29 15L28 15L28 14L27 14L27 15L26 15L26 16L19 16L19 17L18 17L18 16L17 16L17 14L18 14L18 15L19 15L19 14L18 14L18 13L16 13L16 17L15 17L15 15L14 15L14 12L12 12L12 13L13 13L13 15L12 15L12 16L13 16L13 15L14 15L14 17L11 17L11 16L8 16L8 13L9 13L9 14L10 14L10 15L11 15L11 14L10 14L10 13L11 13L11 12L8 12L8 11L9 11L9 10L8 10L8 9L5 9L5 10L7 10L7 11L6 11L6 12L7 12L7 13L6 13L6 14L7 14L7 15L6 15L6 16L8 16L8 19L11 19L11 20L13 20L13 19L14 19L14 17L15 17L15 18L16 18L16 19L17 19L17 20L15 20L15 21L13 21L13 22L15 22L15 21L16 21L16 24L15 24L15 25L13 25L13 26L15 26L15 27L16 27L16 29L17 29L17 25L18 25L18 30L13 30L13 29L15 29L15 28L11 28L11 30L10 30L10 31L11 31L11 30L13 30L13 31L14 31L14 32L15 32L15 33L16 33L16 34L17 34L17 35L18 35L18 34L19 34L19 32L21 32L21 33L20 33L20 35L23 35L23 32L24 32L24 30L25 30L25 32L26 32L26 33L28 33L28 32L26 32L26 31L27 31L27 30L28 30L28 29L27 29L27 28L28 28L28 27L27 27L27 28L25 28L25 27L26 27L26 26L25 26L25 27L23 27L23 26L24 26L24 24L25 24L25 25L26 25L26 24L27 24L27 25L28 25L28 24L29 24L29 23L30 23L30 24L32 24L32 22L31 22L31 23L30 23L30 22L29 22L29 23L28 23L28 20L26 20L26 18L25 18L25 17L26 17L26 16L27 16L27 19L28 19L28 18L29 18L29 19L30 19L30 20L29 20L29 21L30 21L30 20L32 20L32 18L31 18L31 19L30 19L30 18L29 18L29 17L30 17L30 16L32 16L32 17L34 17L34 16L35 16L35 14L36 14L36 13L35 13L35 14L34 14L34 13L33 13L33 10L32 10L32 9L30 9L30 10L32 10L32 11L31 11L31 12L32 12L32 13L31 13L31 14L30 14L30 11L28 11L28 10L29 10L29 8L28 8L28 6ZM10 8L10 9L11 9L11 10L12 10L12 9L11 9L11 8ZM26 8L26 9L27 9L27 10L28 10L28 9L27 9L27 8ZM1 14L1 15L3 15L3 16L4 16L4 17L5 17L5 14ZM31 14L31 15L32 15L32 14ZM33 14L33 15L34 15L34 14ZM28 16L28 17L29 17L29 16ZM6 17L6 18L7 18L7 17ZM10 17L10 18L11 18L11 17ZM16 17L16 18L17 18L17 19L19 19L19 21L17 21L17 22L19 22L19 21L20 21L20 20L21 20L21 22L22 22L22 23L19 23L19 24L18 24L18 25L19 25L19 24L20 24L20 25L22 25L22 26L20 26L20 27L19 27L19 29L21 29L21 28L20 28L20 27L22 27L22 26L23 26L23 25L22 25L22 23L23 23L23 22L24 22L24 19L23 19L23 17L21 17L21 19L20 19L20 17L19 17L19 18L18 18L18 17ZM6 19L6 20L5 20L5 21L3 21L3 22L2 22L2 23L3 23L3 22L5 22L5 23L6 23L6 24L7 24L7 23L9 23L9 21L10 21L10 20L8 20L8 22L7 22L7 21L6 21L6 20L7 20L7 19ZM5 21L5 22L6 22L6 23L7 23L7 22L6 22L6 21ZM22 21L22 22L23 22L23 21ZM25 21L25 24L26 24L26 23L27 23L27 24L28 24L28 23L27 23L27 21ZM0 24L0 25L1 25L1 24ZM16 24L16 25L15 25L15 26L16 26L16 25L17 25L17 24ZM11 26L11 27L12 27L12 26ZM2 27L2 28L3 28L3 27ZM22 28L22 29L23 29L23 30L24 30L24 29L23 29L23 28ZM26 29L26 30L27 30L27 29ZM29 29L29 32L32 32L32 29ZM20 30L20 31L22 31L22 32L23 32L23 31L22 31L22 30ZM30 30L30 31L31 31L31 30ZM15 31L15 32L16 32L16 33L17 33L17 31ZM18 31L18 32L19 32L19 31ZM34 31L34 32L35 32L35 31ZM21 33L21 34L22 34L22 33ZM30 33L30 35L29 35L29 34L28 34L28 35L29 35L29 36L30 36L30 35L31 35L31 34L32 34L32 33ZM35 36L35 37L37 37L37 36ZM0 0L0 7L7 7L7 0ZM1 1L1 6L6 6L6 1ZM2 2L2 5L5 5L5 2ZM30 0L30 7L37 7L37 0ZM31 1L31 6L36 6L36 1ZM32 2L32 5L35 5L35 2ZM0 30L0 37L7 37L7 30ZM1 31L1 36L6 36L6 31ZM2 32L2 35L5 35L5 32Z" fill="#000000"/></g></g></svg>
