<?xml version="1.0" encoding="UTF-8"?>
<svg xmlns="http://www.w3.org/2000/svg" version="1.1" width="300" height="300" viewBox="0 0 300 300"><rect x="0" y="0" width="300" height="300" fill="#ffffff"/><g transform="scale(6.122)"><g transform="translate(0,0)"><path fill-rule="evenodd" d="M8 0L8 1L10 1L10 2L9 2L9 3L10 3L10 5L11 5L11 6L10 6L10 7L9 7L9 4L8 4L8 7L9 7L9 9L8 9L8 8L1 8L1 9L0 9L0 14L1 14L1 13L4 13L4 10L5 10L5 12L6 12L6 13L9 13L9 14L5 14L5 15L7 15L7 16L3 16L3 17L4 17L4 19L3 19L3 18L1 18L1 15L0 15L0 18L1 18L1 19L0 19L0 20L1 20L1 21L0 21L0 27L2 27L2 31L1 31L1 30L0 30L0 32L1 32L1 34L0 34L0 36L1 36L1 35L2 35L2 36L3 36L3 37L8 37L8 38L11 38L11 39L10 39L10 40L9 40L9 39L7 39L7 38L5 38L5 39L7 39L7 40L6 40L6 41L8 41L8 48L9 48L9 49L10 49L10 48L11 48L11 49L12 49L12 48L13 48L13 47L12 47L12 46L11 46L11 47L10 47L10 45L11 45L11 44L13 44L13 46L14 46L14 48L15 48L15 49L18 49L18 46L19 46L19 48L20 48L20 49L21 49L21 48L22 48L22 46L23 46L23 45L27 45L27 44L29 44L29 45L28 45L28 46L27 46L27 49L28 49L28 48L29 48L29 49L30 49L30 47L28 47L28 46L31 46L31 47L32 47L32 48L31 48L31 49L32 49L32 48L33 48L33 49L34 49L34 47L37 47L37 48L35 48L35 49L38 49L38 48L40 48L40 49L41 49L41 46L40 46L40 45L42 45L42 48L43 48L43 47L44 47L44 48L45 48L45 49L49 49L49 45L48 45L48 44L46 44L46 46L45 46L45 43L46 43L46 42L45 42L45 41L48 41L48 40L45 40L45 39L49 39L49 38L46 38L46 37L47 37L47 36L48 36L48 37L49 37L49 34L47 34L47 36L46 36L46 34L45 34L45 36L44 36L44 37L42 37L42 36L41 36L41 35L40 35L40 36L39 36L39 38L37 38L37 36L38 36L38 35L39 35L39 34L42 34L42 35L43 35L43 34L42 34L42 33L41 33L41 32L42 32L42 31L45 31L45 30L44 30L44 29L45 29L45 28L44 28L44 27L45 27L45 25L48 25L48 24L45 24L45 23L46 23L46 22L47 22L47 23L49 23L49 22L47 22L47 20L48 20L48 21L49 21L49 18L47 18L47 17L48 17L48 16L45 16L45 13L44 13L44 12L46 12L46 13L48 13L48 12L46 12L46 11L44 11L44 10L43 10L43 9L45 9L45 8L43 8L43 9L42 9L42 10L41 10L41 12L38 12L38 13L37 13L37 12L36 12L36 13L35 13L35 14L34 14L34 13L33 13L33 14L34 14L34 16L33 16L33 15L32 15L32 16L31 16L31 18L30 18L30 17L29 17L29 16L30 16L30 15L28 15L28 17L27 17L27 18L25 18L25 17L26 17L26 13L27 13L27 14L32 14L32 12L33 12L33 11L32 11L32 12L31 12L31 11L30 11L30 10L32 10L32 9L30 9L30 10L29 10L29 9L28 9L28 7L29 7L29 6L30 6L30 8L32 8L32 7L33 7L33 8L34 8L34 7L35 7L35 8L36 8L36 9L35 9L35 10L34 10L34 9L33 9L33 10L34 10L34 12L35 12L35 10L36 10L36 11L37 11L37 10L38 10L38 11L39 11L39 10L38 10L38 8L37 8L37 6L38 6L38 7L39 7L39 5L38 5L38 3L35 3L35 2L37 2L37 1L38 1L38 2L39 2L39 4L40 4L40 3L41 3L41 0L40 0L40 1L38 1L38 0L35 0L35 1L31 1L31 0L28 0L28 2L27 2L27 3L25 3L25 2L24 2L24 1L22 1L22 0L21 0L21 1L20 1L20 2L19 2L19 3L18 3L18 2L17 2L17 3L16 3L16 1L19 1L19 0L16 0L16 1L15 1L15 0ZM25 0L25 1L27 1L27 0ZM12 1L12 2L10 2L10 3L12 3L12 4L13 4L13 5L12 5L12 6L11 6L11 9L9 9L9 10L7 10L7 9L6 9L6 10L7 10L7 11L6 11L6 12L7 12L7 11L8 11L8 12L9 12L9 10L12 10L12 11L10 11L10 12L13 12L13 13L12 13L12 14L11 14L11 13L10 13L10 14L9 14L9 15L8 15L8 16L7 16L7 17L5 17L5 19L4 19L4 21L3 21L3 19L1 19L1 20L2 20L2 21L1 21L1 23L2 23L2 24L1 24L1 26L2 26L2 24L3 24L3 25L4 25L4 24L3 24L3 22L5 22L5 21L6 21L6 22L10 22L10 23L11 23L11 24L12 24L12 23L11 23L11 22L13 22L13 25L9 25L9 28L10 28L10 27L12 27L12 28L11 28L11 30L9 30L9 31L8 31L8 28L7 28L7 27L4 27L4 26L3 26L3 27L4 27L4 28L3 28L3 29L4 29L4 28L7 28L7 29L5 29L5 30L4 30L4 32L3 32L3 31L2 31L2 34L3 34L3 35L4 35L4 36L5 36L5 35L6 35L6 36L7 36L7 35L6 35L6 34L7 34L7 33L6 33L6 34L5 34L5 35L4 35L4 34L3 34L3 33L4 33L4 32L5 32L5 31L6 31L6 32L8 32L8 33L13 33L13 36L12 36L12 34L11 34L11 36L10 36L10 35L9 35L9 34L8 34L8 35L9 35L9 37L12 37L12 38L13 38L13 39L12 39L12 40L11 40L11 41L10 41L10 42L9 42L9 44L10 44L10 42L11 42L11 43L12 43L12 42L14 42L14 43L13 43L13 44L14 44L14 45L15 45L15 47L16 47L16 45L15 45L15 44L16 44L16 43L15 43L15 42L17 42L17 43L18 43L18 42L19 42L19 44L20 44L20 45L19 45L19 46L20 46L20 47L21 47L21 45L22 45L22 42L19 42L19 40L18 40L18 41L15 41L15 39L16 39L16 40L17 40L17 39L18 39L18 37L20 37L20 38L19 38L19 39L21 39L21 40L23 40L23 39L22 39L22 36L23 36L23 37L24 37L24 36L25 36L25 37L26 37L26 38L25 38L25 39L27 39L27 36L28 36L28 37L29 37L29 38L28 38L28 39L29 39L29 40L27 40L27 43L29 43L29 42L30 42L30 41L29 41L29 40L30 40L30 39L31 39L31 43L33 43L33 44L32 44L32 47L33 47L33 46L35 46L35 44L37 44L37 43L35 43L35 42L36 42L36 40L38 40L38 41L37 41L37 42L38 42L38 43L40 43L40 41L39 41L39 40L41 40L41 39L42 39L42 40L44 40L44 39L45 39L45 37L46 37L46 36L45 36L45 37L44 37L44 39L42 39L42 38L41 38L41 39L37 39L37 38L35 38L35 36L37 36L37 35L38 35L38 34L39 34L39 32L40 32L40 31L41 31L41 30L42 30L42 29L38 29L38 28L41 28L41 27L40 27L40 24L39 24L39 23L40 23L40 22L41 22L41 21L42 21L42 17L43 17L43 16L42 16L42 15L43 15L43 14L42 14L42 13L43 13L43 12L44 12L44 11L43 11L43 10L42 10L42 11L43 11L43 12L42 12L42 13L40 13L40 14L42 14L42 15L41 15L41 16L39 16L39 17L40 17L40 18L37 18L37 19L36 19L36 16L37 16L37 17L38 17L38 16L37 16L37 15L38 15L38 14L39 14L39 13L38 13L38 14L37 14L37 15L36 15L36 16L35 16L35 18L34 18L34 17L33 17L33 16L32 16L32 18L34 18L34 20L32 20L32 19L30 19L30 18L29 18L29 17L28 17L28 20L26 20L26 19L25 19L25 18L23 18L23 17L25 17L25 13L26 13L26 12L29 12L29 13L31 13L31 12L30 12L30 11L26 11L26 12L23 12L23 13L24 13L24 14L23 14L23 15L22 15L22 14L21 14L21 18L22 18L22 19L21 19L21 20L20 20L20 21L21 21L21 22L20 22L20 23L19 23L19 22L18 22L18 21L19 21L19 20L17 20L17 18L18 18L18 19L20 19L20 17L19 17L19 16L20 16L20 13L21 13L21 11L22 11L22 10L23 10L23 11L24 11L24 10L25 10L25 9L24 9L24 10L23 10L23 9L21 9L21 8L20 8L20 5L22 5L22 4L25 4L25 3L22 3L22 1L21 1L21 4L19 4L19 7L18 7L18 6L17 6L17 5L16 5L16 6L15 6L15 7L14 7L14 5L15 5L15 4L13 4L13 3L12 3L12 2L14 2L14 3L15 3L15 2L14 2L14 1ZM29 1L29 2L28 2L28 3L27 3L27 4L28 4L28 6L27 6L27 7L28 7L28 6L29 6L29 2L30 2L30 4L32 4L32 5L30 5L30 6L31 6L31 7L32 7L32 6L33 6L33 7L34 7L34 6L33 6L33 5L35 5L35 7L36 7L36 6L37 6L37 4L33 4L33 3L34 3L34 2L33 2L33 3L32 3L32 2L31 2L31 1ZM17 3L17 4L18 4L18 3ZM23 5L23 8L26 8L26 5ZM12 6L12 7L13 7L13 8L14 8L14 7L13 7L13 6ZM16 6L16 7L15 7L15 9L13 9L13 12L15 12L15 11L18 11L18 7L17 7L17 6ZM21 6L21 7L22 7L22 6ZM24 6L24 7L25 7L25 6ZM40 6L40 7L41 7L41 6ZM39 8L39 9L41 9L41 8ZM48 8L48 9L46 9L46 10L48 10L48 11L49 11L49 10L48 10L48 9L49 9L49 8ZM2 9L2 10L3 10L3 9ZM15 9L15 10L17 10L17 9ZM19 9L19 11L21 11L21 10L20 10L20 9ZM26 9L26 10L27 10L27 9ZM1 11L1 12L2 12L2 11ZM16 12L16 13L15 13L15 15L16 15L16 16L15 16L15 18L13 18L13 17L14 17L14 16L13 16L13 15L12 15L12 16L13 16L13 17L12 17L12 18L11 18L11 17L10 17L10 18L8 18L8 17L7 17L7 18L6 18L6 19L5 19L5 20L6 20L6 21L7 21L7 20L8 20L8 21L10 21L10 20L11 20L11 21L12 21L12 20L11 20L11 19L12 19L12 18L13 18L13 19L15 19L15 20L16 20L16 21L14 21L14 22L16 22L16 23L14 23L14 25L13 25L13 26L12 26L12 27L14 27L14 28L13 28L13 29L12 29L12 31L11 31L11 32L13 32L13 33L14 33L14 32L13 32L13 31L15 31L15 30L14 30L14 28L15 28L15 27L16 27L16 29L17 29L17 30L18 30L18 25L17 25L17 27L16 27L16 23L18 23L18 22L17 22L17 20L16 20L16 16L17 16L17 17L18 17L18 16L17 16L17 15L19 15L19 13L20 13L20 12L18 12L18 13L17 13L17 12ZM3 14L3 15L4 15L4 14ZM10 14L10 16L11 16L11 14ZM16 14L16 15L17 15L17 14ZM47 14L47 15L49 15L49 14ZM23 15L23 16L22 16L22 17L23 17L23 16L24 16L24 15ZM44 16L44 17L45 17L45 16ZM10 18L10 19L9 19L9 20L10 20L10 19L11 19L11 18ZM46 18L46 19L45 19L45 20L44 20L44 21L43 21L43 22L46 22L46 20L47 20L47 18ZM6 19L6 20L7 20L7 19ZM22 19L22 20L23 20L23 21L22 21L22 24L19 24L19 25L20 25L20 26L19 26L19 28L20 28L20 27L21 27L21 29L22 29L22 31L23 31L23 29L25 29L25 30L26 30L26 32L25 32L25 31L24 31L24 32L23 32L23 33L22 33L22 32L20 32L20 35L18 35L18 36L20 36L20 37L21 37L21 36L20 36L20 35L21 35L21 34L22 34L22 35L23 35L23 36L24 36L24 35L25 35L25 34L26 34L26 36L27 36L27 34L28 34L28 36L29 36L29 37L30 37L30 38L29 38L29 39L30 39L30 38L31 38L31 39L32 39L32 40L34 40L34 39L35 39L35 40L36 40L36 39L35 39L35 38L33 38L33 37L32 37L32 36L33 36L33 34L34 34L34 35L36 35L36 34L34 34L34 31L35 31L35 30L36 30L36 32L35 32L35 33L36 33L36 32L37 32L37 34L38 34L38 31L40 31L40 30L38 30L38 29L37 29L37 28L36 28L36 26L37 26L37 24L38 24L38 23L39 23L39 22L38 22L38 23L37 23L37 21L41 21L41 20L40 20L40 19L37 19L37 20L36 20L36 21L35 21L35 22L33 22L33 21L32 21L32 22L31 22L31 20L30 20L30 19L29 19L29 21L27 21L27 22L23 22L23 21L25 21L25 19L24 19L24 20L23 20L23 19ZM28 22L28 23L27 23L27 24L28 24L28 25L27 25L27 26L28 26L28 27L29 27L29 28L27 28L27 29L26 29L26 28L25 28L25 29L26 29L26 30L28 30L28 32L27 32L27 33L26 33L26 34L27 34L27 33L28 33L28 32L29 32L29 31L31 31L31 32L33 32L33 30L35 30L35 27L34 27L34 26L36 26L36 25L34 25L34 23L33 23L33 22L32 22L32 23L31 23L31 22L30 22L30 23L31 23L31 24L32 24L32 25L33 25L33 28L32 28L32 27L31 27L31 26L29 26L29 25L30 25L30 24L29 24L29 22ZM5 23L5 26L8 26L8 23ZM23 23L23 26L26 26L26 23ZM32 23L32 24L33 24L33 23ZM35 23L35 24L37 24L37 23ZM41 23L41 26L44 26L44 23ZM6 24L6 25L7 25L7 24ZM24 24L24 25L25 25L25 24ZM42 24L42 25L43 25L43 24ZM14 25L14 27L15 27L15 25ZM38 26L38 27L39 27L39 26ZM46 26L46 27L47 27L47 28L46 28L46 31L47 31L47 32L43 32L43 33L47 33L47 32L48 32L48 33L49 33L49 32L48 32L48 31L49 31L49 30L48 30L48 31L47 31L47 28L48 28L48 29L49 29L49 28L48 28L48 27L49 27L49 26ZM23 27L23 28L24 28L24 27ZM30 27L30 28L29 28L29 30L31 30L31 31L32 31L32 28L31 28L31 27ZM42 27L42 28L43 28L43 29L44 29L44 28L43 28L43 27ZM30 28L30 29L31 29L31 28ZM33 28L33 29L34 29L34 28ZM19 29L19 31L21 31L21 30L20 30L20 29ZM6 30L6 31L7 31L7 30ZM37 30L37 31L38 31L38 30ZM16 32L16 35L15 35L15 36L13 36L13 37L15 37L15 36L16 36L16 35L17 35L17 34L18 34L18 33L19 33L19 32L18 32L18 33L17 33L17 32ZM24 32L24 34L23 34L23 35L24 35L24 34L25 34L25 32ZM29 33L29 34L30 34L30 35L29 35L29 36L30 36L30 37L31 37L31 38L32 38L32 39L33 39L33 38L32 38L32 37L31 37L31 36L32 36L32 35L31 35L31 34L32 34L32 33L31 33L31 34L30 34L30 33ZM30 35L30 36L31 36L31 35ZM40 36L40 37L41 37L41 36ZM1 38L1 40L0 40L0 41L3 41L3 40L4 40L4 39L2 39L2 38ZM14 38L14 39L15 39L15 38ZM8 40L8 41L9 41L9 40ZM13 40L13 41L14 41L14 42L15 42L15 41L14 41L14 40ZM23 41L23 44L26 44L26 41ZM28 41L28 42L29 42L29 41ZM33 41L33 42L34 42L34 41ZM41 41L41 44L44 44L44 41ZM24 42L24 43L25 43L25 42ZM42 42L42 43L43 43L43 42ZM47 42L47 43L49 43L49 42ZM20 43L20 44L21 44L21 43ZM34 43L34 44L33 44L33 45L34 45L34 44L35 44L35 43ZM17 44L17 45L18 45L18 44ZM38 45L38 46L37 46L37 47L38 47L38 46L39 46L39 47L40 47L40 46L39 46L39 45ZM43 45L43 46L44 46L44 47L45 47L45 48L48 48L48 47L47 47L47 46L46 46L46 47L45 47L45 46L44 46L44 45ZM24 46L24 47L23 47L23 48L24 48L24 49L25 49L25 48L26 48L26 47L25 47L25 46ZM11 47L11 48L12 48L12 47ZM24 47L24 48L25 48L25 47ZM0 0L0 7L7 7L7 0ZM1 1L1 6L6 6L6 1ZM2 2L2 5L5 5L5 2ZM42 0L42 7L49 7L49 0ZM43 1L43 6L48 6L48 1ZM44 2L44 5L47 5L47 2ZM0 42L0 49L7 49L7 42ZM1 43L1 48L6 48L6 43ZM2 44L2 47L5 47L5 44Z" fill="#000000"/></g></g></svg>
