<?xml version="1.0" encoding="UTF-8"?>
<svg xmlns="http://www.w3.org/2000/svg" version="1.1" width="300" height="300" viewBox="0 0 300 300"><rect x="0" y="0" width="300" height="300" fill="#ffffff"/><g transform="scale(8.108)"><g transform="translate(0,0)"><path fill-rule="evenodd" d="M8 0L8 1L11 1L11 2L8 2L8 4L10 4L10 5L8 5L8 8L5 8L5 9L4 9L4 8L3 8L3 9L2 9L2 8L1 8L1 9L0 9L0 11L2 11L2 10L4 10L4 11L3 11L3 12L6 12L6 13L8 13L8 14L5 14L5 13L1 13L1 14L2 14L2 15L0 15L0 16L1 16L1 17L0 17L0 19L1 19L1 18L2 18L2 19L4 19L4 20L5 20L5 18L6 18L6 19L7 19L7 20L6 20L6 21L4 21L4 23L9 23L9 24L10 24L10 25L8 25L8 24L6 24L6 25L4 25L4 24L2 24L2 25L4 25L4 26L5 26L5 27L3 27L3 26L2 26L2 27L1 27L1 26L0 26L0 27L1 27L1 28L0 28L0 29L3 29L3 28L5 28L5 27L7 27L7 26L9 26L9 27L8 27L8 32L9 32L9 33L8 33L8 34L9 34L9 35L8 35L8 36L9 36L9 37L10 37L10 36L11 36L11 37L12 37L12 36L13 36L13 37L14 37L14 33L13 33L13 34L12 34L12 35L11 35L11 33L10 33L10 32L12 32L12 29L11 29L11 31L10 31L10 28L11 28L11 24L12 24L12 23L10 23L10 21L16 21L16 22L13 22L13 25L12 25L12 26L13 26L13 25L15 25L15 26L14 26L14 28L13 28L13 30L16 30L16 31L17 31L17 30L18 30L18 29L20 29L20 30L19 30L19 31L18 31L18 32L19 32L19 31L20 31L20 33L19 33L19 36L18 36L18 35L17 35L17 34L16 34L16 35L15 35L15 36L18 36L18 37L19 37L19 36L22 36L22 37L25 37L25 33L27 33L27 35L26 35L26 36L27 36L27 37L29 37L29 35L28 35L28 34L29 34L29 33L32 33L32 34L31 34L31 35L32 35L32 37L33 37L33 34L34 34L34 35L35 35L35 34L36 34L36 35L37 35L37 33L35 33L35 34L34 34L34 32L35 32L35 30L36 30L36 31L37 31L37 28L35 28L35 27L37 27L37 25L36 25L36 24L37 24L37 23L36 23L36 21L37 21L37 20L36 20L36 19L37 19L37 16L36 16L36 15L37 15L37 13L35 13L35 12L36 12L36 11L37 11L37 8L36 8L36 9L35 9L35 8L33 8L33 9L32 9L32 8L29 8L29 10L28 10L28 9L27 9L27 8L26 8L26 7L27 7L27 6L28 6L28 7L29 7L29 6L28 6L28 5L29 5L29 4L28 4L28 3L29 3L29 2L28 2L28 1L29 1L29 0L27 0L27 1L26 1L26 0L25 0L25 4L26 4L26 5L27 5L27 6L26 6L26 7L25 7L25 6L24 6L24 5L23 5L23 4L22 4L22 5L23 5L23 6L22 6L22 7L21 7L21 5L20 5L20 4L16 4L16 3L14 3L14 2L13 2L13 1L14 1L14 0L13 0L13 1L12 1L12 0ZM16 0L16 2L19 2L19 0L18 0L18 1L17 1L17 0ZM20 0L20 3L21 3L21 2L23 2L23 0L22 0L22 1L21 1L21 0ZM11 2L11 3L10 3L10 4L12 4L12 2ZM26 2L26 3L28 3L28 2ZM13 4L13 5L10 5L10 6L9 6L9 9L10 9L10 11L9 11L9 10L8 10L8 9L6 9L6 10L5 10L5 11L6 11L6 12L7 12L7 11L6 11L6 10L8 10L8 12L10 12L10 13L9 13L9 14L8 14L8 15L6 15L6 16L7 16L7 17L6 17L6 18L7 18L7 17L8 17L8 19L9 19L9 20L10 20L10 19L11 19L11 20L13 20L13 19L14 19L14 20L15 20L15 19L16 19L16 21L17 21L17 22L19 22L19 21L18 21L18 20L17 20L17 19L16 19L16 18L19 18L19 17L18 17L18 16L17 16L17 14L18 14L18 15L19 15L19 14L20 14L20 15L22 15L22 14L24 14L24 15L26 15L26 14L27 14L27 20L26 20L26 18L25 18L25 17L26 17L26 16L20 16L20 19L22 19L22 17L23 17L23 19L24 19L24 22L23 22L23 21L22 21L22 22L21 22L21 20L20 20L20 22L21 22L21 23L18 23L18 24L17 24L17 25L16 25L16 26L15 26L15 27L16 27L16 30L17 30L17 29L18 29L18 26L19 26L19 27L20 27L20 28L21 28L21 30L22 30L22 31L21 31L21 33L20 33L20 35L23 35L23 32L22 32L22 31L24 31L24 32L26 32L26 31L27 31L27 30L28 30L28 29L27 29L27 28L28 28L28 27L27 27L27 28L24 28L24 27L23 27L23 26L24 26L24 24L25 24L25 25L26 25L26 24L27 24L27 25L28 25L28 26L32 26L32 28L33 28L33 31L34 31L34 30L35 30L35 28L34 28L34 27L35 27L35 26L36 26L36 25L35 25L35 24L36 24L36 23L34 23L34 22L35 22L35 21L36 21L36 20L34 20L34 22L33 22L33 21L32 21L32 20L33 20L33 19L34 19L34 18L35 18L35 19L36 19L36 18L35 18L35 17L34 17L34 16L35 16L35 15L36 15L36 14L35 14L35 15L34 15L34 13L33 13L33 10L32 10L32 9L30 9L30 10L32 10L32 11L30 11L30 12L29 12L29 11L28 11L28 10L27 10L27 9L26 9L26 8L24 8L24 6L23 6L23 8L22 8L22 10L21 10L21 11L19 11L19 14L18 14L18 13L17 13L17 12L18 12L18 9L19 9L19 8L20 8L20 9L21 9L21 8L20 8L20 6L19 6L19 5L18 5L18 6L17 6L17 5L16 5L16 6L15 6L15 7L14 7L14 6L13 6L13 5L15 5L15 4ZM10 6L10 9L11 9L11 6ZM12 6L12 7L13 7L13 8L12 8L12 10L11 10L11 11L12 11L12 13L11 13L11 14L13 14L13 16L12 16L12 17L13 17L13 16L14 16L14 17L16 17L16 16L14 16L14 14L15 14L15 15L16 15L16 14L17 14L17 13L14 13L14 14L13 14L13 11L14 11L14 10L17 10L17 9L16 9L16 8L17 8L17 6L16 6L16 7L15 7L15 8L14 8L14 7L13 7L13 6ZM18 6L18 8L19 8L19 6ZM13 8L13 10L12 10L12 11L13 11L13 10L14 10L14 8ZM1 9L1 10L2 10L2 9ZM25 9L25 10L24 10L24 11L21 11L21 12L20 12L20 13L21 13L21 14L22 14L22 13L23 13L23 12L24 12L24 14L25 14L25 13L27 13L27 14L28 14L28 15L29 15L29 12L28 12L28 11L27 11L27 10L26 10L26 9ZM34 9L34 12L35 12L35 9ZM25 10L25 11L24 11L24 12L25 12L25 11L26 11L26 10ZM21 12L21 13L22 13L22 12ZM27 12L27 13L28 13L28 12ZM30 12L30 14L31 14L31 16L29 16L29 17L28 17L28 18L29 18L29 19L28 19L28 20L29 20L29 21L30 21L30 23L27 23L27 21L25 21L25 24L26 24L26 23L27 23L27 24L28 24L28 25L29 25L29 24L30 24L30 25L34 25L34 23L33 23L33 22L32 22L32 23L31 23L31 20L32 20L32 19L31 19L31 18L33 18L33 17L32 17L32 16L33 16L33 15L32 15L32 14L31 14L31 13L32 13L32 12ZM3 14L3 15L2 15L2 18L4 18L4 17L5 17L5 14ZM9 14L9 16L11 16L11 15L10 15L10 14ZM3 15L3 16L4 16L4 15ZM9 17L9 18L11 18L11 17ZM29 17L29 18L30 18L30 17ZM14 18L14 19L15 19L15 18ZM30 19L30 20L31 20L31 19ZM0 20L0 21L1 21L1 22L0 22L0 23L3 23L3 20L2 20L2 21L1 21L1 20ZM6 21L6 22L7 22L7 21ZM8 21L8 22L9 22L9 21ZM21 23L21 24L18 24L18 25L17 25L17 26L18 26L18 25L22 25L22 26L20 26L20 27L22 27L22 26L23 26L23 25L22 25L22 24L23 24L23 23ZM30 23L30 24L31 24L31 23ZM0 24L0 25L1 25L1 24ZM6 25L6 26L7 26L7 25ZM25 26L25 27L26 27L26 26ZM2 27L2 28L3 28L3 27ZM30 27L30 28L31 28L31 27ZM6 28L6 29L7 29L7 28ZM22 28L22 29L23 29L23 30L24 30L24 29L23 29L23 28ZM26 29L26 30L27 30L27 29ZM29 29L29 32L32 32L32 29ZM30 30L30 31L31 31L31 30ZM13 31L13 32L15 32L15 33L16 33L16 32L15 32L15 31ZM27 32L27 33L28 33L28 32ZM9 33L9 34L10 34L10 33ZM21 33L21 34L22 34L22 33ZM35 36L35 37L37 37L37 36ZM0 0L0 7L7 7L7 0ZM1 1L1 6L6 6L6 1ZM2 2L2 5L5 5L5 2ZM30 0L30 7L37 7L37 0ZM31 1L31 6L36 6L36 1ZM32 2L32 5L35 5L35 2ZM0 30L0 37L7 37L7 30ZM1 31L1 36L6 36L6 31ZM2 32L2 35L5 35L5 32Z" fill="#000000"/></g></g></svg>
