<?xml version="1.0" encoding="UTF-8"?>
<svg xmlns="http://www.w3.org/2000/svg" version="1.1" width="300" height="300" viewBox="0 0 300 300"><rect x="0" y="0" width="300" height="300" fill="#ffffff"/><g transform="scale(8.108)"><g transform="translate(0,0)"><path fill-rule="evenodd" d="M9 0L9 2L8 2L8 3L10 3L10 4L8 4L8 7L9 7L9 8L8 8L8 9L7 9L7 8L6 8L6 9L5 9L5 8L4 8L4 10L2 10L2 11L1 11L1 9L2 9L2 8L1 8L1 9L0 9L0 12L1 12L1 13L0 13L0 14L2 14L2 15L0 15L0 16L2 16L2 18L1 18L1 17L0 17L0 18L1 18L1 20L3 20L3 21L0 21L0 22L3 22L3 21L5 21L5 22L4 22L4 23L7 23L7 24L6 24L6 25L7 25L7 26L5 26L5 27L7 27L7 26L8 26L8 27L9 27L9 28L10 28L10 30L11 30L11 31L9 31L9 32L8 32L8 33L9 33L9 34L11 34L11 35L10 35L10 37L14 37L14 36L15 36L15 37L17 37L17 36L15 36L15 35L14 35L14 33L15 33L15 34L16 34L16 35L19 35L19 34L20 34L20 35L21 35L21 36L22 36L22 35L23 35L23 34L21 34L21 33L18 33L18 32L20 32L20 31L21 31L21 30L22 30L22 29L23 29L23 31L22 31L22 33L23 33L23 31L25 31L25 29L23 29L23 27L24 27L24 28L25 28L25 26L24 26L24 25L28 25L28 27L29 27L29 28L27 28L27 26L26 26L26 28L27 28L27 29L26 29L26 33L27 33L27 32L28 32L28 33L30 33L30 35L29 35L29 34L25 34L25 35L24 35L24 36L23 36L23 37L26 37L26 35L29 35L29 37L31 37L31 36L32 36L32 37L33 37L33 36L32 36L32 35L31 35L31 33L36 33L36 32L35 32L35 31L36 31L36 29L37 29L37 28L35 28L35 30L34 30L34 29L33 29L33 28L31 28L31 27L32 27L32 26L33 26L33 27L34 27L34 26L35 26L35 27L36 27L36 24L37 24L37 20L36 20L36 17L37 17L37 16L36 16L36 13L37 13L37 11L35 11L35 10L34 10L34 11L33 11L33 10L32 10L32 11L31 11L31 12L30 12L30 11L28 11L28 10L27 10L27 9L26 9L26 7L27 7L27 6L26 6L26 7L25 7L25 5L23 5L23 2L24 2L24 3L26 3L26 5L28 5L28 9L30 9L30 10L31 10L31 9L33 9L33 8L31 8L31 9L30 9L30 8L29 8L29 5L28 5L28 3L29 3L29 2L27 2L27 3L26 3L26 2L25 2L25 1L23 1L23 2L20 2L20 1L22 1L22 0L17 0L17 1L14 1L14 2L13 2L13 3L12 3L12 7L13 7L13 8L11 8L11 5L10 5L10 4L11 4L11 2L10 2L10 0ZM11 0L11 1L12 1L12 0ZM27 0L27 1L28 1L28 0ZM17 1L17 2L18 2L18 3L16 3L16 2L14 2L14 3L13 3L13 5L15 5L15 3L16 3L16 6L15 6L15 7L14 7L14 6L13 6L13 7L14 7L14 11L15 11L15 12L13 12L13 10L12 10L12 9L10 9L10 8L9 8L9 10L7 10L7 9L6 9L6 10L7 10L7 11L4 11L4 12L2 12L2 13L3 13L3 15L5 15L5 12L7 12L7 11L8 11L8 12L12 12L12 13L11 13L11 14L9 14L9 13L6 13L6 14L7 14L7 15L6 15L6 16L7 16L7 17L6 17L6 18L7 18L7 17L8 17L8 18L9 18L9 17L11 17L11 18L10 18L10 21L8 21L8 20L7 20L7 19L3 19L3 20L5 20L5 21L6 21L6 22L7 22L7 23L8 23L8 24L7 24L7 25L8 25L8 24L9 24L9 25L10 25L10 26L9 26L9 27L10 27L10 26L11 26L11 25L12 25L12 22L13 22L13 25L14 25L14 24L15 24L15 26L12 26L12 28L14 28L14 29L13 29L13 31L11 31L11 33L13 33L13 32L14 32L14 31L15 31L15 33L17 33L17 34L18 34L18 33L17 33L17 32L18 32L18 31L17 31L17 32L16 32L16 30L17 30L17 29L18 29L18 30L19 30L19 29L18 29L18 28L20 28L20 27L21 27L21 29L22 29L22 27L23 27L23 25L24 25L24 24L26 24L26 23L27 23L27 21L30 21L30 23L29 23L29 22L28 22L28 23L29 23L29 24L28 24L28 25L30 25L30 24L31 24L31 25L32 25L32 23L34 23L34 22L35 22L35 23L36 23L36 21L34 21L34 22L31 22L31 21L33 21L33 19L34 19L34 18L35 18L35 17L33 17L33 15L35 15L35 13L36 13L36 12L34 12L34 14L33 14L33 15L32 15L32 14L31 14L31 13L33 13L33 12L31 12L31 13L30 13L30 12L27 12L27 11L26 11L26 10L24 10L24 11L22 11L22 12L21 12L21 10L22 10L22 9L23 9L23 8L24 8L24 9L25 9L25 8L24 8L24 6L23 6L23 5L22 5L22 3L20 3L20 2L19 2L19 1ZM19 3L19 6L18 6L18 4L17 4L17 6L16 6L16 7L15 7L15 8L16 8L16 10L15 10L15 11L16 11L16 13L17 13L17 16L16 16L16 15L13 15L13 14L15 14L15 13L12 13L12 16L11 16L11 17L12 17L12 18L11 18L11 19L14 19L14 21L15 21L15 22L16 22L16 24L17 24L17 23L19 23L19 24L18 24L18 25L16 25L16 26L15 26L15 29L14 29L14 30L15 30L15 29L17 29L17 27L16 27L16 26L18 26L18 27L20 27L20 26L22 26L22 25L23 25L23 24L24 24L24 23L25 23L25 22L26 22L26 21L27 21L27 19L28 19L28 17L31 17L31 18L32 18L32 19L33 19L33 17L32 17L32 15L31 15L31 14L30 14L30 13L29 13L29 14L30 14L30 15L31 15L31 16L29 16L29 15L28 15L28 14L27 14L27 12L26 12L26 13L22 13L22 14L21 14L21 13L20 13L20 12L19 12L19 13L20 13L20 14L21 14L21 16L22 16L22 15L24 15L24 16L25 16L25 15L24 15L24 14L27 14L27 15L28 15L28 17L27 17L27 16L26 16L26 17L24 17L24 18L23 18L23 17L22 17L22 18L20 18L20 17L19 17L19 16L20 16L20 15L19 15L19 14L18 14L18 13L17 13L17 12L18 12L18 11L17 11L17 9L18 9L18 10L19 10L19 11L20 11L20 9L22 9L22 8L23 8L23 6L22 6L22 7L21 7L21 6L20 6L20 5L21 5L21 4L20 4L20 3ZM9 5L9 7L10 7L10 5ZM17 6L17 7L16 7L16 8L17 8L17 7L18 7L18 8L20 8L20 6L19 6L19 7L18 7L18 6ZM34 8L34 9L35 9L35 8ZM10 10L10 11L11 11L11 10ZM24 11L24 12L25 12L25 11ZM8 14L8 15L7 15L7 16L10 16L10 15L9 15L9 14ZM4 16L4 18L5 18L5 16ZM13 16L13 18L14 18L14 16ZM17 16L17 17L16 17L16 18L15 18L15 19L16 19L16 20L15 20L15 21L16 21L16 22L17 22L17 21L16 21L16 20L18 20L18 19L19 19L19 18L18 18L18 16ZM16 18L16 19L18 19L18 18ZM25 18L25 19L24 19L24 20L23 20L23 19L22 19L22 21L20 21L20 20L19 20L19 21L20 21L20 24L21 24L21 22L24 22L24 21L25 21L25 20L26 20L26 19L27 19L27 18ZM29 18L29 20L30 20L30 21L31 21L31 19L30 19L30 18ZM6 20L6 21L7 21L7 22L8 22L8 21L7 21L7 20ZM12 20L12 21L10 21L10 22L9 22L9 23L10 23L10 25L11 25L11 22L12 22L12 21L13 21L13 20ZM1 23L1 24L0 24L0 26L2 26L2 27L3 27L3 28L0 28L0 29L3 29L3 28L4 28L4 29L5 29L5 28L4 28L4 24L3 24L3 23ZM18 25L18 26L20 26L20 25ZM30 26L30 27L31 27L31 26ZM6 28L6 29L7 29L7 28ZM8 29L8 30L9 30L9 29ZM11 29L11 30L12 30L12 29ZM29 29L29 32L32 32L32 29ZM27 30L27 31L28 31L28 30ZM30 30L30 31L31 31L31 30ZM24 32L24 33L25 33L25 32ZM12 34L12 35L11 35L11 36L12 36L12 35L13 35L13 36L14 36L14 35L13 35L13 34ZM34 34L34 37L37 37L37 36L36 36L36 34ZM8 35L8 36L9 36L9 35ZM30 35L30 36L31 36L31 35ZM18 36L18 37L20 37L20 36ZM0 0L0 7L7 7L7 0ZM1 1L1 6L6 6L6 1ZM2 2L2 5L5 5L5 2ZM30 0L30 7L37 7L37 0ZM31 1L31 6L36 6L36 1ZM32 2L32 5L35 5L35 2ZM0 30L0 37L7 37L7 30ZM1 31L1 36L6 36L6 31ZM2 32L2 35L5 35L5 32Z" fill="#000000"/></g></g></svg>
