<?xml version="1.0" encoding="UTF-8"?>
<svg xmlns="http://www.w3.org/2000/svg" version="1.1" width="300" height="300" viewBox="0 0 300 300"><rect x="0" y="0" width="300" height="300" fill="#ffffff"/><g transform="scale(6.122)"><g transform="translate(0,0)"><path fill-rule="evenodd" d="M8 0L8 1L11 1L11 2L12 2L12 3L9 3L9 4L8 4L8 7L9 7L9 5L10 5L10 4L11 4L11 6L10 6L10 8L9 8L9 9L8 9L8 8L1 8L1 9L0 9L0 11L1 11L1 12L0 12L0 13L1 13L1 12L3 12L3 13L5 13L5 12L6 12L6 13L9 13L9 14L3 14L3 15L7 15L7 16L5 16L5 17L4 17L4 16L3 16L3 17L4 17L4 19L3 19L3 18L1 18L1 15L0 15L0 18L1 18L1 19L0 19L0 20L1 20L1 21L0 21L0 29L1 29L1 31L0 31L0 33L1 33L1 31L2 31L2 33L4 33L4 34L2 34L2 36L4 36L4 38L5 38L5 39L8 39L8 40L6 40L6 41L8 41L8 48L9 48L9 49L10 49L10 48L11 48L11 49L12 49L12 47L13 47L13 46L14 46L14 48L15 48L15 49L18 49L18 46L19 46L19 48L20 48L20 49L21 49L21 48L22 48L22 46L23 46L23 45L27 45L27 44L29 44L29 45L28 45L28 46L27 46L27 49L28 49L28 48L29 48L29 49L30 49L30 47L28 47L28 46L31 46L31 47L32 47L32 48L31 48L31 49L32 49L32 48L33 48L33 49L34 49L34 47L37 47L37 48L35 48L35 49L38 49L38 48L40 48L40 49L41 49L41 47L42 47L42 48L43 48L43 47L44 47L44 48L45 48L45 49L49 49L49 45L48 45L48 44L46 44L46 46L45 46L45 43L46 43L46 42L45 42L45 41L48 41L48 40L45 40L45 39L46 39L46 38L45 38L45 39L44 39L44 37L47 37L47 36L48 36L48 37L49 37L49 34L47 34L47 36L44 36L44 35L43 35L43 34L42 34L42 33L41 33L41 32L42 32L42 31L44 31L44 30L43 30L43 29L45 29L45 28L44 28L44 27L45 27L45 25L47 25L47 26L46 26L46 27L47 27L47 28L46 28L46 31L47 31L47 28L49 28L49 26L48 26L48 24L45 24L45 23L46 23L46 22L47 22L47 23L49 23L49 22L47 22L47 20L48 20L48 21L49 21L49 18L47 18L47 17L48 17L48 16L45 16L45 14L46 14L46 13L48 13L48 12L46 12L46 11L44 11L44 10L43 10L43 9L45 9L45 8L43 8L43 9L42 9L42 10L41 10L41 11L42 11L42 12L39 12L39 10L37 10L37 6L38 6L38 7L39 7L39 5L38 5L38 3L35 3L35 2L37 2L37 1L38 1L38 2L39 2L39 4L40 4L40 3L41 3L41 0L40 0L40 1L38 1L38 0L35 0L35 1L31 1L31 0L28 0L28 1L27 1L27 0L24 0L24 1L25 1L25 2L24 2L24 3L23 3L23 2L22 2L22 0L21 0L21 1L20 1L20 2L19 2L19 4L18 4L18 2L17 2L17 3L16 3L16 1L19 1L19 0L16 0L16 1L15 1L15 0ZM12 1L12 2L13 2L13 3L12 3L12 4L13 4L13 5L12 5L12 6L11 6L11 9L10 9L10 10L9 10L9 11L8 11L8 12L9 12L9 13L10 13L10 12L12 12L12 13L11 13L11 16L10 16L10 14L9 14L9 15L8 15L8 16L7 16L7 17L5 17L5 18L7 18L7 17L8 17L8 18L10 18L10 19L9 19L9 20L10 20L10 21L8 21L8 20L7 20L7 19L6 19L6 20L5 20L5 19L4 19L4 21L3 21L3 19L1 19L1 20L2 20L2 21L1 21L1 23L2 23L2 24L1 24L1 26L2 26L2 24L3 24L3 25L4 25L4 24L3 24L3 22L5 22L5 21L6 21L6 22L10 22L10 23L11 23L11 24L13 24L13 25L9 25L9 27L10 27L10 28L7 28L7 27L4 27L4 26L3 26L3 27L4 27L4 28L3 28L3 29L2 29L2 30L3 30L3 29L4 29L4 28L7 28L7 29L5 29L5 30L4 30L4 31L3 31L3 32L5 32L5 31L6 31L6 32L7 32L7 31L12 31L12 29L13 29L13 30L14 30L14 27L12 27L12 26L13 26L13 25L14 25L14 26L15 26L15 25L14 25L14 23L15 23L15 22L14 22L14 21L15 21L15 20L16 20L16 27L15 27L15 32L14 32L14 31L13 31L13 32L8 32L8 33L6 33L6 34L5 34L5 35L4 35L4 36L5 36L5 38L8 38L8 39L9 39L9 40L8 40L8 41L9 41L9 40L10 40L10 39L11 39L11 40L14 40L14 41L10 41L10 42L9 42L9 44L10 44L10 42L11 42L11 45L10 45L10 47L11 47L11 45L13 45L13 44L14 44L14 45L16 45L16 44L17 44L17 45L18 45L18 44L17 44L17 43L18 43L18 42L19 42L19 41L20 41L20 42L21 42L21 43L19 43L19 44L21 44L21 45L22 45L22 42L21 42L21 40L23 40L23 39L24 39L24 37L26 37L26 38L25 38L25 39L27 39L27 40L28 40L28 41L29 41L29 42L27 42L27 43L29 43L29 42L30 42L30 41L29 41L29 40L30 40L30 39L31 39L31 41L32 41L32 43L33 43L33 44L32 44L32 47L33 47L33 46L35 46L35 44L37 44L37 42L38 42L38 43L40 43L40 41L39 41L39 40L41 40L41 39L42 39L42 40L44 40L44 39L42 39L42 38L41 38L41 39L36 39L36 40L35 40L35 39L34 39L34 40L32 40L32 39L33 39L33 38L39 38L39 37L38 37L38 36L40 36L40 37L41 37L41 36L42 36L42 37L44 37L44 36L43 36L43 35L42 35L42 34L39 34L39 32L40 32L40 31L41 31L41 30L42 30L42 29L40 29L40 30L39 30L39 29L38 29L38 28L41 28L41 27L40 27L40 24L39 24L39 23L40 23L40 22L41 22L41 21L42 21L42 16L43 16L43 14L42 14L42 13L43 13L43 12L44 12L44 13L46 13L46 12L44 12L44 11L43 11L43 10L42 10L42 11L43 11L43 12L42 12L42 13L40 13L40 14L42 14L42 15L41 15L41 16L39 16L39 17L40 17L40 18L37 18L37 17L38 17L38 16L37 16L37 15L38 15L38 14L39 14L39 12L38 12L38 11L36 11L36 10L35 10L35 9L36 9L36 8L35 8L35 7L36 7L36 6L37 6L37 4L33 4L33 3L34 3L34 2L33 2L33 3L32 3L32 2L31 2L31 1L28 1L28 3L29 3L29 2L30 2L30 4L32 4L32 5L30 5L30 6L29 6L29 7L28 7L28 4L27 4L27 9L26 9L26 10L27 10L27 11L26 11L26 12L23 12L23 13L24 13L24 14L23 14L23 15L22 15L22 14L21 14L21 13L20 13L20 12L21 12L21 11L22 11L22 10L23 10L23 9L21 9L21 8L20 8L20 5L21 5L21 7L22 7L22 5L21 5L21 4L19 4L19 5L18 5L18 4L17 4L17 5L16 5L16 6L15 6L15 5L14 5L14 4L15 4L15 2L13 2L13 1ZM26 1L26 2L25 2L25 3L27 3L27 1ZM21 2L21 3L22 3L22 2ZM13 3L13 4L14 4L14 3ZM17 5L17 6L16 6L16 7L15 7L15 6L14 6L14 7L13 7L13 6L12 6L12 7L13 7L13 11L14 11L14 12L13 12L13 14L12 14L12 15L13 15L13 14L14 14L14 13L16 13L16 14L15 14L15 18L11 18L11 17L14 17L14 16L11 16L11 17L10 17L10 18L11 18L11 19L10 19L10 20L12 20L12 21L13 21L13 19L15 19L15 18L16 18L16 20L19 20L19 19L18 19L18 18L16 18L16 17L18 17L18 16L17 16L17 15L19 15L19 14L20 14L20 13L19 13L19 12L18 12L18 10L19 10L19 11L21 11L21 10L20 10L20 9L18 9L18 8L19 8L19 6L18 6L18 5ZM23 5L23 8L26 8L26 5ZM33 5L33 6L32 6L32 7L31 7L31 6L30 6L30 8L29 8L29 9L30 9L30 10L28 10L28 9L27 9L27 10L28 10L28 11L30 11L30 12L33 12L33 11L30 11L30 10L32 10L32 9L31 9L31 8L32 8L32 7L33 7L33 10L34 10L34 12L35 12L35 10L34 10L34 7L35 7L35 5ZM17 6L17 7L18 7L18 6ZM24 6L24 7L25 7L25 6ZM33 6L33 7L34 7L34 6ZM40 6L40 7L41 7L41 6ZM14 8L14 9L15 9L15 10L17 10L17 9L15 9L15 8ZM39 8L39 9L41 9L41 8ZM48 8L48 9L46 9L46 10L48 10L48 11L49 11L49 10L48 10L48 9L49 9L49 8ZM4 9L4 10L5 10L5 9ZM6 9L6 10L8 10L8 9ZM24 9L24 10L25 10L25 9ZM1 10L1 11L3 11L3 12L4 12L4 11L3 11L3 10ZM10 10L10 11L9 11L9 12L10 12L10 11L12 11L12 10ZM6 11L6 12L7 12L7 11ZM15 11L15 12L17 12L17 11ZM26 12L26 13L25 13L25 17L23 17L23 16L24 16L24 15L23 15L23 16L22 16L22 17L23 17L23 18L25 18L25 19L24 19L24 20L23 20L23 19L22 19L22 18L21 18L21 19L20 19L20 21L21 21L21 22L20 22L20 23L19 23L19 25L20 25L20 26L19 26L19 27L18 27L18 30L17 30L17 31L18 31L18 32L16 32L16 35L15 35L15 34L13 34L13 33L10 33L10 34L8 34L8 35L7 35L7 34L6 34L6 35L5 35L5 36L6 36L6 37L7 37L7 36L8 36L8 37L9 37L9 36L10 36L10 35L11 35L11 34L12 34L12 36L13 36L13 35L14 35L14 36L16 36L16 38L18 38L18 39L16 39L16 40L17 40L17 41L18 41L18 40L21 40L21 37L20 37L20 35L22 35L22 39L23 39L23 37L24 37L24 36L27 36L27 39L28 39L28 40L29 40L29 39L30 39L30 38L31 38L31 39L32 39L32 38L31 38L31 37L32 37L32 36L33 36L33 35L35 35L35 36L34 36L34 37L35 37L35 36L36 36L36 37L37 37L37 36L38 36L38 35L39 35L39 34L37 34L37 36L36 36L36 34L33 34L33 33L36 33L36 32L37 32L37 33L38 33L38 32L37 32L37 30L38 30L38 31L39 31L39 30L38 30L38 29L37 29L37 28L36 28L36 26L37 26L37 24L38 24L38 23L39 23L39 22L40 22L40 21L41 21L41 20L40 20L40 19L37 19L37 18L36 18L36 17L37 17L37 16L36 16L36 15L37 15L37 14L38 14L38 12L36 12L36 13L35 13L35 14L34 14L34 13L32 13L32 14L31 14L31 13L29 13L29 12ZM17 13L17 14L16 14L16 15L17 15L17 14L19 14L19 13ZM26 13L26 17L25 17L25 18L27 18L27 17L28 17L28 20L27 20L27 19L25 19L25 21L23 21L23 20L22 20L22 19L21 19L21 21L23 21L23 22L27 22L27 21L29 21L29 19L30 19L30 20L31 20L31 22L30 22L30 23L31 23L31 24L32 24L32 25L33 25L33 28L32 28L32 27L31 27L31 26L29 26L29 25L30 25L30 24L29 24L29 22L28 22L28 23L27 23L27 24L28 24L28 25L27 25L27 26L28 26L28 27L27 27L27 28L26 28L26 29L27 29L27 28L28 28L28 30L26 30L26 31L28 31L28 32L27 32L27 33L28 33L28 32L29 32L29 33L30 33L30 31L31 31L31 32L36 32L36 30L35 30L35 27L34 27L34 26L36 26L36 25L34 25L34 23L33 23L33 22L35 22L35 21L36 21L36 20L37 20L37 19L36 19L36 18L34 18L34 17L33 17L33 16L34 16L34 14L32 14L32 15L31 15L31 14L27 14L27 13ZM35 14L35 15L36 15L36 14ZM47 14L47 15L49 15L49 14ZM28 15L28 17L29 17L29 18L30 18L30 19L32 19L32 20L34 20L34 18L32 18L32 16L33 16L33 15L32 15L32 16L31 16L31 18L30 18L30 17L29 17L29 16L30 16L30 15ZM35 16L35 17L36 17L36 16ZM44 16L44 17L45 17L45 16ZM46 18L46 19L45 19L45 20L44 20L44 21L43 21L43 22L46 22L46 20L47 20L47 18ZM6 20L6 21L7 21L7 20ZM39 20L39 21L37 21L37 23L35 23L35 24L37 24L37 23L38 23L38 22L39 22L39 21L40 21L40 20ZM18 21L18 22L17 22L17 23L18 23L18 22L19 22L19 21ZM32 21L32 22L31 22L31 23L32 23L32 24L33 24L33 23L32 23L32 22L33 22L33 21ZM12 22L12 23L13 23L13 22ZM5 23L5 26L8 26L8 23ZM20 23L20 24L22 24L22 23ZM23 23L23 26L26 26L26 23ZM41 23L41 26L44 26L44 23ZM6 24L6 25L7 25L7 24ZM24 24L24 25L25 25L25 24ZM42 24L42 25L43 25L43 24ZM17 25L17 26L18 26L18 25ZM21 26L21 27L20 27L20 28L19 28L19 29L20 29L20 30L22 30L22 29L24 29L24 30L23 30L23 31L19 31L19 30L18 30L18 31L19 31L19 32L18 32L18 34L17 34L17 35L16 35L16 36L18 36L18 38L20 38L20 37L19 37L19 35L20 35L20 32L21 32L21 33L22 33L22 34L24 34L24 35L27 35L27 36L28 36L28 38L30 38L30 37L31 37L31 36L32 36L32 35L31 35L31 34L32 34L32 33L31 33L31 34L29 34L29 36L28 36L28 34L26 34L26 32L25 32L25 34L24 34L24 33L22 33L22 32L24 32L24 30L25 30L25 28L24 28L24 27L22 27L22 26ZM38 26L38 27L39 27L39 26ZM47 26L47 27L48 27L48 26ZM11 27L11 28L12 28L12 27ZM16 27L16 29L17 29L17 27ZM28 27L28 28L29 28L29 30L31 30L31 31L32 31L32 28L31 28L31 27L30 27L30 28L29 28L29 27ZM42 27L42 28L43 28L43 27ZM30 28L30 29L31 29L31 28ZM33 28L33 29L34 29L34 28ZM8 29L8 30L11 30L11 29ZM6 30L6 31L7 31L7 30ZM33 30L33 31L35 31L35 30ZM48 30L48 32L43 32L43 33L49 33L49 30ZM0 34L0 35L1 35L1 34ZM18 34L18 35L19 35L19 34ZM45 34L45 35L46 35L46 34ZM6 35L6 36L7 36L7 35ZM8 35L8 36L9 36L9 35ZM30 35L30 36L31 36L31 35ZM40 35L40 36L41 36L41 35ZM0 36L0 38L1 38L1 40L0 40L0 41L3 41L3 40L4 40L4 39L2 39L2 38L3 38L3 37L1 37L1 36ZM10 37L10 38L11 38L11 39L13 39L13 38L14 38L14 39L15 39L15 38L14 38L14 37L13 37L13 38L11 38L11 37ZM47 38L47 39L49 39L49 38ZM36 40L36 41L35 41L35 42L37 42L37 41L38 41L38 40ZM14 41L14 42L12 42L12 44L13 44L13 43L14 43L14 42L15 42L15 44L16 44L16 43L17 43L17 42L15 42L15 41ZM23 41L23 44L26 44L26 41ZM33 41L33 42L34 42L34 41ZM41 41L41 44L44 44L44 41ZM24 42L24 43L25 43L25 42ZM42 42L42 43L43 43L43 42ZM47 42L47 43L49 43L49 42ZM34 43L34 44L33 44L33 45L34 45L34 44L35 44L35 43ZM38 45L38 46L37 46L37 47L38 47L38 46L39 46L39 47L40 47L40 46L41 46L41 45L40 45L40 46L39 46L39 45ZM43 45L43 46L42 46L42 47L43 47L43 46L44 46L44 47L45 47L45 48L48 48L48 47L47 47L47 46L46 46L46 47L45 47L45 46L44 46L44 45ZM15 46L15 47L16 47L16 48L17 48L17 46ZM24 46L24 47L23 47L23 48L24 48L24 49L25 49L25 48L26 48L26 47L25 47L25 46ZM24 47L24 48L25 48L25 47ZM0 0L0 7L7 7L7 0ZM1 1L1 6L6 6L6 1ZM2 2L2 5L5 5L5 2ZM42 0L42 7L49 7L49 0ZM43 1L43 6L48 6L48 1ZM44 2L44 5L47 5L47 2ZM0 42L0 49L7 49L7 42ZM1 43L1 48L6 48L6 43ZM2 44L2 47L5 47L5 44Z" fill="#000000"/></g></g></svg>
