<?xml version="1.0" encoding="UTF-8"?>
<svg xmlns="http://www.w3.org/2000/svg" version="1.1" width="300" height="300" viewBox="0 0 300 300"><rect x="0" y="0" width="300" height="300" fill="#ffffff"/><g transform="scale(8.108)"><g transform="translate(0,0)"><path fill-rule="evenodd" d="M9 0L9 1L8 1L8 3L9 3L9 2L10 2L10 0ZM11 0L11 3L10 3L10 4L9 4L9 6L8 6L8 7L9 7L9 8L10 8L10 7L11 7L11 9L9 9L9 10L8 10L8 9L7 9L7 8L5 8L5 9L7 9L7 10L6 10L6 11L5 11L5 10L4 10L4 8L1 8L1 9L0 9L0 10L4 10L4 11L5 11L5 12L4 12L4 13L3 13L3 11L0 11L0 15L1 15L1 16L0 16L0 17L1 17L1 18L0 18L0 19L1 19L1 20L0 20L0 22L1 22L1 20L2 20L2 21L3 21L3 20L4 20L4 22L2 22L2 23L3 23L3 24L2 24L2 26L1 26L1 27L0 27L0 28L1 28L1 27L3 27L3 28L2 28L2 29L7 29L7 28L8 28L8 27L10 27L10 24L9 24L9 23L11 23L11 25L12 25L12 26L13 26L13 25L14 25L14 27L12 27L12 30L11 30L11 29L10 29L10 31L12 31L12 32L11 32L11 33L10 33L10 32L9 32L9 31L8 31L8 32L9 32L9 33L8 33L8 36L9 36L9 37L10 37L10 36L11 36L11 37L14 37L14 35L15 35L15 37L16 37L16 36L17 36L17 37L18 37L18 35L15 35L15 34L16 34L16 33L17 33L17 34L19 34L19 33L21 33L21 34L22 34L22 33L21 33L21 32L22 32L22 31L23 31L23 30L24 30L24 32L25 32L25 30L24 30L24 29L26 29L26 28L27 28L27 30L26 30L26 31L27 31L27 30L28 30L28 33L25 33L25 35L23 35L23 37L25 37L25 35L26 35L26 34L27 34L27 35L28 35L28 34L29 34L29 33L30 33L30 35L32 35L32 36L29 36L29 37L32 37L32 36L33 36L33 37L37 37L37 36L35 36L35 35L36 35L36 34L35 34L35 33L37 33L37 32L35 32L35 33L34 33L34 32L33 32L33 30L34 30L34 31L35 31L35 30L36 30L36 31L37 31L37 29L33 29L33 28L31 28L31 27L30 27L30 26L29 26L29 25L28 25L28 26L26 26L26 25L25 25L25 27L26 27L26 28L24 28L24 27L23 27L23 28L22 28L22 29L21 29L21 28L20 28L20 29L21 29L21 30L19 30L19 28L18 28L18 27L17 27L17 28L16 28L16 27L15 27L15 25L16 25L16 26L17 26L17 25L16 25L16 24L17 24L17 23L21 23L21 22L22 22L22 21L23 21L23 20L24 20L24 22L23 22L23 23L25 23L25 24L27 24L27 21L26 21L26 20L24 20L24 19L23 19L23 20L21 20L21 21L19 21L19 20L20 20L20 19L21 19L21 17L20 17L20 15L19 15L19 14L18 14L18 15L19 15L19 20L18 20L18 22L17 22L17 20L16 20L16 19L18 19L18 18L16 18L16 19L15 19L15 18L14 18L14 19L15 19L15 20L14 20L14 21L13 21L13 20L12 20L12 21L11 21L11 19L10 19L10 20L8 20L8 19L9 19L9 18L10 18L10 17L8 17L8 16L6 16L6 17L5 17L5 18L6 18L6 19L7 19L7 20L5 20L5 19L4 19L4 18L3 18L3 17L4 17L4 16L2 16L2 15L3 15L3 14L4 14L4 13L5 13L5 12L6 12L6 13L7 13L7 14L6 14L6 15L9 15L9 16L12 16L12 15L14 15L14 16L15 16L15 17L18 17L18 16L16 16L16 15L17 15L17 13L16 13L16 12L17 12L17 11L18 11L18 9L16 9L16 8L21 8L21 9L20 9L20 11L19 11L19 12L18 12L18 13L20 13L20 12L21 12L21 13L22 13L22 15L21 15L21 16L23 16L23 17L25 17L25 18L26 18L26 17L27 17L27 20L28 20L28 24L30 24L30 25L32 25L32 26L35 26L35 27L34 27L34 28L36 28L36 26L37 26L37 25L36 25L36 24L37 24L37 21L36 21L36 19L37 19L37 17L35 17L35 16L34 16L34 15L33 15L33 17L34 17L34 18L32 18L32 17L30 17L30 18L29 18L29 16L32 16L32 14L33 14L33 11L34 11L34 12L35 12L35 13L36 13L36 14L37 14L37 12L36 12L36 11L34 11L34 9L36 9L36 8L34 8L34 9L30 9L30 10L28 10L28 9L27 9L27 8L28 8L28 7L29 7L29 6L28 6L28 7L27 7L27 5L28 5L28 4L29 4L29 3L26 3L26 4L25 4L25 2L26 2L26 0L25 0L25 2L22 2L22 0L21 0L21 2L19 2L19 0L17 0L17 1L18 1L18 4L17 4L17 5L15 5L15 3L14 3L14 2L15 2L15 1L12 1L12 0ZM28 0L28 2L29 2L29 0ZM12 2L12 3L13 3L13 2ZM16 2L16 3L17 3L17 2ZM21 2L21 3L20 3L20 4L19 4L19 5L20 5L20 6L19 6L19 7L20 7L20 6L21 6L21 8L22 8L22 10L21 10L21 12L22 12L22 13L23 13L23 16L26 16L26 15L24 15L24 14L26 14L26 13L27 13L27 15L28 15L28 16L27 16L27 17L28 17L28 16L29 16L29 15L28 15L28 14L30 14L30 12L32 12L32 11L33 11L33 10L30 10L30 12L28 12L28 10L27 10L27 9L25 9L25 10L24 10L24 11L23 11L23 8L24 8L24 6L25 6L25 7L26 7L26 5L24 5L24 6L23 6L23 5L22 5L22 4L23 4L23 3L22 3L22 2ZM10 4L10 5L12 5L12 6L11 6L11 7L12 7L12 6L13 6L13 7L14 7L14 6L15 6L15 8L16 8L16 6L15 6L15 5L14 5L14 6L13 6L13 4ZM17 5L17 7L18 7L18 5ZM21 5L21 6L22 6L22 8L23 8L23 6L22 6L22 5ZM9 6L9 7L10 7L10 6ZM12 8L12 9L11 9L11 10L12 10L12 11L10 11L10 12L13 12L13 13L12 13L12 14L13 14L13 13L14 13L14 11L13 11L13 10L14 10L14 9L13 9L13 8ZM7 10L7 11L6 11L6 12L7 12L7 13L8 13L8 14L9 14L9 11L8 11L8 10ZM15 10L15 11L17 11L17 10ZM26 10L26 11L25 11L25 13L26 13L26 12L27 12L27 13L28 13L28 12L27 12L27 10ZM7 11L7 12L8 12L8 11ZM23 12L23 13L24 13L24 12ZM10 13L10 15L11 15L11 13ZM15 13L15 14L14 14L14 15L16 15L16 13ZM31 13L31 14L32 14L32 13ZM1 14L1 15L2 15L2 14ZM36 15L36 16L37 16L37 15ZM1 16L1 17L2 17L2 16ZM6 17L6 18L7 18L7 17ZM28 18L28 19L29 19L29 20L30 20L30 21L29 21L29 22L30 22L30 24L32 24L32 25L34 25L34 23L35 23L35 24L36 24L36 21L35 21L35 19L36 19L36 18L35 18L35 19L33 19L33 20L34 20L34 21L32 21L32 20L31 20L31 19L32 19L32 18L31 18L31 19L29 19L29 18ZM7 20L7 21L6 21L6 22L7 22L7 23L4 23L4 24L3 24L3 25L5 25L5 27L4 27L4 26L3 26L3 27L4 27L4 28L5 28L5 27L6 27L6 28L7 28L7 27L8 27L8 26L7 26L7 25L8 25L8 24L7 24L7 23L8 23L8 20ZM14 21L14 22L12 22L12 24L13 24L13 23L14 23L14 25L15 25L15 24L16 24L16 23L17 23L17 22L15 22L15 21ZM25 21L25 23L26 23L26 21ZM14 22L14 23L15 23L15 22ZM32 22L32 23L33 23L33 22ZM0 24L0 25L1 25L1 24ZM6 24L6 25L7 25L7 24ZM18 24L18 26L19 26L19 25L20 25L20 27L22 27L22 26L23 26L23 25L20 25L20 24ZM6 26L6 27L7 27L7 26ZM14 27L14 28L13 28L13 31L15 31L15 33L16 33L16 31L17 31L17 32L18 32L18 31L19 31L19 30L15 30L15 27ZM27 27L27 28L28 28L28 27ZM29 27L29 28L30 28L30 27ZM17 28L17 29L18 29L18 28ZM8 29L8 30L9 30L9 29ZM29 29L29 32L32 32L32 29ZM21 30L21 31L20 31L20 32L21 32L21 31L22 31L22 30ZM30 30L30 31L31 31L31 30ZM13 32L13 34L12 34L12 35L14 35L14 32ZM31 33L31 34L32 34L32 33ZM10 34L10 35L11 35L11 34ZM34 34L34 35L35 35L35 34ZM19 35L19 36L20 36L20 37L22 37L22 36L20 36L20 35ZM26 36L26 37L27 37L27 36ZM0 0L0 7L7 7L7 0ZM1 1L1 6L6 6L6 1ZM2 2L2 5L5 5L5 2ZM30 0L30 7L37 7L37 0ZM31 1L31 6L36 6L36 1ZM32 2L32 5L35 5L35 2ZM0 30L0 37L7 37L7 30ZM1 31L1 36L6 36L6 31ZM2 32L2 35L5 35L5 32Z" fill="#000000"/></g></g></svg>
