<?xml version="1.0" encoding="UTF-8"?>
<svg xmlns="http://www.w3.org/2000/svg" version="1.1" width="300" height="300" viewBox="0 0 300 300"><rect x="0" y="0" width="300" height="300" fill="#ffffff"/><g transform="scale(8.108)"><g transform="translate(0,0)"><path fill-rule="evenodd" d="M9 0L9 1L8 1L8 3L9 3L9 4L11 4L11 5L10 5L10 7L11 7L11 6L12 6L12 10L11 10L11 8L10 8L10 12L9 12L9 16L12 16L12 15L14 15L14 16L13 16L13 22L12 22L12 21L11 21L11 22L12 22L12 23L10 23L10 22L8 22L8 21L7 21L7 20L8 20L8 19L10 19L10 20L9 20L9 21L10 21L10 20L11 20L11 19L10 19L10 17L7 17L7 16L8 16L8 13L7 13L7 12L6 12L6 11L9 11L9 9L7 9L7 8L5 8L5 9L4 9L4 8L1 8L1 9L0 9L0 11L2 11L2 14L1 14L1 15L0 15L0 16L1 16L1 17L0 17L0 22L2 22L2 20L3 20L3 22L4 22L4 21L5 21L5 20L6 20L6 21L7 21L7 22L5 22L5 23L2 23L2 24L5 24L5 23L7 23L7 24L6 24L6 25L5 25L5 26L6 26L6 27L8 27L8 28L9 28L9 29L8 29L8 30L9 30L9 29L10 29L10 31L11 31L11 32L12 32L12 33L10 33L10 32L9 32L9 31L8 31L8 32L9 32L9 33L8 33L8 36L9 36L9 37L15 37L15 36L16 36L16 37L17 37L17 36L18 36L18 37L19 37L19 36L20 36L20 37L22 37L22 36L20 36L20 35L19 35L19 31L18 31L18 32L17 32L17 36L16 36L16 34L15 34L15 35L12 35L12 34L14 34L14 33L13 33L13 30L14 30L14 31L16 31L16 30L18 30L18 27L19 27L19 26L21 26L21 27L22 27L22 25L23 25L23 23L25 23L25 24L24 24L24 27L26 27L26 28L25 28L25 29L24 29L24 28L22 28L22 29L20 29L20 28L19 28L19 30L20 30L20 31L21 31L21 32L20 32L20 33L21 33L21 34L22 34L22 33L21 33L21 32L22 32L22 31L23 31L23 32L25 32L25 29L26 29L26 31L27 31L27 32L28 32L28 33L30 33L30 36L29 36L29 37L31 37L31 36L32 36L32 35L33 35L33 37L37 37L37 36L35 36L35 35L36 35L36 34L34 34L34 35L33 35L33 33L34 33L34 32L33 32L33 30L34 30L34 31L35 31L35 30L36 30L36 31L37 31L37 29L36 29L36 28L37 28L37 27L36 27L36 26L37 26L37 25L36 25L36 24L37 24L37 21L36 21L36 19L37 19L37 17L35 17L35 16L34 16L34 15L35 15L35 13L34 13L34 14L33 14L33 11L34 11L34 12L36 12L36 14L37 14L37 11L36 11L36 8L34 8L34 9L30 9L30 10L33 10L33 11L32 11L32 13L31 13L31 12L30 12L30 14L29 14L29 15L27 15L27 13L28 13L28 12L29 12L29 10L28 10L28 9L27 9L27 5L28 5L28 4L29 4L29 2L27 2L27 3L26 3L26 4L25 4L25 2L26 2L26 1L27 1L27 0L25 0L25 2L22 2L22 4L23 4L23 6L22 6L22 8L21 8L21 4L20 4L20 3L21 3L21 2L19 2L19 0L18 0L18 2L17 2L17 0L16 0L16 2L15 2L15 0L13 0L13 1L12 1L12 0L11 0L11 3L10 3L10 0ZM13 1L13 2L12 2L12 4L14 4L14 3L15 3L15 4L16 4L16 5L18 5L18 6L17 6L17 7L16 7L16 6L15 6L15 5L14 5L14 6L13 6L13 7L14 7L14 6L15 6L15 8L16 8L16 9L17 9L17 8L18 8L18 9L20 9L20 8L18 8L18 6L19 6L19 7L20 7L20 6L19 6L19 4L18 4L18 3L19 3L19 2L18 2L18 3L17 3L17 4L16 4L16 3L15 3L15 2L14 2L14 1ZM24 5L24 6L23 6L23 8L24 8L24 10L27 10L27 11L26 11L26 13L25 13L25 11L24 11L24 12L23 12L23 10L20 10L20 11L19 11L19 10L18 10L18 11L17 11L17 10L15 10L15 11L14 11L14 12L15 12L15 11L17 11L17 12L18 12L18 11L19 11L19 12L22 12L22 13L21 13L21 15L22 15L22 13L23 13L23 15L25 15L25 16L26 16L26 15L25 15L25 14L26 14L26 13L27 13L27 12L28 12L28 10L27 10L27 9L25 9L25 8L24 8L24 6L25 6L25 7L26 7L26 5ZM8 6L8 7L9 7L9 6ZM28 6L28 7L29 7L29 6ZM6 9L6 10L7 10L7 9ZM13 9L13 10L14 10L14 9ZM34 9L34 11L35 11L35 9ZM2 10L2 11L3 11L3 12L4 12L4 11L5 11L5 10ZM11 11L11 14L10 14L10 15L12 15L12 13L13 13L13 14L14 14L14 15L15 15L15 17L14 17L14 19L16 19L16 20L14 20L14 21L15 21L15 22L16 22L16 23L14 23L14 22L13 22L13 23L14 23L14 25L15 25L15 27L16 27L16 29L15 29L15 30L16 30L16 29L17 29L17 26L18 26L18 22L17 22L17 21L16 21L16 20L18 20L18 19L16 19L16 18L17 18L17 17L16 17L16 16L18 16L18 18L19 18L19 16L20 16L20 17L21 17L21 19L20 19L20 20L19 20L19 21L20 21L20 23L19 23L19 25L20 25L20 24L21 24L21 25L22 25L22 23L23 23L23 22L24 22L24 20L26 20L26 21L25 21L25 23L26 23L26 21L27 21L27 24L25 24L25 25L26 25L26 26L28 26L28 25L29 25L29 27L30 27L30 28L33 28L33 29L35 29L35 28L34 28L34 27L35 27L35 26L32 26L32 25L34 25L34 22L35 22L35 24L36 24L36 21L35 21L35 19L36 19L36 18L35 18L35 19L34 19L34 20L33 20L33 21L32 21L32 19L30 19L30 18L28 18L28 19L27 19L27 17L28 17L28 16L27 16L27 17L26 17L26 18L25 18L25 17L23 17L23 16L20 16L20 13L17 13L17 14L15 14L15 13L13 13L13 12L12 12L12 11ZM5 12L5 13L4 13L4 14L2 14L2 15L1 15L1 16L3 16L3 15L4 15L4 18L3 18L3 17L1 17L1 18L3 18L3 19L5 19L5 17L6 17L6 18L7 18L7 17L6 17L6 16L7 16L7 15L6 15L6 14L7 14L7 13L6 13L6 12ZM18 14L18 15L19 15L19 14ZM31 14L31 15L32 15L32 16L30 16L30 17L32 17L32 18L34 18L34 17L33 17L33 14ZM36 15L36 16L37 16L37 15ZM15 17L15 18L16 18L16 17ZM1 19L1 20L2 20L2 19ZM6 19L6 20L7 20L7 19ZM22 19L22 20L20 20L20 21L23 21L23 20L24 20L24 19ZM28 19L28 22L29 22L29 23L28 23L28 24L27 24L27 25L28 25L28 24L30 24L30 25L32 25L32 23L31 23L31 24L30 24L30 21L29 21L29 19ZM7 22L7 23L8 23L8 24L7 24L7 25L6 25L6 26L7 26L7 25L8 25L8 24L9 24L9 23L8 23L8 22ZM0 24L0 25L1 25L1 24ZM10 24L10 25L9 25L9 26L8 26L8 27L9 27L9 28L10 28L10 27L12 27L12 29L14 29L14 26L12 26L12 25L11 25L11 24ZM2 25L2 26L1 26L1 27L0 27L0 28L1 28L1 27L3 27L3 28L2 28L2 29L5 29L5 28L4 28L4 27L3 27L3 26L4 26L4 25ZM16 25L16 26L17 26L17 25ZM27 27L27 28L28 28L28 27ZM6 28L6 29L7 29L7 28ZM27 29L27 31L28 31L28 29ZM29 29L29 32L32 32L32 29ZM21 30L21 31L22 31L22 30ZM23 30L23 31L24 31L24 30ZM30 30L30 31L31 31L31 30ZM15 32L15 33L16 33L16 32ZM35 32L35 33L37 33L37 32ZM9 33L9 34L10 34L10 33ZM25 33L25 35L23 35L23 37L25 37L25 35L26 35L26 34L27 34L27 33ZM31 34L31 35L32 35L32 34ZM9 35L9 36L10 36L10 35ZM18 35L18 36L19 36L19 35ZM27 35L27 36L26 36L26 37L28 37L28 35ZM0 0L0 7L7 7L7 0ZM1 1L1 6L6 6L6 1ZM2 2L2 5L5 5L5 2ZM30 0L30 7L37 7L37 0ZM31 1L31 6L36 6L36 1ZM32 2L32 5L35 5L35 2ZM0 30L0 37L7 37L7 30ZM1 31L1 36L6 36L6 31ZM2 32L2 35L5 35L5 32Z" fill="#000000"/></g></g></svg>
