<?xml version="1.0" encoding="UTF-8"?>
<svg xmlns="http://www.w3.org/2000/svg" version="1.1" width="300" height="300" viewBox="0 0 300 300"><rect x="0" y="0" width="300" height="300" fill="#ffffff"/><g transform="scale(8.108)"><g transform="translate(0,0)"><path fill-rule="evenodd" d="M8 0L8 5L10 5L10 7L11 7L11 8L12 8L12 9L8 9L8 8L9 8L9 6L8 6L8 8L6 8L6 9L5 9L5 8L4 8L4 9L3 9L3 8L1 8L1 9L2 9L2 10L4 10L4 11L1 11L1 10L0 10L0 12L1 12L1 13L0 13L0 14L1 14L1 13L2 13L2 12L3 12L3 14L4 14L4 11L7 11L7 12L6 12L6 13L7 13L7 14L6 14L6 15L5 15L5 16L4 16L4 17L2 17L2 15L0 15L0 16L1 16L1 17L0 17L0 21L1 21L1 22L0 22L0 23L1 23L1 22L2 22L2 24L3 24L3 25L4 25L4 26L5 26L5 27L3 27L3 28L2 28L2 27L1 27L1 26L2 26L2 25L1 25L1 24L0 24L0 25L1 25L1 26L0 26L0 27L1 27L1 28L0 28L0 29L1 29L1 28L2 28L2 29L4 29L4 28L5 28L5 29L7 29L7 28L6 28L6 27L9 27L9 28L10 28L10 29L8 29L8 31L9 31L9 32L8 32L8 33L10 33L10 34L8 34L8 36L9 36L9 35L10 35L10 37L13 37L13 35L15 35L15 36L16 36L16 37L18 37L18 36L17 36L17 34L16 34L16 35L15 35L15 34L14 34L14 33L18 33L18 32L19 32L19 31L20 31L20 30L21 30L21 31L22 31L22 30L21 30L21 29L18 29L18 30L19 30L19 31L18 31L18 32L17 32L17 28L16 28L16 27L13 27L13 28L10 28L10 27L11 27L11 26L13 26L13 25L15 25L15 26L17 26L17 25L18 25L18 28L20 28L20 27L19 27L19 26L20 26L20 24L18 24L18 23L17 23L17 22L18 22L18 21L17 21L17 20L16 20L16 19L18 19L18 20L19 20L19 23L20 23L20 20L21 20L21 25L22 25L22 21L23 21L23 22L24 22L24 21L23 21L23 20L24 20L24 19L23 19L23 20L22 20L22 18L24 18L24 17L23 17L23 12L24 12L24 11L25 11L25 14L26 14L26 13L27 13L27 14L28 14L28 16L29 16L29 18L30 18L30 20L29 20L29 19L28 19L28 20L29 20L29 22L28 22L28 25L27 25L27 18L26 18L26 17L27 17L27 16L26 16L26 15L25 15L25 18L26 18L26 19L25 19L25 20L26 20L26 21L25 21L25 22L26 22L26 23L25 23L25 24L26 24L26 26L27 26L27 27L25 27L25 26L24 26L24 27L25 27L25 29L26 29L26 28L27 28L27 31L23 31L23 32L24 32L24 33L23 33L23 34L22 34L22 33L21 33L21 34L22 34L22 35L21 35L21 36L22 36L22 37L25 37L25 35L26 35L26 34L27 34L27 31L28 31L28 37L29 37L29 36L30 36L30 33L31 33L31 37L34 37L34 33L33 33L33 28L32 28L32 27L33 27L33 26L32 26L32 25L33 25L33 24L30 24L30 25L31 25L31 28L30 28L30 27L29 27L29 22L30 22L30 23L31 23L31 19L32 19L32 17L31 17L31 16L29 16L29 15L30 15L30 14L31 14L31 10L30 10L30 9L31 9L31 8L30 8L30 9L29 9L29 10L30 10L30 14L28 14L28 13L29 13L29 12L28 12L28 11L27 11L27 10L28 10L28 7L29 7L29 2L28 2L28 0L25 0L25 1L26 1L26 2L25 2L25 5L26 5L26 7L27 7L27 10L26 10L26 9L25 9L25 6L24 6L24 8L22 8L22 7L23 7L23 5L21 5L21 4L20 4L20 5L21 5L21 6L20 6L20 7L21 7L21 8L20 8L20 10L22 10L22 11L20 11L20 12L19 12L19 11L17 11L17 9L18 9L18 10L19 10L19 9L18 9L18 7L19 7L19 6L18 6L18 5L19 5L19 4L18 4L18 5L17 5L17 3L16 3L16 2L18 2L18 3L19 3L19 2L22 2L22 3L24 3L24 2L23 2L23 0L22 0L22 1L21 1L21 0L20 0L20 1L19 1L19 0L18 0L18 1L17 1L17 0L16 0L16 2L15 2L15 1L12 1L12 0ZM9 1L9 2L10 2L10 3L9 3L9 4L10 4L10 3L11 3L11 5L12 5L12 3L11 3L11 1ZM18 1L18 2L19 2L19 1ZM14 2L14 3L13 3L13 4L14 4L14 3L15 3L15 2ZM15 4L15 5L14 5L14 6L13 6L13 7L12 7L12 6L11 6L11 7L12 7L12 8L13 8L13 9L12 9L12 11L11 11L11 10L10 10L10 11L8 11L8 15L9 15L9 14L10 14L10 15L12 15L12 14L11 14L11 13L12 13L12 12L13 12L13 13L14 13L14 14L15 14L15 13L16 13L16 15L15 15L15 17L14 17L14 16L13 16L13 17L12 17L12 16L11 16L11 17L12 17L12 18L10 18L10 16L8 16L8 17L9 17L9 18L8 18L8 19L6 19L6 18L7 18L7 17L4 17L4 18L3 18L3 19L2 19L2 20L1 20L1 21L2 21L2 22L3 22L3 23L5 23L5 24L4 24L4 25L5 25L5 26L7 26L7 25L8 25L8 26L9 26L9 27L10 27L10 26L9 26L9 25L11 25L11 24L13 24L13 23L14 23L14 24L15 24L15 25L16 25L16 24L17 24L17 23L16 23L16 20L15 20L15 19L16 19L16 18L17 18L17 17L18 17L18 18L19 18L19 17L22 17L22 16L19 16L19 17L18 17L18 16L17 16L17 15L19 15L19 13L17 13L17 11L16 11L16 10L15 10L15 13L14 13L14 9L17 9L17 8L15 8L15 7L16 7L16 4ZM14 6L14 7L15 7L15 6ZM17 6L17 7L18 7L18 6ZM21 6L21 7L22 7L22 6ZM27 6L27 7L28 7L28 6ZM32 8L32 10L33 10L33 11L32 11L32 12L33 12L33 14L32 14L32 15L33 15L33 14L34 14L34 13L35 13L35 12L36 12L36 15L35 15L35 18L33 18L33 19L35 19L35 21L33 21L33 23L35 23L35 25L34 25L34 26L35 26L35 25L36 25L36 27L37 27L37 25L36 25L36 24L37 24L37 23L36 23L36 21L37 21L37 20L36 20L36 19L37 19L37 16L36 16L36 15L37 15L37 12L36 12L36 11L37 11L37 8ZM4 9L4 10L5 10L5 9ZM6 9L6 10L7 10L7 9ZM23 9L23 11L24 11L24 9ZM34 9L34 10L35 10L35 11L34 11L34 12L35 12L35 11L36 11L36 9ZM25 10L25 11L26 11L26 12L27 12L27 13L28 13L28 12L27 12L27 11L26 11L26 10ZM9 12L9 13L11 13L11 12ZM20 12L20 15L22 15L22 14L21 14L21 13L22 13L22 12ZM6 15L6 16L7 16L7 15ZM16 16L16 17L15 17L15 18L16 18L16 17L17 17L17 16ZM1 17L1 18L2 18L2 17ZM13 18L13 19L14 19L14 18ZM20 18L20 19L19 19L19 20L20 20L20 19L21 19L21 18ZM3 19L3 21L4 21L4 20L5 20L5 21L8 21L8 22L10 22L10 23L9 23L9 24L8 24L8 25L9 25L9 24L10 24L10 23L11 23L11 22L12 22L12 23L13 23L13 21L10 21L10 20L11 20L11 19L8 19L8 20L6 20L6 19ZM14 20L14 21L15 21L15 20ZM5 22L5 23L7 23L7 22ZM14 22L14 23L15 23L15 22ZM23 23L23 24L24 24L24 23ZM6 24L6 25L7 25L7 24ZM21 26L21 27L22 27L22 26ZM27 27L27 28L28 28L28 27ZM34 27L34 29L35 29L35 27ZM14 28L14 29L10 29L10 33L11 33L11 36L12 36L12 34L13 34L13 33L14 33L14 32L15 32L15 31L14 31L14 30L16 30L16 29L15 29L15 28ZM36 28L36 31L37 31L37 28ZM29 29L29 32L32 32L32 29ZM11 30L11 31L12 31L12 32L11 32L11 33L12 33L12 32L13 32L13 31L12 31L12 30ZM30 30L30 31L31 31L31 30ZM34 30L34 31L35 31L35 30ZM35 32L35 34L36 34L36 35L35 35L35 37L37 37L37 36L36 36L36 35L37 35L37 33L36 33L36 32ZM19 33L19 34L18 34L18 35L19 35L19 36L20 36L20 35L19 35L19 34L20 34L20 33ZM25 33L25 34L26 34L26 33ZM23 35L23 36L24 36L24 35ZM32 35L32 36L33 36L33 35ZM0 0L0 7L7 7L7 0ZM1 1L1 6L6 6L6 1ZM2 2L2 5L5 5L5 2ZM30 0L30 7L37 7L37 0ZM31 1L31 6L36 6L36 1ZM32 2L32 5L35 5L35 2ZM0 30L0 37L7 37L7 30ZM1 31L1 36L6 36L6 31ZM2 32L2 35L5 35L5 32Z" fill="#000000"/></g></g></svg>
