<?xml version="1.0" encoding="UTF-8"?>
<svg xmlns="http://www.w3.org/2000/svg" version="1.1" width="300" height="300" viewBox="0 0 300 300"><rect x="0" y="0" width="300" height="300" fill="#ffffff"/><g transform="scale(8.108)"><g transform="translate(0,0)"><path fill-rule="evenodd" d="M8 0L8 1L10 1L10 3L9 3L9 4L8 4L8 7L9 7L9 9L11 9L11 11L13 11L13 12L12 12L12 13L11 13L11 12L9 12L9 11L10 11L10 10L9 10L9 11L8 11L8 13L7 13L7 12L6 12L6 11L7 11L7 10L8 10L8 8L1 8L1 10L0 10L0 12L1 12L1 13L2 13L2 15L1 15L1 14L0 14L0 15L1 15L1 16L0 16L0 17L1 17L1 19L0 19L0 20L1 20L1 21L0 21L0 29L1 29L1 24L2 24L2 25L3 25L3 24L4 24L4 23L5 23L5 25L4 25L4 26L2 26L2 27L3 27L3 28L4 28L4 29L7 29L7 28L5 28L5 25L7 25L7 24L9 24L9 23L11 23L11 25L8 25L8 26L6 26L6 27L8 27L8 26L9 26L9 27L11 27L11 28L12 28L12 29L13 29L13 30L15 30L15 33L14 33L14 31L12 31L12 32L13 32L13 33L11 33L11 32L10 32L10 31L11 31L11 30L10 30L10 29L8 29L8 36L9 36L9 37L12 37L12 35L14 35L14 36L16 36L16 37L18 37L18 36L19 36L19 33L18 33L18 31L17 31L17 33L16 33L16 30L19 30L19 31L21 31L21 29L23 29L23 30L22 30L22 31L23 31L23 32L20 32L20 33L21 33L21 34L20 34L20 35L21 35L21 36L20 36L20 37L22 37L22 36L23 36L23 37L25 37L25 36L26 36L26 37L28 37L28 36L29 36L29 37L31 37L31 36L29 36L29 35L30 35L30 34L33 34L33 35L35 35L35 34L33 34L33 32L34 32L34 33L36 33L36 32L37 32L37 30L36 30L36 29L37 29L37 28L36 28L36 27L37 27L37 26L36 26L36 24L34 24L34 23L36 23L36 22L37 22L37 18L35 18L35 19L36 19L36 20L34 20L34 17L37 17L37 14L36 14L36 13L37 13L37 10L36 10L36 9L37 9L37 8L36 8L36 9L35 9L35 10L36 10L36 13L35 13L35 14L32 14L32 15L33 15L33 16L32 16L32 17L33 17L33 18L32 18L32 19L33 19L33 20L32 20L32 21L31 21L31 20L30 20L30 21L29 21L29 19L28 19L28 18L30 18L30 19L31 19L31 18L30 18L30 17L31 17L31 15L30 15L30 14L29 14L29 16L30 16L30 17L28 17L28 16L27 16L27 15L28 15L28 11L31 11L31 12L29 12L29 13L33 13L33 12L34 12L34 11L33 11L33 10L34 10L34 9L33 9L33 8L31 8L31 9L30 9L30 10L28 10L28 9L29 9L29 8L28 8L28 7L29 7L29 5L26 5L26 4L29 4L29 2L28 2L28 1L29 1L29 0L28 0L28 1L26 1L26 0L25 0L25 1L23 1L23 4L21 4L21 3L22 3L22 1L20 1L20 3L19 3L19 2L18 2L18 3L17 3L17 1L19 1L19 0L17 0L17 1L16 1L16 0L13 0L13 1L16 1L16 3L17 3L17 4L16 4L16 8L14 8L14 7L15 7L15 6L14 6L14 7L13 7L13 6L12 6L12 7L13 7L13 8L14 8L14 9L11 9L11 5L14 5L14 3L15 3L15 2L11 2L11 1L12 1L12 0L11 0L11 1L10 1L10 0ZM24 2L24 3L25 3L25 4L23 4L23 5L22 5L22 6L21 6L21 4L20 4L20 6L19 6L19 3L18 3L18 4L17 4L17 7L18 7L18 8L20 8L20 9L23 9L23 8L20 8L20 6L21 6L21 7L22 7L22 6L23 6L23 7L24 7L24 9L25 9L25 10L22 10L22 11L23 11L23 12L22 12L22 13L25 13L25 14L22 14L22 15L23 15L23 16L22 16L22 17L23 17L23 18L22 18L22 20L20 20L20 21L22 21L22 22L17 22L17 21L18 21L18 19L19 19L19 18L20 18L20 17L19 17L19 18L18 18L18 16L20 16L20 15L21 15L21 13L20 13L20 15L19 15L19 12L20 12L20 10L19 10L19 9L17 9L17 10L16 10L16 11L15 11L15 10L13 10L13 11L15 11L15 12L14 12L14 13L13 13L13 14L11 14L11 13L8 13L8 14L7 14L7 13L6 13L6 14L5 14L5 13L3 13L3 14L5 14L5 15L3 15L3 16L1 16L1 17L2 17L2 19L1 19L1 20L2 20L2 19L4 19L4 17L5 17L5 16L7 16L7 17L6 17L6 18L5 18L5 20L3 20L3 21L5 21L5 23L6 23L6 24L7 24L7 23L8 23L8 21L11 21L11 22L12 22L12 23L13 23L13 24L14 24L14 27L15 27L15 23L16 23L16 25L17 25L17 26L19 26L19 27L20 27L20 28L23 28L23 29L25 29L25 28L26 28L26 26L23 26L23 25L27 25L27 24L28 24L28 25L30 25L30 24L28 24L28 23L27 23L27 22L29 22L29 23L30 23L30 22L31 22L31 21L30 21L30 22L29 22L29 21L27 21L27 20L26 20L26 19L27 19L27 18L28 18L28 17L27 17L27 16L26 16L26 14L27 14L27 11L25 11L25 10L27 10L27 9L26 9L26 8L27 8L27 7L28 7L28 6L27 6L27 7L26 7L26 6L25 6L25 7L24 7L24 6L23 6L23 5L25 5L25 4L26 4L26 3L28 3L28 2L26 2L26 3L25 3L25 2ZM12 3L12 4L13 4L13 3ZM9 5L9 7L10 7L10 5ZM18 6L18 7L19 7L19 6ZM25 7L25 8L26 8L26 7ZM6 9L6 10L4 10L4 12L5 12L5 11L6 11L6 10L7 10L7 9ZM18 10L18 11L17 11L17 12L19 12L19 10ZM31 10L31 11L32 11L32 10ZM24 11L24 12L25 12L25 13L26 13L26 12L25 12L25 11ZM15 12L15 13L14 13L14 14L13 14L13 15L12 15L12 18L15 18L15 19L11 19L11 17L10 17L10 16L11 16L11 14L10 14L10 15L9 15L9 14L8 14L8 15L9 15L9 16L8 16L8 18L6 18L6 19L7 19L7 20L6 20L6 21L8 21L8 20L9 20L9 18L10 18L10 20L12 20L12 22L16 22L16 23L17 23L17 24L18 24L18 23L17 23L17 22L16 22L16 21L15 21L15 19L16 19L16 20L17 20L17 19L18 19L18 18L15 18L15 15L16 15L16 17L17 17L17 14L18 14L18 13L16 13L16 12ZM6 14L6 15L7 15L7 14ZM35 14L35 15L34 15L34 16L33 16L33 17L34 17L34 16L36 16L36 14ZM13 15L13 17L14 17L14 15ZM3 16L3 17L4 17L4 16ZM25 16L25 17L24 17L24 18L25 18L25 17L26 17L26 16ZM24 19L24 20L25 20L25 19ZM13 20L13 21L14 21L14 20ZM33 20L33 21L32 21L32 23L31 23L31 24L32 24L32 25L31 25L31 26L32 26L32 27L29 27L29 26L27 26L27 29L26 29L26 30L25 30L25 32L26 32L26 30L27 30L27 32L28 32L28 30L27 30L27 29L28 29L28 27L29 27L29 28L34 28L34 29L36 29L36 28L34 28L34 27L33 27L33 26L34 26L34 24L33 24L33 22L36 22L36 21L34 21L34 20ZM1 21L1 23L2 23L2 21ZM24 21L24 22L25 22L25 21ZM26 21L26 22L27 22L27 21ZM3 22L3 23L4 23L4 22ZM6 22L6 23L7 23L7 22ZM19 23L19 26L21 26L21 25L20 25L20 23ZM21 23L21 24L22 24L22 25L23 25L23 23ZM24 23L24 24L25 24L25 23ZM26 23L26 24L27 24L27 23ZM11 25L11 27L12 27L12 28L13 28L13 26L12 26L12 25ZM22 26L22 27L23 27L23 26ZM35 26L35 27L36 27L36 26ZM16 27L16 28L14 28L14 29L15 29L15 30L16 30L16 28L17 28L17 27ZM24 27L24 28L25 28L25 27ZM19 29L19 30L20 30L20 29ZM29 29L29 32L32 32L32 29ZM9 30L9 31L10 31L10 30ZM23 30L23 31L24 31L24 30ZM30 30L30 31L31 31L31 30ZM33 30L33 31L34 31L34 32L35 32L35 31L36 31L36 30ZM9 32L9 35L10 35L10 36L11 36L11 35L12 35L12 34L10 34L10 32ZM23 32L23 33L22 33L22 35L23 35L23 34L25 34L25 33L24 33L24 32ZM13 33L13 34L14 34L14 35L15 35L15 34L16 34L16 35L17 35L17 36L18 36L18 34L16 34L16 33L15 33L15 34L14 34L14 33ZM26 33L26 34L28 34L28 35L26 35L26 36L28 36L28 35L29 35L29 34L30 34L30 33ZM36 34L36 36L33 36L33 37L37 37L37 34ZM24 35L24 36L25 36L25 35ZM0 0L0 7L7 7L7 0ZM1 1L1 6L6 6L6 1ZM2 2L2 5L5 5L5 2ZM30 0L30 7L37 7L37 0ZM31 1L31 6L36 6L36 1ZM32 2L32 5L35 5L35 2ZM0 30L0 37L7 37L7 30ZM1 31L1 36L6 36L6 31ZM2 32L2 35L5 35L5 32Z" fill="#000000"/></g></g></svg>
