<?xml version="1.0" encoding="UTF-8"?>
<svg xmlns="http://www.w3.org/2000/svg" version="1.1" width="300" height="300" viewBox="0 0 300 300"><rect x="0" y="0" width="300" height="300" fill="#ffffff"/><g transform="scale(6.122)"><g transform="translate(0,0)"><path fill-rule="evenodd" d="M8 0L8 1L11 1L11 2L12 2L12 3L9 3L9 4L8 4L8 7L9 7L9 6L10 6L10 7L11 7L11 6L12 6L12 7L13 7L13 6L14 6L14 7L15 7L15 9L17 9L17 10L15 10L15 11L17 11L17 12L16 12L16 14L15 14L15 12L14 12L14 13L13 13L13 14L12 14L12 16L13 16L13 17L12 17L12 18L11 18L11 17L10 17L10 18L8 18L8 17L7 17L7 16L8 16L8 15L9 15L9 14L10 14L10 16L11 16L11 14L10 14L10 13L11 13L11 11L12 11L12 10L11 10L11 8L10 8L10 9L9 9L9 10L11 10L11 11L10 11L10 13L9 13L9 12L8 12L8 11L7 11L7 10L8 10L8 8L1 8L1 9L0 9L0 14L1 14L1 10L2 10L2 12L3 12L3 14L2 14L2 15L3 15L3 17L4 17L4 12L3 12L3 9L7 9L7 10L5 10L5 11L7 11L7 12L5 12L5 13L9 13L9 14L6 14L6 15L7 15L7 16L6 16L6 17L7 17L7 18L5 18L5 20L6 20L6 21L5 21L5 22L3 22L3 24L2 24L2 23L1 23L1 21L2 21L2 20L1 20L1 19L3 19L3 21L4 21L4 19L3 19L3 18L1 18L1 15L0 15L0 18L1 18L1 19L0 19L0 20L1 20L1 21L0 21L0 26L1 26L1 27L2 27L2 30L3 30L3 31L2 31L2 32L1 32L1 30L0 30L0 33L1 33L1 36L2 36L2 38L1 38L1 37L0 37L0 38L1 38L1 40L0 40L0 41L3 41L3 40L4 40L4 39L2 39L2 38L3 38L3 36L2 36L2 35L3 35L3 33L2 33L2 32L4 32L4 35L5 35L5 37L4 37L4 38L5 38L5 39L7 39L7 40L6 40L6 41L8 41L8 48L9 48L9 49L10 49L10 48L11 48L11 49L12 49L12 48L11 48L11 47L10 47L10 45L11 45L11 46L14 46L14 48L15 48L15 49L18 49L18 46L19 46L19 44L20 44L20 43L19 43L19 42L20 42L20 41L21 41L21 42L22 42L22 45L20 45L20 46L21 46L21 48L20 48L20 47L19 47L19 48L20 48L20 49L21 49L21 48L22 48L22 46L23 46L23 45L27 45L27 44L29 44L29 45L28 45L28 46L27 46L27 49L28 49L28 48L29 48L29 49L30 49L30 47L28 47L28 46L31 46L31 47L32 47L32 48L31 48L31 49L32 49L32 48L33 48L33 49L34 49L34 47L37 47L37 48L35 48L35 49L38 49L38 48L40 48L40 49L41 49L41 46L40 46L40 45L42 45L42 48L43 48L43 47L44 47L44 48L45 48L45 49L49 49L49 45L48 45L48 44L46 44L46 46L45 46L45 43L46 43L46 42L45 42L45 40L46 40L46 41L48 41L48 40L46 40L46 39L49 39L49 38L46 38L46 37L47 37L47 36L48 36L48 37L49 37L49 34L47 34L47 36L44 36L44 37L42 37L42 36L41 36L41 35L40 35L40 36L39 36L39 38L36 38L36 39L35 39L35 38L34 38L34 37L33 37L33 38L32 38L32 37L31 37L31 36L33 36L33 34L34 34L34 35L35 35L35 36L36 36L36 37L38 37L38 36L36 36L36 34L34 34L34 33L33 33L33 32L34 32L34 31L35 31L35 30L36 30L36 32L35 32L35 33L36 33L36 32L38 32L38 31L40 31L40 32L39 32L39 34L38 34L38 33L37 33L37 34L38 34L38 35L39 35L39 34L42 34L42 35L44 35L44 34L42 34L42 33L41 33L41 32L42 32L42 31L43 31L43 33L47 33L47 32L44 32L44 30L43 30L43 29L45 29L45 28L44 28L44 27L45 27L45 25L48 25L48 24L45 24L45 23L46 23L46 22L47 22L47 23L49 23L49 22L47 22L47 20L48 20L48 21L49 21L49 18L47 18L47 17L48 17L48 16L45 16L45 15L49 15L49 14L45 14L45 13L44 13L44 12L46 12L46 13L48 13L48 12L46 12L46 11L44 11L44 10L43 10L43 9L45 9L45 8L43 8L43 9L42 9L42 10L41 10L41 11L42 11L42 10L43 10L43 11L44 11L44 12L42 12L42 14L40 14L40 13L41 13L41 12L39 12L39 10L37 10L37 8L38 8L38 9L41 9L41 8L38 8L38 7L39 7L39 5L38 5L38 3L35 3L35 2L37 2L37 1L38 1L38 2L39 2L39 4L40 4L40 3L41 3L41 0L40 0L40 1L38 1L38 0L35 0L35 1L31 1L31 0L29 0L29 1L27 1L27 3L25 3L25 4L24 4L24 2L25 2L25 0L24 0L24 1L23 1L23 2L22 2L22 3L21 3L21 1L22 1L22 0L21 0L21 1L20 1L20 2L18 2L18 3L19 3L19 4L17 4L17 3L16 3L16 1L19 1L19 0L16 0L16 1L15 1L15 0ZM12 1L12 2L14 2L14 1ZM29 1L29 2L28 2L28 3L29 3L29 2L30 2L30 4L32 4L32 5L30 5L30 6L29 6L29 5L27 5L27 8L28 8L28 9L26 9L26 10L28 10L28 11L26 11L26 12L23 12L23 13L24 13L24 14L23 14L23 15L22 15L22 14L21 14L21 11L22 11L22 10L23 10L23 11L25 11L25 10L24 10L24 9L22 9L22 8L20 8L20 5L22 5L22 4L19 4L19 5L16 5L16 6L15 6L15 7L16 7L16 6L17 6L17 7L18 7L18 6L19 6L19 8L17 8L17 9L20 9L20 10L21 10L21 11L19 11L19 10L18 10L18 13L17 13L17 14L16 14L16 16L15 16L15 14L13 14L13 16L14 16L14 17L13 17L13 18L15 18L15 17L16 17L16 19L17 19L17 18L18 18L18 19L19 19L19 20L15 20L15 19L13 19L13 22L12 22L12 23L11 23L11 20L12 20L12 19L11 19L11 18L10 18L10 19L9 19L9 20L10 20L10 21L8 21L8 20L7 20L7 19L6 19L6 20L7 20L7 21L6 21L6 22L10 22L10 23L11 23L11 24L13 24L13 25L9 25L9 26L11 26L11 27L10 27L10 28L11 28L11 29L10 29L10 30L9 30L9 28L8 28L8 29L5 29L5 30L4 30L4 32L5 32L5 31L6 31L6 32L7 32L7 33L6 33L6 34L5 34L5 35L6 35L6 36L7 36L7 35L6 35L6 34L7 34L7 33L8 33L8 32L10 32L10 31L12 31L12 29L13 29L13 28L15 28L15 33L13 33L13 32L14 32L14 30L13 30L13 32L11 32L11 33L13 33L13 36L12 36L12 34L11 34L11 37L10 37L10 35L9 35L9 34L8 34L8 35L9 35L9 37L6 37L6 38L8 38L8 39L9 39L9 40L8 40L8 41L9 41L9 40L10 40L10 39L13 39L13 40L14 40L14 41L12 41L12 44L11 44L11 45L12 45L12 44L14 44L14 45L16 45L16 44L17 44L17 45L18 45L18 44L17 44L17 43L18 43L18 42L19 42L19 40L23 40L23 39L27 39L27 40L28 40L28 41L27 41L27 42L28 42L28 43L29 43L29 42L30 42L30 41L29 41L29 40L30 40L30 39L31 39L31 41L32 41L32 42L31 42L31 43L32 43L32 42L33 42L33 44L32 44L32 47L33 47L33 46L35 46L35 44L37 44L37 43L35 43L35 41L36 41L36 40L38 40L38 41L37 41L37 42L38 42L38 43L40 43L40 41L39 41L39 40L41 40L41 39L42 39L42 40L44 40L44 39L46 39L46 38L45 38L45 37L44 37L44 39L42 39L42 38L41 38L41 39L36 39L36 40L35 40L35 39L34 39L34 38L33 38L33 39L34 39L34 40L32 40L32 38L29 38L29 37L30 37L30 36L28 36L28 34L27 34L27 35L25 35L25 33L26 33L26 32L27 32L27 33L28 33L28 32L30 32L30 31L31 31L31 32L33 32L33 30L35 30L35 27L34 27L34 26L36 26L36 28L37 28L37 29L38 29L38 30L37 30L37 31L38 31L38 30L40 30L40 31L41 31L41 30L42 30L42 29L41 29L41 27L40 27L40 24L39 24L39 23L40 23L40 22L41 22L41 21L42 21L42 16L39 16L39 17L40 17L40 18L37 18L37 17L38 17L38 16L37 16L37 15L38 15L38 14L39 14L39 12L38 12L38 11L36 11L36 10L35 10L35 9L36 9L36 8L35 8L35 7L36 7L36 6L37 6L37 7L38 7L38 6L37 6L37 4L33 4L33 3L34 3L34 2L33 2L33 3L32 3L32 2L31 2L31 1ZM12 3L12 4L13 4L13 5L12 5L12 6L13 6L13 5L14 5L14 4L13 4L13 3ZM10 4L10 6L11 6L11 4ZM23 5L23 8L26 8L26 5ZM33 5L33 6L32 6L32 7L31 7L31 6L30 6L30 7L29 7L29 6L28 6L28 8L30 8L30 10L29 10L29 11L30 11L30 10L32 10L32 9L31 9L31 8L32 8L32 7L33 7L33 6L34 6L34 7L35 7L35 5ZM21 6L21 7L22 7L22 6ZM24 6L24 7L25 7L25 6ZM40 6L40 7L41 7L41 6ZM13 8L13 10L14 10L14 8ZM48 8L48 9L46 9L46 10L48 10L48 11L49 11L49 10L48 10L48 9L49 9L49 8ZM33 10L33 11L31 11L31 12L26 12L26 13L25 13L25 17L23 17L23 16L24 16L24 15L23 15L23 16L22 16L22 17L23 17L23 18L25 18L25 19L24 19L24 20L23 20L23 19L22 19L22 18L20 18L20 16L19 16L19 18L20 18L20 20L21 20L21 19L22 19L22 20L23 20L23 21L22 21L22 24L21 24L21 23L19 23L19 25L20 25L20 26L19 26L19 27L16 27L16 24L17 24L17 23L18 23L18 22L20 22L20 21L18 21L18 22L17 22L17 21L14 21L14 22L17 22L17 23L14 23L14 25L13 25L13 26L12 26L12 27L11 27L11 28L12 28L12 27L14 27L14 25L15 25L15 27L16 27L16 29L17 29L17 30L18 30L18 29L19 29L19 31L17 31L17 32L16 32L16 35L15 35L15 34L14 34L14 35L15 35L15 36L14 36L14 37L12 37L12 38L14 38L14 39L15 39L15 41L14 41L14 42L13 42L13 43L14 43L14 42L15 42L15 43L17 43L17 41L18 41L18 40L19 40L19 38L20 38L20 37L21 37L21 36L20 36L20 35L21 35L21 34L22 34L22 32L20 32L20 35L19 35L19 33L18 33L18 32L19 32L19 31L23 31L23 35L22 35L22 39L23 39L23 38L24 38L24 37L23 37L23 35L24 35L24 36L25 36L25 35L24 35L24 33L25 33L25 31L27 31L27 32L28 32L28 28L29 28L29 30L31 30L31 31L32 31L32 28L33 28L33 29L34 29L34 28L33 28L33 25L32 25L32 24L33 24L33 23L34 23L34 25L36 25L36 26L37 26L37 24L38 24L38 23L39 23L39 22L40 22L40 21L41 21L41 20L40 20L40 19L37 19L37 18L36 18L36 19L37 19L37 20L36 20L36 21L35 21L35 22L33 22L33 21L32 21L32 22L31 22L31 20L30 20L30 19L32 19L32 20L34 20L34 18L35 18L35 17L37 17L37 16L35 16L35 14L38 14L38 13L37 13L37 12L36 12L36 13L35 13L35 14L34 14L34 13L33 13L33 14L34 14L34 16L33 16L33 15L32 15L32 14L31 14L31 12L33 12L33 11L34 11L34 12L35 12L35 10ZM19 12L19 13L18 13L18 14L17 14L17 15L21 15L21 14L19 14L19 13L20 13L20 12ZM26 13L26 17L25 17L25 18L27 18L27 17L28 17L28 20L27 20L27 19L25 19L25 21L23 21L23 22L26 22L26 20L27 20L27 21L29 21L29 19L30 19L30 18L31 18L31 17L32 17L32 18L34 18L34 17L33 17L33 16L31 16L31 14L27 14L27 13ZM42 14L42 15L43 15L43 14ZM28 15L28 17L29 17L29 18L30 18L30 17L29 17L29 16L30 16L30 15ZM16 16L16 17L18 17L18 16ZM44 16L44 17L45 17L45 16ZM46 18L46 19L45 19L45 20L44 20L44 21L43 21L43 22L46 22L46 20L47 20L47 18ZM10 19L10 20L11 20L11 19ZM39 20L39 21L37 21L37 23L35 23L35 24L37 24L37 23L38 23L38 22L39 22L39 21L40 21L40 20ZM28 22L28 23L27 23L27 24L28 24L28 25L27 25L27 26L28 26L28 27L26 27L26 28L25 28L25 29L24 29L24 27L22 27L22 28L23 28L23 30L25 30L25 29L27 29L27 28L28 28L28 27L29 27L29 28L30 28L30 29L31 29L31 28L32 28L32 27L31 27L31 26L29 26L29 25L30 25L30 24L29 24L29 22ZM30 22L30 23L31 23L31 24L32 24L32 23L33 23L33 22L32 22L32 23L31 23L31 22ZM5 23L5 26L8 26L8 23ZM23 23L23 26L26 26L26 23ZM41 23L41 26L44 26L44 23ZM1 24L1 26L2 26L2 24ZM3 24L3 25L4 25L4 24ZM6 24L6 25L7 25L7 24ZM24 24L24 25L25 25L25 24ZM42 24L42 25L43 25L43 24ZM17 25L17 26L18 26L18 25ZM21 25L21 26L22 26L22 25ZM3 26L3 27L4 27L4 28L3 28L3 29L4 29L4 28L7 28L7 27L4 27L4 26ZM38 26L38 27L39 27L39 26ZM46 26L46 27L47 27L47 28L46 28L46 31L47 31L47 28L48 28L48 29L49 29L49 28L48 28L48 27L49 27L49 26ZM20 27L20 28L19 28L19 29L20 29L20 30L21 30L21 27ZM30 27L30 28L31 28L31 27ZM42 27L42 28L43 28L43 27ZM0 28L0 29L1 29L1 28ZM17 28L17 29L18 29L18 28ZM38 28L38 29L40 29L40 30L41 30L41 29L40 29L40 28ZM6 30L6 31L7 31L7 32L8 32L8 31L9 31L9 30L8 30L8 31L7 31L7 30ZM48 30L48 33L49 33L49 30ZM31 33L31 34L29 34L29 35L31 35L31 34L32 34L32 33ZM17 34L17 35L16 35L16 39L18 39L18 38L19 38L19 37L20 37L20 36L19 36L19 35L18 35L18 34ZM45 34L45 35L46 35L46 34ZM17 36L17 37L18 37L18 36ZM27 36L27 37L28 37L28 36ZM40 36L40 37L41 37L41 36ZM25 37L25 38L26 38L26 37ZM28 39L28 40L29 40L29 39ZM16 40L16 41L15 41L15 42L16 42L16 41L17 41L17 40ZM10 41L10 42L9 42L9 44L10 44L10 42L11 42L11 41ZM23 41L23 44L26 44L26 41ZM33 41L33 42L34 42L34 41ZM41 41L41 44L44 44L44 41ZM24 42L24 43L25 43L25 42ZM42 42L42 43L43 43L43 42ZM47 42L47 43L49 43L49 42ZM34 43L34 44L33 44L33 45L34 45L34 44L35 44L35 43ZM38 45L38 46L37 46L37 47L38 47L38 46L39 46L39 47L40 47L40 46L39 46L39 45ZM43 45L43 46L44 46L44 47L45 47L45 48L48 48L48 47L47 47L47 46L46 46L46 47L45 47L45 46L44 46L44 45ZM15 46L15 48L16 48L16 47L17 47L17 46ZM24 46L24 47L23 47L23 48L24 48L24 49L25 49L25 48L26 48L26 47L25 47L25 46ZM24 47L24 48L25 48L25 47ZM0 0L0 7L7 7L7 0ZM1 1L1 6L6 6L6 1ZM2 2L2 5L5 5L5 2ZM42 0L42 7L49 7L49 0ZM43 1L43 6L48 6L48 1ZM44 2L44 5L47 5L47 2ZM0 42L0 49L7 49L7 42ZM1 43L1 48L6 48L6 43ZM2 44L2 47L5 47L5 44Z" fill="#000000"/></g></g></svg>
