<?xml version="1.0" encoding="UTF-8"?>
<svg xmlns="http://www.w3.org/2000/svg" version="1.1" width="300" height="300" viewBox="0 0 300 300"><rect x="0" y="0" width="300" height="300" fill="#ffffff"/><g transform="scale(8.108)"><g transform="translate(0,0)"><path fill-rule="evenodd" d="M8 0L8 1L9 1L9 2L8 2L8 4L9 4L9 3L11 3L11 2L12 2L12 3L13 3L13 4L10 4L10 5L8 5L8 8L5 8L5 10L6 10L6 11L8 11L8 12L5 12L5 11L3 11L3 12L5 12L5 13L4 13L4 14L5 14L5 17L4 17L4 20L3 20L3 19L2 19L2 18L3 18L3 16L4 16L4 15L2 15L2 14L3 14L3 13L1 13L1 12L2 12L2 11L1 11L1 10L0 10L0 14L1 14L1 15L0 15L0 18L1 18L1 20L3 20L3 21L1 21L1 22L0 22L0 23L2 23L2 25L5 25L5 26L6 26L6 27L5 27L5 28L4 28L4 27L3 27L3 26L2 26L2 27L1 27L1 26L0 26L0 27L1 27L1 28L0 28L0 29L3 29L3 28L4 28L4 29L5 29L5 28L6 28L6 29L8 29L8 32L9 32L9 33L8 33L8 34L10 34L10 35L11 35L11 37L12 37L12 36L13 36L13 37L15 37L15 36L16 36L16 33L15 33L15 32L17 32L17 31L14 31L14 30L15 30L15 29L16 29L16 30L18 30L18 29L16 29L16 27L15 27L15 29L14 29L14 28L13 28L13 27L14 27L14 26L13 26L13 25L15 25L15 26L16 26L16 25L20 25L20 26L21 26L21 27L22 27L22 26L23 26L23 28L22 28L22 29L23 29L23 30L24 30L24 31L22 31L22 30L21 30L21 29L20 29L20 28L19 28L19 26L18 26L18 28L19 28L19 31L18 31L18 32L19 32L19 34L18 34L18 33L17 33L17 34L18 34L18 35L19 35L19 36L22 36L22 37L25 37L25 33L26 33L26 34L29 34L29 35L26 35L26 36L27 36L27 37L29 37L29 35L30 35L30 37L31 37L31 35L30 35L30 33L31 33L31 34L32 34L32 36L33 36L33 37L34 37L34 34L33 34L33 28L32 28L32 26L30 26L30 27L29 27L29 26L28 26L28 25L29 25L29 24L30 24L30 25L34 25L34 23L36 23L36 24L35 24L35 26L36 26L36 27L37 27L37 25L36 25L36 24L37 24L37 23L36 23L36 21L37 21L37 20L36 20L36 19L37 19L37 16L36 16L36 15L37 15L37 12L36 12L36 11L37 11L37 8L36 8L36 11L35 11L35 12L34 12L34 9L35 9L35 8L33 8L33 9L32 9L32 8L29 8L29 10L28 10L28 9L27 9L27 8L26 8L26 7L27 7L27 6L28 6L28 7L29 7L29 6L28 6L28 4L29 4L29 0L27 0L27 1L26 1L26 0L25 0L25 4L26 4L26 5L27 5L27 6L26 6L26 7L25 7L25 6L24 6L24 5L23 5L23 6L22 6L22 4L23 4L23 3L22 3L22 4L21 4L21 6L20 6L20 5L19 5L19 4L18 4L18 2L17 2L17 1L16 1L16 0L15 0L15 1L14 1L14 0L13 0L13 1L12 1L12 0ZM18 0L18 1L19 1L19 0ZM20 0L20 3L21 3L21 0ZM22 0L22 2L23 2L23 0ZM10 1L10 2L11 2L11 1ZM13 1L13 3L15 3L15 4L13 4L13 5L17 5L17 2L16 2L16 1L15 1L15 2L14 2L14 1ZM15 2L15 3L16 3L16 2ZM26 2L26 3L27 3L27 4L28 4L28 2ZM10 5L10 6L9 6L9 9L6 9L6 10L8 10L8 11L11 11L11 10L12 10L12 11L14 11L14 12L13 12L13 13L12 13L12 12L8 12L8 15L9 15L9 14L10 14L10 15L12 15L12 16L7 16L7 15L6 15L6 16L7 16L7 17L6 17L6 18L7 18L7 17L8 17L8 19L9 19L9 20L10 20L10 19L9 19L9 17L11 17L11 20L12 20L12 21L10 21L10 23L8 23L8 22L7 22L7 21L6 21L6 22L5 22L5 21L3 21L3 22L2 22L2 23L3 23L3 22L5 22L5 24L7 24L7 25L6 25L6 26L7 26L7 25L8 25L8 26L9 26L9 25L10 25L10 23L11 23L11 22L12 22L12 23L13 23L13 22L14 22L14 21L16 21L16 22L17 22L17 23L16 23L16 24L19 24L19 23L20 23L20 24L21 24L21 23L22 23L22 25L21 25L21 26L22 26L22 25L23 25L23 26L24 26L24 30L25 30L25 32L26 32L26 33L28 33L28 32L26 32L26 31L27 31L27 30L28 30L28 29L26 29L26 28L25 28L25 27L26 27L26 26L25 26L25 25L26 25L26 24L27 24L27 25L28 25L28 24L27 24L27 23L30 23L30 24L31 24L31 23L33 23L33 21L34 21L34 22L35 22L35 21L36 21L36 20L34 20L34 19L36 19L36 18L35 18L35 17L33 17L33 15L32 15L32 14L34 14L34 16L35 16L35 15L36 15L36 14L34 14L34 13L33 13L33 10L32 10L32 9L30 9L30 10L29 10L29 11L28 11L28 10L27 10L27 9L26 9L26 8L24 8L24 6L23 6L23 7L22 7L22 6L21 6L21 7L20 7L20 6L19 6L19 9L18 9L18 10L19 10L19 9L20 9L20 8L21 8L21 7L22 7L22 8L23 8L23 10L21 10L21 11L26 11L26 10L27 10L27 11L28 11L28 12L27 12L27 13L25 13L25 12L23 12L23 13L22 13L22 12L20 12L20 11L18 11L18 13L17 13L17 14L18 14L18 15L19 15L19 12L20 12L20 14L21 14L21 15L20 15L20 16L19 16L19 17L18 17L18 16L17 16L17 17L16 17L16 15L15 15L15 14L16 14L16 12L17 12L17 10L14 10L14 8L15 8L15 9L17 9L17 8L18 8L18 6L17 6L17 7L16 7L16 6L15 6L15 7L14 7L14 6L13 6L13 7L14 7L14 8L13 8L13 9L11 9L11 8L10 8L10 6L11 6L11 7L12 7L12 6L11 6L11 5ZM15 7L15 8L16 8L16 7ZM1 8L1 9L2 9L2 10L4 10L4 8L3 8L3 9L2 9L2 8ZM9 9L9 10L11 10L11 9ZM25 9L25 10L26 10L26 9ZM30 10L30 14L31 14L31 13L32 13L32 12L31 12L31 11L32 11L32 10ZM14 12L14 13L13 13L13 14L12 14L12 13L10 13L10 14L12 14L12 15L13 15L13 16L12 16L12 17L13 17L13 21L14 21L14 17L15 17L15 18L16 18L16 19L17 19L17 20L16 20L16 21L17 21L17 20L18 20L18 19L19 19L19 21L18 21L18 22L20 22L20 23L21 23L21 22L20 22L20 20L21 20L21 21L23 21L23 22L24 22L24 19L22 19L22 18L23 18L23 17L21 17L21 19L20 19L20 17L19 17L19 18L18 18L18 17L17 17L17 18L16 18L16 17L15 17L15 15L14 15L14 14L15 14L15 12ZM28 12L28 13L27 13L27 14L28 14L28 15L27 15L27 16L26 16L26 14L22 14L22 13L21 13L21 14L22 14L22 15L21 15L21 16L24 16L24 15L25 15L25 16L26 16L26 17L25 17L25 18L26 18L26 20L28 20L28 19L29 19L29 18L31 18L31 19L32 19L32 18L33 18L33 17L32 17L32 16L30 16L30 17L29 17L29 16L28 16L28 15L29 15L29 12ZM5 13L5 14L7 14L7 13ZM1 15L1 16L2 16L2 15ZM27 17L27 19L28 19L28 18L29 18L29 17ZM6 19L6 20L7 20L7 19ZM30 20L30 21L29 21L29 22L30 22L30 23L31 23L31 22L32 22L32 21L33 21L33 20ZM25 21L25 24L26 24L26 23L27 23L27 21ZM6 22L6 23L7 23L7 22ZM0 24L0 25L1 25L1 24ZM11 26L11 27L12 27L12 26ZM2 27L2 28L3 28L3 27ZM6 27L6 28L8 28L8 27ZM9 27L9 28L10 28L10 31L11 31L11 32L10 32L10 33L11 33L11 35L12 35L12 34L13 34L13 35L14 35L14 36L15 36L15 33L14 33L14 32L12 32L12 31L13 31L13 30L14 30L14 29L13 29L13 28L10 28L10 27ZM27 27L27 28L28 28L28 27ZM30 27L30 28L31 28L31 27ZM34 27L34 28L35 28L35 27ZM36 28L36 29L35 29L35 30L34 30L34 32L35 32L35 30L36 30L36 31L37 31L37 28ZM12 29L12 30L11 30L11 31L12 31L12 30L13 30L13 29ZM29 29L29 32L32 32L32 29ZM20 30L20 32L21 32L21 33L20 33L20 35L23 35L23 32L22 32L22 31L21 31L21 30ZM30 30L30 31L31 31L31 30ZM21 33L21 34L22 34L22 33ZM35 33L35 34L36 34L36 35L37 35L37 33ZM8 35L8 36L9 36L9 35ZM17 36L17 37L18 37L18 36ZM35 36L35 37L37 37L37 36ZM0 0L0 7L7 7L7 0ZM1 1L1 6L6 6L6 1ZM2 2L2 5L5 5L5 2ZM30 0L30 7L37 7L37 0ZM31 1L31 6L36 6L36 1ZM32 2L32 5L35 5L35 2ZM0 30L0 37L7 37L7 30ZM1 31L1 36L6 36L6 31ZM2 32L2 35L5 35L5 32Z" fill="#000000"/></g></g></svg>
