<?xml version="1.0" encoding="UTF-8"?>
<svg xmlns="http://www.w3.org/2000/svg" version="1.1" width="300" height="300" viewBox="0 0 300 300"><rect x="0" y="0" width="300" height="300" fill="#ffffff"/><g transform="scale(8.108)"><g transform="translate(0,0)"><path fill-rule="evenodd" d="M9 0L9 2L8 2L8 3L9 3L9 4L8 4L8 7L9 7L9 8L8 8L8 10L5 10L5 11L7 11L7 12L5 12L5 15L4 15L4 13L3 13L3 14L1 14L1 15L3 15L3 16L5 16L5 19L7 19L7 20L6 20L6 21L7 21L7 20L10 20L10 21L9 21L9 22L11 22L11 20L10 20L10 18L11 18L11 19L13 19L13 20L12 20L12 22L13 22L13 21L15 21L15 22L17 22L17 23L16 23L16 24L14 24L14 26L13 26L13 27L14 27L14 28L15 28L15 30L14 30L14 29L12 29L12 28L11 28L11 27L10 27L10 29L12 29L12 30L11 30L11 31L9 31L9 32L8 32L8 33L10 33L10 34L9 34L9 35L8 35L8 36L9 36L9 35L10 35L10 37L12 37L12 36L13 36L13 37L17 37L17 35L18 35L18 37L20 37L20 36L19 36L19 34L20 34L20 35L21 35L21 36L22 36L22 35L23 35L23 34L21 34L21 33L18 33L18 32L19 32L19 31L20 31L20 30L22 30L22 29L23 29L23 31L22 31L22 33L23 33L23 32L24 32L24 33L25 33L25 31L24 31L24 30L25 30L25 29L23 29L23 28L24 28L24 26L25 26L25 25L27 25L27 23L28 23L28 24L29 24L29 23L30 23L30 22L29 22L29 23L28 23L28 21L31 21L31 22L33 22L33 23L32 23L32 25L31 25L31 24L30 24L30 25L28 25L28 27L30 27L30 28L27 28L27 26L26 26L26 29L28 29L28 33L27 33L27 30L26 30L26 33L27 33L27 34L25 34L25 35L24 35L24 36L23 36L23 37L26 37L26 35L27 35L27 34L28 34L28 35L29 35L29 36L30 36L30 37L37 37L37 36L36 36L36 34L35 34L35 35L34 35L34 33L36 33L36 32L35 32L35 31L36 31L36 29L35 29L35 30L34 30L34 31L33 31L33 28L31 28L31 27L32 27L32 26L33 26L33 27L34 27L34 26L35 26L35 25L36 25L36 24L37 24L37 20L36 20L36 19L34 19L34 18L33 18L33 17L37 17L37 16L36 16L36 15L35 15L35 14L34 14L34 15L33 15L33 17L32 17L32 15L31 15L31 14L30 14L30 13L32 13L32 14L33 14L33 13L34 13L34 12L35 12L35 13L37 13L37 12L36 12L36 11L35 11L35 10L34 10L34 11L33 11L33 10L32 10L32 11L31 11L31 12L30 12L30 10L31 10L31 9L33 9L33 8L31 8L31 9L30 9L30 8L29 8L29 6L28 6L28 7L27 7L27 6L26 6L26 7L25 7L25 5L23 5L23 3L22 3L22 2L20 2L20 1L21 1L21 0L18 0L18 2L20 2L20 3L19 3L19 4L17 4L17 3L16 3L16 2L15 2L15 3L16 3L16 4L14 4L14 5L13 5L13 4L12 4L12 5L13 5L13 6L12 6L12 7L11 7L11 6L10 6L10 5L9 5L9 4L11 4L11 3L10 3L10 0ZM11 0L11 1L12 1L12 0ZM13 0L13 2L14 2L14 1L15 1L15 0ZM26 0L26 1L29 1L29 0ZM23 1L23 2L24 2L24 3L26 3L26 5L28 5L28 4L27 4L27 3L29 3L29 2L27 2L27 3L26 3L26 2L25 2L25 1ZM21 3L21 4L20 4L20 5L21 5L21 7L22 7L22 8L24 8L24 6L23 6L23 7L22 7L22 3ZM16 4L16 5L17 5L17 7L18 7L18 8L20 8L20 6L19 6L19 5L17 5L17 4ZM9 6L9 7L10 7L10 8L9 8L9 9L10 9L10 10L9 10L9 11L8 11L8 12L7 12L7 13L6 13L6 14L7 14L7 13L8 13L8 15L10 15L10 16L8 16L8 18L10 18L10 17L11 17L11 18L12 18L12 16L14 16L14 15L15 15L15 17L13 17L13 18L15 18L15 21L16 21L16 18L17 18L17 19L19 19L19 18L17 18L17 17L18 17L18 16L17 16L17 15L15 15L15 13L19 13L19 12L20 12L20 9L18 9L18 10L19 10L19 12L18 12L18 11L17 11L17 12L16 12L16 11L15 11L15 10L16 10L16 9L15 9L15 8L16 8L16 6L15 6L15 7L14 7L14 6L13 6L13 7L14 7L14 10L13 10L13 11L12 11L12 12L11 12L11 13L10 13L10 12L9 12L9 11L10 11L10 10L12 10L12 9L13 9L13 8L12 8L12 9L10 9L10 8L11 8L11 7L10 7L10 6ZM18 6L18 7L19 7L19 6ZM26 7L26 9L27 9L27 10L28 10L28 11L29 11L29 10L30 10L30 9L27 9L27 7ZM1 8L1 9L2 9L2 8ZM4 8L4 9L5 9L5 8ZM6 8L6 9L7 9L7 8ZM34 8L34 9L35 9L35 8ZM21 9L21 10L23 10L23 9ZM24 9L24 10L25 10L25 11L24 11L24 12L23 12L23 11L22 11L22 12L21 12L21 14L19 14L19 15L20 15L20 16L19 16L19 17L20 17L20 18L21 18L21 19L23 19L23 18L24 18L24 17L26 17L26 16L27 16L27 17L28 17L28 19L27 19L27 18L25 18L25 19L24 19L24 20L22 20L22 21L21 21L21 20L17 20L17 21L19 21L19 23L20 23L20 22L21 22L21 23L22 23L22 22L24 22L24 21L25 21L25 20L26 20L26 19L27 19L27 21L26 21L26 22L25 22L25 23L24 23L24 24L22 24L22 25L25 25L25 24L26 24L26 23L27 23L27 21L28 21L28 20L31 20L31 21L33 21L33 22L34 22L34 23L33 23L33 25L34 25L34 23L36 23L36 21L33 21L33 18L31 18L31 17L30 17L30 16L31 16L31 15L30 15L30 14L29 14L29 13L30 13L30 12L27 12L27 11L26 11L26 10L25 10L25 9ZM2 10L2 11L1 11L1 12L0 12L0 13L2 13L2 12L4 12L4 10ZM14 11L14 12L13 12L13 14L12 14L12 13L11 13L11 16L12 16L12 15L13 15L13 14L14 14L14 12L15 12L15 11ZM8 12L8 13L9 13L9 14L10 14L10 13L9 13L9 12ZM26 12L26 13L22 13L22 14L21 14L21 16L22 16L22 15L26 15L26 14L27 14L27 16L28 16L28 17L29 17L29 18L30 18L30 17L29 17L29 15L28 15L28 14L27 14L27 12ZM32 12L32 13L33 13L33 12ZM6 15L6 16L7 16L7 15ZM0 16L0 17L1 17L1 18L0 18L0 19L1 19L1 18L2 18L2 16ZM3 17L3 19L2 19L2 20L1 20L1 21L0 21L0 22L1 22L1 21L2 21L2 22L5 22L5 21L3 21L3 20L4 20L4 17ZM6 17L6 18L7 18L7 17ZM22 17L22 18L23 18L23 17ZM31 19L31 20L32 20L32 19ZM6 22L6 23L7 23L7 24L6 24L6 25L7 25L7 24L8 24L8 22ZM1 23L1 24L0 24L0 26L2 26L2 27L3 27L3 28L0 28L0 29L7 29L7 28L8 28L8 30L9 30L9 28L8 28L8 27L9 27L9 25L8 25L8 27L7 27L7 26L6 26L6 27L4 27L4 25L5 25L5 23L4 23L4 24L3 24L3 23ZM9 23L9 24L10 24L10 23ZM11 23L11 26L12 26L12 25L13 25L13 24L12 24L12 23ZM17 23L17 24L16 24L16 25L15 25L15 26L16 26L16 27L17 27L17 29L18 29L18 30L19 30L19 29L22 29L22 27L23 27L23 26L21 26L21 25L19 25L19 24L18 24L18 23ZM17 24L17 25L16 25L16 26L17 26L17 27L19 27L19 26L18 26L18 24ZM20 26L20 27L21 27L21 26ZM30 26L30 27L31 27L31 26ZM6 27L6 28L7 28L7 27ZM35 27L35 28L36 28L36 27ZM18 28L18 29L19 29L19 28ZM29 29L29 32L32 32L32 29ZM15 30L15 31L16 31L16 32L14 32L14 31L11 31L11 32L12 32L12 33L16 33L16 35L17 35L17 34L18 34L18 33L17 33L17 32L18 32L18 31L17 31L17 30ZM30 30L30 31L31 31L31 30ZM28 33L28 34L29 34L29 35L30 35L30 33ZM32 33L32 36L33 36L33 33ZM10 34L10 35L11 35L11 36L12 36L12 35L14 35L14 36L15 36L15 35L14 35L14 34L12 34L12 35L11 35L11 34ZM0 0L0 7L7 7L7 0ZM1 1L1 6L6 6L6 1ZM2 2L2 5L5 5L5 2ZM30 0L30 7L37 7L37 0ZM31 1L31 6L36 6L36 1ZM32 2L32 5L35 5L35 2ZM0 30L0 37L7 37L7 30ZM1 31L1 36L6 36L6 31ZM2 32L2 35L5 35L5 32Z" fill="#000000"/></g></g></svg>
