<?xml version="1.0" encoding="UTF-8"?>
<svg xmlns="http://www.w3.org/2000/svg" version="1.1" width="300" height="300" viewBox="0 0 300 300"><rect x="0" y="0" width="300" height="300" fill="#ffffff"/><g transform="scale(6.122)"><g transform="translate(0,0)"><path fill-rule="evenodd" d="M8 0L8 1L10 1L10 3L9 3L9 4L8 4L8 7L9 7L9 8L10 8L10 7L11 7L11 6L12 6L12 7L13 7L13 9L17 9L17 10L14 10L14 12L12 12L12 13L13 13L13 14L15 14L15 15L19 15L19 14L17 14L17 13L15 13L15 11L17 11L17 12L18 12L18 11L21 11L21 14L20 14L20 15L21 15L21 14L22 14L22 15L23 15L23 16L22 16L22 17L23 17L23 18L25 18L25 19L24 19L24 20L23 20L23 19L22 19L22 18L21 18L21 17L20 17L20 19L22 19L22 20L23 20L23 21L25 21L25 19L26 19L26 21L27 21L27 22L22 22L22 21L21 21L21 22L22 22L22 23L21 23L21 24L20 24L20 23L19 23L19 25L20 25L20 26L18 26L18 25L17 25L17 26L18 26L18 28L20 28L20 27L21 27L21 29L22 29L22 28L23 28L23 27L24 27L24 29L23 29L23 32L22 32L22 33L21 33L21 32L20 32L20 35L19 35L19 33L18 33L18 31L21 31L21 30L20 30L20 29L17 29L17 27L16 27L16 24L17 24L17 23L18 23L18 22L19 22L19 21L20 21L20 20L19 20L19 19L18 19L18 18L17 18L17 20L19 20L19 21L18 21L18 22L17 22L17 23L14 23L14 25L13 25L13 23L12 23L12 22L13 22L13 21L11 21L11 23L10 23L10 22L6 22L6 21L7 21L7 20L8 20L8 21L10 21L10 20L13 20L13 19L16 19L16 16L15 16L15 18L13 18L13 19L10 19L10 18L12 18L12 17L14 17L14 16L12 16L12 15L11 15L11 12L8 12L8 11L7 11L7 10L8 10L8 8L1 8L1 9L0 9L0 11L4 11L4 10L5 10L5 13L4 13L4 12L3 12L3 14L2 14L2 12L1 12L1 13L0 13L0 14L2 14L2 15L3 15L3 14L4 14L4 15L5 15L5 17L4 17L4 16L3 16L3 17L4 17L4 19L3 19L3 18L1 18L1 15L0 15L0 18L1 18L1 19L0 19L0 20L1 20L1 21L0 21L0 28L1 28L1 24L2 24L2 29L1 29L1 30L0 30L0 35L1 35L1 36L0 36L0 38L1 38L1 40L0 40L0 41L3 41L3 40L4 40L4 39L2 39L2 38L3 38L3 37L5 37L5 36L6 36L6 37L7 37L7 38L5 38L5 39L7 39L7 40L6 40L6 41L8 41L8 48L9 48L9 49L10 49L10 48L11 48L11 49L12 49L12 48L11 48L11 47L12 47L12 46L14 46L14 48L15 48L15 49L18 49L18 46L20 46L20 49L21 49L21 48L22 48L22 46L23 46L23 45L27 45L27 44L29 44L29 45L28 45L28 46L27 46L27 49L28 49L28 48L29 48L29 49L30 49L30 47L28 47L28 46L31 46L31 47L32 47L32 48L31 48L31 49L32 49L32 48L33 48L33 49L34 49L34 47L37 47L37 48L35 48L35 49L38 49L38 48L40 48L40 49L41 49L41 47L42 47L42 48L43 48L43 47L44 47L44 48L45 48L45 49L49 49L49 45L48 45L48 44L46 44L46 46L45 46L45 43L46 43L46 42L45 42L45 41L48 41L48 40L45 40L45 39L49 39L49 38L46 38L46 37L47 37L47 36L48 36L48 37L49 37L49 34L47 34L47 36L46 36L46 34L45 34L45 36L44 36L44 33L47 33L47 32L49 32L49 30L48 30L48 31L47 31L47 28L48 28L48 29L49 29L49 26L48 26L48 24L45 24L45 23L46 23L46 22L47 22L47 23L49 23L49 22L47 22L47 20L48 20L48 21L49 21L49 18L47 18L47 17L48 17L48 16L45 16L45 14L46 14L46 13L48 13L48 12L46 12L46 11L44 11L44 10L43 10L43 9L45 9L45 8L43 8L43 9L42 9L42 10L41 10L41 12L39 12L39 10L37 10L37 9L38 9L38 7L39 7L39 5L38 5L38 3L35 3L35 2L37 2L37 1L38 1L38 2L39 2L39 4L40 4L40 3L41 3L41 0L40 0L40 1L38 1L38 0L35 0L35 1L31 1L31 0L29 0L29 1L27 1L27 0L25 0L25 1L23 1L23 2L25 2L25 1L27 1L27 3L25 3L25 4L23 4L23 3L21 3L21 2L22 2L22 1L20 1L20 2L19 2L19 0L16 0L16 1L15 1L15 0ZM12 1L12 2L11 2L11 3L10 3L10 4L9 4L9 5L10 5L10 6L9 6L9 7L10 7L10 6L11 6L11 5L10 5L10 4L11 4L11 3L12 3L12 4L13 4L13 3L12 3L12 2L13 2L13 1ZM16 1L16 3L17 3L17 4L18 4L18 5L16 5L16 6L15 6L15 2L14 2L14 5L12 5L12 6L13 6L13 7L14 7L14 6L15 6L15 7L16 7L16 6L17 6L17 8L18 8L18 9L20 9L20 10L21 10L21 11L22 11L22 10L25 10L25 9L22 9L22 8L20 8L20 5L22 5L22 4L18 4L18 2L17 2L17 1ZM29 1L29 2L30 2L30 4L32 4L32 5L30 5L30 6L29 6L29 5L28 5L28 4L29 4L29 3L28 3L28 4L27 4L27 5L28 5L28 6L27 6L27 9L26 9L26 10L27 10L27 11L26 11L26 12L23 12L23 13L24 13L24 14L23 14L23 15L24 15L24 16L23 16L23 17L25 17L25 18L27 18L27 17L28 17L28 20L27 20L27 21L29 21L29 19L30 19L30 20L31 20L31 22L30 22L30 23L31 23L31 24L32 24L32 25L33 25L33 28L32 28L32 27L31 27L31 26L29 26L29 25L30 25L30 24L29 24L29 22L28 22L28 23L27 23L27 24L28 24L28 25L27 25L27 26L28 26L28 27L26 27L26 28L25 28L25 29L26 29L26 31L25 31L25 30L24 30L24 32L25 32L25 33L24 33L24 34L26 34L26 35L25 35L25 36L24 36L24 37L26 37L26 38L25 38L25 39L27 39L27 40L28 40L28 41L29 41L29 42L27 42L27 43L29 43L29 42L30 42L30 41L29 41L29 40L30 40L30 39L31 39L31 41L34 41L34 42L32 42L32 43L33 43L33 44L32 44L32 47L33 47L33 46L35 46L35 44L37 44L37 43L35 43L35 41L36 41L36 40L38 40L38 41L37 41L37 42L38 42L38 43L40 43L40 41L39 41L39 40L41 40L41 39L42 39L42 40L44 40L44 39L45 39L45 37L46 37L46 36L45 36L45 37L44 37L44 36L43 36L43 35L42 35L42 34L43 34L43 33L44 33L44 32L47 32L47 31L46 31L46 28L47 28L47 27L48 27L48 26L47 26L47 25L45 25L45 27L44 27L44 28L43 28L43 27L42 27L42 28L43 28L43 29L44 29L44 30L43 30L43 31L42 31L42 32L41 32L41 33L42 33L42 34L39 34L39 32L40 32L40 31L41 31L41 30L42 30L42 29L41 29L41 28L40 28L40 27L38 27L38 26L40 26L40 24L39 24L39 23L40 23L40 22L41 22L41 21L42 21L42 17L43 17L43 16L42 16L42 15L43 15L43 14L41 14L41 13L43 13L43 12L44 12L44 13L46 13L46 12L44 12L44 11L43 11L43 10L42 10L42 11L43 11L43 12L41 12L41 13L40 13L40 14L41 14L41 16L39 16L39 17L40 17L40 18L36 18L36 16L37 16L37 17L38 17L38 16L37 16L37 15L38 15L38 14L39 14L39 12L38 12L38 11L36 11L36 10L35 10L35 9L36 9L36 8L35 8L35 7L36 7L36 6L37 6L37 7L38 7L38 6L37 6L37 4L33 4L33 3L34 3L34 2L33 2L33 3L32 3L32 2L31 2L31 1ZM18 5L18 7L19 7L19 5ZM23 5L23 8L26 8L26 5ZM33 5L33 6L32 6L32 7L31 7L31 6L30 6L30 7L29 7L29 6L28 6L28 9L27 9L27 10L28 10L28 11L30 11L30 12L26 12L26 13L25 13L25 17L26 17L26 13L27 13L27 14L31 14L31 13L32 13L32 14L34 14L34 16L33 16L33 15L32 15L32 16L31 16L31 18L30 18L30 17L29 17L29 16L30 16L30 15L28 15L28 17L29 17L29 18L30 18L30 19L32 19L32 20L34 20L34 18L35 18L35 16L36 16L36 15L37 15L37 14L38 14L38 13L37 13L37 12L36 12L36 13L35 13L35 14L34 14L34 13L32 13L32 12L33 12L33 11L32 11L32 12L31 12L31 11L30 11L30 10L32 10L32 9L31 9L31 8L32 8L32 7L33 7L33 6L34 6L34 7L35 7L35 5ZM21 6L21 7L22 7L22 6ZM24 6L24 7L25 7L25 6ZM40 6L40 7L41 7L41 6ZM39 8L39 9L41 9L41 8ZM48 8L48 9L46 9L46 10L48 10L48 11L49 11L49 10L48 10L48 9L49 9L49 8ZM6 9L6 10L7 10L7 9ZM10 9L10 10L11 10L11 11L12 11L12 10L11 10L11 9ZM28 9L28 10L30 10L30 9ZM33 9L33 10L34 10L34 12L35 12L35 10L34 10L34 9ZM6 11L6 12L7 12L7 11ZM30 12L30 13L31 13L31 12ZM6 13L6 14L5 14L5 15L6 15L6 16L7 16L7 17L6 17L6 18L7 18L7 17L8 17L8 18L10 18L10 17L11 17L11 16L10 16L10 14L9 14L9 13ZM6 14L6 15L7 15L7 16L8 16L8 15L9 15L9 14ZM47 14L47 15L49 15L49 14ZM17 16L17 17L18 17L18 16ZM32 16L32 18L34 18L34 17L33 17L33 16ZM41 16L41 17L42 17L42 16ZM44 16L44 17L45 17L45 16ZM46 18L46 19L45 19L45 20L44 20L44 21L43 21L43 22L46 22L46 20L47 20L47 18ZM1 19L1 20L2 20L2 21L1 21L1 23L2 23L2 24L3 24L3 25L4 25L4 24L3 24L3 22L5 22L5 21L6 21L6 20L7 20L7 19L6 19L6 20L5 20L5 19L4 19L4 21L3 21L3 19ZM9 19L9 20L10 20L10 19ZM37 19L37 20L36 20L36 21L35 21L35 22L33 22L33 21L32 21L32 22L31 22L31 23L32 23L32 24L33 24L33 23L34 23L34 25L36 25L36 26L34 26L34 27L35 27L35 30L33 30L33 32L31 32L31 31L32 31L32 28L31 28L31 27L30 27L30 28L29 28L29 27L28 27L28 28L26 28L26 29L28 29L28 28L29 28L29 30L31 30L31 31L30 31L30 34L29 34L29 32L28 32L28 30L27 30L27 32L26 32L26 33L27 33L27 34L28 34L28 35L27 35L27 36L33 36L33 34L34 34L34 35L35 35L35 36L36 36L36 37L37 37L37 38L33 38L33 39L32 39L32 40L34 40L34 39L35 39L35 40L36 40L36 39L37 39L37 38L38 38L38 39L41 39L41 38L42 38L42 39L44 39L44 37L42 37L42 36L41 36L41 35L40 35L40 36L39 36L39 38L38 38L38 36L36 36L36 34L34 34L34 33L36 33L36 32L37 32L37 34L38 34L38 35L39 35L39 34L38 34L38 32L39 32L39 31L40 31L40 30L38 30L38 29L40 29L40 28L38 28L38 29L37 29L37 28L36 28L36 26L37 26L37 24L38 24L38 23L39 23L39 22L40 22L40 21L41 21L41 20L40 20L40 19ZM39 20L39 21L37 21L37 23L35 23L35 24L37 24L37 23L38 23L38 22L39 22L39 21L40 21L40 20ZM14 21L14 22L16 22L16 21ZM32 22L32 23L33 23L33 22ZM5 23L5 26L8 26L8 23ZM23 23L23 26L26 26L26 23ZM41 23L41 26L44 26L44 23ZM6 24L6 25L7 25L7 24ZM21 24L21 25L22 25L22 24ZM24 24L24 25L25 25L25 24ZM42 24L42 25L43 25L43 24ZM9 25L9 26L11 26L11 27L10 27L10 29L9 29L9 28L7 28L7 27L4 27L4 26L3 26L3 27L4 27L4 28L3 28L3 29L2 29L2 30L1 30L1 32L2 32L2 35L3 35L3 32L5 32L5 31L6 31L6 32L7 32L7 33L6 33L6 34L5 34L5 35L4 35L4 36L5 36L5 35L6 35L6 36L7 36L7 37L8 37L8 36L7 36L7 35L6 35L6 34L8 34L8 33L13 33L13 32L14 32L14 31L13 31L13 32L10 32L10 31L8 31L8 30L7 30L7 29L9 29L9 30L11 30L11 31L12 31L12 29L13 29L13 27L12 27L12 26L13 26L13 25ZM14 25L14 27L15 27L15 28L14 28L14 29L15 29L15 33L14 33L14 34L13 34L13 35L16 35L16 39L18 39L18 38L20 38L20 39L19 39L19 40L18 40L18 41L16 41L16 40L15 40L15 39L14 39L14 38L15 38L15 37L13 37L13 36L12 36L12 34L10 34L10 37L13 37L13 38L9 38L9 40L8 40L8 41L9 41L9 40L10 40L10 39L13 39L13 40L12 40L12 41L10 41L10 42L9 42L9 44L10 44L10 42L11 42L11 43L13 43L13 44L12 44L12 45L10 45L10 47L11 47L11 46L12 46L12 45L13 45L13 44L14 44L14 45L15 45L15 43L16 43L16 46L15 46L15 48L16 48L16 47L17 47L17 45L18 45L18 44L17 44L17 43L18 43L18 42L20 42L20 43L19 43L19 45L22 45L22 42L20 42L20 41L19 41L19 40L24 40L24 38L23 38L23 39L22 39L22 35L23 35L23 33L22 33L22 35L20 35L20 36L19 36L19 37L17 37L17 35L16 35L16 32L17 32L17 31L18 31L18 30L17 30L17 29L16 29L16 27L15 27L15 25ZM21 26L21 27L22 27L22 26ZM46 26L46 27L47 27L47 26ZM11 27L11 28L12 28L12 27ZM4 28L4 30L5 30L5 29L7 29L7 28ZM30 28L30 29L31 29L31 28ZM33 28L33 29L34 29L34 28ZM44 28L44 29L45 29L45 28ZM2 30L2 31L3 31L3 30ZM6 30L6 31L7 31L7 32L8 32L8 31L7 31L7 30ZM35 30L35 31L34 31L34 32L36 32L36 30ZM37 30L37 32L38 32L38 30ZM44 30L44 31L43 31L43 32L44 32L44 31L45 31L45 30ZM27 32L27 33L28 33L28 32ZM17 33L17 34L18 34L18 33ZM31 33L31 34L30 34L30 35L31 35L31 34L32 34L32 33ZM40 36L40 37L41 37L41 36ZM27 37L27 39L28 39L28 40L29 40L29 39L28 39L28 38L32 38L32 37ZM7 38L7 39L8 39L8 38ZM13 40L13 41L12 41L12 42L13 42L13 43L14 43L14 42L15 42L15 41L14 41L14 40ZM13 41L13 42L14 42L14 41ZM23 41L23 44L26 44L26 41ZM41 41L41 44L44 44L44 41ZM24 42L24 43L25 43L25 42ZM42 42L42 43L43 43L43 42ZM47 42L47 43L49 43L49 42ZM20 43L20 44L21 44L21 43ZM34 43L34 44L33 44L33 45L34 45L34 44L35 44L35 43ZM38 45L38 46L37 46L37 47L38 47L38 46L39 46L39 47L40 47L40 46L42 46L42 45L40 45L40 46L39 46L39 45ZM43 45L43 46L44 46L44 47L45 47L45 48L48 48L48 47L47 47L47 46L46 46L46 47L45 47L45 46L44 46L44 45ZM24 46L24 47L23 47L23 48L24 48L24 49L25 49L25 48L26 48L26 47L25 47L25 46ZM24 47L24 48L25 48L25 47ZM0 0L0 7L7 7L7 0ZM1 1L1 6L6 6L6 1ZM2 2L2 5L5 5L5 2ZM42 0L42 7L49 7L49 0ZM43 1L43 6L48 6L48 1ZM44 2L44 5L47 5L47 2ZM0 42L0 49L7 49L7 42ZM1 43L1 48L6 48L6 43ZM2 44L2 47L5 47L5 44Z" fill="#000000"/></g></g></svg>
