<?xml version="1.0" encoding="UTF-8"?>
<svg xmlns="http://www.w3.org/2000/svg" version="1.1" width="300" height="300" viewBox="0 0 300 300"><rect x="0" y="0" width="300" height="300" fill="#ffffff"/><g transform="scale(8.108)"><g transform="translate(0,0)"><path fill-rule="evenodd" d="M11 0L11 1L10 1L10 2L8 2L8 3L9 3L9 4L8 4L8 7L9 7L9 4L10 4L10 2L11 2L11 1L12 1L12 0ZM13 0L13 3L14 3L14 2L15 2L15 3L16 3L16 2L15 2L15 1L16 1L16 0L15 0L15 1L14 1L14 0ZM18 0L18 1L19 1L19 2L18 2L18 3L17 3L17 5L16 5L16 7L15 7L15 5L12 5L12 7L13 7L13 8L11 8L11 6L10 6L10 8L11 8L11 9L10 9L10 11L9 11L9 10L6 10L6 9L7 9L7 8L6 8L6 9L5 9L5 8L4 8L4 10L2 10L2 12L1 12L1 9L2 9L2 8L1 8L1 9L0 9L0 12L1 12L1 13L0 13L0 16L1 16L1 17L2 17L2 16L5 16L5 17L3 17L3 18L2 18L2 20L3 20L3 19L4 19L4 18L6 18L6 19L5 19L5 20L4 20L4 21L7 21L7 20L8 20L8 21L9 21L9 22L6 22L6 23L7 23L7 24L5 24L5 23L4 23L4 22L3 22L3 21L2 21L2 22L3 22L3 23L1 23L1 24L0 24L0 26L2 26L2 27L3 27L3 28L0 28L0 29L3 29L3 28L5 28L5 29L7 29L7 28L8 28L8 30L9 30L9 29L10 29L10 28L11 28L11 29L12 29L12 30L11 30L11 31L9 31L9 32L8 32L8 33L9 33L9 34L11 34L11 35L12 35L12 36L11 36L11 37L15 37L15 36L16 36L16 35L15 35L15 34L17 34L17 33L18 33L18 36L17 36L17 37L20 37L20 36L19 36L19 34L20 34L20 35L21 35L21 36L22 36L22 35L23 35L23 34L21 34L21 33L20 33L20 32L21 32L21 31L20 31L20 32L19 32L19 29L17 29L17 28L18 28L18 26L19 26L19 24L21 24L21 25L20 25L20 28L21 28L21 26L23 26L23 27L22 27L22 29L20 29L20 30L22 30L22 29L23 29L23 31L22 31L22 33L23 33L23 31L25 31L25 30L24 30L24 29L25 29L25 27L24 27L24 25L27 25L27 24L28 24L28 21L32 21L32 22L31 22L31 24L30 24L30 25L28 25L28 27L29 27L29 28L27 28L27 26L26 26L26 28L27 28L27 29L26 29L26 33L27 33L27 34L25 34L25 35L24 35L24 36L23 36L23 37L26 37L26 35L29 35L29 36L30 36L30 35L31 35L31 33L36 33L36 32L35 32L35 31L36 31L36 29L35 29L35 30L34 30L34 29L33 29L33 28L31 28L31 27L32 27L32 26L33 26L33 27L34 27L34 26L35 26L35 25L36 25L36 24L37 24L37 20L36 20L36 17L37 17L37 16L36 16L36 15L34 15L34 12L36 12L36 13L37 13L37 11L35 11L35 10L34 10L34 11L33 11L33 10L32 10L32 11L31 11L31 12L30 12L30 11L28 11L28 10L27 10L27 9L26 9L26 7L27 7L27 8L28 8L28 9L30 9L30 10L31 10L31 9L33 9L33 8L31 8L31 9L30 9L30 8L29 8L29 5L28 5L28 3L26 3L26 2L25 2L25 1L22 1L22 2L20 2L20 1L21 1L21 0ZM27 0L27 1L28 1L28 0ZM19 2L19 3L20 3L20 2ZM23 2L23 5L21 5L21 4L22 4L22 3L21 3L21 4L20 4L20 5L17 5L17 9L18 9L18 8L20 8L20 9L19 9L19 12L20 12L20 11L21 11L21 10L22 10L22 9L23 9L23 8L24 8L24 9L25 9L25 8L24 8L24 6L23 6L23 5L25 5L25 7L26 7L26 6L27 6L27 7L28 7L28 5L26 5L26 3L24 3L24 2ZM20 5L20 8L21 8L21 9L20 9L20 10L21 10L21 9L22 9L22 8L23 8L23 6L22 6L22 7L21 7L21 5ZM13 6L13 7L14 7L14 9L12 9L12 10L13 10L13 12L11 12L11 13L13 13L13 14L14 14L14 12L15 12L15 14L16 14L16 11L15 11L15 10L16 10L16 9L15 9L15 7L14 7L14 6ZM18 6L18 7L19 7L19 6ZM8 8L8 9L9 9L9 8ZM34 8L34 9L35 9L35 8ZM4 10L4 12L2 12L2 13L3 13L3 15L5 15L5 14L7 14L7 15L6 15L6 16L7 16L7 15L8 15L8 14L9 14L9 15L10 15L10 16L8 16L8 18L9 18L9 17L11 17L11 18L12 18L12 15L11 15L11 14L9 14L9 13L10 13L10 12L9 12L9 11L6 11L6 10ZM24 10L24 11L22 11L22 12L21 12L21 14L22 14L22 13L24 13L24 14L25 14L25 16L23 16L23 15L22 15L22 16L21 16L21 15L20 15L20 16L19 16L19 17L20 17L20 18L21 18L21 19L22 19L22 21L20 21L20 20L19 20L19 21L20 21L20 23L21 23L21 22L22 22L22 23L23 23L23 22L24 22L24 21L25 21L25 20L26 20L26 19L27 19L27 18L25 18L25 19L24 19L24 20L23 20L23 19L22 19L22 17L23 17L23 18L24 18L24 17L26 17L26 16L27 16L27 15L26 15L26 14L25 14L25 13L26 13L26 10ZM17 11L17 13L18 13L18 14L20 14L20 13L18 13L18 11ZM24 11L24 13L25 13L25 11ZM6 12L6 13L9 13L9 12ZM27 12L27 14L28 14L28 15L29 15L29 16L32 16L32 17L34 17L34 18L33 18L33 19L32 19L32 18L31 18L31 17L28 17L28 19L29 19L29 18L30 18L30 19L32 19L32 21L33 21L33 23L32 23L32 24L31 24L31 25L32 25L32 24L33 24L33 25L34 25L34 22L35 22L35 23L36 23L36 21L34 21L34 18L35 18L35 17L34 17L34 15L33 15L33 14L31 14L31 13L33 13L33 12L31 12L31 13L30 13L30 12ZM29 13L29 14L30 14L30 15L31 15L31 14L30 14L30 13ZM1 14L1 16L2 16L2 14ZM13 15L13 17L14 17L14 18L13 18L13 19L9 19L9 20L11 20L11 21L13 21L13 26L11 26L11 25L12 25L12 24L11 24L11 23L12 23L12 22L11 22L11 23L10 23L10 22L9 22L9 23L10 23L10 24L7 24L7 25L6 25L6 26L5 26L5 24L4 24L4 27L6 27L6 28L7 28L7 27L6 27L6 26L8 26L8 28L10 28L10 26L11 26L11 28L13 28L13 30L14 30L14 31L11 31L11 32L12 32L12 33L13 33L13 34L12 34L12 35L14 35L14 34L15 34L15 33L16 33L16 31L17 31L17 32L18 32L18 33L19 33L19 32L18 32L18 31L17 31L17 30L16 30L16 29L15 29L15 30L14 30L14 27L13 27L13 26L14 26L14 24L15 24L15 26L16 26L16 27L17 27L17 26L16 26L16 25L17 25L17 24L18 24L18 23L19 23L19 22L18 22L18 20L17 20L17 21L16 21L16 20L15 20L15 21L14 21L14 20L13 20L13 19L14 19L14 18L15 18L15 19L17 19L17 18L16 18L16 17L18 17L18 16L17 16L17 15L16 15L16 17L14 17L14 15ZM32 15L32 16L33 16L33 15ZM6 17L6 18L7 18L7 17ZM0 18L0 20L1 20L1 18ZM6 19L6 20L7 20L7 19ZM0 21L0 22L1 22L1 21ZM15 21L15 22L16 22L16 21ZM26 21L26 22L25 22L25 23L24 23L24 24L22 24L22 25L24 25L24 24L26 24L26 23L27 23L27 21ZM29 22L29 23L30 23L30 22ZM16 23L16 24L17 24L17 23ZM10 24L10 25L8 25L8 26L10 26L10 25L11 25L11 24ZM29 26L29 27L31 27L31 26ZM23 28L23 29L24 29L24 28ZM29 29L29 32L32 32L32 29ZM15 30L15 31L14 31L14 32L15 32L15 31L16 31L16 30ZM27 30L27 31L28 31L28 30ZM30 30L30 31L31 31L31 30ZM33 30L33 31L34 31L34 30ZM24 32L24 33L25 33L25 32ZM27 32L27 33L28 33L28 32ZM29 33L29 35L30 35L30 33ZM35 34L35 35L32 35L32 36L31 36L31 37L37 37L37 36L36 36L36 34ZM8 35L8 36L9 36L9 35ZM0 0L0 7L7 7L7 0ZM1 1L1 6L6 6L6 1ZM2 2L2 5L5 5L5 2ZM30 0L30 7L37 7L37 0ZM31 1L31 6L36 6L36 1ZM32 2L32 5L35 5L35 2ZM0 30L0 37L7 37L7 30ZM1 31L1 36L6 36L6 31ZM2 32L2 35L5 35L5 32Z" fill="#000000"/></g></g></svg>
