<?xml version="1.0" encoding="UTF-8"?>
<svg xmlns="http://www.w3.org/2000/svg" version="1.1" width="300" height="300" viewBox="0 0 300 300"><rect x="0" y="0" width="300" height="300" fill="#ffffff"/><g transform="scale(8.108)"><g transform="translate(0,0)"><path fill-rule="evenodd" d="M8 0L8 1L9 1L9 0ZM11 0L11 1L12 1L12 0ZM16 0L16 1L13 1L13 2L9 2L9 3L11 3L11 5L9 5L9 4L8 4L8 7L9 7L9 6L10 6L10 7L11 7L11 6L12 6L12 8L14 8L14 10L13 10L13 9L11 9L11 8L9 8L9 9L10 9L10 11L9 11L9 10L6 10L6 9L8 9L8 8L1 8L1 12L2 12L2 13L4 13L4 12L5 12L5 11L4 11L4 9L5 9L5 10L6 10L6 11L7 11L7 12L6 12L6 13L5 13L5 14L3 14L3 16L2 16L2 17L0 17L0 18L3 18L3 19L4 19L4 20L5 20L5 19L7 19L7 20L6 20L6 21L4 21L4 22L3 22L3 23L1 23L1 21L0 21L0 29L1 29L1 24L2 24L2 25L3 25L3 24L4 24L4 25L5 25L5 24L6 24L6 25L11 25L11 24L13 24L13 25L12 25L12 26L11 26L11 27L10 27L10 26L8 26L8 28L9 28L9 27L10 27L10 29L8 29L8 36L10 36L10 35L11 35L11 37L12 37L12 35L14 35L14 36L15 36L15 37L17 37L17 36L19 36L19 33L21 33L21 34L20 34L20 35L21 35L21 36L20 36L20 37L22 37L22 36L23 36L23 37L25 37L25 36L26 36L26 37L28 37L28 36L29 36L29 37L32 37L32 35L30 35L30 34L34 34L34 33L36 33L36 32L37 32L37 30L36 30L36 29L37 29L37 26L35 26L35 25L36 25L36 24L34 24L34 22L35 22L35 23L36 23L36 22L37 22L37 18L36 18L36 17L37 17L37 14L36 14L36 13L37 13L37 12L36 12L36 11L37 11L37 10L36 10L36 9L37 9L37 8L36 8L36 9L35 9L35 10L36 10L36 11L35 11L35 12L36 12L36 13L35 13L35 14L34 14L34 13L33 13L33 12L34 12L34 11L33 11L33 10L34 10L34 9L33 9L33 8L31 8L31 9L30 9L30 10L28 10L28 9L29 9L29 6L28 6L28 5L29 5L29 4L28 4L28 5L26 5L26 4L27 4L27 3L28 3L28 2L29 2L29 1L27 1L27 0L25 0L25 1L23 1L23 4L21 4L21 3L22 3L22 0L21 0L21 1L20 1L20 3L19 3L19 2L17 2L17 0ZM18 0L18 1L19 1L19 0ZM13 2L13 3L14 3L14 5L13 5L13 7L14 7L14 8L15 8L15 9L16 9L16 8L18 8L18 10L19 10L19 7L20 7L20 6L21 6L21 7L22 7L22 8L21 8L21 9L23 9L23 7L24 7L24 9L25 9L25 10L22 10L22 11L23 11L23 12L22 12L22 13L25 13L25 12L26 12L26 14L25 14L25 16L22 16L22 17L23 17L23 19L22 19L22 18L21 18L21 19L22 19L22 20L20 20L20 21L22 21L22 22L19 22L19 21L18 21L18 22L19 22L19 23L22 23L22 24L19 24L19 26L18 26L18 23L17 23L17 20L15 20L15 21L14 21L14 20L13 20L13 21L14 21L14 22L11 22L11 21L12 21L12 20L11 20L11 19L13 19L13 18L12 18L12 16L10 16L10 17L9 17L9 18L10 18L10 17L11 17L11 19L10 19L10 22L11 22L11 23L10 23L10 24L11 24L11 23L13 23L13 24L14 24L14 25L13 25L13 26L12 26L12 27L13 27L13 29L14 29L14 30L13 30L13 31L10 31L10 30L12 30L12 28L11 28L11 29L10 29L10 30L9 30L9 31L10 31L10 32L9 32L9 35L10 35L10 32L11 32L11 33L13 33L13 34L14 34L14 35L15 35L15 36L17 36L17 35L16 35L16 34L17 34L17 31L18 31L18 33L19 33L19 31L21 31L21 32L23 32L23 33L22 33L22 35L23 35L23 34L25 34L25 33L24 33L24 32L26 32L26 30L27 30L27 31L28 31L28 27L29 27L29 28L30 28L30 27L29 27L29 26L27 26L27 29L26 29L26 30L25 30L25 31L24 31L24 30L23 30L23 29L25 29L25 28L26 28L26 26L23 26L23 25L30 25L30 24L29 24L29 23L30 23L30 22L33 22L33 21L30 21L30 20L28 20L28 19L30 19L30 18L31 18L31 19L32 19L32 20L36 20L36 18L35 18L35 17L34 17L34 16L36 16L36 14L35 14L35 15L34 15L34 14L33 14L33 13L30 13L30 12L31 12L31 11L32 11L32 10L31 10L31 11L30 11L30 12L29 12L29 11L28 11L28 14L29 14L29 13L30 13L30 15L32 15L32 16L31 16L31 17L27 17L27 16L26 16L26 15L27 15L27 11L25 11L25 10L27 10L27 9L26 9L26 8L28 8L28 6L27 6L27 7L26 7L26 6L25 6L25 7L24 7L24 6L23 6L23 5L25 5L25 4L26 4L26 3L27 3L27 2L26 2L26 3L25 3L25 2L24 2L24 3L25 3L25 4L23 4L23 5L22 5L22 6L21 6L21 4L19 4L19 3L15 3L15 2ZM16 4L16 5L15 5L15 6L14 6L14 7L15 7L15 8L16 8L16 7L17 7L17 6L18 6L18 7L19 7L19 4L18 4L18 5L17 5L17 4ZM16 5L16 6L15 6L15 7L16 7L16 6L17 6L17 5ZM22 6L22 7L23 7L23 6ZM25 7L25 8L26 8L26 7ZM11 10L11 13L10 13L10 12L7 12L7 13L6 13L6 14L5 14L5 15L4 15L4 16L3 16L3 18L4 18L4 19L5 19L5 16L7 16L7 17L6 17L6 18L8 18L8 16L9 16L9 15L10 15L10 14L12 14L12 15L15 15L15 16L14 16L14 17L15 17L15 18L16 18L16 14L17 14L17 17L18 17L18 16L19 16L19 18L20 18L20 16L21 16L21 15L20 15L20 14L21 14L21 12L20 12L20 14L17 14L17 13L19 13L19 11L18 11L18 12L17 12L17 10L16 10L16 11L15 11L15 10L14 10L14 11L13 11L13 10ZM14 11L14 12L13 12L13 13L12 13L12 14L13 14L13 13L14 13L14 12L15 12L15 13L17 13L17 12L15 12L15 11ZM24 11L24 12L25 12L25 11ZM0 13L0 14L1 14L1 13ZM6 14L6 15L9 15L9 14ZM22 14L22 15L24 15L24 14ZM19 15L19 16L20 16L20 15ZM28 15L28 16L29 16L29 15ZM33 15L33 16L32 16L32 17L33 17L33 19L35 19L35 18L34 18L34 17L33 17L33 16L34 16L34 15ZM25 16L25 17L24 17L24 18L25 18L25 17L26 17L26 16ZM27 18L27 19L26 19L26 20L27 20L27 21L26 21L26 22L27 22L27 23L26 23L26 24L28 24L28 23L29 23L29 22L30 22L30 21L28 21L28 20L27 20L27 19L28 19L28 18ZM0 19L0 20L2 20L2 21L3 21L3 20L2 20L2 19ZM24 19L24 20L25 20L25 19ZM6 21L6 22L7 22L7 23L6 23L6 24L7 24L7 23L8 23L8 22L9 22L9 21L8 21L8 22L7 22L7 21ZM24 21L24 22L25 22L25 21ZM27 21L27 22L28 22L28 21ZM35 21L35 22L36 22L36 21ZM15 22L15 24L16 24L16 22ZM22 22L22 23L23 23L23 22ZM4 23L4 24L5 24L5 23ZM24 23L24 24L25 24L25 23ZM32 23L32 25L31 25L31 26L32 26L32 27L31 27L31 28L34 28L34 29L33 29L33 31L34 31L34 32L33 32L33 33L34 33L34 32L35 32L35 31L36 31L36 30L35 30L35 28L34 28L34 27L33 27L33 26L34 26L34 24L33 24L33 23ZM22 24L22 25L23 25L23 24ZM15 25L15 28L16 28L16 29L15 29L15 30L16 30L16 29L17 29L17 30L21 30L21 29L23 29L23 28L21 28L21 26L20 26L20 27L18 27L18 28L16 28L16 27L17 27L17 25ZM2 26L2 27L3 27L3 29L7 29L7 28L5 28L5 27L7 27L7 26ZM13 26L13 27L14 27L14 26ZM22 26L22 27L23 27L23 26ZM24 27L24 28L25 28L25 27ZM20 28L20 29L21 29L21 28ZM29 29L29 32L32 32L32 29ZM22 30L22 31L23 31L23 30ZM30 30L30 31L31 31L31 30ZM13 31L13 32L15 32L15 31ZM14 33L14 34L16 34L16 33ZM26 33L26 34L27 34L27 33ZM28 33L28 35L26 35L26 36L28 36L28 35L29 35L29 36L30 36L30 35L29 35L29 34L30 34L30 33ZM11 34L11 35L12 35L12 34ZM36 34L36 36L33 36L33 37L37 37L37 34ZM24 35L24 36L25 36L25 35ZM0 0L0 7L7 7L7 0ZM1 1L1 6L6 6L6 1ZM2 2L2 5L5 5L5 2ZM30 0L30 7L37 7L37 0ZM31 1L31 6L36 6L36 1ZM32 2L32 5L35 5L35 2ZM0 30L0 37L7 37L7 30ZM1 31L1 36L6 36L6 31ZM2 32L2 35L5 35L5 32Z" fill="#000000"/></g></g></svg>
