<?xml version="1.0" encoding="UTF-8"?>
<svg xmlns="http://www.w3.org/2000/svg" version="1.1" width="300" height="300" viewBox="0 0 300 300"><rect x="0" y="0" width="300" height="300" fill="#ffffff"/><g transform="scale(8.108)"><g transform="translate(0,0)"><path fill-rule="evenodd" d="M9 0L9 2L8 2L8 3L9 3L9 4L8 4L8 7L9 7L9 6L10 6L10 9L9 9L9 8L8 8L8 9L9 9L9 10L10 10L10 11L8 11L8 10L6 10L6 11L5 11L5 8L4 8L4 10L1 10L1 11L0 11L0 12L3 12L3 13L7 13L7 14L5 14L5 15L4 15L4 14L3 14L3 15L4 15L4 16L5 16L5 17L3 17L3 18L2 18L2 19L0 19L0 20L1 20L1 21L0 21L0 22L2 22L2 23L1 23L1 24L0 24L0 26L2 26L2 27L3 27L3 28L0 28L0 29L3 29L3 28L4 28L4 29L5 29L5 28L4 28L4 25L5 25L5 26L6 26L6 27L7 27L7 26L8 26L8 30L9 30L9 28L10 28L10 29L11 29L11 30L12 30L12 29L13 29L13 28L14 28L14 29L15 29L15 30L16 30L16 31L15 31L15 33L16 33L16 32L17 32L17 33L18 33L18 34L20 34L20 35L21 35L21 36L22 36L22 35L23 35L23 34L21 34L21 33L20 33L20 32L21 32L21 30L22 30L22 29L23 29L23 31L22 31L22 33L23 33L23 32L24 32L24 33L25 33L25 31L24 31L24 30L25 30L25 29L23 29L23 27L24 27L24 28L25 28L25 25L27 25L27 24L28 24L28 23L30 23L30 22L28 22L28 21L31 21L31 23L33 23L33 24L32 24L32 25L31 25L31 24L30 24L30 25L28 25L28 27L29 27L29 28L27 28L27 26L26 26L26 29L28 29L28 33L27 33L27 30L26 30L26 33L27 33L27 34L25 34L25 35L24 35L24 36L23 36L23 37L26 37L26 35L27 35L27 37L28 37L28 35L29 35L29 36L30 36L30 37L31 37L31 35L32 35L32 37L37 37L37 36L36 36L36 34L35 34L35 35L32 35L32 33L33 33L33 31L34 31L34 33L36 33L36 32L35 32L35 31L36 31L36 29L37 29L37 27L36 27L36 24L37 24L37 20L36 20L36 19L34 19L34 18L33 18L33 17L32 17L32 16L30 16L30 17L29 17L29 14L30 14L30 15L34 15L34 17L37 17L37 16L36 16L36 15L35 15L35 14L34 14L34 12L35 12L35 13L37 13L37 11L36 11L36 9L35 9L35 8L34 8L34 9L35 9L35 10L34 10L34 11L33 11L33 10L32 10L32 11L31 11L31 12L30 12L30 13L29 13L29 14L27 14L27 12L29 12L29 11L30 11L30 10L31 10L31 9L33 9L33 8L31 8L31 9L30 9L30 8L29 8L29 5L28 5L28 2L29 2L29 0L26 0L26 1L28 1L28 2L27 2L27 3L26 3L26 2L25 2L25 1L23 1L23 2L24 2L24 3L26 3L26 5L28 5L28 7L27 7L27 6L26 6L26 7L25 7L25 5L23 5L23 3L22 3L22 2L20 2L20 1L22 1L22 0L16 0L16 1L13 1L13 2L15 2L15 3L14 3L14 4L17 4L17 6L16 6L16 5L13 5L13 4L12 4L12 5L11 5L11 2L10 2L10 0ZM11 0L11 1L12 1L12 0ZM16 1L16 2L17 2L17 1ZM9 2L9 3L10 3L10 2ZM19 2L19 3L17 3L17 4L19 4L19 3L20 3L20 2ZM21 3L21 4L20 4L20 5L18 5L18 6L17 6L17 7L16 7L16 6L15 6L15 7L14 7L14 6L13 6L13 7L14 7L14 10L13 10L13 9L12 9L12 10L13 10L13 11L12 11L12 12L13 12L13 13L12 13L12 14L8 14L8 15L6 15L6 16L7 16L7 17L6 17L6 18L7 18L7 17L8 17L8 18L10 18L10 17L11 17L11 18L12 18L12 16L11 16L11 15L12 15L12 14L13 14L13 13L14 13L14 14L17 14L17 13L19 13L19 12L21 12L21 13L20 13L20 14L19 14L19 17L20 17L20 18L21 18L21 19L22 19L22 21L21 21L21 22L20 22L20 20L17 20L17 21L16 21L16 19L17 19L17 18L16 18L16 17L15 17L15 16L16 16L16 15L13 15L13 17L14 17L14 19L15 19L15 21L14 21L14 20L13 20L13 19L11 19L11 21L12 21L12 20L13 20L13 24L12 24L12 23L9 23L9 24L8 24L8 23L6 23L6 22L7 22L7 21L8 21L8 22L10 22L10 21L9 21L9 20L10 20L10 19L9 19L9 20L7 20L7 19L5 19L5 21L4 21L4 20L3 20L3 19L4 19L4 18L3 18L3 19L2 19L2 22L3 22L3 21L4 21L4 23L6 23L6 24L5 24L5 25L6 25L6 26L7 26L7 25L9 25L9 26L11 26L11 27L10 27L10 28L11 28L11 27L12 27L12 28L13 28L13 26L14 26L14 24L15 24L15 26L16 26L16 27L17 27L17 28L18 28L18 30L19 30L19 31L20 31L20 30L21 30L21 29L22 29L22 27L23 27L23 26L21 26L21 23L23 23L23 22L24 22L24 21L25 21L25 20L26 20L26 19L27 19L27 18L25 18L25 19L24 19L24 20L23 20L23 19L22 19L22 17L23 17L23 18L24 18L24 17L26 17L26 16L27 16L27 17L28 17L28 20L27 20L27 21L26 21L26 22L25 22L25 23L24 23L24 24L22 24L22 25L25 25L25 24L26 24L26 23L27 23L27 21L28 21L28 20L30 20L30 19L31 19L31 21L34 21L34 23L36 23L36 21L34 21L34 19L32 19L32 18L31 18L31 17L30 17L30 19L29 19L29 17L28 17L28 15L26 15L26 14L24 14L24 17L23 17L23 15L22 15L22 16L20 16L20 14L22 14L22 13L26 13L26 12L27 12L27 11L26 11L26 10L24 10L24 11L22 11L22 12L21 12L21 11L19 11L19 10L23 10L23 9L21 9L21 7L22 7L22 8L24 8L24 9L25 9L25 8L24 8L24 6L23 6L23 7L22 7L22 6L21 6L21 7L20 7L20 5L22 5L22 3ZM9 4L9 5L10 5L10 6L11 6L11 7L12 7L12 6L11 6L11 5L10 5L10 4ZM18 6L18 8L16 8L16 7L15 7L15 8L16 8L16 10L14 10L14 11L16 11L16 13L17 13L17 11L18 11L18 8L20 8L20 7L19 7L19 6ZM26 7L26 9L27 9L27 10L28 10L28 11L29 11L29 10L30 10L30 9L28 9L28 8L27 8L27 7ZM1 8L1 9L2 9L2 8ZM6 8L6 9L7 9L7 8ZM10 9L10 10L11 10L11 9ZM4 11L4 12L5 12L5 11ZM6 11L6 12L7 12L7 13L8 13L8 12L7 12L7 11ZM24 11L24 12L25 12L25 11ZM9 12L9 13L10 13L10 12ZM14 12L14 13L15 13L15 12ZM32 12L32 13L30 13L30 14L32 14L32 13L33 13L33 12ZM0 13L0 15L1 15L1 16L0 16L0 18L1 18L1 17L2 17L2 15L1 15L1 13ZM9 15L9 16L10 16L10 15ZM17 16L17 17L18 17L18 16ZM15 18L15 19L16 19L16 18ZM18 18L18 19L19 19L19 18ZM6 20L6 21L5 21L5 22L6 22L6 21L7 21L7 20ZM15 21L15 22L16 22L16 21ZM18 21L18 22L19 22L19 21ZM16 23L16 24L17 24L17 23ZM19 23L19 24L20 24L20 23ZM2 24L2 25L3 25L3 24ZM6 24L6 25L7 25L7 24ZM10 24L10 25L11 25L11 24ZM12 25L12 26L13 26L13 25ZM16 25L16 26L17 26L17 27L20 27L20 25L19 25L19 26L18 26L18 25ZM29 26L29 27L30 27L30 28L33 28L33 30L34 30L34 31L35 31L35 29L36 29L36 28L35 28L35 26L34 26L34 27L33 27L33 26L32 26L32 27L31 27L31 26ZM14 27L14 28L15 28L15 27ZM6 28L6 29L7 29L7 28ZM19 28L19 30L20 30L20 28ZM29 29L29 32L32 32L32 29ZM13 30L13 31L9 31L9 32L8 32L8 33L9 33L9 35L8 35L8 36L10 36L10 37L14 37L14 36L15 36L15 37L20 37L20 36L18 36L18 35L17 35L17 34L15 34L15 35L14 35L14 36L13 36L13 35L12 35L12 34L14 34L14 32L13 32L13 31L14 31L14 30ZM30 30L30 31L31 31L31 30ZM17 31L17 32L18 32L18 33L19 33L19 32L18 32L18 31ZM12 32L12 33L13 33L13 32ZM28 33L28 34L29 34L29 35L30 35L30 33ZM11 35L11 36L12 36L12 35ZM0 0L0 7L7 7L7 0ZM1 1L1 6L6 6L6 1ZM2 2L2 5L5 5L5 2ZM30 0L30 7L37 7L37 0ZM31 1L31 6L36 6L36 1ZM32 2L32 5L35 5L35 2ZM0 30L0 37L7 37L7 30ZM1 31L1 36L6 36L6 31ZM2 32L2 35L5 35L5 32Z" fill="#000000"/></g></g></svg>
