<?xml version="1.0" encoding="UTF-8"?>
<svg xmlns="http://www.w3.org/2000/svg" version="1.1" width="300" height="300" viewBox="0 0 300 300"><rect x="0" y="0" width="300" height="300" fill="#ffffff"/><g transform="scale(8.108)"><g transform="translate(0,0)"><path fill-rule="evenodd" d="M10 0L10 1L8 1L8 2L9 2L9 3L8 3L8 5L9 5L9 6L8 6L8 9L7 9L7 8L3 8L3 9L4 9L4 10L3 10L3 11L2 11L2 8L1 8L1 9L0 9L0 13L2 13L2 14L1 14L1 15L0 15L0 16L1 16L1 17L4 17L4 16L5 16L5 15L3 15L3 16L2 16L2 14L3 14L3 13L5 13L5 12L6 12L6 13L8 13L8 16L6 16L6 17L8 17L8 18L10 18L10 16L9 16L9 14L13 14L13 13L12 13L12 12L14 12L14 15L16 15L16 16L12 16L12 15L11 15L11 16L12 16L12 17L11 17L11 20L8 20L8 22L6 22L6 21L7 21L7 20L6 20L6 21L5 21L5 22L4 22L4 20L5 20L5 19L7 19L7 18L5 18L5 19L4 19L4 18L3 18L3 19L4 19L4 20L2 20L2 18L0 18L0 20L1 20L1 21L0 21L0 29L1 29L1 27L2 27L2 29L5 29L5 28L3 28L3 27L4 27L4 26L5 26L5 27L7 27L7 28L6 28L6 29L7 29L7 28L8 28L8 30L9 30L9 27L11 27L11 26L12 26L12 28L10 28L10 29L11 29L11 31L13 31L13 32L14 32L14 36L15 36L15 37L17 37L17 36L15 36L15 35L18 35L18 36L19 36L19 37L20 37L20 36L19 36L19 33L18 33L18 30L19 30L19 32L20 32L20 34L21 34L21 35L22 35L22 34L23 34L23 33L22 33L22 31L20 31L20 30L19 30L19 27L18 27L18 26L25 26L25 27L27 27L27 28L25 28L25 29L24 29L24 28L23 28L23 27L21 27L21 28L20 28L20 29L21 29L21 30L23 30L23 31L24 31L24 33L25 33L25 34L24 34L24 35L25 35L25 36L24 36L24 37L26 37L26 34L28 34L28 33L30 33L30 34L32 34L32 35L33 35L33 36L32 36L32 37L34 37L34 36L36 36L36 37L37 37L37 34L35 34L35 33L36 33L36 32L37 32L37 30L34 30L34 31L33 31L33 29L34 29L34 26L35 26L35 27L36 27L36 29L37 29L37 26L35 26L35 25L34 25L34 24L36 24L36 23L34 23L34 22L35 22L35 21L36 21L36 22L37 22L37 18L36 18L36 17L37 17L37 14L36 14L36 13L37 13L37 10L36 10L36 12L35 12L35 11L34 11L34 13L32 13L32 12L33 12L33 11L31 11L31 10L32 10L32 9L34 9L34 10L35 10L35 9L36 9L36 8L35 8L35 9L34 9L34 8L32 8L32 9L31 9L31 8L29 8L29 6L28 6L28 8L27 8L27 4L25 4L25 3L24 3L24 2L25 2L25 1L24 1L24 0L17 0L17 2L16 2L16 4L15 4L15 3L13 3L13 2L11 2L11 0ZM13 0L13 1L16 1L16 0ZM28 0L28 1L29 1L29 0ZM18 1L18 2L17 2L17 4L16 4L16 5L13 5L13 3L12 3L12 6L11 6L11 5L10 5L10 3L11 3L11 2L10 2L10 3L9 3L9 5L10 5L10 6L9 6L9 8L10 8L10 10L7 10L7 9L5 9L5 11L6 11L6 12L8 12L8 13L9 13L9 12L10 12L10 10L11 10L11 11L12 11L12 10L14 10L14 11L15 11L15 10L16 10L16 11L17 11L17 12L16 12L16 13L15 13L15 14L16 14L16 15L17 15L17 16L16 16L16 17L15 17L15 18L14 18L14 17L13 17L13 18L12 18L12 19L14 19L14 20L13 20L13 21L14 21L14 22L12 22L12 20L11 20L11 21L9 21L9 22L8 22L8 23L9 23L9 24L10 24L10 25L9 25L9 26L10 26L10 25L11 25L11 24L10 24L10 23L11 23L11 22L12 22L12 24L13 24L13 25L12 25L12 26L13 26L13 28L14 28L14 27L15 27L15 29L14 29L14 30L13 30L13 29L12 29L12 30L13 30L13 31L14 31L14 30L15 30L15 29L16 29L16 30L18 30L18 29L16 29L16 27L17 27L17 26L16 26L16 25L15 25L15 26L14 26L14 24L15 24L15 23L16 23L16 21L17 21L17 22L18 22L18 23L17 23L17 24L18 24L18 25L20 25L20 23L21 23L21 25L22 25L22 24L23 24L23 23L21 23L21 22L22 22L22 19L23 19L23 22L24 22L24 23L25 23L25 24L24 24L24 25L25 25L25 26L27 26L27 27L28 27L28 28L27 28L27 30L26 30L26 32L25 32L25 33L26 33L26 32L27 32L27 31L28 31L28 28L30 28L30 27L31 27L31 28L32 28L32 27L33 27L33 26L29 26L29 27L28 27L28 25L25 25L25 24L26 24L26 22L27 22L27 20L29 20L29 21L28 21L28 23L27 23L27 24L28 24L28 23L29 23L29 24L30 24L30 23L29 23L29 21L30 21L30 22L31 22L31 23L32 23L32 24L31 24L31 25L32 25L32 24L33 24L33 22L32 22L32 19L26 19L26 21L25 21L25 20L24 20L24 19L25 19L25 18L27 18L27 17L25 17L25 16L29 16L29 13L27 13L27 14L26 14L26 12L28 12L28 11L26 11L26 9L24 9L24 11L23 11L23 9L22 9L22 6L23 6L23 7L24 7L24 8L26 8L26 6L25 6L25 7L24 7L24 5L25 5L25 4L24 4L24 5L21 5L21 8L20 8L20 9L21 9L21 10L22 10L22 11L20 11L20 12L19 12L19 11L18 11L18 10L19 10L19 8L18 8L18 9L17 9L17 7L18 7L18 5L19 5L19 7L20 7L20 5L19 5L19 4L18 4L18 2L19 2L19 1ZM20 1L20 2L21 2L21 1ZM27 2L27 3L28 3L28 2ZM20 3L20 4L21 4L21 3ZM17 4L17 5L16 5L16 7L15 7L15 6L14 6L14 8L13 8L13 9L16 9L16 7L17 7L17 5L18 5L18 4ZM10 6L10 8L11 8L11 9L12 9L12 8L11 8L11 6ZM12 6L12 7L13 7L13 6ZM28 8L28 9L27 9L27 10L28 10L28 9L29 9L29 12L30 12L30 9L29 9L29 8ZM6 10L6 11L7 11L7 10ZM3 11L3 12L2 12L2 13L3 13L3 12L4 12L4 11ZM8 11L8 12L9 12L9 11ZM24 11L24 12L21 12L21 13L22 13L22 14L21 14L21 15L20 15L20 14L19 14L19 15L20 15L20 16L21 16L21 17L20 17L20 18L21 18L21 19L22 19L22 18L21 18L21 17L22 17L22 16L21 16L21 15L23 15L23 14L24 14L24 13L25 13L25 11ZM17 13L17 14L18 14L18 13ZM30 13L30 15L31 15L31 14L32 14L32 13ZM34 13L34 15L33 15L33 16L31 16L31 17L29 17L29 18L33 18L33 21L35 21L35 20L36 20L36 18L35 18L35 17L36 17L36 14L35 14L35 13ZM6 14L6 15L7 15L7 14ZM25 14L25 15L24 15L24 16L25 16L25 15L26 15L26 14ZM27 14L27 15L28 15L28 14ZM34 15L34 17L35 17L35 15ZM8 16L8 17L9 17L9 16ZM17 16L17 17L16 17L16 18L15 18L15 20L17 20L17 21L18 21L18 20L19 20L19 16ZM23 17L23 19L24 19L24 18L25 18L25 17ZM16 18L16 19L18 19L18 18ZM34 18L34 19L35 19L35 18ZM20 20L20 22L19 22L19 23L20 23L20 22L21 22L21 20ZM30 20L30 21L31 21L31 20ZM24 21L24 22L25 22L25 21ZM1 22L1 23L2 23L2 22ZM5 22L5 23L6 23L6 24L4 24L4 23L3 23L3 24L2 24L2 25L5 25L5 26L8 26L8 24L7 24L7 23L6 23L6 22ZM14 22L14 23L15 23L15 22ZM6 24L6 25L7 25L7 24ZM15 26L15 27L16 27L16 26ZM23 29L23 30L24 30L24 31L25 31L25 30L24 30L24 29ZM29 29L29 32L32 32L32 29ZM30 30L30 31L31 31L31 30ZM8 31L8 34L9 34L9 35L8 35L8 36L9 36L9 35L10 35L10 36L11 36L11 35L13 35L13 33L11 33L11 35L10 35L10 33L9 33L9 31ZM15 31L15 34L17 34L17 32L16 32L16 31ZM34 31L34 33L35 33L35 31ZM21 33L21 34L22 34L22 33ZM32 33L32 34L33 34L33 33ZM27 35L27 37L29 37L29 36L30 36L30 37L31 37L31 36L30 36L30 35L29 35L29 36L28 36L28 35ZM21 36L21 37L23 37L23 36ZM0 0L0 7L7 7L7 0ZM1 1L1 6L6 6L6 1ZM2 2L2 5L5 5L5 2ZM30 0L30 7L37 7L37 0ZM31 1L31 6L36 6L36 1ZM32 2L32 5L35 5L35 2ZM0 30L0 37L7 37L7 30ZM1 31L1 36L6 36L6 31ZM2 32L2 35L5 35L5 32Z" fill="#000000"/></g></g></svg>
