<?xml version="1.0" encoding="UTF-8"?>
<svg xmlns="http://www.w3.org/2000/svg" version="1.1" width="300" height="300" viewBox="0 0 300 300"><rect x="0" y="0" width="300" height="300" fill="#ffffff"/><g transform="scale(6.122)"><g transform="translate(0,0)"><path fill-rule="evenodd" d="M9 0L9 1L8 1L8 3L10 3L10 4L9 4L9 5L10 5L10 7L11 7L11 8L12 8L12 9L14 9L14 10L12 10L12 12L11 12L11 9L8 9L8 10L6 10L6 9L7 9L7 8L5 8L5 11L8 11L8 10L9 10L9 11L10 11L10 14L9 14L9 12L6 12L6 13L5 13L5 12L3 12L3 10L4 10L4 8L1 8L1 9L0 9L0 10L2 10L2 11L1 11L1 12L0 12L0 16L1 16L1 15L2 15L2 14L5 14L5 15L4 15L4 17L3 17L3 16L2 16L2 17L1 17L1 19L2 19L2 20L3 20L3 18L4 18L4 19L7 19L7 20L6 20L6 21L5 21L5 20L4 20L4 21L5 21L5 22L4 22L4 26L2 26L2 27L0 27L0 28L3 28L3 29L0 29L0 30L1 30L1 31L0 31L0 36L1 36L1 40L0 40L0 41L3 41L3 40L4 40L4 39L2 39L2 36L3 36L3 38L4 38L4 36L5 36L5 37L7 37L7 36L6 36L6 35L7 35L7 34L10 34L10 35L9 35L9 37L8 37L8 38L5 38L5 39L8 39L8 38L9 38L9 39L10 39L10 43L8 43L8 44L11 44L11 45L13 45L13 46L11 46L11 49L12 49L12 48L15 48L15 49L18 49L18 48L20 48L20 49L21 49L21 48L20 48L20 47L21 47L21 46L23 46L23 47L22 47L22 48L24 48L24 49L25 49L25 47L24 47L24 46L23 46L23 45L28 45L28 46L29 46L29 49L30 49L30 48L31 48L31 49L32 49L32 48L33 48L33 49L34 49L34 48L35 48L35 49L38 49L38 48L39 48L39 47L41 47L41 46L40 46L40 45L44 45L44 46L43 46L43 48L45 48L45 49L49 49L49 48L47 48L47 47L45 47L45 45L46 45L46 46L49 46L49 40L48 40L48 42L47 42L47 40L46 40L46 41L45 41L45 39L48 39L48 38L49 38L49 36L48 36L48 35L46 35L46 37L45 37L45 36L44 36L44 35L42 35L42 33L43 33L43 31L44 31L44 33L45 33L45 32L46 32L46 31L47 31L47 33L48 33L48 31L49 31L49 29L48 29L48 27L47 27L47 28L45 28L45 30L44 30L44 27L46 27L46 25L48 25L48 26L49 26L49 25L48 25L48 24L49 24L49 23L48 23L48 24L47 24L47 23L45 23L45 22L43 22L43 21L41 21L41 22L40 22L40 20L38 20L38 19L37 19L37 17L36 17L36 14L35 14L35 15L34 15L34 14L33 14L33 13L31 13L31 12L30 12L30 11L31 11L31 10L32 10L32 12L34 12L34 11L36 11L36 13L37 13L37 12L39 12L39 13L38 13L38 15L37 15L37 16L39 16L39 17L38 17L38 18L39 18L39 17L40 17L40 18L41 18L41 17L42 17L42 16L43 16L43 17L44 17L44 18L42 18L42 19L41 19L41 20L42 20L42 19L43 19L43 20L44 20L44 19L45 19L45 21L46 21L46 22L47 22L47 21L46 21L46 18L45 18L45 15L48 15L48 14L49 14L49 13L48 13L48 12L49 12L49 11L48 11L48 8L46 8L46 10L43 10L43 9L42 9L42 11L43 11L43 14L42 14L42 13L41 13L41 11L40 11L40 10L39 10L39 11L38 11L38 10L37 10L37 9L39 9L39 8L40 8L40 7L41 7L41 6L40 6L40 7L39 7L39 5L38 5L38 2L39 2L39 4L40 4L40 3L41 3L41 0L40 0L40 1L38 1L38 0L35 0L35 1L34 1L34 2L32 2L32 1L31 1L31 0L29 0L29 2L28 2L28 0L26 0L26 2L25 2L25 1L24 1L24 0L23 0L23 1L24 1L24 2L22 2L22 0L21 0L21 2L20 2L20 3L19 3L19 4L20 4L20 5L18 5L18 7L17 7L17 4L18 4L18 3L17 3L17 2L16 2L16 3L15 3L15 0ZM16 0L16 1L18 1L18 2L19 2L19 0ZM10 1L10 3L12 3L12 4L10 4L10 5L13 5L13 7L14 7L14 5L15 5L15 8L14 8L14 9L15 9L15 11L13 11L13 12L14 12L14 13L12 13L12 14L10 14L10 15L8 15L8 13L6 13L6 14L7 14L7 15L5 15L5 16L7 16L7 17L4 17L4 18L9 18L9 17L8 17L8 16L10 16L10 19L11 19L11 18L12 18L12 19L13 19L13 20L14 20L14 21L13 21L13 22L12 22L12 20L11 20L11 21L10 21L10 20L9 20L9 19L8 19L8 20L9 20L9 21L6 21L6 22L9 22L9 24L11 24L11 23L14 23L14 21L16 21L16 25L15 25L15 26L11 26L11 25L10 25L10 26L9 26L9 28L8 28L8 29L6 29L6 28L7 28L7 27L4 27L4 28L5 28L5 29L3 29L3 30L4 30L4 32L3 32L3 31L1 31L1 32L2 32L2 33L1 33L1 35L2 35L2 33L5 33L5 32L7 32L7 33L6 33L6 34L7 34L7 33L9 33L9 32L7 32L7 31L8 31L8 30L9 30L9 31L11 31L11 33L10 33L10 34L11 34L11 33L12 33L12 32L14 32L14 33L13 33L13 34L12 34L12 35L10 35L10 37L9 37L9 38L10 38L10 37L11 37L11 39L12 39L12 41L11 41L11 43L12 43L12 44L13 44L13 45L16 45L16 46L13 46L13 47L15 47L15 48L17 48L17 47L18 47L18 46L17 46L17 45L19 45L19 47L20 47L20 46L21 46L21 43L22 43L22 40L23 40L23 39L24 39L24 38L25 38L25 37L27 37L27 38L26 38L26 39L27 39L27 42L28 42L28 43L27 43L27 44L28 44L28 43L29 43L29 44L30 44L30 45L32 45L32 46L33 46L33 48L34 48L34 46L35 46L35 48L36 48L36 47L37 47L37 48L38 48L38 47L39 47L39 45L40 45L40 42L39 42L39 41L40 41L40 40L41 40L41 39L42 39L42 40L44 40L44 39L45 39L45 38L43 38L43 37L44 37L44 36L42 36L42 35L41 35L41 34L40 34L40 37L39 37L39 33L42 33L42 31L41 31L41 30L43 30L43 27L42 27L42 28L41 28L41 30L40 30L40 31L41 31L41 32L39 32L39 33L38 33L38 32L37 32L37 31L38 31L38 30L39 30L39 29L40 29L40 26L39 26L39 27L36 27L36 28L35 28L35 25L34 25L34 24L36 24L36 23L37 23L37 25L36 25L36 26L38 26L38 25L40 25L40 23L39 23L39 21L38 21L38 20L35 20L35 18L36 18L36 17L34 17L34 15L33 15L33 14L32 14L32 15L33 15L33 17L32 17L32 16L31 16L31 15L30 15L30 16L31 16L31 18L33 18L33 17L34 17L34 19L31 19L31 20L30 20L30 18L28 18L28 17L26 17L26 18L28 18L28 19L26 19L26 20L30 20L30 21L31 21L31 22L32 22L32 21L33 21L33 23L34 23L34 24L32 24L32 26L31 26L31 25L30 25L30 24L31 24L31 23L30 23L30 22L27 22L27 23L30 23L30 24L28 24L28 26L27 26L27 28L26 28L26 29L25 29L25 30L24 30L24 32L23 32L23 33L22 33L22 35L23 35L23 34L24 34L24 35L25 35L25 36L23 36L23 38L22 38L22 39L21 39L21 38L19 38L19 37L20 37L20 36L21 36L21 37L22 37L22 36L21 36L21 34L20 34L20 33L19 33L19 32L20 32L20 31L19 31L19 30L21 30L21 29L20 29L20 28L21 28L21 27L20 27L20 26L22 26L22 24L21 24L21 25L19 25L19 24L20 24L20 22L19 22L19 24L18 24L18 20L20 20L20 21L21 21L21 22L22 22L22 21L21 21L21 20L20 20L20 19L21 19L21 17L20 17L20 19L19 19L19 18L18 18L18 16L19 16L19 15L21 15L21 16L23 16L23 15L24 15L24 16L25 16L25 15L26 15L26 16L28 16L28 15L27 15L27 14L28 14L28 13L27 13L27 14L25 14L25 15L24 15L24 13L26 13L26 12L27 12L27 11L29 11L29 9L30 9L30 8L31 8L31 7L32 7L32 6L33 6L33 8L32 8L32 10L33 10L33 8L34 8L34 6L35 6L35 9L34 9L34 10L35 10L35 9L37 9L37 7L38 7L38 5L37 5L37 7L36 7L36 5L35 5L35 4L34 4L34 5L32 5L32 6L31 6L31 7L30 7L30 6L29 6L29 5L31 5L31 4L33 4L33 3L30 3L30 4L28 4L28 2L26 2L26 3L27 3L27 9L26 9L26 11L24 11L24 12L23 12L23 11L21 11L21 10L25 10L25 9L21 9L21 7L22 7L22 6L21 6L21 7L20 7L20 6L19 6L19 8L18 8L18 9L17 9L17 8L16 8L16 4L15 4L15 3L14 3L14 4L13 4L13 2L14 2L14 1L13 1L13 2L12 2L12 1ZM35 1L35 2L34 2L34 3L36 3L36 2L38 2L38 1ZM21 2L21 3L22 3L22 4L21 4L21 5L22 5L22 4L23 4L23 3L22 3L22 2ZM24 2L24 4L25 4L25 2ZM23 5L23 8L26 8L26 5ZM8 6L8 7L9 7L9 6ZM11 6L11 7L12 7L12 6ZM24 6L24 7L25 7L25 6ZM28 6L28 7L29 7L29 8L28 8L28 9L29 9L29 8L30 8L30 7L29 7L29 6ZM19 8L19 12L20 12L20 13L19 13L19 14L20 14L20 13L22 13L22 14L21 14L21 15L22 15L22 14L23 14L23 12L20 12L20 8ZM2 9L2 10L3 10L3 9ZM16 10L16 11L15 11L15 12L18 12L18 11L17 11L17 10ZM36 10L36 11L37 11L37 10ZM46 10L46 11L45 11L45 12L44 12L44 14L43 14L43 15L44 15L44 14L45 14L45 13L46 13L46 14L47 14L47 13L46 13L46 11L47 11L47 12L48 12L48 11L47 11L47 10ZM1 12L1 14L2 14L2 13L3 13L3 12ZM29 12L29 13L30 13L30 14L31 14L31 13L30 13L30 12ZM15 13L15 14L17 14L17 15L15 15L15 16L12 16L12 18L13 18L13 19L14 19L14 20L16 20L16 21L17 21L17 19L18 19L18 18L16 18L16 17L15 17L15 16L17 16L17 15L18 15L18 14L17 14L17 13ZM39 13L39 15L41 15L41 13ZM13 14L13 15L14 15L14 14ZM7 15L7 16L8 16L8 15ZM10 15L10 16L11 16L11 15ZM40 16L40 17L41 17L41 16ZM46 16L46 17L47 17L47 16ZM48 16L48 18L47 18L47 19L49 19L49 16ZM2 17L2 18L3 18L3 17ZM14 17L14 18L15 18L15 19L16 19L16 18L15 18L15 17ZM24 17L24 18L22 18L22 19L24 19L24 21L23 21L23 22L25 22L25 17ZM0 20L0 22L1 22L1 20ZM31 20L31 21L32 21L32 20ZM33 20L33 21L35 21L35 22L34 22L34 23L35 23L35 22L37 22L37 21L35 21L35 20ZM2 22L2 23L3 23L3 22ZM5 23L5 26L8 26L8 23ZM23 23L23 26L26 26L26 23ZM41 23L41 26L44 26L44 23ZM0 24L0 25L1 25L1 24ZM2 24L2 25L3 25L3 24ZM6 24L6 25L7 25L7 24ZM13 24L13 25L14 25L14 24ZM24 24L24 25L25 25L25 24ZM42 24L42 25L43 25L43 24ZM18 25L18 28L17 28L17 26L16 26L16 28L15 28L15 27L13 27L13 28L12 28L12 27L11 27L11 26L10 26L10 29L9 29L9 30L10 30L10 29L14 29L14 32L15 32L15 33L16 33L16 34L13 34L13 35L14 35L14 36L15 36L15 37L13 37L13 39L16 39L16 40L18 40L18 43L19 43L19 44L20 44L20 43L21 43L21 41L20 41L20 40L21 40L21 39L17 39L17 37L18 37L18 36L17 36L17 35L19 35L19 34L18 34L18 33L16 33L16 31L15 31L15 30L17 30L17 32L18 32L18 28L20 28L20 27L19 27L19 25ZM33 25L33 26L32 26L32 28L31 28L31 26L30 26L30 29L29 29L29 30L30 30L30 29L33 29L33 31L32 31L32 30L31 30L31 31L32 31L32 34L31 34L31 33L30 33L30 32L29 32L29 33L28 33L28 32L27 32L27 31L28 31L28 30L27 30L27 31L25 31L25 32L24 32L24 34L25 34L25 32L27 32L27 33L26 33L26 36L27 36L27 37L28 37L28 35L29 35L29 36L30 36L30 37L32 37L32 38L30 38L30 40L31 40L31 39L32 39L32 41L34 41L34 42L35 42L35 43L33 43L33 44L34 44L34 45L35 45L35 46L38 46L38 45L39 45L39 44L38 44L38 41L39 41L39 40L37 40L37 42L35 42L35 41L34 41L34 38L33 38L33 37L34 37L34 36L35 36L35 38L37 38L37 37L38 37L38 39L39 39L39 37L38 37L38 34L36 34L36 36L35 36L35 34L34 34L34 35L32 35L32 34L33 34L33 33L37 33L37 32L36 32L36 31L37 31L37 30L36 30L36 29L33 29L33 27L34 27L34 25ZM28 26L28 28L29 28L29 26ZM22 27L22 28L23 28L23 29L22 29L22 30L23 30L23 29L24 29L24 27ZM14 28L14 29L15 29L15 28ZM46 29L46 30L45 30L45 31L46 31L46 30L47 30L47 31L48 31L48 29ZM6 30L6 31L7 31L7 30ZM12 30L12 31L13 31L13 30ZM35 30L35 31L33 31L33 32L35 32L35 31L36 31L36 30ZM29 33L29 35L30 35L30 36L31 36L31 35L30 35L30 33ZM3 34L3 35L4 35L4 34ZM15 35L15 36L16 36L16 37L15 37L15 38L16 38L16 37L17 37L17 36L16 36L16 35ZM11 36L11 37L12 37L12 36ZM32 36L32 37L33 37L33 36ZM41 36L41 37L40 37L40 38L41 38L41 37L42 37L42 36ZM47 36L47 37L46 37L46 38L47 38L47 37L48 37L48 36ZM27 38L27 39L28 39L28 40L29 40L29 38ZM32 38L32 39L33 39L33 38ZM6 40L6 41L8 41L8 42L9 42L9 40ZM13 40L13 43L14 43L14 44L15 44L15 43L17 43L17 42L16 42L16 41L15 41L15 40ZM19 41L19 42L20 42L20 41ZM23 41L23 44L26 44L26 41ZM28 41L28 42L29 42L29 43L31 43L31 44L32 44L32 42L29 42L29 41ZM41 41L41 44L44 44L44 41ZM14 42L14 43L15 43L15 42ZM24 42L24 43L25 43L25 42ZM42 42L42 43L43 43L43 42ZM46 42L46 45L47 45L47 42ZM16 44L16 45L17 45L17 44ZM36 44L36 45L38 45L38 44ZM8 45L8 48L9 48L9 49L10 49L10 48L9 48L9 46L10 46L10 45ZM16 46L16 47L17 47L17 46ZM26 46L26 47L27 47L27 46ZM27 48L27 49L28 49L28 48ZM40 48L40 49L41 49L41 48ZM0 0L0 7L7 7L7 0ZM1 1L1 6L6 6L6 1ZM2 2L2 5L5 5L5 2ZM42 0L42 7L49 7L49 0ZM43 1L43 6L48 6L48 1ZM44 2L44 5L47 5L47 2ZM0 42L0 49L7 49L7 42ZM1 43L1 48L6 48L6 43ZM2 44L2 47L5 47L5 44Z" fill="#000000"/></g></g></svg>
