<?xml version="1.0" encoding="UTF-8"?>
<svg xmlns="http://www.w3.org/2000/svg" version="1.1" width="300" height="300" viewBox="0 0 300 300"><rect x="0" y="0" width="300" height="300" fill="#ffffff"/><g transform="scale(8.108)"><g transform="translate(0,0)"><path fill-rule="evenodd" d="M11 0L11 5L12 5L12 7L11 7L11 6L10 6L10 1L8 1L8 3L9 3L9 6L8 6L8 7L9 7L9 6L10 6L10 7L11 7L11 8L12 8L12 11L11 11L11 9L10 9L10 10L9 10L9 9L7 9L7 8L5 8L5 9L7 9L7 10L6 10L6 11L7 11L7 12L5 12L5 13L7 13L7 14L6 14L6 15L7 15L7 16L6 16L6 17L5 17L5 18L6 18L6 19L4 19L4 18L3 18L3 17L4 17L4 14L3 14L3 16L1 16L1 15L2 15L2 13L3 13L3 11L2 11L2 10L4 10L4 11L5 11L5 10L4 10L4 8L1 8L1 9L0 9L0 12L1 12L1 11L2 11L2 13L1 13L1 15L0 15L0 16L1 16L1 17L0 17L0 19L3 19L3 20L0 20L0 22L2 22L2 24L4 24L4 25L2 25L2 26L1 26L1 27L0 27L0 28L1 28L1 27L3 27L3 28L2 28L2 29L4 29L4 28L6 28L6 29L8 29L8 30L9 30L9 28L6 28L6 27L7 27L7 26L8 26L8 27L11 27L11 29L10 29L10 31L11 31L11 32L12 32L12 33L10 33L10 32L9 32L9 31L8 31L8 32L9 32L9 33L8 33L8 36L10 36L10 37L12 37L12 36L13 36L13 37L17 37L17 36L18 36L18 37L19 37L19 36L20 36L20 37L22 37L22 36L20 36L20 35L17 35L17 36L16 36L16 33L13 33L13 32L14 32L14 31L15 31L15 32L17 32L17 34L19 34L19 31L21 31L21 32L20 32L20 33L21 33L21 34L22 34L22 33L21 33L21 32L22 32L22 31L23 31L23 32L24 32L24 31L23 31L23 30L25 30L25 29L26 29L26 31L27 31L27 30L28 30L28 34L29 34L29 33L30 33L30 37L32 37L32 36L33 36L33 35L34 35L34 37L37 37L37 36L35 36L35 35L36 35L36 34L35 34L35 35L34 35L34 32L33 32L33 31L35 31L35 30L36 30L36 31L37 31L37 27L36 27L36 26L37 26L37 25L36 25L36 24L37 24L37 21L36 21L36 19L37 19L37 17L36 17L36 18L35 18L35 16L34 16L34 19L32 19L32 21L33 21L33 20L34 20L34 19L35 19L35 21L36 21L36 24L35 24L35 22L34 22L34 23L33 23L33 22L31 22L31 24L30 24L30 21L29 21L29 20L30 20L30 19L31 19L31 18L32 18L32 17L30 17L30 16L31 16L31 13L32 13L32 15L33 15L33 14L34 14L34 13L33 13L33 11L34 11L34 12L35 12L35 13L36 13L36 14L37 14L37 12L36 12L36 8L34 8L34 9L30 9L30 10L33 10L33 11L32 11L32 12L31 12L31 11L29 11L29 10L28 10L28 9L27 9L27 8L28 8L28 7L29 7L29 6L28 6L28 7L27 7L27 5L28 5L28 4L29 4L29 3L28 3L28 2L29 2L29 1L28 1L28 2L27 2L27 3L26 3L26 4L25 4L25 2L26 2L26 1L27 1L27 0L25 0L25 2L23 2L23 1L22 1L22 0L21 0L21 1L22 1L22 2L23 2L23 4L21 4L21 5L20 5L20 7L21 7L21 5L22 5L22 8L19 8L19 9L18 9L18 10L17 10L17 9L15 9L15 6L16 6L16 7L17 7L17 8L18 8L18 7L19 7L19 6L18 6L18 4L20 4L20 3L21 3L21 2L19 2L19 3L18 3L18 2L17 2L17 3L16 3L16 0L14 0L14 3L13 3L13 4L12 4L12 2L13 2L13 1L12 1L12 0ZM18 0L18 1L19 1L19 0ZM14 3L14 6L13 6L13 7L14 7L14 6L15 6L15 4L16 4L16 5L17 5L17 4L16 4L16 3ZM24 5L24 6L23 6L23 8L22 8L22 10L21 10L21 12L19 12L19 11L17 11L17 10L15 10L15 11L17 11L17 14L16 14L16 13L15 13L15 12L13 12L13 11L12 11L12 12L11 12L11 14L10 14L10 15L11 15L11 16L9 16L9 14L7 14L7 15L8 15L8 16L7 16L7 17L6 17L6 18L7 18L7 17L10 17L10 18L9 18L9 19L8 19L8 20L7 20L7 19L6 19L6 20L7 20L7 21L3 21L3 22L5 22L5 23L6 23L6 24L7 24L7 25L6 25L6 26L7 26L7 25L8 25L8 26L9 26L9 24L10 24L10 26L12 26L12 27L16 27L16 28L17 28L17 29L18 29L18 30L17 30L17 32L18 32L18 31L19 31L19 28L18 28L18 27L19 27L19 26L21 26L21 25L23 25L23 26L22 26L22 27L21 27L21 29L22 29L22 28L24 28L24 29L25 29L25 28L26 28L26 27L25 27L25 28L24 28L24 24L25 24L25 25L26 25L26 26L28 26L28 25L29 25L29 28L33 28L33 30L34 30L34 29L35 29L35 28L34 28L34 27L35 27L35 26L32 26L32 25L33 25L33 23L32 23L32 25L30 25L30 24L28 24L28 25L27 25L27 24L25 24L25 23L26 23L26 21L27 21L27 23L28 23L28 20L29 20L29 19L28 19L28 20L27 20L27 17L28 17L28 14L29 14L29 12L28 12L28 10L27 10L27 9L25 9L25 10L24 10L24 11L26 11L26 13L27 13L27 14L26 14L26 15L25 15L25 14L24 14L24 12L23 12L23 8L24 8L24 6L25 6L25 7L26 7L26 5ZM17 6L17 7L18 7L18 6ZM13 9L13 10L14 10L14 9ZM19 9L19 10L20 10L20 9ZM34 9L34 11L35 11L35 9ZM8 10L8 12L7 12L7 13L8 13L8 12L10 12L10 11L9 11L9 10ZM26 10L26 11L27 11L27 10ZM18 12L18 13L19 13L19 12ZM21 12L21 13L20 13L20 14L18 14L18 15L19 15L19 19L18 19L18 16L17 16L17 15L16 15L16 14L15 14L15 16L14 16L14 17L13 17L13 22L12 22L12 23L10 23L10 24L11 24L11 25L12 25L12 26L15 26L15 25L16 25L16 26L17 26L17 27L18 27L18 26L19 26L19 23L20 23L20 25L21 25L21 23L22 23L22 24L23 24L23 23L25 23L25 21L26 21L26 20L24 20L24 19L23 19L23 20L21 20L21 23L20 23L20 22L18 22L18 21L19 21L19 20L20 20L20 19L21 19L21 17L20 17L20 14L21 14L21 13L22 13L22 15L21 15L21 16L23 16L23 17L25 17L25 18L26 18L26 17L27 17L27 15L26 15L26 16L24 16L24 15L23 15L23 13L22 13L22 12ZM27 12L27 13L28 13L28 12ZM12 13L12 14L11 14L11 15L14 15L14 14L13 14L13 13ZM36 15L36 16L37 16L37 15ZM15 16L15 17L16 17L16 18L15 18L15 23L14 23L14 22L13 22L13 23L14 23L14 25L15 25L15 24L16 24L16 25L17 25L17 26L18 26L18 23L16 23L16 18L17 18L17 16ZM10 18L10 19L9 19L9 20L8 20L8 21L9 21L9 22L11 22L11 21L10 21L10 20L11 20L11 18ZM17 19L17 21L18 21L18 19ZM23 20L23 21L22 21L22 23L23 23L23 22L24 22L24 20ZM6 22L6 23L7 23L7 22ZM0 24L0 25L1 25L1 24ZM3 26L3 27L4 27L4 26ZM27 27L27 28L28 28L28 27ZM12 28L12 29L11 29L11 30L12 30L12 31L14 31L14 30L13 30L13 29L14 29L14 28ZM15 29L15 31L16 31L16 29ZM29 29L29 32L32 32L32 29ZM21 30L21 31L22 31L22 30ZM30 30L30 31L31 31L31 30ZM35 32L35 33L37 33L37 32ZM25 33L25 35L23 35L23 37L25 37L25 35L26 35L26 34L27 34L27 33ZM31 33L31 34L32 34L32 33ZM12 34L12 35L14 35L14 36L15 36L15 34ZM10 35L10 36L11 36L11 35ZM27 35L27 36L26 36L26 37L28 37L28 35ZM0 0L0 7L7 7L7 0ZM1 1L1 6L6 6L6 1ZM2 2L2 5L5 5L5 2ZM30 0L30 7L37 7L37 0ZM31 1L31 6L36 6L36 1ZM32 2L32 5L35 5L35 2ZM0 30L0 37L7 37L7 30ZM1 31L1 36L6 36L6 31ZM2 32L2 35L5 35L5 32Z" fill="#000000"/></g></g></svg>
