<?xml version="1.0" encoding="UTF-8"?>
<svg xmlns="http://www.w3.org/2000/svg" version="1.1" width="300" height="300" viewBox="0 0 300 300"><rect x="0" y="0" width="300" height="300" fill="#ffffff"/><g transform="scale(6.122)"><g transform="translate(0,0)"><path fill-rule="evenodd" d="M8 0L8 1L10 1L10 3L9 3L9 4L8 4L8 7L9 7L9 10L8 10L8 11L7 11L7 10L6 10L6 9L8 9L8 8L1 8L1 9L2 9L2 10L1 10L1 13L0 13L0 14L1 14L1 13L2 13L2 12L3 12L3 14L2 14L2 15L3 15L3 17L5 17L5 20L6 20L6 21L5 21L5 22L3 22L3 24L2 24L2 23L1 23L1 21L2 21L2 20L1 20L1 19L3 19L3 21L4 21L4 19L3 19L3 18L1 18L1 15L0 15L0 18L1 18L1 19L0 19L0 20L1 20L1 21L0 21L0 26L1 26L1 24L2 24L2 27L0 27L0 30L1 30L1 31L0 31L0 32L2 32L2 33L1 33L1 34L3 34L3 35L1 35L1 36L0 36L0 37L3 37L3 38L4 38L4 37L3 37L3 35L5 35L5 37L7 37L7 38L5 38L5 39L7 39L7 40L6 40L6 41L8 41L8 48L9 48L9 49L10 49L10 48L11 48L11 49L12 49L12 48L11 48L11 47L10 47L10 45L11 45L11 46L12 46L12 47L13 47L13 46L14 46L14 48L15 48L15 49L18 49L18 46L19 46L19 47L20 47L20 49L21 49L21 48L22 48L22 46L23 46L23 45L27 45L27 44L29 44L29 45L28 45L28 46L27 46L27 49L28 49L28 48L29 48L29 49L30 49L30 47L28 47L28 46L31 46L31 47L32 47L32 48L31 48L31 49L32 49L32 48L33 48L33 49L34 49L34 47L37 47L37 48L35 48L35 49L38 49L38 48L40 48L40 49L41 49L41 46L42 46L42 48L43 48L43 47L44 47L44 48L45 48L45 49L49 49L49 45L48 45L48 44L46 44L46 46L45 46L45 43L46 43L46 42L45 42L45 40L46 40L46 41L48 41L48 40L46 40L46 39L49 39L49 38L45 38L45 39L44 39L44 37L45 37L45 36L46 36L46 37L47 37L47 36L48 36L48 37L49 37L49 34L47 34L47 36L46 36L46 34L44 34L44 35L45 35L45 36L44 36L44 37L42 37L42 36L41 36L41 35L40 35L40 36L39 36L39 38L38 38L38 36L34 36L34 35L36 35L36 34L34 34L34 33L33 33L33 32L31 32L31 31L32 31L32 28L33 28L33 29L34 29L34 28L33 28L33 25L32 25L32 24L33 24L33 23L34 23L34 25L36 25L36 26L34 26L34 27L35 27L35 30L33 30L33 31L35 31L35 30L36 30L36 32L35 32L35 33L36 33L36 32L37 32L37 30L38 30L38 31L40 31L40 32L39 32L39 34L38 34L38 33L37 33L37 34L38 34L38 35L39 35L39 34L42 34L42 35L43 35L43 34L42 34L42 33L41 33L41 32L42 32L42 31L43 31L43 33L47 33L47 32L49 32L49 30L48 30L48 31L47 31L47 28L49 28L49 26L48 26L48 24L45 24L45 23L46 23L46 22L47 22L47 23L49 23L49 22L47 22L47 20L48 20L48 21L49 21L49 18L47 18L47 17L48 17L48 16L46 16L46 15L49 15L49 14L46 14L46 13L48 13L48 12L46 12L46 11L44 11L44 10L43 10L43 9L45 9L45 8L43 8L43 9L42 9L42 10L41 10L41 11L42 11L42 12L43 12L43 13L41 13L41 12L39 12L39 14L38 14L38 12L36 12L36 13L35 13L35 14L33 14L33 15L32 15L32 16L31 16L31 18L30 18L30 17L29 17L29 16L30 16L30 15L28 15L28 17L27 17L27 18L25 18L25 17L26 17L26 13L27 13L27 14L32 14L32 13L31 13L31 12L33 12L33 11L30 11L30 13L29 13L29 12L26 12L26 11L27 11L27 10L26 10L26 9L28 9L28 10L32 10L32 9L31 9L31 8L32 8L32 7L33 7L33 6L34 6L34 7L35 7L35 8L36 8L36 9L35 9L35 10L34 10L34 9L33 9L33 10L34 10L34 12L35 12L35 10L36 10L36 11L39 11L39 10L37 10L37 9L38 9L38 7L39 7L39 5L38 5L38 3L35 3L35 2L37 2L37 1L38 1L38 2L39 2L39 4L40 4L40 3L41 3L41 0L40 0L40 1L38 1L38 0L35 0L35 1L31 1L31 0L29 0L29 1L31 1L31 2L32 2L32 3L33 3L33 4L37 4L37 6L36 6L36 7L35 7L35 5L33 5L33 6L32 6L32 7L31 7L31 6L30 6L30 5L32 5L32 4L30 4L30 2L27 2L27 0L26 0L26 2L27 2L27 3L24 3L24 1L23 1L23 0L22 0L22 2L21 2L21 1L20 1L20 2L19 2L19 0L16 0L16 1L15 1L15 0ZM12 1L12 2L11 2L11 3L12 3L12 4L14 4L14 1ZM16 1L16 3L17 3L17 1ZM12 2L12 3L13 3L13 2ZM18 2L18 3L19 3L19 2ZM33 2L33 3L34 3L34 2ZM21 3L21 4L17 4L17 5L16 5L16 6L15 6L15 7L14 7L14 6L13 6L13 5L12 5L12 6L11 6L11 10L9 10L9 11L8 11L8 12L9 12L9 13L6 13L6 12L7 12L7 11L6 11L6 12L4 12L4 16L5 16L5 17L6 17L6 18L7 18L7 17L8 17L8 18L10 18L10 19L9 19L9 20L10 20L10 21L8 21L8 20L7 20L7 19L6 19L6 20L7 20L7 21L6 21L6 22L10 22L10 23L11 23L11 22L12 22L12 24L13 24L13 25L9 25L9 26L10 26L10 27L12 27L12 28L8 28L8 29L5 29L5 30L4 30L4 31L3 31L3 32L5 32L5 31L6 31L6 32L7 32L7 31L6 31L6 30L9 30L9 31L8 31L8 34L7 34L7 33L6 33L6 34L5 34L5 35L6 35L6 36L7 36L7 35L8 35L8 34L9 34L9 36L10 36L10 37L11 37L11 38L9 38L9 40L8 40L8 41L9 41L9 40L10 40L10 39L11 39L11 41L10 41L10 42L9 42L9 44L10 44L10 42L11 42L11 43L12 43L12 44L11 44L11 45L12 45L12 46L13 46L13 45L12 45L12 44L14 44L14 45L15 45L15 48L16 48L16 47L17 47L17 46L16 46L16 45L18 45L18 44L16 44L16 45L15 45L15 42L14 42L14 41L16 41L16 43L18 43L18 42L19 42L19 41L21 41L21 40L23 40L23 39L24 39L24 38L25 38L25 39L27 39L27 40L28 40L28 41L27 41L27 42L28 42L28 43L29 43L29 42L30 42L30 41L29 41L29 40L30 40L30 39L31 39L31 41L32 41L32 42L31 42L31 43L33 43L33 44L32 44L32 47L33 47L33 46L35 46L35 44L37 44L37 43L36 43L36 42L38 42L38 43L40 43L40 41L39 41L39 40L44 40L44 39L38 39L38 38L37 38L37 39L36 39L36 40L35 40L35 39L34 39L34 40L32 40L32 39L33 39L33 38L36 38L36 37L33 37L33 36L32 36L32 35L31 35L31 34L32 34L32 33L31 33L31 34L29 34L29 36L28 36L28 34L27 34L27 33L28 33L28 32L30 32L30 31L31 31L31 30L29 30L29 28L30 28L30 29L31 29L31 28L32 28L32 27L31 27L31 26L29 26L29 25L30 25L30 24L29 24L29 22L28 22L28 23L27 23L27 24L28 24L28 25L27 25L27 26L28 26L28 27L27 27L27 28L26 28L26 27L25 27L25 29L24 29L24 30L22 30L22 35L20 35L20 32L21 32L21 31L18 31L18 30L19 30L19 29L20 29L20 30L21 30L21 29L22 29L22 28L24 28L24 27L20 27L20 28L19 28L19 29L18 29L18 26L20 26L20 25L19 25L19 24L22 24L22 23L21 23L21 22L20 22L20 23L19 23L19 22L18 22L18 21L19 21L19 20L16 20L16 21L15 21L15 19L13 19L13 18L16 18L16 19L17 19L17 18L18 18L18 19L19 19L19 17L20 17L20 16L19 16L19 15L20 15L20 14L21 14L21 18L20 18L20 19L21 19L21 21L22 21L22 22L25 22L25 21L26 21L26 22L27 22L27 21L29 21L29 19L30 19L30 20L31 20L31 22L30 22L30 23L31 23L31 24L32 24L32 23L33 23L33 22L35 22L35 21L36 21L36 20L37 20L37 19L40 19L40 20L41 20L41 21L37 21L37 23L35 23L35 24L37 24L37 26L36 26L36 28L37 28L37 29L38 29L38 30L39 30L39 29L38 29L38 28L40 28L40 27L38 27L38 26L40 26L40 24L39 24L39 23L40 23L40 22L41 22L41 21L42 21L42 16L39 16L39 17L40 17L40 18L37 18L37 19L36 19L36 18L34 18L34 17L33 17L33 16L34 16L34 15L33 15L33 16L32 16L32 18L34 18L34 20L32 20L32 19L30 19L30 18L29 18L29 17L28 17L28 20L26 20L26 19L25 19L25 18L23 18L23 17L25 17L25 13L26 13L26 12L23 12L23 13L24 13L24 14L23 14L23 15L22 15L22 14L21 14L21 11L22 11L22 10L23 10L23 11L24 11L24 9L22 9L22 6L21 6L21 8L20 8L20 5L22 5L22 4L24 4L24 3ZM27 3L27 4L28 4L28 3ZM10 4L10 5L11 5L11 4ZM23 5L23 8L26 8L26 5ZM27 5L27 8L29 8L29 9L30 9L30 8L29 8L29 7L30 7L30 6L29 6L29 5ZM9 6L9 7L10 7L10 6ZM12 6L12 7L13 7L13 6ZM16 6L16 7L15 7L15 9L13 9L13 11L18 11L18 12L12 12L12 13L10 13L10 16L11 16L11 17L10 17L10 18L13 18L13 17L14 17L14 16L13 16L13 14L14 14L14 13L16 13L16 14L15 14L15 17L16 17L16 18L17 18L17 17L18 17L18 16L16 16L16 14L17 14L17 15L19 15L19 14L20 14L20 12L19 12L19 11L21 11L21 10L20 10L20 9L19 9L19 6L18 6L18 7L17 7L17 6ZM24 6L24 7L25 7L25 6ZM28 6L28 7L29 7L29 6ZM37 6L37 7L38 7L38 6ZM40 6L40 7L41 7L41 6ZM17 8L17 9L15 9L15 10L17 10L17 9L18 9L18 10L19 10L19 9L18 9L18 8ZM39 8L39 9L41 9L41 8ZM48 8L48 9L46 9L46 10L48 10L48 11L49 11L49 10L48 10L48 9L49 9L49 8ZM3 9L3 10L2 10L2 11L3 11L3 10L4 10L4 9ZM11 10L11 11L12 11L12 10ZM42 10L42 11L43 11L43 12L44 12L44 13L46 13L46 12L44 12L44 11L43 11L43 10ZM18 12L18 13L17 13L17 14L19 14L19 12ZM12 13L12 14L11 14L11 15L12 15L12 14L13 14L13 13ZM36 13L36 14L35 14L35 16L37 16L37 17L38 17L38 16L37 16L37 15L38 15L38 14L37 14L37 13ZM40 13L40 14L41 14L41 15L43 15L43 14L41 14L41 13ZM5 14L5 16L6 16L6 17L7 17L7 16L8 16L8 15L9 15L9 14ZM36 14L36 15L37 15L37 14ZM45 14L45 15L46 15L46 14ZM6 15L6 16L7 16L7 15ZM23 15L23 16L22 16L22 17L23 17L23 16L24 16L24 15ZM44 16L44 17L46 17L46 16ZM21 18L21 19L22 19L22 20L23 20L23 21L25 21L25 19L24 19L24 20L23 20L23 19L22 19L22 18ZM46 18L46 19L45 19L45 20L44 20L44 21L43 21L43 22L46 22L46 20L47 20L47 18ZM10 19L10 20L13 20L13 19ZM14 21L14 22L15 22L15 21ZM32 21L32 22L31 22L31 23L32 23L32 22L33 22L33 21ZM17 22L17 23L14 23L14 25L13 25L13 26L12 26L12 27L13 27L13 26L14 26L14 25L15 25L15 27L16 27L16 29L17 29L17 30L18 30L18 29L17 29L17 27L16 27L16 24L17 24L17 23L18 23L18 22ZM38 22L38 23L37 23L37 24L38 24L38 23L39 23L39 22ZM5 23L5 26L8 26L8 23ZM23 23L23 26L26 26L26 23ZM41 23L41 26L44 26L44 23ZM3 24L3 25L4 25L4 24ZM6 24L6 25L7 25L7 24ZM24 24L24 25L25 25L25 24ZM42 24L42 25L43 25L43 24ZM17 25L17 26L18 26L18 25ZM21 25L21 26L22 26L22 25ZM45 25L45 27L44 27L44 28L45 28L45 29L43 29L43 31L44 31L44 32L47 32L47 31L46 31L46 28L47 28L47 27L48 27L48 26L47 26L47 25ZM3 26L3 27L4 27L4 28L3 28L3 29L4 29L4 28L7 28L7 27L4 27L4 26ZM46 26L46 27L47 27L47 26ZM28 27L28 28L27 28L27 29L28 29L28 28L29 28L29 27ZM30 27L30 28L31 28L31 27ZM42 27L42 28L43 28L43 27ZM10 29L10 31L9 31L9 34L12 34L12 38L14 38L14 39L15 39L15 38L16 38L16 39L17 39L17 41L18 41L18 40L21 40L21 36L20 36L20 35L18 35L18 34L17 34L17 32L16 32L16 35L15 35L15 34L14 34L14 35L13 35L13 33L10 33L10 31L11 31L11 32L13 32L13 29L12 29L12 31L11 31L11 29ZM41 29L41 30L40 30L40 31L41 31L41 30L42 30L42 29ZM24 30L24 31L25 31L25 32L26 32L26 31L27 31L27 32L28 32L28 31L29 31L29 30L26 30L26 31L25 31L25 30ZM14 31L14 33L15 33L15 31ZM18 32L18 33L19 33L19 32ZM3 33L3 34L4 34L4 33ZM23 33L23 34L24 34L24 35L25 35L25 36L27 36L27 38L31 38L31 39L32 39L32 38L33 38L33 37L32 37L32 36L31 36L31 35L30 35L30 36L29 36L29 37L28 37L28 36L27 36L27 35L25 35L25 33ZM6 34L6 35L7 35L7 34ZM33 34L33 35L34 35L34 34ZM14 35L14 36L13 36L13 37L14 37L14 38L15 38L15 37L14 37L14 36L15 36L15 35ZM16 35L16 36L17 36L17 39L18 39L18 38L19 38L19 39L20 39L20 37L18 37L18 35ZM22 36L22 39L23 39L23 38L24 38L24 37L23 37L23 36ZM30 36L30 37L31 37L31 38L32 38L32 37L31 37L31 36ZM40 36L40 37L41 37L41 36ZM25 37L25 38L26 38L26 37ZM1 38L1 40L0 40L0 41L3 41L3 40L4 40L4 39L2 39L2 38ZM12 39L12 40L13 40L13 41L11 41L11 42L12 42L12 43L14 43L14 42L13 42L13 41L14 41L14 40L13 40L13 39ZM28 39L28 40L29 40L29 39ZM36 40L36 41L38 41L38 40ZM23 41L23 44L26 44L26 41ZM28 41L28 42L29 42L29 41ZM33 41L33 42L34 42L34 41ZM41 41L41 44L44 44L44 41ZM20 42L20 44L19 44L19 45L20 45L20 44L21 44L21 45L22 45L22 42ZM24 42L24 43L25 43L25 42ZM42 42L42 43L43 43L43 42ZM47 42L47 43L49 43L49 42ZM34 43L34 44L33 44L33 45L34 45L34 44L35 44L35 43ZM38 45L38 46L37 46L37 47L38 47L38 46L39 46L39 47L40 47L40 46L41 46L41 45L40 45L40 46L39 46L39 45ZM43 45L43 46L44 46L44 47L45 47L45 48L48 48L48 47L47 47L47 46L46 46L46 47L45 47L45 46L44 46L44 45ZM20 46L20 47L21 47L21 46ZM24 46L24 47L23 47L23 48L24 48L24 49L25 49L25 48L26 48L26 47L25 47L25 46ZM24 47L24 48L25 48L25 47ZM0 0L0 7L7 7L7 0ZM1 1L1 6L6 6L6 1ZM2 2L2 5L5 5L5 2ZM42 0L42 7L49 7L49 0ZM43 1L43 6L48 6L48 1ZM44 2L44 5L47 5L47 2ZM0 42L0 49L7 49L7 42ZM1 43L1 48L6 48L6 43ZM2 44L2 47L5 47L5 44Z" fill="#000000"/></g></g></svg>
