<?xml version="1.0" encoding="UTF-8"?>
<svg xmlns="http://www.w3.org/2000/svg" version="1.1" width="300" height="300" viewBox="0 0 300 300"><rect x="0" y="0" width="300" height="300" fill="#ffffff"/><g transform="scale(8.108)"><g transform="translate(0,0)"><path fill-rule="evenodd" d="M11 0L11 1L12 1L12 0ZM13 0L13 1L14 1L14 2L13 2L13 3L12 3L12 4L11 4L11 3L10 3L10 2L8 2L8 3L9 3L9 4L8 4L8 7L9 7L9 4L11 4L11 5L10 5L10 7L11 7L11 8L10 8L10 9L13 9L13 11L12 11L12 12L11 12L11 13L8 13L8 14L6 14L6 13L7 13L7 12L6 12L6 11L9 11L9 12L10 12L10 10L9 10L9 8L8 8L8 10L6 10L6 9L7 9L7 8L6 8L6 9L5 9L5 8L4 8L4 9L5 9L5 10L6 10L6 11L4 11L4 10L2 10L2 11L1 11L1 10L0 10L0 13L1 13L1 15L0 15L0 16L2 16L2 18L1 18L1 17L0 17L0 18L1 18L1 19L0 19L0 22L1 22L1 21L2 21L2 22L3 22L3 21L2 21L2 20L4 20L4 19L5 19L5 23L4 23L4 24L3 24L3 25L2 25L2 23L1 23L1 24L0 24L0 26L2 26L2 27L3 27L3 28L0 28L0 29L5 29L5 28L6 28L6 29L7 29L7 28L6 28L6 27L7 27L7 26L5 26L5 27L4 27L4 25L9 25L9 26L10 26L10 25L9 25L9 23L8 23L8 24L5 24L5 23L7 23L7 22L6 22L6 21L7 21L7 20L9 20L9 21L10 21L10 24L11 24L11 23L12 23L12 25L11 25L11 26L12 26L12 28L13 28L13 27L14 27L14 28L15 28L15 29L16 29L16 28L18 28L18 27L16 27L16 26L17 26L17 25L16 25L16 26L15 26L15 24L14 24L14 25L13 25L13 23L12 23L12 22L13 22L13 20L14 20L14 21L15 21L15 23L18 23L18 22L19 22L19 23L20 23L20 24L19 24L19 25L18 25L18 26L19 26L19 29L17 29L17 30L14 30L14 29L12 29L12 30L14 30L14 32L13 32L13 33L11 33L11 31L9 31L9 32L8 32L8 33L9 33L9 35L8 35L8 36L9 36L9 37L10 37L10 36L11 36L11 37L16 37L16 36L17 36L17 37L18 37L18 34L20 34L20 35L21 35L21 36L22 36L22 35L23 35L23 34L21 34L21 33L20 33L20 31L21 31L21 30L22 30L22 29L23 29L23 31L22 31L22 33L23 33L23 31L24 31L24 29L25 29L25 28L24 28L24 29L23 29L23 27L25 27L25 26L24 26L24 25L28 25L28 27L32 27L32 26L33 26L33 27L34 27L34 26L35 26L35 27L36 27L36 29L35 29L35 30L34 30L34 29L33 29L33 28L27 28L27 26L26 26L26 28L27 28L27 29L26 29L26 33L27 33L27 29L28 29L28 33L30 33L30 35L29 35L29 34L28 34L28 35L29 35L29 36L30 36L30 35L31 35L31 33L36 33L36 32L35 32L35 31L36 31L36 29L37 29L37 27L36 27L36 24L37 24L37 20L36 20L36 17L37 17L37 16L36 16L36 13L37 13L37 11L35 11L35 10L34 10L34 11L33 11L33 10L32 10L32 11L31 11L31 12L30 12L30 13L29 13L29 14L27 14L27 12L29 12L29 11L30 11L30 10L31 10L31 9L33 9L33 8L31 8L31 9L30 9L30 8L29 8L29 1L28 1L28 0L27 0L27 1L28 1L28 2L27 2L27 3L26 3L26 2L25 2L25 1L23 1L23 2L24 2L24 3L26 3L26 5L28 5L28 7L27 7L27 6L26 6L26 7L25 7L25 5L23 5L23 3L22 3L22 2L20 2L20 1L22 1L22 0ZM16 1L16 2L19 2L19 3L20 3L20 4L19 4L19 5L18 5L18 6L17 6L17 7L16 7L16 6L15 6L15 7L14 7L14 6L13 6L13 7L12 7L12 5L11 5L11 7L12 7L12 8L13 8L13 7L14 7L14 10L16 10L16 8L18 8L18 9L17 9L17 12L16 12L16 11L13 11L13 15L12 15L12 13L11 13L11 14L9 14L9 15L10 15L10 16L7 16L7 15L6 15L6 16L7 16L7 17L6 17L6 18L7 18L7 17L8 17L8 18L9 18L9 19L10 19L10 20L11 20L11 22L12 22L12 20L13 20L13 19L15 19L15 16L17 16L17 18L16 18L16 19L17 19L17 20L18 20L18 19L19 19L19 18L18 18L18 16L17 16L17 14L16 14L16 13L17 13L17 12L18 12L18 13L19 13L19 14L22 14L22 13L26 13L26 12L27 12L27 10L28 10L28 11L29 11L29 10L30 10L30 9L27 9L27 7L26 7L26 9L27 9L27 10L26 10L26 11L25 11L25 9L24 9L24 11L22 11L22 12L21 12L21 10L22 10L22 9L23 9L23 8L24 8L24 6L23 6L23 8L22 8L22 9L21 9L21 8L20 8L20 9L19 9L19 8L18 8L18 6L19 6L19 7L20 7L20 6L21 6L21 7L22 7L22 3L20 3L20 2L19 2L19 1ZM14 2L14 3L15 3L15 2ZM13 4L13 5L17 5L17 4ZM20 4L20 5L21 5L21 4ZM1 8L1 9L2 9L2 8ZM34 8L34 9L35 9L35 8ZM18 9L18 10L19 10L19 9ZM19 11L19 13L21 13L21 12L20 12L20 11ZM2 12L2 14L3 14L3 15L2 15L2 16L3 16L3 15L5 15L5 13L4 13L4 12ZM14 12L14 16L12 16L12 18L11 18L11 17L9 17L9 18L11 18L11 19L13 19L13 18L14 18L14 16L15 16L15 15L16 15L16 14L15 14L15 12ZM32 12L32 13L30 13L30 14L29 14L29 15L27 15L27 14L24 14L24 15L25 15L25 16L23 16L23 15L22 15L22 16L20 16L20 15L19 15L19 16L20 16L20 18L21 18L21 19L22 19L22 17L23 17L23 18L24 18L24 17L26 17L26 15L27 15L27 17L29 17L29 18L28 18L28 19L27 19L27 18L25 18L25 19L24 19L24 20L22 20L22 21L21 21L21 20L19 20L19 22L20 22L20 21L21 21L21 23L23 23L23 22L24 22L24 21L25 21L25 20L26 20L26 19L27 19L27 21L26 21L26 22L25 22L25 23L24 23L24 24L22 24L22 25L24 25L24 24L26 24L26 23L27 23L27 21L28 21L28 23L29 23L29 24L28 24L28 25L30 25L30 24L31 24L31 25L32 25L32 24L33 24L33 23L36 23L36 21L33 21L33 19L35 19L35 17L34 17L34 14L35 14L35 12L34 12L34 14L33 14L33 15L32 15L32 13L33 13L33 12ZM30 14L30 15L31 15L31 16L29 16L29 17L31 17L31 18L32 18L32 19L30 19L30 18L29 18L29 20L28 20L28 21L32 21L32 23L33 23L33 21L32 21L32 19L33 19L33 17L32 17L32 15L31 15L31 14ZM4 16L4 18L3 18L3 19L4 19L4 18L5 18L5 16ZM17 18L17 19L18 19L18 18ZM1 19L1 20L2 20L2 19ZM6 19L6 20L7 20L7 19ZM16 21L16 22L18 22L18 21ZM29 22L29 23L30 23L30 22ZM20 24L20 25L19 25L19 26L21 26L21 27L20 27L20 28L21 28L21 29L20 29L20 30L21 30L21 29L22 29L22 27L23 27L23 26L21 26L21 24ZM12 25L12 26L13 26L13 25ZM8 27L8 28L9 28L9 29L8 29L8 30L9 30L9 29L10 29L10 28L11 28L11 27L10 27L10 28L9 28L9 27ZM29 29L29 32L32 32L32 29ZM30 30L30 31L31 31L31 30ZM33 30L33 31L34 31L34 30ZM16 31L16 33L17 33L17 32L18 32L18 33L19 33L19 32L18 32L18 31ZM24 32L24 33L25 33L25 32ZM14 33L14 34L15 34L15 35L13 35L13 34L12 34L12 35L11 35L11 34L10 34L10 35L9 35L9 36L10 36L10 35L11 35L11 36L12 36L12 35L13 35L13 36L16 36L16 34L15 34L15 33ZM25 34L25 35L24 35L24 36L23 36L23 37L26 37L26 35L27 35L27 34ZM34 34L34 37L37 37L37 36L36 36L36 34ZM19 36L19 37L20 37L20 36ZM32 36L32 37L33 37L33 36ZM0 0L0 7L7 7L7 0ZM1 1L1 6L6 6L6 1ZM2 2L2 5L5 5L5 2ZM30 0L30 7L37 7L37 0ZM31 1L31 6L36 6L36 1ZM32 2L32 5L35 5L35 2ZM0 30L0 37L7 37L7 30ZM1 31L1 36L6 36L6 31ZM2 32L2 35L5 35L5 32Z" fill="#000000"/></g></g></svg>
