<?xml version="1.0" encoding="UTF-8"?>
<svg xmlns="http://www.w3.org/2000/svg" version="1.1" width="300" height="300" viewBox="0 0 300 300"><rect x="0" y="0" width="300" height="300" fill="#ffffff"/><g transform="scale(8.108)"><g transform="translate(0,0)"><path fill-rule="evenodd" d="M11 0L11 1L10 1L10 2L8 2L8 3L9 3L9 4L8 4L8 7L9 7L9 6L10 6L10 7L11 7L11 6L12 6L12 8L8 8L8 9L7 9L7 8L6 8L6 9L5 9L5 8L4 8L4 9L5 9L5 10L2 10L2 12L1 12L1 9L2 9L2 8L1 8L1 9L0 9L0 12L1 12L1 13L2 13L2 12L3 12L3 14L4 14L4 13L5 13L5 15L4 15L4 16L5 16L5 18L4 18L4 17L3 17L3 16L2 16L2 14L0 14L0 15L1 15L1 16L0 16L0 18L2 18L2 19L0 19L0 22L2 22L2 23L1 23L1 24L0 24L0 26L2 26L2 27L3 27L3 28L0 28L0 29L3 29L3 28L5 28L5 29L7 29L7 28L5 28L5 26L6 26L6 27L9 27L9 28L8 28L8 30L9 30L9 29L10 29L10 27L12 27L12 28L13 28L13 27L14 27L14 26L15 26L15 29L16 29L16 30L15 30L15 31L16 31L16 32L15 32L15 33L14 33L14 30L13 30L13 29L12 29L12 31L9 31L9 32L8 32L8 33L10 33L10 34L9 34L9 35L8 35L8 36L9 36L9 35L10 35L10 37L12 37L12 36L13 36L13 35L14 35L14 34L15 34L15 35L16 35L16 37L20 37L20 36L18 36L18 34L20 34L20 35L21 35L21 36L22 36L22 35L23 35L23 34L21 34L21 33L18 33L18 32L19 32L19 30L18 30L18 29L17 29L17 28L18 28L18 27L19 27L19 29L20 29L20 27L19 27L19 26L22 26L22 25L23 25L23 27L22 27L22 29L21 29L21 30L22 30L22 29L23 29L23 31L22 31L22 33L25 33L25 32L24 32L24 31L25 31L25 29L23 29L23 27L24 27L24 25L27 25L27 23L28 23L28 24L29 24L29 23L30 23L30 22L29 22L29 21L31 21L31 22L32 22L32 23L33 23L33 24L32 24L32 25L31 25L31 24L30 24L30 25L28 25L28 27L29 27L29 28L27 28L27 26L26 26L26 29L28 29L28 33L27 33L27 30L26 30L26 33L27 33L27 34L25 34L25 35L24 35L24 36L23 36L23 37L26 37L26 35L27 35L27 37L28 37L28 35L29 35L29 37L31 37L31 36L32 36L32 37L33 37L33 35L31 35L31 33L33 33L33 34L34 34L34 37L37 37L37 36L36 36L36 34L34 34L34 33L36 33L36 32L35 32L35 31L36 31L36 29L37 29L37 27L36 27L36 24L37 24L37 20L36 20L36 19L35 19L35 17L37 17L37 16L36 16L36 13L37 13L37 11L36 11L36 9L35 9L35 8L34 8L34 9L35 9L35 10L34 10L34 11L33 11L33 10L32 10L32 11L31 11L31 9L33 9L33 8L31 8L31 9L30 9L30 8L29 8L29 3L28 3L28 2L29 2L29 1L28 1L28 0L27 0L27 1L28 1L28 2L27 2L27 3L26 3L26 2L25 2L25 1L23 1L23 2L22 2L22 1L21 1L21 0L17 0L17 1L18 1L18 2L13 2L13 3L16 3L16 4L14 4L14 5L13 5L13 4L11 4L11 1L12 1L12 0ZM14 0L14 1L16 1L16 0ZM20 1L20 2L19 2L19 3L20 3L20 2L21 2L21 1ZM23 2L23 3L21 3L21 4L20 4L20 5L19 5L19 4L18 4L18 3L17 3L17 4L16 4L16 5L17 5L17 4L18 4L18 5L19 5L19 7L18 7L18 6L17 6L17 7L18 7L18 8L19 8L19 10L18 10L18 9L17 9L17 10L18 10L18 11L17 11L17 12L18 12L18 14L19 14L19 15L21 15L21 14L22 14L22 13L24 13L24 15L22 15L22 16L20 16L20 18L22 18L22 19L23 19L23 18L24 18L24 17L26 17L26 15L27 15L27 14L28 14L28 16L27 16L27 17L28 17L28 18L29 18L29 19L28 19L28 20L27 20L27 21L26 21L26 22L25 22L25 23L24 23L24 24L23 24L23 25L24 25L24 24L26 24L26 23L27 23L27 21L29 21L29 20L30 20L30 19L31 19L31 21L33 21L33 23L34 23L34 17L33 17L33 15L32 15L32 17L33 17L33 18L32 18L32 19L31 19L31 17L30 17L30 16L31 16L31 15L30 15L30 14L31 14L31 13L33 13L33 12L31 12L31 11L30 11L30 12L27 12L27 14L26 14L26 10L25 10L25 9L24 9L24 11L25 11L25 13L24 13L24 12L23 12L23 11L22 11L22 12L21 12L21 11L19 11L19 10L23 10L23 9L21 9L21 8L19 8L19 7L20 7L20 6L21 6L21 7L22 7L22 8L24 8L24 6L23 6L23 5L25 5L25 7L26 7L26 9L27 9L27 10L28 10L28 11L29 11L29 10L30 10L30 9L28 9L28 8L27 8L27 7L28 7L28 5L26 5L26 3L24 3L24 2ZM10 4L10 6L11 6L11 4ZM12 5L12 6L13 6L13 7L14 7L14 10L13 10L13 11L12 11L12 13L13 13L13 15L11 15L11 14L7 14L7 13L9 13L9 11L11 11L11 10L10 10L10 9L8 9L8 10L7 10L7 9L6 9L6 10L7 10L7 11L4 11L4 12L7 12L7 13L6 13L6 14L7 14L7 15L6 15L6 16L7 16L7 17L6 17L6 18L5 18L5 19L4 19L4 20L5 20L5 21L3 21L3 19L2 19L2 20L1 20L1 21L3 21L3 23L2 23L2 25L3 25L3 24L4 24L4 26L5 26L5 24L7 24L7 25L6 25L6 26L9 26L9 25L10 25L10 26L12 26L12 27L13 27L13 26L14 26L14 24L15 24L15 23L17 23L17 24L16 24L16 25L15 25L15 26L16 26L16 27L18 27L18 24L20 24L20 23L19 23L19 22L20 22L20 20L18 20L18 19L19 19L19 18L18 18L18 19L17 19L17 20L15 20L15 22L14 22L14 21L13 21L13 19L14 19L14 17L15 17L15 18L17 18L17 17L18 17L18 16L17 16L17 15L15 15L15 14L16 14L16 11L15 11L15 10L16 10L16 8L15 8L15 7L16 7L16 6L15 6L15 7L14 7L14 6L13 6L13 5ZM21 5L21 6L22 6L22 7L23 7L23 6L22 6L22 5ZM26 6L26 7L27 7L27 6ZM12 8L12 9L13 9L13 8ZM8 10L8 11L9 11L9 10ZM14 11L14 12L13 12L13 13L15 13L15 11ZM18 11L18 12L19 12L19 13L21 13L21 12L19 12L19 11ZM30 12L30 13L29 13L29 14L30 14L30 13L31 13L31 12ZM34 12L34 15L35 15L35 13L36 13L36 12ZM9 15L9 16L10 16L10 15ZM14 15L14 16L11 16L11 17L10 17L10 18L11 18L11 19L13 19L13 17L14 17L14 16L15 16L15 17L16 17L16 16L15 16L15 15ZM24 15L24 16L25 16L25 15ZM1 16L1 17L2 17L2 16ZM28 16L28 17L29 17L29 18L30 18L30 17L29 17L29 16ZM7 17L7 18L6 18L6 19L5 19L5 20L6 20L6 21L7 21L7 20L9 20L9 21L10 21L10 23L9 23L9 24L10 24L10 23L11 23L11 24L13 24L13 23L12 23L12 22L11 22L11 20L10 20L10 19L9 19L9 18L8 18L8 17ZM11 17L11 18L12 18L12 17ZM22 17L22 18L23 18L23 17ZM25 18L25 19L24 19L24 20L22 20L22 21L21 21L21 23L23 23L23 22L24 22L24 21L25 21L25 20L26 20L26 19L27 19L27 18ZM6 19L6 20L7 20L7 19ZM17 20L17 21L18 21L18 22L17 22L17 23L18 23L18 22L19 22L19 21L18 21L18 20ZM35 21L35 23L36 23L36 21ZM6 22L6 23L7 23L7 24L8 24L8 23L7 23L7 22ZM28 22L28 23L29 23L29 22ZM4 23L4 24L5 24L5 23ZM16 25L16 26L17 26L17 25ZM30 26L30 28L33 28L33 29L34 29L34 30L35 30L35 26L34 26L34 27L33 27L33 26L32 26L32 27L31 27L31 26ZM29 29L29 32L32 32L32 29ZM16 30L16 31L17 31L17 32L18 32L18 31L17 31L17 30ZM30 30L30 31L31 31L31 30ZM12 31L12 32L11 32L11 33L13 33L13 34L12 34L12 35L11 35L11 34L10 34L10 35L11 35L11 36L12 36L12 35L13 35L13 34L14 34L14 33L13 33L13 31ZM28 33L28 34L29 34L29 35L30 35L30 33ZM16 34L16 35L17 35L17 34ZM14 36L14 37L15 37L15 36ZM0 0L0 7L7 7L7 0ZM1 1L1 6L6 6L6 1ZM2 2L2 5L5 5L5 2ZM30 0L30 7L37 7L37 0ZM31 1L31 6L36 6L36 1ZM32 2L32 5L35 5L35 2ZM0 30L0 37L7 37L7 30ZM1 31L1 36L6 36L6 31ZM2 32L2 35L5 35L5 32Z" fill="#000000"/></g></g></svg>
