<?xml version="1.0" encoding="UTF-8"?>
<svg xmlns="http://www.w3.org/2000/svg" version="1.1" width="300" height="300" viewBox="0 0 300 300"><rect x="0" y="0" width="300" height="300" fill="#ffffff"/><g transform="scale(8.108)"><g transform="translate(0,0)"><path fill-rule="evenodd" d="M9 0L9 1L8 1L8 3L9 3L9 5L10 5L10 7L11 7L11 8L10 8L10 12L12 12L12 13L9 13L9 10L8 10L8 11L7 11L7 10L6 10L6 9L7 9L7 8L5 8L5 9L4 9L4 8L1 8L1 9L0 9L0 10L6 10L6 11L7 11L7 12L6 12L6 13L9 13L9 16L11 16L11 17L12 17L12 16L14 16L14 15L15 15L15 18L17 18L17 17L18 17L18 16L17 16L17 17L16 17L16 15L17 15L17 13L16 13L16 12L17 12L17 11L18 11L18 12L19 12L19 11L21 11L21 10L23 10L23 11L24 11L24 12L25 12L25 13L26 13L26 14L25 14L25 15L27 15L27 16L24 16L24 15L23 15L23 13L22 13L22 12L20 12L20 13L18 13L18 15L19 15L19 16L23 16L23 17L25 17L25 18L26 18L26 17L27 17L27 19L28 19L28 18L29 18L29 20L28 20L28 22L29 22L29 23L27 23L27 21L26 21L26 20L24 20L24 19L23 19L23 18L22 18L22 20L21 20L21 21L19 21L19 22L18 22L18 20L20 20L20 19L21 19L21 17L19 17L19 19L18 19L18 20L17 20L17 22L16 22L16 20L14 20L14 18L13 18L13 20L12 20L12 21L11 21L11 22L10 22L10 23L12 23L12 24L6 24L6 23L9 23L9 21L10 21L10 19L9 19L9 18L10 18L10 17L8 17L8 15L7 15L7 14L6 14L6 15L7 15L7 16L6 16L6 17L4 17L4 18L3 18L3 16L4 16L4 15L3 15L3 14L4 14L4 13L5 13L5 12L3 12L3 11L1 11L1 12L0 12L0 13L1 13L1 15L0 15L0 17L1 17L1 18L0 18L0 22L1 22L1 19L2 19L2 23L3 23L3 22L4 22L4 23L5 23L5 25L2 25L2 26L1 26L1 27L0 27L0 28L1 28L1 27L3 27L3 28L2 28L2 29L4 29L4 27L5 27L5 26L6 26L6 27L7 27L7 28L5 28L5 29L7 29L7 28L8 28L8 30L9 30L9 29L10 29L10 31L11 31L11 32L12 32L12 33L10 33L10 32L9 32L9 31L8 31L8 32L9 32L9 33L8 33L8 36L9 36L9 35L10 35L10 37L14 37L14 36L13 36L13 35L12 35L12 34L13 34L13 33L14 33L14 32L13 32L13 31L17 31L17 30L19 30L19 31L18 31L18 32L17 32L17 33L18 33L18 34L19 34L19 32L20 32L20 33L21 33L21 34L22 34L22 33L21 33L21 32L22 32L22 31L23 31L23 32L24 32L24 31L23 31L23 30L24 30L24 29L26 29L26 31L27 31L27 32L28 32L28 33L30 33L30 35L31 35L31 36L33 36L33 32L34 32L34 30L36 30L36 31L37 31L37 29L36 29L36 27L34 27L34 28L35 28L35 29L34 29L34 30L33 30L33 28L30 28L30 27L29 27L29 25L28 25L28 24L30 24L30 25L32 25L32 26L35 26L35 25L36 25L36 26L37 26L37 25L36 25L36 24L37 24L37 21L36 21L36 19L37 19L37 17L35 17L35 16L34 16L34 15L36 15L36 16L37 16L37 15L36 15L36 14L37 14L37 12L36 12L36 11L34 11L34 9L36 9L36 8L34 8L34 9L30 9L30 10L28 10L28 9L27 9L27 8L28 8L28 7L29 7L29 6L28 6L28 7L27 7L27 5L28 5L28 4L29 4L29 0L28 0L28 4L27 4L27 3L26 3L26 4L25 4L25 2L26 2L26 0L25 0L25 2L23 2L23 1L22 1L22 0L21 0L21 1L22 1L22 3L23 3L23 4L22 4L22 5L21 5L21 6L20 6L20 5L19 5L19 4L21 4L21 2L19 2L19 0L18 0L18 2L17 2L17 5L15 5L15 4L14 4L14 3L13 3L13 4L12 4L12 2L13 2L13 1L14 1L14 2L15 2L15 3L16 3L16 2L15 2L15 1L14 1L14 0L13 0L13 1L12 1L12 0L11 0L11 2L10 2L10 0ZM16 0L16 1L17 1L17 0ZM10 3L10 4L11 4L11 3ZM11 5L11 7L12 7L12 9L11 9L11 11L12 11L12 12L13 12L13 10L12 10L12 9L13 9L13 7L14 7L14 6L15 6L15 9L17 9L17 10L15 10L15 11L17 11L17 10L18 10L18 9L19 9L19 10L21 10L21 8L22 8L22 6L21 6L21 7L20 7L20 6L19 6L19 7L20 7L20 8L18 8L18 9L17 9L17 7L18 7L18 6L17 6L17 7L16 7L16 6L15 6L15 5L14 5L14 6L13 6L13 5ZM24 5L24 6L23 6L23 8L24 8L24 11L26 11L26 13L27 13L27 15L28 15L28 16L27 16L27 17L28 17L28 16L29 16L29 18L30 18L30 17L32 17L32 18L31 18L31 19L30 19L30 20L29 20L29 21L30 21L30 24L31 24L31 20L32 20L32 18L33 18L33 20L34 20L34 22L33 22L33 21L32 21L32 22L33 22L33 23L32 23L32 25L34 25L34 22L35 22L35 24L36 24L36 21L35 21L35 19L36 19L36 18L33 18L33 15L34 15L34 13L36 13L36 12L34 12L34 11L33 11L33 10L30 10L30 12L28 12L28 10L27 10L27 9L25 9L25 8L24 8L24 6L25 6L25 7L26 7L26 5ZM8 6L8 7L9 7L9 6ZM12 6L12 7L13 7L13 6ZM26 10L26 11L27 11L27 10ZM32 11L32 13L31 13L31 12L30 12L30 14L29 14L29 16L31 16L31 14L33 14L33 11ZM27 12L27 13L28 13L28 12ZM2 13L2 14L3 14L3 13ZM12 13L12 14L16 14L16 13ZM21 13L21 15L22 15L22 13ZM10 14L10 15L11 15L11 16L12 16L12 15L11 15L11 14ZM1 15L1 16L3 16L3 15ZM6 17L6 18L7 18L7 17ZM2 18L2 19L3 19L3 18ZM4 18L4 19L5 19L5 18ZM6 19L6 20L3 20L3 21L6 21L6 22L5 22L5 23L6 23L6 22L8 22L8 20L9 20L9 19L8 19L8 20L7 20L7 19ZM6 20L6 21L7 21L7 20ZM13 20L13 21L14 21L14 22L12 22L12 23L14 23L14 25L11 25L11 27L10 27L10 25L6 25L6 26L9 26L9 27L10 27L10 29L11 29L11 31L13 31L13 30L15 30L15 28L14 28L14 27L16 27L16 29L17 29L17 26L16 26L16 25L17 25L17 23L14 23L14 22L15 22L15 21L14 21L14 20ZM23 20L23 21L22 21L22 22L24 22L24 20ZM25 21L25 23L23 23L23 25L22 25L22 23L21 23L21 24L20 24L20 23L19 23L19 24L18 24L18 27L20 27L20 28L19 28L19 29L22 29L22 28L23 28L23 27L24 27L24 28L26 28L26 27L24 27L24 24L25 24L25 25L26 25L26 26L28 26L28 25L27 25L27 24L25 24L25 23L26 23L26 21ZM0 24L0 25L1 25L1 24ZM14 25L14 26L13 26L13 27L12 27L12 29L14 29L14 28L13 28L13 27L14 27L14 26L15 26L15 25ZM19 25L19 26L20 26L20 27L22 27L22 25L21 25L21 26L20 26L20 25ZM3 26L3 27L4 27L4 26ZM27 27L27 28L28 28L28 27ZM27 29L27 31L28 31L28 29ZM29 29L29 32L32 32L32 29ZM21 30L21 31L22 31L22 30ZM30 30L30 31L31 31L31 30ZM15 32L15 33L16 33L16 32ZM35 32L35 33L37 33L37 32ZM9 33L9 34L10 34L10 35L11 35L11 34L10 34L10 33ZM25 33L25 35L23 35L23 37L25 37L25 35L26 35L26 34L27 34L27 33ZM31 33L31 34L32 34L32 33ZM14 34L14 35L16 35L16 36L15 36L15 37L16 37L16 36L17 36L17 35L16 35L16 34ZM28 34L28 35L27 35L27 36L26 36L26 37L28 37L28 35L29 35L29 34ZM34 34L34 37L37 37L37 36L35 36L35 35L36 35L36 34ZM19 35L19 36L18 36L18 37L19 37L19 36L20 36L20 37L22 37L22 36L20 36L20 35ZM0 0L0 7L7 7L7 0ZM1 1L1 6L6 6L6 1ZM2 2L2 5L5 5L5 2ZM30 0L30 7L37 7L37 0ZM31 1L31 6L36 6L36 1ZM32 2L32 5L35 5L35 2ZM0 30L0 37L7 37L7 30ZM1 31L1 36L6 36L6 31ZM2 32L2 35L5 35L5 32Z" fill="#000000"/></g></g></svg>
