<?xml version="1.0" encoding="UTF-8"?>
<svg xmlns="http://www.w3.org/2000/svg" version="1.1" width="300" height="300" viewBox="0 0 300 300"><rect x="0" y="0" width="300" height="300" fill="#ffffff"/><g transform="scale(8.108)"><g transform="translate(0,0)"><path fill-rule="evenodd" d="M11 0L11 1L12 1L12 0ZM13 0L13 2L14 2L14 5L13 5L13 3L12 3L12 5L13 5L13 6L12 6L12 7L13 7L13 9L12 9L12 10L13 10L13 11L11 11L11 12L12 12L12 13L10 13L10 12L9 12L9 13L8 13L8 14L11 14L11 16L12 16L12 18L11 18L11 17L9 17L9 18L8 18L8 17L7 17L7 16L6 16L6 15L7 15L7 14L6 14L6 13L7 13L7 12L8 12L8 10L2 10L2 12L4 12L4 13L3 13L3 14L1 14L1 15L0 15L0 17L1 17L1 18L0 18L0 19L1 19L1 20L0 20L0 22L2 22L2 23L1 23L1 24L0 24L0 26L2 26L2 27L3 27L3 28L0 28L0 29L4 29L4 28L5 28L5 29L7 29L7 28L6 28L6 27L8 27L8 30L9 30L9 29L11 29L11 30L12 30L12 31L13 31L13 30L15 30L15 31L14 31L14 33L15 33L15 35L14 35L14 34L13 34L13 33L11 33L11 31L9 31L9 32L8 32L8 33L9 33L9 34L11 34L11 35L10 35L10 36L9 36L9 35L8 35L8 36L9 36L9 37L12 37L12 36L13 36L13 35L14 35L14 36L15 36L15 35L17 35L17 34L20 34L20 35L21 35L21 36L22 36L22 35L23 35L23 34L21 34L21 33L20 33L20 32L19 32L19 31L20 31L20 30L22 30L22 29L23 29L23 31L22 31L22 33L23 33L23 31L24 31L24 33L25 33L25 31L24 31L24 29L25 29L25 26L24 26L24 25L27 25L27 23L28 23L28 24L29 24L29 23L30 23L30 21L31 21L31 23L33 23L33 21L34 21L34 25L33 25L33 24L32 24L32 25L31 25L31 24L30 24L30 25L28 25L28 27L29 27L29 28L27 28L27 26L26 26L26 28L27 28L27 29L26 29L26 33L27 33L27 34L25 34L25 35L24 35L24 36L23 36L23 37L26 37L26 35L27 35L27 37L28 37L28 35L29 35L29 36L30 36L30 35L31 35L31 33L33 33L33 28L31 28L31 27L32 27L32 26L33 26L33 27L34 27L34 26L35 26L35 27L36 27L36 24L37 24L37 20L36 20L36 19L34 19L34 17L37 17L37 16L36 16L36 13L37 13L37 12L36 12L36 9L35 9L35 8L34 8L34 9L35 9L35 10L34 10L34 11L33 11L33 10L32 10L32 11L30 11L30 10L31 10L31 9L33 9L33 8L31 8L31 9L30 9L30 8L29 8L29 5L28 5L28 3L29 3L29 2L28 2L28 3L26 3L26 2L25 2L25 1L23 1L23 2L20 2L20 1L22 1L22 0L18 0L18 1L17 1L17 0ZM27 0L27 1L28 1L28 0ZM9 1L9 2L8 2L8 3L9 3L9 2L10 2L10 4L8 4L8 7L9 7L9 8L8 8L8 9L9 9L9 8L10 8L10 10L11 10L11 8L10 8L10 7L11 7L11 2L10 2L10 1ZM14 1L14 2L16 2L16 3L17 3L17 2L16 2L16 1ZM18 2L18 3L20 3L20 4L19 4L19 7L18 7L18 6L17 6L17 7L16 7L16 6L15 6L15 7L14 7L14 6L13 6L13 7L14 7L14 9L13 9L13 10L16 10L16 9L15 9L15 7L16 7L16 8L17 8L17 11L18 11L18 8L20 8L20 9L19 9L19 10L20 10L20 11L19 11L19 12L20 12L20 11L21 11L21 10L23 10L23 9L21 9L21 7L22 7L22 8L24 8L24 6L23 6L23 5L25 5L25 7L26 7L26 9L27 9L27 10L28 10L28 11L29 11L29 10L30 10L30 9L28 9L28 8L27 8L27 7L28 7L28 5L26 5L26 3L24 3L24 2L23 2L23 5L22 5L22 3L20 3L20 2ZM20 4L20 7L21 7L21 6L22 6L22 7L23 7L23 6L22 6L22 5L21 5L21 4ZM9 5L9 7L10 7L10 5ZM26 6L26 7L27 7L27 6ZM17 7L17 8L18 8L18 7ZM1 8L1 9L0 9L0 13L1 13L1 9L2 9L2 8ZM4 8L4 9L5 9L5 8ZM6 8L6 9L7 9L7 8ZM20 9L20 10L21 10L21 9ZM24 9L24 11L25 11L25 12L23 12L23 11L22 11L22 12L21 12L21 13L19 13L19 16L20 16L20 18L22 18L22 19L23 19L23 18L24 18L24 17L26 17L26 15L27 15L27 17L28 17L28 19L27 19L27 18L25 18L25 19L24 19L24 20L22 20L22 21L21 21L21 20L17 20L17 18L18 18L18 16L17 16L17 15L15 15L15 14L16 14L16 11L13 11L13 12L14 12L14 13L12 13L12 15L13 15L13 17L14 17L14 15L15 15L15 16L16 16L16 17L17 17L17 18L16 18L16 19L14 19L14 20L13 20L13 19L11 19L11 18L10 18L10 19L9 19L9 20L10 20L10 19L11 19L11 21L12 21L12 22L13 22L13 23L12 23L12 24L9 24L9 23L11 23L11 22L9 22L9 23L8 23L8 22L7 22L7 21L8 21L8 20L7 20L7 19L5 19L5 16L3 16L3 15L2 15L2 17L4 17L4 19L3 19L3 18L1 18L1 19L3 19L3 20L1 20L1 21L4 21L4 23L5 23L5 21L6 21L6 22L7 22L7 23L6 23L6 24L9 24L9 25L5 25L5 24L4 24L4 27L5 27L5 26L8 26L8 27L9 27L9 25L10 25L10 27L11 27L11 28L12 28L12 30L13 30L13 27L14 27L14 24L15 24L15 26L16 26L16 27L17 27L17 28L18 28L18 26L16 26L16 25L17 25L17 24L18 24L18 23L16 23L16 21L15 21L15 20L17 20L17 22L18 22L18 21L21 21L21 23L19 23L19 24L20 24L20 25L19 25L19 29L18 29L18 30L20 30L20 29L22 29L22 27L23 27L23 26L21 26L21 23L22 23L22 25L24 25L24 24L26 24L26 23L27 23L27 21L30 21L30 20L31 20L31 21L33 21L33 19L30 19L30 20L28 20L28 19L29 19L29 18L31 18L31 17L28 17L28 15L29 15L29 16L31 16L31 15L32 15L32 17L33 17L33 15L32 15L32 14L31 14L31 13L33 13L33 14L34 14L34 15L35 15L35 12L34 12L34 13L33 13L33 12L31 12L31 13L29 13L29 12L27 12L27 11L25 11L25 9ZM6 11L6 12L7 12L7 11ZM26 12L26 13L22 13L22 14L21 14L21 16L22 16L22 15L23 15L23 16L25 16L25 14L27 14L27 15L28 15L28 14L27 14L27 12ZM4 13L4 15L5 15L5 13ZM30 14L30 15L31 15L31 14ZM9 15L9 16L10 16L10 15ZM6 17L6 18L7 18L7 17ZM22 17L22 18L23 18L23 17ZM26 19L26 20L25 20L25 21L24 21L24 22L22 22L22 23L23 23L23 24L24 24L24 23L25 23L25 22L26 22L26 21L27 21L27 19ZM4 20L4 21L5 21L5 20ZM6 20L6 21L7 21L7 20ZM14 21L14 22L15 22L15 21ZM35 21L35 23L36 23L36 21ZM28 22L28 23L29 23L29 22ZM15 23L15 24L16 24L16 23ZM2 24L2 25L3 25L3 24ZM12 24L12 25L11 25L11 27L12 27L12 25L13 25L13 24ZM29 26L29 27L31 27L31 26ZM23 28L23 29L24 29L24 28ZM29 29L29 32L32 32L32 29ZM35 29L35 30L34 30L34 33L36 33L36 32L35 32L35 31L36 31L36 29ZM27 30L27 31L28 31L28 30ZM30 30L30 31L31 31L31 30ZM15 31L15 32L16 32L16 33L17 33L17 32L18 32L18 33L19 33L19 32L18 32L18 31L17 31L17 32L16 32L16 31ZM27 32L27 33L28 33L28 32ZM29 33L29 35L30 35L30 33ZM12 34L12 35L11 35L11 36L12 36L12 35L13 35L13 34ZM27 34L27 35L28 35L28 34ZM33 34L33 35L32 35L32 36L31 36L31 37L33 37L33 35L34 35L34 37L37 37L37 36L36 36L36 34L35 34L35 35L34 35L34 34ZM18 35L18 36L16 36L16 37L20 37L20 36L19 36L19 35ZM0 0L0 7L7 7L7 0ZM1 1L1 6L6 6L6 1ZM2 2L2 5L5 5L5 2ZM30 0L30 7L37 7L37 0ZM31 1L31 6L36 6L36 1ZM32 2L32 5L35 5L35 2ZM0 30L0 37L7 37L7 30ZM1 31L1 36L6 36L6 31ZM2 32L2 35L5 35L5 32Z" fill="#000000"/></g></g></svg>
