<?xml version="1.0" encoding="UTF-8"?>
<svg xmlns="http://www.w3.org/2000/svg" version="1.1" width="300" height="300" viewBox="0 0 300 300"><rect x="0" y="0" width="300" height="300" fill="#ffffff"/><g transform="scale(8.108)"><g transform="translate(0,0)"><path fill-rule="evenodd" d="M8 0L8 1L11 1L11 2L12 2L12 5L11 5L11 3L10 3L10 2L8 2L8 4L9 4L9 5L8 5L8 8L5 8L5 9L4 9L4 8L3 8L3 9L2 9L2 8L1 8L1 9L2 9L2 10L4 10L4 11L3 11L3 14L5 14L5 17L4 17L4 15L2 15L2 17L4 17L4 18L6 18L6 19L4 19L4 20L3 20L3 19L2 19L2 20L1 20L1 13L2 13L2 11L1 11L1 10L0 10L0 12L1 12L1 13L0 13L0 20L1 20L1 22L0 22L0 23L2 23L2 21L3 21L3 23L4 23L4 24L2 24L2 25L5 25L5 27L3 27L3 26L2 26L2 27L1 27L1 26L0 26L0 27L1 27L1 28L0 28L0 29L8 29L8 32L9 32L9 33L8 33L8 34L9 34L9 35L8 35L8 36L9 36L9 37L10 37L10 36L9 36L9 35L11 35L11 37L12 37L12 36L14 36L14 35L15 35L15 36L16 36L16 34L17 34L17 35L18 35L18 37L19 37L19 36L22 36L22 37L25 37L25 33L26 33L26 34L27 34L27 33L26 33L26 32L28 32L28 33L29 33L29 35L28 35L28 37L31 37L31 36L32 36L32 37L33 37L33 36L32 36L32 35L34 35L34 34L33 34L33 28L32 28L32 26L28 26L28 25L29 25L29 24L30 24L30 25L33 25L33 23L36 23L36 24L35 24L35 26L36 26L36 27L37 27L37 25L36 25L36 24L37 24L37 23L36 23L36 21L37 21L37 20L36 20L36 19L37 19L37 16L36 16L36 15L37 15L37 12L36 12L36 11L37 11L37 8L36 8L36 11L35 11L35 12L34 12L34 9L35 9L35 8L33 8L33 9L32 9L32 8L29 8L29 4L28 4L28 3L29 3L29 2L28 2L28 1L29 1L29 0L27 0L27 1L26 1L26 0L25 0L25 4L26 4L26 5L27 5L27 6L26 6L26 7L25 7L25 6L24 6L24 5L23 5L23 6L22 6L22 7L21 7L21 6L20 6L20 4L19 4L19 6L18 6L18 4L17 4L17 5L13 5L13 3L14 3L14 2L16 2L16 1L17 1L17 0L14 0L14 2L13 2L13 1L12 1L12 0ZM18 0L18 1L19 1L19 0ZM20 0L20 3L21 3L21 0ZM22 0L22 1L23 1L23 0ZM17 2L17 3L18 3L18 2ZM22 2L22 4L23 4L23 2ZM26 2L26 3L27 3L27 2ZM9 3L9 4L10 4L10 3ZM15 3L15 4L16 4L16 3ZM9 5L9 7L10 7L10 8L9 8L9 13L8 13L8 14L10 14L10 15L11 15L11 16L8 16L8 15L6 15L6 16L8 16L8 19L10 19L10 23L8 23L8 22L9 22L9 21L8 21L8 22L7 22L7 21L6 21L6 20L7 20L7 19L6 19L6 20L5 20L5 21L6 21L6 22L4 22L4 23L5 23L5 25L6 25L6 26L7 26L7 27L5 27L5 28L7 28L7 27L8 27L8 28L9 28L9 29L11 29L11 30L10 30L10 31L11 31L11 30L12 30L12 33L11 33L11 32L10 32L10 33L9 33L9 34L10 34L10 33L11 33L11 35L12 35L12 34L15 34L15 33L16 33L16 32L14 32L14 33L13 33L13 30L12 30L12 29L13 29L13 28L14 28L14 27L13 27L13 26L15 26L15 27L16 27L16 28L17 28L17 26L18 26L18 27L19 27L19 29L18 29L18 30L17 30L17 29L15 29L15 30L16 30L16 31L17 31L17 33L18 33L18 34L19 34L19 33L20 33L20 35L23 35L23 32L24 32L24 30L25 30L25 32L26 32L26 31L27 31L27 30L28 30L28 29L27 29L27 28L28 28L28 27L27 27L27 28L25 28L25 27L26 27L26 26L24 26L24 24L25 24L25 25L26 25L26 24L27 24L27 23L28 23L28 24L29 24L29 23L30 23L30 24L32 24L32 23L30 23L30 22L29 22L29 21L30 21L30 20L29 20L29 19L30 19L30 18L29 18L29 17L30 17L30 16L31 16L31 15L32 15L32 17L33 17L33 15L32 15L32 14L33 14L33 10L32 10L32 9L30 9L30 10L32 10L32 11L28 11L28 10L29 10L29 8L28 8L28 10L27 10L27 9L26 9L26 8L27 8L27 7L28 7L28 6L27 6L27 7L26 7L26 8L24 8L24 6L23 6L23 7L22 7L22 8L23 8L23 10L21 10L21 11L24 11L24 10L25 10L25 9L26 9L26 11L28 11L28 12L27 12L27 13L25 13L25 15L24 15L24 17L23 17L23 16L19 16L19 17L18 17L18 16L17 16L17 14L18 14L18 15L22 15L22 14L24 14L24 12L23 12L23 13L22 13L22 12L21 12L21 13L20 13L20 12L19 12L19 11L20 11L20 8L18 8L18 6L17 6L17 8L15 8L15 7L16 7L16 6L15 6L15 7L14 7L14 6L13 6L13 7L12 7L12 6L11 6L11 5ZM10 6L10 7L11 7L11 6ZM19 6L19 7L20 7L20 6ZM13 7L13 8L14 8L14 9L13 9L13 10L12 10L12 9L10 9L10 11L11 11L11 12L12 12L12 11L13 11L13 13L10 13L10 14L11 14L11 15L12 15L12 16L11 16L11 17L10 17L10 18L11 18L11 17L13 17L13 15L14 15L14 19L13 19L13 20L11 20L11 21L13 21L13 20L16 20L16 21L17 21L17 22L18 22L18 21L19 21L19 22L20 22L20 23L19 23L19 26L20 26L20 29L21 29L21 27L22 27L22 26L20 26L20 23L21 23L21 25L23 25L23 24L22 24L22 23L23 23L23 22L24 22L24 19L22 19L22 18L23 18L23 17L21 17L21 19L20 19L20 17L19 17L19 18L18 18L18 19L17 19L17 18L16 18L16 19L15 19L15 17L17 17L17 16L16 16L16 14L17 14L17 13L14 13L14 12L15 12L15 10L17 10L17 12L18 12L18 14L19 14L19 12L18 12L18 11L19 11L19 9L18 9L18 8L17 8L17 9L15 9L15 8L14 8L14 7ZM6 9L6 10L5 10L5 11L6 11L6 12L4 12L4 13L6 13L6 14L7 14L7 13L6 13L6 12L8 12L8 11L6 11L6 10L7 10L7 9ZM17 9L17 10L18 10L18 9ZM11 10L11 11L12 11L12 10ZM13 10L13 11L14 11L14 10ZM28 12L28 13L27 13L27 14L28 14L28 15L25 15L25 16L26 16L26 17L25 17L25 18L26 18L26 20L28 20L28 19L29 19L29 18L28 18L28 19L27 19L27 16L28 16L28 17L29 17L29 12ZM30 12L30 14L31 14L31 13L32 13L32 12ZM35 12L35 14L34 14L34 16L35 16L35 14L36 14L36 12ZM21 13L21 14L22 14L22 13ZM6 17L6 18L7 18L7 17ZM34 17L34 18L31 18L31 19L32 19L32 20L33 20L33 21L32 21L32 22L35 22L35 21L36 21L36 20L34 20L34 18L35 18L35 19L36 19L36 18L35 18L35 17ZM16 19L16 20L17 20L17 19ZM20 20L20 22L21 22L21 23L22 23L22 22L23 22L23 21L22 21L22 22L21 22L21 20ZM25 21L25 24L26 24L26 23L27 23L27 21ZM6 22L6 23L7 23L7 24L6 24L6 25L8 25L8 26L9 26L9 27L10 27L10 26L11 26L11 24L12 24L12 25L15 25L15 26L16 26L16 25L17 25L17 23L16 23L16 22L13 22L13 23L12 23L12 22L11 22L11 23L10 23L10 24L8 24L8 23L7 23L7 22ZM0 24L0 25L1 25L1 24ZM15 24L15 25L16 25L16 24ZM9 25L9 26L10 26L10 25ZM23 26L23 28L22 28L22 29L23 29L23 30L24 30L24 26ZM2 27L2 28L3 28L3 27ZM12 27L12 28L11 28L11 29L12 29L12 28L13 28L13 27ZM34 27L34 28L35 28L35 27ZM26 29L26 30L27 30L27 29ZM29 29L29 32L32 32L32 29ZM35 29L35 30L36 30L36 31L37 31L37 29ZM21 30L21 31L22 31L22 32L23 32L23 31L22 31L22 30ZM30 30L30 31L31 31L31 30ZM18 31L18 32L19 32L19 31ZM34 31L34 32L35 32L35 31ZM20 32L20 33L21 33L21 34L22 34L22 33L21 33L21 32ZM30 33L30 35L29 35L29 36L30 36L30 35L31 35L31 34L32 34L32 33ZM35 33L35 34L36 34L36 35L37 35L37 33ZM26 35L26 36L27 36L27 35ZM35 36L35 37L37 37L37 36ZM0 0L0 7L7 7L7 0ZM1 1L1 6L6 6L6 1ZM2 2L2 5L5 5L5 2ZM30 0L30 7L37 7L37 0ZM31 1L31 6L36 6L36 1ZM32 2L32 5L35 5L35 2ZM0 30L0 37L7 37L7 30ZM1 31L1 36L6 36L6 31ZM2 32L2 35L5 35L5 32Z" fill="#000000"/></g></g></svg>
