<?xml version="1.0" encoding="UTF-8"?>
<svg xmlns="http://www.w3.org/2000/svg" version="1.1" width="300" height="300" viewBox="0 0 300 300"><rect x="0" y="0" width="300" height="300" fill="#ffffff"/><g transform="scale(6.122)"><g transform="translate(0,0)"><path fill-rule="evenodd" d="M8 0L8 1L10 1L10 2L12 2L12 3L10 3L10 4L8 4L8 7L9 7L9 5L11 5L11 6L10 6L10 8L9 8L9 9L8 9L8 8L1 8L1 9L0 9L0 10L1 10L1 11L0 11L0 13L1 13L1 14L3 14L3 15L5 15L5 17L7 17L7 18L6 18L6 19L5 19L5 20L6 20L6 21L5 21L5 22L3 22L3 24L2 24L2 23L1 23L1 21L2 21L2 20L1 20L1 19L3 19L3 21L4 21L4 19L3 19L3 18L1 18L1 15L0 15L0 18L1 18L1 19L0 19L0 20L1 20L1 21L0 21L0 26L1 26L1 27L0 27L0 31L1 31L1 32L0 32L0 37L1 37L1 40L0 40L0 41L3 41L3 40L4 40L4 39L2 39L2 38L3 38L3 37L5 37L5 39L7 39L7 38L6 38L6 37L8 37L8 40L6 40L6 41L8 41L8 48L9 48L9 49L10 49L10 48L11 48L11 49L12 49L12 48L13 48L13 47L12 47L12 46L11 46L11 47L10 47L10 45L12 45L12 44L11 44L11 43L12 43L12 41L11 41L11 39L10 39L10 40L9 40L9 37L8 37L8 36L11 36L11 37L10 37L10 38L12 38L12 40L13 40L13 41L14 41L14 42L13 42L13 43L14 43L14 42L15 42L15 45L14 45L14 44L13 44L13 46L14 46L14 48L15 48L15 49L18 49L18 46L19 46L19 47L20 47L20 46L21 46L21 48L20 48L20 49L21 49L21 48L22 48L22 46L23 46L23 45L27 45L27 44L29 44L29 45L28 45L28 46L27 46L27 49L28 49L28 48L29 48L29 49L30 49L30 47L28 47L28 46L31 46L31 47L32 47L32 48L31 48L31 49L32 49L32 48L33 48L33 49L34 49L34 47L37 47L37 48L35 48L35 49L38 49L38 48L40 48L40 49L41 49L41 46L40 46L40 45L42 45L42 46L43 46L43 47L42 47L42 48L43 48L43 47L44 47L44 48L45 48L45 49L49 49L49 45L48 45L48 44L46 44L46 46L45 46L45 43L46 43L46 42L45 42L45 41L48 41L48 40L45 40L45 39L46 39L46 38L47 38L47 39L49 39L49 38L47 38L47 36L48 36L48 37L49 37L49 34L47 34L47 36L46 36L46 34L44 34L44 33L47 33L47 32L44 32L44 33L43 33L43 34L42 34L42 33L41 33L41 32L42 32L42 31L43 31L43 29L45 29L45 28L44 28L44 27L45 27L45 25L47 25L47 26L46 26L46 27L47 27L47 28L46 28L46 31L47 31L47 29L49 29L49 28L48 28L48 27L49 27L49 26L48 26L48 24L45 24L45 23L46 23L46 22L47 22L47 23L49 23L49 22L47 22L47 20L48 20L48 21L49 21L49 18L47 18L47 17L48 17L48 16L46 16L46 15L49 15L49 14L45 14L45 13L44 13L44 12L46 12L46 13L48 13L48 12L46 12L46 11L44 11L44 10L43 10L43 9L45 9L45 8L43 8L43 9L42 9L42 10L41 10L41 11L42 11L42 12L38 12L38 13L39 13L39 14L37 14L37 12L36 12L36 13L35 13L35 14L34 14L34 13L32 13L32 12L33 12L33 11L32 11L32 12L31 12L31 11L30 11L30 10L32 10L32 9L31 9L31 8L32 8L32 7L33 7L33 10L34 10L34 12L35 12L35 10L36 10L36 11L39 11L39 10L37 10L37 8L38 8L38 7L39 7L39 5L38 5L38 3L35 3L35 2L37 2L37 1L38 1L38 2L39 2L39 4L40 4L40 3L41 3L41 0L40 0L40 1L38 1L38 0L35 0L35 1L31 1L31 0L29 0L29 1L31 1L31 2L32 2L32 3L33 3L33 4L37 4L37 6L36 6L36 7L35 7L35 5L33 5L33 6L32 6L32 7L31 7L31 6L30 6L30 5L32 5L32 4L30 4L30 2L29 2L29 5L28 5L28 3L25 3L25 4L22 4L22 5L20 5L20 8L21 8L21 6L22 6L22 9L25 9L25 11L24 11L24 10L22 10L22 11L21 11L21 10L20 10L20 9L19 9L19 8L17 8L17 6L18 6L18 7L19 7L19 6L18 6L18 5L17 5L17 3L16 3L16 1L18 1L18 2L19 2L19 4L21 4L21 2L22 2L22 3L24 3L24 2L26 2L26 1L20 1L20 2L19 2L19 0L16 0L16 1L15 1L15 0ZM27 0L27 1L28 1L28 0ZM12 1L12 2L13 2L13 1ZM14 1L14 3L12 3L12 4L14 4L14 3L15 3L15 1ZM33 2L33 3L34 3L34 2ZM12 5L12 6L11 6L11 8L10 8L10 9L9 9L9 10L8 10L8 12L9 12L9 13L6 13L6 12L7 12L7 11L6 11L6 10L7 10L7 9L3 9L3 10L2 10L2 9L1 9L1 10L2 10L2 13L5 13L5 14L9 14L9 15L8 15L8 16L7 16L7 15L6 15L6 16L7 16L7 17L8 17L8 18L10 18L10 19L9 19L9 20L10 20L10 21L8 21L8 20L7 20L7 19L6 19L6 20L7 20L7 21L6 21L6 22L10 22L10 23L12 23L12 24L13 24L13 25L9 25L9 26L10 26L10 27L9 27L9 28L7 28L7 27L4 27L4 26L3 26L3 27L4 27L4 28L7 28L7 29L5 29L5 30L4 30L4 29L3 29L3 28L1 28L1 30L2 30L2 29L3 29L3 30L4 30L4 32L5 32L5 31L6 31L6 32L7 32L7 33L6 33L6 34L5 34L5 35L4 35L4 36L5 36L5 37L6 37L6 36L7 36L7 35L6 35L6 34L9 34L9 35L11 35L11 36L12 36L12 34L11 34L11 33L13 33L13 34L15 34L15 35L14 35L14 37L13 37L13 40L14 40L14 41L16 41L16 39L18 39L18 38L19 38L19 35L20 35L20 36L21 36L21 40L25 40L25 39L29 39L29 40L27 40L27 41L28 41L28 42L27 42L27 43L29 43L29 42L30 42L30 41L29 41L29 40L30 40L30 39L31 39L31 41L32 41L32 42L31 42L31 43L32 43L32 42L33 42L33 44L32 44L32 47L33 47L33 46L35 46L35 44L37 44L37 43L35 43L35 42L38 42L38 43L40 43L40 41L39 41L39 40L41 40L41 39L42 39L42 40L44 40L44 39L45 39L45 37L46 37L46 36L45 36L45 35L44 35L44 34L43 34L43 35L42 35L42 34L39 34L39 32L40 32L40 31L41 31L41 30L42 30L42 29L38 29L38 28L40 28L40 27L38 27L38 26L40 26L40 24L39 24L39 23L40 23L40 22L41 22L41 21L42 21L42 16L43 16L43 14L41 14L41 13L40 13L40 14L41 14L41 16L39 16L39 17L40 17L40 18L37 18L37 19L35 19L35 18L36 18L36 16L37 16L37 17L38 17L38 16L37 16L37 15L36 15L36 16L35 16L35 18L34 18L34 17L33 17L33 16L34 16L34 14L30 14L30 13L31 13L31 12L30 12L30 11L26 11L26 12L23 12L23 13L24 13L24 14L23 14L23 15L22 15L22 14L19 14L19 12L21 12L21 11L19 11L19 10L18 10L18 9L15 9L15 7L16 7L16 6L17 6L17 5L16 5L16 6L15 6L15 5L14 5L14 6L13 6L13 5ZM23 5L23 8L26 8L26 5ZM12 6L12 7L13 7L13 6ZM14 6L14 7L15 7L15 6ZM24 6L24 7L25 7L25 6ZM27 6L27 7L28 7L28 6ZM29 6L29 7L30 7L30 6ZM33 6L33 7L34 7L34 10L35 10L35 9L36 9L36 8L35 8L35 7L34 7L34 6ZM37 6L37 7L38 7L38 6ZM40 6L40 7L41 7L41 6ZM13 8L13 9L14 9L14 10L15 10L15 11L18 11L18 10L15 10L15 9L14 9L14 8ZM27 8L27 9L26 9L26 10L27 10L27 9L28 9L28 10L30 10L30 8L29 8L29 9L28 9L28 8ZM39 8L39 9L41 9L41 8ZM48 8L48 9L46 9L46 10L48 10L48 11L49 11L49 10L48 10L48 9L49 9L49 8ZM10 10L10 11L12 11L12 10ZM42 10L42 11L43 11L43 12L42 12L42 13L43 13L43 12L44 12L44 11L43 11L43 10ZM3 11L3 12L6 12L6 11ZM13 11L13 12L12 12L12 13L10 13L10 16L12 16L12 17L10 17L10 18L12 18L12 19L10 19L10 20L12 20L12 22L13 22L13 19L15 19L15 18L16 18L16 16L17 16L17 17L18 17L18 16L17 16L17 15L19 15L19 14L18 14L18 12L14 12L14 11ZM13 12L13 13L12 13L12 14L13 14L13 15L12 15L12 16L14 16L14 17L13 17L13 18L15 18L15 15L17 15L17 13L14 13L14 12ZM26 12L26 13L25 13L25 17L23 17L23 16L24 16L24 15L23 15L23 16L22 16L22 17L23 17L23 18L25 18L25 19L24 19L24 20L23 20L23 19L22 19L22 18L20 18L20 17L21 17L21 15L20 15L20 16L19 16L19 19L18 19L18 18L17 18L17 20L16 20L16 22L17 22L17 23L18 23L18 22L19 22L19 21L18 21L18 22L17 22L17 20L19 20L19 19L20 19L20 21L21 21L21 23L22 23L22 24L20 24L20 23L19 23L19 25L20 25L20 26L18 26L18 25L17 25L17 26L18 26L18 27L16 27L16 24L15 24L15 23L14 23L14 25L13 25L13 26L12 26L12 27L11 27L11 28L10 28L10 29L11 29L11 28L12 28L12 27L13 27L13 28L14 28L14 29L12 29L12 31L11 31L11 32L14 32L14 33L15 33L15 32L14 32L14 30L15 30L15 27L16 27L16 29L17 29L17 28L18 28L18 29L19 29L19 31L21 31L21 32L20 32L20 35L21 35L21 33L22 33L22 35L23 35L23 34L24 34L24 37L23 37L23 36L22 36L22 39L25 39L25 38L26 38L26 37L25 37L25 36L29 36L29 35L30 35L30 34L31 34L31 35L32 35L32 36L30 36L30 37L29 37L29 38L31 38L31 37L32 37L32 38L34 38L34 39L32 39L32 40L34 40L34 39L41 39L41 38L42 38L42 39L44 39L44 37L45 37L45 36L44 36L44 35L43 35L43 36L44 36L44 37L42 37L42 36L41 36L41 35L40 35L40 36L39 36L39 38L36 38L36 37L38 37L38 36L34 36L34 35L36 35L36 34L34 34L34 33L33 33L33 32L31 32L31 31L32 31L32 28L33 28L33 29L34 29L34 28L33 28L33 25L32 25L32 24L33 24L33 23L34 23L34 25L36 25L36 26L34 26L34 27L35 27L35 30L33 30L33 31L35 31L35 30L36 30L36 32L35 32L35 33L36 33L36 32L37 32L37 30L38 30L38 31L40 31L40 30L38 30L38 29L37 29L37 28L36 28L36 26L37 26L37 24L38 24L38 23L39 23L39 22L38 22L38 23L37 23L37 21L41 21L41 20L40 20L40 19L37 19L37 20L36 20L36 21L35 21L35 22L33 22L33 21L32 21L32 22L31 22L31 20L30 20L30 19L32 19L32 20L34 20L34 18L32 18L32 16L33 16L33 15L32 15L32 16L31 16L31 18L30 18L30 17L29 17L29 16L30 16L30 14L29 14L29 12ZM13 13L13 14L14 14L14 13ZM26 13L26 17L25 17L25 18L27 18L27 17L28 17L28 20L26 20L26 19L25 19L25 21L23 21L23 20L22 20L22 19L21 19L21 21L23 21L23 22L26 22L26 21L29 21L29 19L30 19L30 18L29 18L29 17L28 17L28 15L29 15L29 14L27 14L27 13ZM3 16L3 17L4 17L4 16ZM44 16L44 17L46 17L46 16ZM46 18L46 19L45 19L45 20L44 20L44 21L43 21L43 22L46 22L46 20L47 20L47 18ZM14 21L14 22L15 22L15 21ZM28 22L28 23L27 23L27 24L28 24L28 25L27 25L27 26L28 26L28 27L27 27L27 28L28 28L28 29L26 29L26 28L24 28L24 27L22 27L22 26L21 26L21 27L20 27L20 28L19 28L19 27L18 27L18 28L19 28L19 29L20 29L20 30L21 30L21 31L23 31L23 30L21 30L21 28L22 28L22 29L24 29L24 32L22 32L22 33L24 33L24 32L25 32L25 33L28 33L28 32L29 32L29 34L30 34L30 31L31 31L31 30L29 30L29 28L30 28L30 29L31 29L31 28L32 28L32 27L31 27L31 26L29 26L29 25L30 25L30 24L29 24L29 22ZM30 22L30 23L31 23L31 24L32 24L32 23L33 23L33 22L32 22L32 23L31 23L31 22ZM5 23L5 26L8 26L8 23ZM23 23L23 26L26 26L26 23ZM35 23L35 24L37 24L37 23ZM41 23L41 26L44 26L44 23ZM1 24L1 26L2 26L2 24ZM3 24L3 25L4 25L4 24ZM6 24L6 25L7 25L7 24ZM24 24L24 25L25 25L25 24ZM42 24L42 25L43 25L43 24ZM14 25L14 26L13 26L13 27L14 27L14 26L15 26L15 25ZM47 26L47 27L48 27L48 26ZM28 27L28 28L29 28L29 27ZM30 27L30 28L31 28L31 27ZM42 27L42 28L43 28L43 27ZM7 29L7 30L6 30L6 31L7 31L7 30L8 30L8 29ZM25 29L25 30L26 30L26 29ZM9 30L9 31L8 31L8 33L9 33L9 34L10 34L10 33L9 33L9 32L10 32L10 30ZM27 30L27 32L28 32L28 30ZM44 30L44 31L45 31L45 30ZM48 30L48 31L49 31L49 30ZM2 31L2 32L1 32L1 33L2 33L2 32L3 32L3 31ZM17 31L17 32L16 32L16 35L15 35L15 37L14 37L14 39L15 39L15 38L16 38L16 35L17 35L17 32L18 32L18 33L19 33L19 32L18 32L18 31ZM48 32L48 33L49 33L49 32ZM3 33L3 34L2 34L2 35L1 35L1 36L2 36L2 37L3 37L3 36L2 36L2 35L3 35L3 34L4 34L4 33ZM31 33L31 34L32 34L32 33ZM37 33L37 34L38 34L38 35L39 35L39 34L38 34L38 33ZM25 34L25 35L26 35L26 34ZM27 34L27 35L28 35L28 34ZM33 34L33 35L34 35L34 34ZM5 35L5 36L6 36L6 35ZM17 36L17 37L18 37L18 36ZM32 36L32 37L33 37L33 36ZM40 36L40 37L41 37L41 36ZM34 37L34 38L35 38L35 37ZM8 40L8 41L9 41L9 40ZM18 40L18 41L17 41L17 42L16 42L16 44L17 44L17 45L18 45L18 44L17 44L17 43L18 43L18 42L19 42L19 44L20 44L20 45L22 45L22 42L21 42L21 43L20 43L20 42L19 42L19 40ZM35 40L35 41L38 41L38 40ZM10 41L10 42L9 42L9 44L10 44L10 42L11 42L11 41ZM23 41L23 44L26 44L26 41ZM33 41L33 42L34 42L34 41ZM41 41L41 44L44 44L44 41ZM24 42L24 43L25 43L25 42ZM42 42L42 43L43 43L43 42ZM47 42L47 43L49 43L49 42ZM34 43L34 44L33 44L33 45L34 45L34 44L35 44L35 43ZM38 45L38 46L37 46L37 47L38 47L38 46L39 46L39 47L40 47L40 46L39 46L39 45ZM43 45L43 46L44 46L44 47L45 47L45 48L48 48L48 47L47 47L47 46L46 46L46 47L45 47L45 46L44 46L44 45ZM15 46L15 48L16 48L16 47L17 47L17 46ZM24 46L24 47L23 47L23 48L24 48L24 49L25 49L25 48L26 48L26 47L25 47L25 46ZM24 47L24 48L25 48L25 47ZM0 0L0 7L7 7L7 0ZM1 1L1 6L6 6L6 1ZM2 2L2 5L5 5L5 2ZM42 0L42 7L49 7L49 0ZM43 1L43 6L48 6L48 1ZM44 2L44 5L47 5L47 2ZM0 42L0 49L7 49L7 42ZM1 43L1 48L6 48L6 43ZM2 44L2 47L5 47L5 44Z" fill="#000000"/></g></g></svg>
