<?xml version="1.0" encoding="UTF-8"?>
<svg xmlns="http://www.w3.org/2000/svg" version="1.1" width="300" height="300" viewBox="0 0 300 300"><rect x="0" y="0" width="300" height="300" fill="#ffffff"/><g transform="scale(8.108)"><g transform="translate(0,0)"><path fill-rule="evenodd" d="M9 0L9 1L8 1L8 2L10 2L10 1L11 1L11 0ZM13 0L13 1L14 1L14 0ZM18 0L18 1L19 1L19 3L17 3L17 1L15 1L15 2L14 2L14 3L13 3L13 2L11 2L11 3L10 3L10 4L12 4L12 5L15 5L15 6L14 6L14 8L13 8L13 9L12 9L12 10L11 10L11 8L12 8L12 7L13 7L13 6L12 6L12 7L11 7L11 6L10 6L10 7L9 7L9 6L8 6L8 9L7 9L7 8L3 8L3 9L4 9L4 10L3 10L3 11L2 11L2 8L1 8L1 9L0 9L0 10L1 10L1 12L0 12L0 15L1 15L1 12L3 12L3 13L2 13L2 15L3 15L3 14L4 14L4 12L5 12L5 10L6 10L6 11L7 11L7 12L6 12L6 13L5 13L5 14L6 14L6 15L8 15L8 16L6 16L6 17L8 17L8 18L10 18L10 16L9 16L9 14L10 14L10 13L11 13L11 12L12 12L12 13L13 13L13 11L14 11L14 13L15 13L15 14L11 14L11 16L12 16L12 17L11 17L11 20L12 20L12 23L11 23L11 21L10 21L10 19L9 19L9 20L8 20L8 21L7 21L7 20L6 20L6 21L7 21L7 22L6 22L6 23L5 23L5 21L3 21L3 20L5 20L5 17L4 17L4 19L3 19L3 20L2 20L2 19L1 19L1 16L0 16L0 29L1 29L1 27L2 27L2 29L4 29L4 28L5 28L5 27L8 27L8 28L6 28L6 29L8 29L8 30L9 30L9 29L8 29L8 28L9 28L9 27L11 27L11 28L10 28L10 29L11 29L11 31L12 31L12 30L13 30L13 31L17 31L17 33L16 33L16 32L13 32L13 33L12 33L12 32L11 32L11 35L10 35L10 34L9 34L9 31L8 31L8 34L9 34L9 35L8 35L8 36L9 36L9 37L10 37L10 36L11 36L11 35L13 35L13 37L14 37L14 35L15 35L15 37L18 37L18 36L19 36L19 37L20 37L20 36L19 36L19 33L18 33L18 30L17 30L17 29L19 29L19 28L20 28L20 29L21 29L21 30L23 30L23 32L24 32L24 33L25 33L25 34L24 34L24 35L25 35L25 36L24 36L24 37L26 37L26 34L27 34L27 37L29 37L29 36L30 36L30 37L34 37L34 36L36 36L36 37L37 37L37 34L35 34L35 33L36 33L36 32L37 32L37 30L35 30L35 29L34 29L34 26L36 26L36 27L37 27L37 26L36 26L36 25L33 25L33 24L32 24L32 25L31 25L31 23L32 23L32 22L33 22L33 21L34 21L34 24L36 24L36 23L35 23L35 21L36 21L36 22L37 22L37 18L36 18L36 17L37 17L37 14L36 14L36 12L37 12L37 10L36 10L36 12L35 12L35 11L34 11L34 13L35 13L35 14L34 14L34 15L33 15L33 13L32 13L32 12L33 12L33 11L31 11L31 10L32 10L32 9L34 9L34 10L35 10L35 9L36 9L36 8L35 8L35 9L34 9L34 8L32 8L32 9L31 9L31 8L29 8L29 6L28 6L28 8L27 8L27 4L25 4L25 3L24 3L24 2L25 2L25 1L24 1L24 0L22 0L22 1L23 1L23 5L24 5L24 7L23 7L23 6L22 6L22 2L20 2L20 1L21 1L21 0ZM28 0L28 3L29 3L29 0ZM8 3L8 5L9 5L9 3ZM12 3L12 4L13 4L13 3ZM14 3L14 4L15 4L15 5L17 5L17 8L15 8L15 9L13 9L13 10L16 10L16 11L17 11L17 12L16 12L16 13L17 13L17 12L18 12L18 11L19 11L19 13L20 13L20 12L24 12L24 13L26 13L26 11L27 11L27 12L28 12L28 11L27 11L27 10L28 10L28 9L29 9L29 11L30 11L30 9L29 9L29 8L28 8L28 9L27 9L27 10L26 10L26 9L25 9L25 8L26 8L26 6L25 6L25 7L24 7L24 9L25 9L25 10L24 10L24 11L23 11L23 10L22 10L22 9L23 9L23 7L22 7L22 6L21 6L21 8L20 8L20 9L21 9L21 10L22 10L22 11L20 11L20 10L19 10L19 9L18 9L18 11L17 11L17 8L18 8L18 6L19 6L19 7L20 7L20 6L19 6L19 4L16 4L16 3ZM20 4L20 5L21 5L21 4ZM24 4L24 5L25 5L25 4ZM15 6L15 7L16 7L16 6ZM10 7L10 8L9 8L9 9L8 9L8 10L7 10L7 9L6 9L6 10L7 10L7 11L8 11L8 10L9 10L9 12L11 12L11 10L10 10L10 8L11 8L11 7ZM25 10L25 11L24 11L24 12L25 12L25 11L26 11L26 10ZM3 11L3 12L4 12L4 11ZM7 12L7 13L6 13L6 14L8 14L8 12ZM29 12L29 13L27 13L27 14L30 14L30 15L32 15L32 13L30 13L30 12ZM21 13L21 14L20 14L20 15L19 15L19 14L17 14L17 16L19 16L19 18L18 18L18 17L17 17L17 19L16 19L16 17L15 17L15 18L14 18L14 19L16 19L16 20L17 20L17 21L14 21L14 22L13 22L13 25L12 25L12 24L10 24L10 25L12 25L12 27L15 27L15 28L12 28L12 29L13 29L13 30L14 30L14 29L15 29L15 30L16 30L16 29L17 29L17 28L16 28L16 27L17 27L17 26L16 26L16 24L17 24L17 23L18 23L18 24L19 24L19 25L18 25L18 26L19 26L19 27L23 27L23 28L27 28L27 30L26 30L26 32L25 32L25 31L24 31L24 32L25 32L25 33L26 33L26 32L27 32L27 31L28 31L28 28L29 28L29 27L28 27L28 25L24 25L24 26L20 26L20 25L22 25L22 24L23 24L23 23L21 23L21 22L22 22L22 18L23 18L23 16L24 16L24 17L25 17L25 18L24 18L24 19L23 19L23 22L24 22L24 23L25 23L25 24L26 24L26 22L27 22L27 19L26 19L26 21L25 21L25 20L24 20L24 19L25 19L25 18L27 18L27 17L25 17L25 16L27 16L27 15L26 15L26 14L23 14L23 15L21 15L21 14L22 14L22 13ZM35 14L35 17L36 17L36 14ZM4 15L4 16L5 16L5 15ZM14 15L14 16L16 16L16 15ZM20 15L20 16L21 16L21 17L20 17L20 18L21 18L21 17L22 17L22 16L21 16L21 15ZM24 15L24 16L25 16L25 15ZM28 15L28 16L29 16L29 15ZM2 16L2 17L3 17L3 16ZM8 16L8 17L9 17L9 16ZM31 16L31 17L29 17L29 18L28 18L28 20L29 20L29 21L28 21L28 23L27 23L27 24L30 24L30 23L29 23L29 21L30 21L30 22L31 22L31 21L30 21L30 20L31 20L31 19L34 19L34 21L35 21L35 20L36 20L36 18L35 18L35 19L34 19L34 18L33 18L33 16ZM6 18L6 19L7 19L7 18ZM12 18L12 19L13 19L13 18ZM29 18L29 20L30 20L30 19L31 19L31 18ZM17 19L17 20L18 20L18 19ZM1 20L1 23L2 23L2 20ZM8 21L8 22L9 22L9 23L8 23L8 24L7 24L7 23L6 23L6 24L5 24L5 23L3 23L3 24L2 24L2 25L4 25L4 27L3 27L3 28L4 28L4 27L5 27L5 25L6 25L6 26L9 26L9 23L10 23L10 22L9 22L9 21ZM17 21L17 22L18 22L18 23L19 23L19 24L20 24L20 22L21 22L21 21L20 21L20 22L19 22L19 21ZM24 21L24 22L25 22L25 21ZM14 22L14 23L15 23L15 24L14 24L14 25L13 25L13 26L15 26L15 27L16 27L16 26L15 26L15 24L16 24L16 22ZM4 24L4 25L5 25L5 24ZM6 24L6 25L7 25L7 24ZM24 26L24 27L27 27L27 28L28 28L28 27L27 27L27 26ZM31 26L31 28L32 28L32 27L33 27L33 26ZM36 28L36 29L37 29L37 28ZM23 29L23 30L25 30L25 29ZM29 29L29 32L32 32L32 29ZM33 29L33 33L32 33L32 34L30 34L30 33L29 33L29 34L28 34L28 36L29 36L29 35L30 35L30 36L31 36L31 35L32 35L32 36L33 36L33 35L35 35L35 34L34 34L34 33L35 33L35 30L34 30L34 29ZM19 30L19 32L20 32L20 34L21 34L21 35L22 35L22 34L23 34L23 33L22 33L22 31L21 31L21 32L20 32L20 30ZM30 30L30 31L31 31L31 30ZM13 33L13 35L14 35L14 34L15 34L15 35L16 35L16 36L18 36L18 33L17 33L17 35L16 35L16 33ZM21 33L21 34L22 34L22 33ZM32 34L32 35L33 35L33 34ZM21 36L21 37L23 37L23 36ZM0 0L0 7L7 7L7 0ZM1 1L1 6L6 6L6 1ZM2 2L2 5L5 5L5 2ZM30 0L30 7L37 7L37 0ZM31 1L31 6L36 6L36 1ZM32 2L32 5L35 5L35 2ZM0 30L0 37L7 37L7 30ZM1 31L1 36L6 36L6 31ZM2 32L2 35L5 35L5 32Z" fill="#000000"/></g></g></svg>
