<?xml version="1.0" encoding="UTF-8"?>
<svg xmlns="http://www.w3.org/2000/svg" version="1.1" width="300" height="300" viewBox="0 0 300 300"><rect x="0" y="0" width="300" height="300" fill="#ffffff"/><g transform="scale(8.108)"><g transform="translate(0,0)"><path fill-rule="evenodd" d="M10 0L10 2L9 2L9 1L8 1L8 2L9 2L9 3L8 3L8 5L9 5L9 4L10 4L10 7L9 7L9 6L8 6L8 9L7 9L7 8L3 8L3 9L4 9L4 10L3 10L3 11L2 11L2 8L1 8L1 10L0 10L0 11L1 11L1 12L3 12L3 13L5 13L5 14L6 14L6 15L7 15L7 16L6 16L6 17L8 17L8 18L9 18L9 19L11 19L11 20L10 20L10 21L11 21L11 20L13 20L13 19L12 19L12 18L13 18L13 16L17 16L17 18L16 18L16 17L14 17L14 19L15 19L15 18L16 18L16 20L15 20L15 21L16 21L16 22L17 22L17 21L18 21L18 19L19 19L19 16L17 16L17 14L19 14L19 15L20 15L20 16L21 16L21 17L20 17L20 18L21 18L21 17L22 17L22 16L21 16L21 15L23 15L23 14L24 14L24 16L23 16L23 18L22 18L22 19L24 19L24 20L25 20L25 21L24 21L24 22L23 22L23 20L22 20L22 21L20 21L20 23L19 23L19 22L18 22L18 23L19 23L19 24L21 24L21 23L22 23L22 22L23 22L23 26L24 26L24 27L20 27L20 28L21 28L21 29L20 29L20 31L19 31L19 32L20 32L20 34L21 34L21 35L22 35L22 34L23 34L23 33L22 33L22 31L21 31L21 30L23 30L23 31L25 31L25 32L24 32L24 33L25 33L25 34L24 34L24 35L25 35L25 36L24 36L24 37L26 37L26 33L25 33L25 32L26 32L26 30L28 30L28 32L27 32L27 33L30 33L30 34L32 34L32 35L33 35L33 34L32 34L32 33L33 33L33 31L35 31L35 33L34 33L34 36L36 36L36 37L37 37L37 34L35 34L35 33L36 33L36 32L37 32L37 30L33 30L33 29L34 29L34 26L36 26L36 27L35 27L35 29L37 29L37 26L36 26L36 25L33 25L33 24L32 24L32 25L31 25L31 23L33 23L33 22L35 22L35 21L36 21L36 22L37 22L37 18L36 18L36 17L37 17L37 14L34 14L34 13L35 13L35 11L34 11L34 13L31 13L31 12L33 12L33 11L30 11L30 10L32 10L32 9L34 9L34 10L35 10L35 9L36 9L36 8L35 8L35 9L34 9L34 8L32 8L32 9L31 9L31 8L29 8L29 6L28 6L28 8L27 8L27 4L25 4L25 3L24 3L24 2L25 2L25 1L24 1L24 0L18 0L18 1L19 1L19 2L18 2L18 3L16 3L16 2L17 2L17 1L16 1L16 2L15 2L15 1L14 1L14 2L11 2L11 0ZM28 0L28 1L29 1L29 0ZM20 1L20 2L21 2L21 1ZM22 1L22 2L23 2L23 1ZM10 2L10 4L11 4L11 7L10 7L10 8L14 8L14 6L15 6L15 9L13 9L13 10L16 10L16 11L17 11L17 12L16 12L16 13L17 13L17 12L19 12L19 14L20 14L20 12L25 12L25 13L24 13L24 14L25 14L25 13L26 13L26 11L27 11L27 12L28 12L28 11L27 11L27 10L28 10L28 9L29 9L29 10L30 10L30 9L29 9L29 8L28 8L28 9L27 9L27 10L26 10L26 9L25 9L25 8L26 8L26 6L25 6L25 7L24 7L24 5L25 5L25 4L24 4L24 5L22 5L22 6L21 6L21 5L20 5L20 4L21 4L21 3L20 3L20 4L14 4L14 3L15 3L15 2L14 2L14 3L13 3L13 4L14 4L14 5L12 5L12 4L11 4L11 2ZM27 2L27 3L28 3L28 5L29 5L29 3L28 3L28 2ZM18 5L18 7L17 7L17 6L16 6L16 8L17 8L17 9L18 9L18 10L17 10L17 11L19 11L19 9L18 9L18 8L20 8L20 7L21 7L21 6L20 6L20 7L19 7L19 5ZM12 6L12 7L13 7L13 6ZM22 6L22 7L23 7L23 8L22 8L22 9L23 9L23 11L25 11L25 9L24 9L24 7L23 7L23 6ZM6 9L6 10L5 10L5 11L3 11L3 12L5 12L5 13L6 13L6 14L7 14L7 13L8 13L8 12L9 12L9 13L10 13L10 12L9 12L9 10L10 10L10 11L11 11L11 14L9 14L9 16L8 16L8 17L9 17L9 18L11 18L11 17L12 17L12 16L13 16L13 15L15 15L15 13L14 13L14 11L12 11L12 10L10 10L10 9L9 9L9 10L8 10L8 11L6 11L6 10L7 10L7 9ZM20 9L20 11L22 11L22 10L21 10L21 9ZM36 10L36 13L37 13L37 10ZM5 11L5 12L6 12L6 13L7 13L7 12L6 12L6 11ZM12 12L12 13L13 13L13 12ZM29 12L29 13L27 13L27 14L26 14L26 15L25 15L25 16L24 16L24 17L25 17L25 18L24 18L24 19L25 19L25 18L27 18L27 17L25 17L25 16L26 16L26 15L27 15L27 14L30 14L30 15L31 15L31 13L30 13L30 12ZM21 13L21 14L22 14L22 13ZM0 14L0 18L1 18L1 19L0 19L0 29L1 29L1 27L2 27L2 29L3 29L3 27L4 27L4 28L5 28L5 27L7 27L7 28L6 28L6 29L8 29L8 30L9 30L9 29L10 29L10 30L11 30L11 29L10 29L10 28L12 28L12 29L14 29L14 30L12 30L12 31L14 31L14 33L15 33L15 34L13 34L13 33L12 33L12 32L11 32L11 34L10 34L10 33L9 33L9 31L8 31L8 34L9 34L9 35L8 35L8 36L9 36L9 37L10 37L10 36L11 36L11 35L13 35L13 37L14 37L14 35L16 35L16 32L17 32L17 35L18 35L18 37L20 37L20 36L19 36L19 33L18 33L18 30L19 30L19 29L18 29L18 28L19 28L19 26L20 26L20 25L19 25L19 26L18 26L18 28L17 28L17 27L16 27L16 26L17 26L17 25L18 25L18 24L16 24L16 26L15 26L15 24L14 24L14 25L13 25L13 24L12 24L12 25L10 25L10 26L14 26L14 27L10 27L10 28L8 28L8 27L9 27L9 25L8 25L8 24L6 24L6 23L7 23L7 22L8 22L8 23L9 23L9 24L11 24L11 23L9 23L9 20L8 20L8 21L7 21L7 20L6 20L6 21L5 21L5 20L4 20L4 21L2 21L2 22L3 22L3 24L4 24L4 25L2 25L2 23L1 23L1 19L2 19L2 20L3 20L3 19L7 19L7 18L5 18L5 17L4 17L4 16L5 16L5 15L4 15L4 14L2 14L2 16L1 16L1 14ZM11 14L11 15L12 15L12 14ZM32 14L32 15L33 15L33 16L31 16L31 17L30 17L30 16L29 16L29 15L28 15L28 16L29 16L29 17L30 17L30 18L28 18L28 19L30 19L30 18L31 18L31 19L33 19L33 17L34 17L34 15L33 15L33 14ZM35 15L35 17L36 17L36 15ZM2 16L2 17L1 17L1 18L3 18L3 16ZM9 16L9 17L10 17L10 16ZM34 18L34 21L35 21L35 20L36 20L36 18ZM26 19L26 21L25 21L25 22L24 22L24 23L25 23L25 24L24 24L24 25L25 25L25 26L27 26L27 27L25 27L25 28L24 28L24 29L23 29L23 30L24 30L24 29L25 29L25 28L27 28L27 29L28 29L28 28L29 28L29 27L30 27L30 28L32 28L32 27L33 27L33 26L31 26L31 27L30 27L30 26L29 26L29 27L28 27L28 23L27 23L27 25L25 25L25 24L26 24L26 22L27 22L27 19ZM16 20L16 21L17 21L17 20ZM28 20L28 21L29 21L29 22L32 22L32 20L31 20L31 21L29 21L29 20ZM6 21L6 22L5 22L5 23L6 23L6 22L7 22L7 21ZM13 21L13 22L14 22L14 23L15 23L15 22L14 22L14 21ZM29 23L29 24L30 24L30 23ZM34 23L34 24L36 24L36 23ZM5 24L5 26L7 26L7 25L6 25L6 24ZM21 25L21 26L22 26L22 25ZM15 27L15 29L16 29L16 31L17 31L17 30L18 30L18 29L16 29L16 27ZM27 27L27 28L28 28L28 27ZM29 29L29 32L32 32L32 29ZM30 30L30 31L31 31L31 30ZM20 31L20 32L21 32L21 31ZM21 33L21 34L22 34L22 33ZM27 34L27 37L30 37L30 36L31 36L31 37L33 37L33 36L31 36L31 35L29 35L29 36L28 36L28 34ZM15 36L15 37L16 37L16 36ZM21 36L21 37L23 37L23 36ZM0 0L0 7L7 7L7 0ZM1 1L1 6L6 6L6 1ZM2 2L2 5L5 5L5 2ZM30 0L30 7L37 7L37 0ZM31 1L31 6L36 6L36 1ZM32 2L32 5L35 5L35 2ZM0 30L0 37L7 37L7 30ZM1 31L1 36L6 36L6 31ZM2 32L2 35L5 35L5 32Z" fill="#000000"/></g></g></svg>
