<?xml version="1.0" encoding="UTF-8"?>
<svg xmlns="http://www.w3.org/2000/svg" version="1.1" width="300" height="300" viewBox="0 0 300 300"><rect x="0" y="0" width="300" height="300" fill="#ffffff"/><g transform="scale(8.108)"><g transform="translate(0,0)"><path fill-rule="evenodd" d="M8 0L8 1L9 1L9 2L8 2L8 4L10 4L10 5L8 5L8 8L5 8L5 9L8 9L8 10L9 10L9 11L8 11L8 12L9 12L9 13L8 13L8 14L6 14L6 13L7 13L7 12L6 12L6 13L2 13L2 14L0 14L0 15L2 15L2 16L4 16L4 15L2 15L2 14L5 14L5 18L3 18L3 19L5 19L5 20L3 20L3 21L2 21L2 17L1 17L1 16L0 16L0 19L1 19L1 22L0 22L0 23L2 23L2 25L5 25L5 26L6 26L6 27L7 27L7 26L6 26L6 25L7 25L7 24L6 24L6 25L5 25L5 24L3 24L3 21L5 21L5 22L6 22L6 23L7 23L7 22L8 22L8 21L9 21L9 22L11 22L11 21L12 21L12 20L11 20L11 17L14 17L14 18L13 18L13 20L14 20L14 21L15 21L15 22L13 22L13 25L15 25L15 26L16 26L16 25L17 25L17 27L18 27L18 28L16 28L16 27L14 27L14 26L13 26L13 27L14 27L14 28L13 28L13 29L12 29L12 25L11 25L11 23L10 23L10 24L9 24L9 25L8 25L8 27L11 27L11 28L8 28L8 32L9 32L9 33L8 33L8 34L9 34L9 35L8 35L8 36L9 36L9 37L16 37L16 36L13 36L13 34L14 34L14 35L15 35L15 34L16 34L16 35L17 35L17 37L19 37L19 36L22 36L22 37L25 37L25 33L26 33L26 34L27 34L27 33L26 33L26 32L28 32L28 34L29 34L29 35L28 35L28 37L29 37L29 35L30 35L30 33L32 33L32 34L31 34L31 37L34 37L34 35L35 35L35 34L36 34L36 35L37 35L37 33L35 33L35 34L34 34L34 32L35 32L35 30L36 30L36 31L37 31L37 25L36 25L36 24L37 24L37 23L36 23L36 21L37 21L37 20L36 20L36 19L37 19L37 16L36 16L36 15L37 15L37 13L36 13L36 14L35 14L35 12L36 12L36 11L37 11L37 8L36 8L36 11L35 11L35 12L34 12L34 9L35 9L35 8L33 8L33 9L32 9L32 8L29 8L29 10L28 10L28 9L27 9L27 8L26 8L26 7L27 7L27 6L28 6L28 7L29 7L29 6L28 6L28 4L29 4L29 3L26 3L26 2L28 2L28 1L29 1L29 0L27 0L27 1L26 1L26 0L25 0L25 4L26 4L26 5L27 5L27 6L26 6L26 7L25 7L25 6L24 6L24 5L23 5L23 4L22 4L22 5L21 5L21 6L20 6L20 4L18 4L18 3L19 3L19 0L18 0L18 3L17 3L17 4L16 4L16 3L15 3L15 1L17 1L17 0L15 0L15 1L14 1L14 3L13 3L13 1L12 1L12 0ZM20 0L20 3L21 3L21 2L22 2L22 1L23 1L23 0L22 0L22 1L21 1L21 0ZM10 1L10 3L11 3L11 4L12 4L12 5L10 5L10 6L9 6L9 7L10 7L10 6L11 6L11 7L12 7L12 8L10 8L10 9L12 9L12 11L11 11L11 10L10 10L10 12L11 12L11 14L10 14L10 13L9 13L9 14L10 14L10 15L11 15L11 16L8 16L8 15L6 15L6 16L8 16L8 19L9 19L9 17L11 17L11 16L12 16L12 15L11 15L11 14L12 14L12 12L13 12L13 10L14 10L14 8L15 8L15 9L18 9L18 8L19 8L19 10L18 10L18 11L17 11L17 10L15 10L15 12L14 12L14 14L13 14L13 16L14 16L14 14L16 14L16 16L17 16L17 17L18 17L18 18L17 18L17 19L16 19L16 17L15 17L15 19L16 19L16 22L15 22L15 24L16 24L16 23L17 23L17 24L18 24L18 23L19 23L19 25L18 25L18 27L20 27L20 28L19 28L19 30L17 30L17 29L16 29L16 30L15 30L15 29L14 29L14 30L12 30L12 29L10 29L10 31L11 31L11 30L12 30L12 32L10 32L10 33L11 33L11 34L10 34L10 36L11 36L11 35L12 35L12 34L13 34L13 33L18 33L18 34L17 34L17 35L19 35L19 32L21 32L21 33L20 33L20 35L23 35L23 32L22 32L22 31L24 31L24 32L26 32L26 31L27 31L27 30L28 30L28 29L26 29L26 28L25 28L25 27L26 27L26 26L25 26L25 25L26 25L26 24L27 24L27 25L28 25L28 26L32 26L32 28L33 28L33 29L36 29L36 27L35 27L35 26L36 26L36 25L35 25L35 24L36 24L36 23L35 23L35 21L36 21L36 20L34 20L34 21L32 21L32 23L33 23L33 22L34 22L34 25L30 25L30 24L31 24L31 23L30 23L30 22L29 22L29 21L30 21L30 20L33 20L33 19L36 19L36 18L35 18L35 17L33 17L33 15L34 15L34 16L35 16L35 15L34 15L34 13L33 13L33 10L32 10L32 9L30 9L30 10L29 10L29 11L28 11L28 10L27 10L27 9L26 9L26 8L24 8L24 6L23 6L23 5L22 5L22 6L21 6L21 7L22 7L22 8L23 8L23 10L21 10L21 8L19 8L19 7L20 7L20 6L19 6L19 7L18 7L18 4L17 4L17 7L16 7L16 5L15 5L15 4L13 4L13 3L12 3L12 2L11 2L11 1ZM13 5L13 6L12 6L12 7L13 7L13 8L14 8L14 7L15 7L15 8L16 8L16 7L15 7L15 5ZM13 6L13 7L14 7L14 6ZM22 6L22 7L23 7L23 6ZM1 8L1 9L0 9L0 10L1 10L1 11L2 11L2 10L4 10L4 8L3 8L3 9L2 9L2 8ZM1 9L1 10L2 10L2 9ZM25 9L25 11L24 11L24 12L25 12L25 13L27 13L27 14L28 14L28 15L29 15L29 14L31 14L31 15L33 15L33 14L31 14L31 13L32 13L32 12L30 12L30 11L29 11L29 12L28 12L28 11L27 11L27 12L26 12L26 9ZM6 10L6 11L7 11L7 10ZM20 10L20 12L19 12L19 11L18 11L18 12L19 12L19 13L20 13L20 15L21 15L21 16L26 16L26 17L25 17L25 18L26 18L26 20L28 20L28 19L29 19L29 20L30 20L30 19L33 19L33 17L32 17L32 16L28 16L28 17L30 17L30 19L29 19L29 18L28 18L28 19L27 19L27 15L26 15L26 14L22 14L22 13L23 13L23 11L21 11L21 10ZM31 10L31 11L32 11L32 10ZM3 11L3 12L4 12L4 11ZM16 12L16 13L17 13L17 12ZM20 12L20 13L22 13L22 12ZM27 12L27 13L28 13L28 12ZM17 14L17 16L18 16L18 17L19 17L19 22L20 22L20 20L21 20L21 25L23 25L23 23L22 23L22 21L23 21L23 22L24 22L24 19L23 19L23 20L22 20L22 19L20 19L20 17L19 17L19 15L18 15L18 14ZM21 14L21 15L22 15L22 14ZM6 17L6 18L7 18L7 17ZM21 17L21 18L23 18L23 17ZM6 19L6 20L7 20L7 19ZM10 20L10 21L11 21L11 20ZM17 20L17 21L18 21L18 20ZM6 21L6 22L7 22L7 21ZM25 21L25 24L26 24L26 23L27 23L27 24L28 24L28 25L29 25L29 24L30 24L30 23L27 23L27 21ZM17 22L17 23L18 23L18 22ZM0 24L0 25L1 25L1 24ZM9 25L9 26L11 26L11 25ZM0 26L0 27L1 27L1 28L0 28L0 29L7 29L7 28L5 28L5 27L3 27L3 26L2 26L2 27L1 27L1 26ZM21 26L21 27L22 27L22 26ZM23 26L23 28L22 28L22 29L23 29L23 30L24 30L24 27L25 27L25 26ZM2 27L2 28L3 28L3 27ZM27 27L27 28L28 28L28 27ZM34 27L34 28L35 28L35 27ZM20 28L20 29L21 29L21 28ZM29 29L29 32L32 32L32 29ZM19 30L19 31L18 31L18 32L19 32L19 31L22 31L22 30ZM30 30L30 31L31 31L31 30ZM33 30L33 31L34 31L34 30ZM14 31L14 32L15 32L15 31ZM21 33L21 34L22 34L22 33ZM26 35L26 36L27 36L27 35ZM32 35L32 36L33 36L33 35ZM35 36L35 37L37 37L37 36ZM0 0L0 7L7 7L7 0ZM1 1L1 6L6 6L6 1ZM2 2L2 5L5 5L5 2ZM30 0L30 7L37 7L37 0ZM31 1L31 6L36 6L36 1ZM32 2L32 5L35 5L35 2ZM0 30L0 37L7 37L7 30ZM1 31L1 36L6 36L6 31ZM2 32L2 35L5 35L5 32Z" fill="#000000"/></g></g></svg>
