<?xml version="1.0" encoding="UTF-8"?>
<svg xmlns="http://www.w3.org/2000/svg" version="1.1" width="300" height="300" viewBox="0 0 300 300"><rect x="0" y="0" width="300" height="300" fill="#ffffff"/><g transform="scale(8.108)"><g transform="translate(0,0)"><path fill-rule="evenodd" d="M11 0L11 1L12 1L12 0ZM18 0L18 2L20 2L20 3L17 3L17 2L16 2L16 1L15 1L15 2L14 2L14 1L13 1L13 2L14 2L14 5L12 5L12 4L13 4L13 3L12 3L12 4L11 4L11 3L10 3L10 1L9 1L9 2L8 2L8 3L10 3L10 5L9 5L9 4L8 4L8 7L9 7L9 8L8 8L8 9L14 9L14 7L15 7L15 6L16 6L16 7L17 7L17 8L16 8L16 10L15 10L15 11L16 11L16 12L17 12L17 13L16 13L16 14L17 14L17 16L18 16L18 18L17 18L17 17L16 17L16 15L15 15L15 14L14 14L14 15L13 15L13 13L15 13L15 12L13 12L13 11L12 11L12 10L10 10L10 11L11 11L11 12L9 12L9 14L10 14L10 13L11 13L11 15L13 15L13 16L11 16L11 17L9 17L9 18L8 18L8 17L7 17L7 16L10 16L10 15L7 15L7 14L8 14L8 13L7 13L7 12L8 12L8 11L9 11L9 10L6 10L6 11L7 11L7 12L6 12L6 13L7 13L7 14L5 14L5 15L3 15L3 14L4 14L4 13L5 13L5 8L4 8L4 10L0 10L0 14L1 14L1 15L0 15L0 17L1 17L1 18L3 18L3 19L0 19L0 20L2 20L2 21L0 21L0 22L2 22L2 21L4 21L4 22L3 22L3 25L2 25L2 23L1 23L1 24L0 24L0 26L2 26L2 27L3 27L3 28L0 28L0 29L3 29L3 28L4 28L4 29L5 29L5 28L4 28L4 25L5 25L5 27L7 27L7 28L6 28L6 29L8 29L8 30L9 30L9 29L8 29L8 27L9 27L9 28L10 28L10 26L11 26L11 28L12 28L12 29L14 29L14 31L13 31L13 30L11 30L11 31L9 31L9 32L8 32L8 33L10 33L10 34L9 34L9 35L8 35L8 36L9 36L9 35L12 35L12 36L11 36L11 37L12 37L12 36L13 36L13 37L15 37L15 36L14 36L14 35L16 35L16 37L17 37L17 35L18 35L18 34L20 34L20 35L21 35L21 36L22 36L22 35L23 35L23 34L21 34L21 33L18 33L18 32L19 32L19 29L21 29L21 30L20 30L20 32L21 32L21 30L22 30L22 29L23 29L23 31L22 31L22 33L25 33L25 32L24 32L24 30L25 30L25 29L23 29L23 28L25 28L25 25L28 25L28 27L29 27L29 28L27 28L27 26L26 26L26 29L28 29L28 33L27 33L27 30L26 30L26 33L27 33L27 34L25 34L25 35L24 35L24 36L23 36L23 37L26 37L26 35L27 35L27 34L28 34L28 35L29 35L29 36L30 36L30 37L31 37L31 33L33 33L33 31L34 31L34 34L33 34L33 35L34 35L34 37L37 37L37 36L36 36L36 34L35 34L35 33L36 33L36 32L35 32L35 31L36 31L36 29L37 29L37 28L36 28L36 24L37 24L37 20L36 20L36 17L37 17L37 16L36 16L36 15L35 15L35 14L33 14L33 13L34 13L34 12L35 12L35 11L36 11L36 9L35 9L35 8L34 8L34 9L35 9L35 10L34 10L34 11L33 11L33 10L32 10L32 11L31 11L31 12L30 12L30 11L28 11L28 10L27 10L27 9L26 9L26 7L27 7L27 8L28 8L28 9L30 9L30 10L31 10L31 9L33 9L33 8L31 8L31 9L30 9L30 8L28 8L28 7L29 7L29 6L28 6L28 7L27 7L27 6L26 6L26 7L25 7L25 5L23 5L23 2L24 2L24 3L26 3L26 5L28 5L28 2L29 2L29 1L28 1L28 0L27 0L27 1L28 1L28 2L27 2L27 3L26 3L26 2L25 2L25 1L23 1L23 2L22 2L22 1L21 1L21 0ZM20 1L20 2L21 2L21 1ZM15 3L15 4L17 4L17 3ZM20 3L20 4L21 4L21 7L22 7L22 9L21 9L21 8L20 8L20 11L19 11L19 9L17 9L17 10L18 10L18 14L19 14L19 13L21 13L21 14L20 14L20 15L19 15L19 17L20 17L20 18L21 18L21 19L22 19L22 17L23 17L23 18L24 18L24 17L26 17L26 14L25 14L25 13L26 13L26 12L27 12L27 14L29 14L29 16L28 16L28 15L27 15L27 17L30 17L30 18L29 18L29 19L30 19L30 20L31 20L31 19L32 19L32 21L28 21L28 19L27 19L27 18L25 18L25 19L24 19L24 20L22 20L22 21L21 21L21 22L20 22L20 20L19 20L19 18L18 18L18 20L19 20L19 21L18 21L18 22L17 22L17 23L15 23L15 22L16 22L16 21L17 21L17 19L14 19L14 21L13 21L13 23L11 23L11 22L12 22L12 20L13 20L13 19L11 19L11 18L12 18L12 17L11 17L11 18L10 18L10 20L9 20L9 22L10 22L10 23L9 23L9 24L7 24L7 23L4 23L4 24L5 24L5 25L6 25L6 26L7 26L7 27L8 27L8 26L7 26L7 25L9 25L9 26L10 26L10 23L11 23L11 24L12 24L12 25L13 25L13 26L12 26L12 28L14 28L14 27L15 27L15 26L16 26L16 27L17 27L17 29L19 29L19 27L20 27L20 28L21 28L21 29L22 29L22 27L23 27L23 26L21 26L21 25L20 25L20 24L21 24L21 23L22 23L22 22L24 22L24 21L25 21L25 20L26 20L26 19L27 19L27 21L26 21L26 22L25 22L25 23L24 23L24 24L22 24L22 25L25 25L25 24L26 24L26 23L27 23L27 21L28 21L28 22L30 22L30 23L29 23L29 24L28 24L28 25L30 25L30 24L31 24L31 25L32 25L32 24L33 24L33 25L34 25L34 22L35 22L35 23L36 23L36 21L33 21L33 19L32 19L32 18L31 18L31 17L30 17L30 16L32 16L32 17L34 17L34 18L35 18L35 17L34 17L34 15L33 15L33 14L32 14L32 13L33 13L33 12L32 12L32 13L29 13L29 12L27 12L27 11L25 11L25 9L24 9L24 11L22 11L22 12L21 12L21 10L22 10L22 9L23 9L23 8L24 8L24 6L23 6L23 5L22 5L22 3ZM18 4L18 5L17 5L17 7L18 7L18 6L19 6L19 7L20 7L20 5L19 5L19 4ZM11 5L11 8L13 8L13 7L14 7L14 6L13 6L13 7L12 7L12 5ZM9 6L9 7L10 7L10 6ZM22 6L22 7L23 7L23 6ZM1 8L1 9L2 9L2 8ZM6 8L6 9L7 9L7 8ZM1 12L1 13L2 13L2 14L3 14L3 12ZM12 12L12 13L13 13L13 12ZM24 12L24 13L22 13L22 14L21 14L21 16L22 16L22 15L23 15L23 16L24 16L24 13L25 13L25 12ZM30 14L30 15L32 15L32 16L33 16L33 15L32 15L32 14ZM1 15L1 17L2 17L2 16L3 16L3 15ZM6 15L6 16L7 16L7 15ZM4 16L4 17L5 17L5 16ZM13 16L13 17L14 17L14 18L15 18L15 17L14 17L14 16ZM6 17L6 18L7 18L7 17ZM4 18L4 19L5 19L5 18ZM6 19L6 20L5 20L5 21L6 21L6 22L8 22L8 20L7 20L7 19ZM6 20L6 21L7 21L7 20ZM10 21L10 22L11 22L11 21ZM14 21L14 22L15 22L15 21ZM32 21L32 23L31 23L31 24L32 24L32 23L33 23L33 21ZM18 22L18 23L17 23L17 25L16 25L16 26L17 26L17 27L18 27L18 26L19 26L19 23L20 23L20 22ZM6 24L6 25L7 25L7 24ZM14 24L14 26L15 26L15 24ZM17 25L17 26L18 26L18 25ZM29 26L29 27L30 27L30 28L33 28L33 29L34 29L34 30L35 30L35 26L34 26L34 27L33 27L33 26L32 26L32 27L31 27L31 26ZM15 29L15 31L14 31L14 32L12 32L12 31L11 31L11 32L12 32L12 33L13 33L13 34L12 34L12 35L13 35L13 34L14 34L14 32L16 32L16 33L17 33L17 34L16 34L16 35L17 35L17 34L18 34L18 33L17 33L17 32L18 32L18 31L17 31L17 32L16 32L16 29ZM29 29L29 32L32 32L32 29ZM30 30L30 31L31 31L31 30ZM28 33L28 34L29 34L29 35L30 35L30 33ZM18 36L18 37L20 37L20 36ZM32 36L32 37L33 37L33 36ZM0 0L0 7L7 7L7 0ZM1 1L1 6L6 6L6 1ZM2 2L2 5L5 5L5 2ZM30 0L30 7L37 7L37 0ZM31 1L31 6L36 6L36 1ZM32 2L32 5L35 5L35 2ZM0 30L0 37L7 37L7 30ZM1 31L1 36L6 36L6 31ZM2 32L2 35L5 35L5 32Z" fill="#000000"/></g></g></svg>
