<?xml version="1.0" encoding="UTF-8"?>
<svg xmlns="http://www.w3.org/2000/svg" version="1.1" width="300" height="300" viewBox="0 0 300 300"><rect x="0" y="0" width="300" height="300" fill="#ffffff"/><g transform="scale(6.122)"><g transform="translate(0,0)"><path fill-rule="evenodd" d="M8 0L8 1L10 1L10 2L12 2L12 3L11 3L11 5L10 5L10 3L9 3L9 4L8 4L8 7L9 7L9 5L10 5L10 7L11 7L11 6L12 6L12 7L13 7L13 10L14 10L14 11L13 11L13 12L12 12L12 13L11 13L11 12L8 12L8 11L9 11L9 10L10 10L10 9L9 9L9 10L8 10L8 8L1 8L1 9L0 9L0 10L1 10L1 11L3 11L3 12L2 12L2 14L3 14L3 12L4 12L4 13L5 13L5 14L6 14L6 15L2 15L2 16L3 16L3 17L4 17L4 19L3 19L3 18L1 18L1 15L0 15L0 18L1 18L1 19L0 19L0 20L1 20L1 21L0 21L0 27L1 27L1 28L0 28L0 29L1 29L1 30L2 30L2 32L1 32L1 31L0 31L0 33L4 33L4 35L5 35L5 37L4 37L4 36L3 36L3 37L4 37L4 38L5 38L5 39L7 39L7 38L5 38L5 37L7 37L7 36L9 36L9 37L10 37L10 38L13 38L13 37L16 37L16 35L17 35L17 37L19 37L19 38L18 38L18 39L17 39L17 38L14 38L14 39L15 39L15 41L14 41L14 40L13 40L13 39L12 39L12 41L14 41L14 42L13 42L13 43L14 43L14 42L15 42L15 43L16 43L16 42L15 42L15 41L18 41L18 40L21 40L21 42L20 42L20 43L19 43L19 42L18 42L18 43L17 43L17 44L16 44L16 46L15 46L15 45L14 45L14 44L13 44L13 46L14 46L14 48L15 48L15 49L18 49L18 46L19 46L19 47L20 47L20 49L21 49L21 48L22 48L22 46L23 46L23 45L27 45L27 44L29 44L29 45L28 45L28 46L27 46L27 49L28 49L28 48L29 48L29 49L30 49L30 47L28 47L28 46L31 46L31 47L32 47L32 48L31 48L31 49L32 49L32 48L33 48L33 49L34 49L34 47L37 47L37 48L35 48L35 49L38 49L38 48L40 48L40 49L41 49L41 46L40 46L40 45L42 45L42 46L43 46L43 47L42 47L42 48L43 48L43 47L44 47L44 48L45 48L45 49L49 49L49 45L48 45L48 44L46 44L46 46L45 46L45 43L46 43L46 42L45 42L45 41L48 41L48 40L45 40L45 39L44 39L44 37L45 37L45 38L46 38L46 39L49 39L49 38L46 38L46 37L47 37L47 36L48 36L48 37L49 37L49 34L47 34L47 36L46 36L46 34L44 34L44 33L49 33L49 32L44 32L44 31L45 31L45 30L44 30L44 29L45 29L45 28L44 28L44 27L45 27L45 25L48 25L48 24L45 24L45 23L46 23L46 22L47 22L47 23L49 23L49 22L47 22L47 20L48 20L48 21L49 21L49 18L47 18L47 17L48 17L48 16L45 16L45 14L46 14L46 15L49 15L49 14L46 14L46 13L48 13L48 12L46 12L46 11L44 11L44 10L43 10L43 9L45 9L45 8L43 8L43 9L42 9L42 10L41 10L41 12L38 12L38 13L37 13L37 12L36 12L36 15L35 15L35 14L34 14L34 13L33 13L33 14L32 14L32 13L30 13L30 14L29 14L29 12L26 12L26 11L27 11L27 10L29 10L29 11L30 11L30 12L33 12L33 11L30 11L30 10L32 10L32 9L30 9L30 10L29 10L29 8L32 8L32 7L33 7L33 10L34 10L34 12L35 12L35 10L36 10L36 11L39 11L39 10L37 10L37 8L38 8L38 9L41 9L41 8L38 8L38 7L39 7L39 5L38 5L38 3L35 3L35 2L37 2L37 1L38 1L38 2L39 2L39 4L40 4L40 3L41 3L41 0L40 0L40 1L38 1L38 0L35 0L35 1L31 1L31 0L28 0L28 1L31 1L31 2L32 2L32 3L33 3L33 4L37 4L37 6L36 6L36 7L35 7L35 5L33 5L33 6L32 6L32 7L31 7L31 6L30 6L30 5L32 5L32 4L30 4L30 2L27 2L27 1L26 1L26 2L27 2L27 3L25 3L25 4L24 4L24 3L23 3L23 2L22 2L22 0L21 0L21 1L20 1L20 2L19 2L19 0L16 0L16 1L15 1L15 0ZM23 0L23 1L25 1L25 0ZM12 1L12 2L15 2L15 1ZM16 1L16 3L17 3L17 4L18 4L18 5L19 5L19 7L18 7L18 6L17 6L17 5L16 5L16 6L15 6L15 4L14 4L14 3L12 3L12 4L13 4L13 5L12 5L12 6L13 6L13 7L14 7L14 8L15 8L15 7L16 7L16 6L17 6L17 7L18 7L18 10L19 10L19 9L20 9L20 10L21 10L21 11L19 11L19 12L18 12L18 11L14 11L14 12L18 12L18 13L16 13L16 14L14 14L14 13L13 13L13 16L14 16L14 17L12 17L12 15L11 15L11 16L10 16L10 14L9 14L9 13L6 13L6 14L9 14L9 15L8 15L8 16L7 16L7 15L6 15L6 16L7 16L7 17L5 17L5 18L7 18L7 17L8 17L8 18L10 18L10 19L9 19L9 20L10 20L10 21L8 21L8 20L7 20L7 19L6 19L6 20L5 20L5 19L4 19L4 21L3 21L3 19L1 19L1 20L2 20L2 21L1 21L1 23L2 23L2 24L1 24L1 26L2 26L2 24L3 24L3 25L4 25L4 24L3 24L3 22L5 22L5 21L6 21L6 22L10 22L10 23L11 23L11 22L12 22L12 23L13 23L13 25L9 25L9 28L7 28L7 27L4 27L4 26L3 26L3 27L4 27L4 28L7 28L7 29L5 29L5 30L4 30L4 31L3 31L3 32L5 32L5 31L6 31L6 32L7 32L7 33L6 33L6 34L5 34L5 35L6 35L6 36L7 36L7 35L6 35L6 34L9 34L9 36L10 36L10 37L13 37L13 36L12 36L12 34L11 34L11 33L13 33L13 32L15 32L15 35L16 35L16 32L18 32L18 33L17 33L17 35L20 35L20 36L19 36L19 37L20 37L20 36L21 36L21 40L23 40L23 39L22 39L22 36L23 36L23 34L22 34L22 35L20 35L20 32L21 32L21 33L24 33L24 31L23 31L23 32L22 32L22 28L23 28L23 30L24 30L24 27L20 27L20 28L19 28L19 29L20 29L20 30L21 30L21 31L18 31L18 30L17 30L17 29L18 29L18 26L20 26L20 25L19 25L19 24L21 24L21 23L22 23L22 21L23 21L23 22L25 22L25 21L26 21L26 22L27 22L27 21L29 21L29 19L30 19L30 20L31 20L31 22L30 22L30 23L31 23L31 24L32 24L32 25L33 25L33 28L32 28L32 27L31 27L31 26L29 26L29 25L30 25L30 24L29 24L29 22L28 22L28 23L27 23L27 24L28 24L28 25L27 25L27 26L28 26L28 27L29 27L29 28L27 28L27 27L25 27L25 28L26 28L26 30L27 30L27 29L29 29L29 28L30 28L30 29L31 29L31 28L32 28L32 31L31 31L31 30L28 30L28 32L27 32L27 31L26 31L26 35L25 35L25 34L24 34L24 37L23 37L23 38L25 38L25 39L24 39L24 40L25 40L25 39L29 39L29 40L27 40L27 43L29 43L29 42L30 42L30 41L29 41L29 40L30 40L30 39L31 39L31 41L34 41L34 42L31 42L31 43L33 43L33 44L32 44L32 47L33 47L33 46L35 46L35 44L37 44L37 43L35 43L35 40L38 40L38 41L37 41L37 42L38 42L38 43L40 43L40 41L39 41L39 40L44 40L44 39L38 39L38 38L39 38L39 36L40 36L40 37L41 37L41 36L42 36L42 37L44 37L44 36L45 36L45 37L46 37L46 36L45 36L45 35L44 35L44 34L43 34L43 33L44 33L44 32L43 32L43 31L44 31L44 30L43 30L43 31L42 31L42 32L41 32L41 33L42 33L42 34L39 34L39 33L38 33L38 32L40 32L40 31L41 31L41 30L42 30L42 29L41 29L41 28L40 28L40 27L38 27L38 26L40 26L40 24L39 24L39 23L40 23L40 22L41 22L41 21L42 21L42 17L43 17L43 16L42 16L42 15L43 15L43 14L41 14L41 13L42 13L42 12L41 12L41 13L40 13L40 14L41 14L41 16L39 16L39 17L40 17L40 18L37 18L37 17L38 17L38 16L37 16L37 15L38 15L38 14L39 14L39 13L38 13L38 14L37 14L37 15L36 15L36 16L35 16L35 18L34 18L34 17L33 17L33 16L34 16L34 14L33 14L33 16L31 16L31 15L32 15L32 14L30 14L30 16L29 16L29 17L28 17L28 15L29 15L29 14L27 14L27 13L26 13L26 12L23 12L23 13L24 13L24 14L23 14L23 15L22 15L22 14L21 14L21 11L22 11L22 10L23 10L23 11L24 11L24 9L22 9L22 8L20 8L20 5L21 5L21 7L22 7L22 4L18 4L18 1ZM33 2L33 3L34 3L34 2ZM27 3L27 5L28 5L28 6L27 6L27 9L26 9L26 10L27 10L27 9L28 9L28 6L29 6L29 7L30 7L30 6L29 6L29 5L28 5L28 3ZM13 5L13 6L14 6L14 7L15 7L15 6L14 6L14 5ZM23 5L23 8L26 8L26 5ZM24 6L24 7L25 7L25 6ZM33 6L33 7L34 7L34 10L35 10L35 9L36 9L36 8L35 8L35 7L34 7L34 6ZM37 6L37 7L38 7L38 6ZM40 6L40 7L41 7L41 6ZM48 8L48 9L46 9L46 10L48 10L48 11L49 11L49 10L48 10L48 9L49 9L49 8ZM1 9L1 10L2 10L2 9ZM3 9L3 11L5 11L5 9ZM6 9L6 10L7 10L7 11L6 11L6 12L7 12L7 11L8 11L8 10L7 10L7 9ZM15 9L15 10L17 10L17 9ZM11 10L11 11L12 11L12 10ZM42 10L42 11L43 11L43 12L44 12L44 13L46 13L46 12L44 12L44 11L43 11L43 10ZM0 12L0 13L1 13L1 12ZM19 12L19 13L20 13L20 12ZM25 13L25 17L23 17L23 16L24 16L24 15L23 15L23 16L22 16L22 17L23 17L23 18L25 18L25 19L24 19L24 20L23 20L23 19L22 19L22 18L21 18L21 16L19 16L19 18L20 18L20 20L21 20L21 19L22 19L22 20L23 20L23 21L25 21L25 19L26 19L26 20L28 20L28 17L27 17L27 18L25 18L25 17L26 17L26 13ZM17 14L17 15L15 15L15 16L16 16L16 17L15 17L15 18L12 18L12 17L10 17L10 18L12 18L12 19L15 19L15 21L14 21L14 22L15 22L15 23L14 23L14 25L13 25L13 26L12 26L12 27L10 27L10 28L12 28L12 27L13 27L13 28L14 28L14 27L16 27L16 29L17 29L17 27L16 27L16 24L17 24L17 23L18 23L18 22L19 22L19 21L18 21L18 22L16 22L16 18L17 18L17 20L19 20L19 19L18 19L18 18L17 18L17 17L18 17L18 16L17 16L17 15L19 15L19 14ZM20 14L20 15L21 15L21 14ZM36 16L36 17L37 17L37 16ZM41 16L41 17L42 17L42 16ZM44 16L44 17L45 17L45 16ZM29 17L29 18L30 18L30 19L32 19L32 20L34 20L34 18L32 18L32 17L31 17L31 18L30 18L30 17ZM36 18L36 19L37 19L37 20L36 20L36 21L35 21L35 22L33 22L33 21L32 21L32 22L31 22L31 23L32 23L32 24L33 24L33 23L34 23L34 25L36 25L36 26L34 26L34 27L35 27L35 30L33 30L33 32L31 32L31 31L29 31L29 32L28 32L28 33L27 33L27 34L28 34L28 36L27 36L27 35L26 35L26 36L27 36L27 38L28 38L28 36L34 36L34 37L29 37L29 38L31 38L31 39L32 39L32 40L34 40L34 39L35 39L35 38L36 38L36 39L37 39L37 38L38 38L38 35L39 35L39 34L38 34L38 33L37 33L37 34L38 34L38 35L37 35L37 36L36 36L36 34L34 34L34 31L35 31L35 30L36 30L36 32L35 32L35 33L36 33L36 32L37 32L37 30L38 30L38 31L40 31L40 30L38 30L38 29L40 29L40 28L38 28L38 29L37 29L37 28L36 28L36 26L37 26L37 24L38 24L38 23L39 23L39 22L38 22L38 23L37 23L37 21L41 21L41 20L40 20L40 19L37 19L37 18ZM46 18L46 19L45 19L45 20L44 20L44 21L43 21L43 22L46 22L46 20L47 20L47 18ZM10 19L10 20L11 20L11 19ZM6 20L6 21L7 21L7 20ZM12 21L12 22L13 22L13 21ZM20 21L20 23L21 23L21 21ZM32 22L32 23L33 23L33 22ZM5 23L5 26L8 26L8 23ZM23 23L23 26L26 26L26 23ZM35 23L35 24L37 24L37 23ZM41 23L41 26L44 26L44 23ZM6 24L6 25L7 25L7 24ZM24 24L24 25L25 25L25 24ZM42 24L42 25L43 25L43 24ZM14 25L14 26L13 26L13 27L14 27L14 26L15 26L15 25ZM17 25L17 26L18 26L18 25ZM21 25L21 26L22 26L22 25ZM46 26L46 27L47 27L47 28L46 28L46 31L47 31L47 28L48 28L48 29L49 29L49 26ZM30 27L30 28L31 28L31 27ZM42 27L42 28L43 28L43 29L44 29L44 28L43 28L43 27ZM33 28L33 29L34 29L34 28ZM2 29L2 30L3 30L3 29ZM7 29L7 30L6 30L6 31L7 31L7 30L9 30L9 29ZM10 29L10 30L11 30L11 29ZM12 29L12 31L11 31L11 32L10 32L10 31L8 31L8 33L9 33L9 34L10 34L10 33L11 33L11 32L13 32L13 30L15 30L15 29ZM48 30L48 31L49 31L49 30ZM29 32L29 33L31 33L31 34L29 34L29 35L31 35L31 34L32 34L32 33L31 33L31 32ZM18 33L18 34L19 34L19 33ZM0 34L0 35L1 35L1 34ZM2 34L2 35L3 35L3 34ZM33 34L33 35L34 35L34 36L35 36L35 37L34 37L34 38L32 38L32 39L34 39L34 38L35 38L35 37L36 37L36 38L37 38L37 37L36 37L36 36L35 36L35 35L34 35L34 34ZM42 34L42 35L43 35L43 34ZM40 35L40 36L41 36L41 35ZM1 37L1 40L0 40L0 41L3 41L3 40L4 40L4 39L2 39L2 37ZM25 37L25 38L26 38L26 37ZM19 38L19 39L20 39L20 38ZM8 39L8 40L6 40L6 41L8 41L8 48L9 48L9 49L10 49L10 48L11 48L11 49L12 49L12 48L13 48L13 47L12 47L12 48L11 48L11 47L10 47L10 45L11 45L11 46L12 46L12 45L11 45L11 42L10 42L10 41L11 41L11 39L10 39L10 40L9 40L9 39ZM16 39L16 40L17 40L17 39ZM8 40L8 41L9 41L9 40ZM23 41L23 44L26 44L26 41ZM41 41L41 44L44 44L44 41ZM9 42L9 44L10 44L10 42ZM21 42L21 43L20 43L20 45L22 45L22 42ZM24 42L24 43L25 43L25 42ZM42 42L42 43L43 43L43 42ZM47 42L47 43L49 43L49 42ZM34 43L34 44L33 44L33 45L34 45L34 44L35 44L35 43ZM17 44L17 45L18 45L18 44ZM38 45L38 46L37 46L37 47L38 47L38 46L39 46L39 47L40 47L40 46L39 46L39 45ZM43 45L43 46L44 46L44 47L45 47L45 48L48 48L48 47L47 47L47 46L46 46L46 47L45 47L45 46L44 46L44 45ZM16 46L16 47L15 47L15 48L17 48L17 46ZM24 46L24 47L23 47L23 48L24 48L24 49L25 49L25 48L26 48L26 47L25 47L25 46ZM24 47L24 48L25 48L25 47ZM0 0L0 7L7 7L7 0ZM1 1L1 6L6 6L6 1ZM2 2L2 5L5 5L5 2ZM42 0L42 7L49 7L49 0ZM43 1L43 6L48 6L48 1ZM44 2L44 5L47 5L47 2ZM0 42L0 49L7 49L7 42ZM1 43L1 48L6 48L6 43ZM2 44L2 47L5 47L5 44Z" fill="#000000"/></g></g></svg>
