<?xml version="1.0" encoding="UTF-8"?>
<svg xmlns="http://www.w3.org/2000/svg" version="1.1" width="300" height="300" viewBox="0 0 300 300"><rect x="0" y="0" width="300" height="300" fill="#ffffff"/><g transform="scale(8.108)"><g transform="translate(0,0)"><path fill-rule="evenodd" d="M8 0L8 5L9 5L9 4L10 4L10 5L13 5L13 6L12 6L12 7L11 7L11 6L10 6L10 8L12 8L12 7L13 7L13 6L14 6L14 7L15 7L15 9L13 9L13 10L14 10L14 12L15 12L15 10L16 10L16 11L17 11L17 12L16 12L16 13L14 13L14 15L13 15L13 14L11 14L11 13L13 13L13 11L12 11L12 9L11 9L11 10L10 10L10 9L9 9L9 11L8 11L8 12L9 12L9 13L10 13L10 14L8 14L8 13L7 13L7 12L4 12L4 11L2 11L2 10L4 10L4 9L5 9L5 8L4 8L4 9L3 9L3 8L1 8L1 9L2 9L2 10L0 10L0 11L2 11L2 12L4 12L4 13L3 13L3 14L2 14L2 13L1 13L1 12L0 12L0 14L1 14L1 16L0 16L0 19L3 19L3 20L1 20L1 21L2 21L2 22L3 22L3 21L4 21L4 19L8 19L8 20L6 20L6 21L5 21L5 23L2 23L2 24L3 24L3 25L4 25L4 24L5 24L5 25L7 25L7 26L6 26L6 27L5 27L5 28L4 28L4 27L3 27L3 28L2 28L2 27L1 27L1 26L2 26L2 25L1 25L1 24L0 24L0 25L1 25L1 26L0 26L0 27L1 27L1 28L0 28L0 29L1 29L1 28L2 28L2 29L3 29L3 28L4 28L4 29L5 29L5 28L6 28L6 29L7 29L7 28L8 28L8 31L9 31L9 32L8 32L8 33L10 33L10 35L11 35L11 33L10 33L10 29L9 29L9 27L11 27L11 30L12 30L12 28L13 28L13 29L14 29L14 28L15 28L15 30L14 30L14 32L13 32L13 33L14 33L14 32L16 32L16 34L12 34L12 36L11 36L11 37L12 37L12 36L13 36L13 37L14 37L14 36L13 36L13 35L15 35L15 36L16 36L16 34L17 34L17 35L18 35L18 36L20 36L20 35L18 35L18 32L19 32L19 31L18 31L18 32L17 32L17 31L15 31L15 30L17 30L17 28L16 28L16 27L14 27L14 26L13 26L13 25L15 25L15 26L17 26L17 27L18 27L18 29L19 29L19 30L21 30L21 31L20 31L20 32L21 32L21 31L22 31L22 30L21 30L21 27L22 27L22 26L23 26L23 24L24 24L24 23L20 23L20 20L21 20L21 22L22 22L22 21L23 21L23 22L24 22L24 21L23 21L23 20L24 20L24 19L23 19L23 18L24 18L24 17L23 17L23 16L25 16L25 18L26 18L26 19L25 19L25 20L26 20L26 21L25 21L25 22L26 22L26 23L25 23L25 24L26 24L26 26L27 26L27 27L25 27L25 29L26 29L26 30L27 30L27 31L25 31L25 32L24 32L24 33L23 33L23 34L22 34L22 33L21 33L21 34L22 34L22 35L21 35L21 36L22 36L22 37L25 37L25 35L26 35L26 34L27 34L27 35L28 35L28 37L31 37L31 36L30 36L30 33L32 33L32 35L33 35L33 33L34 33L34 31L33 31L33 28L32 28L32 27L33 27L33 26L32 26L32 25L34 25L34 26L35 26L35 25L36 25L36 27L37 27L37 25L36 25L36 24L37 24L37 23L36 23L36 21L37 21L37 20L36 20L36 19L37 19L37 16L36 16L36 15L37 15L37 13L36 13L36 15L35 15L35 17L36 17L36 19L35 19L35 25L34 25L34 23L33 23L33 22L34 22L34 21L33 21L33 22L32 22L32 20L29 20L29 19L31 19L31 18L32 18L32 19L34 19L34 17L33 17L33 18L32 18L32 17L31 17L31 16L29 16L29 18L28 18L28 19L27 19L27 18L26 18L26 17L28 17L28 15L27 15L27 14L28 14L28 13L29 13L29 12L28 12L28 11L27 11L27 10L28 10L28 9L27 9L27 10L26 10L26 9L25 9L25 10L24 10L24 12L25 12L25 15L23 15L23 10L22 10L22 7L23 7L23 6L22 6L22 4L21 4L21 3L20 3L20 4L17 4L17 6L16 6L16 7L15 7L15 6L14 6L14 4L16 4L16 3L17 3L17 2L18 2L18 1L19 1L19 2L21 2L21 0L20 0L20 1L19 1L19 0L14 0L14 1L15 1L15 3L14 3L14 4L13 4L13 1L12 1L12 0ZM22 0L22 2L23 2L23 3L24 3L24 2L23 2L23 0ZM25 0L25 1L26 1L26 2L25 2L25 5L26 5L26 7L27 7L27 8L29 8L29 6L28 6L28 5L29 5L29 3L28 3L28 1L29 1L29 0L27 0L27 1L26 1L26 0ZM9 1L9 2L10 2L10 4L12 4L12 3L11 3L11 1ZM20 4L20 5L18 5L18 6L17 6L17 7L16 7L16 9L18 9L18 10L17 10L17 11L19 11L19 10L21 10L21 11L20 11L20 12L19 12L19 13L20 13L20 12L21 12L21 13L22 13L22 12L21 12L21 11L22 11L22 10L21 10L21 9L18 9L18 6L19 6L19 7L20 7L20 8L21 8L21 7L22 7L22 6L21 6L21 7L20 7L20 5L21 5L21 4ZM8 6L8 8L6 8L6 9L7 9L7 10L5 10L5 11L7 11L7 10L8 10L8 8L9 8L9 6ZM24 6L24 8L23 8L23 9L24 9L24 8L25 8L25 6ZM27 6L27 7L28 7L28 6ZM30 8L30 9L29 9L29 11L30 11L30 14L29 14L29 15L30 15L30 14L31 14L31 15L34 15L34 13L35 13L35 12L36 12L36 11L37 11L37 8L32 8L32 10L33 10L33 11L32 11L32 12L31 12L31 10L30 10L30 9L31 9L31 8ZM34 9L34 10L35 10L35 11L34 11L34 12L35 12L35 11L36 11L36 9ZM10 11L10 13L11 13L11 12L12 12L12 11ZM17 12L17 15L16 15L16 14L15 14L15 15L14 15L14 16L15 16L15 18L14 18L14 17L12 17L12 16L11 16L11 17L12 17L12 18L11 18L11 21L13 21L13 23L11 23L11 22L10 22L10 23L8 23L8 25L9 25L9 24L13 24L13 23L14 23L14 24L15 24L15 25L16 25L16 24L15 24L15 23L16 23L16 22L17 22L17 23L19 23L19 21L16 21L16 22L15 22L15 20L13 20L13 18L14 18L14 19L15 19L15 18L16 18L16 16L17 16L17 17L18 17L18 18L17 18L17 20L20 20L20 19L22 19L22 20L23 20L23 19L22 19L22 18L20 18L20 19L18 19L18 18L19 18L19 17L22 17L22 16L20 16L20 15L22 15L22 14L18 14L18 12ZM27 12L27 13L26 13L26 14L27 14L27 13L28 13L28 12ZM32 12L32 14L33 14L33 12ZM4 13L4 14L3 14L3 16L1 16L1 18L3 18L3 19L4 19L4 18L3 18L3 17L4 17L4 16L5 16L5 15L6 15L6 16L8 16L8 17L10 17L10 16L8 16L8 15L6 15L6 14L7 14L7 13ZM10 14L10 15L11 15L11 14ZM17 15L17 16L18 16L18 17L19 17L19 15ZM5 17L5 18L7 18L7 17ZM8 18L8 19L9 19L9 18ZM27 20L27 23L28 23L28 24L27 24L27 25L28 25L28 24L29 24L29 28L31 28L31 25L30 25L30 24L33 24L33 23L30 23L30 22L29 22L29 23L28 23L28 20ZM6 21L6 22L9 22L9 21ZM0 22L0 23L1 23L1 22ZM14 22L14 23L15 23L15 22ZM6 23L6 24L7 24L7 23ZM18 24L18 25L20 25L20 26L18 26L18 27L21 27L21 26L22 26L22 25L21 25L21 24ZM7 26L7 27L6 27L6 28L7 28L7 27L8 27L8 26ZM12 26L12 27L13 27L13 28L14 28L14 27L13 27L13 26ZM23 27L23 28L24 28L24 27ZM27 27L27 28L28 28L28 27ZM34 27L34 29L36 29L36 31L37 31L37 28L35 28L35 27ZM19 28L19 29L20 29L20 28ZM27 29L27 30L28 30L28 29ZM29 29L29 32L32 32L32 29ZM30 30L30 31L31 31L31 30ZM11 31L11 32L12 32L12 31ZM27 32L27 33L28 33L28 34L29 34L29 33L28 33L28 32ZM35 32L35 34L36 34L36 35L35 35L35 37L37 37L37 36L36 36L36 35L37 35L37 33L36 33L36 32ZM19 33L19 34L20 34L20 33ZM25 33L25 34L26 34L26 33ZM8 34L8 36L9 36L9 34ZM23 35L23 36L24 36L24 35ZM0 0L0 7L7 7L7 0ZM1 1L1 6L6 6L6 1ZM2 2L2 5L5 5L5 2ZM30 0L30 7L37 7L37 0ZM31 1L31 6L36 6L36 1ZM32 2L32 5L35 5L35 2ZM0 30L0 37L7 37L7 30ZM1 31L1 36L6 36L6 31ZM2 32L2 35L5 35L5 32Z" fill="#000000"/></g></g></svg>
