<?xml version="1.0" encoding="UTF-8"?>
<svg xmlns="http://www.w3.org/2000/svg" version="1.1" width="300" height="300" viewBox="0 0 300 300"><rect x="0" y="0" width="300" height="300" fill="#ffffff"/><g transform="scale(6.122)"><g transform="translate(0,0)"><path fill-rule="evenodd" d="M9 0L9 1L8 1L8 2L10 2L10 3L8 3L8 5L10 5L10 8L11 8L11 9L10 9L10 10L9 10L9 12L10 12L10 13L11 13L11 14L9 14L9 13L7 13L7 12L8 12L8 11L7 11L7 10L8 10L8 9L9 9L9 6L8 6L8 9L7 9L7 8L3 8L3 9L5 9L5 10L4 10L4 11L5 11L5 13L7 13L7 14L6 14L6 15L5 15L5 14L4 14L4 16L2 16L2 14L3 14L3 13L4 13L4 12L2 12L2 11L3 11L3 10L2 10L2 8L1 8L1 10L2 10L2 11L1 11L1 12L2 12L2 13L1 13L1 14L0 14L0 16L2 16L2 17L3 17L3 18L6 18L6 19L7 19L7 18L8 18L8 17L9 17L9 20L8 20L8 21L7 21L7 20L6 20L6 21L7 21L7 22L5 22L5 20L3 20L3 19L0 19L0 20L3 20L3 21L2 21L2 23L1 23L1 21L0 21L0 28L1 28L1 27L2 27L2 29L5 29L5 30L4 30L4 31L3 31L3 30L1 30L1 31L0 31L0 33L1 33L1 31L3 31L3 32L2 32L2 37L3 37L3 36L4 36L4 37L5 37L5 35L9 35L9 36L6 36L6 37L7 37L7 38L5 38L5 39L8 39L8 38L9 38L9 37L11 37L11 38L10 38L10 39L11 39L11 41L10 41L10 40L6 40L6 41L8 41L8 42L9 42L9 41L10 41L10 42L12 42L12 43L8 43L8 46L9 46L9 47L8 47L8 48L9 48L9 49L11 49L11 48L9 48L9 47L10 47L10 46L11 46L11 47L12 47L12 48L13 48L13 49L16 49L16 47L17 47L17 46L19 46L19 47L20 47L20 46L21 46L21 47L22 47L22 49L29 49L29 48L26 48L26 47L28 47L28 45L29 45L29 47L30 47L30 46L31 46L31 47L32 47L32 49L35 49L35 48L36 48L36 49L37 49L37 48L38 48L38 49L42 49L42 48L43 48L43 49L46 49L46 48L48 48L48 49L49 49L49 45L48 45L48 44L47 44L47 46L48 46L48 47L46 47L46 45L45 45L45 44L46 44L46 43L47 43L47 42L48 42L48 43L49 43L49 42L48 42L48 41L46 41L46 38L47 38L47 39L49 39L49 38L47 38L47 37L49 37L49 34L48 34L48 36L47 36L47 33L46 33L46 31L45 31L45 30L46 30L46 29L47 29L47 28L48 28L48 29L49 29L49 26L48 26L48 24L47 24L47 23L46 23L46 21L44 21L44 22L43 22L43 18L45 18L45 20L46 20L46 19L47 19L47 20L48 20L48 21L49 21L49 18L48 18L48 17L47 17L47 18L45 18L45 17L46 17L46 16L47 16L47 15L49 15L49 14L46 14L46 13L45 13L45 10L43 10L43 8L41 8L41 9L40 9L40 7L41 7L41 6L40 6L40 7L39 7L39 5L38 5L38 2L39 2L39 4L40 4L40 3L41 3L41 0L40 0L40 1L37 1L37 0L36 0L36 1L35 1L35 0L34 0L34 2L37 2L37 3L35 3L35 6L34 6L34 7L33 7L33 6L32 6L32 7L31 7L31 6L30 6L30 7L29 7L29 6L28 6L28 5L29 5L29 4L30 4L30 5L33 5L33 2L31 2L31 3L32 3L32 4L30 4L30 2L28 2L28 0L26 0L26 1L27 1L27 4L26 4L26 2L25 2L25 0L24 0L24 1L23 1L23 0L22 0L22 2L23 2L23 3L24 3L24 2L25 2L25 4L20 4L20 3L21 3L21 2L20 2L20 1L21 1L21 0L18 0L18 2L14 2L14 1L13 1L13 0L12 0L12 1L11 1L11 2L10 2L10 0ZM30 0L30 1L33 1L33 0ZM12 1L12 2L11 2L11 3L10 3L10 5L11 5L11 8L13 8L13 9L15 9L15 8L16 8L16 11L18 11L18 10L17 10L17 8L19 8L19 9L21 9L21 10L19 10L19 12L17 12L17 13L16 13L16 15L17 15L17 16L18 16L18 15L17 15L17 13L18 13L18 14L19 14L19 15L20 15L20 16L19 16L19 18L17 18L17 17L15 17L15 16L14 16L14 15L15 15L15 14L14 14L14 12L15 12L15 10L13 10L13 12L12 12L12 9L11 9L11 12L12 12L12 13L13 13L13 14L12 14L12 16L11 16L11 15L9 15L9 16L11 16L11 19L12 19L12 22L13 22L13 24L14 24L14 25L12 25L12 23L11 23L11 22L10 22L10 23L9 23L9 24L10 24L10 26L9 26L9 27L6 27L6 28L5 28L5 29L6 29L6 30L7 30L7 31L6 31L6 32L7 32L7 33L6 33L6 34L7 34L7 33L9 33L9 34L10 34L10 33L11 33L11 35L10 35L10 36L11 36L11 37L12 37L12 34L13 34L13 32L15 32L15 33L14 33L14 35L13 35L13 37L14 37L14 38L15 38L15 39L14 39L14 42L13 42L13 38L11 38L11 39L12 39L12 42L13 42L13 43L12 43L12 44L10 44L10 45L9 45L9 46L10 46L10 45L12 45L12 44L13 44L13 45L14 45L14 46L13 46L13 48L14 48L14 47L16 47L16 44L13 44L13 43L14 43L14 42L15 42L15 43L17 43L17 42L18 42L18 41L19 41L19 40L20 40L20 41L21 41L21 43L22 43L22 41L21 41L21 40L20 40L20 39L22 39L22 40L25 40L25 39L26 39L26 40L27 40L27 39L28 39L28 41L27 41L27 45L28 45L28 41L29 41L29 42L32 42L32 43L31 43L31 45L33 45L33 41L32 41L32 40L33 40L33 37L34 37L34 40L35 40L35 39L36 39L36 40L37 40L37 41L39 41L39 39L38 39L38 40L37 40L37 39L36 39L36 38L35 38L35 37L34 37L34 36L33 36L33 37L32 37L32 34L30 34L30 33L29 33L29 34L28 34L28 36L29 36L29 38L30 38L30 41L29 41L29 39L28 39L28 38L27 38L27 36L26 36L26 33L27 33L27 32L26 32L26 31L25 31L25 30L26 30L26 29L29 29L29 30L28 30L28 32L29 32L29 30L30 30L30 32L32 32L32 33L33 33L33 35L34 35L34 33L36 33L36 32L35 32L35 30L36 30L36 28L37 28L37 29L38 29L38 31L37 31L37 34L38 34L38 35L40 35L40 36L41 36L41 38L40 38L40 37L39 37L39 38L40 38L40 39L42 39L42 40L44 40L44 38L43 38L43 39L42 39L42 36L43 36L43 37L45 37L45 36L46 36L46 37L47 37L47 36L46 36L46 35L45 35L45 36L43 36L43 35L42 35L42 36L41 36L41 33L42 33L42 34L44 34L44 32L43 32L43 31L44 31L44 30L45 30L45 29L46 29L46 28L45 28L45 29L43 29L43 31L42 31L42 30L41 30L41 31L42 31L42 32L40 32L40 33L39 33L39 32L38 32L38 31L39 31L39 30L40 30L40 29L42 29L42 28L43 28L43 27L42 27L42 28L40 28L40 29L39 29L39 28L38 28L38 27L37 27L37 26L36 26L36 24L37 24L37 23L38 23L38 24L39 24L39 23L40 23L40 22L38 22L38 20L39 20L39 19L38 19L38 18L39 18L39 17L37 17L37 18L36 18L36 19L34 19L34 17L35 17L35 16L38 16L38 15L35 15L35 14L37 14L37 13L39 13L39 14L40 14L40 15L39 15L39 16L40 16L40 19L41 19L41 20L40 20L40 21L42 21L42 19L41 19L41 18L43 18L43 15L44 15L44 16L46 16L46 15L44 15L44 14L45 14L45 13L44 13L44 11L43 11L43 10L42 10L42 9L41 9L41 10L37 10L37 9L39 9L39 7L38 7L38 6L37 6L37 4L36 4L36 6L35 6L35 8L36 8L36 9L35 9L35 12L33 12L33 13L34 13L34 15L33 15L33 14L32 14L32 13L31 13L31 12L30 12L30 11L31 11L31 10L32 10L32 11L34 11L34 8L33 8L33 9L32 9L32 8L30 8L30 9L29 9L29 10L30 10L30 11L29 11L29 12L28 12L28 13L27 13L27 11L28 11L28 10L27 10L27 11L26 11L26 13L25 13L25 12L24 12L24 11L23 11L23 9L21 9L21 8L22 8L22 6L21 6L21 7L20 7L20 4L19 4L19 5L18 5L18 6L17 6L17 8L16 8L16 5L15 5L15 4L18 4L18 3L20 3L20 2L18 2L18 3L15 3L15 4L14 4L14 5L15 5L15 7L14 7L14 6L13 6L13 5L12 5L12 4L13 4L13 3L12 3L12 2L13 2L13 1ZM11 3L11 4L12 4L12 3ZM28 3L28 4L27 4L27 5L28 5L28 4L29 4L29 3ZM23 5L23 8L26 8L26 5ZM12 6L12 7L13 7L13 6ZM18 6L18 7L19 7L19 8L20 8L20 7L19 7L19 6ZM24 6L24 7L25 7L25 6ZM27 6L27 7L28 7L28 6ZM36 6L36 8L38 8L38 7L37 7L37 6ZM44 8L44 9L46 9L46 10L47 10L47 11L46 11L46 12L48 12L48 11L49 11L49 10L47 10L47 9L48 9L48 8L47 8L47 9L46 9L46 8ZM6 9L6 10L5 10L5 11L6 11L6 12L7 12L7 11L6 11L6 10L7 10L7 9ZM25 9L25 10L26 10L26 9ZM30 9L30 10L31 10L31 9ZM22 11L22 12L20 12L20 14L21 14L21 13L22 13L22 14L24 14L24 12L23 12L23 11ZM39 11L39 13L40 13L40 12L42 12L42 14L41 14L41 17L42 17L42 14L43 14L43 12L42 12L42 11ZM22 12L22 13L23 13L23 12ZM35 12L35 13L37 13L37 12ZM26 13L26 14L27 14L27 13ZM28 13L28 15L25 15L25 17L24 17L24 15L21 15L21 16L22 16L22 17L20 17L20 19L17 19L17 18L16 18L16 19L13 19L13 18L12 18L12 19L13 19L13 21L14 21L14 20L16 20L16 22L14 22L14 24L15 24L15 25L14 25L14 26L15 26L15 28L16 28L16 29L15 29L15 30L16 30L16 31L15 31L15 32L16 32L16 31L17 31L17 33L16 33L16 34L15 34L15 38L17 38L17 39L16 39L16 40L15 40L15 42L17 42L17 41L16 41L16 40L18 40L18 38L19 38L19 39L20 39L20 38L22 38L22 39L24 39L24 37L25 37L25 38L26 38L26 39L27 39L27 38L26 38L26 37L25 37L25 36L24 36L24 33L23 33L23 32L24 32L24 31L23 31L23 32L22 32L22 30L24 30L24 27L25 27L25 29L26 29L26 28L27 28L27 22L31 22L31 23L30 23L30 24L29 24L29 23L28 23L28 24L29 24L29 25L28 25L28 26L31 26L31 23L32 23L32 25L33 25L33 26L32 26L32 27L33 27L33 28L31 28L31 27L30 27L30 28L31 28L31 29L30 29L30 30L32 30L32 32L33 32L33 33L34 33L34 30L35 30L35 29L34 29L34 28L36 28L36 26L35 26L35 27L33 27L33 26L34 26L34 25L33 25L33 24L34 24L34 23L35 23L35 24L36 24L36 23L37 23L37 20L36 20L36 21L35 21L35 20L34 20L34 21L33 21L33 22L31 22L31 21L32 21L32 19L33 19L33 16L32 16L32 14L31 14L31 13L30 13L30 14L29 14L29 13ZM7 14L7 15L6 15L6 16L7 16L7 17L6 17L6 18L7 18L7 17L8 17L8 16L7 16L7 15L8 15L8 14ZM30 14L30 15L28 15L28 16L27 16L27 17L25 17L25 18L24 18L24 17L23 17L23 18L24 18L24 20L23 20L23 21L22 21L22 20L21 20L21 19L20 19L20 20L17 20L17 19L16 19L16 20L17 20L17 22L16 22L16 23L15 23L15 24L17 24L17 23L18 23L18 27L16 27L16 28L17 28L17 31L18 31L18 27L20 27L20 26L21 26L21 27L22 27L22 28L21 28L21 29L20 29L20 28L19 28L19 29L20 29L20 30L19 30L19 31L21 31L21 30L22 30L22 29L23 29L23 27L22 27L22 26L21 26L21 25L22 25L22 24L21 24L21 22L20 22L20 24L19 24L19 22L18 22L18 21L22 21L22 22L23 22L23 21L24 21L24 22L27 22L27 21L29 21L29 19L30 19L30 20L31 20L31 19L30 19L30 18L29 18L29 19L28 19L28 20L27 20L27 18L28 18L28 16L29 16L29 17L30 17L30 15L31 15L31 14ZM34 15L34 16L35 16L35 15ZM4 16L4 17L5 17L5 16ZM12 16L12 17L14 17L14 16ZM31 16L31 18L32 18L32 16ZM47 18L47 19L48 19L48 18ZM25 19L25 20L26 20L26 19ZM8 21L8 22L9 22L9 21ZM35 22L35 23L36 23L36 22ZM48 22L48 23L49 23L49 22ZM2 23L2 25L3 25L3 26L2 26L2 27L4 27L4 23ZM5 23L5 26L8 26L8 23ZM23 23L23 26L26 26L26 23ZM41 23L41 26L44 26L44 23ZM6 24L6 25L7 25L7 24ZM24 24L24 25L25 25L25 24ZM42 24L42 25L43 25L43 24ZM46 24L46 26L45 26L45 27L48 27L48 26L47 26L47 24ZM15 25L15 26L17 26L17 25ZM19 25L19 26L20 26L20 25ZM39 25L39 27L40 27L40 25ZM10 26L10 28L9 28L9 29L10 29L10 28L11 28L11 30L10 30L10 31L9 31L9 30L8 30L8 29L7 29L7 28L6 28L6 29L7 29L7 30L8 30L8 32L9 32L9 33L10 33L10 31L11 31L11 32L13 32L13 30L14 30L14 29L12 29L12 27L13 27L13 28L14 28L14 27L13 27L13 26L12 26L12 27L11 27L11 26ZM32 29L32 30L33 30L33 29ZM47 30L47 32L49 32L49 30ZM4 31L4 32L3 32L3 33L4 33L4 34L3 34L3 35L4 35L4 34L5 34L5 31ZM25 32L25 33L26 33L26 32ZM17 33L17 34L18 34L18 37L17 37L17 38L18 38L18 37L19 37L19 36L20 36L20 37L21 37L21 36L22 36L22 34L23 34L23 33L20 33L20 34L21 34L21 36L20 36L20 35L19 35L19 34L18 34L18 33ZM38 33L38 34L39 34L39 33ZM0 35L0 36L1 36L1 35ZM30 35L30 38L32 38L32 37L31 37L31 35ZM35 35L35 36L37 36L37 38L38 38L38 36L37 36L37 35ZM0 37L0 38L1 38L1 40L0 40L0 41L3 41L3 40L4 40L4 39L2 39L2 38L1 38L1 37ZM22 37L22 38L23 38L23 37ZM31 39L31 40L32 40L32 39ZM23 41L23 44L26 44L26 41ZM34 41L34 42L35 42L35 44L37 44L37 45L38 45L38 44L40 44L40 42L39 42L39 43L36 43L36 42L35 42L35 41ZM41 41L41 44L44 44L44 41ZM24 42L24 43L25 43L25 42ZM42 42L42 43L43 43L43 42ZM17 44L17 45L18 45L18 44ZM19 44L19 46L20 46L20 45L21 45L21 46L22 46L22 47L23 47L23 48L25 48L25 47L26 47L26 45L22 45L22 44ZM41 45L41 46L40 46L40 47L41 47L41 48L42 48L42 47L41 47L41 46L45 46L45 45ZM23 46L23 47L25 47L25 46ZM35 46L35 47L36 47L36 48L37 48L37 47L39 47L39 46L37 46L37 47L36 47L36 46ZM33 47L33 48L34 48L34 47ZM43 47L43 48L44 48L44 47ZM19 48L19 49L20 49L20 48ZM0 0L0 7L7 7L7 0ZM1 1L1 6L6 6L6 1ZM2 2L2 5L5 5L5 2ZM42 0L42 7L49 7L49 0ZM43 1L43 6L48 6L48 1ZM44 2L44 5L47 5L47 2ZM0 42L0 49L7 49L7 42ZM1 43L1 48L6 48L6 43ZM2 44L2 47L5 47L5 44Z" fill="#000000"/></g></g></svg>
