<?xml version="1.0" encoding="UTF-8"?>
<svg xmlns="http://www.w3.org/2000/svg" version="1.1" width="300" height="300" viewBox="0 0 300 300"><rect x="0" y="0" width="300" height="300" fill="#ffffff"/><g transform="scale(8.108)"><g transform="translate(0,0)"><path fill-rule="evenodd" d="M9 0L9 2L8 2L8 3L9 3L9 4L8 4L8 7L9 7L9 4L11 4L11 5L10 5L10 7L11 7L11 5L13 5L13 6L12 6L12 7L13 7L13 10L14 10L14 12L15 12L15 11L16 11L16 12L17 12L17 14L16 14L16 15L17 15L17 16L15 16L15 15L14 15L14 17L17 17L17 16L18 16L18 18L13 18L13 16L12 16L12 14L15 14L15 13L13 13L13 12L12 12L12 11L11 11L11 10L12 10L12 9L10 9L10 8L8 8L8 9L7 9L7 8L6 8L6 9L7 9L7 10L6 10L6 11L8 11L8 12L4 12L4 10L5 10L5 8L4 8L4 10L2 10L2 12L4 12L4 13L5 13L5 15L4 15L4 14L3 14L3 13L2 13L2 15L1 15L1 14L0 14L0 16L5 16L5 17L3 17L3 18L2 18L2 17L1 17L1 20L0 20L0 22L3 22L3 23L4 23L4 22L5 22L5 23L7 23L7 24L6 24L6 25L4 25L4 24L3 24L3 25L2 25L2 23L1 23L1 24L0 24L0 26L2 26L2 27L3 27L3 28L0 28L0 29L3 29L3 28L5 28L5 29L8 29L8 30L9 30L9 29L8 29L8 28L9 28L9 27L10 27L10 28L11 28L11 27L12 27L12 29L10 29L10 30L13 30L13 31L9 31L9 32L8 32L8 33L10 33L10 35L12 35L12 36L11 36L11 37L13 37L13 35L14 35L14 36L16 36L16 35L17 35L17 36L18 36L18 35L17 35L17 33L18 33L18 34L20 34L20 35L21 35L21 36L22 36L22 35L23 35L23 34L21 34L21 33L20 33L20 32L21 32L21 30L22 30L22 29L23 29L23 31L22 31L22 33L23 33L23 32L24 32L24 33L25 33L25 31L24 31L24 30L25 30L25 29L23 29L23 28L24 28L24 27L25 27L25 25L27 25L27 24L29 24L29 23L30 23L30 21L31 21L31 22L33 22L33 21L31 21L31 20L30 20L30 18L28 18L28 17L31 17L31 19L33 19L33 18L34 18L34 21L36 21L36 23L35 23L35 22L34 22L34 23L32 23L32 25L31 25L31 24L30 24L30 25L28 25L28 27L29 27L29 26L31 26L31 27L32 27L32 26L33 26L33 27L34 27L34 26L35 26L35 27L36 27L36 24L37 24L37 20L36 20L36 17L37 17L37 16L36 16L36 13L37 13L37 12L36 12L36 13L35 13L35 15L33 15L33 14L34 14L34 12L35 12L35 11L36 11L36 9L35 9L35 8L34 8L34 9L35 9L35 10L34 10L34 11L33 11L33 10L32 10L32 11L30 11L30 13L29 13L29 14L27 14L27 12L29 12L29 11L28 11L28 10L27 10L27 9L30 9L30 10L31 10L31 9L33 9L33 8L31 8L31 9L30 9L30 8L29 8L29 3L28 3L28 2L29 2L29 1L28 1L28 0L27 0L27 1L28 1L28 2L27 2L27 3L26 3L26 2L25 2L25 1L21 1L21 0L18 0L18 2L17 2L17 1L15 1L15 0L13 0L13 1L14 1L14 2L15 2L15 3L12 3L12 4L11 4L11 2L10 2L10 0ZM11 0L11 1L12 1L12 0ZM20 1L20 2L19 2L19 3L20 3L20 2L21 2L21 1ZM9 2L9 3L10 3L10 2ZM16 2L16 3L15 3L15 4L13 4L13 5L16 5L16 6L15 6L15 7L14 7L14 6L13 6L13 7L14 7L14 10L16 10L16 8L17 8L17 11L19 11L19 12L21 12L21 13L19 13L19 17L20 17L20 18L21 18L21 19L23 19L23 18L24 18L24 17L26 17L26 14L25 14L25 13L26 13L26 11L27 11L27 10L25 10L25 13L24 13L24 12L23 12L23 11L22 11L22 12L21 12L21 11L20 11L20 10L18 10L18 8L17 8L17 7L18 7L18 6L19 6L19 7L20 7L20 5L22 5L22 3L21 3L21 4L20 4L20 5L19 5L19 4L18 4L18 3L17 3L17 2ZM23 2L23 5L25 5L25 7L26 7L26 9L27 9L27 7L28 7L28 5L26 5L26 3L24 3L24 2ZM16 4L16 5L17 5L17 6L16 6L16 7L15 7L15 8L16 8L16 7L17 7L17 6L18 6L18 4ZM21 6L21 7L22 7L22 6ZM23 6L23 8L24 8L24 9L25 9L25 8L24 8L24 6ZM26 6L26 7L27 7L27 6ZM1 8L1 9L0 9L0 11L1 11L1 9L2 9L2 8ZM20 8L20 9L21 9L21 10L23 10L23 9L21 9L21 8ZM8 9L8 10L10 10L10 9ZM8 12L8 13L6 13L6 14L7 14L7 15L6 15L6 16L7 16L7 17L6 17L6 18L5 18L5 20L4 20L4 19L3 19L3 20L1 20L1 21L3 21L3 22L4 22L4 21L6 21L6 22L7 22L7 23L8 23L8 25L9 25L9 26L10 26L10 25L11 25L11 26L13 26L13 27L14 27L14 28L13 28L13 30L15 30L15 31L14 31L14 32L15 32L15 33L14 33L14 34L15 34L15 35L16 35L16 34L15 34L15 33L16 33L16 32L15 32L15 31L17 31L17 32L18 32L18 33L19 33L19 32L20 32L20 31L19 31L19 32L18 32L18 31L17 31L17 30L16 30L16 29L17 29L17 28L18 28L18 29L19 29L19 30L20 30L20 29L19 29L19 28L20 28L20 27L21 27L21 29L22 29L22 27L23 27L23 26L20 26L20 27L19 27L19 28L18 28L18 25L20 25L20 24L21 24L21 23L20 23L20 22L22 22L22 25L25 25L25 24L26 24L26 23L27 23L27 21L28 21L28 22L29 22L29 21L30 21L30 20L29 20L29 19L27 19L27 18L25 18L25 19L24 19L24 20L22 20L22 21L21 21L21 20L19 20L19 21L18 21L18 19L19 19L19 18L18 18L18 19L17 19L17 20L16 20L16 19L15 19L15 20L14 20L14 19L11 19L11 20L9 20L9 21L10 21L10 23L9 23L9 22L7 22L7 21L8 21L8 20L7 20L7 19L6 19L6 18L7 18L7 17L8 17L8 18L9 18L9 17L11 17L11 18L12 18L12 17L11 17L11 14L12 14L12 12L11 12L11 14L9 14L9 15L8 15L8 13L9 13L9 12ZM31 12L31 13L30 13L30 14L29 14L29 16L32 16L32 17L33 17L33 15L32 15L32 14L31 14L31 13L33 13L33 12ZM22 13L22 14L20 14L20 16L22 16L22 15L23 15L23 16L24 16L24 15L25 15L25 14L24 14L24 13ZM30 14L30 15L31 15L31 14ZM9 15L9 16L10 16L10 15ZM27 15L27 17L28 17L28 15ZM22 17L22 18L23 18L23 17ZM34 17L34 18L35 18L35 17ZM26 19L26 20L25 20L25 21L24 21L24 22L23 22L23 24L24 24L24 23L25 23L25 22L26 22L26 21L27 21L27 19ZM6 20L6 21L7 21L7 20ZM12 20L12 21L11 21L11 22L13 22L13 20ZM15 20L15 22L16 22L16 23L15 23L15 24L14 24L14 25L13 25L13 24L12 24L12 23L11 23L11 25L13 25L13 26L14 26L14 27L15 27L15 28L14 28L14 29L16 29L16 28L17 28L17 27L16 27L16 26L17 26L17 25L16 25L16 23L17 23L17 24L20 24L20 23L17 23L17 22L18 22L18 21L17 21L17 22L16 22L16 20ZM28 20L28 21L29 21L29 20ZM19 21L19 22L20 22L20 21ZM9 24L9 25L10 25L10 24ZM6 25L6 26L7 26L7 25ZM15 25L15 26L16 26L16 25ZM26 26L26 29L28 29L28 33L27 33L27 30L26 30L26 33L27 33L27 34L25 34L25 35L24 35L24 36L23 36L23 37L26 37L26 35L27 35L27 37L28 37L28 33L30 33L30 35L29 35L29 37L31 37L31 36L30 36L30 35L31 35L31 33L36 33L36 32L35 32L35 31L36 31L36 29L34 29L34 31L33 31L33 28L27 28L27 26ZM5 27L5 28L8 28L8 27ZM29 29L29 32L32 32L32 29ZM30 30L30 31L31 31L31 30ZM11 32L11 33L13 33L13 32ZM12 34L12 35L13 35L13 34ZM35 34L35 35L34 35L34 37L37 37L37 36L36 36L36 34ZM8 35L8 36L9 36L9 35ZM19 36L19 37L20 37L20 36ZM32 36L32 37L33 37L33 36ZM0 0L0 7L7 7L7 0ZM1 1L1 6L6 6L6 1ZM2 2L2 5L5 5L5 2ZM30 0L30 7L37 7L37 0ZM31 1L31 6L36 6L36 1ZM32 2L32 5L35 5L35 2ZM0 30L0 37L7 37L7 30ZM1 31L1 36L6 36L6 31ZM2 32L2 35L5 35L5 32Z" fill="#000000"/></g></g></svg>
