<?xml version="1.0" encoding="UTF-8"?>
<svg xmlns="http://www.w3.org/2000/svg" version="1.1" width="300" height="300" viewBox="0 0 300 300"><rect x="0" y="0" width="300" height="300" fill="#ffffff"/><g transform="scale(8.108)"><g transform="translate(0,0)"><path fill-rule="evenodd" d="M10 0L10 1L8 1L8 2L9 2L9 3L8 3L8 5L9 5L9 4L10 4L10 1L11 1L11 0ZM13 0L13 1L14 1L14 0ZM15 0L15 2L11 2L11 6L10 6L10 8L9 8L9 6L8 6L8 9L7 9L7 8L3 8L3 9L7 9L7 10L5 10L5 11L4 11L4 10L3 10L3 11L1 11L1 13L0 13L0 14L1 14L1 15L0 15L0 16L1 16L1 15L2 15L2 14L3 14L3 16L2 16L2 17L0 17L0 18L3 18L3 19L1 19L1 20L0 20L0 29L1 29L1 27L2 27L2 29L8 29L8 30L9 30L9 28L10 28L10 26L11 26L11 27L13 27L13 28L11 28L11 29L10 29L10 30L11 30L11 32L12 32L12 31L14 31L14 30L13 30L13 29L14 29L14 27L16 27L16 28L18 28L18 29L20 29L20 28L21 28L21 30L20 30L20 31L19 31L19 32L20 32L20 34L21 34L21 35L22 35L22 34L23 34L23 33L22 33L22 31L21 31L21 30L23 30L23 32L24 32L24 33L25 33L25 34L24 34L24 35L25 35L25 36L24 36L24 37L26 37L26 34L27 34L27 37L29 37L29 36L30 36L30 37L31 37L31 36L30 36L30 35L29 35L29 36L28 36L28 34L29 34L29 33L30 33L30 34L32 34L32 37L33 37L33 35L34 35L34 36L36 36L36 37L37 37L37 34L35 34L35 33L36 33L36 32L37 32L37 30L35 30L35 29L36 29L36 28L37 28L37 26L36 26L36 25L34 25L34 24L36 24L36 23L35 23L35 21L36 21L36 22L37 22L37 18L35 18L35 15L36 15L36 17L37 17L37 14L35 14L35 11L34 11L34 18L35 18L35 19L36 19L36 20L35 20L35 21L34 21L34 19L32 19L32 18L29 18L29 19L28 19L28 16L29 16L29 17L31 17L31 16L33 16L33 15L30 15L30 13L31 13L31 14L33 14L33 13L31 13L31 12L33 12L33 11L31 11L31 10L32 10L32 9L34 9L34 10L35 10L35 9L36 9L36 8L35 8L35 9L34 9L34 8L32 8L32 9L31 9L31 8L29 8L29 9L28 9L28 10L27 10L27 4L25 4L25 3L24 3L24 2L25 2L25 1L24 1L24 0L22 0L22 1L23 1L23 2L20 2L20 1L21 1L21 0ZM26 0L26 1L27 1L27 0ZM17 1L17 3L16 3L16 2L15 2L15 4L14 4L14 3L13 3L13 4L12 4L12 5L13 5L13 7L12 7L12 6L11 6L11 8L14 8L14 6L15 6L15 7L16 7L16 8L15 8L15 9L14 9L14 10L13 10L13 12L12 12L12 9L10 9L10 10L9 10L9 11L11 11L11 12L12 12L12 13L10 13L10 14L9 14L9 12L8 12L8 14L9 14L9 16L8 16L8 15L6 15L6 14L7 14L7 13L6 13L6 12L7 12L7 11L6 11L6 12L5 12L5 13L3 13L3 12L4 12L4 11L3 11L3 12L2 12L2 13L3 13L3 14L4 14L4 15L5 15L5 16L3 16L3 18L4 18L4 19L5 19L5 22L7 22L7 21L11 21L11 22L12 22L12 25L11 25L11 26L13 26L13 27L14 27L14 26L13 26L13 25L14 25L14 24L15 24L15 26L16 26L16 27L18 27L18 28L20 28L20 27L23 27L23 28L24 28L24 29L23 29L23 30L24 30L24 31L25 31L25 30L24 30L24 29L25 29L25 28L27 28L27 29L28 29L28 28L30 28L30 26L29 26L29 27L28 27L28 25L25 25L25 24L26 24L26 22L27 22L27 19L26 19L26 21L25 21L25 20L24 20L24 19L25 19L25 18L27 18L27 17L25 17L25 16L28 16L28 15L27 15L27 14L29 14L29 13L27 13L27 14L26 14L26 15L25 15L25 16L24 16L24 17L25 17L25 18L24 18L24 19L21 19L21 18L20 18L20 17L21 17L21 16L22 16L22 18L23 18L23 15L24 15L24 14L23 14L23 15L20 15L20 17L19 17L19 18L18 18L18 17L16 17L16 16L19 16L19 14L17 14L17 12L16 12L16 14L14 14L14 16L15 16L15 17L16 17L16 19L17 19L17 21L16 21L16 22L15 22L15 23L14 23L14 22L12 22L12 20L11 20L11 19L10 19L10 20L9 20L9 18L11 18L11 17L12 17L12 15L11 15L11 14L12 14L12 13L13 13L13 12L14 12L14 13L15 13L15 10L16 10L16 11L18 11L18 13L20 13L20 12L24 12L24 13L26 13L26 9L25 9L25 8L26 8L26 6L25 6L25 7L24 7L24 5L25 5L25 4L24 4L24 5L23 5L23 7L22 7L22 4L21 4L21 3L20 3L20 5L21 5L21 7L20 7L20 6L19 6L19 4L18 4L18 6L17 6L17 7L16 7L16 6L15 6L15 5L16 5L16 4L17 4L17 3L19 3L19 1ZM28 1L28 3L29 3L29 1ZM13 4L13 5L14 5L14 4ZM28 5L28 7L29 7L29 5ZM18 6L18 7L17 7L17 8L19 8L19 6ZM23 7L23 8L22 8L22 9L23 9L23 11L24 11L24 10L25 10L25 9L24 9L24 7ZM1 8L1 10L2 10L2 8ZM20 8L20 9L17 9L17 10L20 10L20 11L19 11L19 12L20 12L20 11L22 11L22 10L21 10L21 8ZM29 9L29 10L30 10L30 9ZM36 10L36 13L37 13L37 10ZM27 11L27 12L28 12L28 11ZM29 11L29 12L31 12L31 11ZM5 13L5 14L6 14L6 13ZM21 13L21 14L22 14L22 13ZM15 15L15 16L16 16L16 15ZM6 16L6 17L7 17L7 16ZM9 16L9 17L8 17L8 18L9 18L9 17L10 17L10 16ZM4 17L4 18L5 18L5 17ZM6 18L6 19L7 19L7 18ZM12 18L12 19L13 19L13 18ZM17 18L17 19L18 19L18 18ZM29 19L29 20L28 20L28 21L30 21L30 22L32 22L32 19ZM2 20L2 21L4 21L4 20ZM6 20L6 21L7 21L7 20ZM13 20L13 21L15 21L15 20ZM18 20L18 21L19 21L19 25L20 25L20 26L19 26L19 27L20 27L20 26L24 26L24 27L27 27L27 28L28 28L28 27L27 27L27 26L25 26L25 25L24 25L24 24L25 24L25 23L24 23L24 22L25 22L25 21L24 21L24 22L23 22L23 20L22 20L22 21L19 21L19 20ZM30 20L30 21L31 21L31 20ZM1 22L1 23L3 23L3 22ZM8 22L8 23L9 23L9 22ZM22 22L22 23L20 23L20 25L22 25L22 23L23 23L23 22ZM28 22L28 23L27 23L27 24L30 24L30 23L29 23L29 22ZM5 23L5 24L3 24L3 25L5 25L5 27L6 27L6 28L7 28L7 27L6 27L6 26L7 26L7 25L6 25L6 24L7 24L7 23ZM15 23L15 24L16 24L16 26L18 26L18 23L17 23L17 24L16 24L16 23ZM31 23L31 25L32 25L32 24L33 24L33 23ZM8 24L8 27L9 27L9 26L10 26L10 25L9 25L9 24ZM31 26L31 28L32 28L32 27L33 27L33 26ZM34 26L34 29L35 29L35 28L36 28L36 26ZM3 27L3 28L4 28L4 27ZM15 29L15 30L16 30L16 29ZM29 29L29 32L32 32L32 29ZM17 30L17 31L16 31L16 32L15 32L15 33L16 33L16 32L17 32L17 33L18 33L18 34L19 34L19 33L18 33L18 30ZM26 30L26 32L25 32L25 33L26 33L26 32L28 32L28 30ZM30 30L30 31L31 31L31 30ZM33 30L33 33L32 33L32 34L34 34L34 33L35 33L35 31L34 31L34 30ZM8 31L8 34L9 34L9 31ZM11 33L11 34L10 34L10 35L13 35L13 37L14 37L14 35L15 35L15 36L16 36L16 35L15 35L15 34L14 34L14 35L13 35L13 33ZM21 33L21 34L22 34L22 33ZM27 33L27 34L28 34L28 33ZM8 35L8 36L9 36L9 35ZM19 36L19 37L20 37L20 36ZM21 36L21 37L23 37L23 36ZM0 0L0 7L7 7L7 0ZM1 1L1 6L6 6L6 1ZM2 2L2 5L5 5L5 2ZM30 0L30 7L37 7L37 0ZM31 1L31 6L36 6L36 1ZM32 2L32 5L35 5L35 2ZM0 30L0 37L7 37L7 30ZM1 31L1 36L6 36L6 31ZM2 32L2 35L5 35L5 32Z" fill="#000000"/></g></g></svg>
