<?xml version="1.0" encoding="UTF-8"?>
<svg xmlns="http://www.w3.org/2000/svg" version="1.1" width="300" height="300" viewBox="0 0 300 300"><rect x="0" y="0" width="300" height="300" fill="#ffffff"/><g transform="scale(8.108)"><g transform="translate(0,0)"><path fill-rule="evenodd" d="M8 0L8 1L9 1L9 2L8 2L8 4L9 4L9 5L8 5L8 8L5 8L5 9L4 9L4 8L3 8L3 9L2 9L2 8L1 8L1 9L2 9L2 10L1 10L1 11L0 11L0 14L1 14L1 15L3 15L3 14L5 14L5 18L4 18L4 20L5 20L5 21L3 21L3 19L2 19L2 18L3 18L3 16L2 16L2 17L1 17L1 18L0 18L0 20L1 20L1 19L2 19L2 22L0 22L0 23L2 23L2 22L3 22L3 24L2 24L2 25L5 25L5 26L4 26L4 27L3 27L3 26L2 26L2 27L1 27L1 26L0 26L0 27L1 27L1 28L0 28L0 29L4 29L4 28L5 28L5 29L8 29L8 32L9 32L9 33L8 33L8 34L11 34L11 33L12 33L12 32L11 32L11 31L12 31L12 30L13 30L13 32L14 32L14 33L13 33L13 34L12 34L12 35L11 35L11 36L9 36L9 35L8 35L8 36L9 36L9 37L13 37L13 36L14 36L14 37L16 37L16 35L14 35L14 34L15 34L15 33L16 33L16 32L17 32L17 31L16 31L16 30L15 30L15 29L16 29L16 27L15 27L15 26L16 26L16 25L18 25L18 24L19 24L19 25L20 25L20 26L17 26L17 27L18 27L18 29L17 29L17 30L18 30L18 29L20 29L20 28L21 28L21 27L22 27L22 26L23 26L23 27L25 27L25 28L24 28L24 29L23 29L23 28L22 28L22 29L23 29L23 30L24 30L24 31L22 31L22 30L20 30L20 31L22 31L22 32L23 32L23 35L20 35L20 33L21 33L21 34L22 34L22 33L21 33L21 32L20 32L20 33L19 33L19 34L18 34L18 35L19 35L19 36L22 36L22 37L25 37L25 33L26 33L26 34L27 34L27 35L26 35L26 36L27 36L27 35L28 35L28 37L31 37L31 36L29 36L29 35L30 35L30 33L32 33L32 34L31 34L31 35L33 35L33 34L34 34L34 35L35 35L35 34L36 34L36 35L37 35L37 33L35 33L35 34L34 34L34 33L33 33L33 30L34 30L34 32L35 32L35 30L36 30L36 31L37 31L37 25L36 25L36 24L37 24L37 23L36 23L36 21L37 21L37 20L36 20L36 19L37 19L37 16L36 16L36 15L37 15L37 13L35 13L35 12L36 12L36 11L37 11L37 8L36 8L36 9L35 9L35 8L33 8L33 9L32 9L32 8L29 8L29 5L28 5L28 4L29 4L29 3L28 3L28 2L29 2L29 0L27 0L27 1L26 1L26 0L25 0L25 4L26 4L26 5L27 5L27 6L26 6L26 7L25 7L25 6L24 6L24 5L23 5L23 4L22 4L22 5L21 5L21 6L20 6L20 5L19 5L19 6L18 6L18 7L19 7L19 6L20 6L20 7L21 7L21 9L20 9L20 8L19 8L19 9L18 9L18 10L17 10L17 9L16 9L16 8L17 8L17 6L16 6L16 7L15 7L15 5L13 5L13 6L12 6L12 7L11 7L11 6L10 6L10 7L9 7L9 5L10 5L10 4L9 4L9 3L11 3L11 2L12 2L12 3L13 3L13 4L15 4L15 3L14 3L14 2L13 2L13 1L15 1L15 2L16 2L16 3L17 3L17 4L16 4L16 5L17 5L17 4L19 4L19 2L18 2L18 3L17 3L17 2L16 2L16 1L15 1L15 0L13 0L13 1L12 1L12 0ZM18 0L18 1L19 1L19 0ZM20 0L20 4L21 4L21 0ZM22 0L22 3L23 3L23 0ZM26 2L26 3L27 3L27 2ZM11 4L11 5L12 5L12 4ZM13 6L13 7L14 7L14 8L9 8L9 9L10 9L10 10L8 10L8 9L6 9L6 10L2 10L2 11L1 11L1 12L2 12L2 13L3 13L3 11L5 11L5 12L4 12L4 13L5 13L5 12L7 12L7 13L6 13L6 14L7 14L7 13L8 13L8 14L10 14L10 15L11 15L11 16L8 16L8 15L6 15L6 16L7 16L7 17L6 17L6 18L7 18L7 17L8 17L8 19L9 19L9 20L10 20L10 17L11 17L11 20L12 20L12 21L9 21L9 22L8 22L8 21L6 21L6 22L8 22L8 23L9 23L9 24L8 24L8 25L11 25L11 26L12 26L12 27L11 27L11 28L10 28L10 26L7 26L7 25L6 25L6 26L7 26L7 27L5 27L5 28L8 28L8 29L12 29L12 27L13 27L13 26L15 26L15 25L13 25L13 26L12 26L12 24L13 24L13 23L12 23L12 21L13 21L13 22L15 22L15 23L17 23L17 22L18 22L18 23L19 23L19 24L20 24L20 25L21 25L21 26L20 26L20 27L21 27L21 26L22 26L22 25L23 25L23 26L25 26L25 27L26 27L26 26L25 26L25 25L26 25L26 24L27 24L27 25L28 25L28 26L29 26L29 27L30 27L30 26L32 26L32 28L33 28L33 29L36 29L36 28L34 28L34 27L35 27L35 26L36 26L36 25L35 25L35 24L36 24L36 23L34 23L34 22L35 22L35 21L36 21L36 20L34 20L34 21L32 21L32 22L31 22L31 23L30 23L30 22L29 22L29 21L30 21L30 19L29 19L29 20L28 20L28 21L27 21L27 20L26 20L26 18L25 18L25 17L26 17L26 16L27 16L27 19L28 19L28 18L30 18L30 17L28 17L28 16L27 16L27 15L28 15L28 14L27 14L27 13L28 13L28 12L29 12L29 11L30 11L30 12L32 12L32 13L31 13L31 14L29 14L29 16L32 16L32 17L33 17L33 18L31 18L31 19L32 19L32 20L33 20L33 18L35 18L35 19L36 19L36 18L35 18L35 17L33 17L33 15L34 15L34 16L35 16L35 15L36 15L36 14L33 14L33 10L32 10L32 9L30 9L30 10L29 10L29 8L28 8L28 10L27 10L27 9L26 9L26 8L27 8L27 7L28 7L28 6L27 6L27 7L26 7L26 8L24 8L24 6L23 6L23 10L19 10L19 11L18 11L18 12L17 12L17 10L15 10L15 11L14 11L14 10L13 10L13 11L14 11L14 14L13 14L13 17L11 17L11 16L12 16L12 13L13 13L13 12L12 12L12 11L11 11L11 10L12 10L12 9L14 9L14 8L15 8L15 7L14 7L14 6ZM21 6L21 7L22 7L22 6ZM25 9L25 10L24 10L24 11L25 11L25 12L24 12L24 14L22 14L22 13L23 13L23 11L21 11L21 12L22 12L22 13L21 13L21 14L22 14L22 15L20 15L20 11L19 11L19 12L18 12L18 13L19 13L19 15L18 15L18 14L17 14L17 13L15 13L15 14L14 14L14 17L13 17L13 18L14 18L14 17L15 17L15 20L14 20L14 19L13 19L13 20L14 20L14 21L15 21L15 20L17 20L17 21L16 21L16 22L17 22L17 21L18 21L18 22L19 22L19 23L20 23L20 21L21 21L21 22L22 22L22 21L23 21L23 22L24 22L24 19L23 19L23 17L21 17L21 19L20 19L20 16L23 16L23 15L24 15L24 14L25 14L25 13L27 13L27 12L28 12L28 11L29 11L29 10L28 10L28 11L27 11L27 10L26 10L26 9ZM34 9L34 12L35 12L35 9ZM6 10L6 11L8 11L8 10ZM30 10L30 11L32 11L32 10ZM9 11L9 13L11 13L11 11ZM26 11L26 12L27 12L27 11ZM15 14L15 15L16 15L16 14ZM31 14L31 15L33 15L33 14ZM19 15L19 16L20 16L20 15ZM25 15L25 16L26 16L26 15ZM16 16L16 17L17 17L17 20L18 20L18 21L19 21L19 20L18 20L18 19L19 19L19 17L18 17L18 16ZM5 19L5 20L7 20L7 19ZM25 21L25 24L26 24L26 23L27 23L27 24L28 24L28 25L29 25L29 24L30 24L30 25L33 25L33 22L32 22L32 24L30 24L30 23L29 23L29 22L28 22L28 23L27 23L27 21ZM4 22L4 24L7 24L7 23L5 23L5 22ZM10 22L10 23L11 23L11 22ZM21 23L21 25L22 25L22 24L23 24L23 23ZM0 24L0 25L1 25L1 24ZM2 27L2 28L3 28L3 27ZM8 27L8 28L9 28L9 27ZM14 27L14 28L13 28L13 29L14 29L14 28L15 28L15 27ZM27 27L27 28L28 28L28 27ZM25 28L25 32L26 32L26 33L28 33L28 31L27 31L27 29L26 29L26 28ZM29 29L29 32L32 32L32 29ZM10 30L10 31L11 31L11 30ZM30 30L30 31L31 31L31 30ZM18 31L18 32L19 32L19 31ZM26 31L26 32L27 32L27 31ZM10 32L10 33L11 33L11 32ZM28 34L28 35L29 35L29 34ZM32 36L32 37L33 37L33 36ZM35 36L35 37L37 37L37 36ZM0 0L0 7L7 7L7 0ZM1 1L1 6L6 6L6 1ZM2 2L2 5L5 5L5 2ZM30 0L30 7L37 7L37 0ZM31 1L31 6L36 6L36 1ZM32 2L32 5L35 5L35 2ZM0 30L0 37L7 37L7 30ZM1 31L1 36L6 36L6 31ZM2 32L2 35L5 35L5 32Z" fill="#000000"/></g></g></svg>
