<?xml version="1.0" encoding="UTF-8"?>
<svg xmlns="http://www.w3.org/2000/svg" version="1.1" width="300" height="300" viewBox="0 0 300 300"><rect x="0" y="0" width="300" height="300" fill="#ffffff"/><g transform="scale(6.122)"><g transform="translate(0,0)"><path fill-rule="evenodd" d="M9 0L9 1L8 1L8 2L10 2L10 0ZM12 0L12 1L11 1L11 2L12 2L12 3L8 3L8 5L11 5L11 4L12 4L12 5L13 5L13 6L12 6L12 7L13 7L13 8L11 8L11 9L12 9L12 12L13 12L13 14L15 14L15 13L16 13L16 14L17 14L17 15L16 15L16 17L15 17L15 18L16 18L16 17L17 17L17 18L19 18L19 19L13 19L13 20L11 20L11 16L12 16L12 17L14 17L14 16L15 16L15 15L14 15L14 16L13 16L13 15L12 15L12 14L9 14L9 13L10 13L10 12L11 12L11 11L10 11L10 10L6 10L6 9L7 9L7 8L3 8L3 9L4 9L4 10L2 10L2 8L1 8L1 11L0 11L0 12L1 12L1 11L4 11L4 10L6 10L6 11L5 11L5 14L2 14L2 13L0 13L0 16L2 16L2 17L3 17L3 18L4 18L4 19L5 19L5 18L6 18L6 19L7 19L7 18L8 18L8 17L9 17L9 20L8 20L8 21L7 21L7 20L6 20L6 21L7 21L7 22L5 22L5 20L3 20L3 19L0 19L0 20L3 20L3 21L2 21L2 23L1 23L1 21L0 21L0 26L3 26L3 25L2 25L2 23L4 23L4 27L1 27L1 28L0 28L0 29L1 29L1 30L0 30L0 31L1 31L1 32L2 32L2 33L3 33L3 31L5 31L5 34L4 34L4 37L3 37L3 38L4 38L4 37L5 37L5 39L7 39L7 40L6 40L6 41L8 41L8 42L9 42L9 41L10 41L10 42L11 42L11 43L8 43L8 46L9 46L9 47L8 47L8 48L9 48L9 49L11 49L11 48L13 48L13 49L16 49L16 48L17 48L17 47L16 47L16 48L15 48L15 47L14 47L14 48L13 48L13 47L12 47L12 46L14 46L14 45L13 45L13 44L15 44L15 43L16 43L16 45L17 45L17 46L19 46L19 47L20 47L20 48L19 48L19 49L20 49L20 48L21 48L21 47L22 47L22 49L29 49L29 48L26 48L26 47L28 47L28 45L29 45L29 47L30 47L30 46L31 46L31 47L32 47L32 49L35 49L35 48L36 48L36 49L37 49L37 48L38 48L38 49L42 49L42 48L43 48L43 49L46 49L46 48L48 48L48 49L49 49L49 45L48 45L48 44L47 44L47 46L48 46L48 47L46 47L46 45L45 45L45 44L46 44L46 43L47 43L47 42L48 42L48 43L49 43L49 42L48 42L48 41L46 41L46 38L47 38L47 39L49 39L49 38L47 38L47 37L49 37L49 34L48 34L48 36L47 36L47 33L49 33L49 30L48 30L48 28L49 28L49 26L48 26L48 24L47 24L47 23L46 23L46 21L44 21L44 22L43 22L43 18L45 18L45 20L46 20L46 19L47 19L47 20L48 20L48 21L49 21L49 18L48 18L48 17L47 17L47 18L45 18L45 17L46 17L46 16L47 16L47 15L49 15L49 14L47 14L47 15L46 15L46 16L44 16L44 15L45 15L45 14L46 14L46 12L48 12L48 11L49 11L49 10L47 10L47 9L48 9L48 8L47 8L47 9L46 9L46 8L44 8L44 9L43 9L43 8L41 8L41 9L40 9L40 7L41 7L41 6L40 6L40 7L39 7L39 5L38 5L38 2L39 2L39 4L40 4L40 3L41 3L41 0L40 0L40 1L37 1L37 0L36 0L36 1L35 1L35 0L34 0L34 2L37 2L37 3L35 3L35 6L34 6L34 7L33 7L33 6L32 6L32 7L31 7L31 6L30 6L30 8L29 8L29 5L28 5L28 4L30 4L30 5L33 5L33 2L31 2L31 3L32 3L32 4L30 4L30 2L28 2L28 0L27 0L27 1L25 1L25 0L24 0L24 1L25 1L25 2L23 2L23 1L22 1L22 2L20 2L20 1L21 1L21 0L18 0L18 1L19 1L19 2L20 2L20 3L19 3L19 4L15 4L15 5L13 5L13 4L12 4L12 3L14 3L14 2L15 2L15 3L17 3L17 2L15 2L15 1L13 1L13 0ZM30 0L30 1L33 1L33 0ZM12 1L12 2L13 2L13 1ZM22 2L22 3L20 3L20 4L19 4L19 7L18 7L18 6L17 6L17 7L18 7L18 9L21 9L21 10L18 10L18 12L17 12L17 13L18 13L18 14L19 14L19 15L20 15L20 16L19 16L19 18L20 18L20 19L19 19L19 20L17 20L17 21L15 21L15 20L14 20L14 21L13 21L13 22L10 22L10 23L9 23L9 24L10 24L10 26L9 26L9 27L6 27L6 28L5 28L5 29L4 29L4 28L3 28L3 29L2 29L2 30L1 30L1 31L2 31L2 30L3 30L3 29L4 29L4 30L5 30L5 29L6 29L6 30L7 30L7 31L6 31L6 32L7 32L7 33L6 33L6 34L7 34L7 33L10 33L10 34L9 34L9 35L8 35L8 36L7 36L7 35L5 35L5 36L7 36L7 37L6 37L6 38L8 38L8 37L9 37L9 36L12 36L12 34L13 34L13 37L10 37L10 38L9 38L9 40L10 40L10 41L11 41L11 40L12 40L12 44L10 44L10 45L9 45L9 46L10 46L10 47L9 47L9 48L11 48L11 46L10 46L10 45L12 45L12 44L13 44L13 43L14 43L14 42L15 42L15 39L14 39L14 42L13 42L13 38L14 38L14 37L15 37L15 35L14 35L14 34L16 34L16 33L17 33L17 34L18 34L18 35L19 35L19 36L20 36L20 37L19 37L19 38L18 38L18 40L17 40L17 42L18 42L18 41L21 41L21 42L19 42L19 45L20 45L20 46L22 46L22 47L23 47L23 48L25 48L25 47L26 47L26 45L22 45L22 44L21 44L21 45L20 45L20 43L22 43L22 41L21 41L21 39L22 39L22 40L25 40L25 39L26 39L26 40L27 40L27 45L28 45L28 41L29 41L29 42L31 42L31 45L33 45L33 43L32 43L32 40L33 40L33 37L32 37L32 38L29 38L29 39L26 39L26 38L28 38L28 37L27 37L27 35L26 35L26 36L25 36L25 35L24 35L24 34L23 34L23 33L25 33L25 34L27 34L27 32L25 32L25 30L26 30L26 31L27 31L27 30L28 30L28 32L29 32L29 30L30 30L30 32L32 32L32 33L33 33L33 36L35 36L35 37L34 37L34 40L35 40L35 39L36 39L36 40L37 40L37 41L34 41L34 42L37 42L37 41L39 41L39 39L38 39L38 38L37 38L37 37L38 37L38 36L37 36L37 35L36 35L36 36L35 36L35 35L34 35L34 33L33 33L33 32L35 32L35 33L36 33L36 32L35 32L35 30L36 30L36 28L37 28L37 29L38 29L38 31L37 31L37 34L38 34L38 35L40 35L40 36L41 36L41 38L40 38L40 37L39 37L39 38L40 38L40 39L42 39L42 40L43 40L43 39L45 39L45 38L43 38L43 39L42 39L42 36L43 36L43 37L45 37L45 36L46 36L46 37L47 37L47 36L46 36L46 35L45 35L45 36L43 36L43 35L42 35L42 36L41 36L41 33L42 33L42 34L44 34L44 32L43 32L43 31L44 31L44 30L45 30L45 33L47 33L47 32L48 32L48 30L47 30L47 29L46 29L46 28L45 28L45 29L43 29L43 31L42 31L42 30L41 30L41 29L42 29L42 28L43 28L43 27L42 27L42 28L41 28L41 29L40 29L40 30L41 30L41 31L42 31L42 32L40 32L40 33L39 33L39 34L38 34L38 31L39 31L39 28L38 28L38 27L37 27L37 26L36 26L36 24L37 24L37 23L38 23L38 24L39 24L39 22L40 22L40 21L42 21L42 19L41 19L41 18L43 18L43 15L44 15L44 14L45 14L45 13L44 13L44 11L46 11L46 9L45 9L45 10L42 10L42 9L41 9L41 10L38 10L38 9L39 9L39 7L38 7L38 6L37 6L37 4L36 4L36 6L35 6L35 8L36 8L36 9L35 9L35 11L34 11L34 8L33 8L33 9L32 9L32 8L31 8L31 10L30 10L30 9L29 9L29 8L28 8L28 6L27 6L27 8L28 8L28 9L27 9L27 11L26 11L26 13L25 13L25 12L24 12L24 10L26 10L26 9L22 9L22 6L21 6L21 7L20 7L20 4L23 4L23 2ZM26 2L26 4L28 4L28 3L27 3L27 2ZM24 3L24 4L25 4L25 3ZM15 5L15 7L14 7L14 6L13 6L13 7L14 7L14 8L16 8L16 11L17 11L17 8L16 8L16 5ZM23 5L23 8L26 8L26 5ZM8 6L8 9L10 9L10 8L9 8L9 6ZM10 6L10 7L11 7L11 6ZM24 6L24 7L25 7L25 6ZM36 6L36 8L37 8L37 9L38 9L38 7L37 7L37 6ZM19 7L19 8L20 8L20 7ZM13 9L13 10L14 10L14 11L13 11L13 12L14 12L14 13L15 13L15 9ZM28 9L28 10L29 10L29 11L27 11L27 13L26 13L26 14L27 14L27 13L28 13L28 15L25 15L25 17L24 17L24 15L21 15L21 16L22 16L22 17L21 17L21 19L20 19L20 20L19 20L19 21L18 21L18 22L19 22L19 24L20 24L20 21L21 21L21 22L22 22L22 26L20 26L20 25L19 25L19 26L20 26L20 27L19 27L19 28L18 28L18 27L17 27L17 26L18 26L18 23L17 23L17 22L14 22L14 24L12 24L12 23L11 23L11 24L12 24L12 25L14 25L14 26L15 26L15 27L14 27L14 28L13 28L13 29L12 29L12 27L13 27L13 26L12 26L12 27L10 27L10 28L9 28L9 31L7 31L7 32L10 32L10 30L11 30L11 32L13 32L13 33L15 33L15 32L16 32L16 31L18 31L18 34L19 34L19 35L20 35L20 36L21 36L21 37L20 37L20 38L19 38L19 39L21 39L21 38L22 38L22 39L24 39L24 38L26 38L26 37L24 37L24 35L23 35L23 34L20 34L20 33L21 33L21 32L22 32L22 30L25 30L25 29L24 29L24 27L25 27L25 28L27 28L27 29L28 29L28 30L29 30L29 29L28 29L28 27L27 27L27 22L31 22L31 23L30 23L30 24L29 24L29 23L28 23L28 24L29 24L29 25L28 25L28 26L31 26L31 23L32 23L32 25L33 25L33 26L32 26L32 27L33 27L33 28L31 28L31 27L30 27L30 28L31 28L31 29L30 29L30 30L32 30L32 32L33 32L33 31L34 31L34 30L35 30L35 29L34 29L34 28L36 28L36 26L35 26L35 27L33 27L33 26L34 26L34 25L33 25L33 24L34 24L34 23L35 23L35 24L36 24L36 23L37 23L37 20L36 20L36 21L35 21L35 20L34 20L34 21L33 21L33 22L31 22L31 21L32 21L32 19L33 19L33 18L32 18L32 17L33 17L33 16L32 16L32 15L33 15L33 11L32 11L32 10L31 10L31 11L30 11L30 10L29 10L29 9ZM37 10L37 12L34 12L34 13L36 13L36 14L35 14L35 15L34 15L34 16L35 16L35 17L34 17L34 19L35 19L35 17L36 17L36 19L37 19L37 17L39 17L39 18L38 18L38 19L39 19L39 20L38 20L38 22L39 22L39 20L41 20L41 19L40 19L40 16L39 16L39 15L40 15L40 14L39 14L39 13L40 13L40 12L42 12L42 13L41 13L41 14L43 14L43 12L42 12L42 11L39 11L39 13L38 13L38 10ZM6 11L6 12L7 12L7 13L6 13L6 14L5 14L5 15L6 15L6 16L4 16L4 15L3 15L3 16L4 16L4 17L6 17L6 18L7 18L7 17L8 17L8 16L7 16L7 15L8 15L8 14L7 14L7 13L9 13L9 12L10 12L10 11L8 11L8 12L7 12L7 11ZM22 11L22 12L21 12L21 13L20 13L20 12L18 12L18 13L19 13L19 14L21 14L21 13L22 13L22 14L24 14L24 12L23 12L23 11ZM22 12L22 13L23 13L23 12ZM28 12L28 13L29 13L29 14L30 14L30 15L28 15L28 16L27 16L27 17L25 17L25 18L24 18L24 17L23 17L23 18L24 18L24 20L23 20L23 21L22 21L22 20L21 20L21 21L22 21L22 22L23 22L23 21L24 21L24 22L25 22L25 21L29 21L29 19L30 19L30 20L31 20L31 19L30 19L30 18L29 18L29 19L28 19L28 20L26 20L26 19L27 19L27 18L28 18L28 16L29 16L29 17L30 17L30 15L31 15L31 14L32 14L32 13L31 13L31 14L30 14L30 13L29 13L29 12ZM6 14L6 15L7 15L7 14ZM9 15L9 16L11 16L11 15ZM17 15L17 16L18 16L18 15ZM35 15L35 16L38 16L38 15ZM41 15L41 17L42 17L42 15ZM6 16L6 17L7 17L7 16ZM31 16L31 17L32 17L32 16ZM47 18L47 19L48 19L48 18ZM8 21L8 22L9 22L9 21ZM35 22L35 23L36 23L36 22ZM48 22L48 23L49 23L49 22ZM5 23L5 26L8 26L8 23ZM15 23L15 24L14 24L14 25L15 25L15 26L17 26L17 25L15 25L15 24L16 24L16 23ZM23 23L23 26L26 26L26 23ZM41 23L41 26L44 26L44 23ZM6 24L6 25L7 25L7 24ZM24 24L24 25L25 25L25 24ZM42 24L42 25L43 25L43 24ZM46 24L46 26L45 26L45 27L48 27L48 26L47 26L47 24ZM39 25L39 27L40 27L40 25ZM16 27L16 28L15 28L15 29L16 29L16 28L17 28L17 29L18 29L18 28L17 28L17 27ZM22 27L22 28L21 28L21 29L20 29L20 28L19 28L19 29L20 29L20 30L19 30L19 31L21 31L21 29L23 29L23 27ZM6 28L6 29L8 29L8 28ZM10 28L10 29L11 29L11 28ZM13 29L13 30L14 30L14 31L16 31L16 30L14 30L14 29ZM32 29L32 30L33 30L33 29ZM45 29L45 30L46 30L46 29ZM29 33L29 34L28 34L28 36L30 36L30 37L31 37L31 36L30 36L30 35L32 35L32 34L30 34L30 33ZM1 34L1 35L0 35L0 36L2 36L2 35L3 35L3 34ZM21 35L21 36L22 36L22 35ZM16 36L16 37L18 37L18 36ZM36 36L36 37L37 37L37 36ZM1 37L1 40L0 40L0 41L3 41L3 40L4 40L4 39L2 39L2 37ZM22 37L22 38L24 38L24 37ZM10 38L10 39L11 39L11 38ZM36 38L36 39L37 39L37 40L38 40L38 39L37 39L37 38ZM29 39L29 41L30 41L30 39ZM31 39L31 40L32 40L32 39ZM23 41L23 44L26 44L26 41ZM41 41L41 44L44 44L44 41ZM24 42L24 43L25 43L25 42ZM39 42L39 43L35 43L35 44L37 44L37 45L38 45L38 44L40 44L40 42ZM42 42L42 43L43 43L43 42ZM17 44L17 45L18 45L18 44ZM41 45L41 46L40 46L40 47L41 47L41 48L42 48L42 47L43 47L43 48L44 48L44 47L43 47L43 46L45 46L45 45L43 45L43 46L42 46L42 45ZM23 46L23 47L25 47L25 46ZM35 46L35 47L36 47L36 48L37 48L37 47L39 47L39 46L37 46L37 47L36 47L36 46ZM41 46L41 47L42 47L42 46ZM33 47L33 48L34 48L34 47ZM0 0L0 7L7 7L7 0ZM1 1L1 6L6 6L6 1ZM2 2L2 5L5 5L5 2ZM42 0L42 7L49 7L49 0ZM43 1L43 6L48 6L48 1ZM44 2L44 5L47 5L47 2ZM0 42L0 49L7 49L7 42ZM1 43L1 48L6 48L6 43ZM2 44L2 47L5 47L5 44Z" fill="#000000"/></g></g></svg>
