<?xml version="1.0" encoding="UTF-8"?>
<svg xmlns="http://www.w3.org/2000/svg" version="1.1" width="300" height="300" viewBox="0 0 300 300"><rect x="0" y="0" width="300" height="300" fill="#ffffff"/><g transform="scale(8.108)"><g transform="translate(0,0)"><path fill-rule="evenodd" d="M9 0L9 1L10 1L10 4L8 4L8 7L9 7L9 8L8 8L8 9L9 9L9 11L10 11L10 12L9 12L9 13L8 13L8 14L11 14L11 16L12 16L12 18L11 18L11 17L10 17L10 18L8 18L8 17L7 17L7 16L8 16L8 15L7 15L7 14L6 14L6 13L7 13L7 12L8 12L8 11L7 11L7 10L6 10L6 9L7 9L7 8L6 8L6 9L5 9L5 8L4 8L4 9L5 9L5 10L2 10L2 11L1 11L1 14L0 14L0 18L1 18L1 19L0 19L0 22L2 22L2 21L3 21L3 23L4 23L4 24L2 24L2 23L1 23L1 24L0 24L0 26L2 26L2 27L3 27L3 28L0 28L0 29L3 29L3 28L5 28L5 29L8 29L8 30L9 30L9 29L10 29L10 28L9 28L9 29L8 29L8 28L5 28L5 27L8 27L8 26L5 26L5 25L9 25L9 26L11 26L11 27L12 27L12 26L11 26L11 25L12 25L12 24L13 24L13 23L12 23L12 24L11 24L11 21L10 21L10 23L9 23L9 21L8 21L8 24L6 24L6 23L7 23L7 22L4 22L4 21L3 21L3 19L2 19L2 17L1 17L1 15L2 15L2 12L4 12L4 11L7 11L7 12L5 12L5 15L4 15L4 13L3 13L3 15L4 15L4 16L3 16L3 18L4 18L4 19L7 19L7 20L5 20L5 21L7 21L7 20L9 20L9 19L10 19L10 20L11 20L11 19L14 19L14 20L17 20L17 19L16 19L16 18L17 18L17 16L18 16L18 18L19 18L19 20L21 20L21 21L20 21L20 23L21 23L21 24L20 24L20 25L19 25L19 23L18 23L18 24L17 24L17 23L16 23L16 22L17 22L17 21L15 21L15 23L16 23L16 24L14 24L14 26L13 26L13 28L14 28L14 27L15 27L15 30L12 30L12 28L11 28L11 30L12 30L12 32L11 32L11 31L9 31L9 32L8 32L8 33L9 33L9 34L10 34L10 35L12 35L12 36L10 36L10 37L12 37L12 36L13 36L13 35L12 35L12 34L14 34L14 35L15 35L15 36L14 36L14 37L17 37L17 36L16 36L16 35L15 35L15 34L17 34L17 35L18 35L18 37L20 37L20 36L19 36L19 35L18 35L18 34L20 34L20 35L21 35L21 36L22 36L22 35L23 35L23 34L21 34L21 33L18 33L18 32L19 32L19 30L20 30L20 31L21 31L21 30L22 30L22 29L23 29L23 31L22 31L22 33L25 33L25 32L24 32L24 30L25 30L25 29L23 29L23 28L25 28L25 27L24 27L24 26L25 26L25 25L27 25L27 24L29 24L29 23L30 23L30 21L32 21L32 22L31 22L31 24L30 24L30 25L28 25L28 27L29 27L29 28L27 28L27 26L26 26L26 29L28 29L28 33L26 33L26 34L25 34L25 35L24 35L24 36L23 36L23 37L26 37L26 35L27 35L27 37L28 37L28 35L29 35L29 37L31 37L31 33L33 33L33 35L32 35L32 37L37 37L37 36L36 36L36 34L34 34L34 33L36 33L36 32L35 32L35 31L36 31L36 29L37 29L37 27L36 27L36 24L37 24L37 20L36 20L36 17L37 17L37 16L36 16L36 13L37 13L37 12L36 12L36 9L35 9L35 8L34 8L34 9L35 9L35 10L34 10L34 11L33 11L33 10L32 10L32 11L30 11L30 10L31 10L31 9L33 9L33 8L31 8L31 9L30 9L30 8L29 8L29 5L28 5L28 3L26 3L26 2L25 2L25 1L23 1L23 2L22 2L22 1L21 1L21 0L18 0L18 1L17 1L17 2L20 2L20 3L15 3L15 2L16 2L16 0L15 0L15 1L14 1L14 0L13 0L13 1L14 1L14 3L13 3L13 4L12 4L12 8L13 8L13 9L11 9L11 8L10 8L10 7L11 7L11 6L10 6L10 7L9 7L9 5L10 5L10 4L11 4L11 1L12 1L12 0L11 0L11 1L10 1L10 0ZM27 0L27 1L28 1L28 0ZM20 1L20 2L21 2L21 1ZM8 2L8 3L9 3L9 2ZM23 2L23 3L20 3L20 5L19 5L19 4L17 4L17 7L18 7L18 8L19 8L19 9L20 9L20 10L19 10L19 11L18 11L18 14L22 14L22 13L24 13L24 14L25 14L25 15L24 15L24 16L23 16L23 15L22 15L22 16L19 16L19 17L20 17L20 18L21 18L21 19L22 19L22 17L23 17L23 18L24 18L24 17L26 17L26 16L27 16L27 17L28 17L28 20L27 20L27 21L26 21L26 22L25 22L25 23L24 23L24 24L22 24L22 25L25 25L25 24L26 24L26 23L27 23L27 21L28 21L28 22L29 22L29 21L30 21L30 20L32 20L32 21L33 21L33 22L34 22L34 23L32 23L32 24L31 24L31 25L32 25L32 24L33 24L33 25L34 25L34 23L36 23L36 21L33 21L33 19L34 19L34 18L35 18L35 17L33 17L33 14L34 14L34 13L35 13L35 12L34 12L34 13L33 13L33 12L31 12L31 13L30 13L30 12L27 12L27 11L25 11L25 9L24 9L24 12L23 12L23 11L22 11L22 12L19 12L19 11L21 11L21 10L23 10L23 9L21 9L21 8L20 8L20 5L25 5L25 7L26 7L26 9L27 9L27 10L28 10L28 11L29 11L29 10L30 10L30 9L27 9L27 7L28 7L28 5L26 5L26 3L24 3L24 2ZM13 4L13 5L15 5L15 7L14 7L14 6L13 6L13 7L14 7L14 11L12 11L12 10L10 10L10 11L12 11L12 12L11 12L11 14L13 14L13 18L14 18L14 19L15 19L15 16L14 16L14 15L16 15L16 16L17 16L17 15L16 15L16 14L17 14L17 12L16 12L16 11L15 11L15 10L16 10L16 8L15 8L15 7L16 7L16 4ZM18 6L18 7L19 7L19 6ZM21 6L21 7L22 7L22 6ZM23 6L23 8L24 8L24 6ZM26 6L26 7L27 7L27 6ZM1 8L1 9L2 9L2 8ZM9 8L9 9L10 9L10 8ZM14 11L14 13L13 13L13 12L12 12L12 13L13 13L13 14L16 14L16 13L15 13L15 11ZM24 12L24 13L25 13L25 14L27 14L27 15L28 15L28 17L29 17L29 19L30 19L30 17L31 17L31 19L32 19L32 18L33 18L33 17L32 17L32 15L31 15L31 14L33 14L33 13L31 13L31 14L30 14L30 13L29 13L29 14L27 14L27 12L26 12L26 13L25 13L25 12ZM29 14L29 17L30 17L30 16L31 16L31 15L30 15L30 14ZM6 15L6 16L7 16L7 15ZM9 15L9 16L10 16L10 15ZM4 16L4 18L5 18L5 16ZM6 17L6 18L7 18L7 17ZM10 18L10 19L11 19L11 18ZM25 18L25 19L24 19L24 20L22 20L22 21L21 21L21 22L22 22L22 23L23 23L23 22L24 22L24 21L25 21L25 20L26 20L26 19L27 19L27 18ZM1 20L1 21L2 21L2 20ZM28 20L28 21L29 21L29 20ZM12 21L12 22L13 22L13 21ZM18 21L18 22L19 22L19 21ZM4 24L4 25L5 25L5 24ZM16 24L16 25L15 25L15 26L16 26L16 27L20 27L20 26L21 26L21 28L17 28L17 29L16 29L16 30L15 30L15 31L16 31L16 32L14 32L14 31L13 31L13 32L12 32L12 33L13 33L13 32L14 32L14 33L16 33L16 32L18 32L18 31L16 31L16 30L17 30L17 29L18 29L18 30L19 30L19 29L22 29L22 27L23 27L23 26L21 26L21 25L20 25L20 26L18 26L18 25L17 25L17 24ZM16 25L16 26L17 26L17 25ZM4 26L4 27L5 27L5 26ZM32 26L32 27L30 27L30 28L33 28L33 31L34 31L34 29L36 29L36 27L35 27L35 26L34 26L34 27L33 27L33 26ZM29 29L29 32L32 32L32 29ZM26 30L26 32L27 32L27 30ZM30 30L30 31L31 31L31 30ZM29 33L29 35L30 35L30 33ZM27 34L27 35L28 35L28 34ZM8 35L8 36L9 36L9 35ZM0 0L0 7L7 7L7 0ZM1 1L1 6L6 6L6 1ZM2 2L2 5L5 5L5 2ZM30 0L30 7L37 7L37 0ZM31 1L31 6L36 6L36 1ZM32 2L32 5L35 5L35 2ZM0 30L0 37L7 37L7 30ZM1 31L1 36L6 36L6 31ZM2 32L2 35L5 35L5 32Z" fill="#000000"/></g></g></svg>
