<?xml version="1.0" encoding="UTF-8"?>
<svg xmlns="http://www.w3.org/2000/svg" version="1.1" width="300" height="300" viewBox="0 0 300 300"><rect x="0" y="0" width="300" height="300" fill="#ffffff"/><g transform="scale(8.108)"><g transform="translate(0,0)"><path fill-rule="evenodd" d="M8 0L8 1L11 1L11 2L10 2L10 3L9 3L9 2L8 2L8 4L10 4L10 3L11 3L11 2L12 2L12 4L11 4L11 5L12 5L12 4L14 4L14 5L13 5L13 6L12 6L12 7L13 7L13 8L14 8L14 11L15 11L15 10L17 10L17 11L18 11L18 14L15 14L15 15L14 15L14 17L15 17L15 15L16 15L16 16L18 16L18 17L16 17L16 19L17 19L17 20L15 20L15 19L13 19L13 20L15 20L15 21L14 21L14 22L13 22L13 21L12 21L12 20L11 20L11 21L12 21L12 23L11 23L11 24L10 24L10 22L9 22L9 21L10 21L10 20L9 20L9 19L8 19L8 17L7 17L7 16L8 16L8 14L9 14L9 16L11 16L11 17L10 17L10 18L11 18L11 17L13 17L13 16L12 16L12 15L13 15L13 14L14 14L14 13L15 13L15 12L13 12L13 11L12 11L12 12L13 12L13 14L12 14L12 15L10 15L10 14L11 14L11 12L10 12L10 9L9 9L9 6L10 6L10 7L11 7L11 6L10 6L10 5L8 5L8 8L5 8L5 9L4 9L4 8L3 8L3 9L2 9L2 8L1 8L1 9L2 9L2 10L5 10L5 11L3 11L3 13L2 13L2 12L1 12L1 14L3 14L3 15L1 15L1 16L2 16L2 20L3 20L3 18L4 18L4 16L3 16L3 15L4 15L4 14L5 14L5 19L4 19L4 21L3 21L3 24L2 24L2 25L4 25L4 21L7 21L7 22L6 22L6 23L8 23L8 22L9 22L9 24L5 24L5 25L7 25L7 26L6 26L6 27L5 27L5 26L4 26L4 27L3 27L3 26L2 26L2 27L1 27L1 26L0 26L0 27L1 27L1 28L0 28L0 29L3 29L3 28L5 28L5 29L8 29L8 32L9 32L9 33L8 33L8 34L9 34L9 35L8 35L8 36L9 36L9 37L14 37L14 34L12 34L12 35L10 35L10 34L11 34L11 33L10 33L10 32L12 32L12 31L13 31L13 32L14 32L14 33L16 33L16 34L17 34L17 35L16 35L16 36L17 36L17 37L19 37L19 36L22 36L22 37L25 37L25 33L26 33L26 34L27 34L27 35L26 35L26 36L27 36L27 35L28 35L28 37L31 37L31 36L32 36L32 37L34 37L34 32L35 32L35 31L33 31L33 30L34 30L34 29L33 29L33 28L32 28L32 26L28 26L28 25L29 25L29 24L30 24L30 25L34 25L34 23L36 23L36 24L35 24L35 25L36 25L36 26L35 26L35 27L34 27L34 28L36 28L36 27L37 27L37 25L36 25L36 24L37 24L37 23L36 23L36 21L37 21L37 20L36 20L36 19L37 19L37 16L36 16L36 15L37 15L37 8L36 8L36 11L35 11L35 12L34 12L34 9L35 9L35 8L33 8L33 9L32 9L32 8L29 8L29 4L28 4L28 3L29 3L29 2L28 2L28 0L25 0L25 4L26 4L26 5L27 5L27 6L26 6L26 7L25 7L25 6L24 6L24 5L23 5L23 4L22 4L22 7L21 7L21 6L20 6L20 5L21 5L21 4L19 4L19 3L18 3L18 2L19 2L19 0L17 0L17 2L15 2L15 3L18 3L18 4L17 4L17 5L18 5L18 4L19 4L19 6L18 6L18 7L19 7L19 8L20 8L20 9L18 9L18 10L17 10L17 9L15 9L15 8L16 8L16 7L17 7L17 6L16 6L16 7L15 7L15 5L16 5L16 4L14 4L14 1L16 1L16 0L13 0L13 1L12 1L12 0ZM20 0L20 3L21 3L21 2L22 2L22 3L23 3L23 2L22 2L22 1L23 1L23 0L22 0L22 1L21 1L21 0ZM26 2L26 3L27 3L27 2ZM13 6L13 7L14 7L14 8L15 8L15 7L14 7L14 6ZM19 6L19 7L20 7L20 8L21 8L21 7L20 7L20 6ZM23 6L23 7L22 7L22 8L23 8L23 10L20 10L20 11L19 11L19 14L18 14L18 15L19 15L19 17L18 17L18 18L17 18L17 19L18 19L18 20L17 20L17 21L19 21L19 22L18 22L18 23L19 23L19 22L20 22L20 23L23 23L23 25L21 25L21 26L20 26L20 25L19 25L19 24L18 24L18 25L16 25L16 24L17 24L17 22L16 22L16 21L15 21L15 23L16 23L16 24L15 24L15 25L13 25L13 24L12 24L12 25L11 25L11 27L9 27L9 28L8 28L8 27L6 27L6 28L8 28L8 29L9 29L9 28L10 28L10 29L12 29L12 30L10 30L10 31L12 31L12 30L13 30L13 31L15 31L15 30L17 30L17 31L16 31L16 33L18 33L18 34L19 34L19 32L21 32L21 33L20 33L20 35L23 35L23 32L24 32L24 30L25 30L25 32L26 32L26 33L27 33L27 34L28 34L28 35L29 35L29 36L30 36L30 35L31 35L31 34L32 34L32 33L28 33L28 32L26 32L26 31L27 31L27 30L28 30L28 29L26 29L26 28L25 28L25 27L26 27L26 26L25 26L25 27L24 27L24 30L23 30L23 29L22 29L22 28L23 28L23 26L24 26L24 24L25 24L25 25L26 25L26 24L27 24L27 25L28 25L28 23L30 23L30 24L32 24L32 22L33 22L33 23L34 23L34 22L35 22L35 21L36 21L36 20L34 20L34 19L32 19L32 20L31 20L31 23L30 23L30 22L29 22L29 21L30 21L30 20L29 20L29 19L28 19L28 18L29 18L29 17L30 17L30 16L31 16L31 15L32 15L32 17L34 17L34 18L36 18L36 17L34 17L34 16L35 16L35 15L36 15L36 14L34 14L34 13L33 13L33 10L32 10L32 9L30 9L30 10L29 10L29 8L27 8L27 7L28 7L28 6L27 6L27 7L26 7L26 8L24 8L24 6ZM11 8L11 10L13 10L13 9L12 9L12 8ZM26 8L26 9L25 9L25 10L24 10L24 11L20 11L20 14L19 14L19 15L20 15L20 16L23 16L23 15L24 15L24 16L26 16L26 17L25 17L25 18L26 18L26 20L28 20L28 19L27 19L27 16L28 16L28 17L29 17L29 12L30 12L30 14L31 14L31 13L32 13L32 12L31 12L31 11L32 11L32 10L30 10L30 11L29 11L29 10L28 10L28 9L27 9L27 8ZM5 9L5 10L8 10L8 9ZM26 9L26 10L25 10L25 11L26 11L26 12L27 12L27 13L25 13L25 14L24 14L24 12L23 12L23 13L22 13L22 12L21 12L21 13L22 13L22 14L21 14L21 15L22 15L22 14L24 14L24 15L25 15L25 14L26 14L26 15L28 15L28 14L27 14L27 13L28 13L28 12L29 12L29 11L28 11L28 10L27 10L27 9ZM0 10L0 11L1 11L1 10ZM26 10L26 11L27 11L27 12L28 12L28 11L27 11L27 10ZM5 11L5 12L7 12L7 13L6 13L6 14L7 14L7 13L8 13L8 11ZM9 12L9 14L10 14L10 12ZM16 12L16 13L17 13L17 12ZM3 13L3 14L4 14L4 13ZM32 14L32 15L33 15L33 14ZM6 15L6 16L7 16L7 15ZM6 17L6 18L7 18L7 17ZM19 17L19 18L18 18L18 19L19 19L19 21L20 21L20 20L21 20L21 21L23 21L23 22L24 22L24 19L23 19L23 17L21 17L21 18L22 18L22 19L20 19L20 17ZM0 19L0 20L1 20L1 19ZM6 19L6 20L7 20L7 19ZM8 20L8 21L9 21L9 20ZM32 20L32 21L33 21L33 22L34 22L34 21L33 21L33 20ZM1 21L1 22L0 22L0 23L2 23L2 21ZM25 21L25 24L26 24L26 23L27 23L27 21ZM0 24L0 25L1 25L1 24ZM9 24L9 25L8 25L8 26L9 26L9 25L10 25L10 24ZM12 25L12 26L13 26L13 27L12 27L12 28L13 28L13 29L14 29L14 30L15 30L15 29L17 29L17 30L19 30L19 29L21 29L21 28L19 28L19 27L18 27L18 26L19 26L19 25L18 25L18 26L17 26L17 28L16 28L16 27L15 27L15 28L13 28L13 27L14 27L14 26L13 26L13 25ZM15 25L15 26L16 26L16 25ZM21 26L21 27L22 27L22 26ZM2 27L2 28L3 28L3 27ZM27 27L27 28L28 28L28 27ZM29 27L29 28L30 28L30 27ZM17 28L17 29L19 29L19 28ZM29 29L29 32L32 32L32 29ZM35 29L35 30L36 30L36 31L37 31L37 29ZM21 30L21 31L22 31L22 32L23 32L23 31L22 31L22 30ZM30 30L30 31L31 31L31 30ZM18 31L18 32L19 32L19 31ZM9 33L9 34L10 34L10 33ZM21 33L21 34L22 34L22 33ZM35 33L35 34L36 34L36 35L37 35L37 33ZM9 35L9 36L10 36L10 35ZM32 35L32 36L33 36L33 35ZM35 36L35 37L37 37L37 36ZM0 0L0 7L7 7L7 0ZM1 1L1 6L6 6L6 1ZM2 2L2 5L5 5L5 2ZM30 0L30 7L37 7L37 0ZM31 1L31 6L36 6L36 1ZM32 2L32 5L35 5L35 2ZM0 30L0 37L7 37L7 30ZM1 31L1 36L6 36L6 31ZM2 32L2 35L5 35L5 32Z" fill="#000000"/></g></g></svg>
