<?xml version="1.0" encoding="UTF-8"?>
<svg xmlns="http://www.w3.org/2000/svg" version="1.1" width="300" height="300" viewBox="0 0 300 300"><rect x="0" y="0" width="300" height="300" fill="#ffffff"/><g transform="scale(8.108)"><g transform="translate(0,0)"><path fill-rule="evenodd" d="M9 0L9 1L8 1L8 3L9 3L9 2L10 2L10 4L11 4L11 5L10 5L10 7L9 7L9 6L8 6L8 7L9 7L9 9L8 9L8 10L10 10L10 9L11 9L11 10L13 10L13 11L14 11L14 12L12 12L12 11L11 11L11 12L12 12L12 13L11 13L11 14L12 14L12 15L10 15L10 12L9 12L9 11L8 11L8 13L7 13L7 12L6 12L6 13L5 13L5 14L6 14L6 15L7 15L7 16L6 16L6 17L5 17L5 18L6 18L6 19L5 19L5 20L4 20L4 18L3 18L3 15L1 15L1 16L0 16L0 22L1 22L1 21L2 21L2 22L3 22L3 21L5 21L5 22L4 22L4 23L3 23L3 24L4 24L4 25L2 25L2 26L1 26L1 27L0 27L0 28L1 28L1 27L3 27L3 28L2 28L2 29L5 29L5 28L4 28L4 27L5 27L5 26L6 26L6 27L7 27L7 26L8 26L8 25L7 25L7 24L5 24L5 23L8 23L8 24L9 24L9 23L10 23L10 22L11 22L11 28L10 28L10 26L9 26L9 27L8 27L8 30L9 30L9 29L11 29L11 28L12 28L12 30L10 30L10 31L11 31L11 33L10 33L10 32L9 32L9 31L8 31L8 32L9 32L9 33L8 33L8 36L9 36L9 37L12 37L12 36L13 36L13 35L12 35L12 34L13 34L13 33L14 33L14 34L15 34L15 35L14 35L14 36L15 36L15 37L16 37L16 36L17 36L17 33L18 33L18 34L19 34L19 31L20 31L20 33L21 33L21 34L22 34L22 33L21 33L21 32L22 32L22 31L23 31L23 32L24 32L24 31L23 31L23 30L24 30L24 29L26 29L26 28L27 28L27 29L28 29L28 31L27 31L27 30L26 30L26 31L27 31L27 32L26 32L26 33L25 33L25 35L23 35L23 37L25 37L25 35L26 35L26 33L27 33L27 32L28 32L28 33L30 33L30 36L29 36L29 37L31 37L31 36L33 36L33 34L34 34L34 37L37 37L37 36L35 36L35 35L36 35L36 34L34 34L34 33L33 33L33 32L34 32L34 31L35 31L35 30L36 30L36 31L37 31L37 27L36 27L36 28L35 28L35 27L34 27L34 28L35 28L35 29L33 29L33 28L30 28L30 26L29 26L29 25L28 25L28 26L26 26L26 25L25 25L25 27L26 27L26 28L24 28L24 27L23 27L23 28L22 28L22 29L20 29L20 28L21 28L21 27L22 27L22 26L23 26L23 25L21 25L21 24L20 24L20 26L21 26L21 27L20 27L20 28L19 28L19 26L18 26L18 25L16 25L16 26L17 26L17 28L18 28L18 29L17 29L17 30L18 30L18 29L20 29L20 30L19 30L19 31L18 31L18 32L17 32L17 33L16 33L16 32L15 32L15 31L16 31L16 27L15 27L15 25L14 25L14 23L16 23L16 24L17 24L17 23L18 23L18 24L19 24L19 23L21 23L21 21L23 21L23 20L24 20L24 22L23 22L23 23L22 23L22 24L23 24L23 23L25 23L25 24L27 24L27 21L26 21L26 20L24 20L24 19L23 19L23 18L21 18L21 17L20 17L20 15L21 15L21 16L23 16L23 17L25 17L25 18L26 18L26 17L27 17L27 20L28 20L28 24L30 24L30 25L32 25L32 26L35 26L35 25L36 25L36 26L37 26L37 25L36 25L36 24L37 24L37 21L36 21L36 19L37 19L37 17L36 17L36 18L35 18L35 16L34 16L34 15L35 15L35 14L33 14L33 11L34 11L34 12L35 12L35 13L36 13L36 14L37 14L37 11L36 11L36 8L34 8L34 9L30 9L30 10L28 10L28 9L27 9L27 8L29 8L29 4L28 4L28 3L29 3L29 2L28 2L28 3L26 3L26 4L25 4L25 2L26 2L26 1L27 1L27 0L25 0L25 2L23 2L23 4L22 4L22 7L23 7L23 6L24 6L24 8L21 8L21 6L20 6L20 8L19 8L19 4L20 4L20 5L21 5L21 2L22 2L22 0L21 0L21 2L19 2L19 0L18 0L18 2L16 2L16 3L14 3L14 4L13 4L13 3L12 3L12 2L15 2L15 1L17 1L17 0L13 0L13 1L12 1L12 0L11 0L11 1L10 1L10 0ZM16 3L16 4L15 4L15 5L14 5L14 6L13 6L13 4L12 4L12 5L11 5L11 9L12 9L12 6L13 6L13 7L14 7L14 6L15 6L15 7L16 7L16 5L18 5L18 4L19 4L19 3ZM24 5L24 6L25 6L25 7L26 7L26 5ZM27 5L27 7L28 7L28 5ZM17 6L17 8L16 8L16 9L17 9L17 10L14 10L14 9L13 9L13 10L14 10L14 11L17 11L17 10L18 10L18 11L19 11L19 12L22 12L22 13L21 13L21 15L22 15L22 13L23 13L23 15L24 15L24 16L26 16L26 15L29 15L29 14L30 14L30 12L31 12L31 13L32 13L32 11L33 11L33 10L30 10L30 12L28 12L28 10L27 10L27 9L25 9L25 10L24 10L24 11L26 11L26 13L25 13L25 14L24 14L24 12L23 12L23 10L21 10L21 8L20 8L20 9L19 9L19 10L18 10L18 9L17 9L17 8L18 8L18 6ZM1 8L1 10L5 10L5 11L7 11L7 10L5 10L5 9L7 9L7 8L5 8L5 9L4 9L4 8ZM34 9L34 11L35 11L35 9ZM19 10L19 11L21 11L21 10ZM0 11L0 13L2 13L2 14L4 14L4 13L3 13L3 11L2 11L2 12L1 12L1 11ZM14 12L14 13L12 13L12 14L13 14L13 15L12 15L12 16L9 16L9 15L8 15L8 16L7 16L7 17L6 17L6 18L7 18L7 17L10 17L10 18L11 18L11 19L8 19L8 20L7 20L7 19L6 19L6 20L5 20L5 21L6 21L6 22L7 22L7 21L8 21L8 20L9 20L9 22L10 22L10 20L11 20L11 21L13 21L13 19L15 19L15 18L16 18L16 17L17 17L17 16L18 16L18 18L17 18L17 19L16 19L16 21L14 21L14 22L13 22L13 23L14 23L14 22L16 22L16 21L18 21L18 23L19 23L19 22L20 22L20 21L21 21L21 20L22 20L22 19L20 19L20 20L19 20L19 15L18 15L18 14L19 14L19 13L18 13L18 12L17 12L17 14L16 14L16 13L15 13L15 12ZM27 12L27 13L26 13L26 14L27 14L27 13L28 13L28 12ZM6 13L6 14L7 14L7 13ZM14 13L14 14L15 14L15 13ZM13 15L13 18L15 18L15 17L14 17L14 15ZM16 15L16 16L17 16L17 15ZM31 15L31 16L30 16L30 17L32 17L32 19L33 19L33 18L34 18L34 20L33 20L33 21L32 21L32 20L31 20L31 19L30 19L30 18L28 18L28 20L29 20L29 21L30 21L30 24L31 24L31 22L33 22L33 21L35 21L35 22L34 22L34 23L35 23L35 24L36 24L36 21L35 21L35 18L34 18L34 17L33 17L33 15ZM36 15L36 16L37 16L37 15ZM1 16L1 17L2 17L2 16ZM27 16L27 17L28 17L28 16ZM1 18L1 20L2 20L2 21L3 21L3 20L2 20L2 18ZM17 19L17 20L18 20L18 19ZM6 20L6 21L7 21L7 20ZM25 21L25 23L26 23L26 21ZM32 23L32 25L33 25L33 23ZM0 24L0 25L1 25L1 24ZM12 24L12 28L13 28L13 29L14 29L14 30L12 30L12 32L13 32L13 31L15 31L15 29L14 29L14 28L15 28L15 27L14 27L14 26L13 26L13 24ZM6 25L6 26L7 26L7 25ZM3 26L3 27L4 27L4 26ZM27 27L27 28L28 28L28 27ZM6 28L6 29L7 29L7 28ZM29 29L29 32L32 32L32 29ZM21 30L21 31L22 31L22 30ZM30 30L30 31L31 31L31 30ZM33 30L33 31L34 31L34 30ZM14 32L14 33L15 33L15 32ZM35 32L35 33L37 33L37 32ZM9 33L9 35L11 35L11 34L10 34L10 33ZM31 33L31 34L32 34L32 33ZM15 35L15 36L16 36L16 35ZM18 35L18 37L19 37L19 36L20 36L20 37L22 37L22 36L20 36L20 35ZM27 35L27 36L26 36L26 37L28 37L28 35ZM0 0L0 7L7 7L7 0ZM1 1L1 6L6 6L6 1ZM2 2L2 5L5 5L5 2ZM30 0L30 7L37 7L37 0ZM31 1L31 6L36 6L36 1ZM32 2L32 5L35 5L35 2ZM0 30L0 37L7 37L7 30ZM1 31L1 36L6 36L6 31ZM2 32L2 35L5 35L5 32Z" fill="#000000"/></g></g></svg>
