<?xml version="1.0" encoding="UTF-8"?>
<svg xmlns="http://www.w3.org/2000/svg" version="1.1" width="300" height="300" viewBox="0 0 300 300"><rect x="0" y="0" width="300" height="300" fill="#ffffff"/><g transform="scale(8.108)"><g transform="translate(0,0)"><path fill-rule="evenodd" d="M11 0L11 1L9 1L9 2L8 2L8 3L9 3L9 4L8 4L8 7L9 7L9 4L10 4L10 8L11 8L11 9L10 9L10 12L11 12L11 11L12 11L12 10L11 10L11 9L14 9L14 7L15 7L15 5L17 5L17 2L15 2L15 1L16 1L16 0L14 0L14 1L13 1L13 4L12 4L12 5L13 5L13 6L12 6L12 8L11 8L11 4L10 4L10 3L9 3L9 2L11 2L11 1L12 1L12 0ZM17 0L17 1L18 1L18 2L20 2L20 3L19 3L19 5L18 5L18 7L17 7L17 6L16 6L16 7L17 7L17 8L15 8L15 9L16 9L16 10L14 10L14 11L13 11L13 12L12 12L12 13L11 13L11 14L12 14L12 15L11 15L11 17L9 17L9 18L8 18L8 17L7 17L7 16L10 16L10 15L9 15L9 14L10 14L10 13L9 13L9 12L8 12L8 15L7 15L7 14L5 14L5 15L3 15L3 14L1 14L1 13L2 13L2 12L4 12L4 13L5 13L5 12L4 12L4 10L1 10L1 11L2 11L2 12L0 12L0 15L2 15L2 16L0 16L0 22L1 22L1 21L2 21L2 20L1 20L1 19L4 19L4 18L5 18L5 20L4 20L4 21L3 21L3 22L2 22L2 23L1 23L1 24L0 24L0 26L2 26L2 27L3 27L3 28L0 28L0 29L3 29L3 28L4 28L4 29L8 29L8 30L9 30L9 29L10 29L10 30L14 30L14 32L13 32L13 33L11 33L11 32L12 32L12 31L9 31L9 32L8 32L8 33L9 33L9 34L10 34L10 35L8 35L8 36L10 36L10 35L12 35L12 36L11 36L11 37L12 37L12 36L13 36L13 37L14 37L14 35L12 35L12 34L13 34L13 33L14 33L14 32L15 32L15 35L17 35L17 36L18 36L18 35L19 35L19 34L20 34L20 35L21 35L21 36L22 36L22 35L23 35L23 34L21 34L21 33L18 33L18 32L20 32L20 31L21 31L21 30L22 30L22 29L23 29L23 31L22 31L22 33L23 33L23 31L25 31L25 30L24 30L24 29L25 29L25 28L24 28L24 25L27 25L27 23L28 23L28 24L29 24L29 23L30 23L30 22L28 22L28 21L32 21L32 22L33 22L33 21L32 21L32 19L34 19L34 21L36 21L36 23L33 23L33 24L32 24L32 25L31 25L31 24L30 24L30 25L28 25L28 27L30 27L30 28L27 28L27 26L26 26L26 29L27 29L27 30L26 30L26 33L27 33L27 32L28 32L28 34L25 34L25 35L24 35L24 36L23 36L23 37L26 37L26 35L27 35L27 37L28 37L28 35L29 35L29 36L30 36L30 35L31 35L31 36L32 36L32 37L37 37L37 36L36 36L36 34L34 34L34 33L36 33L36 32L35 32L35 31L36 31L36 29L37 29L37 27L35 27L35 28L36 28L36 29L35 29L35 31L34 31L34 29L33 29L33 28L31 28L31 27L32 27L32 26L33 26L33 27L34 27L34 26L35 26L35 25L36 25L36 24L37 24L37 20L36 20L36 17L37 17L37 16L36 16L36 15L35 15L35 14L34 14L34 12L35 12L35 13L37 13L37 11L35 11L35 10L34 10L34 11L33 11L33 10L32 10L32 11L31 11L31 12L30 12L30 13L29 13L29 14L30 14L30 15L32 15L32 16L29 16L29 15L28 15L28 14L27 14L27 12L29 12L29 11L30 11L30 10L31 10L31 9L33 9L33 8L31 8L31 9L30 9L30 8L29 8L29 5L28 5L28 3L26 3L26 2L25 2L25 1L21 1L21 0ZM27 0L27 1L28 1L28 0ZM20 1L20 2L21 2L21 1ZM14 2L14 3L15 3L15 2ZM23 2L23 5L22 5L22 3L21 3L21 5L19 5L19 8L18 8L18 9L19 9L19 10L17 10L17 11L18 11L18 12L17 12L17 13L16 13L16 11L15 11L15 12L14 12L14 13L12 13L12 14L15 14L15 13L16 13L16 14L17 14L17 13L18 13L18 14L19 14L19 15L21 15L21 14L22 14L22 13L26 13L26 12L27 12L27 11L26 11L26 10L25 10L25 12L23 12L23 11L22 11L22 12L21 12L21 14L20 14L20 12L19 12L19 10L20 10L20 11L21 11L21 10L22 10L22 9L23 9L23 8L24 8L24 9L25 9L25 8L24 8L24 6L23 6L23 5L25 5L25 7L26 7L26 9L27 9L27 10L28 10L28 11L29 11L29 10L30 10L30 9L28 9L28 5L26 5L26 3L24 3L24 2ZM13 4L13 5L14 5L14 4ZM21 5L21 6L20 6L20 8L19 8L19 9L20 9L20 10L21 10L21 9L22 9L22 8L23 8L23 6L22 6L22 5ZM13 6L13 7L14 7L14 6ZM21 6L21 7L22 7L22 6ZM26 6L26 7L27 7L27 6ZM1 8L1 9L2 9L2 8ZM4 8L4 9L5 9L5 10L6 10L6 11L8 11L8 10L6 10L6 9L7 9L7 8L6 8L6 9L5 9L5 8ZM8 8L8 9L9 9L9 8ZM20 8L20 9L21 9L21 8ZM34 8L34 9L35 9L35 8ZM6 12L6 13L7 13L7 12ZM18 12L18 13L19 13L19 12ZM32 12L32 13L30 13L30 14L32 14L32 15L34 15L34 14L32 14L32 13L33 13L33 12ZM6 15L6 16L7 16L7 15ZM14 15L14 16L15 16L15 15ZM22 15L22 16L19 16L19 17L20 17L20 18L21 18L21 17L23 17L23 18L24 18L24 17L26 17L26 15L24 15L24 16L23 16L23 15ZM3 16L3 17L2 17L2 18L4 18L4 17L5 17L5 16ZM16 16L16 17L15 17L15 18L16 18L16 17L18 17L18 16ZM27 16L27 17L29 17L29 18L28 18L28 20L27 20L27 21L26 21L26 22L25 22L25 23L24 23L24 24L22 24L22 25L24 25L24 24L26 24L26 23L27 23L27 21L28 21L28 20L30 20L30 19L32 19L32 18L31 18L31 17L29 17L29 16ZM32 16L32 17L33 17L33 16ZM6 17L6 18L7 18L7 17ZM11 17L11 18L12 18L12 17ZM13 17L13 18L14 18L14 17ZM34 17L34 19L35 19L35 17ZM17 18L17 19L16 19L16 20L14 20L14 21L12 21L12 20L13 20L13 19L11 19L11 20L10 20L10 21L9 21L9 22L10 22L10 26L9 26L9 27L8 27L8 26L7 26L7 25L6 25L6 24L9 24L9 23L8 23L8 20L7 20L7 19L6 19L6 20L7 20L7 21L4 21L4 22L5 22L5 23L6 23L6 24L4 24L4 28L9 28L9 27L10 27L10 26L12 26L12 24L13 24L13 25L14 25L14 24L15 24L15 26L13 26L13 27L12 27L12 28L10 28L10 29L13 29L13 28L14 28L14 27L15 27L15 26L16 26L16 27L17 27L17 26L16 26L16 25L18 25L18 27L19 27L19 28L17 28L17 29L19 29L19 28L21 28L21 29L22 29L22 27L23 27L23 26L21 26L21 24L20 24L20 23L22 23L22 22L24 22L24 21L25 21L25 20L26 20L26 19L27 19L27 18L25 18L25 19L24 19L24 20L23 20L23 19L22 19L22 21L20 21L20 20L19 20L19 19L18 19L18 18ZM29 18L29 19L30 19L30 18ZM17 19L17 20L16 20L16 21L14 21L14 22L15 22L15 24L17 24L17 23L18 23L18 25L19 25L19 26L20 26L20 24L19 24L19 22L20 22L20 21L19 21L19 22L17 22L17 23L16 23L16 21L18 21L18 19ZM11 21L11 23L13 23L13 22L12 22L12 21ZM6 22L6 23L7 23L7 22ZM2 23L2 25L3 25L3 23ZM5 26L5 27L7 27L7 26ZM30 26L30 27L31 27L31 26ZM23 28L23 29L24 29L24 28ZM14 29L14 30L15 30L15 32L16 32L16 30L15 30L15 29ZM29 29L29 32L32 32L32 29ZM27 30L27 31L28 31L28 30ZM30 30L30 31L31 31L31 30ZM17 31L17 32L18 32L18 31ZM24 32L24 33L25 33L25 32ZM16 33L16 34L17 34L17 33ZM29 33L29 35L30 35L30 33ZM31 33L31 35L32 35L32 36L33 36L33 33ZM15 36L15 37L16 37L16 36ZM19 36L19 37L20 37L20 36ZM0 0L0 7L7 7L7 0ZM1 1L1 6L6 6L6 1ZM2 2L2 5L5 5L5 2ZM30 0L30 7L37 7L37 0ZM31 1L31 6L36 6L36 1ZM32 2L32 5L35 5L35 2ZM0 30L0 37L7 37L7 30ZM1 31L1 36L6 36L6 31ZM2 32L2 35L5 35L5 32Z" fill="#000000"/></g></g></svg>
