<?xml version="1.0" encoding="UTF-8"?>
<svg xmlns="http://www.w3.org/2000/svg" version="1.1" width="300" height="300" viewBox="0 0 300 300"><rect x="0" y="0" width="300" height="300" fill="#ffffff"/><g transform="scale(7.317)"><g transform="translate(0,0)"><path fill-rule="evenodd" d="M8 0L8 1L9 1L9 2L10 2L10 3L9 3L9 4L8 4L8 7L9 7L9 6L10 6L10 7L11 7L11 8L10 8L10 9L11 9L11 10L8 10L8 8L1 8L1 9L2 9L2 10L0 10L0 11L2 11L2 10L4 10L4 11L5 11L5 14L6 14L6 15L7 15L7 16L5 16L5 17L9 17L9 19L7 19L7 18L5 18L5 19L4 19L4 20L6 20L6 21L7 21L7 22L6 22L6 23L5 23L5 24L6 24L6 25L8 25L8 27L9 27L9 28L12 28L12 26L9 26L9 25L8 25L8 24L9 24L9 23L13 23L13 24L12 24L12 25L13 25L13 27L14 27L14 28L13 28L13 30L12 30L12 31L13 31L13 32L14 32L14 33L15 33L15 32L17 32L17 33L16 33L16 34L15 34L15 36L14 36L14 34L13 34L13 33L12 33L12 34L13 34L13 36L12 36L12 35L11 35L11 37L10 37L10 38L9 38L9 34L10 34L10 33L11 33L11 30L10 30L10 29L8 29L8 28L6 28L6 27L7 27L7 26L6 26L6 27L5 27L5 28L3 28L3 29L4 29L4 30L3 30L3 32L4 32L4 33L8 33L8 40L9 40L9 41L10 41L10 40L11 40L11 41L14 41L14 40L17 40L17 41L18 41L18 40L20 40L20 39L21 39L21 41L22 41L22 39L23 39L23 40L25 40L25 41L26 41L26 40L28 40L28 41L32 41L32 40L33 40L33 41L37 41L37 40L38 40L38 41L39 41L39 40L40 40L40 39L39 39L39 38L40 38L40 37L41 37L41 36L40 36L40 34L41 34L41 32L40 32L40 30L41 30L41 29L40 29L40 26L41 26L41 25L40 25L40 26L39 26L39 28L38 28L38 27L37 27L37 26L38 26L38 25L39 25L39 24L41 24L41 23L39 23L39 24L37 24L37 23L38 23L38 22L41 22L41 21L40 21L40 18L41 18L41 16L40 16L40 14L41 14L41 13L40 13L40 10L41 10L41 8L40 8L40 9L38 9L38 10L39 10L39 12L38 12L38 11L35 11L35 9L36 9L36 10L37 10L37 8L35 8L35 9L33 9L33 8L32 8L32 7L33 7L33 6L32 6L32 7L31 7L31 5L33 5L33 4L31 4L31 3L32 3L32 2L33 2L33 1L32 1L32 0L31 0L31 1L30 1L30 0L29 0L29 1L30 1L30 3L29 3L29 2L28 2L28 1L27 1L27 0L26 0L26 1L27 1L27 2L26 2L26 3L27 3L27 4L28 4L28 5L27 5L27 6L26 6L26 7L27 7L27 9L29 9L29 10L30 10L30 11L31 11L31 10L32 10L32 11L35 11L35 12L37 12L37 13L36 13L36 14L37 14L37 13L40 13L40 14L39 14L39 16L37 16L37 15L35 15L35 13L33 13L33 12L32 12L32 13L30 13L30 12L29 12L29 11L28 11L28 10L27 10L27 11L28 11L28 12L29 12L29 13L28 13L28 14L27 14L27 15L26 15L26 14L25 14L25 13L26 13L26 12L25 12L25 13L24 13L24 14L25 14L25 15L24 15L24 16L25 16L25 17L22 17L22 16L23 16L23 15L22 15L22 16L21 16L21 15L20 15L20 16L21 16L21 18L19 18L19 19L18 19L18 17L19 17L19 15L16 15L16 12L17 12L17 14L18 14L18 13L19 13L19 9L18 9L18 10L17 10L17 9L16 9L16 8L17 8L17 6L18 6L18 7L19 7L19 6L20 6L20 8L21 8L21 12L22 12L22 8L21 8L21 6L22 6L22 7L23 7L23 8L24 8L24 7L25 7L25 5L23 5L23 4L24 4L24 1L23 1L23 0L19 0L19 3L17 3L17 2L16 2L16 1L15 1L15 0L14 0L14 1L13 1L13 0L10 0L10 1L9 1L9 0ZM17 0L17 1L18 1L18 0ZM10 1L10 2L11 2L11 3L13 3L13 4L11 4L11 5L10 5L10 6L11 6L11 7L12 7L12 8L11 8L11 9L12 9L12 8L13 8L13 9L14 9L14 10L13 10L13 11L12 11L12 12L11 12L11 11L10 11L10 12L8 12L8 10L7 10L7 9L6 9L6 10L7 10L7 11L6 11L6 12L7 12L7 13L6 13L6 14L7 14L7 15L9 15L9 17L11 17L11 18L13 18L13 19L12 19L12 20L11 20L11 19L9 19L9 22L7 22L7 23L6 23L6 24L8 24L8 23L9 23L9 22L11 22L11 21L12 21L12 22L13 22L13 23L16 23L16 26L17 26L17 23L19 23L19 24L18 24L18 26L19 26L19 29L18 29L18 28L17 28L17 27L16 27L16 28L14 28L14 30L13 30L13 31L14 31L14 32L15 32L15 30L16 30L16 31L17 31L17 30L16 30L16 29L18 29L18 31L19 31L19 32L20 32L20 33L21 33L21 34L19 34L19 36L20 36L20 35L22 35L22 37L19 37L19 39L20 39L20 38L21 38L21 39L22 39L22 37L23 37L23 36L24 36L24 37L25 37L25 40L26 40L26 39L27 39L27 38L29 38L29 36L30 36L30 37L31 37L31 38L30 38L30 39L28 39L28 40L30 40L30 39L31 39L31 40L32 40L32 39L33 39L33 40L36 40L36 39L33 39L33 37L32 37L32 35L30 35L30 34L31 34L31 33L30 33L30 34L29 34L29 33L27 33L27 32L28 32L28 31L29 31L29 32L34 32L34 29L35 29L35 28L36 28L36 29L37 29L37 30L36 30L36 32L37 32L37 33L38 33L38 35L37 35L37 36L39 36L39 34L40 34L40 33L38 33L38 32L39 32L39 30L40 30L40 29L37 29L37 27L35 27L35 26L36 26L36 25L37 25L37 24L36 24L36 23L37 23L37 22L36 22L36 21L38 21L38 20L39 20L39 18L40 18L40 17L37 17L37 16L36 16L36 17L35 17L35 16L34 16L34 17L35 17L35 20L34 20L34 18L33 18L33 17L32 17L32 16L33 16L33 13L32 13L32 14L30 14L30 13L29 13L29 14L28 14L28 15L29 15L29 16L31 16L31 17L32 17L32 18L30 18L30 17L27 17L27 16L26 16L26 15L25 15L25 16L26 16L26 18L28 18L28 20L31 20L31 21L29 21L29 22L30 22L30 23L29 23L29 24L27 24L27 23L25 23L25 24L22 24L22 22L23 22L23 23L24 23L24 22L23 22L23 21L26 21L26 22L28 22L28 21L26 21L26 20L27 20L27 19L26 19L26 20L22 20L22 19L24 19L24 18L22 18L22 19L21 19L21 20L22 20L22 21L21 21L21 22L20 22L20 23L19 23L19 22L18 22L18 20L14 20L14 21L13 21L13 19L16 19L16 18L17 18L17 16L16 16L16 15L15 15L15 17L16 17L16 18L13 18L13 17L14 17L14 15L10 15L10 14L11 14L11 13L12 13L12 12L13 12L13 13L14 13L14 12L15 12L15 11L14 11L14 10L16 10L16 11L17 11L17 10L16 10L16 9L15 9L15 8L16 8L16 4L17 4L17 5L20 5L20 6L21 6L21 5L22 5L22 6L23 6L23 7L24 7L24 6L23 6L23 5L22 5L22 4L23 4L23 1L22 1L22 4L21 4L21 1L20 1L20 3L19 3L19 4L17 4L17 3L14 3L14 2L15 2L15 1L14 1L14 2L13 2L13 1ZM31 1L31 2L32 2L32 1ZM27 2L27 3L28 3L28 2ZM29 4L29 5L31 5L31 4ZM14 5L14 7L13 7L13 6L12 6L12 7L13 7L13 8L15 8L15 5ZM27 6L27 7L28 7L28 8L30 8L30 6L29 6L29 7L28 7L28 6ZM25 8L25 9L26 9L26 8ZM31 8L31 9L30 9L30 10L31 10L31 9L32 9L32 10L33 10L33 9L32 9L32 8ZM25 10L25 11L26 11L26 10ZM0 12L0 13L1 13L1 15L0 15L0 16L1 16L1 17L0 17L0 20L1 20L1 22L0 22L0 23L2 23L2 22L3 22L3 23L4 23L4 22L5 22L5 21L4 21L4 22L3 22L3 20L2 20L2 17L3 17L3 16L4 16L4 15L3 15L3 14L4 14L4 13L3 13L3 12L2 12L2 13L1 13L1 12ZM10 12L10 13L11 13L11 12ZM2 13L2 14L3 14L3 13ZM7 13L7 14L9 14L9 13ZM22 13L22 14L23 14L23 13ZM29 14L29 15L30 15L30 14ZM31 15L31 16L32 16L32 15ZM12 16L12 17L13 17L13 16ZM36 17L36 20L35 20L35 21L34 21L34 23L35 23L35 21L36 21L36 20L38 20L38 18L37 18L37 17ZM29 18L29 19L30 19L30 18ZM6 19L6 20L7 20L7 21L8 21L8 20L7 20L7 19ZM31 19L31 20L32 20L32 21L31 21L31 22L32 22L32 25L31 25L31 24L29 24L29 25L30 25L30 26L29 26L29 27L30 27L30 28L29 28L29 29L28 29L28 26L27 26L27 25L26 25L26 24L25 24L25 25L22 25L22 24L21 24L21 23L20 23L20 24L19 24L19 25L20 25L20 24L21 24L21 27L23 27L23 28L22 28L22 29L25 29L25 30L23 30L23 34L22 34L22 35L23 35L23 34L24 34L24 36L25 36L25 34L24 34L24 33L26 33L26 34L27 34L27 35L26 35L26 36L27 36L27 37L26 37L26 38L27 38L27 37L28 37L28 36L29 36L29 35L28 35L28 34L27 34L27 33L26 33L26 32L27 32L27 31L28 31L28 30L30 30L30 28L31 28L31 30L33 30L33 29L34 29L34 28L35 28L35 27L34 27L34 26L35 26L35 25L36 25L36 24L35 24L35 25L34 25L34 24L33 24L33 20L32 20L32 19ZM19 20L19 21L20 21L20 20ZM14 21L14 22L16 22L16 23L17 23L17 21ZM0 24L0 26L5 26L5 25L2 25L2 24ZM10 24L10 25L11 25L11 24ZM14 25L14 26L15 26L15 25ZM32 25L32 26L30 26L30 27L32 27L32 26L34 26L34 25ZM23 26L23 27L24 27L24 26ZM1 27L1 28L0 28L0 33L1 33L1 28L2 28L2 27ZM25 27L25 28L26 28L26 27ZM33 27L33 28L32 28L32 29L33 29L33 28L34 28L34 27ZM5 28L5 29L6 29L6 30L7 30L7 31L5 31L5 30L4 30L4 31L5 31L5 32L7 32L7 31L8 31L8 29L6 29L6 28ZM19 29L19 31L22 31L22 30L21 30L21 29ZM26 29L26 30L25 30L25 31L24 31L24 32L26 32L26 30L28 30L28 29ZM9 32L9 33L10 33L10 32ZM33 33L33 36L36 36L36 33ZM16 34L16 36L17 36L17 35L18 35L18 34ZM34 34L34 35L35 35L35 34ZM12 37L12 38L11 38L11 40L12 40L12 38L14 38L14 39L13 39L13 40L14 40L14 39L18 39L18 38L17 38L17 37L15 37L15 38L14 38L14 37ZM34 37L34 38L35 38L35 37ZM36 37L36 38L37 38L37 37ZM38 37L38 38L39 38L39 37ZM23 38L23 39L24 39L24 38ZM31 38L31 39L32 39L32 38ZM9 39L9 40L10 40L10 39ZM38 39L38 40L39 40L39 39ZM0 0L0 7L7 7L7 0ZM1 1L1 6L6 6L6 1ZM2 2L2 5L5 5L5 2ZM34 0L34 7L41 7L41 0ZM35 1L35 6L40 6L40 1ZM36 2L36 5L39 5L39 2ZM0 34L0 41L7 41L7 34ZM1 35L1 40L6 40L6 35ZM2 36L2 39L5 39L5 36Z" fill="#000000"/></g></g></svg>
