<?xml version="1.0" encoding="UTF-8"?>
<svg xmlns="http://www.w3.org/2000/svg" version="1.1" width="300" height="300" viewBox="0 0 300 300"><rect x="0" y="0" width="300" height="300" fill="#ffffff"/><g transform="scale(8.108)"><g transform="translate(0,0)"><path fill-rule="evenodd" d="M8 0L8 1L9 1L9 2L10 2L10 3L9 3L9 4L8 4L8 7L9 7L9 8L10 8L10 7L11 7L11 8L12 8L12 9L13 9L13 10L12 10L12 11L13 11L13 12L15 12L15 13L16 13L16 12L15 12L15 11L16 11L16 10L17 10L17 9L18 9L18 10L19 10L19 11L20 11L20 10L21 10L21 13L19 13L19 12L18 12L18 11L17 11L17 14L19 14L19 16L18 16L18 18L17 18L17 17L16 17L16 16L15 16L15 15L14 15L14 14L13 14L13 13L12 13L12 12L11 12L11 9L10 9L10 10L8 10L8 11L7 11L7 10L4 10L4 9L8 9L8 8L1 8L1 10L0 10L0 12L2 12L2 13L1 13L1 14L0 14L0 16L1 16L1 17L0 17L0 29L1 29L1 24L2 24L2 25L3 25L3 23L1 23L1 22L4 22L4 24L6 24L6 25L7 25L7 26L6 26L6 27L7 27L7 26L8 26L8 28L5 28L5 29L8 29L8 36L11 36L11 37L14 37L14 36L12 36L12 35L14 35L14 34L15 34L15 35L16 35L16 34L15 34L15 33L16 33L16 32L17 32L17 33L18 33L18 34L19 34L19 33L18 33L18 31L16 31L16 30L18 30L18 29L15 29L15 28L16 28L16 27L18 27L18 28L19 28L19 27L18 27L18 25L16 25L16 24L17 24L17 23L16 23L16 21L17 21L17 20L18 20L18 19L19 19L19 25L20 25L20 27L21 27L21 25L20 25L20 24L22 24L22 23L23 23L23 22L22 22L22 21L21 21L21 20L23 20L23 19L21 19L21 18L23 18L23 17L22 17L22 16L24 16L24 15L25 15L25 13L26 13L26 12L27 12L27 14L26 14L26 15L29 15L29 16L27 16L27 17L29 17L29 19L28 19L28 18L27 18L27 19L26 19L26 20L27 20L27 21L26 21L26 22L27 22L27 23L26 23L26 24L27 24L27 25L22 25L22 27L23 27L23 28L20 28L20 31L19 31L19 32L20 32L20 33L21 33L21 34L20 34L20 35L21 35L21 36L20 36L20 37L22 37L22 36L23 36L23 37L25 37L25 36L26 36L26 37L28 37L28 36L29 36L29 37L32 37L32 36L34 36L34 37L37 37L37 34L36 34L36 36L34 36L34 35L32 35L32 34L33 34L33 32L34 32L34 33L36 33L36 32L37 32L37 30L36 30L36 29L37 29L37 26L35 26L35 25L36 25L36 24L34 24L34 23L32 23L32 22L30 22L30 21L33 21L33 22L34 22L34 21L36 21L36 22L35 22L35 23L36 23L36 22L37 22L37 18L35 18L35 19L36 19L36 20L34 20L34 17L37 17L37 14L36 14L36 13L37 13L37 12L35 12L35 14L33 14L33 16L32 16L32 14L31 14L31 15L30 15L30 14L28 14L28 11L29 11L29 13L33 13L33 12L34 12L34 11L33 11L33 10L34 10L34 9L33 9L33 8L31 8L31 9L30 9L30 11L29 11L29 10L28 10L28 9L29 9L29 8L26 8L26 7L27 7L27 6L28 6L28 7L29 7L29 6L28 6L28 5L26 5L26 4L29 4L29 0L28 0L28 1L26 1L26 0L25 0L25 1L22 1L22 0L21 0L21 1L20 1L20 3L18 3L18 5L17 5L17 6L16 6L16 7L17 7L17 8L16 8L16 9L15 9L15 8L14 8L14 7L15 7L15 6L14 6L14 7L13 7L13 6L12 6L12 5L11 5L11 6L10 6L10 5L9 5L9 4L13 4L13 5L16 5L16 4L15 4L15 3L17 3L17 2L19 2L19 0L16 0L16 1L13 1L13 2L10 2L10 0ZM11 0L11 1L12 1L12 0ZM16 1L16 2L17 2L17 1ZM24 2L24 3L25 3L25 4L22 4L22 3L20 3L20 4L19 4L19 5L22 5L22 6L21 6L21 7L20 7L20 6L19 6L19 7L20 7L20 8L19 8L19 10L20 10L20 9L22 9L22 11L23 11L23 12L22 12L22 13L23 13L23 12L24 12L24 13L25 13L25 12L26 12L26 11L27 11L27 9L26 9L26 8L25 8L25 7L26 7L26 6L25 6L25 7L24 7L24 6L23 6L23 5L25 5L25 4L26 4L26 3L27 3L27 2L26 2L26 3L25 3L25 2ZM9 6L9 7L10 7L10 6ZM11 6L11 7L12 7L12 6ZM17 6L17 7L18 7L18 6ZM22 6L22 7L21 7L21 8L22 8L22 9L23 9L23 10L24 10L24 12L25 12L25 11L26 11L26 10L25 10L25 9L24 9L24 7L23 7L23 6ZM22 7L22 8L23 8L23 7ZM13 8L13 9L14 9L14 8ZM36 8L36 9L35 9L35 10L36 10L36 11L37 11L37 10L36 10L36 9L37 9L37 8ZM1 10L1 11L2 11L2 10ZM13 10L13 11L15 11L15 10ZM31 10L31 11L32 11L32 10ZM4 11L4 12L3 12L3 14L1 14L1 15L2 15L2 18L1 18L1 19L3 19L3 20L4 20L4 22L5 22L5 21L6 21L6 22L7 22L7 21L6 21L6 20L7 20L7 19L6 19L6 20L4 20L4 19L3 19L3 16L4 16L4 18L5 18L5 16L7 16L7 17L6 17L6 18L8 18L8 16L7 16L7 15L6 15L6 14L7 14L7 13L8 13L8 15L10 15L10 13L11 13L11 14L12 14L12 13L11 13L11 12L10 12L10 11L8 11L8 12L7 12L7 11L6 11L6 12L5 12L5 11ZM4 12L4 13L5 13L5 14L4 14L4 15L5 15L5 14L6 14L6 13L7 13L7 12L6 12L6 13L5 13L5 12ZM8 12L8 13L10 13L10 12ZM20 14L20 16L19 16L19 18L20 18L20 16L21 16L21 14ZM22 14L22 15L24 15L24 14ZM35 14L35 15L34 15L34 16L33 16L33 17L32 17L32 16L31 16L31 17L30 17L30 16L29 16L29 17L30 17L30 18L31 18L31 19L30 19L30 20L28 20L28 21L27 21L27 22L28 22L28 21L30 21L30 20L33 20L33 21L34 21L34 20L33 20L33 19L32 19L32 18L33 18L33 17L34 17L34 16L36 16L36 14ZM11 15L11 16L10 16L10 17L9 17L9 18L10 18L10 17L11 17L11 19L10 19L10 20L11 20L11 21L14 21L14 18L12 18L12 17L11 17L11 16L12 16L12 15ZM13 15L13 17L15 17L15 16L14 16L14 15ZM25 16L25 17L24 17L24 18L25 18L25 17L26 17L26 16ZM15 18L15 20L16 20L16 19L17 19L17 18ZM11 19L11 20L13 20L13 19ZM24 19L24 20L25 20L25 19ZM1 20L1 21L2 21L2 20ZM8 20L8 21L9 21L9 20ZM20 21L20 22L21 22L21 23L22 23L22 22L21 22L21 21ZM24 21L24 22L25 22L25 21ZM13 22L13 23L11 23L11 25L13 25L13 26L12 26L12 27L9 27L9 28L8 28L8 29L9 29L9 28L10 28L10 29L11 29L11 28L12 28L12 29L13 29L13 30L11 30L11 31L10 31L10 30L9 30L9 31L10 31L10 32L9 32L9 33L10 33L10 32L12 32L12 33L13 33L13 34L14 34L14 33L15 33L15 32L16 32L16 31L14 31L14 28L12 28L12 27L13 27L13 26L14 26L14 27L15 27L15 22ZM29 22L29 23L30 23L30 22ZM6 23L6 24L7 24L7 25L8 25L8 26L10 26L10 24L9 24L9 23ZM24 23L24 24L25 24L25 23ZM27 23L27 24L28 24L28 25L30 25L30 24L28 24L28 23ZM31 23L31 24L32 24L32 25L31 25L31 26L32 26L32 27L29 27L29 26L27 26L27 28L26 28L26 26L23 26L23 27L25 27L25 28L26 28L26 29L27 29L27 31L28 31L28 27L29 27L29 28L34 28L34 29L33 29L33 31L34 31L34 32L35 32L35 31L36 31L36 30L35 30L35 28L34 28L34 27L33 27L33 26L34 26L34 24L32 24L32 23ZM13 24L13 25L14 25L14 24ZM4 25L4 26L2 26L2 27L3 27L3 28L4 28L4 27L5 27L5 25ZM23 28L23 29L21 29L21 31L20 31L20 32L23 32L23 33L22 33L22 35L23 35L23 34L25 34L25 33L24 33L24 30L25 30L25 32L26 32L26 33L27 33L27 34L28 34L28 35L26 35L26 36L28 36L28 35L29 35L29 36L31 36L31 34L32 34L32 33L31 33L31 34L30 34L30 33L27 33L27 32L26 32L26 30L25 30L25 29L24 29L24 28ZM23 29L23 30L22 30L22 31L23 31L23 30L24 30L24 29ZM29 29L29 32L32 32L32 29ZM30 30L30 31L31 31L31 30ZM12 31L12 32L13 32L13 33L14 33L14 31ZM11 34L11 35L12 35L12 34ZM29 34L29 35L30 35L30 34ZM17 35L17 36L16 36L16 37L18 37L18 35ZM24 35L24 36L25 36L25 35ZM0 0L0 7L7 7L7 0ZM1 1L1 6L6 6L6 1ZM2 2L2 5L5 5L5 2ZM30 0L30 7L37 7L37 0ZM31 1L31 6L36 6L36 1ZM32 2L32 5L35 5L35 2ZM0 30L0 37L7 37L7 30ZM1 31L1 36L6 36L6 31ZM2 32L2 35L5 35L5 32Z" fill="#000000"/></g></g></svg>
