<?xml version="1.0" encoding="UTF-8"?>
<svg xmlns="http://www.w3.org/2000/svg" version="1.1" width="300" height="300" viewBox="0 0 300 300"><rect x="0" y="0" width="300" height="300" fill="#ffffff"/><g transform="scale(8.108)"><g transform="translate(0,0)"><path fill-rule="evenodd" d="M11 0L11 1L9 1L9 2L8 2L8 3L9 3L9 4L8 4L8 7L9 7L9 5L10 5L10 4L11 4L11 3L10 3L10 2L11 2L11 1L12 1L12 0ZM14 0L14 1L13 1L13 3L12 3L12 5L11 5L11 6L10 6L10 9L9 9L9 8L8 8L8 10L6 10L6 11L5 11L5 8L4 8L4 10L0 10L0 13L1 13L1 11L2 11L2 12L4 12L4 13L5 13L5 15L4 15L4 14L0 14L0 15L4 15L4 16L3 16L3 18L5 18L5 19L4 19L4 22L5 22L5 23L7 23L7 24L6 24L6 25L4 25L4 24L3 24L3 25L2 25L2 23L3 23L3 20L2 20L2 16L0 16L0 18L1 18L1 20L2 20L2 23L1 23L1 24L0 24L0 26L2 26L2 27L3 27L3 28L0 28L0 29L8 29L8 30L9 30L9 28L6 28L6 27L8 27L8 25L9 25L9 26L10 26L10 27L12 27L12 28L10 28L10 29L14 29L14 27L12 27L12 25L13 25L13 24L11 24L11 23L10 23L10 21L9 21L9 22L5 22L5 21L7 21L7 20L11 20L11 19L13 19L13 20L12 20L12 23L13 23L13 21L14 21L14 22L15 22L15 23L16 23L16 24L17 24L17 25L16 25L16 26L15 26L15 24L14 24L14 26L15 26L15 29L16 29L16 28L17 28L17 27L18 27L18 29L17 29L17 30L16 30L16 31L15 31L15 35L14 35L14 34L13 34L13 33L12 33L12 31L9 31L9 32L8 32L8 33L10 33L10 34L9 34L9 35L8 35L8 36L9 36L9 37L12 37L12 36L13 36L13 37L16 37L16 36L18 36L18 35L17 35L17 34L20 34L20 35L21 35L21 36L22 36L22 35L23 35L23 34L21 34L21 33L18 33L18 32L21 32L21 30L22 30L22 29L23 29L23 31L22 31L22 33L23 33L23 31L24 31L24 30L25 30L25 29L23 29L23 28L25 28L25 27L24 27L24 25L27 25L27 24L28 24L28 23L30 23L30 21L31 21L31 22L32 22L32 23L34 23L34 25L33 25L33 24L32 24L32 25L31 25L31 24L30 24L30 25L28 25L28 27L29 27L29 28L27 28L27 26L26 26L26 29L28 29L28 33L26 33L26 34L25 34L25 35L24 35L24 36L23 36L23 37L26 37L26 35L27 35L27 37L28 37L28 35L29 35L29 36L30 36L30 37L37 37L37 36L36 36L36 34L34 34L34 33L36 33L36 32L35 32L35 31L36 31L36 29L34 29L34 30L33 30L33 28L31 28L31 27L32 27L32 26L33 26L33 27L34 27L34 26L35 26L35 28L36 28L36 24L37 24L37 20L36 20L36 17L37 17L37 16L36 16L36 13L37 13L37 11L35 11L35 10L34 10L34 11L33 11L33 10L32 10L32 11L31 11L31 12L29 12L29 11L28 11L28 10L27 10L27 9L26 9L26 7L27 7L27 8L28 8L28 9L30 9L30 10L31 10L31 9L33 9L33 8L31 8L31 9L30 9L30 8L28 8L28 7L29 7L29 6L28 6L28 7L27 7L27 6L26 6L26 7L25 7L25 5L23 5L23 2L24 2L24 3L26 3L26 5L29 5L29 0L26 0L26 1L28 1L28 3L26 3L26 2L25 2L25 1L22 1L22 2L20 2L20 1L21 1L21 0ZM14 1L14 2L15 2L15 3L17 3L17 4L16 4L16 6L15 6L15 7L14 7L14 6L13 6L13 5L14 5L14 4L13 4L13 5L12 5L12 6L11 6L11 8L12 8L12 9L10 9L10 10L11 10L11 13L10 13L10 12L9 12L9 11L6 11L6 12L5 12L5 11L4 11L4 12L5 12L5 13L6 13L6 14L8 14L8 18L9 18L9 17L11 17L11 18L12 18L12 16L11 16L11 15L13 15L13 14L12 14L12 9L13 9L13 8L12 8L12 6L13 6L13 7L14 7L14 11L13 11L13 13L14 13L14 12L15 12L15 13L16 13L16 14L14 14L14 15L17 15L17 12L16 12L16 11L15 11L15 10L16 10L16 9L15 9L15 8L17 8L17 11L18 11L18 12L19 12L19 13L18 13L18 14L19 14L19 13L20 13L20 12L21 12L21 14L20 14L20 18L22 18L22 17L23 17L23 18L24 18L24 17L26 17L26 16L27 16L27 17L30 17L30 20L28 20L28 19L27 19L27 18L25 18L25 19L24 19L24 20L23 20L23 19L22 19L22 21L21 21L21 20L19 20L19 18L18 18L18 16L17 16L17 17L16 17L16 16L15 16L15 17L16 17L16 18L14 18L14 21L15 21L15 22L19 22L19 23L17 23L17 24L19 24L19 23L20 23L20 24L21 24L21 23L23 23L23 22L24 22L24 21L25 21L25 20L26 20L26 19L27 19L27 21L26 21L26 22L25 22L25 23L24 23L24 24L22 24L22 25L24 25L24 24L26 24L26 23L27 23L27 21L30 21L30 20L31 20L31 21L33 21L33 20L32 20L32 19L35 19L35 17L34 17L34 18L31 18L31 17L30 17L30 16L31 16L31 15L30 15L30 14L31 14L31 13L33 13L33 14L32 14L32 17L33 17L33 14L34 14L34 15L35 15L35 13L36 13L36 12L34 12L34 13L33 13L33 12L31 12L31 13L29 13L29 12L27 12L27 14L26 14L26 15L22 15L22 16L21 16L21 14L22 14L22 13L24 13L24 14L25 14L25 13L26 13L26 11L27 11L27 10L26 10L26 11L24 11L24 12L23 12L23 11L22 11L22 12L21 12L21 11L20 11L20 10L22 10L22 9L23 9L23 8L24 8L24 6L23 6L23 8L22 8L22 9L19 9L19 7L20 7L20 8L21 8L21 7L22 7L22 6L21 6L21 7L20 7L20 5L19 5L19 3L20 3L20 4L21 4L21 5L22 5L22 3L20 3L20 2L19 2L19 1L16 1L16 2L15 2L15 1ZM18 2L18 3L19 3L19 2ZM17 4L17 6L16 6L16 7L17 7L17 8L18 8L18 7L19 7L19 6L18 6L18 4ZM17 6L17 7L18 7L18 6ZM1 8L1 9L2 9L2 8ZM6 8L6 9L7 9L7 8ZM34 8L34 9L35 9L35 8ZM18 9L18 10L19 10L19 9ZM24 9L24 10L25 10L25 9ZM6 12L6 13L7 13L7 12ZM24 12L24 13L25 13L25 12ZM8 13L8 14L10 14L10 13ZM27 14L27 16L29 16L29 15L28 15L28 14ZM6 15L6 16L7 16L7 15ZM9 15L9 16L10 16L10 15ZM4 16L4 17L5 17L5 16ZM6 17L6 18L7 18L7 17ZM17 18L17 19L15 19L15 20L16 20L16 21L18 21L18 18ZM5 19L5 20L7 20L7 19ZM0 21L0 22L1 22L1 21ZM20 21L20 23L21 23L21 21ZM34 21L34 23L36 23L36 21ZM8 23L8 24L10 24L10 23ZM6 25L6 26L7 26L7 25ZM18 25L18 26L20 26L20 25ZM16 26L16 27L17 27L17 26ZM21 26L21 28L20 28L20 27L19 27L19 29L22 29L22 27L23 27L23 26ZM30 26L30 27L31 27L31 26ZM4 27L4 28L5 28L5 27ZM29 29L29 32L32 32L32 29ZM13 30L13 32L14 32L14 30ZM19 30L19 31L20 31L20 30ZM26 30L26 32L27 32L27 30ZM30 30L30 31L31 31L31 30ZM17 31L17 32L16 32L16 33L17 33L17 32L18 32L18 31ZM24 32L24 33L25 33L25 32ZM31 33L31 35L32 35L32 36L33 36L33 33ZM12 34L12 35L11 35L11 36L12 36L12 35L13 35L13 34ZM9 35L9 36L10 36L10 35ZM19 36L19 37L20 37L20 36ZM0 0L0 7L7 7L7 0ZM1 1L1 6L6 6L6 1ZM2 2L2 5L5 5L5 2ZM30 0L30 7L37 7L37 0ZM31 1L31 6L36 6L36 1ZM32 2L32 5L35 5L35 2ZM0 30L0 37L7 37L7 30ZM1 31L1 36L6 36L6 31ZM2 32L2 35L5 35L5 32Z" fill="#000000"/></g></g></svg>
