<?xml version="1.0" encoding="UTF-8"?>
<svg xmlns="http://www.w3.org/2000/svg" version="1.1" width="300" height="300" viewBox="0 0 300 300"><rect x="0" y="0" width="300" height="300" fill="#ffffff"/><g transform="scale(8.108)"><g transform="translate(0,0)"><path fill-rule="evenodd" d="M8 0L8 1L9 1L9 2L8 2L8 4L9 4L9 5L8 5L8 8L5 8L5 9L4 9L4 8L3 8L3 9L2 9L2 8L1 8L1 9L2 9L2 10L4 10L4 11L3 11L3 12L4 12L4 13L3 13L3 14L2 14L2 11L1 11L1 10L0 10L0 11L1 11L1 12L0 12L0 15L1 15L1 17L2 17L2 18L1 18L1 19L0 19L0 21L1 21L1 20L5 20L5 19L7 19L7 20L6 20L6 21L5 21L5 22L4 22L4 21L2 21L2 22L0 22L0 23L3 23L3 24L2 24L2 25L4 25L4 26L5 26L5 27L3 27L3 26L2 26L2 27L1 27L1 26L0 26L0 27L1 27L1 28L0 28L0 29L3 29L3 28L4 28L4 29L5 29L5 27L7 27L7 26L8 26L8 25L9 25L9 27L8 27L8 32L9 32L9 33L8 33L8 34L9 34L9 35L8 35L8 36L9 36L9 37L10 37L10 36L11 36L11 37L12 37L12 36L13 36L13 34L12 34L12 35L11 35L11 33L12 33L12 32L13 32L13 33L14 33L14 34L16 34L16 33L17 33L17 30L19 30L19 31L18 31L18 32L20 32L20 33L19 33L19 34L17 34L17 35L15 35L15 36L17 36L17 35L18 35L18 37L19 37L19 36L22 36L22 37L25 37L25 33L27 33L27 35L26 35L26 36L27 36L27 37L31 37L31 36L29 36L29 35L30 35L30 33L32 33L32 34L31 34L31 35L33 35L33 36L32 36L32 37L34 37L34 35L35 35L35 34L36 34L36 35L37 35L37 33L35 33L35 34L34 34L34 33L33 33L33 28L32 28L32 26L28 26L28 25L29 25L29 24L30 24L30 25L33 25L33 23L32 23L32 21L33 21L33 22L35 22L35 23L36 23L36 24L35 24L35 26L36 26L36 27L37 27L37 25L36 25L36 24L37 24L37 23L36 23L36 21L37 21L37 20L36 20L36 19L37 19L37 16L36 16L36 15L37 15L37 8L36 8L36 13L35 13L35 12L34 12L34 9L35 9L35 8L33 8L33 9L32 9L32 8L29 8L29 6L28 6L28 5L29 5L29 4L28 4L28 2L29 2L29 0L27 0L27 1L26 1L26 0L25 0L25 4L26 4L26 5L27 5L27 6L26 6L26 7L25 7L25 6L24 6L24 5L22 5L22 7L21 7L21 4L20 4L20 5L19 5L19 3L18 3L18 4L17 4L17 3L16 3L16 2L17 2L17 1L18 1L18 2L19 2L19 0L16 0L16 1L14 1L14 2L13 2L13 1L12 1L12 0ZM20 0L20 3L21 3L21 0ZM22 0L22 2L23 2L23 0ZM9 2L9 3L10 3L10 6L9 6L9 7L10 7L10 6L11 6L11 10L12 10L12 11L9 11L9 10L10 10L10 8L9 8L9 9L5 9L5 10L7 10L7 11L5 11L5 12L7 12L7 13L6 13L6 14L7 14L7 13L8 13L8 14L10 14L10 15L11 15L11 14L10 14L10 13L8 13L8 11L9 11L9 12L11 12L11 13L12 13L12 14L13 14L13 15L14 15L14 16L13 16L13 17L11 17L11 16L7 16L7 15L6 15L6 16L7 16L7 17L6 17L6 18L7 18L7 17L8 17L8 19L9 19L9 20L10 20L10 22L8 22L8 21L6 21L6 22L8 22L8 23L6 23L6 24L7 24L7 25L6 25L6 26L7 26L7 25L8 25L8 23L9 23L9 25L11 25L11 24L10 24L10 23L12 23L12 25L13 25L13 26L15 26L15 27L9 27L9 28L11 28L11 29L10 29L10 31L11 31L11 32L10 32L10 33L9 33L9 34L10 34L10 33L11 33L11 32L12 32L12 31L14 31L14 32L15 32L15 33L16 33L16 32L15 32L15 31L16 31L16 29L15 29L15 27L16 27L16 28L17 28L17 29L19 29L19 30L20 30L20 32L21 32L21 33L20 33L20 35L23 35L23 32L26 32L26 31L27 31L27 33L28 33L28 31L27 31L27 30L26 30L26 29L27 29L27 28L28 28L28 27L27 27L27 28L25 28L25 30L23 30L23 29L24 29L24 27L23 27L23 26L25 26L25 27L26 27L26 26L25 26L25 25L26 25L26 24L27 24L27 25L28 25L28 24L27 24L27 23L28 23L28 22L29 22L29 23L30 23L30 24L31 24L31 23L30 23L30 22L29 22L29 21L30 21L30 20L31 20L31 19L30 19L30 17L28 17L28 16L31 16L31 14L33 14L33 15L32 15L32 17L34 17L34 18L35 18L35 19L36 19L36 18L35 18L35 17L34 17L34 16L35 16L35 15L36 15L36 14L35 14L35 13L34 13L34 14L33 14L33 10L32 10L32 9L30 9L30 10L29 10L29 8L27 8L27 7L28 7L28 6L27 6L27 7L26 7L26 8L24 8L24 6L23 6L23 7L22 7L22 10L21 10L21 9L18 9L18 8L21 8L21 7L20 7L20 6L19 6L19 7L18 7L18 5L17 5L17 4L16 4L16 5L15 5L15 4L14 4L14 3L12 3L12 2L11 2L11 3L10 3L10 2ZM26 2L26 3L27 3L27 2ZM22 3L22 4L23 4L23 3ZM11 5L11 6L12 6L12 8L14 8L14 10L13 10L13 9L12 9L12 10L13 10L13 11L12 11L12 13L13 13L13 14L14 14L14 11L15 11L15 10L17 10L17 11L18 11L18 9L16 9L16 8L14 8L14 7L15 7L15 5ZM16 5L16 7L17 7L17 8L18 8L18 7L17 7L17 5ZM13 6L13 7L14 7L14 6ZM26 8L26 9L25 9L25 10L26 10L26 11L25 11L25 13L27 13L27 14L31 14L31 13L32 13L32 12L28 12L28 11L29 11L29 10L28 10L28 9L27 9L27 8ZM26 9L26 10L27 10L27 11L28 11L28 10L27 10L27 9ZM19 10L19 11L21 11L21 12L19 12L19 13L18 13L18 12L16 12L16 13L15 13L15 15L17 15L17 16L18 16L18 17L19 17L19 18L18 18L18 20L19 20L19 21L17 21L17 22L18 22L18 23L17 23L17 24L15 24L15 22L16 22L16 21L14 21L14 20L15 20L15 19L14 19L14 18L16 18L16 16L14 16L14 18L13 18L13 19L14 19L14 20L13 20L13 21L12 21L12 20L11 20L11 21L12 21L12 23L13 23L13 25L15 25L15 26L16 26L16 25L17 25L17 28L18 28L18 26L19 26L19 28L20 28L20 30L21 30L21 31L22 31L22 32L23 32L23 31L22 31L22 30L21 30L21 27L22 27L22 26L21 26L21 25L23 25L23 24L22 24L22 23L23 23L23 22L24 22L24 19L20 19L20 17L19 17L19 16L23 16L23 15L24 15L24 16L26 16L26 17L25 17L25 18L26 18L26 20L27 20L27 16L28 16L28 15L27 15L27 16L26 16L26 14L22 14L22 13L23 13L23 12L24 12L24 11L21 11L21 10ZM30 10L30 11L32 11L32 10ZM21 12L21 13L22 13L22 12ZM27 12L27 13L28 13L28 12ZM16 13L16 14L18 14L18 15L20 15L20 14L18 14L18 13ZM3 14L3 15L2 15L2 17L3 17L3 18L2 18L2 19L5 19L5 14ZM21 14L21 15L22 15L22 14ZM34 14L34 15L35 15L35 14ZM3 15L3 17L4 17L4 15ZM9 17L9 18L11 18L11 17ZM21 17L21 18L23 18L23 17ZM32 18L32 20L33 20L33 18ZM16 19L16 20L17 20L17 19ZM28 19L28 20L29 20L29 19ZM20 20L20 21L19 21L19 22L20 22L20 21L21 21L21 20ZM34 20L34 21L36 21L36 20ZM13 21L13 22L14 22L14 21ZM22 21L22 22L21 22L21 23L20 23L20 24L19 24L19 23L18 23L18 24L19 24L19 25L20 25L20 24L21 24L21 23L22 23L22 22L23 22L23 21ZM25 21L25 24L26 24L26 23L27 23L27 21ZM3 22L3 23L4 23L4 22ZM0 24L0 25L1 25L1 24ZM4 24L4 25L5 25L5 24ZM20 26L20 27L21 27L21 26ZM2 27L2 28L3 28L3 27ZM34 27L34 28L35 28L35 30L34 30L34 32L35 32L35 30L36 30L36 31L37 31L37 28L35 28L35 27ZM6 28L6 29L7 29L7 28ZM13 28L13 30L14 30L14 31L15 31L15 30L14 30L14 28ZM22 28L22 29L23 29L23 28ZM29 29L29 32L32 32L32 29ZM30 30L30 31L31 31L31 30ZM21 33L21 34L22 34L22 33ZM28 34L28 35L29 35L29 34ZM33 34L33 35L34 35L34 34ZM9 35L9 36L10 36L10 35ZM35 36L35 37L37 37L37 36ZM0 0L0 7L7 7L7 0ZM1 1L1 6L6 6L6 1ZM2 2L2 5L5 5L5 2ZM30 0L30 7L37 7L37 0ZM31 1L31 6L36 6L36 1ZM32 2L32 5L35 5L35 2ZM0 30L0 37L7 37L7 30ZM1 31L1 36L6 36L6 31ZM2 32L2 35L5 35L5 32Z" fill="#000000"/></g></g></svg>
