<?xml version="1.0" encoding="UTF-8"?>
<svg xmlns="http://www.w3.org/2000/svg" version="1.1" width="300" height="300" viewBox="0 0 300 300"><rect x="0" y="0" width="300" height="300" fill="#ffffff"/><g transform="scale(8.108)"><g transform="translate(0,0)"><path fill-rule="evenodd" d="M8 0L8 1L9 1L9 3L10 3L10 4L11 4L11 6L10 6L10 5L9 5L9 4L8 4L8 7L9 7L9 8L10 8L10 7L11 7L11 9L12 9L12 7L13 7L13 8L14 8L14 9L13 9L13 11L16 11L16 10L17 10L17 6L18 6L18 7L19 7L19 8L18 8L18 9L19 9L19 8L20 8L20 10L18 10L18 12L17 12L17 13L16 13L16 12L15 12L15 13L13 13L13 14L10 14L10 15L9 15L9 16L8 16L8 14L9 14L9 13L8 13L8 12L6 12L6 11L7 11L7 10L6 10L6 9L8 9L8 10L9 10L9 12L10 12L10 11L12 11L12 10L10 10L10 9L8 9L8 8L1 8L1 9L0 9L0 13L1 13L1 15L3 15L3 17L2 17L2 16L0 16L0 18L1 18L1 19L2 19L2 20L3 20L3 19L2 19L2 18L3 18L3 17L4 17L4 19L5 19L5 20L4 20L4 21L3 21L3 22L2 22L2 23L1 23L1 21L0 21L0 29L1 29L1 24L2 24L2 25L3 25L3 24L4 24L4 26L2 26L2 27L3 27L3 28L6 28L6 29L8 29L8 36L9 36L9 37L10 37L10 36L11 36L11 37L13 37L13 36L12 36L12 35L14 35L14 37L15 37L15 35L16 35L16 37L18 37L18 36L19 36L19 35L18 35L18 34L19 34L19 33L21 33L21 34L20 34L20 35L21 35L21 36L20 36L20 37L22 37L22 36L23 36L23 37L25 37L25 36L26 36L26 37L28 37L28 36L29 36L29 37L31 37L31 36L29 36L29 35L30 35L30 34L31 34L31 35L32 35L32 34L35 34L35 33L36 33L36 32L37 32L37 30L36 30L36 29L35 29L35 30L36 30L36 31L35 31L35 32L34 32L34 30L33 30L33 29L34 29L34 28L37 28L37 26L36 26L36 24L34 24L34 23L36 23L36 22L37 22L37 18L36 18L36 17L37 17L37 14L36 14L36 13L37 13L37 10L36 10L36 9L37 9L37 8L36 8L36 9L35 9L35 10L36 10L36 13L35 13L35 14L36 14L36 16L32 16L32 17L35 17L35 18L32 18L32 19L30 19L30 21L29 21L29 18L30 18L30 17L31 17L31 15L32 15L32 14L31 14L31 15L30 15L30 13L33 13L33 12L34 12L34 11L33 11L33 10L34 10L34 9L33 9L33 8L31 8L31 9L30 9L30 10L28 10L28 9L29 9L29 8L26 8L26 7L27 7L27 6L28 6L28 7L29 7L29 5L26 5L26 4L29 4L29 3L26 3L26 2L29 2L29 1L27 1L27 0L25 0L25 1L22 1L22 0L21 0L21 1L20 1L20 3L19 3L19 2L18 2L18 1L19 1L19 0L18 0L18 1L17 1L17 0L16 0L16 1L15 1L15 4L16 4L16 5L15 5L15 6L14 6L14 7L13 7L13 5L14 5L14 4L13 4L13 2L14 2L14 1L13 1L13 2L11 2L11 1L12 1L12 0L11 0L11 1L9 1L9 0ZM10 2L10 3L11 3L11 2ZM17 2L17 3L18 3L18 4L17 4L17 5L18 5L18 6L19 6L19 7L20 7L20 8L21 8L21 9L22 9L22 11L23 11L23 12L22 12L22 13L25 13L25 14L22 14L22 15L25 15L25 16L22 16L22 17L23 17L23 18L21 18L21 19L23 19L23 20L21 20L21 21L22 21L22 22L20 22L20 21L19 21L19 18L20 18L20 17L19 17L19 18L18 18L18 16L19 16L19 14L21 14L21 10L20 10L20 11L19 11L19 12L18 12L18 14L17 14L17 15L16 15L16 14L15 14L15 15L16 15L16 17L17 17L17 18L15 18L15 22L12 22L12 20L11 20L11 19L13 19L13 18L12 18L12 16L14 16L14 17L15 17L15 16L14 16L14 15L12 15L12 16L10 16L10 17L11 17L11 18L9 18L9 19L10 19L10 21L11 21L11 22L8 22L8 21L6 21L6 20L7 20L7 19L6 19L6 18L8 18L8 16L7 16L7 15L6 15L6 14L7 14L7 13L6 13L6 14L5 14L5 11L6 11L6 10L5 10L5 9L4 9L4 12L3 12L3 13L2 13L2 14L3 14L3 15L4 15L4 17L5 17L5 16L7 16L7 17L6 17L6 18L5 18L5 19L6 19L6 20L5 20L5 21L4 21L4 22L3 22L3 23L4 23L4 24L5 24L5 25L6 25L6 26L5 26L5 27L6 27L6 28L8 28L8 27L9 27L9 23L10 23L10 27L13 27L13 26L14 26L14 29L15 29L15 30L13 30L13 31L12 31L12 30L11 30L11 28L9 28L9 29L10 29L10 30L9 30L9 31L10 31L10 32L9 32L9 36L10 36L10 35L12 35L12 34L10 34L10 32L11 32L11 31L12 31L12 33L13 33L13 34L14 34L14 33L15 33L15 34L17 34L17 32L16 32L16 31L15 31L15 30L16 30L16 29L17 29L17 28L18 28L18 26L19 26L19 27L20 27L20 28L19 28L19 29L20 29L20 30L17 30L17 31L18 31L18 33L19 33L19 32L20 32L20 30L21 30L21 32L23 32L23 33L22 33L22 35L23 35L23 34L25 34L25 33L24 33L24 32L23 32L23 31L25 31L25 32L26 32L26 30L27 30L27 31L28 31L28 27L29 27L29 28L30 28L30 27L29 27L29 26L27 26L27 29L26 29L26 30L25 30L25 29L24 29L24 28L26 28L26 26L25 26L25 27L24 27L24 26L23 26L23 27L22 27L22 25L27 25L27 24L28 24L28 25L30 25L30 24L28 24L28 23L30 23L30 22L32 22L32 23L31 23L31 24L32 24L32 25L31 25L31 26L32 26L32 27L31 27L31 28L34 28L34 27L33 27L33 26L34 26L34 24L32 24L32 23L33 23L33 22L36 22L36 21L34 21L34 20L36 20L36 18L35 18L35 19L34 19L34 20L33 20L33 19L32 19L32 20L33 20L33 21L30 21L30 22L29 22L29 21L27 21L27 20L28 20L28 19L27 19L27 18L28 18L28 17L30 17L30 16L28 16L28 17L27 17L27 12L26 12L26 11L27 11L27 9L26 9L26 8L25 8L25 7L26 7L26 6L25 6L25 7L24 7L24 6L23 6L23 7L22 7L22 5L21 5L21 7L20 7L20 4L19 4L19 3L18 3L18 2ZM22 2L22 3L21 3L21 4L23 4L23 5L25 5L25 4L26 4L26 3L25 3L25 2L24 2L24 3L25 3L25 4L23 4L23 2ZM9 6L9 7L10 7L10 6ZM11 6L11 7L12 7L12 6ZM15 6L15 7L14 7L14 8L15 8L15 9L16 9L16 8L15 8L15 7L16 7L16 6ZM21 7L21 8L22 8L22 9L23 9L23 10L24 10L24 9L25 9L25 8L24 8L24 7L23 7L23 8L22 8L22 7ZM1 10L1 11L2 11L2 10ZM25 10L25 11L26 11L26 10ZM31 10L31 11L32 11L32 10ZM28 11L28 15L29 15L29 13L30 13L30 11ZM11 12L11 13L12 13L12 12ZM25 12L25 13L26 13L26 12ZM3 13L3 14L4 14L4 15L5 15L5 14L4 14L4 13ZM25 14L25 15L26 15L26 14ZM33 14L33 15L34 15L34 14ZM20 15L20 16L21 16L21 15ZM25 16L25 17L24 17L24 18L25 18L25 17L26 17L26 16ZM24 19L24 20L25 20L25 19ZM26 19L26 20L27 20L27 19ZM13 20L13 21L14 21L14 20ZM16 20L16 23L15 23L15 28L16 28L16 27L17 27L17 26L18 26L18 25L19 25L19 26L20 26L20 27L21 27L21 24L22 24L22 23L23 23L23 22L22 22L22 23L21 23L21 24L18 24L18 25L16 25L16 23L18 23L18 22L19 22L19 21L18 21L18 20ZM24 21L24 22L25 22L25 21ZM26 21L26 22L27 22L27 23L26 23L26 24L27 24L27 23L28 23L28 22L27 22L27 21ZM4 22L4 23L5 23L5 22ZM6 22L6 23L7 23L7 24L6 24L6 25L7 25L7 24L8 24L8 22ZM11 22L11 23L12 23L12 25L11 25L11 26L12 26L12 25L14 25L14 24L13 24L13 23L12 23L12 22ZM24 23L24 24L25 24L25 23ZM6 26L6 27L8 27L8 26ZM35 26L35 27L36 27L36 26ZM21 28L21 29L23 29L23 30L22 30L22 31L23 31L23 30L24 30L24 29L23 29L23 28ZM29 29L29 32L32 32L32 29ZM10 30L10 31L11 31L11 30ZM30 30L30 31L31 31L31 30ZM13 31L13 33L14 33L14 32L15 32L15 31ZM33 32L33 33L34 33L34 32ZM26 33L26 34L27 34L27 33ZM28 33L28 35L26 35L26 36L28 36L28 35L29 35L29 34L30 34L30 33ZM31 33L31 34L32 34L32 33ZM36 34L36 36L33 36L33 37L37 37L37 34ZM24 35L24 36L25 36L25 35ZM0 0L0 7L7 7L7 0ZM1 1L1 6L6 6L6 1ZM2 2L2 5L5 5L5 2ZM30 0L30 7L37 7L37 0ZM31 1L31 6L36 6L36 1ZM32 2L32 5L35 5L35 2ZM0 30L0 37L7 37L7 30ZM1 31L1 36L6 36L6 31ZM2 32L2 35L5 35L5 32Z" fill="#000000"/></g></g></svg>
