<?xml version="1.0" encoding="UTF-8"?>
<svg xmlns="http://www.w3.org/2000/svg" version="1.1" width="300" height="300" viewBox="0 0 300 300"><rect x="0" y="0" width="300" height="300" fill="#ffffff"/><g transform="scale(6.122)"><g transform="translate(0,0)"><path fill-rule="evenodd" d="M9 0L9 1L8 1L8 2L9 2L9 3L8 3L8 5L11 5L11 4L12 4L12 5L13 5L13 4L14 4L14 5L16 5L16 8L15 8L15 6L14 6L14 7L13 7L13 6L12 6L12 7L13 7L13 8L11 8L11 6L10 6L10 8L11 8L11 9L9 9L9 6L8 6L8 9L9 9L9 11L10 11L10 13L7 13L7 12L8 12L8 10L6 10L6 9L7 9L7 8L3 8L3 10L2 10L2 8L1 8L1 9L0 9L0 10L2 10L2 11L1 11L1 12L0 12L0 16L2 16L2 17L3 17L3 18L4 18L4 19L5 19L5 18L6 18L6 19L7 19L7 18L8 18L8 17L9 17L9 20L8 20L8 21L7 21L7 20L6 20L6 21L7 21L7 22L5 22L5 20L3 20L3 19L0 19L0 20L3 20L3 21L2 21L2 23L1 23L1 21L0 21L0 26L1 26L1 27L0 27L0 30L1 30L1 29L2 29L2 31L3 31L3 32L2 32L2 33L1 33L1 31L0 31L0 38L1 38L1 40L0 40L0 41L3 41L3 40L4 40L4 39L2 39L2 38L3 38L3 37L4 37L4 38L5 38L5 39L7 39L7 40L6 40L6 41L8 41L8 42L9 42L9 41L10 41L10 42L11 42L11 41L12 41L12 42L14 42L14 43L8 43L8 46L9 46L9 47L8 47L8 48L9 48L9 49L11 49L11 48L13 48L13 49L16 49L16 47L14 47L14 48L13 48L13 46L14 46L14 45L13 45L13 46L12 46L12 47L11 47L11 48L9 48L9 47L10 47L10 46L11 46L11 45L12 45L12 44L15 44L15 46L16 46L16 44L18 44L18 45L17 45L17 46L20 46L20 48L19 48L19 49L20 49L20 48L21 48L21 47L22 47L22 49L29 49L29 48L26 48L26 47L28 47L28 45L29 45L29 47L30 47L30 46L31 46L31 47L32 47L32 49L35 49L35 48L36 48L36 49L37 49L37 48L38 48L38 49L42 49L42 48L43 48L43 49L46 49L46 48L48 48L48 49L49 49L49 45L48 45L48 44L47 44L47 46L48 46L48 47L46 47L46 45L45 45L45 44L46 44L46 43L47 43L47 42L48 42L48 43L49 43L49 42L48 42L48 41L46 41L46 38L47 38L47 39L49 39L49 38L47 38L47 37L49 37L49 34L48 34L48 36L47 36L47 33L49 33L49 32L47 32L47 33L45 33L45 30L46 30L46 29L47 29L47 30L48 30L48 31L49 31L49 30L48 30L48 29L49 29L49 26L48 26L48 24L47 24L47 23L46 23L46 21L44 21L44 22L43 22L43 18L45 18L45 20L46 20L46 19L47 19L47 20L48 20L48 21L49 21L49 18L48 18L48 17L47 17L47 18L45 18L45 17L46 17L46 16L47 16L47 15L49 15L49 14L47 14L47 15L46 15L46 14L44 14L44 15L43 15L43 18L41 18L41 19L40 19L40 16L39 16L39 15L40 15L40 14L39 14L39 13L40 13L40 12L41 12L41 14L43 14L43 12L42 12L42 10L44 10L44 13L45 13L45 11L46 11L46 12L48 12L48 11L49 11L49 10L47 10L47 9L48 9L48 8L47 8L47 9L46 9L46 8L44 8L44 9L43 9L43 8L41 8L41 9L40 9L40 7L41 7L41 6L40 6L40 7L39 7L39 5L38 5L38 2L39 2L39 4L40 4L40 3L41 3L41 0L40 0L40 1L37 1L37 0L36 0L36 1L35 1L35 0L34 0L34 2L37 2L37 3L35 3L35 6L34 6L34 7L33 7L33 6L32 6L32 7L31 7L31 6L30 6L30 8L32 8L32 9L33 9L33 8L34 8L34 11L35 11L35 9L36 9L36 8L39 8L39 9L38 9L38 10L37 10L37 11L38 11L38 13L37 13L37 12L34 12L34 13L35 13L35 15L34 15L34 16L35 16L35 17L34 17L34 19L37 19L37 18L35 18L35 17L39 17L39 18L38 18L38 19L39 19L39 20L38 20L38 22L39 22L39 20L41 20L41 19L42 19L42 21L40 21L40 24L38 24L38 23L37 23L37 20L36 20L36 21L35 21L35 20L34 20L34 21L33 21L33 22L31 22L31 21L32 21L32 19L33 19L33 16L32 16L32 15L30 15L30 17L29 17L29 16L28 16L28 15L29 15L29 14L32 14L32 13L33 13L33 11L32 11L32 10L31 10L31 9L30 9L30 10L28 10L28 9L29 9L29 5L27 5L27 4L26 4L26 2L24 2L24 0L22 0L22 1L23 1L23 3L25 3L25 4L22 4L22 7L21 7L21 4L20 4L20 3L22 3L22 2L20 2L20 1L21 1L21 0L18 0L18 1L19 1L19 2L18 2L18 3L19 3L19 4L20 4L20 7L19 7L19 6L18 6L18 4L15 4L15 3L17 3L17 2L15 2L15 3L13 3L13 2L12 2L12 1L13 1L13 0L12 0L12 1L10 1L10 0ZM26 0L26 1L27 1L27 0ZM30 0L30 1L33 1L33 0ZM10 2L10 3L9 3L9 4L10 4L10 3L12 3L12 4L13 4L13 3L12 3L12 2ZM19 2L19 3L20 3L20 2ZM27 2L27 3L28 3L28 4L30 4L30 5L33 5L33 2L31 2L31 3L32 3L32 4L30 4L30 2ZM36 4L36 6L35 6L35 8L36 8L36 6L37 6L37 7L38 7L38 6L37 6L37 4ZM23 5L23 8L26 8L26 5ZM17 6L17 7L18 7L18 6ZM24 6L24 7L25 7L25 6ZM27 6L27 7L28 7L28 6ZM20 7L20 8L19 8L19 9L21 9L21 10L17 10L17 9L18 9L18 8L16 8L16 11L19 11L19 12L17 12L17 14L16 14L16 12L15 12L15 14L14 14L14 12L13 12L13 15L12 15L12 14L11 14L11 15L9 15L9 16L11 16L11 17L12 17L12 16L14 16L14 17L13 17L13 19L15 19L15 20L14 20L14 21L13 21L13 20L12 20L12 18L11 18L11 20L12 20L12 21L13 21L13 22L10 22L10 23L9 23L9 24L10 24L10 26L9 26L9 27L6 27L6 28L5 28L5 29L4 29L4 30L3 30L3 31L4 31L4 33L3 33L3 34L2 34L2 35L1 35L1 37L2 37L2 36L4 36L4 35L3 35L3 34L5 34L5 31L4 31L4 30L5 30L5 29L6 29L6 30L7 30L7 29L8 29L8 28L9 28L9 29L10 29L10 30L9 30L9 31L6 31L6 32L10 32L10 34L8 34L8 35L5 35L5 38L7 38L7 39L8 39L8 40L10 40L10 41L11 41L11 40L13 40L13 39L10 39L10 38L11 38L11 37L13 37L13 38L15 38L15 34L16 34L16 33L17 33L17 36L18 36L18 37L17 37L17 38L18 38L18 40L17 40L17 42L18 42L18 41L19 41L19 40L20 40L20 38L18 38L18 37L19 37L19 36L20 36L20 37L21 37L21 36L22 36L22 34L23 34L23 35L24 35L24 36L23 36L23 37L22 37L22 38L21 38L21 39L22 39L22 40L23 40L23 39L22 39L22 38L24 38L24 36L25 36L25 37L26 37L26 38L25 38L25 39L24 39L24 40L25 40L25 39L26 39L26 40L27 40L27 39L26 39L26 38L27 38L27 37L28 37L28 36L30 36L30 35L31 35L31 38L29 38L29 39L28 39L28 41L27 41L27 45L28 45L28 41L29 41L29 42L31 42L31 45L33 45L33 43L32 43L32 40L33 40L33 39L34 39L34 40L35 40L35 41L34 41L34 42L36 42L36 40L37 40L37 41L39 41L39 39L38 39L38 38L36 38L36 37L35 37L35 36L37 36L37 37L38 37L38 36L37 36L37 35L35 35L35 36L34 36L34 32L35 32L35 33L36 33L36 32L35 32L35 30L36 30L36 28L37 28L37 29L38 29L38 31L39 31L39 28L38 28L38 27L37 27L37 26L36 26L36 24L37 24L37 23L36 23L36 22L35 22L35 23L34 23L34 24L33 24L33 25L32 25L32 23L31 23L31 22L27 22L27 27L28 27L28 29L29 29L29 30L30 30L30 32L32 32L32 33L33 33L33 37L32 37L32 34L30 34L30 33L29 33L29 34L28 34L28 35L27 35L27 36L25 36L25 35L24 35L24 34L27 34L27 33L25 33L25 32L24 32L24 31L23 31L23 30L25 30L25 29L24 29L24 28L26 28L26 32L27 32L27 31L28 31L28 32L29 32L29 31L28 31L28 30L27 30L27 28L26 28L26 27L24 27L24 28L23 28L23 27L22 27L22 23L21 23L21 22L23 22L23 21L24 21L24 22L26 22L26 20L27 20L27 21L29 21L29 19L30 19L30 20L31 20L31 19L30 19L30 18L29 18L29 19L28 19L28 20L27 20L27 18L28 18L28 16L27 16L27 17L25 17L25 15L28 15L28 13L31 13L31 12L28 12L28 13L27 13L27 11L26 11L26 13L25 13L25 12L24 12L24 11L25 11L25 10L26 10L26 9L22 9L22 8L21 8L21 7ZM14 8L14 9L13 9L13 10L15 10L15 8ZM27 8L27 9L28 9L28 8ZM4 9L4 12L3 12L3 11L2 11L2 12L1 12L1 13L2 13L2 14L3 14L3 13L4 13L4 12L7 12L7 11L5 11L5 9ZM11 9L11 12L12 12L12 9ZM44 9L44 10L45 10L45 9ZM23 10L23 11L22 11L22 12L21 12L21 13L22 13L22 14L24 14L24 12L23 12L23 11L24 11L24 10ZM30 10L30 11L31 11L31 10ZM38 10L38 11L41 11L41 10ZM2 12L2 13L3 13L3 12ZM22 12L22 13L23 13L23 12ZM5 13L5 17L6 17L6 18L7 18L7 17L8 17L8 16L7 16L7 15L8 15L8 14L7 14L7 13ZM19 13L19 14L17 14L17 15L16 15L16 18L15 18L15 19L16 19L16 22L17 22L17 20L20 20L20 21L21 21L21 20L22 20L22 21L23 21L23 20L24 20L24 18L25 18L25 17L24 17L24 15L21 15L21 14L20 14L20 13ZM26 13L26 14L27 14L27 13ZM6 14L6 15L7 15L7 14ZM19 14L19 17L20 17L20 19L21 19L21 17L22 17L22 16L21 16L21 15L20 15L20 14ZM14 15L14 16L15 16L15 15ZM17 15L17 16L18 16L18 15ZM35 15L35 16L38 16L38 15ZM41 15L41 17L42 17L42 15ZM44 15L44 16L46 16L46 15ZM6 16L6 17L7 17L7 16ZM20 16L20 17L21 17L21 16ZM31 16L31 18L32 18L32 16ZM23 17L23 18L24 18L24 17ZM17 18L17 19L19 19L19 18ZM47 18L47 19L48 19L48 18ZM25 19L25 20L26 20L26 19ZM8 21L8 22L9 22L9 21ZM18 21L18 22L19 22L19 21ZM14 22L14 24L13 24L13 23L11 23L11 24L12 24L12 25L14 25L14 26L12 26L12 27L11 27L11 26L10 26L10 27L11 27L11 31L10 31L10 32L13 32L13 34L12 34L12 36L14 36L14 34L15 34L15 33L14 33L14 32L16 32L16 31L19 31L19 33L18 33L18 32L17 32L17 33L18 33L18 34L19 34L19 35L18 35L18 36L19 36L19 35L20 35L20 36L21 36L21 34L20 34L20 33L21 33L21 31L22 31L22 33L23 33L23 34L24 34L24 33L23 33L23 31L22 31L22 30L23 30L23 28L21 28L21 26L20 26L20 25L19 25L19 26L18 26L18 23L17 23L17 24L16 24L16 23L15 23L15 22ZM48 22L48 23L49 23L49 22ZM2 23L2 25L3 25L3 26L2 26L2 27L1 27L1 28L2 28L2 27L4 27L4 23ZM5 23L5 26L8 26L8 23ZM20 23L20 24L21 24L21 23ZM23 23L23 26L26 26L26 23ZM28 23L28 24L29 24L29 25L28 25L28 26L31 26L31 23L30 23L30 24L29 24L29 23ZM35 23L35 24L36 24L36 23ZM41 23L41 26L44 26L44 23ZM6 24L6 25L7 25L7 24ZM14 24L14 25L15 25L15 26L14 26L14 27L15 27L15 26L17 26L17 25L15 25L15 24ZM24 24L24 25L25 25L25 24ZM42 24L42 25L43 25L43 24ZM46 24L46 26L45 26L45 27L48 27L48 26L47 26L47 24ZM33 25L33 26L32 26L32 27L33 27L33 28L31 28L31 27L30 27L30 28L31 28L31 29L30 29L30 30L32 30L32 32L33 32L33 31L34 31L34 30L35 30L35 29L34 29L34 28L36 28L36 26L35 26L35 27L33 27L33 26L34 26L34 25ZM39 25L39 26L40 26L40 25ZM19 26L19 27L20 27L20 26ZM12 27L12 29L13 29L13 31L14 31L14 29L13 29L13 27ZM16 27L16 28L15 28L15 29L16 29L16 28L17 28L17 30L19 30L19 31L21 31L21 30L22 30L22 29L20 29L20 28L18 28L18 27ZM40 27L40 30L41 30L41 31L42 31L42 32L40 32L40 33L39 33L39 32L38 32L38 33L37 33L37 34L38 34L38 35L40 35L40 36L41 36L41 38L40 38L40 37L39 37L39 38L40 38L40 39L41 39L41 40L44 40L44 39L45 39L45 38L43 38L43 37L45 37L45 36L46 36L46 37L47 37L47 36L46 36L46 35L45 35L45 36L43 36L43 35L42 35L42 36L41 36L41 33L42 33L42 34L44 34L44 32L43 32L43 31L44 31L44 30L45 30L45 29L46 29L46 28L45 28L45 29L43 29L43 31L42 31L42 30L41 30L41 29L42 29L42 28L43 28L43 27L42 27L42 28L41 28L41 27ZM6 28L6 29L7 29L7 28ZM47 28L47 29L48 29L48 28ZM19 29L19 30L20 30L20 29ZM32 29L32 30L33 30L33 29ZM15 30L15 31L16 31L16 30ZM6 33L6 34L7 34L7 33ZM38 33L38 34L39 34L39 33ZM10 34L10 35L11 35L11 34ZM8 35L8 39L9 39L9 38L10 38L10 36L9 36L9 35ZM6 36L6 37L7 37L7 36ZM42 36L42 37L43 37L43 36ZM31 38L31 40L32 40L32 38ZM41 38L41 39L43 39L43 38ZM14 39L14 42L15 42L15 43L16 43L16 39ZM29 39L29 41L30 41L30 39ZM37 39L37 40L38 40L38 39ZM21 41L21 43L22 43L22 41ZM23 41L23 44L26 44L26 41ZM41 41L41 44L44 44L44 41ZM19 42L19 45L21 45L21 46L22 46L22 47L23 47L23 48L25 48L25 47L26 47L26 45L22 45L22 44L20 44L20 42ZM24 42L24 43L25 43L25 42ZM39 42L39 43L35 43L35 44L37 44L37 45L38 45L38 44L40 44L40 42ZM42 42L42 43L43 43L43 42ZM10 44L10 45L9 45L9 46L10 46L10 45L11 45L11 44ZM41 45L41 46L40 46L40 47L41 47L41 48L42 48L42 45ZM43 45L43 46L45 46L45 45ZM23 46L23 47L25 47L25 46ZM35 46L35 47L36 47L36 48L37 48L37 47L39 47L39 46L37 46L37 47L36 47L36 46ZM33 47L33 48L34 48L34 47ZM43 47L43 48L44 48L44 47ZM0 0L0 7L7 7L7 0ZM1 1L1 6L6 6L6 1ZM2 2L2 5L5 5L5 2ZM42 0L42 7L49 7L49 0ZM43 1L43 6L48 6L48 1ZM44 2L44 5L47 5L47 2ZM0 42L0 49L7 49L7 42ZM1 43L1 48L6 48L6 43ZM2 44L2 47L5 47L5 44Z" fill="#000000"/></g></g></svg>
