<?xml version="1.0" encoding="UTF-8"?>
<svg xmlns="http://www.w3.org/2000/svg" version="1.1" width="300" height="300" viewBox="0 0 300 300"><rect x="0" y="0" width="300" height="300" fill="#ffffff"/><g transform="scale(8.108)"><g transform="translate(0,0)"><path fill-rule="evenodd" d="M8 0L8 1L9 1L9 0ZM11 0L11 1L12 1L12 0ZM14 0L14 1L13 1L13 2L9 2L9 4L8 4L8 7L9 7L9 11L8 11L8 8L1 8L1 9L0 9L0 11L1 11L1 12L0 12L0 15L1 15L1 16L2 16L2 17L1 17L1 18L0 18L0 20L1 20L1 21L0 21L0 29L1 29L1 24L2 24L2 25L3 25L3 24L2 24L2 23L1 23L1 21L2 21L2 22L4 22L4 21L5 21L5 22L6 22L6 23L4 23L4 24L5 24L5 26L2 26L2 27L3 27L3 29L4 29L4 27L5 27L5 29L8 29L8 36L9 36L9 37L10 37L10 36L11 36L11 37L12 37L12 35L14 35L14 36L17 36L17 37L19 37L19 36L18 36L18 35L19 35L19 33L18 33L18 31L17 31L17 30L18 30L18 29L19 29L19 30L21 30L21 29L23 29L23 30L22 30L22 31L23 31L23 32L20 32L20 33L21 33L21 34L20 34L20 35L21 35L21 36L20 36L20 37L22 37L22 36L23 36L23 37L25 37L25 36L26 36L26 37L27 37L27 36L29 36L29 37L32 37L32 36L34 36L34 37L37 37L37 34L36 34L36 36L34 36L34 34L33 34L33 32L34 32L34 33L36 33L36 32L37 32L37 30L36 30L36 29L37 29L37 28L36 28L36 27L37 27L37 26L35 26L35 25L36 25L36 24L33 24L33 25L34 25L34 26L33 26L33 27L34 27L34 28L30 28L30 27L32 27L32 26L31 26L31 25L32 25L32 24L31 24L31 22L30 22L30 21L33 21L33 20L34 20L34 21L36 21L36 22L33 22L33 23L36 23L36 22L37 22L37 18L36 18L36 17L37 17L37 14L36 14L36 13L37 13L37 12L36 12L36 11L37 11L37 10L35 10L35 12L36 12L36 13L35 13L35 14L34 14L34 13L33 13L33 12L34 12L34 11L33 11L33 10L34 10L34 9L33 9L33 8L31 8L31 9L30 9L30 10L28 10L28 9L29 9L29 8L28 8L28 7L29 7L29 5L26 5L26 4L29 4L29 2L28 2L28 1L27 1L27 0L25 0L25 1L23 1L23 2L22 2L22 0L21 0L21 1L20 1L20 3L18 3L18 5L15 5L15 4L17 4L17 2L15 2L15 1L16 1L16 0ZM17 0L17 1L18 1L18 2L19 2L19 0ZM13 2L13 3L12 3L12 5L13 5L13 7L14 7L14 8L10 8L10 10L11 10L11 11L9 11L9 12L10 12L10 13L9 13L9 14L7 14L7 13L8 13L8 12L7 12L7 11L6 11L6 10L7 10L7 9L6 9L6 10L5 10L5 9L4 9L4 10L5 10L5 11L4 11L4 12L3 12L3 13L2 13L2 12L1 12L1 14L3 14L3 15L2 15L2 16L3 16L3 17L2 17L2 18L1 18L1 19L3 19L3 20L4 20L4 19L3 19L3 17L5 17L5 16L7 16L7 15L10 15L10 13L11 13L11 14L13 14L13 15L12 15L12 16L10 16L10 17L9 17L9 18L10 18L10 19L13 19L13 20L10 20L10 22L9 22L9 20L8 20L8 23L6 23L6 24L7 24L7 25L6 25L6 26L5 26L5 27L6 27L6 28L7 28L7 27L6 27L6 26L10 26L10 22L11 22L11 21L12 21L12 22L13 22L13 23L11 23L11 24L14 24L14 26L12 26L12 27L10 27L10 30L9 30L9 31L10 31L10 32L9 32L9 33L10 33L10 32L11 32L11 33L14 33L14 32L15 32L15 31L16 31L16 32L17 32L17 31L16 31L16 29L18 29L18 28L17 28L17 27L16 27L16 28L15 28L15 30L14 30L14 29L13 29L13 28L14 28L14 27L15 27L15 25L18 25L18 23L17 23L17 22L20 22L20 23L19 23L19 25L20 25L20 26L19 26L19 29L20 29L20 28L23 28L23 29L25 29L25 28L26 28L26 29L27 29L27 31L28 31L28 27L30 27L30 26L27 26L27 28L26 28L26 26L23 26L23 25L27 25L27 24L28 24L28 25L30 25L30 24L29 24L29 23L30 23L30 22L29 22L29 21L30 21L30 20L29 20L29 21L27 21L27 20L26 20L26 19L27 19L27 18L28 18L28 17L30 17L30 18L29 18L29 19L31 19L31 20L33 20L33 19L32 19L32 18L33 18L33 17L34 17L34 20L36 20L36 18L35 18L35 17L34 17L34 16L36 16L36 14L35 14L35 15L34 15L34 14L33 14L33 13L29 13L29 11L28 11L28 14L30 14L30 15L32 15L32 16L31 16L31 17L30 17L30 16L28 16L28 15L27 15L27 12L26 12L26 11L27 11L27 9L28 9L28 8L27 8L27 7L28 7L28 6L27 6L27 7L26 7L26 6L25 6L25 7L24 7L24 6L23 6L23 7L24 7L24 9L25 9L25 12L26 12L26 13L24 13L24 10L22 10L22 11L23 11L23 12L22 12L22 13L24 13L24 14L22 14L22 15L25 15L25 16L22 16L22 17L23 17L23 18L21 18L21 19L23 19L23 20L20 20L20 21L19 21L19 20L18 20L18 16L19 16L19 18L20 18L20 16L21 16L21 15L19 15L19 14L17 14L17 10L18 10L18 11L20 11L20 12L21 12L21 11L20 11L20 10L21 10L21 9L23 9L23 8L20 8L20 6L19 6L19 5L21 5L21 4L22 4L22 5L25 5L25 4L26 4L26 3L27 3L27 2L26 2L26 3L25 3L25 2L24 2L24 3L25 3L25 4L22 4L22 3L20 3L20 4L19 4L19 5L18 5L18 6L17 6L17 7L16 7L16 6L15 6L15 5L13 5L13 4L15 4L15 2ZM10 3L10 4L11 4L11 3ZM9 6L9 7L10 7L10 6ZM11 6L11 7L12 7L12 6ZM14 6L14 7L15 7L15 6ZM18 6L18 7L17 7L17 8L14 8L14 10L13 10L13 11L11 11L11 13L14 13L14 15L16 15L16 16L14 16L14 17L13 17L13 16L12 16L12 18L14 18L14 19L15 19L15 17L16 17L16 16L17 16L17 15L16 15L16 14L15 14L15 13L16 13L16 12L15 12L15 11L16 11L16 10L17 10L17 8L18 8L18 9L19 9L19 10L20 10L20 9L19 9L19 6ZM21 6L21 7L22 7L22 6ZM25 7L25 8L26 8L26 9L27 9L27 8L26 8L26 7ZM36 8L36 9L37 9L37 8ZM11 9L11 10L12 10L12 9ZM1 10L1 11L2 11L2 10ZM14 10L14 11L13 11L13 12L14 12L14 13L15 13L15 12L14 12L14 11L15 11L15 10ZM31 10L31 11L32 11L32 10ZM5 12L5 13L7 13L7 12ZM3 13L3 14L4 14L4 15L3 15L3 16L4 16L4 15L5 15L5 14L4 14L4 13ZM6 14L6 15L7 15L7 14ZM25 14L25 15L26 15L26 16L25 16L25 17L24 17L24 18L25 18L25 17L26 17L26 16L27 16L27 17L28 17L28 16L27 16L27 15L26 15L26 14ZM32 14L32 15L33 15L33 16L32 16L32 17L33 17L33 16L34 16L34 15L33 15L33 14ZM6 17L6 18L8 18L8 17ZM10 17L10 18L11 18L11 17ZM16 18L16 20L15 20L15 21L13 21L13 22L17 22L17 18ZM6 19L6 20L5 20L5 21L6 21L6 22L7 22L7 21L6 21L6 20L7 20L7 19ZM24 19L24 20L25 20L25 19ZM20 21L20 22L21 22L21 24L22 24L22 25L23 25L23 24L22 24L22 23L23 23L23 22L22 22L22 21ZM24 21L24 22L25 22L25 21ZM26 21L26 22L27 22L27 23L26 23L26 24L27 24L27 23L29 23L29 22L27 22L27 21ZM8 23L8 24L9 24L9 23ZM15 23L15 24L17 24L17 23ZM24 23L24 24L25 24L25 23ZM22 26L22 27L23 27L23 28L25 28L25 27L23 27L23 26ZM12 27L12 28L11 28L11 29L12 29L12 28L13 28L13 27ZM34 28L34 29L33 29L33 31L34 31L34 32L35 32L35 31L36 31L36 30L35 30L35 29L36 29L36 28ZM29 29L29 32L32 32L32 29ZM10 30L10 31L11 31L11 30ZM12 30L12 32L13 32L13 30ZM23 30L23 31L25 31L25 32L26 32L26 30ZM30 30L30 31L31 31L31 30ZM23 32L23 33L22 33L22 35L23 35L23 34L25 34L25 33L24 33L24 32ZM15 33L15 34L14 34L14 35L16 35L16 33ZM17 33L17 35L18 35L18 33ZM26 33L26 34L27 34L27 35L26 35L26 36L27 36L27 35L29 35L29 36L32 36L32 35L33 35L33 34L29 34L29 33L28 33L28 34L27 34L27 33ZM10 34L10 35L12 35L12 34ZM24 35L24 36L25 36L25 35ZM0 0L0 7L7 7L7 0ZM1 1L1 6L6 6L6 1ZM2 2L2 5L5 5L5 2ZM30 0L30 7L37 7L37 0ZM31 1L31 6L36 6L36 1ZM32 2L32 5L35 5L35 2ZM0 30L0 37L7 37L7 30ZM1 31L1 36L6 36L6 31ZM2 32L2 35L5 35L5 32Z" fill="#000000"/></g></g></svg>
