<?xml version="1.0" encoding="UTF-8"?>
<svg xmlns="http://www.w3.org/2000/svg" version="1.1" width="300" height="300" viewBox="0 0 300 300"><rect x="0" y="0" width="300" height="300" fill="#ffffff"/><g transform="scale(6.122)"><g transform="translate(0,0)"><path fill-rule="evenodd" d="M9 0L9 1L8 1L8 2L10 2L10 3L8 3L8 5L9 5L9 6L8 6L8 9L7 9L7 8L3 8L3 9L2 9L2 8L1 8L1 9L2 9L2 10L3 10L3 9L7 9L7 10L5 10L5 11L4 11L4 12L3 12L3 13L1 13L1 12L2 12L2 11L1 11L1 10L0 10L0 14L1 14L1 15L0 15L0 18L1 18L1 15L2 15L2 17L3 17L3 18L4 18L4 16L5 16L5 15L4 15L4 14L6 14L6 15L7 15L7 16L6 16L6 17L7 17L7 18L5 18L5 20L3 20L3 19L0 19L0 20L3 20L3 21L2 21L2 23L1 23L1 21L0 21L0 30L1 30L1 31L0 31L0 32L4 32L4 31L5 31L5 34L4 34L4 33L1 33L1 34L2 34L2 36L1 36L1 35L0 35L0 38L1 38L1 40L0 40L0 41L3 41L3 40L4 40L4 39L2 39L2 36L3 36L3 37L5 37L5 35L7 35L7 36L6 36L6 37L7 37L7 38L5 38L5 39L8 39L8 38L10 38L10 39L9 39L9 40L6 40L6 41L8 41L8 42L9 42L9 41L10 41L10 42L11 42L11 43L8 43L8 46L9 46L9 47L8 47L8 48L9 48L9 49L11 49L11 48L9 48L9 47L10 47L10 46L11 46L11 47L12 47L12 48L13 48L13 49L16 49L16 48L15 48L15 47L14 47L14 48L13 48L13 46L14 46L14 45L12 45L12 44L11 44L11 43L13 43L13 44L15 44L15 43L16 43L16 44L18 44L18 45L16 45L16 46L20 46L20 45L21 45L21 44L22 44L22 45L26 45L26 47L25 47L25 46L23 46L23 47L22 47L22 46L21 46L21 47L19 47L19 49L20 49L20 48L21 48L21 47L22 47L22 49L29 49L29 48L26 48L26 47L28 47L28 45L29 45L29 47L30 47L30 46L31 46L31 47L32 47L32 49L35 49L35 48L36 48L36 49L37 49L37 48L38 48L38 49L39 49L39 47L37 47L37 46L39 46L39 45L40 45L40 47L41 47L41 49L42 49L42 48L43 48L43 49L46 49L46 48L48 48L48 49L49 49L49 45L48 45L48 44L47 44L47 46L48 46L48 47L46 47L46 45L45 45L45 44L46 44L46 43L47 43L47 42L48 42L48 43L49 43L49 42L48 42L48 41L47 41L47 39L49 39L49 38L47 38L47 39L46 39L46 41L45 41L45 40L41 40L41 39L43 39L43 37L44 37L44 38L46 38L46 37L44 37L44 35L46 35L46 36L47 36L47 37L49 37L49 34L48 34L48 36L47 36L47 35L46 35L46 34L47 34L47 33L46 33L46 31L45 31L45 30L46 30L46 29L47 29L47 31L48 31L48 32L49 32L49 30L48 30L48 29L49 29L49 26L48 26L48 25L47 25L47 26L48 26L48 27L45 27L45 26L46 26L46 24L48 24L48 23L49 23L49 22L48 22L48 23L46 23L46 21L44 21L44 22L43 22L43 18L45 18L45 20L46 20L46 19L47 19L47 20L48 20L48 21L49 21L49 18L48 18L48 17L47 17L47 15L49 15L49 14L46 14L46 17L47 17L47 18L45 18L45 16L44 16L44 15L45 15L45 14L44 14L44 15L41 15L41 16L42 16L42 17L40 17L40 19L42 19L42 21L40 21L40 20L38 20L38 22L40 22L40 25L39 25L39 24L38 24L38 23L37 23L37 20L36 20L36 21L35 21L35 20L34 20L34 21L33 21L33 22L31 22L31 21L32 21L32 19L31 19L31 18L32 18L32 17L33 17L33 19L35 19L35 18L34 18L34 17L35 17L35 16L34 16L34 15L33 15L33 16L31 16L31 18L29 18L29 17L30 17L30 15L29 15L29 14L31 14L31 15L32 15L32 14L33 14L33 12L34 12L34 13L35 13L35 14L36 14L36 15L37 15L37 16L36 16L36 19L39 19L39 17L37 17L37 16L38 16L38 15L40 15L40 14L39 14L39 13L40 13L40 12L41 12L41 14L43 14L43 12L42 12L42 11L39 11L39 13L38 13L38 12L36 12L36 11L38 11L38 10L41 10L41 9L42 9L42 10L43 10L43 11L44 11L44 13L45 13L45 10L46 10L46 8L44 8L44 10L43 10L43 8L41 8L41 9L40 9L40 7L41 7L41 6L40 6L40 7L39 7L39 5L38 5L38 2L39 2L39 4L40 4L40 3L41 3L41 0L40 0L40 1L37 1L37 0L36 0L36 1L35 1L35 0L34 0L34 2L37 2L37 3L35 3L35 6L34 6L34 7L35 7L35 8L36 8L36 9L34 9L34 11L33 11L33 9L32 9L32 8L33 8L33 6L32 6L32 8L31 8L31 6L30 6L30 8L27 8L27 4L26 4L26 1L25 1L25 0L23 0L23 1L25 1L25 3L24 3L24 4L23 4L23 2L20 2L20 1L21 1L21 0L18 0L18 1L17 1L17 2L14 2L14 1L13 1L13 0L12 0L12 1L11 1L11 2L10 2L10 0ZM27 0L27 3L28 3L28 5L29 5L29 4L30 4L30 5L33 5L33 2L31 2L31 3L32 3L32 4L30 4L30 2L29 2L29 3L28 3L28 0ZM30 0L30 1L33 1L33 0ZM12 1L12 2L11 2L11 3L10 3L10 4L9 4L9 5L10 5L10 4L11 4L11 7L10 7L10 6L9 6L9 7L10 7L10 8L11 8L11 11L10 11L10 12L9 12L9 11L8 11L8 10L7 10L7 11L5 11L5 12L7 12L7 13L6 13L6 14L7 14L7 15L8 15L8 14L7 14L7 13L11 13L11 11L12 11L12 12L13 12L13 13L17 13L17 14L19 14L19 15L17 15L17 16L15 16L15 17L13 17L13 19L16 19L16 18L15 18L15 17L18 17L18 18L17 18L17 19L19 19L19 20L17 20L17 22L16 22L16 20L14 20L14 21L13 21L13 22L12 22L12 21L11 21L11 22L10 22L10 23L9 23L9 24L10 24L10 26L9 26L9 27L8 27L8 28L7 28L7 27L5 27L5 29L3 29L3 28L4 28L4 23L2 23L2 26L3 26L3 27L1 27L1 28L2 28L2 29L1 29L1 30L2 30L2 29L3 29L3 31L4 31L4 30L5 30L5 29L6 29L6 30L7 30L7 31L6 31L6 32L7 32L7 33L6 33L6 34L7 34L7 35L8 35L8 36L7 36L7 37L10 37L10 38L11 38L11 37L13 37L13 38L15 38L15 37L17 37L17 36L16 36L16 34L17 34L17 33L18 33L18 35L20 35L20 37L23 37L23 38L21 38L21 39L20 39L20 40L21 40L21 39L23 39L23 38L24 38L24 37L25 37L25 38L26 38L26 40L27 40L27 38L28 38L28 41L27 41L27 42L29 42L29 43L30 43L30 42L29 42L29 41L30 41L30 39L31 39L31 41L32 41L32 42L33 42L33 43L31 43L31 45L33 45L33 43L34 43L34 41L36 41L36 42L35 42L35 44L37 44L37 45L38 45L38 44L40 44L40 42L39 42L39 41L36 41L36 40L38 40L38 38L35 38L35 37L36 37L36 36L37 36L37 37L38 37L38 36L39 36L39 35L40 35L40 36L41 36L41 37L43 37L43 35L42 35L42 36L41 36L41 33L42 33L42 34L44 34L44 32L45 32L45 31L44 31L44 30L45 30L45 29L46 29L46 28L44 28L44 29L43 29L43 31L42 31L42 30L41 30L41 31L42 31L42 32L40 32L40 33L39 33L39 30L40 30L40 29L39 29L39 28L38 28L38 27L37 27L37 26L36 26L36 24L37 24L37 23L36 23L36 22L35 22L35 23L34 23L34 24L33 24L33 25L32 25L32 23L31 23L31 22L29 22L29 21L28 21L28 20L29 20L29 19L27 19L27 18L28 18L28 16L29 16L29 15L28 15L28 13L29 13L29 12L28 12L28 13L27 13L27 11L30 11L30 12L31 12L31 11L32 11L32 10L30 10L30 9L31 9L31 8L30 8L30 9L28 9L28 10L26 10L26 13L25 13L25 12L24 12L24 11L25 11L25 10L24 10L24 11L22 11L22 10L20 10L20 11L19 11L19 9L18 9L18 8L16 8L16 5L15 5L15 4L17 4L17 5L18 5L18 4L19 4L19 7L20 7L20 9L22 9L22 3L20 3L20 2L19 2L19 1L18 1L18 2L19 2L19 3L18 3L18 4L17 4L17 3L14 3L14 2L13 2L13 1ZM12 2L12 3L11 3L11 4L12 4L12 5L14 5L14 7L15 7L15 5L14 5L14 3L13 3L13 2ZM12 3L12 4L13 4L13 3ZM19 3L19 4L20 4L20 7L21 7L21 4L20 4L20 3ZM36 4L36 6L35 6L35 7L36 7L36 6L37 6L37 8L38 8L38 6L37 6L37 4ZM23 5L23 8L26 8L26 5ZM12 6L12 7L13 7L13 6ZM17 6L17 7L18 7L18 6ZM24 6L24 7L25 7L25 6ZM28 6L28 7L29 7L29 6ZM13 8L13 11L14 11L14 12L18 12L18 13L19 13L19 14L20 14L20 15L19 15L19 18L20 18L20 20L22 20L22 21L26 21L26 20L25 20L25 19L24 19L24 18L25 18L25 17L27 17L27 16L28 16L28 15L25 15L25 17L24 17L24 15L21 15L21 13L22 13L22 14L24 14L24 12L23 12L23 13L22 13L22 12L18 12L18 10L17 10L17 9L16 9L16 8ZM47 8L47 11L46 11L46 12L48 12L48 11L49 11L49 10L48 10L48 8ZM14 9L14 11L15 11L15 9ZM37 9L37 10L38 10L38 9ZM7 11L7 12L8 12L8 11ZM34 11L34 12L35 12L35 11ZM26 13L26 14L27 14L27 13ZM31 13L31 14L32 14L32 13ZM2 14L2 15L3 15L3 16L4 16L4 15L3 15L3 14ZM9 14L9 15L10 15L10 16L9 16L9 17L8 17L8 16L7 16L7 17L8 17L8 18L7 18L7 19L6 19L6 20L5 20L5 21L6 21L6 22L8 22L8 21L6 21L6 20L9 20L9 17L10 17L10 18L11 18L11 17L12 17L12 15L13 15L13 16L14 16L14 15L15 15L15 14L14 14L14 15L13 15L13 14ZM37 14L37 15L38 15L38 14ZM20 15L20 17L22 17L22 16L21 16L21 15ZM23 17L23 18L24 18L24 17ZM47 18L47 19L48 19L48 18ZM23 19L23 20L24 20L24 19ZM30 19L30 20L31 20L31 19ZM18 21L18 22L19 22L19 21ZM20 21L20 22L21 22L21 21ZM11 22L11 23L12 23L12 25L14 25L14 26L15 26L15 28L16 28L16 29L14 29L14 27L13 27L13 26L12 26L12 27L11 27L11 26L10 26L10 27L9 27L9 29L7 29L7 28L6 28L6 29L7 29L7 30L9 30L9 31L11 31L11 32L13 32L13 33L11 33L11 36L10 36L10 35L9 35L9 36L10 36L10 37L11 37L11 36L13 36L13 37L15 37L15 36L14 36L14 34L13 34L13 33L14 33L14 30L16 30L16 31L15 31L15 32L16 32L16 31L17 31L17 29L18 29L18 28L16 28L16 27L17 27L17 26L18 26L18 23L16 23L16 22L14 22L14 24L13 24L13 23L12 23L12 22ZM22 22L22 23L21 23L21 26L20 26L20 25L19 25L19 26L20 26L20 27L19 27L19 28L20 28L20 29L19 29L19 30L18 30L18 33L21 33L21 34L22 34L22 33L21 33L21 31L22 31L22 32L23 32L23 35L21 35L21 36L23 36L23 37L24 37L24 36L25 36L25 37L26 37L26 38L27 38L27 36L26 36L26 35L24 35L24 34L25 34L25 33L24 33L24 32L23 32L23 30L22 30L22 29L24 29L24 30L27 30L27 31L25 31L25 32L26 32L26 34L27 34L27 31L29 31L29 32L30 32L30 33L29 33L29 34L28 34L28 35L30 35L30 38L29 38L29 39L30 39L30 38L32 38L32 37L33 37L33 36L34 36L34 37L35 37L35 36L36 36L36 35L35 35L35 33L36 33L36 32L38 32L38 29L37 29L37 28L36 28L36 26L35 26L35 27L33 27L33 26L34 26L34 25L33 25L33 26L32 26L32 27L33 27L33 28L31 28L31 27L30 27L30 28L31 28L31 29L30 29L30 30L27 30L27 29L28 29L28 27L29 27L29 26L31 26L31 23L30 23L30 24L29 24L29 23L28 23L28 22ZM5 23L5 26L8 26L8 23ZM23 23L23 26L26 26L26 23ZM35 23L35 24L36 24L36 23ZM41 23L41 26L44 26L44 23ZM6 24L6 25L7 25L7 24ZM14 24L14 25L15 25L15 26L17 26L17 25L15 25L15 24ZM24 24L24 25L25 25L25 24ZM42 24L42 25L43 25L43 24ZM28 25L28 26L29 26L29 25ZM10 27L10 28L11 28L11 27ZM12 27L12 29L13 29L13 27ZM21 27L21 28L24 28L24 27ZM26 27L26 28L27 28L27 27ZM40 27L40 28L41 28L41 29L42 29L42 28L43 28L43 27L42 27L42 28L41 28L41 27ZM34 28L34 29L35 29L35 30L34 30L34 31L33 31L33 32L34 32L34 31L35 31L35 32L36 32L36 31L35 31L35 30L36 30L36 28ZM47 28L47 29L48 29L48 28ZM9 29L9 30L11 30L11 29ZM20 29L20 30L19 30L19 31L21 31L21 29ZM32 29L32 30L30 30L30 31L32 31L32 30L33 30L33 29ZM7 31L7 32L8 32L8 31ZM43 31L43 32L44 32L44 31ZM9 32L9 33L8 33L8 34L10 34L10 32ZM31 32L31 34L30 34L30 35L31 35L31 37L32 37L32 35L33 35L33 33L32 33L32 32ZM15 33L15 34L16 34L16 33ZM38 33L38 34L37 34L37 36L38 36L38 34L39 34L39 33ZM31 34L31 35L32 35L32 34ZM28 36L28 37L29 37L29 36ZM39 37L39 38L40 38L40 39L41 39L41 38L40 38L40 37ZM17 38L17 39L15 39L15 41L16 41L16 43L17 43L17 41L18 41L18 42L19 42L19 43L20 43L20 44L21 44L21 43L22 43L22 41L21 41L21 42L20 42L20 41L19 41L19 40L17 40L17 39L18 39L18 38ZM10 39L10 40L11 40L11 41L12 41L12 42L13 42L13 43L14 43L14 41L12 41L12 39ZM13 39L13 40L14 40L14 39ZM24 39L24 40L25 40L25 39ZM34 39L34 40L35 40L35 39ZM16 40L16 41L17 41L17 40ZM32 40L32 41L33 41L33 40ZM23 41L23 44L26 44L26 41ZM41 41L41 44L44 44L44 41ZM24 42L24 43L25 43L25 42ZM36 42L36 43L37 43L37 42ZM38 42L38 43L39 43L39 42ZM42 42L42 43L43 43L43 42ZM27 43L27 45L28 45L28 43ZM10 44L10 45L9 45L9 46L10 46L10 45L11 45L11 46L12 46L12 45L11 45L11 44ZM43 45L43 46L45 46L45 45ZM35 46L35 47L36 47L36 48L37 48L37 47L36 47L36 46ZM23 47L23 48L25 48L25 47ZM33 47L33 48L34 48L34 47ZM43 47L43 48L44 48L44 47ZM0 0L0 7L7 7L7 0ZM1 1L1 6L6 6L6 1ZM2 2L2 5L5 5L5 2ZM42 0L42 7L49 7L49 0ZM43 1L43 6L48 6L48 1ZM44 2L44 5L47 5L47 2ZM0 42L0 49L7 49L7 42ZM1 43L1 48L6 48L6 43ZM2 44L2 47L5 47L5 44Z" fill="#000000"/></g></g></svg>
