<?xml version="1.0" encoding="UTF-8"?>
<svg xmlns="http://www.w3.org/2000/svg" version="1.1" width="300" height="300" viewBox="0 0 300 300"><rect x="0" y="0" width="300" height="300" fill="#ffffff"/><g transform="scale(8.108)"><g transform="translate(0,0)"><path fill-rule="evenodd" d="M8 0L8 5L9 5L9 6L8 6L8 8L6 8L6 9L5 9L5 8L4 8L4 9L3 9L3 8L1 8L1 9L0 9L0 11L1 11L1 12L3 12L3 14L2 14L2 13L0 13L0 14L2 14L2 16L3 16L3 17L2 17L2 18L0 18L0 21L1 21L1 22L0 22L0 23L1 23L1 22L3 22L3 23L4 23L4 21L5 21L5 22L6 22L6 23L5 23L5 24L3 24L3 25L4 25L4 27L3 27L3 28L2 28L2 27L1 27L1 26L2 26L2 25L1 25L1 24L0 24L0 25L1 25L1 26L0 26L0 27L1 27L1 28L0 28L0 29L1 29L1 28L2 28L2 29L3 29L3 28L6 28L6 29L8 29L8 31L9 31L9 32L8 32L8 33L10 33L10 36L9 36L9 34L8 34L8 36L9 36L9 37L12 37L12 36L13 36L13 37L14 37L14 36L15 36L15 37L16 37L16 36L17 36L17 37L19 37L19 36L20 36L20 35L18 35L18 34L17 34L17 33L18 33L18 32L19 32L19 31L18 31L18 32L15 32L15 31L17 31L17 29L18 29L18 28L19 28L19 29L20 29L20 30L21 30L21 31L20 31L20 32L21 32L21 31L22 31L22 30L21 30L21 27L22 27L22 26L21 26L21 27L20 27L20 25L22 25L22 24L24 24L24 23L21 23L21 22L22 22L22 21L23 21L23 22L24 22L24 21L23 21L23 20L24 20L24 19L23 19L23 20L22 20L22 18L24 18L24 17L23 17L23 12L24 12L24 16L25 16L25 18L26 18L26 19L25 19L25 20L26 20L26 21L25 21L25 22L26 22L26 23L25 23L25 24L26 24L26 26L27 26L27 27L25 27L25 26L24 26L24 27L23 27L23 28L25 28L25 29L26 29L26 30L27 30L27 31L25 31L25 30L24 30L24 31L23 31L23 34L22 34L22 33L21 33L21 34L22 34L22 35L21 35L21 36L22 36L22 37L25 37L25 35L26 35L26 34L27 34L27 35L28 35L28 37L31 37L31 36L32 36L32 37L34 37L34 35L35 35L35 37L37 37L37 36L36 36L36 35L37 35L37 33L36 33L36 32L35 32L35 34L34 34L34 33L33 33L33 31L35 31L35 30L33 30L33 28L32 28L32 27L33 27L33 26L32 26L32 25L33 25L33 24L30 24L30 25L31 25L31 26L29 26L29 22L30 22L30 23L31 23L31 22L32 22L32 23L35 23L35 25L34 25L34 26L35 26L35 25L36 25L36 27L37 27L37 25L36 25L36 24L37 24L37 23L36 23L36 21L37 21L37 20L36 20L36 19L37 19L37 16L36 16L36 15L37 15L37 12L36 12L36 11L37 11L37 8L32 8L32 10L33 10L33 11L32 11L32 12L31 12L31 10L30 10L30 9L31 9L31 8L30 8L30 9L29 9L29 12L28 12L28 11L27 11L27 12L26 12L26 11L25 11L25 12L24 12L24 11L23 11L23 10L22 10L22 8L23 8L23 9L24 9L24 8L25 8L25 6L24 6L24 8L23 8L23 6L22 6L22 7L21 7L21 5L16 5L16 4L15 4L15 2L17 2L17 3L19 3L19 2L21 2L21 0L20 0L20 1L19 1L19 0L18 0L18 1L19 1L19 2L17 2L17 1L16 1L16 0L13 0L13 1L12 1L12 0ZM22 0L22 1L23 1L23 0ZM25 0L25 1L26 1L26 2L25 2L25 5L26 5L26 7L27 7L27 6L28 6L28 7L29 7L29 6L28 6L28 0ZM9 1L9 2L10 2L10 3L11 3L11 4L14 4L14 6L13 6L13 7L12 7L12 6L11 6L11 8L10 8L10 9L9 9L9 8L8 8L8 10L7 10L7 9L6 9L6 10L5 10L5 11L4 11L4 10L2 10L2 9L1 9L1 10L2 10L2 11L4 11L4 14L3 14L3 16L5 16L5 15L6 15L6 16L8 16L8 17L10 17L10 16L9 16L9 15L8 15L8 14L10 14L10 15L11 15L11 17L12 17L12 18L11 18L11 20L10 20L10 21L11 21L11 23L10 23L10 22L8 22L8 23L6 23L6 24L7 24L7 25L5 25L5 26L7 26L7 27L6 27L6 28L8 28L8 26L10 26L10 27L9 27L9 29L10 29L10 28L12 28L12 30L10 30L10 33L11 33L11 36L12 36L12 34L14 34L14 35L13 35L13 36L14 36L14 35L15 35L15 36L16 36L16 35L15 35L15 33L14 33L14 31L15 31L15 30L16 30L16 29L13 29L13 28L12 28L12 25L8 25L8 24L13 24L13 23L14 23L14 24L16 24L16 22L17 22L17 21L16 21L16 20L17 20L17 19L18 19L18 18L19 18L19 17L18 17L18 16L17 16L17 17L16 17L16 20L15 20L15 18L14 18L14 17L15 17L15 15L13 15L13 14L15 14L15 13L16 13L16 12L17 12L17 11L16 11L16 10L15 10L15 11L14 11L14 13L11 13L11 11L12 11L12 12L13 12L13 9L17 9L17 7L18 7L18 9L19 9L19 11L18 11L18 12L20 12L20 15L19 15L19 13L17 13L17 14L16 14L16 15L19 15L19 16L20 16L20 17L22 17L22 16L20 16L20 15L22 15L22 14L21 14L21 13L22 13L22 12L21 12L21 11L22 11L22 10L21 10L21 8L20 8L20 6L19 6L19 7L18 7L18 6L17 6L17 7L16 7L16 6L15 6L15 4L14 4L14 3L11 3L11 2L10 2L10 1ZM14 1L14 2L15 2L15 1ZM22 2L22 5L23 5L23 3L24 3L24 2ZM9 6L9 7L10 7L10 6ZM14 6L14 7L15 7L15 8L16 8L16 7L15 7L15 6ZM12 8L12 9L13 9L13 8ZM19 8L19 9L20 9L20 8ZM25 9L25 10L26 10L26 9ZM27 9L27 10L28 10L28 9ZM34 9L34 10L35 10L35 11L34 11L34 12L35 12L35 11L36 11L36 9ZM6 10L6 11L5 11L5 13L10 13L10 12L9 12L9 11L11 11L11 10L9 10L9 11L7 11L7 10ZM6 11L6 12L7 12L7 11ZM27 12L27 13L26 13L26 16L27 16L27 17L26 17L26 18L27 18L27 19L29 19L29 20L27 20L27 25L28 25L28 22L29 22L29 20L31 20L31 19L32 19L32 22L35 22L35 19L36 19L36 17L35 17L35 15L36 15L36 13L34 13L34 15L31 15L31 14L30 14L30 15L28 15L28 14L29 14L29 13L28 13L28 12ZM32 12L32 14L33 14L33 12ZM27 13L27 14L28 14L28 13ZM6 14L6 15L7 15L7 14ZM11 14L11 15L12 15L12 17L14 17L14 16L13 16L13 15L12 15L12 14ZM30 16L30 18L32 18L32 17L31 17L31 16ZM5 17L5 19L6 19L6 20L8 20L8 21L9 21L9 20L8 20L8 19L9 19L9 18L8 18L8 19L6 19L6 18L7 18L7 17ZM17 17L17 18L18 18L18 17ZM3 18L3 19L1 19L1 21L2 21L2 20L3 20L3 21L4 21L4 18ZM13 18L13 20L12 20L12 21L15 21L15 22L14 22L14 23L15 23L15 22L16 22L16 21L15 21L15 20L14 20L14 18ZM20 18L20 19L19 19L19 20L18 20L18 22L19 22L19 23L20 23L20 24L21 24L21 23L20 23L20 22L19 22L19 20L20 20L20 21L21 21L21 20L20 20L20 19L21 19L21 18ZM33 18L33 19L35 19L35 18ZM6 21L6 22L7 22L7 21ZM12 22L12 23L13 23L13 22ZM18 24L18 25L19 25L19 24ZM7 25L7 26L8 26L8 25ZM13 25L13 27L14 27L14 26L15 26L15 27L16 27L16 28L18 28L18 27L19 27L19 28L20 28L20 27L19 27L19 26L18 26L18 27L17 27L17 26L15 26L15 25ZM27 27L27 28L28 28L28 27ZM29 27L29 28L31 28L31 27ZM34 27L34 29L36 29L36 31L37 31L37 28L35 28L35 27ZM29 29L29 32L32 32L32 29ZM13 30L13 31L12 31L12 32L13 32L13 31L14 31L14 30ZM30 30L30 31L31 31L31 30ZM24 31L24 32L25 32L25 31ZM27 31L27 34L29 34L29 35L31 35L31 33L28 33L28 31ZM19 33L19 34L20 34L20 33ZM25 33L25 34L26 34L26 33ZM35 34L35 35L36 35L36 34ZM17 35L17 36L18 36L18 35ZM23 35L23 36L24 36L24 35ZM0 0L0 7L7 7L7 0ZM1 1L1 6L6 6L6 1ZM2 2L2 5L5 5L5 2ZM30 0L30 7L37 7L37 0ZM31 1L31 6L36 6L36 1ZM32 2L32 5L35 5L35 2ZM0 30L0 37L7 37L7 30ZM1 31L1 36L6 36L6 31ZM2 32L2 35L5 35L5 32Z" fill="#000000"/></g></g></svg>
