<?xml version="1.0" encoding="UTF-8"?>
<svg xmlns="http://www.w3.org/2000/svg" version="1.1" width="300" height="300" viewBox="0 0 300 300"><rect x="0" y="0" width="300" height="300" fill="#ffffff"/><g transform="scale(8.108)"><g transform="translate(0,0)"><path fill-rule="evenodd" d="M9 0L9 2L8 2L8 3L9 3L9 2L10 2L10 0ZM11 0L11 1L12 1L12 0ZM13 0L13 1L15 1L15 0ZM16 0L16 3L17 3L17 4L16 4L16 5L13 5L13 4L15 4L15 3L14 3L14 2L13 2L13 4L12 4L12 5L10 5L10 8L8 8L8 10L9 10L9 11L7 11L7 10L6 10L6 9L7 9L7 8L6 8L6 9L5 9L5 8L4 8L4 10L1 10L1 9L2 9L2 8L1 8L1 9L0 9L0 10L1 10L1 12L0 12L0 16L1 16L1 17L0 17L0 20L1 20L1 19L2 19L2 21L0 21L0 22L3 22L3 23L5 23L5 24L6 24L6 25L7 25L7 26L5 26L5 25L4 25L4 24L3 24L3 25L2 25L2 23L1 23L1 24L0 24L0 26L2 26L2 27L3 27L3 28L0 28L0 29L3 29L3 28L4 28L4 29L8 29L8 30L9 30L9 29L8 29L8 26L9 26L9 25L10 25L10 27L11 27L11 31L9 31L9 32L8 32L8 33L10 33L10 34L9 34L9 35L8 35L8 36L9 36L9 37L12 37L12 36L13 36L13 37L14 37L14 36L13 36L13 35L14 35L14 34L16 34L16 33L14 33L14 32L16 32L16 31L18 31L18 32L17 32L17 33L18 33L18 34L20 34L20 35L21 35L21 36L22 36L22 35L23 35L23 34L21 34L21 33L18 33L18 32L19 32L19 30L20 30L20 32L21 32L21 30L22 30L22 29L23 29L23 31L22 31L22 33L23 33L23 31L24 31L24 33L25 33L25 31L24 31L24 30L25 30L25 29L24 29L24 27L25 27L25 26L24 26L24 25L28 25L28 27L29 27L29 28L27 28L27 26L26 26L26 28L27 28L27 29L26 29L26 33L27 33L27 32L28 32L28 33L30 33L30 35L29 35L29 34L28 34L28 35L29 35L29 37L37 37L37 36L36 36L36 34L35 34L35 35L34 35L34 33L36 33L36 32L35 32L35 31L36 31L36 29L37 29L37 28L35 28L35 31L33 31L33 28L31 28L31 27L32 27L32 26L33 26L33 27L34 27L34 26L35 26L35 27L36 27L36 24L37 24L37 20L36 20L36 17L37 17L37 16L36 16L36 15L34 15L34 17L35 17L35 19L34 19L34 21L36 21L36 23L34 23L34 22L33 22L33 21L32 21L32 20L30 20L30 19L29 19L29 18L28 18L28 17L31 17L31 18L32 18L32 19L33 19L33 17L32 17L32 15L31 15L31 14L30 14L30 15L31 15L31 16L29 16L29 14L27 14L27 12L29 12L29 13L32 13L32 14L34 14L34 12L35 12L35 13L37 13L37 12L35 12L35 11L36 11L36 9L35 9L35 8L34 8L34 9L35 9L35 10L34 10L34 11L33 11L33 10L32 10L32 11L31 11L31 12L30 12L30 11L28 11L28 10L27 10L27 9L26 9L26 7L27 7L27 6L26 6L26 7L25 7L25 5L23 5L23 3L22 3L22 1L21 1L21 0ZM26 0L26 1L29 1L29 0ZM17 1L17 3L18 3L18 4L17 4L17 8L18 8L18 9L17 9L17 10L18 10L18 11L17 11L17 12L18 12L18 14L19 14L19 12L18 12L18 11L19 11L19 10L18 10L18 9L19 9L19 8L20 8L20 4L21 4L21 7L22 7L22 3L20 3L20 2L21 2L21 1L20 1L20 2L18 2L18 1ZM23 1L23 2L24 2L24 3L26 3L26 5L28 5L28 7L29 7L29 5L28 5L28 4L27 4L27 3L29 3L29 2L27 2L27 3L26 3L26 2L25 2L25 1ZM10 3L10 4L11 4L11 3ZM19 3L19 4L18 4L18 7L19 7L19 4L20 4L20 3ZM8 4L8 7L9 7L9 4ZM12 5L12 6L11 6L11 8L10 8L10 9L9 9L9 10L10 10L10 14L7 14L7 13L8 13L8 12L7 12L7 11L5 11L5 13L4 13L4 12L2 12L2 14L3 14L3 15L2 15L2 17L3 17L3 19L4 19L4 20L5 20L5 21L3 21L3 22L5 22L5 21L6 21L6 22L7 22L7 21L9 21L9 22L8 22L8 23L6 23L6 24L8 24L8 25L9 25L9 24L8 24L8 23L10 23L10 21L11 21L11 23L12 23L12 24L10 24L10 25L11 25L11 26L12 26L12 28L13 28L13 26L14 26L14 28L15 28L15 26L16 26L16 27L17 27L17 28L18 28L18 30L19 30L19 29L22 29L22 27L23 27L23 25L24 25L24 24L26 24L26 23L27 23L27 21L26 21L26 22L25 22L25 23L24 23L24 24L23 24L23 25L22 25L22 26L19 26L19 24L20 24L20 23L21 23L21 22L22 22L22 23L23 23L23 22L24 22L24 21L25 21L25 20L26 20L26 19L27 19L27 18L25 18L25 19L24 19L24 20L22 20L22 21L21 21L21 20L19 20L19 21L18 21L18 23L19 23L19 24L16 24L16 22L17 22L17 20L18 20L18 19L19 19L19 18L18 18L18 16L17 16L17 14L16 14L16 11L14 11L14 12L15 12L15 15L14 15L14 14L13 14L13 10L16 10L16 9L15 9L15 7L16 7L16 6L15 6L15 7L14 7L14 6L13 6L13 5ZM12 6L12 7L13 7L13 8L12 8L12 9L10 9L10 10L13 10L13 9L14 9L14 7L13 7L13 6ZM23 6L23 8L24 8L24 6ZM28 8L28 9L30 9L30 10L31 10L31 9L33 9L33 8L31 8L31 9L30 9L30 8ZM21 9L21 10L23 10L23 9ZM24 9L24 11L22 11L22 12L21 12L21 13L20 13L20 15L19 15L19 16L20 16L20 18L22 18L22 19L23 19L23 18L24 18L24 17L26 17L26 16L27 16L27 17L28 17L28 15L25 15L25 13L26 13L26 12L27 12L27 11L26 11L26 10L25 10L25 9ZM24 11L24 13L22 13L22 14L21 14L21 16L22 16L22 15L23 15L23 16L25 16L25 15L24 15L24 13L25 13L25 11ZM6 12L6 13L7 13L7 12ZM11 12L11 13L12 13L12 12ZM32 12L32 13L33 13L33 12ZM3 13L3 14L4 14L4 13ZM5 14L5 15L4 15L4 16L5 16L5 18L4 18L4 19L5 19L5 18L6 18L6 19L7 19L7 20L6 20L6 21L7 21L7 20L10 20L10 19L13 19L13 16L14 16L14 17L15 17L15 18L17 18L17 16L16 16L16 15L15 15L15 16L14 16L14 15L12 15L12 18L11 18L11 17L10 17L10 18L8 18L8 17L7 17L7 16L8 16L8 15L7 15L7 14ZM6 15L6 16L7 16L7 15ZM9 15L9 16L10 16L10 15ZM15 16L15 17L16 17L16 16ZM6 17L6 18L7 18L7 17ZM22 17L22 18L23 18L23 17ZM14 19L14 20L13 20L13 21L12 21L12 22L13 22L13 21L14 21L14 20L17 20L17 19ZM15 21L15 22L16 22L16 21ZM19 21L19 22L21 22L21 21ZM28 21L28 23L29 23L29 24L28 24L28 25L30 25L30 24L31 24L31 25L32 25L32 24L33 24L33 25L34 25L34 23L32 23L32 21ZM29 22L29 23L30 23L30 22ZM31 23L31 24L32 24L32 23ZM12 24L12 25L13 25L13 24ZM14 24L14 26L15 26L15 25L16 25L16 26L17 26L17 27L18 27L18 28L21 28L21 27L18 27L18 26L17 26L17 25L16 25L16 24ZM30 26L30 27L31 27L31 26ZM5 27L5 28L7 28L7 27ZM14 29L14 30L13 30L13 31L14 31L14 30L15 30L15 31L16 31L16 30L17 30L17 29ZM29 29L29 32L32 32L32 29ZM27 30L27 31L28 31L28 30ZM30 30L30 31L31 31L31 30ZM11 31L11 32L12 32L12 33L13 33L13 32L12 32L12 31ZM31 33L31 35L30 35L30 36L32 36L32 35L33 35L33 33ZM12 34L12 35L11 35L11 36L12 36L12 35L13 35L13 34ZM25 34L25 35L24 35L24 36L23 36L23 37L26 37L26 35L27 35L27 34ZM9 35L9 36L10 36L10 35ZM15 35L15 36L17 36L17 37L18 37L18 36L17 36L17 35ZM19 36L19 37L20 37L20 36ZM0 0L0 7L7 7L7 0ZM1 1L1 6L6 6L6 1ZM2 2L2 5L5 5L5 2ZM30 0L30 7L37 7L37 0ZM31 1L31 6L36 6L36 1ZM32 2L32 5L35 5L35 2ZM0 30L0 37L7 37L7 30ZM1 31L1 36L6 36L6 31ZM2 32L2 35L5 35L5 32Z" fill="#000000"/></g></g></svg>
