<?xml version="1.0" encoding="UTF-8"?>
<svg xmlns="http://www.w3.org/2000/svg" version="1.1" width="300" height="300" viewBox="0 0 300 300"><rect x="0" y="0" width="300" height="300" fill="#ffffff"/><g transform="scale(6.122)"><g transform="translate(0,0)"><path fill-rule="evenodd" d="M8 0L8 1L9 1L9 3L10 3L10 1L11 1L11 2L12 2L12 3L11 3L11 4L10 4L10 5L9 5L9 4L8 4L8 7L9 7L9 6L10 6L10 8L9 8L9 10L11 10L11 11L10 11L10 12L8 12L8 11L7 11L7 10L6 10L6 9L8 9L8 8L1 8L1 9L3 9L3 10L1 10L1 11L2 11L2 12L3 12L3 10L4 10L4 11L5 11L5 13L9 13L9 14L6 14L6 15L4 15L4 16L3 16L3 14L2 14L2 13L1 13L1 12L0 12L0 13L1 13L1 14L2 14L2 16L3 16L3 17L7 17L7 18L5 18L5 20L6 20L6 21L5 21L5 22L3 22L3 24L2 24L2 23L1 23L1 21L2 21L2 20L1 20L1 19L3 19L3 21L4 21L4 19L3 19L3 18L1 18L1 15L0 15L0 18L1 18L1 19L0 19L0 20L1 20L1 21L0 21L0 28L2 28L2 29L0 29L0 30L1 30L1 31L4 31L4 30L5 30L5 29L7 29L7 30L6 30L6 31L5 31L5 32L4 32L4 35L3 35L3 34L2 34L2 33L1 33L1 32L0 32L0 33L1 33L1 35L0 35L0 36L2 36L2 38L1 38L1 40L0 40L0 41L3 41L3 40L4 40L4 39L2 39L2 38L3 38L3 36L4 36L4 38L5 38L5 39L7 39L7 38L5 38L5 37L7 37L7 36L8 36L8 37L9 37L9 36L8 36L8 35L7 35L7 34L6 34L6 33L8 33L8 34L10 34L10 35L11 35L11 34L12 34L12 38L14 38L14 39L15 39L15 38L16 38L16 40L15 40L15 41L14 41L14 40L12 40L12 39L10 39L10 40L9 40L9 39L8 39L8 40L6 40L6 41L8 41L8 48L9 48L9 49L10 49L10 48L11 48L11 49L12 49L12 48L13 48L13 47L12 47L12 46L11 46L11 47L10 47L10 45L12 45L12 43L14 43L14 42L15 42L15 43L16 43L16 40L17 40L17 41L18 41L18 40L19 40L19 42L18 42L18 43L17 43L17 44L15 44L15 45L14 45L14 44L13 44L13 46L14 46L14 48L15 48L15 49L18 49L18 46L19 46L19 47L20 47L20 49L21 49L21 48L22 48L22 46L23 46L23 45L27 45L27 44L29 44L29 45L28 45L28 46L27 46L27 49L28 49L28 48L29 48L29 49L30 49L30 47L28 47L28 46L31 46L31 47L32 47L32 48L31 48L31 49L32 49L32 48L33 48L33 49L34 49L34 47L37 47L37 48L35 48L35 49L38 49L38 48L40 48L40 49L41 49L41 47L42 47L42 48L43 48L43 47L44 47L44 48L45 48L45 49L49 49L49 45L48 45L48 44L46 44L46 46L45 46L45 43L46 43L46 42L45 42L45 40L46 40L46 41L48 41L48 40L46 40L46 39L49 39L49 38L46 38L46 37L47 37L47 36L48 36L48 37L49 37L49 34L47 34L47 36L44 36L44 37L42 37L42 36L41 36L41 35L40 35L40 36L39 36L39 38L38 38L38 37L37 37L37 36L38 36L38 35L39 35L39 34L42 34L42 35L44 35L44 34L42 34L42 33L41 33L41 32L42 32L42 31L43 31L43 30L44 30L44 29L45 29L45 28L44 28L44 27L45 27L45 25L48 25L48 24L45 24L45 23L46 23L46 22L47 22L47 23L49 23L49 22L47 22L47 20L48 20L48 21L49 21L49 18L47 18L47 17L48 17L48 16L45 16L45 15L46 15L46 14L45 14L45 13L44 13L44 12L46 12L46 13L48 13L48 12L46 12L46 11L44 11L44 10L43 10L43 9L45 9L45 8L43 8L43 9L42 9L42 10L41 10L41 12L39 12L39 14L38 14L38 12L36 12L36 14L38 14L38 15L37 15L37 16L35 16L35 14L34 14L34 13L33 13L33 14L32 14L32 15L31 15L31 16L33 16L33 17L34 17L34 18L32 18L32 17L31 17L31 18L30 18L30 17L29 17L29 16L30 16L30 15L28 15L28 17L27 17L27 18L25 18L25 17L26 17L26 13L27 13L27 14L31 14L31 12L33 12L33 11L30 11L30 10L32 10L32 9L31 9L31 8L32 8L32 7L33 7L33 10L34 10L34 12L35 12L35 10L36 10L36 11L39 11L39 10L37 10L37 6L38 6L38 8L39 8L39 9L41 9L41 8L39 8L39 5L38 5L38 3L35 3L35 2L37 2L37 1L38 1L38 2L39 2L39 4L40 4L40 3L41 3L41 0L40 0L40 1L38 1L38 0L35 0L35 1L31 1L31 0L29 0L29 1L28 1L28 2L27 2L27 3L25 3L25 2L23 2L23 3L22 3L22 0L21 0L21 1L20 1L20 2L18 2L18 1L19 1L19 0L16 0L16 1L15 1L15 0ZM24 0L24 1L27 1L27 0ZM12 1L12 2L13 2L13 1ZM14 1L14 3L12 3L12 4L13 4L13 5L12 5L12 6L11 6L11 5L10 5L10 6L11 6L11 10L12 10L12 11L11 11L11 12L10 12L10 14L9 14L9 15L8 15L8 16L7 16L7 15L6 15L6 16L7 16L7 17L8 17L8 18L10 18L10 19L9 19L9 20L10 20L10 21L8 21L8 20L7 20L7 19L6 19L6 20L7 20L7 21L6 21L6 22L10 22L10 23L12 23L12 22L13 22L13 25L9 25L9 26L10 26L10 27L12 27L12 28L11 28L11 29L10 29L10 28L7 28L7 27L4 27L4 26L3 26L3 27L4 27L4 28L3 28L3 30L4 30L4 28L7 28L7 29L10 29L10 30L11 30L11 31L12 31L12 29L14 29L14 31L13 31L13 32L11 32L11 33L10 33L10 34L11 34L11 33L13 33L13 32L14 32L14 31L15 31L15 33L14 33L14 34L13 34L13 35L16 35L16 36L15 36L15 37L16 37L16 36L17 36L17 35L18 35L18 34L17 34L17 35L16 35L16 32L17 32L17 33L18 33L18 32L19 32L19 35L20 35L20 36L19 36L19 39L20 39L20 40L23 40L23 39L24 39L24 40L25 40L25 39L27 39L27 38L28 38L28 39L29 39L29 40L27 40L27 41L29 41L29 42L28 42L28 43L29 43L29 42L30 42L30 41L29 41L29 40L30 40L30 39L31 39L31 42L32 42L32 43L33 43L33 44L32 44L32 47L33 47L33 46L35 46L35 44L37 44L37 43L35 43L35 40L38 40L38 41L37 41L37 42L38 42L38 43L40 43L40 41L39 41L39 40L44 40L44 39L46 39L46 38L45 38L45 37L44 37L44 39L38 39L38 38L37 38L37 39L34 39L34 40L32 40L32 39L33 39L33 38L35 38L35 37L36 37L36 36L37 36L37 34L39 34L39 32L40 32L40 31L41 31L41 30L42 30L42 29L41 29L41 27L40 27L40 24L39 24L39 23L40 23L40 22L41 22L41 21L42 21L42 17L43 17L43 16L42 16L42 15L43 15L43 14L41 14L41 13L40 13L40 14L41 14L41 16L39 16L39 17L40 17L40 18L37 18L37 17L38 17L38 16L37 16L37 17L35 17L35 18L34 18L34 20L32 20L32 19L30 19L30 18L29 18L29 17L28 17L28 20L27 20L27 19L25 19L25 18L23 18L23 17L25 17L25 13L26 13L26 12L29 12L29 13L30 13L30 12L29 12L29 11L28 11L28 10L30 10L30 9L28 9L28 8L29 8L29 7L30 7L30 6L31 6L31 7L32 7L32 6L33 6L33 7L34 7L34 8L35 8L35 9L34 9L34 10L35 10L35 9L36 9L36 8L35 8L35 7L36 7L36 6L37 6L37 4L33 4L33 3L34 3L34 2L33 2L33 3L32 3L32 2L31 2L31 1L29 1L29 2L30 2L30 4L32 4L32 5L30 5L30 6L29 6L29 3L27 3L27 7L28 7L28 8L27 8L27 9L26 9L26 10L27 10L27 11L26 11L26 12L23 12L23 13L24 13L24 14L23 14L23 15L22 15L22 14L21 14L21 15L20 15L20 12L21 12L21 11L22 11L22 10L23 10L23 11L24 11L24 10L25 10L25 9L24 9L24 10L23 10L23 9L22 9L22 4L19 4L19 5L18 5L18 2L17 2L17 1L16 1L16 3L17 3L17 5L16 5L16 6L15 6L15 4L14 4L14 3L15 3L15 1ZM24 3L24 4L25 4L25 3ZM17 5L17 6L16 6L16 7L15 7L15 6L14 6L14 8L13 8L13 9L14 9L14 8L15 8L15 9L17 9L17 10L14 10L14 11L13 11L13 12L14 12L14 13L11 13L11 14L10 14L10 16L11 16L11 17L10 17L10 18L12 18L12 19L15 19L15 18L12 18L12 17L14 17L14 16L13 16L13 15L11 15L11 14L14 14L14 13L15 13L15 17L16 17L16 14L17 14L17 15L19 15L19 18L20 18L20 19L22 19L22 20L23 20L23 21L22 21L22 23L21 23L21 24L19 24L19 25L20 25L20 26L19 26L19 27L18 27L18 28L20 28L20 27L24 27L24 29L23 29L23 28L22 28L22 29L23 29L23 30L25 30L25 31L26 31L26 33L25 33L25 34L26 34L26 36L27 36L27 37L28 37L28 36L33 36L33 37L34 37L34 36L33 36L33 35L35 35L35 36L36 36L36 34L33 34L33 33L34 33L34 32L31 32L31 31L32 31L32 28L33 28L33 29L34 29L34 28L33 28L33 25L32 25L32 24L33 24L33 23L34 23L34 25L36 25L36 26L34 26L34 27L35 27L35 30L33 30L33 31L35 31L35 30L36 30L36 32L35 32L35 33L36 33L36 32L37 32L37 30L38 30L38 32L39 32L39 31L40 31L40 30L41 30L41 29L40 29L40 28L38 28L38 29L37 29L37 28L36 28L36 26L37 26L37 24L38 24L38 23L39 23L39 22L38 22L38 23L37 23L37 21L41 21L41 20L40 20L40 19L37 19L37 18L36 18L36 19L37 19L37 20L36 20L36 21L35 21L35 22L33 22L33 21L32 21L32 22L31 22L31 20L30 20L30 19L29 19L29 21L27 21L27 22L26 22L26 21L25 21L25 19L24 19L24 20L23 20L23 19L22 19L22 18L20 18L20 15L19 15L19 12L18 12L18 11L17 11L17 10L18 10L18 9L17 9L17 6L18 6L18 7L19 7L19 6L18 6L18 5ZM20 5L20 8L21 8L21 5ZM23 5L23 8L26 8L26 5ZM33 5L33 6L34 6L34 7L35 7L35 5ZM12 6L12 7L13 7L13 6ZM24 6L24 7L25 7L25 6ZM28 6L28 7L29 7L29 6ZM40 6L40 7L41 7L41 6ZM48 8L48 9L46 9L46 10L48 10L48 11L49 11L49 10L48 10L48 9L49 9L49 8ZM4 9L4 10L5 10L5 11L6 11L6 12L7 12L7 11L6 11L6 10L5 10L5 9ZM19 9L19 11L21 11L21 10L20 10L20 9ZM42 10L42 11L43 11L43 12L42 12L42 13L43 13L43 12L44 12L44 11L43 11L43 10ZM15 11L15 13L16 13L16 12L17 12L17 11ZM17 13L17 14L18 14L18 13ZM33 14L33 16L34 16L34 14ZM47 14L47 15L49 15L49 14ZM23 15L23 16L22 16L22 17L23 17L23 16L24 16L24 15ZM17 16L17 17L18 17L18 16ZM41 16L41 17L42 17L42 16ZM44 16L44 17L45 17L45 16ZM16 18L16 20L15 20L15 21L14 21L14 22L15 22L15 21L16 21L16 24L15 24L15 23L14 23L14 25L13 25L13 26L12 26L12 27L13 27L13 26L14 26L14 25L15 25L15 27L14 27L14 28L15 28L15 27L16 27L16 29L17 29L17 30L18 30L18 31L22 31L22 32L20 32L20 35L21 35L21 33L22 33L22 34L23 34L23 33L24 33L24 31L22 31L22 30L20 30L20 29L19 29L19 30L18 30L18 29L17 29L17 27L16 27L16 24L17 24L17 23L18 23L18 22L19 22L19 23L20 23L20 22L21 22L21 20L20 20L20 22L19 22L19 21L18 21L18 22L17 22L17 20L19 20L19 19L18 19L18 18ZM46 18L46 19L45 19L45 20L44 20L44 21L43 21L43 22L46 22L46 20L47 20L47 18ZM10 19L10 20L11 20L11 22L12 22L12 21L13 21L13 20L11 20L11 19ZM23 21L23 22L25 22L25 21ZM28 22L28 23L27 23L27 24L28 24L28 25L27 25L27 26L28 26L28 27L27 27L27 28L28 28L28 32L27 32L27 33L28 33L28 32L29 32L29 31L31 31L31 30L29 30L29 28L30 28L30 29L31 29L31 28L32 28L32 27L31 27L31 26L29 26L29 25L30 25L30 24L29 24L29 22ZM30 22L30 23L31 23L31 24L32 24L32 23L33 23L33 22L32 22L32 23L31 23L31 22ZM5 23L5 26L8 26L8 23ZM23 23L23 26L26 26L26 23ZM35 23L35 24L37 24L37 23ZM41 23L41 26L44 26L44 23ZM1 24L1 27L2 27L2 24ZM3 24L3 25L4 25L4 24ZM6 24L6 25L7 25L7 24ZM21 24L21 25L22 25L22 24ZM24 24L24 25L25 25L25 24ZM42 24L42 25L43 25L43 24ZM17 25L17 26L18 26L18 25ZM38 26L38 27L39 27L39 26ZM46 26L46 27L48 27L48 28L46 28L46 31L47 31L47 29L49 29L49 26ZM28 27L28 28L29 28L29 27ZM30 27L30 28L31 28L31 27ZM42 27L42 28L43 28L43 29L44 29L44 28L43 28L43 27ZM25 28L25 29L26 29L26 31L27 31L27 29L26 29L26 28ZM38 29L38 30L39 30L39 29ZM7 30L7 31L6 31L6 32L8 32L8 30ZM48 30L48 31L49 31L49 30ZM44 31L44 32L43 32L43 33L47 33L47 32L45 32L45 31ZM48 32L48 33L49 33L49 32ZM31 33L31 34L29 34L29 35L31 35L31 34L32 34L32 33ZM5 34L5 35L4 35L4 36L5 36L5 35L6 35L6 36L7 36L7 35L6 35L6 34ZM27 34L27 36L28 36L28 34ZM45 34L45 35L46 35L46 34ZM2 35L2 36L3 36L3 35ZM23 35L23 36L22 36L22 39L23 39L23 36L24 36L24 39L25 39L25 38L26 38L26 37L25 37L25 36L24 36L24 35ZM10 36L10 37L11 37L11 36ZM13 36L13 37L14 37L14 36ZM20 36L20 39L21 39L21 36ZM40 36L40 37L41 37L41 36ZM29 37L29 38L32 38L32 37ZM17 38L17 39L18 39L18 38ZM8 40L8 41L9 41L9 40ZM10 41L10 42L9 42L9 44L10 44L10 42L11 42L11 43L12 43L12 41ZM13 41L13 42L14 42L14 41ZM23 41L23 44L26 44L26 41ZM33 41L33 42L34 42L34 41ZM41 41L41 44L44 44L44 41ZM20 42L20 43L21 43L21 45L22 45L22 42ZM24 42L24 43L25 43L25 42ZM42 42L42 43L43 43L43 42ZM47 42L47 43L49 43L49 42ZM34 43L34 44L33 44L33 45L34 45L34 44L35 44L35 43ZM17 44L17 45L16 45L16 46L15 46L15 48L16 48L16 46L17 46L17 45L18 45L18 44ZM19 45L19 46L20 46L20 47L21 47L21 46L20 46L20 45ZM38 45L38 46L37 46L37 47L38 47L38 46L39 46L39 47L40 47L40 46L42 46L42 45L40 45L40 46L39 46L39 45ZM43 45L43 46L44 46L44 47L45 47L45 48L48 48L48 47L47 47L47 46L46 46L46 47L45 47L45 46L44 46L44 45ZM24 46L24 47L23 47L23 48L24 48L24 49L25 49L25 48L26 48L26 47L25 47L25 46ZM24 47L24 48L25 48L25 47ZM0 0L0 7L7 7L7 0ZM1 1L1 6L6 6L6 1ZM2 2L2 5L5 5L5 2ZM42 0L42 7L49 7L49 0ZM43 1L43 6L48 6L48 1ZM44 2L44 5L47 5L47 2ZM0 42L0 49L7 49L7 42ZM1 43L1 48L6 48L6 43ZM2 44L2 47L5 47L5 44Z" fill="#000000"/></g></g></svg>
