<?xml version="1.0" encoding="UTF-8"?>
<svg xmlns="http://www.w3.org/2000/svg" version="1.1" width="300" height="300" viewBox="0 0 300 300"><rect x="0" y="0" width="300" height="300" fill="#ffffff"/><g transform="scale(8.108)"><g transform="translate(0,0)"><path fill-rule="evenodd" d="M8 0L8 1L9 1L9 2L8 2L8 4L9 4L9 5L8 5L8 8L5 8L5 11L3 11L3 12L4 12L4 14L5 14L5 17L4 17L4 18L3 18L3 17L2 17L2 20L1 20L1 19L0 19L0 21L1 21L1 22L0 22L0 23L2 23L2 22L3 22L3 21L4 21L4 22L5 22L5 23L3 23L3 24L2 24L2 25L4 25L4 24L5 24L5 25L7 25L7 26L6 26L6 27L8 27L8 28L9 28L9 27L10 27L10 28L11 28L11 27L13 27L13 26L11 26L11 27L10 27L10 26L8 26L8 24L6 24L6 23L7 23L7 22L6 22L6 21L8 21L8 23L9 23L9 22L10 22L10 21L12 21L12 22L11 22L11 23L10 23L10 24L9 24L9 25L11 25L11 23L13 23L13 25L15 25L15 26L16 26L16 25L17 25L17 27L19 27L19 29L20 29L20 30L19 30L19 31L18 31L18 32L20 32L20 33L19 33L19 35L18 35L18 36L16 36L16 35L17 35L17 34L18 34L18 33L16 33L16 31L15 31L15 34L16 34L16 35L14 35L14 34L12 34L12 35L11 35L11 33L10 33L10 32L12 32L12 31L13 31L13 33L14 33L14 30L13 30L13 29L8 29L8 32L9 32L9 33L8 33L8 34L10 34L10 35L8 35L8 36L10 36L10 37L12 37L12 36L13 36L13 37L15 37L15 36L16 36L16 37L18 37L18 36L22 36L22 37L25 37L25 33L27 33L27 32L28 32L28 33L32 33L32 34L31 34L31 35L33 35L33 36L31 36L31 37L34 37L34 35L33 35L33 28L32 28L32 26L28 26L28 25L29 25L29 24L30 24L30 25L34 25L34 22L33 22L33 23L32 23L32 22L31 22L31 20L29 20L29 19L32 19L32 18L34 18L34 17L35 17L35 18L36 18L36 19L33 19L33 20L32 20L32 21L34 21L34 20L36 20L36 21L35 21L35 23L36 23L36 24L35 24L35 25L36 25L36 26L35 26L35 27L34 27L34 28L35 28L35 27L36 27L36 29L35 29L35 30L34 30L34 32L35 32L35 30L36 30L36 31L37 31L37 25L36 25L36 24L37 24L37 23L36 23L36 21L37 21L37 20L36 20L36 19L37 19L37 16L36 16L36 15L37 15L37 8L36 8L36 9L35 9L35 8L33 8L33 9L32 9L32 8L29 8L29 6L28 6L28 4L29 4L29 3L26 3L26 2L29 2L29 0L27 0L27 1L26 1L26 0L25 0L25 4L26 4L26 5L27 5L27 6L26 6L26 7L25 7L25 6L24 6L24 5L23 5L23 4L18 4L18 3L19 3L19 2L17 2L17 1L19 1L19 0L16 0L16 1L15 1L15 0L14 0L14 1L15 1L15 3L17 3L17 4L16 4L16 5L15 5L15 4L14 4L14 5L13 5L13 1L12 1L12 0ZM20 0L20 3L21 3L21 0ZM22 0L22 2L23 2L23 0ZM10 1L10 3L9 3L9 4L10 4L10 5L9 5L9 7L10 7L10 8L11 8L11 9L9 9L9 11L8 11L8 9L6 9L6 10L7 10L7 11L5 11L5 13L6 13L6 14L7 14L7 15L6 15L6 16L7 16L7 15L9 15L9 14L10 14L10 15L12 15L12 16L8 16L8 19L10 19L10 18L9 18L9 17L11 17L11 20L15 20L15 19L16 19L16 21L17 21L17 22L15 22L15 21L13 21L13 22L15 22L15 23L18 23L18 24L17 24L17 25L18 25L18 26L22 26L22 27L21 27L21 28L20 28L20 29L21 29L21 30L22 30L22 31L20 31L20 32L21 32L21 33L20 33L20 35L23 35L23 32L22 32L22 31L25 31L25 32L26 32L26 31L27 31L27 30L28 30L28 29L27 29L27 28L28 28L28 27L27 27L27 28L25 28L25 27L26 27L26 26L25 26L25 25L26 25L26 24L27 24L27 25L28 25L28 24L29 24L29 23L30 23L30 24L31 24L31 23L30 23L30 21L29 21L29 20L28 20L28 21L27 21L27 20L26 20L26 18L25 18L25 17L26 17L26 16L25 16L25 14L27 14L27 15L28 15L28 16L27 16L27 19L28 19L28 18L30 18L30 17L28 17L28 16L31 16L31 15L34 15L34 16L35 16L35 15L36 15L36 14L35 14L35 15L34 15L34 13L33 13L33 10L32 10L32 9L30 9L30 10L29 10L29 8L28 8L28 6L27 6L27 7L26 7L26 8L24 8L24 6L23 6L23 5L22 5L22 6L21 6L21 7L20 7L20 6L19 6L19 7L18 7L18 5L17 5L17 7L16 7L16 6L15 6L15 7L14 7L14 6L13 6L13 5L11 5L11 4L12 4L12 2L11 2L11 1ZM10 3L10 4L11 4L11 3ZM10 6L10 7L11 7L11 6ZM12 6L12 7L13 7L13 8L12 8L12 9L13 9L13 10L14 10L14 11L13 11L13 12L12 12L12 13L11 13L11 11L9 11L9 13L10 13L10 14L12 14L12 15L13 15L13 14L14 14L14 16L12 16L12 17L13 17L13 19L15 19L15 18L16 18L16 19L18 19L18 21L19 21L19 22L18 22L18 23L19 23L19 24L20 24L20 25L22 25L22 26L23 26L23 27L25 27L25 26L23 26L23 25L22 25L22 24L23 24L23 22L24 22L24 19L23 19L23 17L21 17L21 18L22 18L22 19L20 19L20 16L19 16L19 15L21 15L21 16L23 16L23 15L24 15L24 14L22 14L22 13L24 13L24 12L23 12L23 11L18 11L18 14L17 14L17 13L15 13L15 14L14 14L14 13L13 13L13 12L14 12L14 11L15 11L15 10L17 10L17 9L18 9L18 8L17 8L17 9L15 9L15 8L16 8L16 7L15 7L15 8L14 8L14 7L13 7L13 6ZM22 6L22 7L21 7L21 9L20 9L20 7L19 7L19 9L20 9L20 10L23 10L23 6ZM1 8L1 9L0 9L0 11L1 11L1 12L2 12L2 10L4 10L4 8L3 8L3 9L2 9L2 8ZM13 8L13 9L14 9L14 8ZM26 8L26 9L27 9L27 10L25 10L25 13L27 13L27 14L31 14L31 13L32 13L32 12L31 12L31 11L32 11L32 10L30 10L30 12L28 12L28 11L29 11L29 10L28 10L28 9L27 9L27 8ZM1 9L1 10L2 10L2 9ZM34 9L34 12L36 12L36 11L35 11L35 9ZM27 10L27 11L26 11L26 12L27 12L27 13L28 13L28 12L27 12L27 11L28 11L28 10ZM7 11L7 12L6 12L6 13L7 13L7 14L8 14L8 11ZM21 12L21 13L19 13L19 14L18 14L18 15L19 15L19 14L21 14L21 15L22 15L22 14L21 14L21 13L22 13L22 12ZM0 13L0 14L2 14L2 13ZM2 15L2 16L4 16L4 15ZM0 16L0 17L1 17L1 16ZM15 16L15 17L14 17L14 18L15 18L15 17L16 17L16 18L19 18L19 17L18 17L18 16ZM32 16L32 17L33 17L33 16ZM6 17L6 18L4 18L4 19L6 19L6 20L4 20L4 21L6 21L6 20L7 20L7 19L6 19L6 18L7 18L7 17ZM22 19L22 20L23 20L23 19ZM2 20L2 21L3 21L3 20ZM8 20L8 21L9 21L9 20ZM22 21L22 22L20 22L20 23L22 23L22 22L23 22L23 21ZM25 21L25 24L26 24L26 23L27 23L27 21ZM0 24L0 25L1 25L1 24ZM0 26L0 27L1 27L1 28L0 28L0 29L7 29L7 28L5 28L5 26L4 26L4 27L3 27L3 26L2 26L2 27L1 27L1 26ZM2 27L2 28L3 28L3 27ZM15 27L15 29L16 29L16 30L18 30L18 29L17 29L17 28L16 28L16 27ZM22 28L22 29L23 29L23 30L25 30L25 28L24 28L24 29L23 29L23 28ZM26 29L26 30L27 30L27 29ZM29 29L29 32L32 32L32 29ZM10 30L10 31L11 31L11 30ZM30 30L30 31L31 31L31 30ZM21 33L21 34L22 34L22 33ZM35 33L35 34L36 34L36 35L37 35L37 33ZM28 34L28 37L29 37L29 34ZM10 35L10 36L11 36L11 35ZM26 35L26 36L27 36L27 35ZM35 36L35 37L37 37L37 36ZM0 0L0 7L7 7L7 0ZM1 1L1 6L6 6L6 1ZM2 2L2 5L5 5L5 2ZM30 0L30 7L37 7L37 0ZM31 1L31 6L36 6L36 1ZM32 2L32 5L35 5L35 2ZM0 30L0 37L7 37L7 30ZM1 31L1 36L6 36L6 31ZM2 32L2 35L5 35L5 32Z" fill="#000000"/></g></g></svg>
