<?xml version="1.0" encoding="UTF-8"?>
<svg xmlns="http://www.w3.org/2000/svg" version="1.1" width="300" height="300" viewBox="0 0 300 300"><rect x="0" y="0" width="300" height="300" fill="#ffffff"/><g transform="scale(8.108)"><g transform="translate(0,0)"><path fill-rule="evenodd" d="M8 0L8 1L10 1L10 0ZM11 0L11 1L12 1L12 0ZM17 0L17 1L19 1L19 0ZM25 0L25 1L23 1L23 2L22 2L22 1L20 1L20 3L19 3L19 2L18 2L18 3L19 3L19 4L18 4L18 5L15 5L15 4L16 4L16 3L17 3L17 2L16 2L16 1L14 1L14 2L11 2L11 4L10 4L10 3L9 3L9 4L8 4L8 7L9 7L9 6L10 6L10 7L11 7L11 8L14 8L14 9L13 9L13 11L12 11L12 10L11 10L11 9L10 9L10 8L9 8L9 9L8 9L8 8L1 8L1 10L0 10L0 11L1 11L1 12L0 12L0 13L1 13L1 12L2 12L2 14L1 14L1 15L0 15L0 19L1 19L1 20L3 20L3 21L0 21L0 29L1 29L1 24L2 24L2 25L3 25L3 23L4 23L4 24L6 24L6 25L8 25L8 24L6 24L6 23L8 23L8 22L6 22L6 21L8 21L8 20L9 20L9 19L10 19L10 22L9 22L9 23L13 23L13 22L17 22L17 25L16 25L16 24L15 24L15 26L14 26L14 24L13 24L13 25L12 25L12 24L9 24L9 29L8 29L8 27L7 27L7 26L6 26L6 27L5 27L5 26L2 26L2 27L3 27L3 28L5 28L5 29L8 29L8 36L9 36L9 34L10 34L10 37L15 37L15 36L16 36L16 37L17 37L17 36L19 36L19 35L14 35L14 36L12 36L12 35L13 35L13 33L11 33L11 32L14 32L14 33L15 33L15 34L17 34L17 33L18 33L18 34L19 34L19 33L21 33L21 34L20 34L20 35L21 35L21 36L20 36L20 37L22 37L22 36L23 36L23 37L25 37L25 36L26 36L26 37L27 37L27 36L29 36L29 35L30 35L30 36L32 36L32 35L30 35L30 34L33 34L33 36L34 36L34 37L37 37L37 34L36 34L36 36L34 36L34 35L35 35L35 34L33 34L33 33L36 33L36 32L37 32L37 30L36 30L36 29L37 29L37 26L35 26L35 25L36 25L36 24L34 24L34 23L36 23L36 22L37 22L37 18L35 18L35 17L37 17L37 14L36 14L36 13L37 13L37 12L36 12L36 11L37 11L37 10L36 10L36 9L37 9L37 8L36 8L36 9L35 9L35 10L36 10L36 11L35 11L35 12L36 12L36 13L35 13L35 14L36 14L36 16L34 16L34 15L33 15L33 16L32 16L32 14L31 14L31 15L30 15L30 13L33 13L33 12L34 12L34 11L33 11L33 10L34 10L34 9L33 9L33 8L31 8L31 9L30 9L30 11L31 11L31 12L30 12L30 13L29 13L29 15L28 15L28 11L29 11L29 10L28 10L28 9L29 9L29 6L28 6L28 5L29 5L29 4L28 4L28 3L29 3L29 2L28 2L28 1L29 1L29 0L28 0L28 1L26 1L26 0ZM15 2L15 3L14 3L14 4L15 4L15 3L16 3L16 2ZM24 2L24 3L25 3L25 4L23 4L23 3L21 3L21 4L23 4L23 5L22 5L22 6L21 6L21 5L18 5L18 6L17 6L17 8L19 8L19 9L17 9L17 10L16 10L16 11L15 11L15 10L14 10L14 11L13 11L13 12L14 12L14 14L12 14L12 13L11 13L11 10L10 10L10 13L9 13L9 14L8 14L8 13L3 13L3 15L2 15L2 16L1 16L1 17L2 17L2 18L1 18L1 19L4 19L4 20L5 20L5 21L6 21L6 20L7 20L7 19L6 19L6 18L8 18L8 16L9 16L9 15L10 15L10 13L11 13L11 15L14 15L14 18L12 18L12 17L11 17L11 16L10 16L10 17L9 17L9 18L10 18L10 19L14 19L14 21L16 21L16 20L18 20L18 19L17 19L17 18L15 18L15 17L18 17L18 16L19 16L19 18L20 18L20 16L21 16L21 15L19 15L19 14L16 14L16 13L17 13L17 11L18 11L18 13L21 13L21 9L23 9L23 7L24 7L24 9L25 9L25 12L22 12L22 13L25 13L25 14L22 14L22 15L24 15L24 16L22 16L22 17L23 17L23 19L22 19L22 20L20 20L20 21L21 21L21 22L22 22L22 23L23 23L23 25L22 25L22 24L21 24L21 23L20 23L20 22L19 22L19 21L17 21L17 22L18 22L18 25L19 25L19 24L20 24L20 25L21 25L21 26L19 26L19 27L18 27L18 26L17 26L17 27L16 27L16 28L15 28L15 32L16 32L16 33L17 33L17 31L18 31L18 33L19 33L19 32L20 32L20 30L21 30L21 32L23 32L23 33L22 33L22 35L23 35L23 34L25 34L25 33L24 33L24 32L26 32L26 30L23 30L23 29L25 29L25 28L26 28L26 29L27 29L27 31L28 31L28 27L29 27L29 28L30 28L30 26L27 26L27 28L26 28L26 26L23 26L23 25L27 25L27 24L28 24L28 25L30 25L30 24L28 24L28 23L30 23L30 22L32 22L32 25L31 25L31 26L32 26L32 27L31 27L31 28L34 28L34 31L33 31L33 32L35 32L35 31L36 31L36 30L35 30L35 28L36 28L36 27L35 27L35 28L34 28L34 27L33 27L33 26L34 26L34 24L33 24L33 23L34 23L34 22L36 22L36 21L34 21L34 20L36 20L36 19L35 19L35 18L34 18L34 20L33 20L33 19L32 19L32 20L33 20L33 21L29 21L29 20L30 20L30 19L29 19L29 18L33 18L33 17L34 17L34 16L33 16L33 17L32 17L32 16L31 16L31 17L27 17L27 16L28 16L28 15L27 15L27 12L26 12L26 10L27 10L27 9L26 9L26 8L28 8L28 6L27 6L27 7L26 7L26 6L25 6L25 7L24 7L24 6L23 6L23 5L25 5L25 4L26 4L26 5L28 5L28 4L26 4L26 3L27 3L27 2L26 2L26 3L25 3L25 2ZM11 4L11 5L10 5L10 6L11 6L11 7L12 7L12 6L13 6L13 7L14 7L14 8L15 8L15 9L16 9L16 8L15 8L15 7L16 7L16 6L15 6L15 5L13 5L13 4ZM11 5L11 6L12 6L12 5ZM14 6L14 7L15 7L15 6ZM18 6L18 7L19 7L19 6ZM20 6L20 7L21 7L21 8L20 8L20 9L19 9L19 10L18 10L18 11L19 11L19 12L20 12L20 9L21 9L21 8L22 8L22 7L23 7L23 6L22 6L22 7L21 7L21 6ZM25 7L25 8L26 8L26 7ZM4 9L4 10L5 10L5 9ZM6 9L6 10L7 10L7 11L6 11L6 12L8 12L8 9ZM1 10L1 11L2 11L2 10ZM22 10L22 11L24 11L24 10ZM31 10L31 11L32 11L32 10ZM14 11L14 12L15 12L15 13L16 13L16 12L15 12L15 11ZM25 12L25 13L26 13L26 12ZM4 14L4 15L5 15L5 14ZM6 14L6 15L7 15L7 16L5 16L5 18L4 18L4 19L5 19L5 20L6 20L6 19L5 19L5 18L6 18L6 17L7 17L7 16L8 16L8 15L7 15L7 14ZM14 14L14 15L15 15L15 16L17 16L17 15L16 15L16 14ZM26 15L26 16L25 16L25 17L24 17L24 18L25 18L25 17L26 17L26 16L27 16L27 15ZM3 16L3 17L4 17L4 16ZM10 17L10 18L11 18L11 17ZM14 18L14 19L15 19L15 20L16 20L16 19L15 19L15 18ZM27 18L27 19L26 19L26 20L27 20L27 21L26 21L26 22L27 22L27 23L26 23L26 24L27 24L27 23L28 23L28 22L29 22L29 21L28 21L28 20L27 20L27 19L28 19L28 18ZM24 19L24 20L25 20L25 19ZM11 20L11 21L13 21L13 20ZM3 21L3 22L1 22L1 23L3 23L3 22L4 22L4 21ZM24 21L24 22L25 22L25 21ZM27 21L27 22L28 22L28 21ZM33 21L33 22L34 22L34 21ZM5 22L5 23L6 23L6 22ZM24 23L24 24L25 24L25 23ZM10 26L10 27L11 27L11 28L12 28L12 30L11 30L11 29L10 29L10 30L9 30L9 31L10 31L10 32L9 32L9 33L10 33L10 32L11 32L11 31L13 31L13 30L14 30L14 29L13 29L13 27L14 27L14 26ZM22 26L22 27L23 27L23 26ZM6 27L6 28L7 28L7 27ZM17 27L17 30L20 30L20 29L23 29L23 28L21 28L21 27L19 27L19 28L18 28L18 27ZM24 27L24 28L25 28L25 27ZM29 29L29 32L32 32L32 29ZM10 30L10 31L11 31L11 30ZM22 30L22 31L23 31L23 30ZM30 30L30 31L31 31L31 30ZM26 33L26 34L28 34L28 35L29 35L29 34L30 34L30 33L29 33L29 34L28 34L28 33ZM11 34L11 35L12 35L12 34ZM24 35L24 36L25 36L25 35ZM26 35L26 36L27 36L27 35ZM0 0L0 7L7 7L7 0ZM1 1L1 6L6 6L6 1ZM2 2L2 5L5 5L5 2ZM30 0L30 7L37 7L37 0ZM31 1L31 6L36 6L36 1ZM32 2L32 5L35 5L35 2ZM0 30L0 37L7 37L7 30ZM1 31L1 36L6 36L6 31ZM2 32L2 35L5 35L5 32Z" fill="#000000"/></g></g></svg>
