<?xml version="1.0" encoding="UTF-8"?>
<svg xmlns="http://www.w3.org/2000/svg" version="1.1" width="300" height="300" viewBox="0 0 300 300"><rect x="0" y="0" width="300" height="300" fill="#ffffff"/><g transform="scale(8.108)"><g transform="translate(0,0)"><path fill-rule="evenodd" d="M8 0L8 1L9 1L9 0ZM11 0L11 1L12 1L12 0ZM13 0L13 1L14 1L14 2L17 2L17 3L18 3L18 1L19 1L19 0L18 0L18 1L17 1L17 0L16 0L16 1L15 1L15 0ZM21 0L21 1L20 1L20 3L19 3L19 6L18 6L18 5L17 5L17 4L16 4L16 3L15 3L15 4L13 4L13 5L12 5L12 3L13 3L13 2L10 2L10 3L9 3L9 4L8 4L8 7L9 7L9 10L8 10L8 11L7 11L7 10L5 10L5 12L4 12L4 9L8 9L8 8L1 8L1 10L0 10L0 12L1 12L1 13L0 13L0 14L1 14L1 15L0 15L0 16L2 16L2 15L3 15L3 18L2 18L2 17L1 17L1 18L0 18L0 20L3 20L3 21L0 21L0 29L1 29L1 24L2 24L2 25L3 25L3 24L2 24L2 23L1 23L1 22L3 22L3 21L4 21L4 22L6 22L6 23L8 23L8 24L5 24L5 23L4 23L4 24L5 24L5 26L6 26L6 27L7 27L7 26L9 26L9 27L8 27L8 28L6 28L6 29L8 29L8 36L10 36L10 37L12 37L12 35L13 35L13 33L15 33L15 34L16 34L16 35L19 35L19 33L18 33L18 31L16 31L16 30L12 30L12 31L11 31L11 30L10 30L10 29L8 29L8 28L12 28L12 29L13 29L13 28L14 28L14 27L15 27L15 28L16 28L16 27L18 27L18 28L17 28L17 30L18 30L18 29L19 29L19 28L20 28L20 30L19 30L19 32L20 32L20 33L21 33L21 34L20 34L20 35L21 35L21 36L20 36L20 37L22 37L22 36L23 36L23 37L25 37L25 36L26 36L26 37L28 37L28 36L29 36L29 35L30 35L30 36L31 36L31 37L32 37L32 34L34 34L34 35L35 35L35 34L34 34L34 33L36 33L36 32L37 32L37 30L36 30L36 29L37 29L37 28L35 28L35 27L37 27L37 26L35 26L35 25L36 25L36 24L33 24L33 25L34 25L34 26L33 26L33 27L34 27L34 28L31 28L31 27L32 27L32 26L31 26L31 25L32 25L32 24L31 24L31 23L32 23L32 21L33 21L33 22L35 22L35 23L36 23L36 22L37 22L37 18L36 18L36 17L37 17L37 14L34 14L34 15L33 15L33 16L32 16L32 15L30 15L30 14L29 14L29 15L28 15L28 11L30 11L30 12L29 12L29 13L31 13L31 14L32 14L32 13L33 13L33 12L34 12L34 11L33 11L33 10L34 10L34 9L33 9L33 8L31 8L31 9L30 9L30 10L28 10L28 9L29 9L29 8L26 8L26 7L27 7L27 6L28 6L28 7L29 7L29 5L26 5L26 4L29 4L29 2L28 2L28 1L29 1L29 0L28 0L28 1L26 1L26 0L25 0L25 1L23 1L23 2L22 2L22 0ZM24 2L24 3L25 3L25 4L23 4L23 3L20 3L20 5L21 5L21 4L23 4L23 5L25 5L25 4L26 4L26 3L28 3L28 2L26 2L26 3L25 3L25 2ZM10 4L10 5L9 5L9 7L10 7L10 10L12 10L12 11L11 11L11 14L13 14L13 18L12 18L12 17L11 17L11 16L12 16L12 15L11 15L11 16L10 16L10 17L9 17L9 18L10 18L10 20L8 20L8 23L9 23L9 24L8 24L8 25L9 25L9 26L10 26L10 27L12 27L12 28L13 28L13 26L15 26L15 24L16 24L16 25L17 25L17 26L18 26L18 27L20 27L20 26L21 26L21 28L23 28L23 29L21 29L21 30L20 30L20 31L21 31L21 32L23 32L23 33L22 33L22 35L23 35L23 34L25 34L25 33L24 33L24 32L26 32L26 30L27 30L27 31L28 31L28 27L29 27L29 28L30 28L30 27L29 27L29 26L27 26L27 29L26 29L26 30L25 30L25 29L24 29L24 28L26 28L26 26L25 26L25 25L27 25L27 24L26 24L26 23L27 23L27 22L28 22L28 23L30 23L30 22L31 22L31 21L32 21L32 20L33 20L33 21L34 21L34 20L36 20L36 18L35 18L35 17L34 17L34 16L36 16L36 15L34 15L34 16L33 16L33 17L32 17L32 16L31 16L31 17L29 17L29 16L28 16L28 15L25 15L25 16L22 16L22 17L23 17L23 20L20 20L20 21L22 21L22 22L21 22L21 23L20 23L20 22L18 22L18 23L17 23L17 21L19 21L19 19L18 19L18 20L16 20L16 18L14 18L14 17L15 17L15 16L16 16L16 17L18 17L18 16L19 16L19 18L20 18L20 14L21 14L21 13L20 13L20 12L21 12L21 10L20 10L20 11L19 11L19 13L20 13L20 14L17 14L17 13L18 13L18 10L16 10L16 11L15 11L15 10L14 10L14 11L13 11L13 9L14 9L14 8L15 8L15 7L16 7L16 6L15 6L15 5L13 5L13 7L12 7L12 6L11 6L11 7L10 7L10 5L11 5L11 4ZM14 6L14 7L13 7L13 8L14 8L14 7L15 7L15 6ZM17 6L17 9L20 9L20 6L19 6L19 7L18 7L18 6ZM21 6L21 7L22 7L22 8L21 8L21 9L22 9L22 11L24 11L24 12L22 12L22 13L25 13L25 14L27 14L27 11L26 11L26 10L27 10L27 9L26 9L26 8L25 8L25 7L26 7L26 6L25 6L25 7L24 7L24 6L23 6L23 7L22 7L22 6ZM11 7L11 9L12 9L12 7ZM23 7L23 8L22 8L22 9L23 9L23 10L24 10L24 11L25 11L25 10L24 10L24 9L25 9L25 8L24 8L24 7ZM36 8L36 9L35 9L35 10L36 10L36 12L35 12L35 13L37 13L37 10L36 10L36 9L37 9L37 8ZM31 10L31 11L32 11L32 10ZM6 11L6 12L5 12L5 13L4 13L4 14L3 14L3 13L2 13L2 14L3 14L3 15L4 15L4 17L5 17L5 16L7 16L7 17L6 17L6 18L8 18L8 15L6 15L6 14L9 14L9 15L10 15L10 13L9 13L9 11L8 11L8 12L7 12L7 11ZM6 12L6 13L7 13L7 12ZM12 12L12 13L13 13L13 14L14 14L14 16L15 16L15 15L17 15L17 14L16 14L16 13L17 13L17 12ZM25 12L25 13L26 13L26 12ZM31 12L31 13L32 13L32 12ZM14 13L14 14L15 14L15 13ZM4 14L4 15L5 15L5 14ZM22 14L22 15L24 15L24 14ZM25 16L25 17L24 17L24 18L25 18L25 17L26 17L26 16ZM27 16L27 17L28 17L28 18L27 18L27 19L26 19L26 20L27 20L27 21L26 21L26 22L27 22L27 21L29 21L29 22L30 22L30 21L31 21L31 20L32 20L32 18L30 18L30 19L31 19L31 20L30 20L30 21L29 21L29 20L27 20L27 19L28 19L28 18L29 18L29 17L28 17L28 16ZM10 17L10 18L11 18L11 17ZM1 18L1 19L2 19L2 18ZM3 18L3 20L4 20L4 21L5 21L5 20L7 20L7 19L4 19L4 18ZM33 18L33 20L34 20L34 18ZM11 19L11 20L10 20L10 22L11 22L11 20L12 20L12 23L10 23L10 24L11 24L11 25L10 25L10 26L13 26L13 25L14 25L14 24L13 24L13 22L16 22L16 20L15 20L15 19L14 19L14 21L13 21L13 19ZM24 19L24 20L25 20L25 19ZM6 21L6 22L7 22L7 21ZM24 21L24 22L25 22L25 21ZM35 21L35 22L36 22L36 21ZM22 22L22 23L21 23L21 24L22 24L22 25L23 25L23 26L22 26L22 27L23 27L23 26L24 26L24 27L25 27L25 26L24 26L24 25L25 25L25 23L24 23L24 25L23 25L23 24L22 24L22 23L23 23L23 22ZM12 24L12 25L13 25L13 24ZM18 24L18 26L19 26L19 25L20 25L20 24ZM28 24L28 25L30 25L30 24ZM6 25L6 26L7 26L7 25ZM2 26L2 27L3 27L3 28L4 28L4 29L5 29L5 28L4 28L4 26ZM34 28L34 29L33 29L33 30L35 30L35 31L34 31L34 32L33 32L33 33L34 33L34 32L35 32L35 31L36 31L36 30L35 30L35 28ZM23 29L23 30L22 30L22 31L23 31L23 32L24 32L24 31L25 31L25 30L24 30L24 29ZM29 29L29 32L32 32L32 29ZM9 30L9 31L10 31L10 32L9 32L9 33L10 33L10 32L11 32L11 33L13 33L13 31L12 31L12 32L11 32L11 31L10 31L10 30ZM23 30L23 31L24 31L24 30ZM30 30L30 31L31 31L31 30ZM14 31L14 32L15 32L15 33L16 33L16 34L17 34L17 33L16 33L16 32L15 32L15 31ZM26 33L26 34L27 34L27 35L26 35L26 36L28 36L28 35L29 35L29 34L30 34L30 35L31 35L31 34L32 34L32 33L31 33L31 34L30 34L30 33L29 33L29 34L27 34L27 33ZM9 34L9 35L10 35L10 34ZM11 34L11 35L12 35L12 34ZM36 34L36 36L33 36L33 37L37 37L37 34ZM14 35L14 36L13 36L13 37L14 37L14 36L15 36L15 37L16 37L16 36L15 36L15 35ZM24 35L24 36L25 36L25 35ZM17 36L17 37L18 37L18 36ZM0 0L0 7L7 7L7 0ZM1 1L1 6L6 6L6 1ZM2 2L2 5L5 5L5 2ZM30 0L30 7L37 7L37 0ZM31 1L31 6L36 6L36 1ZM32 2L32 5L35 5L35 2ZM0 30L0 37L7 37L7 30ZM1 31L1 36L6 36L6 31ZM2 32L2 35L5 35L5 32Z" fill="#000000"/></g></g></svg>
