<?xml version="1.0" encoding="UTF-8"?>
<svg xmlns="http://www.w3.org/2000/svg" version="1.1" width="300" height="300" viewBox="0 0 300 300"><rect x="0" y="0" width="300" height="300" fill="#ffffff"/><g transform="scale(8.108)"><g transform="translate(0,0)"><path fill-rule="evenodd" d="M8 0L8 1L9 1L9 0ZM10 0L10 2L8 2L8 4L9 4L9 3L10 3L10 2L12 2L12 3L15 3L15 4L14 4L14 5L13 5L13 6L12 6L12 7L11 7L11 5L12 5L12 4L10 4L10 8L9 8L9 5L8 5L8 8L5 8L5 10L6 10L6 11L8 11L8 12L9 12L9 13L8 13L8 15L9 15L9 16L11 16L11 15L10 15L10 14L9 14L9 13L12 13L12 15L14 15L14 16L12 16L12 17L13 17L13 18L14 18L14 21L15 21L15 22L13 22L13 21L12 21L12 20L10 20L10 21L9 21L9 19L11 19L11 17L9 17L9 19L8 19L8 17L7 17L7 16L6 16L6 15L7 15L7 14L5 14L5 13L7 13L7 12L5 12L5 11L3 11L3 13L2 13L2 12L0 12L0 13L1 13L1 14L0 14L0 18L1 18L1 19L0 19L0 20L1 20L1 22L0 22L0 23L2 23L2 25L4 25L4 26L5 26L5 29L8 29L8 32L9 32L9 33L8 33L8 34L9 34L9 35L8 35L8 36L9 36L9 35L10 35L10 34L11 34L11 33L12 33L12 32L13 32L13 33L14 33L14 34L12 34L12 35L11 35L11 37L12 37L12 36L14 36L14 37L17 37L17 36L18 36L18 37L19 37L19 36L22 36L22 37L25 37L25 33L26 33L26 34L28 34L28 33L29 33L29 35L28 35L28 37L31 37L31 36L32 36L32 37L34 37L34 35L33 35L33 34L36 34L36 35L37 35L37 33L34 33L34 32L35 32L35 30L36 30L36 31L37 31L37 25L36 25L36 24L37 24L37 23L36 23L36 21L37 21L37 20L36 20L36 19L37 19L37 16L36 16L36 15L37 15L37 12L36 12L36 11L37 11L37 8L36 8L36 11L35 11L35 12L34 12L34 9L35 9L35 8L33 8L33 9L32 9L32 8L29 8L29 10L28 10L28 9L27 9L27 8L28 8L28 7L29 7L29 6L28 6L28 4L29 4L29 3L26 3L26 2L29 2L29 0L27 0L27 1L26 1L26 0L25 0L25 4L26 4L26 5L27 5L27 6L26 6L26 7L25 7L25 6L24 6L24 5L23 5L23 4L22 4L22 5L21 5L21 6L20 6L20 7L21 7L21 8L20 8L20 10L19 10L19 8L17 8L17 9L15 9L15 8L14 8L14 7L15 7L15 5L16 5L16 4L17 4L17 3L18 3L18 4L19 4L19 5L20 5L20 4L19 4L19 0L18 0L18 1L17 1L17 0L14 0L14 1L12 1L12 0ZM20 0L20 3L21 3L21 0ZM22 0L22 1L23 1L23 0ZM15 1L15 3L16 3L16 2L17 2L17 1ZM22 2L22 3L23 3L23 2ZM17 5L17 6L16 6L16 7L17 7L17 6L18 6L18 7L19 7L19 6L18 6L18 5ZM13 6L13 7L12 7L12 9L13 9L13 10L12 10L12 11L11 11L11 9L9 9L9 11L10 11L10 12L12 12L12 11L13 11L13 12L14 12L14 13L16 13L16 16L15 16L15 17L16 17L16 18L15 18L15 19L16 19L16 21L17 21L17 22L18 22L18 21L17 21L17 19L16 19L16 18L19 18L19 17L18 17L18 16L17 16L17 14L18 14L18 15L19 15L19 16L20 16L20 19L22 19L22 20L23 20L23 19L24 19L24 22L23 22L23 21L22 21L22 22L23 22L23 23L22 23L22 24L23 24L23 25L21 25L21 24L20 24L20 23L19 23L19 25L18 25L18 26L20 26L20 25L21 25L21 26L22 26L22 27L21 27L21 29L20 29L20 27L19 27L19 29L18 29L18 30L17 30L17 25L16 25L16 26L15 26L15 25L13 25L13 26L15 26L15 27L14 27L14 28L13 28L13 27L12 27L12 26L11 26L11 25L10 25L10 24L8 24L8 25L6 25L6 24L7 24L7 23L5 23L5 25L6 25L6 26L8 26L8 27L9 27L9 26L8 26L8 25L10 25L10 26L11 26L11 27L10 27L10 28L9 28L9 29L10 29L10 31L12 31L12 30L11 30L11 29L10 29L10 28L11 28L11 27L12 27L12 29L14 29L14 30L13 30L13 32L15 32L15 34L16 34L16 33L17 33L17 34L18 34L18 35L19 35L19 32L20 32L20 30L22 30L22 31L21 31L21 33L20 33L20 35L23 35L23 32L22 32L22 31L24 31L24 32L26 32L26 33L28 33L28 32L26 32L26 31L27 31L27 30L28 30L28 29L26 29L26 28L25 28L25 27L26 27L26 26L25 26L25 25L26 25L26 24L27 24L27 25L28 25L28 26L29 26L29 28L30 28L30 26L32 26L32 28L33 28L33 29L34 29L34 30L35 30L35 28L34 28L34 27L35 27L35 26L36 26L36 25L35 25L35 24L36 24L36 23L35 23L35 22L33 22L33 21L32 21L32 22L31 22L31 23L30 23L30 21L29 21L29 23L28 23L28 20L29 20L29 19L28 19L28 17L30 17L30 16L31 16L31 14L30 14L30 12L31 12L31 13L32 13L32 15L33 15L33 16L32 16L32 17L34 17L34 19L36 19L36 18L35 18L35 17L34 17L34 16L35 16L35 15L36 15L36 14L35 14L35 15L33 15L33 10L32 10L32 9L30 9L30 10L29 10L29 11L28 11L28 10L27 10L27 9L26 9L26 8L27 8L27 7L28 7L28 6L27 6L27 7L26 7L26 8L24 8L24 6L23 6L23 7L22 7L22 6L21 6L21 7L22 7L22 10L21 10L21 11L23 11L23 12L24 12L24 13L22 13L22 12L19 12L19 10L18 10L18 9L17 9L17 10L15 10L15 12L14 12L14 8L13 8L13 7L14 7L14 6ZM1 8L1 9L2 9L2 10L4 10L4 8L3 8L3 9L2 9L2 8ZM6 9L6 10L7 10L7 9ZM25 9L25 13L27 13L27 14L29 14L29 12L30 12L30 11L32 11L32 10L30 10L30 11L29 11L29 12L28 12L28 11L26 11L26 9ZM0 10L0 11L1 11L1 10ZM17 10L17 13L18 13L18 10ZM4 12L4 13L3 13L3 14L2 14L2 16L1 16L1 17L2 17L2 18L3 18L3 17L4 17L4 19L3 19L3 20L2 20L2 19L1 19L1 20L2 20L2 21L3 21L3 20L7 20L7 19L5 19L5 14L4 14L4 13L5 13L5 12ZM27 12L27 13L28 13L28 12ZM19 13L19 15L20 15L20 16L23 16L23 17L21 17L21 18L22 18L22 19L23 19L23 17L24 17L24 14L22 14L22 13L21 13L21 14L20 14L20 13ZM3 14L3 16L2 16L2 17L3 17L3 16L4 16L4 14ZM21 14L21 15L22 15L22 14ZM25 15L25 16L26 16L26 17L25 17L25 18L26 18L26 20L27 20L27 15ZM6 17L6 18L7 18L7 17ZM31 18L31 19L30 19L30 20L31 20L31 19L32 19L32 20L33 20L33 18ZM18 19L18 20L19 20L19 19ZM20 20L20 21L19 21L19 22L21 22L21 20ZM34 20L34 21L36 21L36 20ZM6 21L6 22L9 22L9 21ZM10 21L10 22L11 22L11 23L13 23L13 22L12 22L12 21ZM25 21L25 24L26 24L26 23L27 23L27 21ZM2 22L2 23L3 23L3 24L4 24L4 23L3 23L3 22ZM15 22L15 23L16 23L16 22ZM29 23L29 24L28 24L28 25L29 25L29 24L30 24L30 25L34 25L34 23L31 23L31 24L30 24L30 23ZM0 24L0 25L1 25L1 24ZM0 26L0 27L1 27L1 28L0 28L0 29L4 29L4 27L3 27L3 26L2 26L2 27L1 27L1 26ZM23 26L23 27L25 27L25 26ZM2 27L2 28L3 28L3 27ZM6 27L6 28L7 28L7 27ZM15 27L15 30L16 30L16 27ZM27 27L27 28L28 28L28 27ZM22 28L22 29L23 29L23 30L24 30L24 31L25 31L25 30L24 30L24 29L23 29L23 28ZM19 29L19 30L20 30L20 29ZM29 29L29 32L32 32L32 29ZM30 30L30 31L31 31L31 30ZM15 31L15 32L16 32L16 31ZM18 31L18 32L19 32L19 31ZM10 32L10 33L9 33L9 34L10 34L10 33L11 33L11 32ZM21 33L21 34L22 34L22 33ZM30 33L30 35L29 35L29 36L30 36L30 35L31 35L31 34L32 34L32 33ZM14 35L14 36L15 36L15 35ZM16 35L16 36L17 36L17 35ZM26 35L26 36L27 36L27 35ZM32 35L32 36L33 36L33 35ZM35 36L35 37L37 37L37 36ZM0 0L0 7L7 7L7 0ZM1 1L1 6L6 6L6 1ZM2 2L2 5L5 5L5 2ZM30 0L30 7L37 7L37 0ZM31 1L31 6L36 6L36 1ZM32 2L32 5L35 5L35 2ZM0 30L0 37L7 37L7 30ZM1 31L1 36L6 36L6 31ZM2 32L2 35L5 35L5 32Z" fill="#000000"/></g></g></svg>
