<?xml version="1.0" encoding="UTF-8"?>
<svg xmlns="http://www.w3.org/2000/svg" version="1.1" width="300" height="300" viewBox="0 0 300 300"><rect x="0" y="0" width="300" height="300" fill="#ffffff"/><g transform="scale(8.108)"><g transform="translate(0,0)"><path fill-rule="evenodd" d="M8 0L8 1L9 1L9 0ZM10 0L10 2L8 2L8 4L9 4L9 3L10 3L10 2L12 2L12 3L13 3L13 4L12 4L12 5L13 5L13 6L12 6L12 7L11 7L11 5L10 5L10 7L11 7L11 8L9 8L9 5L8 5L8 8L5 8L5 9L4 9L4 8L3 8L3 9L2 9L2 8L1 8L1 9L2 9L2 10L4 10L4 11L3 11L3 12L4 12L4 13L3 13L3 14L0 14L0 16L1 16L1 17L0 17L0 18L1 18L1 19L0 19L0 20L1 20L1 21L2 21L2 22L0 22L0 23L3 23L3 24L2 24L2 25L5 25L5 24L4 24L4 23L3 23L3 22L5 22L5 23L7 23L7 24L6 24L6 25L7 25L7 26L6 26L6 27L3 27L3 26L2 26L2 27L1 27L1 26L0 26L0 27L1 27L1 28L0 28L0 29L5 29L5 28L6 28L6 29L7 29L7 28L6 28L6 27L8 27L8 32L9 32L9 33L8 33L8 34L9 34L9 33L10 33L10 35L8 35L8 36L11 36L11 37L12 37L12 36L13 36L13 35L15 35L15 34L18 34L18 35L17 35L17 36L16 36L16 37L19 37L19 36L22 36L22 37L25 37L25 33L26 33L26 34L27 34L27 33L26 33L26 32L27 32L27 31L28 31L28 34L29 34L29 35L28 35L28 37L29 37L29 35L30 35L30 37L31 37L31 36L32 36L32 37L34 37L34 35L35 35L35 34L36 34L36 35L37 35L37 33L35 33L35 34L34 34L34 33L33 33L33 30L34 30L34 32L35 32L35 30L36 30L36 31L37 31L37 25L36 25L36 24L37 24L37 23L36 23L36 21L37 21L37 20L36 20L36 19L37 19L37 16L36 16L36 15L37 15L37 12L36 12L36 11L37 11L37 8L36 8L36 11L35 11L35 12L34 12L34 9L35 9L35 8L33 8L33 9L32 9L32 8L29 8L29 5L28 5L28 4L29 4L29 3L28 3L28 1L29 1L29 0L27 0L27 1L26 1L26 0L25 0L25 4L26 4L26 5L27 5L27 6L26 6L26 7L25 7L25 6L24 6L24 5L23 5L23 6L22 6L22 7L21 7L21 2L22 2L22 1L23 1L23 0L22 0L22 1L21 1L21 0L20 0L20 4L19 4L19 3L17 3L17 2L16 2L16 1L17 1L17 0L15 0L15 1L14 1L14 0L13 0L13 1L12 1L12 0ZM18 0L18 1L19 1L19 0ZM13 1L13 3L14 3L14 4L13 4L13 5L14 5L14 4L16 4L16 5L15 5L15 7L14 7L14 6L13 6L13 7L14 7L14 8L11 8L11 9L9 9L9 10L8 10L8 9L6 9L6 10L5 10L5 11L6 11L6 12L5 12L5 14L3 14L3 15L4 15L4 17L3 17L3 18L4 18L4 19L5 19L5 20L4 20L4 21L5 21L5 22L7 22L7 23L8 23L8 24L9 24L9 26L11 26L11 27L9 27L9 28L10 28L10 29L11 29L11 27L12 27L12 29L13 29L13 26L12 26L12 25L13 25L13 24L12 24L12 25L10 25L10 24L11 24L11 23L13 23L13 22L14 22L14 21L13 21L13 22L11 22L11 20L13 20L13 18L14 18L14 20L15 20L15 21L16 21L16 22L15 22L15 23L20 23L20 25L19 25L19 28L20 28L20 29L19 29L19 30L17 30L17 31L16 31L16 32L15 32L15 31L14 31L14 30L16 30L16 29L14 29L14 30L13 30L13 31L12 31L12 30L10 30L10 31L12 31L12 32L10 32L10 33L11 33L11 35L12 35L12 34L14 34L14 32L15 32L15 33L16 33L16 32L17 32L17 33L18 33L18 34L19 34L19 33L20 33L20 35L23 35L23 32L22 32L22 31L24 31L24 30L25 30L25 32L26 32L26 31L27 31L27 30L26 30L26 29L27 29L27 28L28 28L28 27L27 27L27 28L24 28L24 27L23 27L23 26L25 26L25 27L26 27L26 26L25 26L25 25L26 25L26 24L27 24L27 25L28 25L28 26L32 26L32 28L33 28L33 29L34 29L34 30L35 30L35 29L36 29L36 26L35 26L35 24L36 24L36 23L34 23L34 25L30 25L30 24L32 24L32 23L33 23L33 22L35 22L35 21L36 21L36 20L34 20L34 21L32 21L32 23L30 23L30 21L29 21L29 20L30 20L30 19L29 19L29 17L30 17L30 16L31 16L31 15L32 15L32 17L33 17L33 15L34 15L34 16L35 16L35 15L36 15L36 14L34 14L34 13L33 13L33 10L32 10L32 9L30 9L30 10L29 10L29 8L27 8L27 7L28 7L28 6L27 6L27 7L26 7L26 8L24 8L24 6L23 6L23 7L22 7L22 8L23 8L23 10L21 10L21 11L25 11L25 9L26 9L26 12L27 12L27 13L25 13L25 14L24 14L24 12L23 12L23 13L22 13L22 12L21 12L21 13L20 13L20 9L18 9L18 10L14 10L14 8L16 8L16 9L17 9L17 8L20 8L20 5L19 5L19 4L18 4L18 5L17 5L17 4L16 4L16 2L14 2L14 1ZM26 2L26 3L27 3L27 2ZM22 3L22 4L23 4L23 3ZM16 5L16 7L17 7L17 5ZM18 6L18 7L19 7L19 6ZM26 8L26 9L27 9L27 10L28 10L28 11L27 11L27 12L28 12L28 13L27 13L27 14L26 14L26 15L24 15L24 14L22 14L22 13L21 13L21 14L22 14L22 15L21 15L21 16L23 16L23 15L24 15L24 16L26 16L26 17L25 17L25 18L26 18L26 20L27 20L27 16L28 16L28 17L29 17L29 12L30 12L30 14L31 14L31 13L32 13L32 12L30 12L30 11L29 11L29 10L28 10L28 9L27 9L27 8ZM12 9L12 10L11 10L11 12L12 12L12 11L13 11L13 13L12 13L12 14L11 14L11 15L10 15L10 14L9 14L9 13L10 13L10 10L9 10L9 11L8 11L8 10L6 10L6 11L8 11L8 12L6 12L6 13L8 13L8 14L9 14L9 15L7 15L7 14L5 14L5 18L6 18L6 19L7 19L7 20L5 20L5 21L8 21L8 20L9 20L9 19L8 19L8 17L7 17L7 16L11 16L11 17L10 17L10 18L11 18L11 17L13 17L13 16L14 16L14 15L15 15L15 14L16 14L16 13L14 13L14 11L13 11L13 9ZM31 10L31 11L32 11L32 10ZM0 11L0 12L1 12L1 13L2 13L2 12L1 12L1 11ZM17 11L17 13L18 13L18 14L17 14L17 15L16 15L16 17L17 17L17 16L18 16L18 17L19 17L19 18L18 18L18 20L19 20L19 21L17 21L17 22L19 22L19 21L21 21L21 25L20 25L20 28L21 28L21 27L22 27L22 26L23 26L23 25L22 25L22 24L23 24L23 22L24 22L24 19L23 19L23 17L21 17L21 19L20 19L20 17L19 17L19 15L18 15L18 14L19 14L19 11ZM28 11L28 12L29 12L29 11ZM13 13L13 14L14 14L14 13ZM27 14L27 15L26 15L26 16L27 16L27 15L28 15L28 14ZM32 14L32 15L33 15L33 14ZM6 15L6 16L7 16L7 15ZM6 17L6 18L7 18L7 17ZM14 17L14 18L15 18L15 17ZM34 17L34 18L36 18L36 17ZM16 18L16 19L15 19L15 20L17 20L17 18ZM32 18L32 19L31 19L31 20L33 20L33 18ZM22 19L22 20L23 20L23 19ZM28 19L28 20L29 20L29 19ZM2 20L2 21L3 21L3 20ZM9 21L9 24L10 24L10 21ZM22 21L22 22L23 22L23 21ZM25 21L25 24L26 24L26 23L27 23L27 21ZM28 22L28 23L29 23L29 24L28 24L28 25L29 25L29 24L30 24L30 23L29 23L29 22ZM0 24L0 25L1 25L1 24ZM14 25L14 28L15 28L15 27L16 27L16 28L17 28L17 29L18 29L18 28L17 28L17 27L18 27L18 25L16 25L16 26L15 26L15 25ZM21 25L21 26L22 26L22 25ZM2 27L2 28L3 28L3 27ZM29 27L29 28L31 28L31 27ZM34 27L34 28L35 28L35 27ZM22 28L22 29L23 29L23 30L24 30L24 29L23 29L23 28ZM20 29L20 30L19 30L19 31L18 31L18 32L19 32L19 31L20 31L20 33L21 33L21 34L22 34L22 33L21 33L21 31L22 31L22 30L21 30L21 29ZM29 29L29 32L32 32L32 29ZM30 30L30 31L31 31L31 30ZM30 33L30 35L31 35L31 34L32 34L32 33ZM33 34L33 35L32 35L32 36L33 36L33 35L34 35L34 34ZM18 35L18 36L19 36L19 35ZM26 35L26 36L27 36L27 35ZM14 36L14 37L15 37L15 36ZM35 36L35 37L37 37L37 36ZM0 0L0 7L7 7L7 0ZM1 1L1 6L6 6L6 1ZM2 2L2 5L5 5L5 2ZM30 0L30 7L37 7L37 0ZM31 1L31 6L36 6L36 1ZM32 2L32 5L35 5L35 2ZM0 30L0 37L7 37L7 30ZM1 31L1 36L6 36L6 31ZM2 32L2 35L5 35L5 32Z" fill="#000000"/></g></g></svg>
