<?xml version="1.0" encoding="UTF-8"?>
<svg xmlns="http://www.w3.org/2000/svg" version="1.1" width="300" height="300" viewBox="0 0 300 300"><rect x="0" y="0" width="300" height="300" fill="#ffffff"/><g transform="scale(8.108)"><g transform="translate(0,0)"><path fill-rule="evenodd" d="M8 0L8 1L9 1L9 0ZM10 0L10 1L11 1L11 2L10 2L10 3L9 3L9 2L8 2L8 4L9 4L9 5L8 5L8 8L5 8L5 9L8 9L8 11L7 11L7 10L4 10L4 8L3 8L3 9L2 9L2 8L1 8L1 9L0 9L0 11L1 11L1 12L0 12L0 14L1 14L1 15L0 15L0 17L1 17L1 19L0 19L0 21L1 21L1 22L0 22L0 23L2 23L2 22L3 22L3 25L4 25L4 26L5 26L5 29L8 29L8 32L9 32L9 33L8 33L8 34L9 34L9 35L8 35L8 36L9 36L9 37L10 37L10 36L11 36L11 37L13 37L13 35L14 35L14 37L15 37L15 36L17 36L17 35L18 35L18 34L17 34L17 33L15 33L15 34L12 34L12 35L10 35L10 34L11 34L11 33L12 33L12 32L11 32L11 31L12 31L12 30L15 30L15 32L16 32L16 31L17 31L17 30L19 30L19 29L17 29L17 30L16 30L16 27L15 27L15 28L14 28L14 27L13 27L13 28L12 28L12 30L11 30L11 27L12 27L12 26L10 26L10 25L11 25L11 24L12 24L12 25L15 25L15 26L16 26L16 25L19 25L19 26L20 26L20 31L18 31L18 32L20 32L20 33L19 33L19 36L22 36L22 37L25 37L25 33L26 33L26 34L28 34L28 33L32 33L32 34L31 34L31 35L30 35L30 36L29 36L29 35L28 35L28 37L31 37L31 35L32 35L32 37L34 37L34 35L33 35L33 31L34 31L34 32L35 32L35 31L34 31L34 29L33 29L33 28L32 28L32 26L30 26L30 27L29 27L29 26L28 26L28 25L29 25L29 24L30 24L30 25L34 25L34 23L36 23L36 24L35 24L35 25L36 25L36 26L35 26L35 27L34 27L34 28L35 28L35 27L36 27L36 29L35 29L35 30L36 30L36 31L37 31L37 25L36 25L36 24L37 24L37 23L36 23L36 21L37 21L37 20L36 20L36 19L37 19L37 16L36 16L36 15L37 15L37 13L36 13L36 14L35 14L35 12L36 12L36 11L37 11L37 8L36 8L36 9L35 9L35 8L33 8L33 9L32 9L32 8L29 8L29 10L28 10L28 9L27 9L27 8L28 8L28 7L29 7L29 5L28 5L28 4L29 4L29 2L28 2L28 1L29 1L29 0L27 0L27 1L26 1L26 0L25 0L25 4L26 4L26 5L27 5L27 6L26 6L26 7L25 7L25 6L24 6L24 5L23 5L23 6L22 6L22 7L21 7L21 5L19 5L19 2L18 2L18 1L19 1L19 0L18 0L18 1L15 1L15 0L14 0L14 1L12 1L12 0ZM20 0L20 3L21 3L21 0ZM22 0L22 1L23 1L23 0ZM11 2L11 4L10 4L10 5L11 5L11 7L12 7L12 5L14 5L14 3L16 3L16 4L15 4L15 7L14 7L14 6L13 6L13 7L14 7L14 8L11 8L11 9L10 9L10 8L9 8L9 9L10 9L10 10L9 10L9 11L8 11L8 12L11 12L11 13L9 13L9 14L10 14L10 15L12 15L12 13L13 13L13 15L14 15L14 16L15 16L15 18L16 18L16 17L17 17L17 18L18 18L18 19L17 19L17 21L16 21L16 19L13 19L13 17L11 17L11 16L9 16L9 15L6 15L6 16L7 16L7 17L6 17L6 18L7 18L7 17L8 17L8 19L9 19L9 20L10 20L10 21L9 21L9 22L11 22L11 23L9 23L9 24L8 24L8 21L6 21L6 22L4 22L4 25L5 25L5 23L6 23L6 24L8 24L8 25L6 25L6 26L8 26L8 25L10 25L10 24L11 24L11 23L12 23L12 22L11 22L11 20L12 20L12 21L13 21L13 22L15 22L15 23L16 23L16 24L15 24L15 25L16 25L16 24L17 24L17 21L18 21L18 20L19 20L19 17L20 17L20 19L24 19L24 22L23 22L23 21L22 21L22 22L23 22L23 23L22 23L22 25L21 25L21 26L22 26L22 27L21 27L21 30L22 30L22 31L20 31L20 32L21 32L21 33L20 33L20 35L23 35L23 32L26 32L26 33L28 33L28 32L26 32L26 31L27 31L27 30L28 30L28 29L27 29L27 28L28 28L28 27L27 27L27 28L25 28L25 27L26 27L26 26L25 26L25 25L26 25L26 24L27 24L27 25L28 25L28 23L30 23L30 24L32 24L32 23L33 23L33 21L34 21L34 22L35 22L35 21L36 21L36 20L34 20L34 19L31 19L31 18L29 18L29 17L30 17L30 16L31 16L31 14L32 14L32 15L33 15L33 10L32 10L32 9L30 9L30 10L32 10L32 11L31 11L31 12L32 12L32 13L31 13L31 14L30 14L30 11L28 11L28 10L27 10L27 9L26 9L26 8L27 8L27 7L28 7L28 6L27 6L27 7L26 7L26 8L24 8L24 6L23 6L23 7L22 7L22 8L23 8L23 10L21 10L21 11L26 11L26 10L27 10L27 11L28 11L28 12L27 12L27 13L25 13L25 12L23 12L23 13L22 13L22 12L21 12L21 13L18 13L18 12L17 12L17 11L20 11L20 9L21 9L21 8L19 8L19 7L20 7L20 6L19 6L19 5L18 5L18 6L17 6L17 7L16 7L16 5L17 5L17 4L18 4L18 3L16 3L16 2L13 2L13 4L12 4L12 2ZM22 2L22 4L23 4L23 2ZM26 2L26 3L28 3L28 2ZM11 4L11 5L12 5L12 4ZM9 6L9 7L10 7L10 6ZM18 6L18 7L17 7L17 8L18 8L18 7L19 7L19 6ZM15 7L15 8L14 8L14 10L13 10L13 9L11 9L11 11L14 11L14 12L13 12L13 13L14 13L14 12L15 12L15 10L19 10L19 9L16 9L16 7ZM1 9L1 11L2 11L2 12L1 12L1 14L2 14L2 13L3 13L3 16L4 16L4 17L5 17L5 14L4 14L4 13L6 13L6 14L7 14L7 13L6 13L6 12L7 12L7 11L5 11L5 12L4 12L4 13L3 13L3 11L4 11L4 10L2 10L2 9ZM25 9L25 10L26 10L26 9ZM34 9L34 12L35 12L35 9ZM28 12L28 13L27 13L27 14L26 14L26 15L25 15L25 16L26 16L26 17L25 17L25 18L26 18L26 20L27 20L27 16L26 16L26 15L27 15L27 14L29 14L29 12ZM16 13L16 14L14 14L14 15L16 15L16 16L18 16L18 17L19 17L19 16L24 16L24 14L22 14L22 13L21 13L21 14L19 14L19 15L18 15L18 14L17 14L17 13ZM16 14L16 15L17 15L17 14ZM21 14L21 15L22 15L22 14ZM34 14L34 16L35 16L35 14ZM28 15L28 17L29 17L29 15ZM32 16L32 17L33 17L33 16ZM2 17L2 18L3 18L3 17ZM9 17L9 18L10 18L10 20L11 20L11 17ZM21 17L21 18L23 18L23 17ZM34 17L34 18L35 18L35 19L36 19L36 18L35 18L35 17ZM28 18L28 19L29 19L29 21L30 21L30 23L32 23L32 22L31 22L31 20L30 20L30 19L29 19L29 18ZM1 19L1 21L3 21L3 20L7 20L7 19ZM13 20L13 21L14 21L14 20ZM20 20L20 22L21 22L21 20ZM32 20L32 21L33 21L33 20ZM25 21L25 24L26 24L26 23L27 23L27 21ZM6 22L6 23L7 23L7 22ZM18 22L18 23L19 23L19 24L20 24L20 23L19 23L19 22ZM0 24L0 25L1 25L1 24ZM22 25L22 26L23 26L23 28L22 28L22 29L23 29L23 30L24 30L24 31L25 31L25 30L24 30L24 29L23 29L23 28L24 28L24 27L25 27L25 26L23 26L23 25ZM0 26L0 27L1 27L1 28L0 28L0 29L3 29L3 28L4 28L4 27L3 27L3 26L2 26L2 27L1 27L1 26ZM9 26L9 28L8 28L8 27L6 27L6 28L8 28L8 29L10 29L10 26ZM17 26L17 28L18 28L18 26ZM2 27L2 28L3 28L3 27ZM30 27L30 28L31 28L31 27ZM13 28L13 29L14 29L14 28ZM26 29L26 30L27 30L27 29ZM29 29L29 32L32 32L32 29ZM10 30L10 31L11 31L11 30ZM30 30L30 31L31 31L31 30ZM22 31L22 32L23 32L23 31ZM10 32L10 33L11 33L11 32ZM21 33L21 34L22 34L22 33ZM35 33L35 34L36 34L36 35L37 35L37 33ZM15 34L15 35L16 35L16 34ZM26 35L26 36L27 36L27 35ZM35 36L35 37L37 37L37 36ZM0 0L0 7L7 7L7 0ZM1 1L1 6L6 6L6 1ZM2 2L2 5L5 5L5 2ZM30 0L30 7L37 7L37 0ZM31 1L31 6L36 6L36 1ZM32 2L32 5L35 5L35 2ZM0 30L0 37L7 37L7 30ZM1 31L1 36L6 36L6 31ZM2 32L2 35L5 35L5 32Z" fill="#000000"/></g></g></svg>
