<?xml version="1.0" encoding="UTF-8"?>
<svg xmlns="http://www.w3.org/2000/svg" version="1.1" width="300" height="300" viewBox="0 0 300 300"><rect x="0" y="0" width="300" height="300" fill="#ffffff"/><g transform="scale(6.122)"><g transform="translate(0,0)"><path fill-rule="evenodd" d="M8 0L8 1L11 1L11 2L10 2L10 3L11 3L11 6L10 6L10 5L9 5L9 4L8 4L8 7L9 7L9 6L10 6L10 8L9 8L9 10L10 10L10 11L9 11L9 12L8 12L8 8L1 8L1 10L0 10L0 12L2 12L2 13L4 13L4 16L3 16L3 15L2 15L2 16L3 16L3 17L4 17L4 18L5 18L5 20L6 20L6 21L5 21L5 22L3 22L3 24L2 24L2 23L1 23L1 21L2 21L2 20L1 20L1 19L3 19L3 21L4 21L4 19L3 19L3 18L1 18L1 15L0 15L0 18L1 18L1 19L0 19L0 20L1 20L1 21L0 21L0 27L2 27L2 29L1 29L1 28L0 28L0 30L2 30L2 31L3 31L3 32L4 32L4 33L2 33L2 32L1 32L1 31L0 31L0 32L1 32L1 33L2 33L2 34L4 34L4 35L2 35L2 36L4 36L4 35L5 35L5 36L6 36L6 37L7 37L7 38L5 38L5 37L3 37L3 38L5 38L5 39L7 39L7 40L6 40L6 41L8 41L8 48L9 48L9 49L10 49L10 48L11 48L11 49L12 49L12 48L13 48L13 46L14 46L14 48L15 48L15 49L18 49L18 46L19 46L19 45L20 45L20 44L19 44L19 42L18 42L18 43L17 43L17 42L15 42L15 41L14 41L14 40L13 40L13 37L15 37L15 38L14 38L14 39L15 39L15 40L16 40L16 41L18 41L18 40L19 40L19 41L21 41L21 42L20 42L20 43L21 43L21 42L22 42L22 45L21 45L21 48L20 48L20 49L21 49L21 48L22 48L22 46L23 46L23 45L27 45L27 44L29 44L29 45L28 45L28 46L27 46L27 49L28 49L28 48L29 48L29 49L30 49L30 47L28 47L28 46L31 46L31 47L32 47L32 48L31 48L31 49L32 49L32 48L33 48L33 49L34 49L34 47L37 47L37 48L35 48L35 49L38 49L38 48L40 48L40 49L41 49L41 47L42 47L42 48L43 48L43 47L44 47L44 48L45 48L45 49L49 49L49 45L48 45L48 44L46 44L46 46L45 46L45 43L46 43L46 42L45 42L45 41L48 41L48 40L45 40L45 39L44 39L44 37L45 37L45 38L46 38L46 37L47 37L47 36L48 36L48 37L49 37L49 34L47 34L47 36L46 36L46 34L45 34L45 35L44 35L44 34L42 34L42 33L41 33L41 32L42 32L42 31L45 31L45 30L43 30L43 29L45 29L45 28L44 28L44 27L45 27L45 25L48 25L48 24L45 24L45 23L46 23L46 22L47 22L47 23L49 23L49 22L47 22L47 20L48 20L48 21L49 21L49 18L47 18L47 17L48 17L48 16L45 16L45 14L46 14L46 13L48 13L48 12L46 12L46 11L44 11L44 10L43 10L43 9L45 9L45 8L43 8L43 9L42 9L42 10L41 10L41 12L39 12L39 14L38 14L38 12L36 12L36 14L34 14L34 13L32 13L32 12L33 12L33 11L34 11L34 12L35 12L35 10L36 10L36 11L39 11L39 10L37 10L37 9L41 9L41 8L37 8L37 6L38 6L38 7L39 7L39 5L38 5L38 3L35 3L35 2L37 2L37 1L38 1L38 2L39 2L39 4L40 4L40 3L41 3L41 0L40 0L40 1L38 1L38 0L35 0L35 1L31 1L31 0L29 0L29 1L31 1L31 2L32 2L32 3L33 3L33 4L37 4L37 6L36 6L36 7L35 7L35 5L33 5L33 6L32 6L32 7L31 7L31 6L30 6L30 5L32 5L32 4L30 4L30 2L27 2L27 3L25 3L25 2L26 2L26 1L28 1L28 0L26 0L26 1L23 1L23 2L24 2L24 3L23 3L23 4L22 4L22 3L21 3L21 2L22 2L22 1L20 1L20 2L18 2L18 3L16 3L16 1L19 1L19 0L16 0L16 1L15 1L15 0ZM12 1L12 2L11 2L11 3L12 3L12 4L13 4L13 5L12 5L12 6L11 6L11 8L10 8L10 10L12 10L12 11L10 11L10 12L12 12L12 13L11 13L11 14L12 14L12 16L14 16L14 17L13 17L13 18L12 18L12 19L11 19L11 18L10 18L10 17L11 17L11 16L10 16L10 13L6 13L6 12L7 12L7 11L5 11L5 10L7 10L7 9L5 9L5 10L3 10L3 9L2 9L2 11L3 11L3 12L5 12L5 13L6 13L6 14L5 14L5 15L6 15L6 16L5 16L5 18L7 18L7 17L8 17L8 18L10 18L10 19L9 19L9 20L10 20L10 21L8 21L8 20L7 20L7 19L6 19L6 20L7 20L7 21L6 21L6 22L10 22L10 23L11 23L11 22L13 22L13 25L9 25L9 28L11 28L11 29L10 29L10 30L8 30L8 28L7 28L7 27L4 27L4 26L3 26L3 27L4 27L4 28L3 28L3 29L4 29L4 28L7 28L7 29L5 29L5 30L4 30L4 32L5 32L5 31L6 31L6 32L7 32L7 31L8 31L8 33L9 33L9 32L10 32L10 33L13 33L13 36L12 36L12 34L11 34L11 37L13 37L13 36L14 36L14 34L15 34L15 35L16 35L16 36L15 36L15 37L16 37L16 38L17 38L17 39L16 39L16 40L17 40L17 39L18 39L18 38L17 38L17 36L18 36L18 34L19 34L19 35L20 35L20 36L21 36L21 38L20 38L20 37L19 37L19 40L23 40L23 39L27 39L27 40L28 40L28 42L30 42L30 41L29 41L29 40L30 40L30 39L31 39L31 43L33 43L33 44L32 44L32 47L33 47L33 46L35 46L35 44L37 44L37 43L36 43L36 42L38 42L38 43L40 43L40 41L39 41L39 40L44 40L44 39L36 39L36 38L35 38L35 37L36 37L36 36L37 36L37 38L39 38L39 37L38 37L38 36L40 36L40 37L41 37L41 36L42 36L42 37L44 37L44 35L42 35L42 34L39 34L39 33L38 33L38 32L40 32L40 31L41 31L41 30L42 30L42 29L40 29L40 31L38 31L38 30L39 30L39 29L38 29L38 28L40 28L40 27L38 27L38 26L40 26L40 24L39 24L39 23L40 23L40 22L41 22L41 21L42 21L42 17L43 17L43 16L42 16L42 15L43 15L43 14L42 14L42 12L41 12L41 13L40 13L40 14L42 14L42 15L41 15L41 16L39 16L39 17L40 17L40 18L37 18L37 19L35 19L35 18L34 18L34 17L33 17L33 16L34 16L34 14L32 14L32 13L31 13L31 12L32 12L32 11L33 11L33 10L35 10L35 9L36 9L36 8L35 8L35 7L34 7L34 6L33 6L33 7L32 7L32 8L31 8L31 9L32 9L32 10L30 10L30 8L29 8L29 7L30 7L30 6L29 6L29 5L28 5L28 6L27 6L27 7L28 7L28 8L27 8L27 9L26 9L26 10L27 10L27 9L29 9L29 10L28 10L28 11L26 11L26 12L23 12L23 13L24 13L24 14L23 14L23 15L22 15L22 14L20 14L20 12L21 12L21 11L22 11L22 10L23 10L23 9L21 9L21 8L20 8L20 5L21 5L21 4L19 4L19 3L18 3L18 4L17 4L17 5L16 5L16 6L15 6L15 7L14 7L14 4L13 4L13 3L15 3L15 2L14 2L14 1ZM12 2L12 3L13 3L13 2ZM33 2L33 3L34 3L34 2ZM27 3L27 4L29 4L29 3ZM17 5L17 6L16 6L16 7L15 7L15 9L17 9L17 10L13 10L13 11L17 11L17 14L15 14L15 13L16 13L16 12L15 12L15 13L13 13L13 14L15 14L15 16L17 16L17 17L16 17L16 20L15 20L15 21L14 21L14 22L16 22L16 21L17 21L17 20L20 20L20 19L22 19L22 20L23 20L23 21L22 21L22 22L21 22L21 21L20 21L20 23L19 23L19 25L20 25L20 26L18 26L18 25L17 25L17 26L18 26L18 27L19 27L19 28L20 28L20 27L21 27L21 23L22 23L22 27L24 27L24 28L26 28L26 30L25 30L25 29L24 29L24 30L20 30L20 29L17 29L17 27L16 27L16 23L14 23L14 25L13 25L13 26L12 26L12 27L11 27L11 28L12 28L12 27L14 27L14 28L13 28L13 29L12 29L12 31L11 31L11 30L10 30L10 32L14 32L14 33L15 33L15 32L14 32L14 31L15 31L15 30L14 30L14 28L15 28L15 27L16 27L16 29L17 29L17 30L19 30L19 31L22 31L22 32L20 32L20 35L21 35L21 33L22 33L22 32L24 32L24 33L25 33L25 32L26 32L26 36L29 36L29 37L30 37L30 38L29 38L29 39L28 39L28 40L29 40L29 39L30 39L30 38L31 38L31 39L32 39L32 40L34 40L34 39L35 39L35 38L33 38L33 39L32 39L32 38L31 38L31 37L32 37L32 36L34 36L34 35L35 35L35 36L36 36L36 34L34 34L34 32L31 32L31 31L32 31L32 28L33 28L33 29L34 29L34 28L33 28L33 25L32 25L32 24L33 24L33 23L34 23L34 25L36 25L36 26L34 26L34 27L35 27L35 30L33 30L33 31L35 31L35 30L36 30L36 32L35 32L35 33L36 33L36 32L37 32L37 30L38 30L38 29L37 29L37 28L36 28L36 26L37 26L37 24L38 24L38 23L39 23L39 22L38 22L38 23L37 23L37 21L41 21L41 20L40 20L40 19L37 19L37 20L36 20L36 21L35 21L35 22L33 22L33 21L32 21L32 22L31 22L31 20L30 20L30 19L32 19L32 20L34 20L34 18L32 18L32 16L33 16L33 15L32 15L32 16L31 16L31 18L30 18L30 17L29 17L29 16L30 16L30 14L31 14L31 13L30 13L30 12L31 12L31 11L30 11L30 10L29 10L29 11L30 11L30 12L26 12L26 13L25 13L25 17L23 17L23 16L24 16L24 15L23 15L23 16L22 16L22 17L23 17L23 18L25 18L25 19L24 19L24 20L23 20L23 19L22 19L22 18L21 18L21 17L19 17L19 18L20 18L20 19L18 19L18 18L17 18L17 17L18 17L18 16L17 16L17 15L19 15L19 16L21 16L21 15L19 15L19 13L18 13L18 11L21 11L21 10L20 10L20 9L19 9L19 8L18 8L18 7L19 7L19 5ZM23 5L23 8L26 8L26 5ZM12 6L12 7L13 7L13 8L14 8L14 7L13 7L13 6ZM17 6L17 7L18 7L18 6ZM21 6L21 7L22 7L22 6ZM24 6L24 7L25 7L25 6ZM28 6L28 7L29 7L29 6ZM40 6L40 7L41 7L41 6ZM17 8L17 9L18 9L18 10L17 10L17 11L18 11L18 10L19 10L19 9L18 9L18 8ZM33 8L33 9L35 9L35 8ZM48 8L48 9L46 9L46 10L48 10L48 11L49 11L49 10L48 10L48 9L49 9L49 8ZM24 10L24 11L25 11L25 10ZM42 10L42 11L43 11L43 12L44 12L44 13L46 13L46 12L44 12L44 11L43 11L43 10ZM26 13L26 17L25 17L25 18L27 18L27 17L28 17L28 20L25 20L25 21L23 21L23 22L25 22L25 21L26 21L26 22L27 22L27 21L29 21L29 19L30 19L30 18L29 18L29 17L28 17L28 15L29 15L29 14L30 14L30 13L29 13L29 14L27 14L27 13ZM6 14L6 15L7 15L7 16L6 16L6 17L7 17L7 16L8 16L8 15L9 15L9 14ZM37 14L37 15L36 15L36 16L35 16L35 17L36 17L36 16L37 16L37 17L38 17L38 16L37 16L37 15L38 15L38 14ZM47 14L47 15L49 15L49 14ZM41 16L41 17L42 17L42 16ZM44 16L44 17L45 17L45 16ZM13 18L13 19L12 19L12 20L11 20L11 19L10 19L10 20L11 20L11 21L12 21L12 20L13 20L13 19L15 19L15 18ZM46 18L46 19L45 19L45 20L44 20L44 21L43 21L43 22L46 22L46 20L47 20L47 18ZM18 21L18 22L17 22L17 23L18 23L18 22L19 22L19 21ZM28 22L28 23L27 23L27 24L28 24L28 25L27 25L27 26L28 26L28 27L26 27L26 28L28 28L28 30L27 30L27 31L28 31L28 32L27 32L27 33L28 33L28 32L29 32L29 31L31 31L31 30L29 30L29 28L30 28L30 29L31 29L31 28L32 28L32 27L31 27L31 26L29 26L29 25L30 25L30 24L29 24L29 22ZM30 22L30 23L31 23L31 24L32 24L32 23L33 23L33 22L32 22L32 23L31 23L31 22ZM5 23L5 26L8 26L8 23ZM23 23L23 26L26 26L26 23ZM35 23L35 24L37 24L37 23ZM41 23L41 26L44 26L44 23ZM1 24L1 26L2 26L2 24ZM3 24L3 25L4 25L4 24ZM6 24L6 25L7 25L7 24ZM24 24L24 25L25 25L25 24ZM42 24L42 25L43 25L43 24ZM14 25L14 27L15 27L15 25ZM46 26L46 27L47 27L47 28L46 28L46 31L47 31L47 32L43 32L43 33L47 33L47 32L48 32L48 33L49 33L49 30L48 30L48 31L47 31L47 29L49 29L49 26ZM28 27L28 28L29 28L29 27ZM30 27L30 28L31 28L31 27ZM42 27L42 28L43 28L43 27ZM21 28L21 29L23 29L23 28ZM6 30L6 31L7 31L7 30ZM13 30L13 31L14 31L14 30ZM24 30L24 31L25 31L25 30ZM16 32L16 35L17 35L17 32ZM6 33L6 34L5 34L5 35L6 35L6 36L7 36L7 35L6 35L6 34L7 34L7 33ZM29 33L29 34L30 34L30 35L29 35L29 36L30 36L30 35L31 35L31 36L32 36L32 35L31 35L31 34L32 34L32 33L31 33L31 34L30 34L30 33ZM37 33L37 34L38 34L38 35L39 35L39 34L38 34L38 33ZM0 34L0 36L1 36L1 34ZM8 34L8 35L9 35L9 36L8 36L8 37L9 37L9 39L8 39L8 38L7 38L7 39L8 39L8 41L9 41L9 40L10 40L10 39L12 39L12 38L10 38L10 35L9 35L9 34ZM24 34L24 35L22 35L22 39L23 39L23 38L24 38L24 36L25 36L25 34ZM27 34L27 35L28 35L28 34ZM33 34L33 35L34 35L34 34ZM40 35L40 36L41 36L41 35ZM45 36L45 37L46 37L46 36ZM0 37L0 38L1 38L1 40L0 40L0 41L3 41L3 40L4 40L4 39L2 39L2 37ZM25 37L25 38L26 38L26 37ZM27 37L27 38L28 38L28 37ZM47 38L47 39L49 39L49 38ZM35 40L35 41L38 41L38 40ZM10 41L10 42L9 42L9 44L10 44L10 42L11 42L11 43L13 43L13 44L14 44L14 45L15 45L15 46L16 46L16 45L15 45L15 42L14 42L14 41L13 41L13 42L12 42L12 41ZM23 41L23 44L26 44L26 41ZM32 41L32 42L34 42L34 41ZM41 41L41 44L44 44L44 41ZM13 42L13 43L14 43L14 42ZM24 42L24 43L25 43L25 42ZM42 42L42 43L43 43L43 42ZM47 42L47 43L49 43L49 42ZM34 43L34 44L33 44L33 45L34 45L34 44L35 44L35 43ZM17 44L17 45L18 45L18 44ZM10 45L10 47L12 47L12 46L13 46L13 45L12 45L12 46L11 46L11 45ZM38 45L38 46L37 46L37 47L38 47L38 46L39 46L39 47L40 47L40 46L41 46L41 45L40 45L40 46L39 46L39 45ZM43 45L43 46L44 46L44 47L45 47L45 48L48 48L48 47L47 47L47 46L46 46L46 47L45 47L45 46L44 46L44 45ZM24 46L24 47L23 47L23 48L24 48L24 49L25 49L25 48L26 48L26 47L25 47L25 46ZM15 47L15 48L17 48L17 47ZM24 47L24 48L25 48L25 47ZM0 0L0 7L7 7L7 0ZM1 1L1 6L6 6L6 1ZM2 2L2 5L5 5L5 2ZM42 0L42 7L49 7L49 0ZM43 1L43 6L48 6L48 1ZM44 2L44 5L47 5L47 2ZM0 42L0 49L7 49L7 42ZM1 43L1 48L6 48L6 43ZM2 44L2 47L5 47L5 44Z" fill="#000000"/></g></g></svg>
