<?xml version="1.0" encoding="UTF-8"?>
<svg xmlns="http://www.w3.org/2000/svg" version="1.1" width="300" height="300" viewBox="0 0 300 300"><rect x="0" y="0" width="300" height="300" fill="#ffffff"/><g transform="scale(8.108)"><g transform="translate(0,0)"><path fill-rule="evenodd" d="M8 0L8 1L11 1L11 2L8 2L8 4L10 4L10 5L11 5L11 4L10 4L10 3L11 3L11 2L12 2L12 3L13 3L13 4L12 4L12 5L13 5L13 6L12 6L12 7L13 7L13 8L11 8L11 6L10 6L10 8L11 8L11 9L12 9L12 10L13 10L13 8L14 8L14 11L13 11L13 13L12 13L12 14L11 14L11 13L10 13L10 12L12 12L12 11L11 11L11 10L9 10L9 5L8 5L8 8L5 8L5 9L4 9L4 8L3 8L3 9L2 9L2 8L1 8L1 9L2 9L2 10L6 10L6 11L3 11L3 13L4 13L4 14L0 14L0 15L3 15L3 16L1 16L1 17L0 17L0 18L3 18L3 17L4 17L4 19L7 19L7 20L5 20L5 21L4 21L4 23L3 23L3 25L7 25L7 24L6 24L6 23L10 23L10 24L8 24L8 27L10 27L10 28L9 28L9 29L8 29L8 28L6 28L6 27L7 27L7 26L5 26L5 27L3 27L3 26L2 26L2 27L1 27L1 26L0 26L0 27L1 27L1 28L0 28L0 29L4 29L4 28L6 28L6 29L8 29L8 32L9 32L9 33L8 33L8 34L9 34L9 33L10 33L10 35L8 35L8 36L9 36L9 37L10 37L10 35L11 35L11 37L12 37L12 36L13 36L13 37L15 37L15 36L16 36L16 37L18 37L18 33L17 33L17 32L16 32L16 30L18 30L18 29L20 29L20 28L21 28L21 27L22 27L22 26L20 26L20 25L23 25L23 24L22 24L22 23L23 23L23 22L24 22L24 19L23 19L23 20L22 20L22 19L20 19L20 17L19 17L19 15L18 15L18 14L17 14L17 12L16 12L16 14L17 14L17 16L18 16L18 17L17 17L17 18L18 18L18 17L19 17L19 19L16 19L16 17L14 17L14 15L15 15L15 16L16 16L16 15L15 15L15 12L14 12L14 11L15 11L15 10L17 10L17 11L18 11L18 12L19 12L19 14L20 14L20 12L19 12L19 10L22 10L22 7L23 7L23 6L24 6L24 8L26 8L26 9L25 9L25 10L26 10L26 11L25 11L25 13L27 13L27 14L26 14L26 15L25 15L25 14L22 14L22 13L23 13L23 11L21 11L21 12L22 12L22 13L21 13L21 14L22 14L22 15L20 15L20 16L26 16L26 17L25 17L25 18L26 18L26 20L30 20L30 21L29 21L29 22L30 22L30 23L28 23L28 25L27 25L27 24L26 24L26 23L27 23L27 21L25 21L25 24L24 24L24 26L23 26L23 27L25 27L25 28L26 28L26 29L28 29L28 30L27 30L27 31L26 31L26 32L25 32L25 31L24 31L24 32L23 32L23 31L22 31L22 30L19 30L19 31L18 31L18 32L19 32L19 36L22 36L22 37L25 37L25 33L26 33L26 34L29 34L29 35L26 35L26 36L27 36L27 37L29 37L29 35L30 35L30 37L31 37L31 36L32 36L32 37L34 37L34 35L35 35L35 34L36 34L36 35L37 35L37 33L35 33L35 34L34 34L34 35L33 35L33 33L34 33L34 32L35 32L35 30L36 30L36 31L37 31L37 25L36 25L36 24L37 24L37 23L36 23L36 21L37 21L37 20L36 20L36 19L37 19L37 16L36 16L36 15L37 15L37 13L36 13L36 14L34 14L34 13L35 13L35 12L34 12L34 9L35 9L35 11L37 11L37 8L36 8L36 9L35 9L35 8L33 8L33 9L32 9L32 8L29 8L29 6L28 6L28 5L29 5L29 4L28 4L28 3L29 3L29 1L28 1L28 0L25 0L25 4L26 4L26 5L27 5L27 6L26 6L26 7L25 7L25 6L24 6L24 5L23 5L23 4L21 4L21 2L22 2L22 3L23 3L23 0L22 0L22 1L21 1L21 0L20 0L20 4L21 4L21 5L19 5L19 3L18 3L18 5L19 5L19 6L18 6L18 7L17 7L17 6L16 6L16 5L17 5L17 2L19 2L19 0L18 0L18 1L16 1L16 0L15 0L15 1L16 1L16 2L15 2L15 4L14 4L14 2L13 2L13 1L12 1L12 0ZM26 2L26 3L27 3L27 2ZM13 4L13 5L14 5L14 4ZM15 4L15 5L16 5L16 4ZM22 5L22 6L21 6L21 7L20 7L20 6L19 6L19 7L18 7L18 8L16 8L16 9L17 9L17 10L19 10L19 9L21 9L21 7L22 7L22 6L23 6L23 5ZM13 6L13 7L14 7L14 8L15 8L15 7L16 7L16 6L15 6L15 7L14 7L14 6ZM27 6L27 7L26 7L26 8L27 8L27 9L26 9L26 10L27 10L27 11L26 11L26 12L27 12L27 13L28 13L28 12L29 12L29 14L27 14L27 19L30 19L30 20L31 20L31 23L30 23L30 24L29 24L29 25L28 25L28 26L30 26L30 27L29 27L29 28L31 28L31 26L32 26L32 28L33 28L33 29L34 29L34 30L35 30L35 29L36 29L36 27L35 27L35 26L36 26L36 25L35 25L35 24L36 24L36 23L35 23L35 21L36 21L36 20L34 20L34 23L33 23L33 21L32 21L32 20L33 20L33 18L34 18L34 19L36 19L36 18L35 18L35 17L33 17L33 10L32 10L32 9L30 9L30 10L29 10L29 8L28 8L28 6ZM6 9L6 10L7 10L7 9ZM27 9L27 10L28 10L28 11L27 11L27 12L28 12L28 11L29 11L29 12L30 12L30 14L31 14L31 16L30 16L30 17L28 17L28 18L30 18L30 19L32 19L32 18L33 18L33 17L32 17L32 14L31 14L31 13L32 13L32 12L31 12L31 11L32 11L32 10L30 10L30 11L29 11L29 10L28 10L28 9ZM8 10L8 11L6 11L6 12L4 12L4 13L5 13L5 14L4 14L4 17L5 17L5 14L7 14L7 13L6 13L6 12L8 12L8 11L9 11L9 10ZM0 11L0 13L2 13L2 11ZM8 13L8 15L6 15L6 16L7 16L7 17L6 17L6 18L7 18L7 17L8 17L8 19L10 19L10 20L9 20L9 21L11 21L11 23L12 23L12 24L11 24L11 26L10 26L10 25L9 25L9 26L10 26L10 27L11 27L11 26L12 26L12 28L13 28L13 29L14 29L14 26L15 26L15 27L16 27L16 29L18 29L18 27L19 27L19 28L20 28L20 26L19 26L19 24L18 24L18 25L16 25L16 26L15 26L15 25L14 25L14 26L12 26L12 25L13 25L13 23L12 23L12 21L11 21L11 20L13 20L13 19L15 19L15 20L16 20L16 21L13 21L13 22L15 22L15 23L20 23L20 24L21 24L21 22L20 22L20 21L21 21L21 20L20 20L20 21L19 21L19 20L16 20L16 19L15 19L15 18L14 18L14 17L11 17L11 16L13 16L13 15L14 15L14 14L13 14L13 15L11 15L11 14L10 14L10 13ZM9 14L9 16L11 16L11 15L10 15L10 14ZM28 15L28 16L29 16L29 15ZM34 15L34 16L35 16L35 15ZM9 17L9 18L10 18L10 19L11 19L11 17ZM21 17L21 18L23 18L23 17ZM1 19L1 20L2 20L2 21L3 21L3 20L2 20L2 19ZM5 21L5 23L6 23L6 22L8 22L8 21ZM16 21L16 22L18 22L18 21ZM22 21L22 22L23 22L23 21ZM0 22L0 23L2 23L2 22ZM32 23L32 24L30 24L30 25L33 25L33 23ZM0 24L0 25L1 25L1 24ZM25 24L25 25L26 25L26 24ZM25 26L25 27L26 27L26 26ZM2 27L2 28L3 28L3 27ZM27 27L27 28L28 28L28 27ZM34 27L34 28L35 28L35 27ZM22 28L22 29L23 29L23 30L24 30L24 29L23 29L23 28ZM10 29L10 31L11 31L11 32L10 32L10 33L11 33L11 35L12 35L12 34L13 34L13 36L15 36L15 35L14 35L14 34L15 34L15 33L13 33L13 32L12 32L12 31L14 31L14 32L15 32L15 30L12 30L12 31L11 31L11 29ZM29 29L29 32L32 32L32 29ZM30 30L30 31L31 31L31 30ZM21 31L21 33L20 33L20 35L23 35L23 32L22 32L22 31ZM11 32L11 33L12 33L12 32ZM26 32L26 33L28 33L28 32ZM16 33L16 36L17 36L17 33ZM21 33L21 34L22 34L22 33ZM30 33L30 35L32 35L32 36L33 36L33 35L32 35L32 34L31 34L31 33ZM35 36L35 37L37 37L37 36ZM0 0L0 7L7 7L7 0ZM1 1L1 6L6 6L6 1ZM2 2L2 5L5 5L5 2ZM30 0L30 7L37 7L37 0ZM31 1L31 6L36 6L36 1ZM32 2L32 5L35 5L35 2ZM0 30L0 37L7 37L7 30ZM1 31L1 36L6 36L6 31ZM2 32L2 35L5 35L5 32Z" fill="#000000"/></g></g></svg>
