<?xml version="1.0" encoding="UTF-8"?>
<svg xmlns="http://www.w3.org/2000/svg" version="1.1" width="300" height="300" viewBox="0 0 300 300"><rect x="0" y="0" width="300" height="300" fill="#ffffff"/><g transform="scale(6.122)"><g transform="translate(0,0)"><path fill-rule="evenodd" d="M8 0L8 1L10 1L10 2L12 2L12 3L10 3L10 5L11 5L11 6L10 6L10 7L9 7L9 4L8 4L8 7L9 7L9 9L8 9L8 8L1 8L1 9L0 9L0 10L1 10L1 12L0 12L0 16L2 16L2 15L3 15L3 17L4 17L4 19L3 19L3 18L1 18L1 19L0 19L0 20L1 20L1 21L0 21L0 26L1 26L1 27L0 27L0 28L1 28L1 29L2 29L2 26L1 26L1 24L2 24L2 25L3 25L3 26L4 26L4 27L5 27L5 28L4 28L4 30L5 30L5 29L7 29L7 30L6 30L6 31L5 31L5 32L4 32L4 33L3 33L3 30L2 30L2 32L1 32L1 31L0 31L0 33L1 33L1 37L0 37L0 38L1 38L1 40L0 40L0 41L3 41L3 40L4 40L4 39L2 39L2 38L4 38L4 36L3 36L3 35L5 35L5 37L7 37L7 36L9 36L9 35L11 35L11 36L13 36L13 37L10 37L10 38L11 38L11 39L9 39L9 41L8 41L8 40L6 40L6 41L8 41L8 48L9 48L9 49L10 49L10 48L11 48L11 49L12 49L12 48L13 48L13 46L14 46L14 48L15 48L15 49L18 49L18 46L19 46L19 47L20 47L20 49L21 49L21 48L22 48L22 46L23 46L23 45L27 45L27 44L29 44L29 45L28 45L28 46L27 46L27 49L28 49L28 48L29 48L29 49L30 49L30 47L28 47L28 46L31 46L31 47L32 47L32 48L31 48L31 49L32 49L32 48L33 48L33 49L34 49L34 47L37 47L37 48L35 48L35 49L38 49L38 48L39 48L39 49L40 49L40 48L39 48L39 47L40 47L40 46L38 46L38 45L41 45L41 47L42 47L42 48L41 48L41 49L42 49L42 48L43 48L43 47L44 47L44 48L45 48L45 49L49 49L49 45L48 45L48 44L46 44L46 46L45 46L45 43L46 43L46 42L45 42L45 41L46 41L46 40L47 40L47 41L48 41L48 40L47 40L47 39L49 39L49 38L47 38L47 36L48 36L48 37L49 37L49 34L47 34L47 33L49 33L49 32L48 32L48 31L49 31L49 30L48 30L48 29L49 29L49 26L48 26L48 25L47 25L47 24L48 24L48 23L49 23L49 22L47 22L47 20L48 20L48 21L49 21L49 18L47 18L47 17L48 17L48 16L47 16L47 17L46 17L46 15L45 15L45 14L47 14L47 15L49 15L49 14L47 14L47 13L48 13L48 12L46 12L46 11L47 11L47 10L46 10L46 9L45 9L45 8L43 8L43 9L42 9L42 10L41 10L41 11L42 11L42 12L36 12L36 10L33 10L33 8L29 8L29 9L27 9L27 6L28 6L28 7L29 7L29 6L30 6L30 7L31 7L31 6L30 6L30 5L32 5L32 4L30 4L30 2L29 2L29 1L31 1L31 2L32 2L32 3L33 3L33 4L37 4L37 6L36 6L36 8L35 8L35 5L33 5L33 6L32 6L32 7L33 7L33 6L34 6L34 8L35 8L35 9L36 9L36 8L37 8L37 9L38 9L38 8L39 8L39 9L41 9L41 8L39 8L39 5L38 5L38 3L35 3L35 2L37 2L37 1L38 1L38 2L39 2L39 4L40 4L40 3L41 3L41 0L40 0L40 1L38 1L38 0L35 0L35 1L31 1L31 0L29 0L29 1L28 1L28 3L25 3L25 2L27 2L27 0L25 0L25 1L24 1L24 0L23 0L23 1L22 1L22 2L21 2L21 1L20 1L20 2L18 2L18 1L19 1L19 0L16 0L16 1L15 1L15 0ZM12 1L12 2L13 2L13 1ZM16 1L16 3L18 3L18 4L19 4L19 5L18 5L18 6L17 6L17 5L16 5L16 6L15 6L15 7L14 7L14 5L15 5L15 4L14 4L14 5L12 5L12 6L11 6L11 7L10 7L10 8L13 8L13 10L14 10L14 12L13 12L13 14L14 14L14 15L13 15L13 16L15 16L15 17L13 17L13 18L12 18L12 17L9 17L9 15L8 15L8 16L7 16L7 15L5 15L5 16L4 16L4 17L5 17L5 19L4 19L4 21L3 21L3 19L1 19L1 20L2 20L2 21L1 21L1 23L2 23L2 24L3 24L3 25L4 25L4 24L3 24L3 22L7 22L7 21L6 21L6 20L7 20L7 19L6 19L6 18L7 18L7 17L8 17L8 18L10 18L10 19L9 19L9 20L10 20L10 21L9 21L9 22L10 22L10 23L11 23L11 22L12 22L12 24L13 24L13 25L9 25L9 27L12 27L12 28L11 28L11 30L10 30L10 29L9 29L9 28L8 28L8 27L6 27L6 28L7 28L7 29L8 29L8 30L7 30L7 31L6 31L6 32L7 32L7 31L8 31L8 33L6 33L6 34L5 34L5 35L6 35L6 36L7 36L7 35L6 35L6 34L8 34L8 33L9 33L9 34L13 34L13 32L11 32L11 31L12 31L12 29L15 29L15 31L14 31L14 30L13 30L13 31L14 31L14 33L16 33L16 34L17 34L17 35L15 35L15 34L14 34L14 35L13 35L13 36L14 36L14 38L13 38L13 39L14 39L14 38L15 38L15 40L16 40L16 41L17 41L17 37L18 37L18 41L19 41L19 39L20 39L20 41L21 41L21 40L22 40L22 39L23 39L23 38L24 38L24 37L25 37L25 38L26 38L26 37L25 37L25 36L26 36L26 33L25 33L25 35L23 35L23 34L24 34L24 33L23 33L23 34L22 34L22 30L21 30L21 28L22 28L22 26L21 26L21 27L20 27L20 28L19 28L19 29L20 29L20 30L21 30L21 31L19 31L19 30L18 30L18 29L16 29L16 27L17 27L17 28L18 28L18 26L20 26L20 25L19 25L19 22L20 22L20 24L21 24L21 25L22 25L22 23L21 23L21 22L22 22L22 21L24 21L24 22L26 22L26 21L25 21L25 20L27 20L27 23L28 23L28 24L27 24L27 25L28 25L28 24L29 24L29 25L30 25L30 24L29 24L29 21L28 21L28 20L29 20L29 18L30 18L30 17L28 17L28 15L29 15L29 16L30 16L30 15L32 15L32 14L35 14L35 15L34 15L34 16L31 16L31 18L32 18L32 19L30 19L30 20L31 20L31 22L30 22L30 23L31 23L31 24L32 24L32 25L33 25L33 28L32 28L32 27L31 27L31 26L29 26L29 28L26 28L26 29L25 29L25 27L24 27L24 28L23 28L23 30L26 30L26 32L28 32L28 33L27 33L27 34L28 34L28 35L29 35L29 36L27 36L27 37L33 37L33 38L28 38L28 39L27 39L27 40L28 40L28 42L27 42L27 43L30 43L30 42L31 42L31 43L32 43L32 42L34 42L34 43L33 43L33 44L32 44L32 47L33 47L33 46L35 46L35 44L37 44L37 43L40 43L40 41L39 41L39 42L37 42L37 43L35 43L35 42L34 42L34 41L33 41L33 40L34 40L34 39L33 39L33 38L37 38L37 39L35 39L35 40L37 40L37 41L38 41L38 40L37 40L37 39L38 39L38 38L39 38L39 36L40 36L40 37L41 37L41 36L43 36L43 35L42 35L42 34L43 34L43 33L44 33L44 35L45 35L45 33L44 33L44 32L47 32L47 31L48 31L48 30L47 30L47 31L46 31L46 28L47 28L47 27L48 27L48 26L47 26L47 25L45 25L45 27L44 27L44 29L43 29L43 30L44 30L44 31L42 31L42 32L41 32L41 33L42 33L42 34L39 34L39 32L40 32L40 31L41 31L41 30L42 30L42 29L41 29L41 27L40 27L40 26L39 26L39 24L40 24L40 23L38 23L38 22L39 22L39 21L40 21L40 22L41 22L41 21L42 21L42 18L43 18L43 14L41 14L41 13L40 13L40 14L41 14L41 15L42 15L42 16L40 16L40 17L39 17L39 15L38 15L38 14L39 14L39 13L37 13L37 14L35 14L35 13L36 13L36 12L35 12L35 11L33 11L33 12L32 12L32 11L31 11L31 10L32 10L32 9L31 9L31 10L30 10L30 9L29 9L29 10L28 10L28 11L27 11L27 9L24 9L24 10L21 10L21 9L22 9L22 8L20 8L20 5L21 5L21 7L22 7L22 4L24 4L24 3L23 3L23 2L24 2L24 1L23 1L23 2L22 2L22 3L21 3L21 4L19 4L19 3L18 3L18 2L17 2L17 1ZM14 2L14 3L15 3L15 2ZM33 2L33 3L34 3L34 2ZM12 3L12 4L13 4L13 3ZM28 3L28 4L29 4L29 3ZM23 5L23 8L26 8L26 5ZM12 6L12 7L13 7L13 8L14 8L14 7L13 7L13 6ZM16 6L16 7L15 7L15 9L16 9L16 10L15 10L15 11L16 11L16 10L17 10L17 11L18 11L18 10L17 10L17 9L18 9L18 8L19 8L19 10L20 10L20 11L21 11L21 12L18 12L18 13L17 13L17 12L15 12L15 13L16 13L16 15L15 15L15 16L16 16L16 17L15 17L15 18L13 18L13 19L15 19L15 18L16 18L16 20L20 20L20 18L21 18L21 19L22 19L22 20L24 20L24 19L22 19L22 18L21 18L21 17L19 17L19 16L21 16L21 14L22 14L22 15L23 15L23 16L22 16L22 17L23 17L23 18L25 18L25 19L28 19L28 17L27 17L27 18L25 18L25 17L26 17L26 13L27 13L27 14L29 14L29 15L30 15L30 14L32 14L32 12L31 12L31 11L30 11L30 12L26 12L26 10L24 10L24 11L23 11L23 12L22 12L22 11L21 11L21 10L20 10L20 8L19 8L19 6L18 6L18 8L17 8L17 6ZM24 6L24 7L25 7L25 6ZM37 6L37 8L38 8L38 6ZM40 6L40 7L41 7L41 6ZM48 8L48 9L49 9L49 8ZM2 9L2 12L3 12L3 13L1 13L1 15L2 15L2 14L3 14L3 15L4 15L4 14L3 14L3 13L4 13L4 12L3 12L3 10L4 10L4 11L5 11L5 10L7 10L7 11L6 11L6 12L7 12L7 11L8 11L8 12L9 12L9 13L5 13L5 14L10 14L10 15L11 15L11 16L12 16L12 14L10 14L10 12L11 12L11 11L10 11L10 10L12 10L12 9L9 9L9 10L8 10L8 9ZM43 9L43 10L42 10L42 11L43 11L43 12L44 12L44 13L46 13L46 12L44 12L44 11L45 11L45 9ZM37 10L37 11L39 11L39 10ZM43 10L43 11L44 11L44 10ZM48 10L48 11L49 11L49 10ZM9 11L9 12L10 12L10 11ZM23 12L23 13L24 13L24 14L23 14L23 15L24 15L24 16L23 16L23 17L25 17L25 13L26 13L26 12ZM33 12L33 13L35 13L35 12ZM29 13L29 14L30 14L30 13ZM19 14L19 15L20 15L20 14ZM17 15L17 18L18 18L18 19L19 19L19 18L18 18L18 15ZM6 16L6 17L7 17L7 16ZM36 16L36 18L35 18L35 19L37 19L37 20L36 20L36 21L35 21L35 22L33 22L33 21L32 21L32 22L31 22L31 23L32 23L32 24L33 24L33 23L34 23L34 25L36 25L36 26L34 26L34 27L35 27L35 30L33 30L33 31L35 31L35 32L33 32L33 34L34 34L34 35L30 35L30 34L32 34L32 33L31 33L31 32L32 32L32 28L31 28L31 27L30 27L30 28L29 28L29 30L31 30L31 32L30 32L30 31L29 31L29 33L30 33L30 34L29 34L29 35L30 35L30 36L34 36L34 35L35 35L35 36L36 36L36 37L37 37L37 38L38 38L38 36L39 36L39 34L38 34L38 33L37 33L37 30L38 30L38 31L39 31L39 30L40 30L40 28L38 28L38 29L37 29L37 28L36 28L36 26L37 26L37 24L38 24L38 23L37 23L37 21L39 21L39 19L40 19L40 21L41 21L41 18L42 18L42 17L40 17L40 18L39 18L39 19L38 19L38 18L37 18L37 17L38 17L38 16ZM44 16L44 17L45 17L45 16ZM32 17L32 18L34 18L34 17ZM11 18L11 19L10 19L10 20L11 20L11 21L13 21L13 20L11 20L11 19L12 19L12 18ZM46 18L46 19L45 19L45 20L44 20L44 21L43 21L43 22L46 22L46 23L45 23L45 24L47 24L47 22L46 22L46 20L47 20L47 18ZM32 19L32 20L34 20L34 19ZM14 21L14 22L15 22L15 21ZM18 21L18 22L16 22L16 23L14 23L14 25L13 25L13 26L12 26L12 27L13 27L13 26L14 26L14 28L15 28L15 27L16 27L16 24L17 24L17 23L18 23L18 22L19 22L19 21ZM32 22L32 23L33 23L33 22ZM5 23L5 26L8 26L8 23ZM23 23L23 26L26 26L26 23ZM35 23L35 24L37 24L37 23ZM41 23L41 26L44 26L44 23ZM6 24L6 25L7 25L7 24ZM24 24L24 25L25 25L25 24ZM42 24L42 25L43 25L43 24ZM14 25L14 26L15 26L15 25ZM17 25L17 26L18 26L18 25ZM27 26L27 27L28 27L28 26ZM38 26L38 27L39 27L39 26ZM46 26L46 27L47 27L47 26ZM42 27L42 28L43 28L43 27ZM30 28L30 29L31 29L31 28ZM33 28L33 29L34 29L34 28ZM38 29L38 30L39 30L39 29ZM9 30L9 33L10 33L10 30ZM27 30L27 31L28 31L28 30ZM35 30L35 31L36 31L36 30ZM17 31L17 32L16 32L16 33L17 33L17 34L19 34L19 35L20 35L20 39L21 39L21 37L22 37L22 36L23 36L23 37L24 37L24 36L23 36L23 35L20 35L20 34L21 34L21 32L20 32L20 33L17 33L17 32L18 32L18 31ZM35 32L35 33L34 33L34 34L35 34L35 35L36 35L36 36L37 36L37 35L38 35L38 34L37 34L37 35L36 35L36 34L35 34L35 33L36 33L36 32ZM2 33L2 35L3 35L3 33ZM46 34L46 36L47 36L47 34ZM14 35L14 36L15 36L15 37L16 37L16 36L15 36L15 35ZM40 35L40 36L41 36L41 35ZM8 37L8 38L5 38L5 39L8 39L8 38L9 38L9 37ZM42 37L42 38L41 38L41 39L39 39L39 40L41 40L41 39L42 39L42 40L43 40L43 39L42 39L42 38L44 38L44 40L46 40L46 39L45 39L45 38L46 38L46 37ZM11 39L11 40L10 40L10 42L9 42L9 44L10 44L10 42L11 42L11 44L14 44L14 45L15 45L15 47L16 47L16 48L17 48L17 45L18 45L18 44L17 44L17 45L16 45L16 44L15 44L15 41L14 41L14 43L12 43L12 42L11 42L11 41L13 41L13 40L12 40L12 39ZM28 39L28 40L30 40L30 39ZM31 39L31 40L33 40L33 39ZM23 41L23 44L26 44L26 41ZM29 41L29 42L30 42L30 41ZM31 41L31 42L32 42L32 41ZM41 41L41 44L44 44L44 41ZM17 42L17 43L18 43L18 42ZM21 42L21 45L19 45L19 46L21 46L21 45L22 45L22 42ZM24 42L24 43L25 43L25 42ZM42 42L42 43L43 43L43 42ZM47 42L47 43L49 43L49 42ZM19 43L19 44L20 44L20 43ZM34 43L34 44L33 44L33 45L34 45L34 44L35 44L35 43ZM10 45L10 47L11 47L11 46L13 46L13 45ZM43 45L43 46L44 46L44 47L45 47L45 48L48 48L48 47L47 47L47 46L46 46L46 47L45 47L45 46L44 46L44 45ZM24 46L24 47L23 47L23 48L24 48L24 49L25 49L25 48L26 48L26 47L25 47L25 46ZM37 46L37 47L38 47L38 46ZM24 47L24 48L25 48L25 47ZM0 0L0 7L7 7L7 0ZM1 1L1 6L6 6L6 1ZM2 2L2 5L5 5L5 2ZM42 0L42 7L49 7L49 0ZM43 1L43 6L48 6L48 1ZM44 2L44 5L47 5L47 2ZM0 42L0 49L7 49L7 42ZM1 43L1 48L6 48L6 43ZM2 44L2 47L5 47L5 44Z" fill="#000000"/></g></g></svg>
