<?xml version="1.0" encoding="UTF-8"?>
<svg xmlns="http://www.w3.org/2000/svg" version="1.1" width="300" height="300" viewBox="0 0 300 300"><rect x="0" y="0" width="300" height="300" fill="#ffffff"/><g transform="scale(8.108)"><g transform="translate(0,0)"><path fill-rule="evenodd" d="M8 0L8 1L9 1L9 2L8 2L8 4L9 4L9 2L10 2L10 3L11 3L11 2L12 2L12 4L13 4L13 1L14 1L14 5L13 5L13 6L12 6L12 7L11 7L11 4L10 4L10 7L11 7L11 9L10 9L10 8L9 8L9 5L8 5L8 8L5 8L5 9L10 9L10 10L11 10L11 11L10 11L10 12L9 12L9 13L8 13L8 15L7 15L7 14L6 14L6 13L7 13L7 12L5 12L5 13L4 13L4 11L9 11L9 10L4 10L4 8L3 8L3 9L2 9L2 8L1 8L1 9L0 9L0 12L1 12L1 13L0 13L0 14L1 14L1 15L0 15L0 16L1 16L1 17L2 17L2 16L1 16L1 15L4 15L4 14L5 14L5 18L6 18L6 19L7 19L7 20L5 20L5 21L4 21L4 22L3 22L3 21L2 21L2 22L0 22L0 23L2 23L2 25L4 25L4 27L3 27L3 26L2 26L2 27L1 27L1 26L0 26L0 27L1 27L1 28L0 28L0 29L3 29L3 28L4 28L4 29L7 29L7 28L8 28L8 32L9 32L9 33L8 33L8 34L9 34L9 35L8 35L8 36L9 36L9 35L10 35L10 36L11 36L11 37L12 37L12 36L13 36L13 37L14 37L14 36L15 36L15 33L16 33L16 35L17 35L17 32L15 32L15 33L13 33L13 34L12 34L12 35L10 35L10 34L11 34L11 33L10 33L10 32L11 32L11 31L10 31L10 29L11 29L11 30L12 30L12 29L11 29L11 26L12 26L12 27L13 27L13 28L14 28L14 29L13 29L13 30L14 30L14 31L12 31L12 32L14 32L14 31L17 31L17 30L18 30L18 28L20 28L20 31L18 31L18 32L20 32L20 33L19 33L19 36L16 36L16 37L19 37L19 36L22 36L22 37L25 37L25 33L26 33L26 34L27 34L27 33L26 33L26 32L27 32L27 31L28 31L28 34L29 34L29 33L32 33L32 34L31 34L31 35L30 35L30 36L29 36L29 35L26 35L26 36L27 36L27 37L31 37L31 35L32 35L32 37L34 37L34 32L35 32L35 30L36 30L36 31L37 31L37 25L36 25L36 24L37 24L37 23L36 23L36 21L37 21L37 20L36 20L36 19L37 19L37 16L36 16L36 15L37 15L37 12L36 12L36 11L37 11L37 8L36 8L36 9L35 9L35 8L33 8L33 9L32 9L32 8L29 8L29 10L28 10L28 9L27 9L27 8L26 8L26 7L27 7L27 6L28 6L28 7L29 7L29 6L28 6L28 4L29 4L29 0L27 0L27 1L26 1L26 0L25 0L25 4L26 4L26 5L27 5L27 6L26 6L26 7L25 7L25 6L24 6L24 5L23 5L23 4L22 4L22 5L21 5L21 6L20 6L20 5L19 5L19 6L18 6L18 5L17 5L17 6L16 6L16 4L15 4L15 1L14 1L14 0L13 0L13 1L12 1L12 0L10 0L10 1L9 1L9 0ZM18 0L18 1L19 1L19 0ZM20 0L20 3L21 3L21 0ZM22 0L22 1L23 1L23 0ZM10 1L10 2L11 2L11 1ZM17 2L17 3L18 3L18 4L19 4L19 2ZM22 2L22 3L23 3L23 2ZM26 2L26 3L28 3L28 2ZM13 6L13 7L12 7L12 8L13 8L13 12L11 12L11 13L9 13L9 14L10 14L10 15L12 15L12 13L13 13L13 12L14 12L14 15L13 15L13 16L14 16L14 15L15 15L15 17L11 17L11 16L9 16L9 15L8 15L8 16L7 16L7 15L6 15L6 16L7 16L7 17L6 17L6 18L7 18L7 17L8 17L8 19L9 19L9 20L10 20L10 22L9 22L9 24L10 24L10 25L8 25L8 23L5 23L5 22L8 22L8 21L5 21L5 22L4 22L4 23L3 23L3 24L4 24L4 25L5 25L5 26L7 26L7 25L8 25L8 27L9 27L9 29L10 29L10 26L11 26L11 25L12 25L12 22L14 22L14 21L12 21L12 22L11 22L11 20L13 20L13 18L14 18L14 19L15 19L15 20L16 20L16 21L17 21L17 22L15 22L15 24L17 24L17 23L20 23L20 25L19 25L19 24L18 24L18 25L16 25L16 26L15 26L15 25L13 25L13 27L16 27L16 29L17 29L17 28L18 28L18 27L21 27L21 30L22 30L22 31L21 31L21 33L20 33L20 35L23 35L23 32L24 32L24 30L23 30L23 29L24 29L24 28L23 28L23 26L24 26L24 27L26 27L26 26L25 26L25 25L26 25L26 24L27 24L27 25L28 25L28 26L32 26L32 28L33 28L33 30L35 30L35 29L36 29L36 26L35 26L35 24L36 24L36 23L35 23L35 21L36 21L36 20L34 20L34 18L35 18L35 19L36 19L36 18L35 18L35 17L34 17L34 18L33 18L33 19L32 19L32 20L33 20L33 21L32 21L32 22L31 22L31 23L30 23L30 22L29 22L29 23L28 23L28 18L29 18L29 17L30 17L30 16L32 16L32 17L33 17L33 15L34 15L34 16L35 16L35 15L34 15L34 14L33 14L33 10L32 10L32 9L30 9L30 10L29 10L29 11L28 11L28 10L27 10L27 9L26 9L26 8L24 8L24 6L23 6L23 10L21 10L21 11L23 11L23 13L22 13L22 12L20 12L20 9L21 9L21 8L20 8L20 6L19 6L19 7L18 7L18 6L17 6L17 8L16 8L16 6L15 6L15 7L14 7L14 6ZM21 6L21 7L22 7L22 6ZM13 7L13 8L14 8L14 10L17 10L17 11L18 11L18 13L19 13L19 15L18 15L18 14L17 14L17 13L15 13L15 14L17 14L17 15L16 15L16 16L18 16L18 17L15 17L15 19L16 19L16 18L17 18L17 19L18 19L18 17L19 17L19 20L18 20L18 21L19 21L19 22L21 22L21 25L20 25L20 26L21 26L21 27L22 27L22 26L23 26L23 25L22 25L22 24L23 24L23 23L22 23L22 21L23 21L23 22L24 22L24 19L23 19L23 20L22 20L22 19L20 19L20 17L19 17L19 16L20 16L20 15L21 15L21 16L23 16L23 15L24 15L24 14L25 14L25 13L27 13L27 14L29 14L29 12L28 12L28 11L27 11L27 12L26 12L26 9L25 9L25 12L24 12L24 14L22 14L22 13L19 13L19 8L17 8L17 9L15 9L15 8L14 8L14 7ZM1 9L1 12L2 12L2 13L1 13L1 14L4 14L4 13L3 13L3 11L4 11L4 10L2 10L2 9ZM11 9L11 10L12 10L12 9ZM34 9L34 12L35 12L35 9ZM31 10L31 11L32 11L32 10ZM14 11L14 12L15 12L15 11ZM27 12L27 13L28 13L28 12ZM30 12L30 14L31 14L31 13L32 13L32 12ZM35 13L35 14L36 14L36 13ZM21 14L21 15L22 15L22 14ZM25 15L25 16L26 16L26 17L25 17L25 18L26 18L26 20L27 20L27 16L28 16L28 17L29 17L29 16L28 16L28 15L27 15L27 16L26 16L26 15ZM10 17L10 18L11 18L11 17ZM21 17L21 18L23 18L23 17ZM0 18L0 21L1 21L1 18ZM3 18L3 20L4 20L4 18ZM29 19L29 21L30 21L30 20L31 20L31 19ZM20 20L20 21L21 21L21 20ZM25 21L25 24L26 24L26 23L27 23L27 21ZM10 22L10 24L11 24L11 22ZM32 22L32 24L30 24L30 23L29 23L29 24L28 24L28 25L29 25L29 24L30 24L30 25L33 25L33 22ZM0 24L0 25L1 25L1 24ZM6 24L6 25L7 25L7 24ZM21 25L21 26L22 26L22 25ZM17 26L17 27L18 27L18 26ZM2 27L2 28L3 28L3 27ZM4 27L4 28L5 28L5 27ZM6 27L6 28L7 28L7 27ZM27 27L27 28L28 28L28 27ZM30 27L30 28L31 28L31 27ZM34 27L34 28L35 28L35 27ZM22 28L22 29L23 29L23 28ZM25 28L25 32L26 32L26 31L27 31L27 29L26 29L26 28ZM29 29L29 32L32 32L32 29ZM30 30L30 31L31 31L31 30ZM22 31L22 32L23 32L23 31ZM21 33L21 34L22 34L22 33ZM35 33L35 34L36 34L36 35L37 35L37 33ZM35 36L35 37L37 37L37 36ZM0 0L0 7L7 7L7 0ZM1 1L1 6L6 6L6 1ZM2 2L2 5L5 5L5 2ZM30 0L30 7L37 7L37 0ZM31 1L31 6L36 6L36 1ZM32 2L32 5L35 5L35 2ZM0 30L0 37L7 37L7 30ZM1 31L1 36L6 36L6 31ZM2 32L2 35L5 35L5 32Z" fill="#000000"/></g></g></svg>
