<?xml version="1.0" encoding="UTF-8"?>
<svg xmlns="http://www.w3.org/2000/svg" version="1.1" width="300" height="300" viewBox="0 0 300 300"><rect x="0" y="0" width="300" height="300" fill="#ffffff"/><g transform="scale(6.122)"><g transform="translate(0,0)"><path fill-rule="evenodd" d="M8 0L8 1L9 1L9 0ZM11 0L11 1L10 1L10 2L8 2L8 4L9 4L9 3L10 3L10 5L8 5L8 8L5 8L5 9L4 9L4 8L3 8L3 9L2 9L2 8L1 8L1 9L0 9L0 10L1 10L1 11L0 11L0 14L1 14L1 11L2 11L2 13L3 13L3 14L2 14L2 15L1 15L1 16L0 16L0 17L1 17L1 19L2 19L2 18L3 18L3 20L4 20L4 21L7 21L7 22L4 22L4 23L3 23L3 22L2 22L2 20L1 20L1 22L0 22L0 23L2 23L2 24L3 24L3 25L2 25L2 29L1 29L1 27L0 27L0 32L2 32L2 33L1 33L1 34L0 34L0 36L2 36L2 35L5 35L5 36L4 36L4 37L5 37L5 39L7 39L7 40L6 40L6 41L7 41L7 40L8 40L8 44L9 44L9 43L10 43L10 41L11 41L11 45L12 45L12 43L15 43L15 44L16 44L16 41L18 41L18 43L19 43L19 44L17 44L17 45L19 45L19 46L20 46L20 47L21 47L21 49L23 49L23 48L24 48L24 49L25 49L25 47L26 47L26 49L27 49L27 48L28 48L28 49L30 49L30 48L31 48L31 49L33 49L33 48L34 48L34 49L40 49L40 48L41 48L41 47L43 47L43 48L44 48L44 49L45 49L45 48L44 48L44 47L45 47L45 45L46 45L46 46L47 46L47 47L49 47L49 46L47 46L47 45L46 45L46 44L49 44L49 41L48 41L48 40L49 40L49 36L48 36L48 35L49 35L49 32L48 32L48 31L49 31L49 25L48 25L48 24L49 24L49 20L47 20L47 19L49 19L49 17L48 17L48 16L49 16L49 13L48 13L48 12L49 12L49 8L48 8L48 12L47 12L47 14L46 14L46 10L47 10L47 8L45 8L45 9L46 9L46 10L44 10L44 8L41 8L41 6L40 6L40 8L41 8L41 11L42 11L42 9L43 9L43 10L44 10L44 11L43 11L43 12L41 12L41 13L39 13L39 11L40 11L40 10L39 10L39 11L38 11L38 10L36 10L36 13L35 13L35 10L34 10L34 12L32 12L32 11L33 11L33 10L31 10L31 12L30 12L30 9L31 9L31 8L32 8L32 7L33 7L33 6L34 6L34 8L33 8L33 9L34 9L34 8L35 8L35 9L37 9L37 8L38 8L38 9L39 9L39 8L38 8L38 7L39 7L39 5L38 5L38 7L37 7L37 5L36 5L36 7L37 7L37 8L35 8L35 5L34 5L34 4L35 4L35 3L36 3L36 2L35 2L35 3L34 3L34 1L38 1L38 2L39 2L39 4L40 4L40 3L41 3L41 0L40 0L40 1L38 1L38 0L32 0L32 1L31 1L31 0L29 0L29 2L28 2L28 0L24 0L24 1L23 1L23 0L20 0L20 2L19 2L19 0L17 0L17 1L16 1L16 0L15 0L15 1L14 1L14 0ZM11 1L11 2L10 2L10 3L11 3L11 4L12 4L12 3L11 3L11 2L12 2L12 1ZM17 1L17 2L18 2L18 1ZM22 1L22 2L21 2L21 3L22 3L22 4L21 4L21 5L20 5L20 6L19 6L19 8L18 8L18 9L19 9L19 10L18 10L18 11L21 11L21 10L25 10L25 11L24 11L24 12L21 12L21 13L19 13L19 12L17 12L17 11L16 11L16 10L17 10L17 7L18 7L18 5L16 5L16 4L15 4L15 3L16 3L16 2L15 2L15 3L14 3L14 2L13 2L13 5L16 5L16 6L15 6L15 7L16 7L16 8L14 8L14 6L13 6L13 8L12 8L12 9L13 9L13 10L12 10L12 11L11 11L11 12L10 12L10 11L9 11L9 12L8 12L8 9L5 9L5 11L4 11L4 10L2 10L2 9L1 9L1 10L2 10L2 11L4 11L4 12L8 12L8 13L6 13L6 14L5 14L5 15L6 15L6 16L10 16L10 17L9 17L9 18L8 18L8 17L5 17L5 18L4 18L4 14L3 14L3 18L4 18L4 19L5 19L5 20L7 20L7 21L8 21L8 22L9 22L9 23L11 23L11 24L9 24L9 26L10 26L10 27L9 27L9 28L8 28L8 27L6 27L6 28L7 28L7 29L5 29L5 32L4 32L4 33L2 33L2 34L4 34L4 33L5 33L5 35L6 35L6 36L8 36L8 38L11 38L11 40L13 40L13 41L12 41L12 42L13 42L13 41L14 41L14 42L15 42L15 41L16 41L16 40L15 40L15 39L17 39L17 40L18 40L18 41L19 41L19 43L21 43L21 44L20 44L20 46L21 46L21 47L22 47L22 48L23 48L23 47L24 47L24 46L21 46L21 44L22 44L22 43L21 43L21 41L22 41L22 40L24 40L24 39L23 39L23 37L24 37L24 38L25 38L25 40L26 40L26 39L27 39L27 42L31 42L31 41L29 41L29 40L28 40L28 38L29 38L29 39L30 39L30 40L31 40L31 38L32 38L32 39L34 39L34 42L35 42L35 41L36 41L36 42L37 42L37 41L38 41L38 40L39 40L39 42L40 42L40 40L42 40L42 39L41 39L41 38L43 38L43 37L44 37L44 39L45 39L45 44L46 44L46 42L48 42L48 41L46 41L46 40L47 40L47 39L48 39L48 38L46 38L46 39L45 39L45 37L48 37L48 36L47 36L47 33L48 33L48 32L46 32L46 31L48 31L48 29L47 29L47 30L46 30L46 29L45 29L45 28L47 28L47 26L48 26L48 25L47 25L47 24L48 24L48 23L47 23L47 22L46 22L46 21L47 21L47 20L46 20L46 18L45 18L45 17L44 17L44 15L43 15L43 13L42 13L42 14L39 14L39 13L36 13L36 14L39 14L39 15L43 15L43 17L42 17L42 16L40 16L40 18L41 18L41 19L42 19L42 20L43 20L43 19L42 19L42 18L44 18L44 19L45 19L45 20L44 20L44 22L45 22L45 26L46 26L46 27L43 27L43 29L41 29L41 28L42 28L42 27L41 27L41 28L40 28L40 25L38 25L38 23L39 23L39 22L43 22L43 21L41 21L41 20L39 20L39 21L38 21L38 23L37 23L37 25L36 25L36 26L34 26L34 25L35 25L35 24L36 24L36 23L35 23L35 24L34 24L34 22L37 22L37 21L33 21L33 20L32 20L32 19L34 19L34 15L35 15L35 19L36 19L36 18L37 18L37 19L38 19L38 18L39 18L39 16L38 16L38 15L37 15L37 16L38 16L38 17L36 17L36 15L35 15L35 14L34 14L34 15L33 15L33 14L32 14L32 13L29 13L29 11L27 11L27 10L28 10L28 9L30 9L30 8L28 8L28 9L21 9L21 8L22 8L22 4L26 4L26 3L27 3L27 2L25 2L25 1L24 1L24 3L22 3L22 2L23 2L23 1ZM29 2L29 3L28 3L28 5L27 5L27 7L28 7L28 6L29 6L29 7L30 7L30 6L29 6L29 4L30 4L30 3L32 3L32 4L31 4L31 5L32 5L32 4L33 4L33 3L32 3L32 2ZM19 3L19 4L20 4L20 3ZM23 5L23 8L26 8L26 5ZM9 6L9 9L10 9L10 10L11 10L11 9L10 9L10 8L11 8L11 7L12 7L12 6L11 6L11 7L10 7L10 6ZM16 6L16 7L17 7L17 6ZM20 6L20 8L21 8L21 6ZM24 6L24 7L25 7L25 6ZM31 6L31 7L32 7L32 6ZM14 9L14 10L13 10L13 11L12 11L12 12L11 12L11 13L10 13L10 12L9 12L9 13L10 13L10 14L6 14L6 15L10 15L10 16L11 16L11 17L10 17L10 19L11 19L11 20L10 20L10 21L11 21L11 23L12 23L12 21L13 21L13 24L11 24L11 25L10 25L10 26L11 26L11 27L12 27L12 28L13 28L13 29L14 29L14 27L13 27L13 26L14 26L14 25L13 25L13 24L14 24L14 23L15 23L15 24L16 24L16 25L15 25L15 26L16 26L16 28L15 28L15 29L17 29L17 24L16 24L16 23L15 23L15 21L13 21L13 19L14 19L14 18L15 18L15 19L16 19L16 20L17 20L17 23L18 23L18 24L19 24L19 25L18 25L18 26L19 26L19 27L21 27L21 28L18 28L18 29L20 29L20 30L19 30L19 31L17 31L17 30L15 30L15 31L16 31L16 32L13 32L13 34L12 34L12 35L13 35L13 36L16 36L16 35L17 35L17 37L18 37L18 36L19 36L19 35L20 35L20 36L21 36L21 37L22 37L22 36L21 36L21 35L23 35L23 36L24 36L24 35L25 35L25 36L26 36L26 37L25 37L25 38L26 38L26 37L27 37L27 38L28 38L28 37L29 37L29 38L30 38L30 37L29 37L29 36L30 36L30 33L31 33L31 34L33 34L33 35L35 35L35 36L34 36L34 38L35 38L35 36L36 36L36 37L37 37L37 38L36 38L36 41L37 41L37 40L38 40L38 39L39 39L39 38L40 38L40 37L42 37L42 36L45 36L45 35L44 35L44 33L45 33L45 32L43 32L43 31L44 31L44 30L45 30L45 31L46 31L46 30L45 30L45 29L43 29L43 30L40 30L40 29L38 29L38 27L39 27L39 26L38 26L38 27L36 27L36 28L35 28L35 30L36 30L36 31L33 31L33 27L34 27L34 26L33 26L33 25L34 25L34 24L32 24L32 23L33 23L33 21L31 21L31 19L32 19L32 18L33 18L33 15L32 15L32 14L31 14L31 15L30 15L30 14L28 14L28 13L27 13L27 15L28 15L28 16L26 16L26 17L25 17L25 19L26 19L26 20L24 20L24 19L23 19L23 18L24 18L24 17L23 17L23 16L21 16L21 15L22 15L22 13L21 13L21 14L20 14L20 15L19 15L19 13L16 13L16 15L17 15L17 17L18 17L18 18L17 18L17 19L16 19L16 18L15 18L15 17L16 17L16 16L14 16L14 15L13 15L13 16L12 16L12 14L11 14L11 13L12 13L12 12L15 12L15 9ZM6 10L6 11L7 11L7 10ZM26 11L26 12L27 12L27 11ZM44 11L44 12L45 12L45 11ZM13 13L13 14L14 14L14 13ZM24 13L24 14L23 14L23 15L24 15L24 16L25 16L25 15L26 15L26 13ZM10 14L10 15L11 15L11 14ZM17 14L17 15L18 15L18 14ZM24 14L24 15L25 15L25 14ZM45 14L45 15L46 15L46 16L47 16L47 15L48 15L48 14L47 14L47 15L46 15L46 14ZM29 15L29 17L28 17L28 18L26 18L26 19L28 19L28 18L29 18L29 22L27 22L27 28L25 28L25 27L24 27L24 28L23 28L23 29L22 29L22 28L21 28L21 30L20 30L20 31L19 31L19 33L20 33L20 32L21 32L21 34L20 34L20 35L21 35L21 34L22 34L22 32L21 32L21 30L23 30L23 29L24 29L24 33L25 33L25 35L26 35L26 36L27 36L27 35L26 35L26 34L27 34L27 31L26 31L26 32L25 32L25 29L28 29L28 30L29 30L29 31L31 31L31 32L33 32L33 31L31 31L31 30L32 30L32 28L31 28L31 25L30 25L30 24L31 24L31 23L32 23L32 22L31 22L31 21L30 21L30 18L29 18L29 17L31 17L31 18L32 18L32 17L31 17L31 16L32 16L32 15L31 15L31 16L30 16L30 15ZM13 16L13 17L12 17L12 18L11 18L11 19L12 19L12 18L13 18L13 17L14 17L14 16ZM18 16L18 17L19 17L19 18L18 18L18 19L17 19L17 20L18 20L18 23L20 23L20 25L19 25L19 26L20 26L20 25L21 25L21 26L22 26L22 22L23 22L23 21L24 21L24 20L23 20L23 19L22 19L22 18L23 18L23 17L21 17L21 16L20 16L20 17L19 17L19 16ZM20 17L20 18L21 18L21 17ZM47 17L47 18L48 18L48 17ZM6 18L6 19L7 19L7 20L8 20L8 21L9 21L9 19L8 19L8 18ZM19 19L19 21L23 21L23 20L21 20L21 19ZM11 20L11 21L12 21L12 20ZM26 20L26 21L27 21L27 20ZM45 20L45 21L46 21L46 20ZM29 22L29 24L28 24L28 28L29 28L29 30L30 30L30 26L29 26L29 24L30 24L30 22ZM5 23L5 26L8 26L8 23ZM23 23L23 26L26 26L26 23ZM41 23L41 26L44 26L44 23ZM0 24L0 25L1 25L1 24ZM6 24L6 25L7 25L7 24ZM24 24L24 25L25 25L25 24ZM42 24L42 25L43 25L43 24ZM46 25L46 26L47 26L47 25ZM4 27L4 28L3 28L3 29L2 29L2 30L1 30L1 31L2 31L2 32L3 32L3 31L2 31L2 30L4 30L4 28L5 28L5 27ZM9 28L9 29L8 29L8 30L11 30L11 29L10 29L10 28ZM24 28L24 29L25 29L25 28ZM36 29L36 30L37 30L37 31L36 31L36 32L34 32L34 34L35 34L35 33L37 33L37 32L38 32L38 34L36 34L36 35L39 35L39 36L37 36L37 37L38 37L38 38L37 38L37 39L38 39L38 38L39 38L39 37L40 37L40 35L41 35L41 36L42 36L42 33L43 33L43 32L42 32L42 31L40 31L40 30L38 30L38 29ZM6 30L6 31L7 31L7 30ZM12 30L12 31L14 31L14 30ZM8 31L8 32L6 32L6 33L7 33L7 34L6 34L6 35L7 35L7 34L9 34L9 37L12 37L12 39L13 39L13 40L14 40L14 41L15 41L15 40L14 40L14 39L15 39L15 38L16 38L16 37L15 37L15 38L14 38L14 37L12 37L12 36L11 36L11 35L10 35L10 34L9 34L9 32L11 32L11 33L12 33L12 32L11 32L11 31ZM16 32L16 33L14 33L14 35L15 35L15 34L16 34L16 33L17 33L17 34L18 34L18 32ZM28 32L28 33L30 33L30 32ZM41 32L41 33L39 33L39 35L40 35L40 34L41 34L41 33L42 33L42 32ZM23 34L23 35L24 35L24 34ZM32 36L32 38L33 38L33 36ZM0 37L0 38L1 38L1 40L0 40L0 41L3 41L3 40L4 40L4 39L2 39L2 38L1 38L1 37ZM6 37L6 38L7 38L7 37ZM19 37L19 38L17 38L17 39L19 39L19 41L20 41L20 39L22 39L22 38L20 38L20 37ZM13 38L13 39L14 39L14 38ZM19 38L19 39L20 39L20 38ZM8 39L8 40L9 40L9 41L10 41L10 39ZM23 41L23 44L26 44L26 41ZM32 41L32 42L33 42L33 41ZM41 41L41 44L44 44L44 41ZM24 42L24 43L25 43L25 42ZM42 42L42 43L43 43L43 42ZM28 43L28 44L29 44L29 46L28 46L28 45L26 45L26 46L27 46L27 47L32 47L32 48L33 48L33 47L34 47L34 48L36 48L36 47L34 47L34 46L38 46L38 47L37 47L37 48L39 48L39 45L40 45L40 46L41 46L41 45L40 45L40 44L39 44L39 45L36 45L36 44L35 44L35 43L33 43L33 44L32 44L32 45L30 45L30 44L31 44L31 43ZM13 44L13 45L14 45L14 46L13 46L13 47L12 47L12 46L11 46L11 47L8 47L8 48L10 48L10 49L12 49L12 48L14 48L14 49L15 49L15 48L17 48L17 49L18 49L18 48L19 48L19 47L18 47L18 46L16 46L16 47L15 47L15 48L14 48L14 46L15 46L15 45L14 45L14 44ZM34 44L34 45L35 45L35 44ZM8 45L8 46L10 46L10 45ZM32 46L32 47L33 47L33 46ZM43 46L43 47L44 47L44 46ZM47 48L47 49L49 49L49 48ZM0 0L0 7L7 7L7 0ZM1 1L1 6L6 6L6 1ZM2 2L2 5L5 5L5 2ZM42 0L42 7L49 7L49 0ZM43 1L43 6L48 6L48 1ZM44 2L44 5L47 5L47 2ZM0 42L0 49L7 49L7 42ZM1 43L1 48L6 48L6 43ZM2 44L2 47L5 47L5 44Z" fill="#000000"/></g></g></svg>
