<?xml version="1.0" encoding="UTF-8"?>
<svg xmlns="http://www.w3.org/2000/svg" version="1.1" width="300" height="300" viewBox="0 0 300 300"><rect x="0" y="0" width="300" height="300" fill="#ffffff"/><g transform="scale(6.122)"><g transform="translate(0,0)"><path fill-rule="evenodd" d="M8 0L8 1L10 1L10 2L9 2L9 4L8 4L8 7L9 7L9 5L10 5L10 3L11 3L11 6L10 6L10 7L11 7L11 6L12 6L12 7L13 7L13 6L14 6L14 7L15 7L15 8L14 8L14 9L13 9L13 11L14 11L14 9L19 9L19 10L15 10L15 11L21 11L21 13L20 13L20 12L18 12L18 13L16 13L16 14L15 14L15 15L16 15L16 14L17 14L17 15L20 15L20 16L19 16L19 18L20 18L20 19L18 19L18 18L13 18L13 17L14 17L14 16L13 16L13 15L11 15L11 14L10 14L10 16L13 16L13 17L12 17L12 19L10 19L10 18L11 18L11 17L10 17L10 18L8 18L8 17L7 17L7 16L8 16L8 15L9 15L9 14L6 14L6 13L10 13L10 12L11 12L11 11L12 11L12 10L11 10L11 9L9 9L9 11L10 11L10 12L8 12L8 10L6 10L6 9L8 9L8 8L1 8L1 9L0 9L0 14L3 14L3 17L4 17L4 19L3 19L3 18L1 18L1 15L0 15L0 18L1 18L1 19L0 19L0 20L1 20L1 21L0 21L0 26L1 26L1 24L2 24L2 27L0 27L0 34L1 34L1 33L3 33L3 34L2 34L2 35L0 35L0 36L2 36L2 37L3 37L3 36L4 36L4 37L5 37L5 36L6 36L6 37L7 37L7 36L6 36L6 35L7 35L7 34L9 34L9 33L8 33L8 29L7 29L7 28L12 28L12 27L13 27L13 28L15 28L15 27L16 27L16 29L18 29L18 30L19 30L19 31L17 31L17 32L16 32L16 35L15 35L15 30L14 30L14 29L12 29L12 31L10 31L10 30L9 30L9 32L13 32L13 30L14 30L14 33L11 33L11 34L12 34L12 36L13 36L13 37L14 37L14 39L17 39L17 40L16 40L16 41L18 41L18 40L19 40L19 41L20 41L20 40L19 40L19 39L21 39L21 36L20 36L20 35L22 35L22 39L23 39L23 40L21 40L21 42L22 42L22 45L21 45L21 43L20 43L20 45L21 45L21 46L20 46L20 47L19 47L19 48L20 48L20 49L21 49L21 48L22 48L22 46L23 46L23 45L27 45L27 44L29 44L29 45L28 45L28 46L27 46L27 49L28 49L28 48L29 48L29 49L30 49L30 47L28 47L28 46L31 46L31 47L32 47L32 48L31 48L31 49L32 49L32 48L33 48L33 49L34 49L34 47L37 47L37 48L35 48L35 49L38 49L38 48L40 48L40 49L41 49L41 46L40 46L40 45L42 45L42 46L43 46L43 47L42 47L42 48L43 48L43 47L44 47L44 48L45 48L45 49L49 49L49 45L48 45L48 44L46 44L46 46L45 46L45 43L46 43L46 42L45 42L45 40L46 40L46 41L48 41L48 40L46 40L46 39L44 39L44 37L45 37L45 38L46 38L46 37L47 37L47 36L48 36L48 37L49 37L49 34L47 34L47 36L46 36L46 34L45 34L45 35L44 35L44 37L42 37L42 36L41 36L41 35L40 35L40 36L39 36L39 38L37 38L37 36L38 36L38 35L39 35L39 34L42 34L42 35L43 35L43 34L44 34L44 33L47 33L47 32L48 32L48 33L49 33L49 30L48 30L48 31L47 31L47 29L49 29L49 28L46 28L46 31L47 31L47 32L45 32L45 31L44 31L44 29L45 29L45 28L44 28L44 27L45 27L45 25L47 25L47 26L46 26L46 27L47 27L47 26L48 26L48 27L49 27L49 26L48 26L48 24L45 24L45 23L46 23L46 22L47 22L47 23L49 23L49 22L47 22L47 20L48 20L48 21L49 21L49 18L47 18L47 17L48 17L48 16L46 16L46 13L48 13L48 12L46 12L46 11L44 11L44 10L43 10L43 9L45 9L45 8L43 8L43 9L42 9L42 10L41 10L41 11L42 11L42 12L43 12L43 13L41 13L41 12L38 12L38 13L39 13L39 14L36 14L36 15L35 15L35 14L34 14L34 13L32 13L32 12L33 12L33 11L32 11L32 12L31 12L31 11L30 11L30 12L26 12L26 11L27 11L27 10L28 10L28 11L29 11L29 10L32 10L32 9L30 9L30 8L32 8L32 7L33 7L33 8L34 8L34 7L35 7L35 8L36 8L36 9L35 9L35 10L34 10L34 9L33 9L33 10L34 10L34 12L35 12L35 10L36 10L36 11L39 11L39 10L37 10L37 6L38 6L38 8L39 8L39 9L41 9L41 8L39 8L39 5L38 5L38 3L35 3L35 2L37 2L37 1L38 1L38 2L39 2L39 4L40 4L40 3L41 3L41 0L40 0L40 1L38 1L38 0L35 0L35 1L31 1L31 0L29 0L29 1L28 1L28 2L29 2L29 6L28 6L28 7L29 7L29 10L28 10L28 8L27 8L27 5L28 5L28 4L27 4L27 3L24 3L24 2L26 2L26 1L27 1L27 0L25 0L25 1L24 1L24 2L22 2L22 1L23 1L23 0L22 0L22 1L20 1L20 2L18 2L18 1L19 1L19 0L16 0L16 1L15 1L15 0ZM12 1L12 2L11 2L11 3L12 3L12 4L13 4L13 5L12 5L12 6L13 6L13 5L15 5L15 3L12 3L12 2L14 2L14 1ZM16 1L16 3L18 3L18 4L17 4L17 5L16 5L16 6L15 6L15 7L16 7L16 6L17 6L17 7L18 7L18 5L19 5L19 9L20 9L20 10L21 10L21 11L22 11L22 10L23 10L23 11L24 11L24 10L25 10L25 9L24 9L24 10L23 10L23 9L22 9L22 8L20 8L20 5L21 5L21 4L19 4L19 3L18 3L18 2L17 2L17 1ZM29 1L29 2L30 2L30 4L32 4L32 5L30 5L30 6L29 6L29 7L30 7L30 6L31 6L31 7L32 7L32 6L33 6L33 7L34 7L34 6L33 6L33 5L35 5L35 7L36 7L36 6L37 6L37 4L33 4L33 3L34 3L34 2L33 2L33 3L32 3L32 2L31 2L31 1ZM22 3L22 4L23 4L23 3ZM23 5L23 8L26 8L26 5ZM21 6L21 7L22 7L22 6ZM24 6L24 7L25 7L25 6ZM40 6L40 7L41 7L41 6ZM48 8L48 9L46 9L46 10L48 10L48 11L49 11L49 10L48 10L48 9L49 9L49 8ZM1 9L1 11L2 11L2 10L3 10L3 11L4 11L4 13L6 13L6 12L7 12L7 11L6 11L6 10L5 10L5 9L4 9L4 10L3 10L3 9ZM26 9L26 10L27 10L27 9ZM4 10L4 11L5 11L5 12L6 12L6 11L5 11L5 10ZM42 10L42 11L43 11L43 12L44 12L44 13L46 13L46 12L44 12L44 11L43 11L43 10ZM2 12L2 13L3 13L3 12ZM12 12L12 14L14 14L14 13L15 13L15 12L14 12L14 13L13 13L13 12ZM23 12L23 13L24 13L24 14L23 14L23 15L22 15L22 14L21 14L21 16L20 16L20 18L22 18L22 19L20 19L20 21L19 21L19 20L17 20L17 19L13 19L13 20L10 20L10 19L9 19L9 20L10 20L10 21L8 21L8 20L7 20L7 19L6 19L6 18L7 18L7 17L5 17L5 19L4 19L4 21L3 21L3 19L1 19L1 20L2 20L2 21L1 21L1 23L2 23L2 24L3 24L3 25L4 25L4 24L3 24L3 22L5 22L5 21L6 21L6 22L10 22L10 23L12 23L12 24L13 24L13 25L9 25L9 26L10 26L10 27L12 27L12 26L13 26L13 27L14 27L14 26L15 26L15 25L14 25L14 23L15 23L15 24L16 24L16 27L17 27L17 28L18 28L18 29L20 29L20 30L22 30L22 31L19 31L19 32L17 32L17 35L16 35L16 36L17 36L17 35L18 35L18 37L17 37L17 39L18 39L18 38L20 38L20 37L19 37L19 35L20 35L20 32L22 32L22 31L23 31L23 30L26 30L26 31L27 31L27 30L26 30L26 28L24 28L24 27L23 27L23 28L22 28L22 23L21 23L21 22L20 22L20 21L23 21L23 22L25 22L25 21L26 21L26 22L27 22L27 21L29 21L29 19L30 19L30 20L31 20L31 22L30 22L30 23L31 23L31 24L32 24L32 25L33 25L33 28L32 28L32 27L31 27L31 26L29 26L29 25L30 25L30 24L29 24L29 22L28 22L28 23L27 23L27 24L28 24L28 25L27 25L27 26L28 26L28 27L27 27L27 28L28 28L28 30L29 30L29 31L28 31L28 32L27 32L27 33L26 33L26 32L25 32L25 31L24 31L24 33L26 33L26 34L25 34L25 35L26 35L26 36L23 36L23 37L26 37L26 38L25 38L25 39L27 39L27 36L28 36L28 37L29 37L29 36L30 36L30 37L33 37L33 38L28 38L28 39L29 39L29 40L27 40L27 41L29 41L29 42L27 42L27 43L29 43L29 42L30 42L30 41L29 41L29 40L30 40L30 39L31 39L31 41L34 41L34 42L32 42L32 43L33 43L33 44L32 44L32 47L33 47L33 46L35 46L35 44L37 44L37 42L38 42L38 43L40 43L40 41L39 41L39 40L41 40L41 39L42 39L42 40L44 40L44 39L42 39L42 38L41 38L41 39L36 39L36 38L35 38L35 36L37 36L37 34L39 34L39 33L38 33L38 32L40 32L40 31L41 31L41 30L42 30L42 29L41 29L41 27L40 27L40 24L39 24L39 23L40 23L40 22L41 22L41 21L42 21L42 17L43 17L43 16L42 16L42 15L43 15L43 14L41 14L41 13L40 13L40 14L41 14L41 16L39 16L39 17L40 17L40 18L37 18L37 17L38 17L38 16L37 16L37 15L36 15L36 16L35 16L35 18L34 18L34 17L33 17L33 16L34 16L34 14L27 14L27 13L26 13L26 12ZM36 12L36 13L37 13L37 12ZM18 13L18 14L19 14L19 13ZM25 13L25 17L23 17L23 16L24 16L24 15L23 15L23 16L22 16L22 17L23 17L23 18L25 18L25 19L24 19L24 20L23 20L23 19L22 19L22 20L23 20L23 21L25 21L25 20L26 20L26 21L27 21L27 20L28 20L28 17L29 17L29 18L30 18L30 19L32 19L32 20L34 20L34 18L32 18L32 17L31 17L31 18L30 18L30 17L29 17L29 16L30 16L30 15L28 15L28 17L27 17L27 18L25 18L25 17L26 17L26 13ZM47 14L47 15L49 15L49 14ZM4 15L4 16L7 16L7 15ZM31 15L31 16L33 16L33 15ZM17 16L17 17L18 17L18 16ZM36 16L36 17L37 17L37 16ZM41 16L41 17L42 17L42 16ZM44 16L44 17L46 17L46 16ZM35 18L35 19L37 19L37 20L36 20L36 21L35 21L35 22L33 22L33 21L32 21L32 22L31 22L31 23L32 23L32 24L33 24L33 23L34 23L34 25L36 25L36 26L34 26L34 27L35 27L35 30L33 30L33 32L31 32L31 31L32 31L32 28L31 28L31 27L30 27L30 28L29 28L29 27L28 27L28 28L29 28L29 30L31 30L31 31L30 31L30 32L28 32L28 33L27 33L27 34L26 34L26 35L27 35L27 34L28 34L28 36L29 36L29 35L30 35L30 36L33 36L33 37L34 37L34 36L35 36L35 35L36 35L36 34L34 34L34 31L35 31L35 30L36 30L36 32L35 32L35 33L36 33L36 32L38 32L38 31L40 31L40 28L38 28L38 29L37 29L37 28L36 28L36 26L37 26L37 24L38 24L38 23L39 23L39 22L38 22L38 23L37 23L37 21L41 21L41 20L40 20L40 19L37 19L37 18ZM46 18L46 19L45 19L45 20L44 20L44 21L43 21L43 22L46 22L46 20L47 20L47 18ZM5 19L5 20L6 20L6 21L7 21L7 20L6 20L6 19ZM15 20L15 21L14 21L14 22L15 22L15 23L18 23L18 22L19 22L19 23L20 23L20 24L19 24L19 25L20 25L20 26L18 26L18 25L17 25L17 26L18 26L18 28L20 28L20 27L21 27L21 23L20 23L20 22L19 22L19 21L18 21L18 22L17 22L17 20ZM11 21L11 22L13 22L13 21ZM32 22L32 23L33 23L33 22ZM5 23L5 26L8 26L8 23ZM23 23L23 26L26 26L26 23ZM35 23L35 24L37 24L37 23ZM41 23L41 26L44 26L44 23ZM6 24L6 25L7 25L7 24ZM24 24L24 25L25 25L25 24ZM42 24L42 25L43 25L43 24ZM13 25L13 26L14 26L14 25ZM3 26L3 27L4 27L4 28L2 28L2 29L1 29L1 32L3 32L3 33L4 33L4 32L5 32L5 31L6 31L6 32L7 32L7 31L6 31L6 30L7 30L7 29L5 29L5 30L3 30L3 29L4 29L4 28L7 28L7 27L4 27L4 26ZM38 26L38 27L39 27L39 26ZM42 27L42 28L43 28L43 29L44 29L44 28L43 28L43 27ZM23 28L23 29L22 29L22 30L23 30L23 29L24 29L24 28ZM30 28L30 29L31 29L31 28ZM33 28L33 29L34 29L34 28ZM38 29L38 30L37 30L37 31L38 31L38 30L39 30L39 29ZM2 30L2 31L3 31L3 32L4 32L4 31L3 31L3 30ZM42 31L42 32L41 32L41 33L42 33L42 34L43 34L43 33L44 33L44 31ZM6 33L6 34L5 34L5 35L4 35L4 34L3 34L3 35L4 35L4 36L5 36L5 35L6 35L6 34L7 34L7 33ZM21 33L21 34L23 34L23 35L24 35L24 34L23 34L23 33ZM29 33L29 34L30 34L30 35L31 35L31 34L32 34L32 33L31 33L31 34L30 34L30 33ZM13 34L13 35L14 35L14 34ZM18 34L18 35L19 35L19 34ZM33 34L33 35L34 35L34 34ZM40 36L40 37L41 37L41 36ZM45 36L45 37L46 37L46 36ZM8 37L8 39L7 39L7 38L5 38L5 39L7 39L7 40L6 40L6 41L8 41L8 48L9 48L9 49L10 49L10 48L11 48L11 49L12 49L12 48L11 48L11 47L10 47L10 45L11 45L11 46L12 46L12 45L11 45L11 44L12 44L12 43L14 43L14 42L15 42L15 41L14 41L14 40L13 40L13 39L10 39L10 40L9 40L9 41L8 41L8 39L9 39L9 37ZM10 37L10 38L11 38L11 37ZM1 38L1 40L0 40L0 41L3 41L3 40L4 40L4 39L2 39L2 38ZM23 38L23 39L24 39L24 38ZM33 38L33 39L32 39L32 40L34 40L34 39L35 39L35 38ZM47 38L47 39L49 39L49 38ZM11 40L11 41L10 41L10 42L9 42L9 44L10 44L10 42L11 42L11 43L12 43L12 41L13 41L13 42L14 42L14 41L13 41L13 40ZM35 40L35 41L36 41L36 42L37 42L37 41L38 41L38 40ZM23 41L23 44L26 44L26 41ZM41 41L41 44L44 44L44 41ZM16 42L16 43L17 43L17 44L18 44L18 45L17 45L17 46L16 46L16 44L15 44L15 45L14 45L14 44L13 44L13 46L14 46L14 48L15 48L15 49L18 49L18 46L19 46L19 42L18 42L18 43L17 43L17 42ZM24 42L24 43L25 43L25 42ZM42 42L42 43L43 43L43 42ZM47 42L47 43L49 43L49 42ZM34 43L34 44L33 44L33 45L34 45L34 44L35 44L35 43ZM38 45L38 46L37 46L37 47L38 47L38 46L39 46L39 47L40 47L40 46L39 46L39 45ZM43 45L43 46L44 46L44 47L45 47L45 48L48 48L48 47L47 47L47 46L46 46L46 47L45 47L45 46L44 46L44 45ZM24 46L24 47L23 47L23 48L24 48L24 49L25 49L25 48L26 48L26 47L25 47L25 46ZM16 47L16 48L17 48L17 47ZM24 47L24 48L25 48L25 47ZM0 0L0 7L7 7L7 0ZM1 1L1 6L6 6L6 1ZM2 2L2 5L5 5L5 2ZM42 0L42 7L49 7L49 0ZM43 1L43 6L48 6L48 1ZM44 2L44 5L47 5L47 2ZM0 42L0 49L7 49L7 42ZM1 43L1 48L6 48L6 43ZM2 44L2 47L5 47L5 44Z" fill="#000000"/></g></g></svg>
