<?xml version="1.0" encoding="UTF-8"?>
<svg xmlns="http://www.w3.org/2000/svg" version="1.1" width="300" height="300" viewBox="0 0 300 300"><rect x="0" y="0" width="300" height="300" fill="#ffffff"/><g transform="scale(7.317)"><g transform="translate(0,0)"><path fill-rule="evenodd" d="M9 0L9 1L8 1L8 2L9 2L9 3L8 3L8 5L9 5L9 3L10 3L10 0ZM13 0L13 2L11 2L11 4L10 4L10 7L9 7L9 6L8 6L8 9L11 9L11 10L10 10L10 12L9 12L9 13L7 13L7 12L8 12L8 10L6 10L6 11L5 11L5 10L4 10L4 11L3 11L3 10L0 10L0 12L2 12L2 11L3 11L3 13L2 13L2 15L1 15L1 16L0 16L0 17L1 17L1 18L0 18L0 19L1 19L1 21L0 21L0 22L1 22L1 23L0 23L0 25L2 25L2 26L1 26L1 28L0 28L0 33L2 33L2 32L4 32L4 33L7 33L7 32L4 32L4 31L5 31L5 30L4 30L4 29L8 29L8 34L9 34L9 32L10 32L10 30L9 30L9 28L8 28L8 27L9 27L9 26L10 26L10 25L11 25L11 24L12 24L12 26L11 26L11 31L12 31L12 30L13 30L13 29L15 29L15 30L14 30L14 31L13 31L13 32L12 32L12 33L11 33L11 34L10 34L10 35L8 35L8 38L9 38L9 36L10 36L10 37L12 37L12 39L10 39L10 41L12 41L12 39L14 39L14 40L13 40L13 41L14 41L14 40L16 40L16 41L19 41L19 40L16 40L16 39L20 39L20 41L21 41L21 38L22 38L22 39L23 39L23 40L22 40L22 41L24 41L24 39L26 39L26 37L27 37L27 39L28 39L28 37L27 37L27 35L29 35L29 34L31 34L31 35L30 35L30 36L29 36L29 39L30 39L30 41L33 41L33 40L31 40L31 39L30 39L30 38L31 38L31 37L32 37L32 39L34 39L34 40L35 40L35 39L36 39L36 41L38 41L38 40L39 40L39 37L40 37L40 36L41 36L41 35L40 35L40 33L41 33L41 32L40 32L40 31L41 31L41 30L40 30L40 31L39 31L39 30L37 30L37 29L38 29L38 28L39 28L39 27L40 27L40 28L41 28L41 24L39 24L39 25L38 25L38 26L37 26L37 25L36 25L36 23L38 23L38 22L39 22L39 21L41 21L41 20L39 20L39 19L41 19L41 18L40 18L40 16L39 16L39 15L41 15L41 13L40 13L40 12L41 12L41 11L40 11L40 12L39 12L39 13L36 13L36 12L38 12L38 11L39 11L39 10L38 10L38 11L37 11L37 9L38 9L38 8L36 8L36 11L35 11L35 12L33 12L33 13L32 13L32 12L31 12L31 13L30 13L30 14L29 14L29 12L30 12L30 11L31 11L31 10L34 10L34 9L35 9L35 8L32 8L32 9L31 9L31 5L32 5L32 7L33 7L33 5L32 5L32 4L33 4L33 3L32 3L32 1L31 1L31 0L30 0L30 2L31 2L31 3L28 3L28 2L27 2L27 1L26 1L26 0L24 0L24 1L23 1L23 2L22 2L22 1L21 1L21 0L20 0L20 1L19 1L19 0L18 0L18 1L19 1L19 2L21 2L21 3L20 3L20 4L18 4L18 2L17 2L17 0ZM28 0L28 1L29 1L29 0ZM14 1L14 3L15 3L15 4L16 4L16 5L18 5L18 4L16 4L16 3L17 3L17 2L16 2L16 1ZM15 2L15 3L16 3L16 2ZM23 2L23 3L22 3L22 6L21 6L21 4L20 4L20 5L19 5L19 7L18 7L18 6L17 6L17 7L16 7L16 6L15 6L15 5L14 5L14 4L13 4L13 5L11 5L11 8L12 8L12 9L14 9L14 10L16 10L16 13L15 13L15 11L13 11L13 10L11 10L11 11L13 11L13 13L12 13L12 12L10 12L10 13L11 13L11 14L9 14L9 17L8 17L8 16L7 16L7 15L6 15L6 14L7 14L7 13L6 13L6 12L7 12L7 11L6 11L6 12L5 12L5 11L4 11L4 13L3 13L3 15L6 15L6 16L7 16L7 17L6 17L6 18L5 18L5 19L4 19L4 21L3 21L3 20L2 20L2 21L3 21L3 22L4 22L4 23L3 23L3 24L2 24L2 23L1 23L1 24L2 24L2 25L3 25L3 26L2 26L2 27L3 27L3 28L5 28L5 27L6 27L6 28L7 28L7 27L6 27L6 26L9 26L9 25L8 25L8 24L7 24L7 23L8 23L8 21L9 21L9 20L10 20L10 23L9 23L9 24L10 24L10 23L12 23L12 24L14 24L14 25L16 25L16 26L14 26L14 27L12 27L12 29L13 29L13 28L15 28L15 27L17 27L17 30L16 30L16 32L15 32L15 31L14 31L14 32L13 32L13 33L14 33L14 35L15 35L15 37L16 37L16 38L19 38L19 37L20 37L20 36L22 36L22 35L23 35L23 33L22 33L22 32L23 32L23 31L24 31L24 33L25 33L25 34L24 34L24 36L23 36L23 37L22 37L22 38L23 38L23 39L24 39L24 38L23 38L23 37L25 37L25 36L26 36L26 33L27 33L27 32L28 32L28 33L29 33L29 32L32 32L32 31L36 31L36 32L37 32L37 30L36 30L36 29L37 29L37 28L36 28L36 27L37 27L37 26L36 26L36 27L32 27L32 31L29 31L29 30L28 30L28 29L27 29L27 30L28 30L28 31L27 31L27 32L25 32L25 31L24 31L24 30L26 30L26 29L24 29L24 28L23 28L23 29L22 29L22 27L21 27L21 26L22 26L22 24L24 24L24 25L25 25L25 26L26 26L26 27L25 27L25 28L26 28L26 27L27 27L27 28L28 28L28 27L27 27L27 25L28 25L28 26L29 26L29 29L30 29L30 30L31 30L31 29L30 29L30 27L31 27L31 26L32 26L32 25L33 25L33 26L34 26L34 25L33 25L33 24L34 24L34 23L36 23L36 21L37 21L37 22L38 22L38 20L36 20L36 19L35 19L35 20L36 20L36 21L34 21L34 20L33 20L33 19L32 19L32 20L33 20L33 22L34 22L34 23L33 23L33 24L31 24L31 23L32 23L32 22L30 22L30 20L31 20L31 17L30 17L30 15L28 15L28 12L29 12L29 10L28 10L28 12L27 12L27 10L26 10L26 9L27 9L27 8L25 8L25 7L26 7L26 6L27 6L27 7L28 7L28 9L29 9L29 8L30 8L30 5L31 5L31 4L32 4L32 3L31 3L31 4L30 4L30 5L29 5L29 7L28 7L28 3L27 3L27 4L26 4L26 3L24 3L24 2ZM23 3L23 6L22 6L22 7L21 7L21 6L20 6L20 10L19 10L19 8L18 8L18 7L17 7L17 9L18 9L18 10L17 10L17 11L20 11L20 10L22 10L22 11L21 11L21 12L18 12L18 13L16 13L16 14L14 14L14 18L16 18L16 20L15 20L15 19L12 19L12 18L13 18L13 17L12 17L12 18L11 18L11 16L13 16L13 15L12 15L12 14L11 14L11 16L10 16L10 19L12 19L12 20L11 20L11 22L13 22L13 21L12 21L12 20L14 20L14 21L16 21L16 20L18 20L18 21L17 21L17 22L14 22L14 24L16 24L16 23L17 23L17 25L18 25L18 24L19 24L19 23L20 23L20 22L19 22L19 18L18 18L18 19L17 19L17 18L16 18L16 17L17 17L17 15L19 15L19 16L20 16L20 18L22 18L22 13L21 13L21 12L23 12L23 11L24 11L24 12L25 12L25 11L24 11L24 9L21 9L21 8L22 8L22 7L23 7L23 8L24 8L24 7L25 7L25 6L24 6L24 5L25 5L25 4L24 4L24 3ZM12 6L12 7L13 7L13 8L14 8L14 7L15 7L15 8L16 8L16 7L15 7L15 6L14 6L14 7L13 7L13 6ZM23 6L23 7L24 7L24 6ZM1 8L1 9L2 9L2 8ZM3 8L3 9L7 9L7 8ZM39 8L39 9L40 9L40 8ZM30 9L30 10L31 10L31 9ZM26 12L26 13L27 13L27 12ZM18 13L18 14L20 14L20 16L21 16L21 13ZM24 13L24 14L25 14L25 15L24 15L24 16L23 16L23 17L24 17L24 18L23 18L23 19L22 19L22 20L23 20L23 22L22 22L22 21L21 21L21 19L20 19L20 21L21 21L21 23L24 23L24 24L25 24L25 23L26 23L26 22L27 22L27 23L28 23L28 25L29 25L29 24L30 24L30 26L31 26L31 24L30 24L30 23L28 23L28 21L29 21L29 20L28 20L28 21L27 21L27 19L30 19L30 17L29 17L29 16L28 16L28 15L27 15L27 16L25 16L25 15L26 15L26 14L25 14L25 13ZM31 13L31 14L32 14L32 15L31 15L31 16L32 16L32 18L35 18L35 17L37 17L37 16L38 16L38 17L39 17L39 16L38 16L38 15L39 15L39 14L40 14L40 13L39 13L39 14L38 14L38 15L37 15L37 14L36 14L36 15L35 15L35 14L34 14L34 15L33 15L33 14L32 14L32 13ZM15 15L15 16L16 16L16 15ZM32 15L32 16L33 16L33 17L34 17L34 16L33 16L33 15ZM36 15L36 16L37 16L37 15ZM1 16L1 17L2 17L2 18L3 18L3 17L2 17L2 16ZM24 16L24 17L25 17L25 16ZM27 16L27 17L28 17L28 16ZM7 17L7 18L6 18L6 19L7 19L7 20L5 20L5 21L4 21L4 22L5 22L5 23L4 23L4 24L3 24L3 25L4 25L4 27L5 27L5 25L7 25L7 24L6 24L6 23L7 23L7 22L5 22L5 21L7 21L7 20L9 20L9 18L8 18L8 17ZM25 18L25 20L24 20L24 19L23 19L23 20L24 20L24 21L25 21L25 20L26 20L26 19L27 19L27 18ZM37 18L37 19L38 19L38 18ZM17 22L17 23L19 23L19 22ZM24 22L24 23L25 23L25 22ZM4 24L4 25L5 25L5 24ZM20 24L20 25L19 25L19 28L18 28L18 29L19 29L19 30L17 30L17 34L15 34L15 35L17 35L17 36L16 36L16 37L19 37L19 36L18 36L18 35L19 35L19 33L21 33L21 31L23 31L23 30L24 30L24 29L23 29L23 30L22 30L22 29L21 29L21 28L20 28L20 25L21 25L21 24ZM26 24L26 25L27 25L27 24ZM23 26L23 27L24 27L24 26ZM38 26L38 27L39 27L39 26ZM19 28L19 29L20 29L20 30L21 30L21 29L20 29L20 28ZM1 29L1 30L2 30L2 31L3 31L3 30L2 30L2 29ZM6 30L6 31L7 31L7 30ZM14 32L14 33L15 33L15 32ZM18 32L18 33L19 33L19 32ZM39 32L39 33L40 33L40 32ZM33 33L33 36L36 36L36 33ZM37 33L37 34L38 34L38 33ZM11 34L11 36L12 36L12 37L13 37L13 38L14 38L14 37L13 37L13 35L12 35L12 34ZM20 34L20 35L22 35L22 34ZM34 34L34 35L35 35L35 34ZM31 35L31 36L30 36L30 37L31 37L31 36L32 36L32 35ZM38 35L38 37L39 37L39 36L40 36L40 35ZM33 37L33 38L34 38L34 39L35 39L35 37ZM36 37L36 38L37 38L37 37ZM40 38L40 40L41 40L41 38ZM8 39L8 40L9 40L9 39ZM37 39L37 40L38 40L38 39ZM25 40L25 41L27 41L27 40ZM28 40L28 41L29 41L29 40ZM0 0L0 7L7 7L7 0ZM1 1L1 6L6 6L6 1ZM2 2L2 5L5 5L5 2ZM34 0L34 7L41 7L41 0ZM35 1L35 6L40 6L40 1ZM36 2L36 5L39 5L39 2ZM0 34L0 41L7 41L7 34ZM1 35L1 40L6 40L6 35ZM2 36L2 39L5 39L5 36Z" fill="#000000"/></g></g></svg>
