<?xml version="1.0" encoding="UTF-8"?>
<svg xmlns="http://www.w3.org/2000/svg" version="1.1" width="300" height="300" viewBox="0 0 300 300"><rect x="0" y="0" width="300" height="300" fill="#ffffff"/><g transform="scale(6.122)"><g transform="translate(0,0)"><path fill-rule="evenodd" d="M8 0L8 1L10 1L10 3L9 3L9 4L8 4L8 7L9 7L9 9L10 9L10 8L11 8L11 9L12 9L12 10L8 10L8 8L1 8L1 9L0 9L0 11L4 11L4 12L0 12L0 16L2 16L2 15L3 15L3 14L4 14L4 15L5 15L5 16L3 16L3 17L4 17L4 18L5 18L5 16L6 16L6 17L7 17L7 18L6 18L6 19L7 19L7 20L6 20L6 21L7 21L7 22L3 22L3 24L2 24L2 23L1 23L1 21L2 21L2 20L1 20L1 19L3 19L3 21L4 21L4 19L3 19L3 18L1 18L1 19L0 19L0 20L1 20L1 21L0 21L0 26L1 26L1 24L2 24L2 25L3 25L3 26L4 26L4 27L5 27L5 28L4 28L4 29L3 29L3 28L2 28L2 27L1 27L1 28L0 28L0 34L1 34L1 35L0 35L0 38L1 38L1 40L0 40L0 41L3 41L3 40L4 40L4 39L2 39L2 38L3 38L3 36L1 36L1 35L3 35L3 33L4 33L4 35L5 35L5 36L6 36L6 37L4 37L4 38L5 38L5 39L7 39L7 38L8 38L8 37L7 37L7 36L9 36L9 37L10 37L10 38L11 38L11 39L9 39L9 41L8 41L8 40L6 40L6 41L8 41L8 48L9 48L9 49L10 49L10 48L11 48L11 49L12 49L12 45L11 45L11 42L12 42L12 41L13 41L13 43L14 43L14 41L15 41L15 42L16 42L16 43L15 43L15 45L14 45L14 44L13 44L13 46L14 46L14 48L15 48L15 49L18 49L18 46L19 46L19 48L20 48L20 49L21 49L21 48L22 48L22 46L23 46L23 45L27 45L27 44L29 44L29 45L28 45L28 46L27 46L27 49L28 49L28 48L29 48L29 49L30 49L30 47L28 47L28 46L31 46L31 47L32 47L32 48L31 48L31 49L32 49L32 48L33 48L33 49L34 49L34 47L37 47L37 48L35 48L35 49L38 49L38 48L39 48L39 49L40 49L40 48L39 48L39 47L40 47L40 46L38 46L38 45L42 45L42 46L43 46L43 47L42 47L42 48L41 48L41 49L42 49L42 48L43 48L43 47L44 47L44 48L45 48L45 49L49 49L49 45L48 45L48 44L46 44L46 46L45 46L45 43L46 43L46 42L45 42L45 41L46 41L46 40L47 40L47 41L48 41L48 40L47 40L47 39L49 39L49 38L47 38L47 36L48 36L48 37L49 37L49 34L45 34L45 35L44 35L44 33L45 33L45 32L46 32L46 33L49 33L49 30L47 30L47 28L48 28L48 29L49 29L49 26L48 26L48 25L47 25L47 24L48 24L48 23L49 23L49 22L47 22L47 20L48 20L48 21L49 21L49 18L47 18L47 17L48 17L48 16L47 16L47 17L46 17L46 15L49 15L49 14L46 14L46 13L48 13L48 12L45 12L45 11L47 11L47 10L46 10L46 9L45 9L45 8L43 8L43 9L42 9L42 10L41 10L41 11L42 11L42 12L38 12L38 13L39 13L39 14L38 14L38 15L39 15L39 17L40 17L40 18L39 18L39 19L38 19L38 18L37 18L37 17L38 17L38 16L36 16L36 17L35 17L35 19L37 19L37 20L36 20L36 21L35 21L35 22L33 22L33 21L32 21L32 22L31 22L31 20L30 20L30 19L32 19L32 20L34 20L34 19L32 19L32 18L34 18L34 17L32 17L32 18L31 18L31 16L34 16L34 15L35 15L35 14L34 14L34 12L33 12L33 11L35 11L35 12L36 12L36 13L37 13L37 12L36 12L36 10L33 10L33 8L31 8L31 6L30 6L30 5L32 5L32 4L30 4L30 2L29 2L29 1L31 1L31 2L32 2L32 3L33 3L33 4L37 4L37 6L36 6L36 8L35 8L35 5L33 5L33 6L32 6L32 7L33 7L33 6L34 6L34 8L35 8L35 9L36 9L36 8L37 8L37 6L38 6L38 8L39 8L39 9L41 9L41 8L39 8L39 5L38 5L38 3L35 3L35 2L37 2L37 1L38 1L38 2L39 2L39 4L40 4L40 3L41 3L41 0L40 0L40 1L38 1L38 0L35 0L35 1L31 1L31 0L29 0L29 1L28 1L28 2L27 2L27 3L25 3L25 4L23 4L23 1L22 1L22 0L21 0L21 1L20 1L20 2L17 2L17 3L16 3L16 1L19 1L19 0L16 0L16 1L15 1L15 0ZM24 0L24 2L26 2L26 1L27 1L27 0ZM12 1L12 2L11 2L11 3L10 3L10 4L9 4L9 5L10 5L10 6L9 6L9 7L10 7L10 6L11 6L11 8L14 8L14 9L13 9L13 10L14 10L14 11L13 11L13 12L14 12L14 13L12 13L12 12L11 12L11 11L10 11L10 12L9 12L9 11L8 11L8 12L9 12L9 13L6 13L6 14L9 14L9 13L10 13L10 12L11 12L11 14L10 14L10 15L12 15L12 16L11 16L11 17L9 17L9 15L8 15L8 16L7 16L7 15L6 15L6 16L7 16L7 17L8 17L8 18L10 18L10 19L9 19L9 20L10 20L10 21L9 21L9 22L10 22L10 23L11 23L11 24L12 24L12 23L11 23L11 22L12 22L12 21L11 21L11 20L13 20L13 25L9 25L9 26L10 26L10 28L11 28L11 30L10 30L10 29L9 29L9 28L8 28L8 27L6 27L6 28L7 28L7 29L5 29L5 30L4 30L4 32L5 32L5 31L6 31L6 32L7 32L7 31L6 31L6 30L7 30L7 29L8 29L8 31L9 31L9 32L8 32L8 33L10 33L10 31L12 31L12 29L14 29L14 31L13 31L13 32L11 32L11 34L10 34L10 35L9 35L9 34L7 34L7 33L6 33L6 34L5 34L5 35L6 35L6 36L7 36L7 35L9 35L9 36L10 36L10 37L11 37L11 38L12 38L12 39L11 39L11 40L10 40L10 42L9 42L9 44L10 44L10 42L11 42L11 41L12 41L12 40L13 40L13 39L14 39L14 38L13 38L13 36L12 36L12 37L11 37L11 36L10 36L10 35L11 35L11 34L13 34L13 35L14 35L14 37L15 37L15 36L17 36L17 38L18 38L18 41L19 41L19 42L20 42L20 48L21 48L21 45L22 45L22 42L21 42L21 41L19 41L19 40L20 40L20 38L18 38L18 36L20 36L20 37L21 37L21 40L22 40L22 39L25 39L25 38L26 38L26 37L24 37L24 35L23 35L23 34L24 34L24 33L25 33L25 34L28 34L28 35L27 35L27 36L28 36L28 37L27 37L27 40L28 40L28 42L27 42L27 43L30 43L30 42L32 42L32 43L33 43L33 44L32 44L32 47L33 47L33 46L35 46L35 44L37 44L37 43L40 43L40 41L39 41L39 42L37 42L37 43L35 43L35 42L36 42L36 40L37 40L37 41L38 41L38 40L37 40L37 38L39 38L39 36L40 36L40 37L42 37L42 38L43 38L43 39L39 39L39 40L43 40L43 39L44 39L44 40L46 40L46 39L44 39L44 38L46 38L46 37L44 37L44 36L43 36L43 35L42 35L42 34L43 34L43 33L44 33L44 32L45 32L45 31L46 31L46 32L47 32L47 31L46 31L46 28L47 28L47 27L48 27L48 26L47 26L47 25L45 25L45 27L44 27L44 29L43 29L43 30L44 30L44 31L42 31L42 32L41 32L41 33L42 33L42 34L39 34L39 32L40 32L40 31L41 31L41 30L42 30L42 29L41 29L41 27L40 27L40 26L39 26L39 23L40 23L40 22L41 22L41 21L42 21L42 18L43 18L43 14L42 14L42 13L40 13L40 14L42 14L42 16L40 16L40 17L42 17L42 18L41 18L41 21L40 21L40 19L39 19L39 21L37 21L37 23L35 23L35 24L37 24L37 26L36 26L36 25L34 25L34 23L33 23L33 22L32 22L32 23L31 23L31 22L30 22L30 23L31 23L31 24L32 24L32 25L33 25L33 28L32 28L32 27L31 27L31 26L29 26L29 28L28 28L28 26L27 26L27 27L26 27L26 28L28 28L28 29L27 29L27 30L28 30L28 31L26 31L26 32L28 32L28 33L25 33L25 32L23 32L23 34L20 34L20 35L18 35L18 34L19 34L19 33L20 33L20 32L22 32L22 31L25 31L25 30L26 30L26 29L25 29L25 27L24 27L24 28L23 28L23 27L22 27L22 26L21 26L21 27L20 27L20 28L18 28L18 29L20 29L20 30L22 30L22 31L19 31L19 33L18 33L18 34L17 34L17 33L16 33L16 32L18 32L18 30L17 30L17 29L16 29L16 27L17 27L17 25L18 25L18 26L20 26L20 25L19 25L19 24L20 24L20 23L19 23L19 22L21 22L21 23L22 23L22 21L24 21L24 22L25 22L25 21L26 21L26 20L27 20L27 23L28 23L28 24L27 24L27 25L28 25L28 24L29 24L29 25L30 25L30 24L29 24L29 21L28 21L28 20L29 20L29 18L30 18L30 17L28 17L28 15L29 15L29 16L30 16L30 15L31 15L31 14L32 14L32 15L34 15L34 14L33 14L33 12L31 12L31 14L30 14L30 13L29 13L29 14L27 14L27 13L26 13L26 12L29 12L29 11L31 11L31 10L32 10L32 9L31 9L31 8L29 8L29 9L25 9L25 10L24 10L24 9L23 9L23 10L21 10L21 9L22 9L22 6L21 6L21 8L20 8L20 5L21 5L21 4L22 4L22 2L21 2L21 4L17 4L17 5L16 5L16 6L15 6L15 5L14 5L14 4L15 4L15 2L14 2L14 1ZM12 2L12 3L11 3L11 6L12 6L12 7L13 7L13 6L12 6L12 5L13 5L13 4L12 4L12 3L13 3L13 2ZM33 2L33 3L34 3L34 2ZM27 3L27 4L29 4L29 3ZM17 5L17 6L16 6L16 7L15 7L15 6L14 6L14 7L15 7L15 9L16 9L16 10L15 10L15 11L14 11L14 12L15 12L15 11L16 11L16 10L17 10L17 6L18 6L18 9L19 9L19 10L18 10L18 11L19 11L19 10L20 10L20 11L21 11L21 12L17 12L17 13L16 13L16 14L15 14L15 13L14 13L14 14L13 14L13 15L14 15L14 14L15 14L15 15L18 15L18 18L17 18L17 19L16 19L16 18L12 18L12 17L11 17L11 18L12 18L12 19L15 19L15 20L19 20L19 19L18 19L18 18L19 18L19 14L18 14L18 13L20 13L20 16L21 16L21 14L22 14L22 15L23 15L23 16L22 16L22 17L23 17L23 18L25 18L25 19L28 19L28 17L27 17L27 18L25 18L25 17L26 17L26 13L25 13L25 17L23 17L23 16L24 16L24 15L23 15L23 14L24 14L24 13L23 13L23 12L26 12L26 10L25 10L25 11L23 11L23 12L22 12L22 11L21 11L21 10L20 10L20 8L19 8L19 5ZM23 5L23 8L26 8L26 5ZM24 6L24 7L25 7L25 6ZM27 6L27 8L28 8L28 6ZM29 6L29 7L30 7L30 6ZM40 6L40 7L41 7L41 6ZM48 8L48 9L49 9L49 8ZM1 9L1 10L2 10L2 9ZM5 9L5 10L4 10L4 11L5 11L5 12L4 12L4 13L5 13L5 12L7 12L7 11L6 11L6 10L7 10L7 9ZM30 9L30 10L31 10L31 9ZM37 9L37 10L38 10L38 11L39 11L39 10L38 10L38 9ZM43 9L43 10L42 10L42 11L43 11L43 12L44 12L44 13L45 13L45 12L44 12L44 11L45 11L45 10L44 10L44 9ZM28 10L28 11L29 11L29 10ZM48 10L48 11L49 11L49 10ZM1 13L1 15L2 15L2 14L3 14L3 13ZM29 14L29 15L30 15L30 14ZM36 14L36 15L37 15L37 14ZM13 16L13 17L17 17L17 16ZM44 16L44 17L45 17L45 16ZM20 17L20 19L22 19L22 20L24 20L24 19L22 19L22 18L21 18L21 17ZM46 18L46 19L45 19L45 20L44 20L44 21L43 21L43 22L46 22L46 23L45 23L45 24L47 24L47 22L46 22L46 20L47 20L47 18ZM10 19L10 20L11 20L11 19ZM14 21L14 22L15 22L15 21ZM18 21L18 22L17 22L17 23L14 23L14 25L13 25L13 26L12 26L12 27L11 27L11 28L12 28L12 27L13 27L13 28L14 28L14 29L15 29L15 28L14 28L14 27L13 27L13 26L14 26L14 25L15 25L15 27L16 27L16 24L17 24L17 23L18 23L18 22L19 22L19 21ZM39 21L39 22L38 22L38 23L37 23L37 24L38 24L38 23L39 23L39 22L40 22L40 21ZM5 23L5 26L8 26L8 23ZM23 23L23 26L26 26L26 23ZM32 23L32 24L33 24L33 23ZM41 23L41 26L44 26L44 23ZM3 24L3 25L4 25L4 24ZM6 24L6 25L7 25L7 24ZM24 24L24 25L25 25L25 24ZM42 24L42 25L43 25L43 24ZM34 26L34 27L35 27L35 30L33 30L33 31L35 31L35 32L33 32L33 33L35 33L35 34L33 34L33 35L32 35L32 36L30 36L30 38L29 38L29 39L28 39L28 40L30 40L30 38L32 38L32 39L31 39L31 40L33 40L33 41L32 41L32 42L33 42L33 43L34 43L34 44L33 44L33 45L34 45L34 44L35 44L35 43L34 43L34 42L35 42L35 40L36 40L36 39L35 39L35 38L34 38L34 36L33 36L33 35L35 35L35 34L36 34L36 35L37 35L37 36L35 36L35 37L36 37L36 38L37 38L37 37L38 37L38 36L39 36L39 34L37 34L37 33L38 33L38 32L37 32L37 30L38 30L38 31L40 31L40 30L41 30L41 29L40 29L40 28L38 28L38 29L37 29L37 28L36 28L36 26ZM38 26L38 27L39 27L39 26ZM46 26L46 27L47 27L47 26ZM21 27L21 28L22 28L22 27ZM30 27L30 28L29 28L29 30L31 30L31 32L30 32L30 31L29 31L29 33L30 33L30 34L29 34L29 35L28 35L28 36L29 36L29 35L30 35L30 34L32 34L32 33L31 33L31 32L32 32L32 28L31 28L31 27ZM42 27L42 28L43 28L43 27ZM1 28L1 31L3 31L3 29L2 29L2 28ZM30 28L30 29L31 29L31 28ZM33 28L33 29L34 29L34 28ZM22 29L22 30L25 30L25 29ZM38 29L38 30L39 30L39 29ZM35 30L35 31L36 31L36 30ZM13 32L13 34L14 34L14 33L15 33L15 35L17 35L17 34L16 34L16 33L15 33L15 32ZM35 32L35 33L36 33L36 32ZM1 33L1 34L2 34L2 33ZM6 34L6 35L7 35L7 34ZM20 35L20 36L21 36L21 37L22 37L22 36L23 36L23 35ZM25 35L25 36L26 36L26 35ZM40 35L40 36L41 36L41 35ZM46 35L46 36L47 36L47 35ZM32 36L32 38L33 38L33 40L34 40L34 38L33 38L33 36ZM42 36L42 37L43 37L43 38L44 38L44 37L43 37L43 36ZM1 37L1 38L2 38L2 37ZM6 37L6 38L7 38L7 37ZM16 39L16 40L15 40L15 41L16 41L16 40L17 40L17 39ZM23 41L23 44L26 44L26 41ZM29 41L29 42L30 42L30 41ZM33 41L33 42L34 42L34 41ZM41 41L41 44L44 44L44 41ZM17 42L17 43L18 43L18 42ZM24 42L24 43L25 43L25 42ZM42 42L42 43L43 43L43 42ZM47 42L47 43L49 43L49 42ZM16 44L16 45L15 45L15 47L16 47L16 48L17 48L17 46L16 46L16 45L18 45L18 44ZM10 45L10 47L11 47L11 45ZM43 45L43 46L44 46L44 47L45 47L45 48L48 48L48 47L47 47L47 46L46 46L46 47L45 47L45 46L44 46L44 45ZM24 46L24 47L23 47L23 48L24 48L24 49L25 49L25 48L26 48L26 47L25 47L25 46ZM37 46L37 47L38 47L38 46ZM24 47L24 48L25 48L25 47ZM0 0L0 7L7 7L7 0ZM1 1L1 6L6 6L6 1ZM2 2L2 5L5 5L5 2ZM42 0L42 7L49 7L49 0ZM43 1L43 6L48 6L48 1ZM44 2L44 5L47 5L47 2ZM0 42L0 49L7 49L7 42ZM1 43L1 48L6 48L6 43ZM2 44L2 47L5 47L5 44Z" fill="#000000"/></g></g></svg>
