<?xml version="1.0" encoding="UTF-8"?>
<svg xmlns="http://www.w3.org/2000/svg" version="1.1" width="300" height="300" viewBox="0 0 300 300"><rect x="0" y="0" width="300" height="300" fill="#ffffff"/><g transform="scale(8.108)"><g transform="translate(0,0)"><path fill-rule="evenodd" d="M9 0L9 1L8 1L8 2L9 2L9 3L8 3L8 5L9 5L9 4L10 4L10 7L11 7L11 9L12 9L12 10L13 10L13 11L12 11L12 12L15 12L15 14L16 14L16 15L17 15L17 14L19 14L19 16L16 16L16 17L14 17L14 16L15 16L15 15L14 15L14 16L13 16L13 15L12 15L12 14L14 14L14 13L12 13L12 14L11 14L11 12L10 12L10 11L11 11L11 10L10 10L10 8L9 8L9 6L8 6L8 10L6 10L6 9L7 9L7 8L3 8L3 9L4 9L4 10L3 10L3 11L2 11L2 8L1 8L1 10L0 10L0 11L2 11L2 12L3 12L3 13L1 13L1 12L0 12L0 13L1 13L1 15L0 15L0 17L1 17L1 16L2 16L2 15L3 15L3 14L4 14L4 12L5 12L5 13L7 13L7 14L6 14L6 15L8 15L8 14L11 14L11 15L12 15L12 17L11 17L11 19L10 19L10 18L9 18L9 17L10 17L10 16L9 16L9 17L8 17L8 16L6 16L6 17L8 17L8 18L9 18L9 20L10 20L10 21L9 21L9 22L8 22L8 21L7 21L7 20L6 20L6 21L7 21L7 22L4 22L4 23L1 23L1 21L0 21L0 29L1 29L1 27L2 27L2 29L4 29L4 28L3 28L3 27L5 27L5 29L7 29L7 28L9 28L9 29L8 29L8 30L9 30L9 29L10 29L10 30L11 30L11 31L12 31L12 32L11 32L11 35L13 35L13 37L15 37L15 36L16 36L16 37L17 37L17 36L18 36L18 37L20 37L20 36L18 36L18 35L19 35L19 33L18 33L18 30L17 30L17 29L18 29L18 28L19 28L19 26L17 26L17 25L19 25L19 24L21 24L21 23L22 23L22 25L20 25L20 26L24 26L24 25L28 25L28 27L27 27L27 26L25 26L25 27L24 27L24 28L23 28L23 27L20 27L20 28L21 28L21 30L20 30L20 29L19 29L19 31L21 31L21 32L20 32L20 34L21 34L21 35L22 35L22 34L23 34L23 33L22 33L22 31L21 31L21 30L23 30L23 31L25 31L25 32L24 32L24 33L25 33L25 34L24 34L24 35L25 35L25 36L24 36L24 37L26 37L26 34L27 34L27 35L29 35L29 36L28 36L28 37L29 37L29 36L30 36L30 37L33 37L33 36L32 36L32 35L34 35L34 36L36 36L36 37L37 37L37 34L35 34L35 33L36 33L36 32L37 32L37 30L35 30L35 29L34 29L34 26L36 26L36 27L35 27L35 28L36 28L36 29L37 29L37 26L36 26L36 25L33 25L33 24L32 24L32 25L31 25L31 23L32 23L32 22L33 22L33 23L34 23L34 24L36 24L36 23L34 23L34 22L35 22L35 21L36 21L36 22L37 22L37 18L35 18L35 15L36 15L36 17L37 17L37 14L35 14L35 15L34 15L34 18L35 18L35 19L36 19L36 20L35 20L35 21L34 21L34 22L33 22L33 18L30 18L30 17L31 17L31 16L33 16L33 14L34 14L34 13L35 13L35 11L36 11L36 13L37 13L37 10L36 10L36 8L35 8L35 9L34 9L34 8L32 8L32 9L31 9L31 8L29 8L29 5L28 5L28 8L27 8L27 4L25 4L25 3L24 3L24 2L25 2L25 1L24 1L24 0L16 0L16 1L13 1L13 2L11 2L11 3L10 3L10 2L9 2L9 1L11 1L11 0ZM26 0L26 1L27 1L27 0ZM16 1L16 2L13 2L13 3L18 3L18 4L17 4L17 5L19 5L19 1L18 1L18 2L17 2L17 1ZM20 1L20 2L21 2L21 1ZM22 1L22 3L23 3L23 1ZM28 2L28 3L29 3L29 2ZM20 3L20 5L21 5L21 3ZM15 4L15 5L13 5L13 7L12 7L12 5L11 5L11 7L12 7L12 9L13 9L13 10L14 10L14 11L15 11L15 10L16 10L16 11L18 11L18 13L21 13L21 14L22 14L22 13L21 13L21 12L23 12L23 9L22 9L22 6L23 6L23 7L24 7L24 9L25 9L25 10L24 10L24 12L25 12L25 13L24 13L24 14L23 14L23 15L21 15L21 16L20 16L20 17L19 17L19 18L18 18L18 17L17 17L17 18L16 18L16 19L15 19L15 18L14 18L14 17L13 17L13 18L12 18L12 19L13 19L13 20L11 20L11 21L10 21L10 22L11 22L11 23L9 23L9 24L13 24L13 25L10 25L10 26L9 26L9 25L8 25L8 26L7 26L7 25L6 25L6 26L7 26L7 27L6 27L6 28L7 28L7 27L10 27L10 26L13 26L13 27L12 27L12 28L10 28L10 29L11 29L11 30L12 30L12 31L13 31L13 30L14 30L14 29L17 29L17 28L18 28L18 27L17 27L17 26L16 26L16 24L15 24L15 23L14 23L14 22L15 22L15 21L16 21L16 23L17 23L17 24L18 24L18 23L19 23L19 22L17 22L17 21L18 21L18 19L19 19L19 21L21 21L21 22L20 22L20 23L21 23L21 22L22 22L22 20L23 20L23 22L24 22L24 23L25 23L25 24L26 24L26 22L27 22L27 19L26 19L26 21L25 21L25 20L24 20L24 19L25 19L25 18L27 18L27 17L25 17L25 16L26 16L26 14L25 14L25 13L26 13L26 11L25 11L25 10L26 10L26 9L25 9L25 8L26 8L26 6L25 6L25 7L24 7L24 5L25 5L25 4L24 4L24 5L22 5L22 6L21 6L21 7L20 7L20 6L19 6L19 7L18 7L18 6L17 6L17 8L16 8L16 4ZM14 6L14 8L13 8L13 9L15 9L15 6ZM19 8L19 9L17 9L17 10L18 10L18 11L19 11L19 12L20 12L20 11L22 11L22 10L21 10L21 8ZM28 8L28 9L27 9L27 10L28 10L28 9L29 9L29 10L30 10L30 9L29 9L29 8ZM32 9L32 10L31 10L31 11L29 11L29 13L27 13L27 14L28 14L28 15L27 15L27 16L28 16L28 15L29 15L29 14L30 14L30 15L32 15L32 14L31 14L31 13L34 13L34 11L35 11L35 10L34 10L34 9ZM4 10L4 11L3 11L3 12L4 12L4 11L5 11L5 12L7 12L7 13L9 13L9 11L10 11L10 10L9 10L9 11L8 11L8 12L7 12L7 11L5 11L5 10ZM19 10L19 11L20 11L20 10ZM27 11L27 12L28 12L28 11ZM31 11L31 12L30 12L30 13L31 13L31 12L33 12L33 11ZM16 12L16 13L17 13L17 12ZM4 15L4 16L5 16L5 15ZM23 15L23 18L21 18L21 17L22 17L22 16L21 16L21 17L20 17L20 18L21 18L21 19L24 19L24 18L25 18L25 17L24 17L24 16L25 16L25 15ZM29 16L29 17L30 17L30 16ZM2 17L2 18L4 18L4 21L5 21L5 19L7 19L7 18L4 18L4 17ZM0 18L0 20L2 20L2 19L1 19L1 18ZM17 18L17 19L16 19L16 21L17 21L17 19L18 19L18 18ZM29 18L29 19L28 19L28 20L29 20L29 21L28 21L28 23L27 23L27 24L30 24L30 23L29 23L29 21L30 21L30 22L32 22L32 20L31 20L31 19L30 19L30 18ZM14 19L14 21L12 21L12 23L13 23L13 22L14 22L14 21L15 21L15 19ZM30 20L30 21L31 21L31 20ZM2 21L2 22L3 22L3 21ZM24 21L24 22L25 22L25 21ZM7 22L7 23L5 23L5 24L8 24L8 22ZM3 24L3 25L4 25L4 26L5 26L5 25L4 25L4 24ZM14 24L14 27L13 27L13 28L15 28L15 27L16 27L16 28L17 28L17 27L16 27L16 26L15 26L15 24ZM31 26L31 27L28 27L28 28L27 28L27 27L25 27L25 28L27 28L27 29L28 29L28 28L32 28L32 27L33 27L33 26ZM12 29L12 30L13 30L13 29ZM23 29L23 30L25 30L25 29ZM29 29L29 32L32 32L32 29ZM33 29L33 33L32 33L32 34L30 34L30 33L29 33L29 35L32 35L32 34L34 34L34 33L35 33L35 30L34 30L34 29ZM26 30L26 32L25 32L25 33L26 33L26 32L28 32L28 30ZM30 30L30 31L31 31L31 30ZM8 31L8 34L9 34L9 35L8 35L8 36L9 36L9 37L11 37L11 36L10 36L10 34L9 34L9 31ZM14 31L14 32L15 32L15 31ZM16 31L16 32L17 32L17 31ZM12 32L12 33L13 33L13 34L14 34L14 33L13 33L13 32ZM16 33L16 36L17 36L17 35L18 35L18 33ZM21 33L21 34L22 34L22 33ZM27 33L27 34L28 34L28 33ZM14 35L14 36L15 36L15 35ZM21 36L21 37L23 37L23 36ZM0 0L0 7L7 7L7 0ZM1 1L1 6L6 6L6 1ZM2 2L2 5L5 5L5 2ZM30 0L30 7L37 7L37 0ZM31 1L31 6L36 6L36 1ZM32 2L32 5L35 5L35 2ZM0 30L0 37L7 37L7 30ZM1 31L1 36L6 36L6 31ZM2 32L2 35L5 35L5 32Z" fill="#000000"/></g></g></svg>
