<?xml version="1.0" encoding="UTF-8"?>
<svg xmlns="http://www.w3.org/2000/svg" version="1.1" width="300" height="300" viewBox="0 0 300 300"><rect x="0" y="0" width="300" height="300" fill="#ffffff"/><g transform="scale(8.108)"><g transform="translate(0,0)"><path fill-rule="evenodd" d="M8 0L8 1L9 1L9 0ZM10 0L10 1L11 1L11 2L10 2L10 4L11 4L11 2L12 2L12 8L10 8L10 7L11 7L11 6L10 6L10 5L8 5L8 8L5 8L5 9L7 9L7 10L6 10L6 11L5 11L5 10L4 10L4 8L3 8L3 9L2 9L2 8L1 8L1 9L2 9L2 10L0 10L0 11L1 11L1 12L2 12L2 10L4 10L4 11L3 11L3 12L5 12L5 13L1 13L1 14L0 14L0 15L1 15L1 16L2 16L2 17L0 17L0 20L1 20L1 22L0 22L0 23L2 23L2 22L3 22L3 24L2 24L2 25L5 25L5 26L4 26L4 27L3 27L3 26L2 26L2 27L1 27L1 26L0 26L0 27L1 27L1 28L0 28L0 29L3 29L3 28L4 28L4 29L8 29L8 32L9 32L9 33L8 33L8 34L9 34L9 35L8 35L8 36L9 36L9 37L12 37L12 36L13 36L13 37L14 37L14 34L12 34L12 35L11 35L11 33L10 33L10 32L11 32L11 31L10 31L10 29L12 29L12 28L15 28L15 30L16 30L16 31L14 31L14 30L12 30L12 31L13 31L13 33L15 33L15 34L16 34L16 35L17 35L17 36L18 36L18 37L19 37L19 36L22 36L22 37L25 37L25 33L26 33L26 34L27 34L27 35L26 35L26 36L27 36L27 37L29 37L29 35L30 35L30 33L32 33L32 34L31 34L31 37L34 37L34 35L35 35L35 34L36 34L36 35L37 35L37 33L35 33L35 34L34 34L34 35L33 35L33 33L34 33L34 32L35 32L35 30L36 30L36 31L37 31L37 29L35 29L35 30L34 30L34 31L33 31L33 28L32 28L32 26L28 26L28 25L29 25L29 24L30 24L30 25L33 25L33 23L34 23L34 21L33 21L33 20L32 20L32 19L34 19L34 20L36 20L36 21L35 21L35 23L36 23L36 24L35 24L35 26L36 26L36 27L37 27L37 25L36 25L36 24L37 24L37 23L36 23L36 21L37 21L37 20L36 20L36 19L37 19L37 16L36 16L36 15L37 15L37 12L36 12L36 11L37 11L37 8L36 8L36 11L35 11L35 12L34 12L34 9L35 9L35 8L33 8L33 9L32 9L32 8L29 8L29 6L28 6L28 4L29 4L29 3L26 3L26 2L29 2L29 1L28 1L28 0L25 0L25 4L26 4L26 5L27 5L27 6L26 6L26 7L25 7L25 6L24 6L24 5L23 5L23 4L22 4L22 5L23 5L23 6L22 6L22 7L21 7L21 6L20 6L20 5L21 5L21 0L20 0L20 5L19 5L19 4L17 4L17 3L18 3L18 2L19 2L19 0L18 0L18 1L17 1L17 3L16 3L16 4L15 4L15 3L14 3L14 5L13 5L13 2L14 2L14 1L16 1L16 0L13 0L13 1L12 1L12 0ZM22 0L22 2L23 2L23 0ZM8 2L8 4L9 4L9 2ZM15 5L15 7L14 7L14 6L13 6L13 7L14 7L14 8L13 8L13 9L12 9L12 10L13 10L13 9L14 9L14 8L15 8L15 9L17 9L17 8L18 8L18 10L19 10L19 8L18 8L18 5ZM9 6L9 7L10 7L10 6ZM16 6L16 7L17 7L17 6ZM19 6L19 7L20 7L20 8L21 8L21 7L20 7L20 6ZM23 6L23 7L22 7L22 10L20 10L20 11L19 11L19 14L18 14L18 13L17 13L17 14L16 14L16 15L15 15L15 14L14 14L14 13L13 13L13 12L14 12L14 11L15 11L15 13L16 13L16 12L18 12L18 11L17 11L17 10L14 10L14 11L12 11L12 12L11 12L11 11L8 11L8 10L7 10L7 11L6 11L6 12L7 12L7 13L6 13L6 14L7 14L7 15L6 15L6 16L7 16L7 17L6 17L6 18L4 18L4 17L5 17L5 14L3 14L3 15L4 15L4 17L3 17L3 18L4 18L4 20L3 20L3 19L2 19L2 20L3 20L3 21L4 21L4 20L7 20L7 19L6 19L6 18L7 18L7 17L8 17L8 19L9 19L9 18L10 18L10 17L11 17L11 19L10 19L10 20L13 20L13 17L11 17L11 16L8 16L8 15L9 15L9 14L10 14L10 15L13 15L13 16L14 16L14 15L15 15L15 18L14 18L14 20L16 20L16 22L15 22L15 21L12 21L12 22L11 22L11 21L6 21L6 22L8 22L8 23L9 23L9 22L10 22L10 23L11 23L11 24L10 24L10 26L9 26L9 24L7 24L7 23L6 23L6 24L5 24L5 23L4 23L4 24L5 24L5 25L6 25L6 26L5 26L5 27L6 27L6 28L7 28L7 27L6 27L6 26L7 26L7 25L8 25L8 26L9 26L9 27L11 27L11 28L12 28L12 27L11 27L11 26L13 26L13 24L12 24L12 22L15 22L15 23L16 23L16 24L18 24L18 25L16 25L16 26L15 26L15 25L14 25L14 26L15 26L15 27L16 27L16 30L17 30L17 33L16 33L16 32L15 32L15 33L16 33L16 34L17 34L17 35L19 35L19 33L20 33L20 35L23 35L23 32L22 32L22 31L25 31L25 32L26 32L26 33L28 33L28 35L29 35L29 33L28 33L28 32L26 32L26 31L27 31L27 30L28 30L28 29L26 29L26 28L25 28L25 27L26 27L26 26L25 26L25 25L26 25L26 24L27 24L27 25L28 25L28 24L27 24L27 23L28 23L28 22L29 22L29 23L30 23L30 24L31 24L31 23L30 23L30 21L29 21L29 20L26 20L26 18L25 18L25 17L26 17L26 16L20 16L20 19L21 19L21 17L23 17L23 18L22 18L22 20L23 20L23 19L24 19L24 22L23 22L23 21L22 21L22 22L21 22L21 20L20 20L20 21L19 21L19 19L15 19L15 18L19 18L19 17L18 17L18 16L17 16L17 17L16 17L16 15L17 15L17 14L18 14L18 15L19 15L19 14L21 14L21 15L22 15L22 14L24 14L24 12L23 12L23 13L22 13L22 12L20 12L20 11L24 11L24 10L25 10L25 11L28 11L28 12L27 12L27 13L25 13L25 14L26 14L26 15L28 15L28 16L27 16L27 19L29 19L29 18L30 18L30 17L29 17L29 16L32 16L32 17L33 17L33 18L35 18L35 19L36 19L36 18L35 18L35 17L33 17L33 14L34 14L34 16L35 16L35 15L36 15L36 14L34 14L34 13L33 13L33 10L32 10L32 9L30 9L30 10L32 10L32 11L31 11L31 12L32 12L32 13L31 13L31 14L29 14L29 15L28 15L28 14L27 14L27 13L28 13L28 12L30 12L30 11L28 11L28 10L29 10L29 8L27 8L27 7L28 7L28 6L27 6L27 7L26 7L26 8L24 8L24 6ZM9 8L9 9L10 9L10 8ZM26 8L26 9L25 9L25 10L26 10L26 9L27 9L27 10L28 10L28 9L27 9L27 8ZM7 11L7 12L8 12L8 13L7 13L7 14L8 14L8 13L9 13L9 12L8 12L8 11ZM10 12L10 14L11 14L11 12ZM12 13L12 14L13 14L13 13ZM21 13L21 14L22 14L22 13ZM1 14L1 15L2 15L2 14ZM28 17L28 18L29 18L29 17ZM31 18L31 19L30 19L30 20L31 20L31 22L32 22L32 23L33 23L33 21L32 21L32 20L31 20L31 19L32 19L32 18ZM17 21L17 22L16 22L16 23L19 23L19 24L20 24L20 23L21 23L21 25L23 25L23 23L21 23L21 22L20 22L20 23L19 23L19 21ZM25 21L25 24L26 24L26 23L27 23L27 21ZM0 24L0 25L1 25L1 24ZM6 24L6 25L7 25L7 24ZM11 24L11 25L12 25L12 24ZM18 25L18 26L17 26L17 28L18 28L18 26L20 26L20 25ZM21 26L21 27L19 27L19 29L20 29L20 33L21 33L21 34L22 34L22 33L21 33L21 31L22 31L22 30L21 30L21 27L22 27L22 26ZM23 26L23 28L22 28L22 29L23 29L23 30L24 30L24 29L23 29L23 28L24 28L24 26ZM2 27L2 28L3 28L3 27ZM27 27L27 28L28 28L28 27ZM29 27L29 28L31 28L31 27ZM34 27L34 28L35 28L35 27ZM8 28L8 29L10 29L10 28ZM17 29L17 30L18 30L18 29ZM29 29L29 32L32 32L32 29ZM30 30L30 31L31 31L31 30ZM18 31L18 32L19 32L19 31ZM17 33L17 34L18 34L18 33ZM10 35L10 36L11 36L11 35ZM32 35L32 36L33 36L33 35ZM15 36L15 37L16 37L16 36ZM35 36L35 37L37 37L37 36ZM0 0L0 7L7 7L7 0ZM1 1L1 6L6 6L6 1ZM2 2L2 5L5 5L5 2ZM30 0L30 7L37 7L37 0ZM31 1L31 6L36 6L36 1ZM32 2L32 5L35 5L35 2ZM0 30L0 37L7 37L7 30ZM1 31L1 36L6 36L6 31ZM2 32L2 35L5 35L5 32Z" fill="#000000"/></g></g></svg>
