<?xml version="1.0" encoding="UTF-8"?>
<svg xmlns="http://www.w3.org/2000/svg" version="1.1" width="300" height="300" viewBox="0 0 300 300"><rect x="0" y="0" width="300" height="300" fill="#ffffff"/><g transform="scale(6.122)"><g transform="translate(0,0)"><path fill-rule="evenodd" d="M9 0L9 1L8 1L8 2L9 2L9 3L8 3L8 5L9 5L9 4L12 4L12 5L14 5L14 7L13 7L13 6L12 6L12 7L13 7L13 8L10 8L10 7L11 7L11 6L10 6L10 7L9 7L9 6L8 6L8 11L7 11L7 10L6 10L6 9L7 9L7 8L3 8L3 9L2 9L2 8L1 8L1 11L0 11L0 12L1 12L1 11L2 11L2 12L4 12L4 13L2 13L2 14L0 14L0 16L2 16L2 17L3 17L3 18L4 18L4 19L7 19L7 18L8 18L8 17L9 17L9 20L8 20L8 21L7 21L7 20L6 20L6 21L7 21L7 22L5 22L5 20L3 20L3 19L0 19L0 20L3 20L3 21L2 21L2 23L1 23L1 21L0 21L0 30L1 30L1 27L2 27L2 31L1 31L1 33L0 33L0 35L1 35L1 36L0 36L0 37L1 37L1 40L0 40L0 41L3 41L3 40L4 40L4 39L2 39L2 37L1 37L1 36L3 36L3 33L4 33L4 32L3 32L3 31L5 31L5 34L4 34L4 36L5 36L5 35L8 35L8 36L6 36L6 37L8 37L8 38L5 38L5 39L8 39L8 40L6 40L6 41L8 41L8 42L9 42L9 41L10 41L10 42L11 42L11 43L8 43L8 46L9 46L9 47L8 47L8 48L9 48L9 49L11 49L11 48L9 48L9 47L10 47L10 46L11 46L11 47L12 47L12 46L11 46L11 45L10 45L10 44L12 44L12 45L13 45L13 46L14 46L14 45L13 45L13 44L15 44L15 46L19 46L19 45L21 45L21 44L22 44L22 45L26 45L26 47L25 47L25 46L23 46L23 47L22 47L22 46L20 46L20 47L19 47L19 49L20 49L20 47L22 47L22 49L29 49L29 48L26 48L26 47L28 47L28 45L29 45L29 47L30 47L30 46L31 46L31 47L32 47L32 49L35 49L35 48L36 48L36 49L37 49L37 48L38 48L38 49L42 49L42 48L43 48L43 49L46 49L46 48L48 48L48 49L49 49L49 45L48 45L48 44L47 44L47 46L48 46L48 47L46 47L46 45L45 45L45 44L46 44L46 43L47 43L47 42L48 42L48 43L49 43L49 42L48 42L48 41L46 41L46 38L47 38L47 39L49 39L49 38L47 38L47 37L49 37L49 34L48 34L48 36L47 36L47 33L46 33L46 31L45 31L45 30L46 30L46 29L47 29L47 30L48 30L48 31L47 31L47 32L48 32L48 33L49 33L49 30L48 30L48 29L49 29L49 26L48 26L48 24L47 24L47 23L46 23L46 21L44 21L44 22L43 22L43 18L45 18L45 20L46 20L46 19L47 19L47 20L48 20L48 21L49 21L49 18L48 18L48 17L47 17L47 18L45 18L45 17L46 17L46 16L47 16L47 15L49 15L49 14L47 14L47 15L46 15L46 16L44 16L44 15L45 15L45 14L44 14L44 15L43 15L43 18L41 18L41 19L40 19L40 16L39 16L39 15L40 15L40 14L39 14L39 13L40 13L40 12L42 12L42 14L41 14L41 17L42 17L42 14L43 14L43 11L44 11L44 13L45 13L45 10L47 10L47 11L46 11L46 12L48 12L48 11L49 11L49 10L47 10L47 9L48 9L48 8L47 8L47 9L46 9L46 8L44 8L44 9L43 9L43 8L41 8L41 9L40 9L40 7L41 7L41 6L40 6L40 7L39 7L39 5L38 5L38 2L39 2L39 4L40 4L40 3L41 3L41 0L40 0L40 1L37 1L37 0L36 0L36 1L35 1L35 0L34 0L34 2L37 2L37 3L35 3L35 6L34 6L34 7L33 7L33 6L32 6L32 7L31 7L31 6L30 6L30 7L29 7L29 6L28 6L28 7L27 7L27 5L29 5L29 4L30 4L30 5L33 5L33 2L31 2L31 3L32 3L32 4L30 4L30 2L29 2L29 0L28 0L28 2L27 2L27 4L26 4L26 2L25 2L25 1L26 1L26 0L24 0L24 2L23 2L23 3L21 3L21 2L20 2L20 1L23 1L23 0L18 0L18 1L17 1L17 2L15 2L15 1L13 1L13 0L12 0L12 1L10 1L10 0ZM30 0L30 1L33 1L33 0ZM9 1L9 2L10 2L10 3L12 3L12 4L13 4L13 3L12 3L12 2L13 2L13 1L12 1L12 2L10 2L10 1ZM14 2L14 4L17 4L17 3L15 3L15 2ZM19 2L19 3L18 3L18 4L19 4L19 5L18 5L18 6L17 6L17 7L18 7L18 9L17 9L17 8L16 8L16 5L15 5L15 7L14 7L14 8L13 8L13 11L14 11L14 12L15 12L15 10L14 10L14 9L15 9L15 8L16 8L16 11L17 11L17 10L19 10L19 13L17 13L17 14L19 14L19 15L24 15L24 17L23 17L23 18L24 18L24 20L23 20L23 21L24 21L24 22L25 22L25 21L26 21L26 22L27 22L27 27L26 27L26 28L27 28L27 27L28 27L28 29L26 29L26 30L27 30L27 31L28 31L28 32L29 32L29 31L28 31L28 29L29 29L29 30L30 30L30 32L32 32L32 33L33 33L33 32L34 32L34 33L36 33L36 32L35 32L35 30L36 30L36 28L37 28L37 29L38 29L38 31L39 31L39 30L41 30L41 31L42 31L42 32L40 32L40 33L39 33L39 34L37 34L37 35L33 35L33 37L32 37L32 34L30 34L30 33L29 33L29 34L28 34L28 36L29 36L29 37L28 37L28 41L27 41L27 45L28 45L28 41L29 41L29 42L31 42L31 45L33 45L33 43L32 43L32 42L33 42L33 41L32 41L32 40L33 40L33 39L34 39L34 40L35 40L35 41L34 41L34 42L35 42L35 44L37 44L37 45L38 45L38 44L40 44L40 42L39 42L39 43L36 43L36 42L35 42L35 41L36 41L36 40L37 40L37 41L39 41L39 39L38 39L38 38L37 38L37 37L38 37L38 36L37 36L37 35L40 35L40 36L41 36L41 33L42 33L42 34L43 34L43 31L44 31L44 30L45 30L45 29L46 29L46 28L45 28L45 29L43 29L43 31L42 31L42 30L41 30L41 29L42 29L42 28L43 28L43 27L42 27L42 28L41 28L41 29L39 29L39 28L38 28L38 27L37 27L37 26L36 26L36 24L37 24L37 23L38 23L38 24L39 24L39 27L40 27L40 23L39 23L39 22L38 22L38 20L39 20L39 19L38 19L38 18L39 18L39 17L37 17L37 19L36 19L36 18L35 18L35 19L34 19L34 17L35 17L35 16L38 16L38 15L37 15L37 14L36 14L36 12L38 12L38 13L39 13L39 11L41 11L41 10L38 10L38 9L39 9L39 8L36 8L36 6L37 6L37 7L38 7L38 6L37 6L37 4L36 4L36 6L35 6L35 8L36 8L36 9L35 9L35 11L36 11L36 12L35 12L35 13L34 13L34 8L33 8L33 9L32 9L32 8L31 8L31 10L30 10L30 9L28 9L28 10L30 10L30 11L31 11L31 12L28 12L28 13L27 13L27 11L26 11L26 13L25 13L25 12L24 12L24 11L25 11L25 10L26 10L26 9L25 9L25 10L23 10L23 9L21 9L21 7L22 7L22 4L21 4L21 3L20 3L20 2ZM24 2L24 3L23 3L23 4L24 4L24 3L25 3L25 2ZM28 2L28 4L29 4L29 2ZM19 3L19 4L20 4L20 7L19 7L19 6L18 6L18 7L19 7L19 8L20 8L20 7L21 7L21 4L20 4L20 3ZM23 5L23 8L26 8L26 5ZM24 6L24 7L25 7L25 6ZM28 7L28 8L29 8L29 7ZM9 8L9 9L10 9L10 8ZM4 9L4 10L2 10L2 11L5 11L5 12L7 12L7 13L4 13L4 14L7 14L7 15L5 15L5 16L4 16L4 18L7 18L7 17L8 17L8 16L7 16L7 15L8 15L8 14L7 14L7 13L11 13L11 15L9 15L9 16L14 16L14 17L13 17L13 19L12 19L12 20L11 20L11 22L10 22L10 23L9 23L9 24L10 24L10 26L11 26L11 27L12 27L12 29L14 29L14 30L15 30L15 31L16 31L16 32L15 32L15 33L13 33L13 32L14 32L14 31L13 31L13 32L11 32L11 30L10 30L10 27L6 27L6 28L5 28L5 29L4 29L4 30L5 30L5 29L6 29L6 30L7 30L7 31L6 31L6 32L9 32L9 34L8 34L8 33L6 33L6 34L8 34L8 35L9 35L9 36L8 36L8 37L9 37L9 40L10 40L10 41L12 41L12 40L13 40L13 39L12 39L12 38L13 38L13 37L14 37L14 35L13 35L13 36L12 36L12 34L16 34L16 33L18 33L18 32L17 32L17 31L16 31L16 30L15 30L15 29L16 29L16 28L17 28L17 29L18 29L18 28L17 28L17 27L20 27L20 26L21 26L21 27L22 27L22 28L23 28L23 30L25 30L25 29L24 29L24 28L25 28L25 27L24 27L24 28L23 28L23 27L22 27L22 26L21 26L21 25L22 25L22 22L21 22L21 21L22 21L22 20L21 20L21 19L20 19L20 18L17 18L17 17L16 17L16 16L14 16L14 15L15 15L15 14L13 14L13 13L11 13L11 12L12 12L12 9L11 9L11 11L10 11L10 12L9 12L9 11L8 11L8 12L7 12L7 11L6 11L6 10L5 10L5 9ZM19 9L19 10L21 10L21 9ZM31 10L31 11L32 11L32 14L31 14L31 13L30 13L30 14L29 14L29 13L28 13L28 15L25 15L25 17L24 17L24 18L25 18L25 17L27 17L27 16L28 16L28 18L27 18L27 20L26 20L26 19L25 19L25 20L26 20L26 21L27 21L27 22L31 22L31 23L30 23L30 24L29 24L29 23L28 23L28 24L29 24L29 25L28 25L28 26L31 26L31 23L32 23L32 25L33 25L33 26L32 26L32 27L33 27L33 28L31 28L31 27L30 27L30 28L31 28L31 29L30 29L30 30L32 30L32 32L33 32L33 31L34 31L34 30L35 30L35 29L34 29L34 28L36 28L36 26L35 26L35 27L33 27L33 26L34 26L34 25L33 25L33 24L34 24L34 23L35 23L35 24L36 24L36 23L37 23L37 20L36 20L36 21L35 21L35 20L34 20L34 21L33 21L33 22L31 22L31 21L32 21L32 19L33 19L33 16L32 16L32 14L33 14L33 11L32 11L32 10ZM37 10L37 11L38 11L38 10ZM42 10L42 11L43 11L43 10ZM22 11L22 12L20 12L20 13L19 13L19 14L20 14L20 13L22 13L22 14L24 14L24 12L23 12L23 11ZM22 12L22 13L23 13L23 12ZM26 13L26 14L27 14L27 13ZM2 14L2 15L3 15L3 14ZM12 14L12 15L13 15L13 14ZM30 14L30 15L28 15L28 16L29 16L29 17L30 17L30 15L31 15L31 14ZM17 15L17 16L18 16L18 15ZM34 15L34 16L35 16L35 15ZM6 16L6 17L7 17L7 16ZM19 16L19 17L20 17L20 16ZM21 16L21 17L22 17L22 16ZM31 16L31 19L30 19L30 18L29 18L29 19L28 19L28 20L27 20L27 21L29 21L29 19L30 19L30 20L31 20L31 19L32 19L32 16ZM47 18L47 19L48 19L48 18ZM13 19L13 20L12 20L12 22L11 22L11 24L12 24L12 25L14 25L14 27L13 27L13 26L12 26L12 27L13 27L13 28L14 28L14 27L15 27L15 28L16 28L16 27L17 27L17 26L18 26L18 23L17 23L17 22L16 22L16 24L15 24L15 22L14 22L14 24L13 24L13 21L14 21L14 20L15 20L15 19ZM16 19L16 20L19 20L19 19ZM41 19L41 20L40 20L40 21L42 21L42 19ZM20 20L20 21L21 21L21 20ZM8 21L8 22L9 22L9 21ZM18 21L18 22L19 22L19 24L21 24L21 22L19 22L19 21ZM35 22L35 23L36 23L36 22ZM48 22L48 23L49 23L49 22ZM2 23L2 25L3 25L3 26L2 26L2 27L4 27L4 23ZM5 23L5 26L8 26L8 23ZM23 23L23 26L26 26L26 23ZM41 23L41 26L44 26L44 23ZM6 24L6 25L7 25L7 24ZM14 24L14 25L15 25L15 26L17 26L17 25L15 25L15 24ZM24 24L24 25L25 25L25 24ZM42 24L42 25L43 25L43 24ZM46 24L46 26L45 26L45 27L47 27L47 29L48 29L48 26L47 26L47 24ZM19 25L19 26L20 26L20 25ZM6 28L6 29L9 29L9 28ZM19 28L19 29L20 29L20 30L18 30L18 31L21 31L21 33L20 33L20 34L21 34L21 33L22 33L22 35L21 35L21 36L22 36L22 35L23 35L23 36L24 36L24 35L25 35L25 34L26 34L26 33L27 33L27 32L26 32L26 31L21 31L21 29L20 29L20 28ZM32 29L32 30L33 30L33 29ZM9 30L9 32L10 32L10 33L11 33L11 32L10 32L10 30ZM2 32L2 33L3 33L3 32ZM23 33L23 35L24 35L24 33ZM10 34L10 37L11 37L11 34ZM19 35L19 36L20 36L20 35ZM26 35L26 36L25 36L25 37L26 37L26 38L25 38L25 39L24 39L24 38L23 38L23 37L22 37L22 38L20 38L20 37L19 37L19 38L18 38L18 40L17 40L17 39L14 39L14 42L12 42L12 43L14 43L14 42L15 42L15 43L17 43L17 42L18 42L18 41L19 41L19 44L20 44L20 42L21 42L21 43L22 43L22 41L20 41L20 40L21 40L21 39L22 39L22 40L25 40L25 39L26 39L26 40L27 40L27 39L26 39L26 38L27 38L27 35ZM29 35L29 36L31 36L31 35ZM42 35L42 36L43 36L43 35ZM45 35L45 36L44 36L44 37L43 37L43 38L44 38L44 37L45 37L45 36L46 36L46 37L47 37L47 36L46 36L46 35ZM15 36L15 38L17 38L17 37L18 37L18 36ZM34 36L34 37L37 37L37 36ZM30 37L30 38L29 38L29 41L30 41L30 38L31 38L31 40L32 40L32 38L31 38L31 37ZM39 37L39 38L40 38L40 39L41 39L41 40L44 40L44 39L41 39L41 38L40 38L40 37ZM10 38L10 39L11 39L11 38ZM22 38L22 39L23 39L23 38ZM35 38L35 39L37 39L37 40L38 40L38 39L37 39L37 38ZM19 39L19 40L20 40L20 39ZM15 40L15 42L17 42L17 40ZM23 41L23 44L26 44L26 41ZM41 41L41 44L44 44L44 41ZM24 42L24 43L25 43L25 42ZM42 42L42 43L43 43L43 42ZM17 44L17 45L18 45L18 44ZM9 45L9 46L10 46L10 45ZM41 45L41 46L40 46L40 47L41 47L41 48L42 48L42 47L41 47L41 46L42 46L42 45ZM43 45L43 46L45 46L45 45ZM35 46L35 47L36 47L36 48L37 48L37 47L39 47L39 46L37 46L37 47L36 47L36 46ZM14 47L14 48L13 48L13 49L16 49L16 48L15 48L15 47ZM23 47L23 48L25 48L25 47ZM33 47L33 48L34 48L34 47ZM43 47L43 48L44 48L44 47ZM0 0L0 7L7 7L7 0ZM1 1L1 6L6 6L6 1ZM2 2L2 5L5 5L5 2ZM42 0L42 7L49 7L49 0ZM43 1L43 6L48 6L48 1ZM44 2L44 5L47 5L47 2ZM0 42L0 49L7 49L7 42ZM1 43L1 48L6 48L6 43ZM2 44L2 47L5 47L5 44Z" fill="#000000"/></g></g></svg>
