<?xml version="1.0" encoding="UTF-8"?>
<svg xmlns="http://www.w3.org/2000/svg" version="1.1" width="300" height="300" viewBox="0 0 300 300"><rect x="0" y="0" width="300" height="300" fill="#ffffff"/><g transform="scale(7.317)"><g transform="translate(0,0)"><path fill-rule="evenodd" d="M10 0L10 1L8 1L8 2L9 2L9 3L8 3L8 5L10 5L10 7L9 7L9 6L8 6L8 10L9 10L9 11L8 11L8 12L6 12L6 13L7 13L7 14L6 14L6 15L7 15L7 14L8 14L8 15L9 15L9 16L10 16L10 17L9 17L9 18L6 18L6 17L7 17L7 16L6 16L6 17L5 17L5 18L6 18L6 19L5 19L5 21L3 21L3 20L4 20L4 19L3 19L3 18L4 18L4 17L3 17L3 18L2 18L2 16L5 16L5 14L4 14L4 13L5 13L5 11L4 11L4 10L5 10L5 9L7 9L7 8L3 8L3 9L4 9L4 10L3 10L3 11L2 11L2 12L1 12L1 13L2 13L2 15L0 15L0 16L1 16L1 17L0 17L0 18L2 18L2 21L1 21L1 25L0 25L0 27L1 27L1 28L0 28L0 33L3 33L3 32L5 32L5 33L7 33L7 32L8 32L8 34L9 34L9 35L8 35L8 38L9 38L9 39L8 39L8 40L9 40L9 41L10 41L10 38L14 38L14 37L15 37L15 36L16 36L16 35L15 35L15 32L16 32L16 34L17 34L17 38L18 38L18 39L15 39L15 40L13 40L13 39L12 39L12 41L16 41L16 40L19 40L19 41L22 41L22 40L23 40L23 41L24 41L24 40L23 40L23 39L22 39L22 40L21 40L21 39L19 39L19 37L21 37L21 38L22 38L22 36L24 36L24 37L23 37L23 38L24 38L24 37L25 37L25 39L26 39L26 37L27 37L27 39L28 39L28 41L29 41L29 39L30 39L30 41L35 41L35 39L36 39L36 41L38 41L38 40L39 40L39 39L38 39L38 38L39 38L39 37L40 37L40 36L41 36L41 35L40 35L40 33L41 33L41 32L40 32L40 31L41 31L41 30L40 30L40 28L39 28L39 27L41 27L41 24L40 24L40 25L38 25L38 26L37 26L37 25L36 25L36 23L39 23L39 22L38 22L38 21L41 21L41 20L39 20L39 19L41 19L41 18L40 18L40 17L41 17L41 12L40 12L40 10L38 10L38 11L36 11L36 10L37 10L37 9L38 9L38 8L36 8L36 10L35 10L35 11L36 11L36 12L34 12L34 14L33 14L33 15L32 15L32 14L31 14L31 13L33 13L33 12L31 12L31 13L29 13L29 12L30 12L30 11L31 11L31 10L33 10L33 9L35 9L35 8L33 8L33 6L32 6L32 8L31 8L31 5L32 5L32 4L33 4L33 0L32 0L32 1L30 1L30 0L29 0L29 1L28 1L28 2L27 2L27 0L25 0L25 1L24 1L24 0L23 0L23 2L24 2L24 3L21 3L21 2L22 2L22 1L20 1L20 0L19 0L19 1L20 1L20 2L19 2L19 5L18 5L18 3L17 3L17 1L18 1L18 0L15 0L15 1L14 1L14 2L16 2L16 3L17 3L17 5L16 5L16 7L15 7L15 5L14 5L14 7L15 7L15 8L16 8L16 9L14 9L14 8L13 8L13 5L12 5L12 4L15 4L15 3L13 3L13 1L12 1L12 0ZM10 1L10 2L11 2L11 3L10 3L10 5L11 5L11 7L10 7L10 8L9 8L9 10L10 10L10 11L9 11L9 13L10 13L10 16L12 16L12 17L11 17L11 18L10 18L10 20L9 20L9 19L6 19L6 20L9 20L9 21L10 21L10 22L11 22L11 23L14 23L14 21L15 21L15 20L13 20L13 19L17 19L17 17L16 17L16 16L18 16L18 18L20 18L20 20L22 20L22 21L24 21L24 22L25 22L25 21L24 21L24 20L26 20L26 19L27 19L27 20L28 20L28 22L29 22L29 23L27 23L27 22L26 22L26 23L25 23L25 24L24 24L24 23L22 23L22 22L20 22L20 21L19 21L19 22L18 22L18 20L19 20L19 19L18 19L18 20L17 20L17 22L16 22L16 23L17 23L17 25L16 25L16 24L13 24L13 25L11 25L11 24L8 24L8 25L9 25L9 26L7 26L7 25L6 25L6 26L7 26L7 27L6 27L6 28L7 28L7 27L8 27L8 30L7 30L7 29L6 29L6 30L5 30L5 28L4 28L4 30L2 30L2 28L3 28L3 27L5 27L5 25L4 25L4 26L2 26L2 25L1 25L1 26L2 26L2 28L1 28L1 30L2 30L2 32L3 32L3 31L4 31L4 30L5 30L5 32L7 32L7 31L8 31L8 30L9 30L9 29L10 29L10 32L9 32L9 34L10 34L10 32L12 32L12 33L13 33L13 31L14 31L14 32L15 32L15 31L16 31L16 30L15 30L15 29L17 29L17 28L16 28L16 27L17 27L17 25L18 25L18 26L19 26L19 24L21 24L21 23L22 23L22 24L24 24L24 25L25 25L25 28L28 28L28 27L26 27L26 26L27 26L27 25L28 25L28 26L30 26L30 27L29 27L29 30L30 30L30 31L27 31L27 30L26 30L26 32L25 32L25 31L24 31L24 30L25 30L25 29L24 29L24 28L23 28L23 27L24 27L24 26L23 26L23 27L22 27L22 25L21 25L21 26L20 26L20 27L18 27L18 28L19 28L19 29L20 29L20 30L21 30L21 31L22 31L22 32L19 32L19 30L18 30L18 31L17 31L17 32L19 32L19 33L20 33L20 34L19 34L19 36L20 36L20 34L21 34L21 33L23 33L23 31L24 31L24 33L25 33L25 34L24 34L24 35L25 35L25 36L26 36L26 34L27 34L27 33L28 33L28 35L27 35L27 36L29 36L29 37L28 37L28 39L29 39L29 37L30 37L30 39L31 39L31 40L33 40L33 38L34 38L34 39L35 39L35 37L32 37L32 39L31 39L31 37L30 37L30 36L31 36L31 35L30 35L30 36L29 36L29 34L32 34L32 33L28 33L28 32L31 32L31 28L30 28L30 27L31 27L31 26L32 26L32 25L33 25L33 26L34 26L34 24L32 24L32 23L34 23L34 22L35 22L35 23L36 23L36 21L37 21L37 20L38 20L38 19L37 19L37 20L36 20L36 19L35 19L35 17L37 17L37 18L38 18L38 17L39 17L39 16L40 16L40 15L39 15L39 14L38 14L38 15L37 15L37 14L36 14L36 13L40 13L40 12L39 12L39 11L38 11L38 12L36 12L36 13L35 13L35 14L34 14L34 15L33 15L33 16L34 16L34 17L33 17L33 19L31 19L31 18L30 18L30 19L29 19L29 18L28 18L28 19L27 19L27 17L26 17L26 18L25 18L25 17L22 17L22 16L24 16L24 15L25 15L25 16L26 16L26 15L25 15L25 14L24 14L24 13L26 13L26 12L27 12L27 13L28 13L28 12L29 12L29 10L28 10L28 12L27 12L27 11L25 11L25 10L26 10L26 9L27 9L27 8L28 8L28 9L29 9L29 8L30 8L30 5L28 5L28 4L29 4L29 3L30 3L30 4L32 4L32 2L31 2L31 3L30 3L30 2L28 2L28 3L27 3L27 2L26 2L26 1L25 1L25 2L26 2L26 3L24 3L24 5L23 5L23 4L21 4L21 3L20 3L20 4L21 4L21 5L19 5L19 7L18 7L18 5L17 5L17 9L16 9L16 11L15 11L15 12L14 12L14 9L13 9L13 11L12 11L12 10L10 10L10 9L12 9L12 5L11 5L11 4L12 4L12 2L11 2L11 1ZM26 3L26 5L27 5L27 3ZM22 5L22 7L21 7L21 6L20 6L20 8L19 8L19 9L17 9L17 10L19 10L19 9L20 9L20 11L22 11L22 12L19 12L19 11L18 11L18 12L17 12L17 15L18 15L18 16L19 16L19 17L21 17L21 19L22 19L22 20L24 20L24 18L22 18L22 17L21 17L21 16L19 16L19 15L18 15L18 12L19 12L19 14L20 14L20 15L21 15L21 14L20 14L20 13L22 13L22 15L23 15L23 13L24 13L24 10L23 10L23 8L24 8L24 7L25 7L25 8L27 8L27 6L26 6L26 7L25 7L25 6L24 6L24 7L23 7L23 5ZM28 6L28 7L29 7L29 6ZM22 7L22 8L23 8L23 7ZM1 8L1 9L0 9L0 10L2 10L2 8ZM20 8L20 9L21 9L21 10L22 10L22 9L21 9L21 8ZM39 8L39 9L40 9L40 8ZM30 9L30 10L31 10L31 9ZM6 10L6 11L7 11L7 10ZM3 12L3 13L4 13L4 12ZM11 12L11 14L12 14L12 13L14 13L14 14L15 14L15 16L13 16L13 17L12 17L12 18L11 18L11 20L10 20L10 21L11 21L11 20L12 20L12 22L13 22L13 20L12 20L12 19L13 19L13 18L15 18L15 16L16 16L16 14L15 14L15 13L16 13L16 12L15 12L15 13L14 13L14 12ZM22 12L22 13L23 13L23 12ZM3 14L3 15L4 15L4 14ZM29 14L29 15L28 15L28 16L29 16L29 17L30 17L30 16L31 16L31 17L32 17L32 16L31 16L31 15L30 15L30 14ZM35 15L35 16L37 16L37 17L38 17L38 16L39 16L39 15L38 15L38 16L37 16L37 15ZM28 19L28 20L29 20L29 21L30 21L30 22L32 22L32 21L33 21L33 22L34 22L34 21L36 21L36 20L35 20L35 19L33 19L33 20L31 20L31 21L30 21L30 20L29 20L29 19ZM33 20L33 21L34 21L34 20ZM2 21L2 24L3 24L3 21ZM6 21L6 22L8 22L8 21ZM17 22L17 23L18 23L18 24L19 24L19 23L20 23L20 22L19 22L19 23L18 23L18 22ZM4 23L4 24L7 24L7 23ZM29 23L29 24L28 24L28 25L29 25L29 24L30 24L30 26L31 26L31 25L32 25L32 24L30 24L30 23ZM26 24L26 25L27 25L27 24ZM14 25L14 26L13 26L13 27L14 27L14 28L13 28L13 29L12 29L12 26L11 26L11 28L10 28L10 29L12 29L12 31L13 31L13 29L14 29L14 28L15 28L15 27L16 27L16 26L15 26L15 25ZM38 26L38 27L39 27L39 26ZM20 27L20 29L21 29L21 28L22 28L22 27ZM32 27L32 32L33 32L33 31L36 31L36 32L37 32L37 30L39 30L39 28L38 28L38 29L37 29L37 28L35 28L35 27ZM33 28L33 30L34 30L34 28ZM22 29L22 31L23 31L23 30L24 30L24 29ZM36 29L36 30L37 30L37 29ZM6 30L6 31L7 31L7 30ZM14 30L14 31L15 31L15 30ZM17 33L17 34L18 34L18 33ZM33 33L33 36L36 36L36 33ZM37 33L37 34L38 34L38 37L39 37L39 36L40 36L40 35L39 35L39 34L38 34L38 33ZM11 34L11 35L10 35L10 37L11 37L11 35L12 35L12 36L13 36L13 34ZM34 34L34 35L35 35L35 34ZM36 37L36 38L37 38L37 37ZM40 38L40 40L41 40L41 38ZM37 39L37 40L38 40L38 39ZM25 40L25 41L27 41L27 40ZM0 0L0 7L7 7L7 0ZM1 1L1 6L6 6L6 1ZM2 2L2 5L5 5L5 2ZM34 0L34 7L41 7L41 0ZM35 1L35 6L40 6L40 1ZM36 2L36 5L39 5L39 2ZM0 34L0 41L7 41L7 34ZM1 35L1 40L6 40L6 35ZM2 36L2 39L5 39L5 36Z" fill="#000000"/></g></g></svg>
