<?xml version="1.0" encoding="UTF-8"?>
<svg xmlns="http://www.w3.org/2000/svg" version="1.1" width="300" height="300" viewBox="0 0 300 300"><rect x="0" y="0" width="300" height="300" fill="#ffffff"/><g transform="scale(8.108)"><g transform="translate(0,0)"><path fill-rule="evenodd" d="M8 0L8 1L9 1L9 0ZM10 0L10 1L11 1L11 2L8 2L8 4L9 4L9 3L11 3L11 2L12 2L12 4L10 4L10 5L12 5L12 4L13 4L13 2L14 2L14 1L15 1L15 0L14 0L14 1L12 1L12 0ZM17 0L17 1L16 1L16 2L17 2L17 3L16 3L16 4L18 4L18 3L19 3L19 0ZM20 0L20 4L19 4L19 5L21 5L21 2L22 2L22 3L23 3L23 2L22 2L22 1L23 1L23 0L22 0L22 1L21 1L21 0ZM25 0L25 4L26 4L26 5L27 5L27 6L26 6L26 7L25 7L25 6L24 6L24 5L23 5L23 4L22 4L22 7L21 7L21 6L20 6L20 7L19 7L19 6L18 6L18 5L17 5L17 6L16 6L16 7L15 7L15 5L13 5L13 6L12 6L12 7L13 7L13 8L12 8L12 9L13 9L13 8L14 8L14 10L17 10L17 13L16 13L16 15L15 15L15 13L13 13L13 14L12 14L12 15L13 15L13 16L11 16L11 15L10 15L10 14L9 14L9 16L11 16L11 17L10 17L10 19L8 19L8 17L7 17L7 16L8 16L8 14L6 14L6 13L7 13L7 12L5 12L5 10L6 10L6 11L8 11L8 12L9 12L9 13L10 13L10 12L11 12L11 13L12 13L12 11L13 11L13 10L11 10L11 11L10 11L10 12L9 12L9 11L8 11L8 9L11 9L11 6L10 6L10 7L9 7L9 5L8 5L8 8L5 8L5 9L4 9L4 8L3 8L3 9L2 9L2 8L1 8L1 9L2 9L2 10L1 10L1 11L2 11L2 10L4 10L4 11L3 11L3 12L5 12L5 13L0 13L0 17L1 17L1 16L3 16L3 15L4 15L4 14L5 14L5 17L2 17L2 19L1 19L1 18L0 18L0 20L2 20L2 21L3 21L3 19L4 19L4 18L5 18L5 20L6 20L6 21L7 21L7 22L5 22L5 21L4 21L4 23L3 23L3 22L0 22L0 23L3 23L3 25L4 25L4 27L3 27L3 26L2 26L2 27L1 27L1 26L0 26L0 27L1 27L1 28L0 28L0 29L3 29L3 28L5 28L5 26L6 26L6 27L7 27L7 28L6 28L6 29L7 29L7 28L8 28L8 32L9 32L9 33L8 33L8 34L9 34L9 35L8 35L8 36L9 36L9 37L19 37L19 36L22 36L22 37L25 37L25 33L27 33L27 32L28 32L28 34L29 34L29 35L28 35L28 37L31 37L31 36L32 36L32 37L34 37L34 35L35 35L35 34L36 34L36 35L37 35L37 33L35 33L35 34L34 34L34 32L35 32L35 31L33 31L33 28L32 28L32 26L28 26L28 25L29 25L29 24L30 24L30 25L34 25L34 21L33 21L33 20L31 20L31 19L32 19L32 18L33 18L33 19L34 19L34 20L36 20L36 21L35 21L35 23L36 23L36 24L35 24L35 25L36 25L36 26L35 26L35 27L34 27L34 28L35 28L35 30L36 30L36 31L37 31L37 25L36 25L36 24L37 24L37 23L36 23L36 21L37 21L37 20L36 20L36 19L37 19L37 16L36 16L36 15L37 15L37 8L36 8L36 9L35 9L35 8L33 8L33 9L32 9L32 8L29 8L29 10L28 10L28 9L27 9L27 8L26 8L26 7L27 7L27 6L28 6L28 7L29 7L29 6L28 6L28 4L29 4L29 2L28 2L28 1L29 1L29 0L27 0L27 1L26 1L26 0ZM17 1L17 2L18 2L18 1ZM26 2L26 3L27 3L27 4L28 4L28 2ZM13 6L13 7L14 7L14 8L15 8L15 9L18 9L18 11L19 11L19 10L20 10L20 8L21 8L21 7L20 7L20 8L19 8L19 7L18 7L18 6L17 6L17 7L16 7L16 8L15 8L15 7L14 7L14 6ZM23 6L23 10L21 10L21 11L23 11L23 13L22 13L22 12L19 12L19 13L17 13L17 14L18 14L18 15L19 15L19 16L20 16L20 19L24 19L24 22L23 22L23 21L22 21L22 22L21 22L21 23L22 23L22 25L21 25L21 24L19 24L19 23L18 23L18 24L17 24L17 21L16 21L16 22L15 22L15 21L14 21L14 20L18 20L18 19L19 19L19 17L18 17L18 16L17 16L17 15L16 15L16 16L15 16L15 15L14 15L14 16L15 16L15 17L16 17L16 18L14 18L14 19L13 19L13 17L11 17L11 19L10 19L10 21L8 21L8 23L9 23L9 22L10 22L10 21L11 21L11 22L12 22L12 24L10 24L10 26L9 26L9 29L10 29L10 31L11 31L11 30L13 30L13 31L12 31L12 33L11 33L11 32L10 32L10 33L9 33L9 34L10 34L10 35L9 35L9 36L10 36L10 35L12 35L12 34L14 34L14 35L13 35L13 36L14 36L14 35L15 35L15 34L16 34L16 36L17 36L17 34L19 34L19 33L20 33L20 35L23 35L23 32L22 32L22 31L24 31L24 30L25 30L25 32L26 32L26 31L27 31L27 30L28 30L28 29L26 29L26 28L25 28L25 27L26 27L26 26L25 26L25 25L26 25L26 24L27 24L27 23L28 23L28 24L29 24L29 23L30 23L30 24L31 24L31 23L30 23L30 22L29 22L29 21L30 21L30 17L28 17L28 16L31 16L31 15L32 15L32 17L33 17L33 18L35 18L35 19L36 19L36 18L35 18L35 17L34 17L34 16L35 16L35 15L36 15L36 14L34 14L34 13L33 13L33 10L32 10L32 9L30 9L30 10L32 10L32 11L28 11L28 10L27 10L27 9L26 9L26 8L24 8L24 6ZM6 9L6 10L7 10L7 9ZM25 9L25 11L24 11L24 14L22 14L22 13L21 13L21 14L19 14L19 15L20 15L20 16L23 16L23 17L21 17L21 18L23 18L23 17L24 17L24 15L25 15L25 16L26 16L26 17L25 17L25 18L26 18L26 20L27 20L27 16L26 16L26 15L25 15L25 13L27 13L27 14L28 14L28 15L29 15L29 14L31 14L31 13L32 13L32 12L28 12L28 11L27 11L27 10L26 10L26 9ZM34 9L34 12L36 12L36 11L35 11L35 9ZM14 11L14 12L15 12L15 11ZM27 12L27 13L28 13L28 12ZM2 14L2 15L3 15L3 14ZM21 14L21 15L22 15L22 14ZM33 14L33 15L34 15L34 14ZM6 15L6 16L7 16L7 15ZM16 16L16 17L17 17L17 18L16 18L16 19L17 19L17 18L18 18L18 17L17 17L17 16ZM6 17L6 18L7 18L7 17ZM28 18L28 19L29 19L29 18ZM6 19L6 20L7 20L7 19ZM11 20L11 21L13 21L13 20ZM18 21L18 22L20 22L20 21ZM25 21L25 24L26 24L26 23L27 23L27 21ZM32 21L32 22L33 22L33 21ZM13 22L13 24L12 24L12 25L11 25L11 26L10 26L10 28L11 28L11 26L12 26L12 27L15 27L15 29L14 29L14 28L12 28L12 29L13 29L13 30L14 30L14 31L13 31L13 32L14 32L14 31L17 31L17 30L18 30L18 29L17 29L17 28L18 28L18 27L19 27L19 30L21 30L21 31L22 31L22 30L21 30L21 29L20 29L20 26L19 26L19 25L18 25L18 27L17 27L17 28L16 28L16 27L15 27L15 26L16 26L16 25L17 25L17 24L16 24L16 23L15 23L15 22ZM28 22L28 23L29 23L29 22ZM4 23L4 24L7 24L7 25L6 25L6 26L7 26L7 25L9 25L9 24L7 24L7 23ZM0 24L0 25L1 25L1 24ZM15 24L15 25L14 25L14 26L15 26L15 25L16 25L16 24ZM22 25L22 26L21 26L21 27L22 27L22 26L23 26L23 27L25 27L25 26L23 26L23 25ZM2 27L2 28L3 28L3 27ZM27 27L27 28L28 28L28 27ZM29 27L29 28L30 28L30 27ZM22 28L22 29L23 29L23 30L24 30L24 29L23 29L23 28ZM16 29L16 30L17 30L17 29ZM29 29L29 32L32 32L32 29ZM30 30L30 31L31 31L31 30ZM18 31L18 32L20 32L20 33L21 33L21 34L22 34L22 33L21 33L21 32L20 32L20 31ZM16 32L16 33L17 33L17 32ZM10 33L10 34L11 34L11 33ZM14 33L14 34L15 34L15 33ZM30 33L30 35L29 35L29 36L31 36L31 34L32 34L32 33ZM33 34L33 35L32 35L32 36L33 36L33 35L34 35L34 34ZM18 35L18 36L19 36L19 35ZM26 35L26 36L27 36L27 35ZM35 36L35 37L37 37L37 36ZM0 0L0 7L7 7L7 0ZM1 1L1 6L6 6L6 1ZM2 2L2 5L5 5L5 2ZM30 0L30 7L37 7L37 0ZM31 1L31 6L36 6L36 1ZM32 2L32 5L35 5L35 2ZM0 30L0 37L7 37L7 30ZM1 31L1 36L6 36L6 31ZM2 32L2 35L5 35L5 32Z" fill="#000000"/></g></g></svg>
