<?xml version="1.0" encoding="UTF-8"?>
<svg xmlns="http://www.w3.org/2000/svg" version="1.1" width="300" height="300" viewBox="0 0 300 300"><rect x="0" y="0" width="300" height="300" fill="#ffffff"/><g transform="scale(8.108)"><g transform="translate(0,0)"><path fill-rule="evenodd" d="M9 0L9 1L10 1L10 2L8 2L8 3L10 3L10 4L8 4L8 7L9 7L9 6L10 6L10 8L8 8L8 9L7 9L7 8L6 8L6 9L5 9L5 8L4 8L4 9L5 9L5 10L6 10L6 11L7 11L7 10L9 10L9 11L8 11L8 12L5 12L5 11L4 11L4 10L2 10L2 11L1 11L1 9L2 9L2 8L1 8L1 9L0 9L0 13L1 13L1 14L4 14L4 12L5 12L5 15L4 15L4 16L3 16L3 15L0 15L0 16L1 16L1 18L4 18L4 20L5 20L5 22L6 22L6 23L9 23L9 25L8 25L8 24L6 24L6 25L5 25L5 26L4 26L4 24L5 24L5 23L4 23L4 24L3 24L3 23L1 23L1 24L0 24L0 26L2 26L2 27L3 27L3 28L0 28L0 29L3 29L3 28L4 28L4 29L5 29L5 28L6 28L6 29L7 29L7 28L9 28L9 29L8 29L8 30L9 30L9 29L10 29L10 30L11 30L11 29L12 29L12 30L13 30L13 31L14 31L14 32L15 32L15 33L17 33L17 34L14 34L14 36L16 36L16 35L17 35L17 36L18 36L18 34L20 34L20 35L21 35L21 36L22 36L22 35L23 35L23 34L21 34L21 33L18 33L18 32L19 32L19 31L20 31L20 32L21 32L21 30L22 30L22 29L23 29L23 31L22 31L22 33L23 33L23 31L24 31L24 33L25 33L25 31L24 31L24 30L25 30L25 29L23 29L23 27L25 27L25 25L27 25L27 23L28 23L28 24L29 24L29 23L30 23L30 21L32 21L32 23L31 23L31 24L30 24L30 25L28 25L28 27L30 27L30 28L27 28L27 26L26 26L26 28L27 28L27 29L26 29L26 33L27 33L27 34L25 34L25 35L24 35L24 36L23 36L23 37L26 37L26 35L27 35L27 34L28 34L28 35L29 35L29 36L30 36L30 37L31 37L31 36L32 36L32 37L37 37L37 36L36 36L36 34L34 34L34 35L33 35L33 36L32 36L32 35L31 35L31 33L33 33L33 31L34 31L34 33L36 33L36 32L35 32L35 31L36 31L36 29L37 29L37 27L36 27L36 24L37 24L37 20L36 20L36 17L37 17L37 16L36 16L36 15L32 15L32 14L33 14L33 13L34 13L34 12L35 12L35 13L37 13L37 12L35 12L35 10L34 10L34 11L33 11L33 10L32 10L32 11L31 11L31 12L29 12L29 11L30 11L30 10L31 10L31 9L33 9L33 8L31 8L31 9L30 9L30 8L29 8L29 2L28 2L28 3L26 3L26 2L25 2L25 1L23 1L23 2L22 2L22 1L21 1L21 0L16 0L16 2L15 2L15 0L13 0L13 2L14 2L14 3L13 3L13 4L11 4L11 1L12 1L12 0L11 0L11 1L10 1L10 0ZM26 0L26 1L29 1L29 0ZM17 1L17 2L18 2L18 3L17 3L17 4L16 4L16 6L15 6L15 7L14 7L14 6L13 6L13 7L14 7L14 10L10 10L10 11L9 11L9 12L10 12L10 11L11 11L11 13L12 13L12 11L13 11L13 13L14 13L14 15L13 15L13 14L12 14L12 15L11 15L11 14L9 14L9 13L6 13L6 14L7 14L7 15L6 15L6 16L7 16L7 17L6 17L6 18L7 18L7 17L8 17L8 18L9 18L9 17L11 17L11 18L12 18L12 15L13 15L13 16L14 16L14 17L13 17L13 18L14 18L14 17L15 17L15 18L16 18L16 17L17 17L17 21L14 21L14 20L13 20L13 19L11 19L11 21L12 21L12 22L10 22L10 23L12 23L12 22L13 22L13 25L11 25L11 24L10 24L10 26L12 26L12 27L13 27L13 25L14 25L14 24L15 24L15 26L14 26L14 28L12 28L12 29L13 29L13 30L14 30L14 31L16 31L16 32L18 32L18 31L16 31L16 30L17 30L17 28L18 28L18 30L19 30L19 29L20 29L20 30L21 30L21 29L22 29L22 27L23 27L23 26L19 26L19 27L17 27L17 26L18 26L18 25L17 25L17 24L16 24L16 23L17 23L17 22L19 22L19 21L21 21L21 22L20 22L20 23L21 23L21 22L24 22L24 21L25 21L25 20L26 20L26 19L27 19L27 21L26 21L26 22L25 22L25 23L24 23L24 24L23 24L23 23L22 23L22 25L25 25L25 24L26 24L26 23L27 23L27 21L28 21L28 23L29 23L29 21L30 21L30 20L31 20L31 19L32 19L32 21L33 21L33 22L34 22L34 23L32 23L32 24L31 24L31 25L32 25L32 24L33 24L33 25L34 25L34 23L36 23L36 21L33 21L33 19L34 19L34 18L35 18L35 17L33 17L33 16L32 16L32 15L30 15L30 14L32 14L32 13L33 13L33 12L32 12L32 13L29 13L29 12L27 12L27 11L25 11L25 9L24 9L24 11L22 11L22 12L21 12L21 11L20 11L20 12L18 12L18 11L19 11L19 10L18 10L18 9L20 9L20 10L22 10L22 9L23 9L23 8L24 8L24 6L23 6L23 8L22 8L22 9L20 9L20 8L19 8L19 7L20 7L20 6L21 6L21 7L22 7L22 5L25 5L25 7L26 7L26 9L27 9L27 10L28 10L28 11L29 11L29 10L30 10L30 9L28 9L28 8L27 8L27 7L28 7L28 5L26 5L26 3L24 3L24 2L23 2L23 3L20 3L20 2L21 2L21 1L20 1L20 2L19 2L19 1ZM14 3L14 4L13 4L13 5L14 5L14 4L15 4L15 3ZM19 3L19 5L17 5L17 6L16 6L16 10L14 10L14 12L15 12L15 11L16 11L16 13L15 13L15 14L16 14L16 15L15 15L15 17L16 17L16 16L18 16L18 19L19 19L19 20L18 20L18 21L19 21L19 20L21 20L21 21L22 21L22 19L23 19L23 20L24 20L24 19L25 19L25 18L27 18L27 19L28 19L28 17L29 17L29 19L30 19L30 17L31 17L31 18L33 18L33 17L32 17L32 16L30 16L30 17L29 17L29 16L28 16L28 15L29 15L29 14L27 14L27 12L26 12L26 13L22 13L22 14L18 14L18 12L17 12L17 8L18 8L18 7L19 7L19 6L20 6L20 5L21 5L21 4L20 4L20 3ZM10 5L10 6L11 6L11 8L12 8L12 6L11 6L11 5ZM17 6L17 7L18 7L18 6ZM26 6L26 7L27 7L27 6ZM34 8L34 9L35 9L35 8ZM6 9L6 10L7 10L7 9ZM24 11L24 12L25 12L25 11ZM2 12L2 13L3 13L3 12ZM24 14L24 15L25 15L25 16L23 16L23 15L22 15L22 16L20 16L20 15L19 15L19 17L20 17L20 18L21 18L21 19L22 19L22 17L23 17L23 18L24 18L24 17L26 17L26 15L27 15L27 14ZM7 15L7 16L10 16L10 15ZM4 16L4 17L5 17L5 16ZM27 16L27 17L28 17L28 16ZM1 19L1 20L3 20L3 19ZM6 19L6 20L7 20L7 21L6 21L6 22L8 22L8 20L7 20L7 19ZM9 19L9 21L10 21L10 19ZM12 20L12 21L13 21L13 20ZM28 20L28 21L29 21L29 20ZM0 21L0 22L2 22L2 21ZM3 21L3 22L4 22L4 21ZM19 24L19 25L21 25L21 24ZM6 25L6 26L7 26L7 27L6 27L6 28L7 28L7 27L9 27L9 28L10 28L10 27L9 27L9 26L8 26L8 25ZM16 25L16 26L15 26L15 28L14 28L14 29L16 29L16 28L17 28L17 27L16 27L16 26L17 26L17 25ZM30 26L30 27L31 27L31 28L33 28L33 30L34 30L34 29L35 29L35 28L36 28L36 27L35 27L35 26L34 26L34 27L33 27L33 26L32 26L32 27L31 27L31 26ZM4 27L4 28L5 28L5 27ZM19 27L19 28L20 28L20 29L21 29L21 27ZM27 29L27 33L28 33L28 29ZM29 29L29 32L32 32L32 29ZM30 30L30 31L31 31L31 30ZM9 31L9 32L8 32L8 33L10 33L10 34L9 34L9 35L8 35L8 36L9 36L9 35L12 35L12 36L10 36L10 37L13 37L13 35L12 35L12 34L13 34L13 33L11 33L11 32L12 32L12 31ZM19 36L19 37L20 37L20 36ZM0 0L0 7L7 7L7 0ZM1 1L1 6L6 6L6 1ZM2 2L2 5L5 5L5 2ZM30 0L30 7L37 7L37 0ZM31 1L31 6L36 6L36 1ZM32 2L32 5L35 5L35 2ZM0 30L0 37L7 37L7 30ZM1 31L1 36L6 36L6 31ZM2 32L2 35L5 35L5 32Z" fill="#000000"/></g></g></svg>
