<?xml version="1.0" encoding="UTF-8"?>
<svg xmlns="http://www.w3.org/2000/svg" version="1.1" width="300" height="300" viewBox="0 0 300 300"><rect x="0" y="0" width="300" height="300" fill="#ffffff"/><g transform="scale(8.108)"><g transform="translate(0,0)"><path fill-rule="evenodd" d="M8 0L8 1L9 1L9 2L8 2L8 4L9 4L9 5L8 5L8 8L5 8L5 9L8 9L8 11L7 11L7 10L6 10L6 11L5 11L5 10L4 10L4 8L3 8L3 9L2 9L2 8L1 8L1 9L2 9L2 10L1 10L1 11L2 11L2 10L4 10L4 11L3 11L3 12L4 12L4 13L3 13L3 14L5 14L5 18L3 18L3 17L4 17L4 15L2 15L2 16L1 16L1 17L0 17L0 20L1 20L1 17L2 17L2 18L3 18L3 19L2 19L2 21L1 21L1 22L0 22L0 23L2 23L2 22L3 22L3 23L4 23L4 22L5 22L5 24L2 24L2 25L4 25L4 27L3 27L3 26L2 26L2 27L1 27L1 26L0 26L0 27L1 27L1 28L0 28L0 29L8 29L8 32L9 32L9 33L8 33L8 34L9 34L9 33L10 33L10 36L9 36L9 35L8 35L8 36L9 36L9 37L12 37L12 36L13 36L13 37L17 37L17 36L18 36L18 35L19 35L19 36L22 36L22 37L25 37L25 33L26 33L26 34L29 34L29 35L28 35L28 37L31 37L31 36L32 36L32 37L34 37L34 35L33 35L33 34L36 34L36 35L37 35L37 33L33 33L33 28L32 28L32 26L30 26L30 27L29 27L29 26L28 26L28 25L29 25L29 24L30 24L30 25L34 25L34 23L33 23L33 22L32 22L32 24L30 24L30 23L31 23L31 20L30 20L30 19L33 19L33 20L32 20L32 21L34 21L34 20L36 20L36 21L35 21L35 23L36 23L36 24L35 24L35 25L36 25L36 26L35 26L35 27L34 27L34 28L35 28L35 27L36 27L36 29L35 29L35 30L34 30L34 32L35 32L35 30L36 30L36 31L37 31L37 25L36 25L36 24L37 24L37 23L36 23L36 21L37 21L37 20L36 20L36 19L37 19L37 16L36 16L36 15L37 15L37 8L36 8L36 9L35 9L35 8L33 8L33 9L32 9L32 8L29 8L29 10L28 10L28 9L27 9L27 8L28 8L28 7L29 7L29 5L28 5L28 4L29 4L29 3L28 3L28 1L29 1L29 0L27 0L27 1L26 1L26 0L25 0L25 4L26 4L26 5L27 5L27 6L26 6L26 7L25 7L25 6L24 6L24 5L23 5L23 6L22 6L22 4L23 4L23 3L22 3L22 4L21 4L21 2L23 2L23 0L22 0L22 1L21 1L21 0L20 0L20 4L19 4L19 5L17 5L17 6L16 6L16 8L17 8L17 6L18 6L18 8L19 8L19 9L18 9L18 10L17 10L17 9L15 9L15 8L14 8L14 7L15 7L15 5L13 5L13 4L18 4L18 3L19 3L19 2L17 2L17 1L19 1L19 0L16 0L16 1L14 1L14 0L13 0L13 1L12 1L12 0L10 0L10 1L9 1L9 0ZM13 1L13 2L14 2L14 1ZM11 2L11 5L10 5L10 6L9 6L9 11L8 11L8 12L7 12L7 11L6 11L6 12L7 12L7 13L6 13L6 14L7 14L7 15L6 15L6 16L7 16L7 17L6 17L6 18L7 18L7 17L8 17L8 19L9 19L9 20L8 20L8 21L5 21L5 22L9 22L9 23L8 23L8 25L6 25L6 24L7 24L7 23L6 23L6 24L5 24L5 26L7 26L7 27L6 27L6 28L8 28L8 29L9 29L9 28L8 28L8 25L9 25L9 27L10 27L10 29L11 29L11 27L10 27L10 26L11 26L11 25L12 25L12 29L14 29L14 30L15 30L15 31L13 31L13 30L10 30L10 31L12 31L12 32L10 32L10 33L11 33L11 35L12 35L12 34L14 34L14 36L15 36L15 34L14 34L14 33L13 33L13 32L16 32L16 34L17 34L17 35L16 35L16 36L17 36L17 35L18 35L18 34L19 34L19 33L20 33L20 35L23 35L23 33L24 33L24 32L26 32L26 33L28 33L28 31L27 31L27 29L26 29L26 28L25 28L25 27L26 27L26 26L25 26L25 25L26 25L26 24L27 24L27 25L28 25L28 23L30 23L30 21L29 21L29 22L28 22L28 19L29 19L29 18L30 18L30 17L28 17L28 14L27 14L27 13L28 13L28 12L29 12L29 16L31 16L31 14L33 14L33 15L32 15L32 17L33 17L33 19L34 19L34 18L35 18L35 19L36 19L36 18L35 18L35 17L33 17L33 15L34 15L34 16L35 16L35 15L36 15L36 14L34 14L34 13L33 13L33 10L32 10L32 9L30 9L30 10L32 10L32 11L31 11L31 12L32 12L32 13L31 13L31 14L30 14L30 11L28 11L28 10L27 10L27 9L26 9L26 8L27 8L27 7L28 7L28 6L27 6L27 7L26 7L26 8L24 8L24 6L23 6L23 7L22 7L22 6L21 6L21 5L19 5L19 8L20 8L20 6L21 6L21 7L22 7L22 10L21 10L21 9L20 9L20 11L19 11L19 10L18 10L18 11L17 11L17 10L15 10L15 12L14 12L14 14L15 14L15 15L13 15L13 14L12 14L12 13L13 13L13 12L12 12L12 9L14 9L14 8L11 8L11 7L12 7L12 6L11 6L11 5L12 5L12 2ZM15 2L15 3L16 3L16 2ZM26 2L26 3L27 3L27 2ZM10 6L10 7L11 7L11 6ZM13 6L13 7L14 7L14 6ZM10 8L10 9L11 9L11 8ZM34 9L34 12L35 12L35 13L36 13L36 11L35 11L35 9ZM10 10L10 11L11 11L11 10ZM24 10L24 11L21 11L21 12L20 12L20 14L19 14L19 13L18 13L18 12L19 12L19 11L18 11L18 12L17 12L17 13L18 13L18 14L16 14L16 15L17 15L17 16L16 16L16 18L14 18L14 19L16 19L16 21L14 21L14 22L13 22L13 20L11 20L11 24L9 24L9 25L11 25L11 24L12 24L12 23L13 23L13 25L15 25L15 26L16 26L16 25L19 25L19 26L17 26L17 30L16 30L16 27L13 27L13 28L14 28L14 29L15 29L15 30L16 30L16 31L17 31L17 30L18 30L18 27L19 27L19 28L20 28L20 29L19 29L19 31L18 31L18 32L20 32L20 33L21 33L21 34L22 34L22 33L21 33L21 31L22 31L22 32L24 32L24 31L22 31L22 30L21 30L21 28L20 28L20 23L21 23L21 25L23 25L23 24L22 24L22 23L23 23L23 22L24 22L24 19L22 19L22 18L23 18L23 17L21 17L21 19L20 19L20 16L23 16L23 15L24 15L24 16L26 16L26 17L25 17L25 18L26 18L26 20L27 20L27 16L26 16L26 15L27 15L27 14L26 14L26 15L25 15L25 13L27 13L27 12L28 12L28 11L27 11L27 10ZM4 11L4 12L5 12L5 11ZM0 12L0 13L1 13L1 14L0 14L0 15L1 15L1 14L2 14L2 13L1 13L1 12ZM8 12L8 13L9 13L9 12ZM11 12L11 13L12 13L12 12ZM21 12L21 13L22 13L22 14L21 14L21 15L22 15L22 14L24 14L24 12L23 12L23 13L22 13L22 12ZM8 14L8 15L7 15L7 16L8 16L8 15L9 15L9 16L11 16L11 17L9 17L9 19L11 19L11 17L15 17L15 16L11 16L11 15L10 15L10 14ZM18 14L18 15L19 15L19 16L20 16L20 15L19 15L19 14ZM2 16L2 17L3 17L3 16ZM17 16L17 18L16 18L16 19L17 19L17 22L18 22L18 24L19 24L19 22L20 22L20 21L21 21L21 20L20 20L20 21L19 21L19 22L18 22L18 19L19 19L19 17L18 17L18 16ZM3 19L3 21L4 21L4 20L5 20L5 19ZM6 19L6 20L7 20L7 19ZM9 21L9 22L10 22L10 21ZM22 21L22 22L23 22L23 21ZM25 21L25 24L26 24L26 23L27 23L27 21ZM16 23L16 24L17 24L17 23ZM0 24L0 25L1 25L1 24ZM21 26L21 27L22 27L22 26ZM23 26L23 28L22 28L22 29L23 29L23 30L25 30L25 28L24 28L24 27L25 27L25 26ZM2 27L2 28L3 28L3 27ZM4 27L4 28L5 28L5 27ZM27 27L27 28L28 28L28 27ZM23 28L23 29L24 29L24 28ZM29 29L29 32L32 32L32 29ZM30 30L30 31L31 31L31 30ZM26 31L26 32L27 32L27 31ZM30 33L30 35L29 35L29 36L31 36L31 35L32 35L32 36L33 36L33 35L32 35L32 34L31 34L31 33ZM26 35L26 36L27 36L27 35ZM35 36L35 37L37 37L37 36ZM0 0L0 7L7 7L7 0ZM1 1L1 6L6 6L6 1ZM2 2L2 5L5 5L5 2ZM30 0L30 7L37 7L37 0ZM31 1L31 6L36 6L36 1ZM32 2L32 5L35 5L35 2ZM0 30L0 37L7 37L7 30ZM1 31L1 36L6 36L6 31ZM2 32L2 35L5 35L5 32Z" fill="#000000"/></g></g></svg>
