<?xml version="1.0" encoding="UTF-8"?>
<svg xmlns="http://www.w3.org/2000/svg" version="1.1" width="300" height="300" viewBox="0 0 300 300"><rect x="0" y="0" width="300" height="300" fill="#ffffff"/><g transform="scale(8.108)"><g transform="translate(0,0)"><path fill-rule="evenodd" d="M11 0L11 1L8 1L8 3L10 3L10 4L12 4L12 5L10 5L10 7L11 7L11 6L12 6L12 8L9 8L9 10L10 10L10 12L11 12L11 11L14 11L14 12L15 12L15 13L12 13L12 14L11 14L11 15L10 15L10 13L9 13L9 12L6 12L6 11L8 11L8 10L6 10L6 9L7 9L7 8L5 8L5 9L4 9L4 8L1 8L1 13L0 13L0 15L1 15L1 16L2 16L2 17L3 17L3 18L1 18L1 17L0 17L0 20L2 20L2 22L3 22L3 23L2 23L2 26L1 26L1 27L0 27L0 28L1 28L1 27L3 27L3 28L2 28L2 29L3 29L3 28L4 28L4 29L5 29L5 28L4 28L4 27L3 27L3 26L4 26L4 25L3 25L3 23L4 23L4 22L5 22L5 23L7 23L7 22L5 22L5 20L6 20L6 21L7 21L7 20L8 20L8 22L10 22L10 23L8 23L8 25L7 25L7 24L5 24L5 25L7 25L7 26L5 26L5 27L7 27L7 28L6 28L6 29L8 29L8 30L9 30L9 27L10 27L10 29L11 29L11 30L10 30L10 31L11 31L11 33L10 33L10 32L9 32L9 31L8 31L8 32L9 32L9 33L8 33L8 36L9 36L9 33L10 33L10 36L11 36L11 37L12 37L12 36L13 36L13 35L14 35L14 34L13 34L13 33L16 33L16 34L15 34L15 35L16 35L16 36L14 36L14 37L16 37L16 36L18 36L18 37L19 37L19 36L20 36L20 37L22 37L22 36L20 36L20 35L19 35L19 36L18 36L18 35L17 35L17 33L18 33L18 34L19 34L19 33L21 33L21 34L22 34L22 33L21 33L21 32L22 32L22 31L23 31L23 32L24 32L24 31L23 31L23 30L24 30L24 29L26 29L26 28L27 28L27 30L26 30L26 31L27 31L27 30L28 30L28 33L27 33L27 32L26 32L26 33L25 33L25 35L23 35L23 37L25 37L25 35L26 35L26 33L27 33L27 34L29 34L29 33L30 33L30 36L29 36L29 37L31 37L31 35L33 35L33 37L37 37L37 36L35 36L35 35L36 35L36 34L34 34L34 35L33 35L33 33L34 33L34 32L33 32L33 31L35 31L35 30L36 30L36 31L37 31L37 29L34 29L34 30L33 30L33 28L30 28L30 27L29 27L29 25L28 25L28 24L30 24L30 25L32 25L32 26L35 26L35 25L36 25L36 26L37 26L37 25L36 25L36 24L37 24L37 21L36 21L36 19L37 19L37 17L35 17L35 16L34 16L34 15L35 15L35 14L33 14L33 11L34 11L34 12L35 12L35 11L36 11L36 8L34 8L34 9L30 9L30 10L28 10L28 9L27 9L27 5L28 5L28 4L29 4L29 3L28 3L28 2L27 2L27 3L26 3L26 4L25 4L25 2L26 2L26 0L25 0L25 2L23 2L23 4L22 4L22 7L23 7L23 6L24 6L24 8L23 8L23 12L24 12L24 14L25 14L25 13L26 13L26 15L27 15L27 13L28 13L28 12L29 12L29 14L28 14L28 15L29 15L29 16L28 16L28 17L27 17L27 16L25 16L25 15L24 15L24 16L23 16L23 13L22 13L22 12L21 12L21 11L20 11L20 10L22 10L22 8L21 8L21 6L20 6L20 4L21 4L21 2L19 2L19 0L18 0L18 2L17 2L17 0L15 0L15 1L16 1L16 2L15 2L15 3L14 3L14 1L12 1L12 0ZM21 0L21 1L22 1L22 0ZM28 0L28 1L29 1L29 0ZM10 2L10 3L11 3L11 2ZM12 2L12 4L14 4L14 3L13 3L13 2ZM16 3L16 6L15 6L15 5L14 5L14 6L13 6L13 7L14 7L14 6L15 6L15 7L16 7L16 6L17 6L17 7L18 7L18 6L19 6L19 7L20 7L20 6L19 6L19 5L18 5L18 4L19 4L19 3ZM24 5L24 6L25 6L25 7L26 7L26 5ZM8 6L8 7L9 7L9 6ZM28 6L28 7L29 7L29 6ZM12 8L12 9L13 9L13 8ZM15 8L15 9L18 9L18 10L19 10L19 9L21 9L21 8L19 8L19 9L18 9L18 8ZM25 9L25 10L24 10L24 12L25 12L25 11L26 11L26 13L27 13L27 12L28 12L28 10L27 10L27 9ZM34 9L34 11L35 11L35 9ZM2 10L2 11L3 11L3 13L2 13L2 14L1 14L1 15L2 15L2 16L3 16L3 15L4 15L4 17L6 17L6 18L5 18L5 19L2 19L2 20L3 20L3 21L4 21L4 20L5 20L5 19L6 19L6 20L7 20L7 19L6 19L6 18L7 18L7 17L10 17L10 18L9 18L9 19L8 19L8 20L9 20L9 21L10 21L10 20L9 20L9 19L11 19L11 24L12 24L12 25L11 25L11 26L14 26L14 25L15 25L15 27L13 27L13 28L14 28L14 29L15 29L15 30L14 30L14 31L13 31L13 29L12 29L12 27L11 27L11 29L12 29L12 32L15 32L15 31L16 31L16 33L17 33L17 32L18 32L18 31L22 31L22 30L20 30L20 29L22 29L22 28L24 28L24 26L25 26L25 25L26 25L26 26L28 26L28 25L27 25L27 24L28 24L28 23L29 23L29 22L28 22L28 20L27 20L27 17L26 17L26 18L25 18L25 17L23 17L23 16L21 16L21 15L22 15L22 13L21 13L21 12L20 12L20 11L19 11L19 13L16 13L16 14L12 14L12 15L11 15L11 16L7 16L7 15L6 15L6 14L7 14L7 13L5 13L5 12L4 12L4 10ZM14 10L14 11L17 11L17 12L18 12L18 11L17 11L17 10ZM26 10L26 11L27 11L27 10ZM30 10L30 11L31 11L31 12L32 12L32 11L33 11L33 10ZM36 12L36 14L37 14L37 12ZM8 13L8 14L9 14L9 13ZM31 13L31 15L32 15L32 16L30 16L30 17L32 17L32 18L33 18L33 20L34 20L34 22L33 22L33 21L32 21L32 22L31 22L31 20L32 20L32 19L31 19L31 18L29 18L29 19L30 19L30 20L29 20L29 21L30 21L30 24L31 24L31 23L32 23L32 22L33 22L33 23L35 23L35 24L36 24L36 21L35 21L35 19L36 19L36 18L35 18L35 19L34 19L34 18L33 18L33 14L32 14L32 13ZM2 14L2 15L3 15L3 14ZM18 14L18 15L21 15L21 14ZM15 15L15 17L13 17L13 18L14 18L14 19L13 19L13 21L12 21L12 23L13 23L13 25L14 25L14 23L15 23L15 24L16 24L16 23L17 23L17 22L18 22L18 20L20 20L20 19L21 19L21 17L20 17L20 16L19 16L19 19L18 19L18 18L17 18L17 17L18 17L18 16L17 16L17 17L16 17L16 15ZM36 15L36 16L37 16L37 15ZM6 16L6 17L7 17L7 16ZM15 17L15 19L16 19L16 17ZM17 19L17 20L18 20L18 19ZM23 19L23 20L21 20L21 21L20 21L20 22L19 22L19 24L18 24L18 26L17 26L17 25L16 25L16 26L17 26L17 28L16 28L16 27L15 27L15 29L16 29L16 31L17 31L17 30L18 30L18 29L19 29L19 28L18 28L18 27L20 27L20 26L21 26L21 27L22 27L22 26L23 26L23 25L21 25L21 24L20 24L20 23L22 23L22 24L23 24L23 23L25 23L25 24L27 24L27 21L26 21L26 20L24 20L24 19ZM23 20L23 21L22 21L22 23L23 23L23 22L24 22L24 20ZM0 21L0 22L1 22L1 21ZM14 21L14 22L13 22L13 23L14 23L14 22L15 22L15 23L16 23L16 22L15 22L15 21ZM25 21L25 23L26 23L26 21ZM0 24L0 25L1 25L1 24ZM9 24L9 25L8 25L8 26L7 26L7 27L9 27L9 26L10 26L10 24ZM19 24L19 26L20 26L20 24ZM32 24L32 25L33 25L33 24ZM25 27L25 28L26 28L26 27ZM27 27L27 28L28 28L28 27ZM34 27L34 28L35 28L35 27ZM36 27L36 28L37 28L37 27ZM29 29L29 32L32 32L32 29ZM30 30L30 31L31 31L31 30ZM35 32L35 33L37 33L37 32ZM31 33L31 34L32 34L32 33ZM12 34L12 35L13 35L13 34ZM27 35L27 36L26 36L26 37L28 37L28 35ZM0 0L0 7L7 7L7 0ZM1 1L1 6L6 6L6 1ZM2 2L2 5L5 5L5 2ZM30 0L30 7L37 7L37 0ZM31 1L31 6L36 6L36 1ZM32 2L32 5L35 5L35 2ZM0 30L0 37L7 37L7 30ZM1 31L1 36L6 36L6 31ZM2 32L2 35L5 35L5 32Z" fill="#000000"/></g></g></svg>
