<?xml version="1.0" encoding="UTF-8"?>
<svg xmlns="http://www.w3.org/2000/svg" version="1.1" width="300" height="300" viewBox="0 0 300 300"><rect x="0" y="0" width="300" height="300" fill="#ffffff"/><g transform="scale(8.108)"><g transform="translate(0,0)"><path fill-rule="evenodd" d="M8 0L8 1L9 1L9 4L8 4L8 7L9 7L9 9L8 9L8 8L1 8L1 9L0 9L0 11L2 11L2 13L0 13L0 14L2 14L2 15L3 15L3 16L0 16L0 18L1 18L1 17L3 17L3 16L4 16L4 15L5 15L5 14L6 14L6 15L7 15L7 14L6 14L6 13L7 13L7 12L4 12L4 10L5 10L5 11L9 11L9 12L8 12L8 13L9 13L9 12L10 12L10 11L9 11L9 10L10 10L10 9L11 9L11 11L13 11L13 13L12 13L12 12L11 12L11 14L10 14L10 15L9 15L9 14L8 14L8 15L9 15L9 16L8 16L8 18L6 18L6 17L7 17L7 16L5 16L5 18L6 18L6 19L7 19L7 20L5 20L5 19L4 19L4 18L2 18L2 19L0 19L0 20L1 20L1 21L0 21L0 29L1 29L1 24L2 24L2 25L3 25L3 24L2 24L2 23L1 23L1 22L3 22L3 19L4 19L4 22L5 22L5 23L4 23L4 24L5 24L5 25L4 25L4 26L2 26L2 27L3 27L3 29L8 29L8 36L9 36L9 35L11 35L11 37L14 37L14 36L15 36L15 32L14 32L14 29L13 29L13 28L12 28L12 27L13 27L13 26L14 26L14 28L16 28L16 31L17 31L17 33L16 33L16 36L17 36L17 37L19 37L19 36L17 36L17 33L18 33L18 35L19 35L19 33L18 33L18 31L17 31L17 30L18 30L18 29L19 29L19 28L20 28L20 31L19 31L19 32L20 32L20 33L21 33L21 34L20 34L20 35L21 35L21 36L20 36L20 37L22 37L22 36L23 36L23 37L25 37L25 36L26 36L26 37L27 37L27 36L29 36L29 37L32 37L32 36L29 36L29 35L30 35L30 34L33 34L33 35L35 35L35 34L34 34L34 33L36 33L36 32L37 32L37 30L36 30L36 29L37 29L37 28L36 28L36 27L37 27L37 26L35 26L35 25L36 25L36 24L34 24L34 23L36 23L36 22L37 22L37 18L36 18L36 17L37 17L37 14L36 14L36 13L37 13L37 10L35 10L35 12L36 12L36 13L35 13L35 14L34 14L34 13L33 13L33 12L34 12L34 11L33 11L33 10L34 10L34 9L33 9L33 8L31 8L31 9L30 9L30 11L29 11L29 10L28 10L28 9L29 9L29 5L26 5L26 4L29 4L29 1L27 1L27 0L25 0L25 1L23 1L23 3L22 3L22 2L21 2L21 1L22 1L22 0L21 0L21 1L20 1L20 3L19 3L19 2L18 2L18 1L19 1L19 0L17 0L17 2L18 2L18 3L17 3L17 4L16 4L16 3L15 3L15 4L14 4L14 2L10 2L10 0ZM11 0L11 1L12 1L12 0ZM14 0L14 1L16 1L16 0ZM24 2L24 3L25 3L25 4L22 4L22 3L21 3L21 4L20 4L20 5L19 5L19 4L17 4L17 5L16 5L16 4L15 4L15 5L13 5L13 7L14 7L14 8L12 8L12 10L14 10L14 12L17 12L17 13L18 13L18 14L17 14L17 17L18 17L18 16L19 16L19 14L20 14L20 16L21 16L21 14L20 14L20 13L18 13L18 10L16 10L16 11L15 11L15 10L14 10L14 8L15 8L15 9L16 9L16 8L17 8L17 9L20 9L20 10L19 10L19 11L20 11L20 12L21 12L21 9L23 9L23 8L21 8L21 7L22 7L22 6L21 6L21 7L20 7L20 5L21 5L21 4L22 4L22 5L25 5L25 4L26 4L26 3L27 3L27 2L26 2L26 3L25 3L25 2ZM10 4L10 6L9 6L9 7L10 7L10 8L11 8L11 7L12 7L12 4ZM15 5L15 6L14 6L14 7L15 7L15 6L16 6L16 7L17 7L17 8L18 8L18 7L19 7L19 8L20 8L20 9L21 9L21 8L20 8L20 7L19 7L19 5L18 5L18 7L17 7L17 6L16 6L16 5ZM10 6L10 7L11 7L11 6ZM23 6L23 7L24 7L24 9L25 9L25 12L24 12L24 10L22 10L22 11L23 11L23 12L22 12L22 13L23 13L23 12L24 12L24 13L25 13L25 16L22 16L22 17L23 17L23 20L21 20L21 21L22 21L22 22L20 22L20 21L19 21L19 18L20 18L20 17L19 17L19 18L18 18L18 19L17 19L17 20L16 20L16 18L15 18L15 19L14 19L14 17L13 17L13 18L12 18L12 16L16 16L16 13L13 13L13 14L12 14L12 16L10 16L10 17L9 17L9 19L10 19L10 20L11 20L11 23L9 23L9 20L8 20L8 21L6 21L6 22L8 22L8 24L7 24L7 23L5 23L5 24L7 24L7 25L6 25L6 26L4 26L4 27L6 27L6 28L8 28L8 29L10 29L10 28L11 28L11 27L12 27L12 26L13 26L13 24L14 24L14 26L15 26L15 25L17 25L17 24L18 24L18 25L20 25L20 26L21 26L21 28L23 28L23 29L21 29L21 31L20 31L20 32L23 32L23 33L22 33L22 35L23 35L23 34L25 34L25 33L24 33L24 32L23 32L23 31L24 31L24 30L23 30L23 29L25 29L25 28L26 28L26 29L28 29L28 27L29 27L29 28L30 28L30 27L29 27L29 26L27 26L27 28L26 28L26 26L23 26L23 27L22 27L22 25L30 25L30 24L29 24L29 23L30 23L30 22L31 22L31 24L32 24L32 25L31 25L31 26L32 26L32 27L31 27L31 28L34 28L34 29L33 29L33 31L34 31L34 32L33 32L33 33L34 33L34 32L35 32L35 31L36 31L36 30L35 30L35 28L34 28L34 27L33 27L33 26L34 26L34 24L33 24L33 23L34 23L34 22L36 22L36 21L34 21L34 20L36 20L36 18L35 18L35 17L34 17L34 16L36 16L36 14L35 14L35 15L34 15L34 16L33 16L33 13L32 13L32 12L31 12L31 13L29 13L29 11L28 11L28 15L27 15L27 16L26 16L26 14L27 14L27 9L26 9L26 8L27 8L27 7L28 7L28 6L27 6L27 7L26 7L26 6L25 6L25 7L24 7L24 6ZM25 7L25 8L26 8L26 7ZM36 8L36 9L37 9L37 8ZM5 9L5 10L7 10L7 9ZM31 10L31 11L32 11L32 10ZM3 12L3 13L4 13L4 14L3 14L3 15L4 15L4 14L5 14L5 13L4 13L4 12ZM25 12L25 13L26 13L26 12ZM31 13L31 14L32 14L32 13ZM14 14L14 15L15 15L15 14ZM22 14L22 15L24 15L24 14ZM29 14L29 15L28 15L28 16L27 16L27 17L29 17L29 18L27 18L27 19L26 19L26 20L27 20L27 21L26 21L26 22L27 22L27 23L26 23L26 24L28 24L28 22L29 22L29 21L33 21L33 22L34 22L34 21L33 21L33 20L34 20L34 19L35 19L35 18L34 18L34 17L33 17L33 16L32 16L32 17L33 17L33 18L34 18L34 19L33 19L33 20L32 20L32 19L31 19L31 18L30 18L30 17L31 17L31 15L30 15L30 14ZM25 16L25 17L24 17L24 18L25 18L25 17L26 17L26 16ZM29 16L29 17L30 17L30 16ZM10 17L10 18L11 18L11 17ZM29 18L29 19L28 19L28 21L27 21L27 22L28 22L28 21L29 21L29 19L30 19L30 20L31 20L31 19L30 19L30 18ZM11 19L11 20L13 20L13 21L12 21L12 24L9 24L9 25L7 25L7 26L6 26L6 27L7 27L7 26L10 26L10 25L12 25L12 24L13 24L13 22L14 22L14 19ZM24 19L24 20L25 20L25 19ZM18 21L18 22L19 22L19 23L18 23L18 24L19 24L19 23L20 23L20 22L19 22L19 21ZM24 21L24 22L25 22L25 21ZM22 22L22 23L21 23L21 24L20 24L20 25L21 25L21 24L23 24L23 22ZM15 23L15 24L16 24L16 23ZM24 23L24 24L25 24L25 23ZM17 26L17 27L16 27L16 28L19 28L19 27L18 27L18 26ZM29 29L29 32L32 32L32 29ZM9 30L9 31L10 31L10 32L9 32L9 33L10 33L10 32L11 32L11 33L13 33L13 34L14 34L14 33L13 33L13 32L12 32L12 31L13 31L13 30L12 30L12 31L10 31L10 30ZM22 30L22 31L23 31L23 30ZM25 30L25 32L26 32L26 30ZM27 30L27 32L28 32L28 30ZM30 30L30 31L31 31L31 30ZM26 33L26 34L27 34L27 35L26 35L26 36L27 36L27 35L29 35L29 34L30 34L30 33L29 33L29 34L27 34L27 33ZM11 34L11 35L12 35L12 36L13 36L13 35L12 35L12 34ZM36 34L36 36L33 36L33 37L37 37L37 34ZM24 35L24 36L25 36L25 35ZM0 0L0 7L7 7L7 0ZM1 1L1 6L6 6L6 1ZM2 2L2 5L5 5L5 2ZM30 0L30 7L37 7L37 0ZM31 1L31 6L36 6L36 1ZM32 2L32 5L35 5L35 2ZM0 30L0 37L7 37L7 30ZM1 31L1 36L6 36L6 31ZM2 32L2 35L5 35L5 32Z" fill="#000000"/></g></g></svg>
