<?xml version="1.0" encoding="UTF-8"?>
<svg xmlns="http://www.w3.org/2000/svg" version="1.1" width="300" height="300" viewBox="0 0 300 300"><rect x="0" y="0" width="300" height="300" fill="#ffffff"/><g transform="scale(6.122)"><g transform="translate(0,0)"><path fill-rule="evenodd" d="M8 0L8 1L9 1L9 2L12 2L12 3L9 3L9 4L8 4L8 7L9 7L9 5L10 5L10 8L9 8L9 9L10 9L10 8L11 8L11 6L12 6L12 7L13 7L13 8L14 8L14 7L15 7L15 9L17 9L17 10L15 10L15 11L17 11L17 10L18 10L18 9L17 9L17 6L18 6L18 8L19 8L19 6L18 6L18 5L17 5L17 4L18 4L18 3L19 3L19 4L21 4L21 5L20 5L20 8L22 8L22 9L23 9L23 10L22 10L22 11L21 11L21 10L20 10L20 9L19 9L19 11L18 11L18 14L17 14L17 12L14 12L14 9L13 9L13 13L16 13L16 14L15 14L15 18L13 18L13 17L14 17L14 16L13 16L13 17L12 17L12 12L10 12L10 10L9 10L9 12L8 12L8 8L1 8L1 9L5 9L5 10L4 10L4 11L3 11L3 10L0 10L0 11L1 11L1 12L0 12L0 14L2 14L2 13L3 13L3 17L4 17L4 11L5 11L5 10L6 10L6 11L7 11L7 12L6 12L6 13L5 13L5 14L6 14L6 15L7 15L7 16L6 16L6 17L7 17L7 18L6 18L6 19L5 19L5 18L4 18L4 19L3 19L3 18L1 18L1 15L0 15L0 18L1 18L1 19L0 19L0 20L1 20L1 21L0 21L0 26L1 26L1 27L0 27L0 29L1 29L1 27L2 27L2 29L3 29L3 28L4 28L4 30L5 30L5 29L7 29L7 30L6 30L6 31L5 31L5 32L3 32L3 33L1 33L1 35L0 35L0 38L1 38L1 40L0 40L0 41L3 41L3 40L4 40L4 39L2 39L2 37L1 37L1 36L2 36L2 35L3 35L3 33L4 33L4 35L5 35L5 36L3 36L3 37L4 37L4 38L5 38L5 39L7 39L7 38L6 38L6 37L7 37L7 36L8 36L8 39L9 39L9 35L10 35L10 38L11 38L11 39L10 39L10 40L9 40L9 41L8 41L8 40L6 40L6 41L8 41L8 48L9 48L9 49L10 49L10 48L11 48L11 49L12 49L12 48L13 48L13 46L14 46L14 48L15 48L15 49L18 49L18 46L21 46L21 47L20 47L20 49L21 49L21 48L22 48L22 46L23 46L23 45L27 45L27 44L29 44L29 45L28 45L28 46L27 46L27 49L28 49L28 48L29 48L29 49L30 49L30 47L28 47L28 46L31 46L31 47L32 47L32 48L31 48L31 49L32 49L32 48L33 48L33 49L34 49L34 47L37 47L37 48L35 48L35 49L38 49L38 48L40 48L40 49L41 49L41 47L42 47L42 48L43 48L43 47L44 47L44 48L45 48L45 49L49 49L49 45L48 45L48 44L46 44L46 46L45 46L45 43L46 43L46 42L45 42L45 40L46 40L46 41L48 41L48 40L46 40L46 39L49 39L49 38L45 38L45 39L44 39L44 37L47 37L47 36L48 36L48 37L49 37L49 34L47 34L47 36L44 36L44 37L42 37L42 36L41 36L41 35L40 35L40 36L38 36L38 35L39 35L39 34L42 34L42 35L44 35L44 34L42 34L42 33L41 33L41 32L42 32L42 31L44 31L44 29L45 29L45 28L44 28L44 27L45 27L45 25L47 25L47 26L46 26L46 27L47 27L47 28L46 28L46 31L47 31L47 32L43 32L43 33L47 33L47 32L48 32L48 33L49 33L49 30L48 30L48 31L47 31L47 28L48 28L48 29L49 29L49 28L48 28L48 27L49 27L49 26L48 26L48 24L45 24L45 23L46 23L46 22L47 22L47 23L49 23L49 22L47 22L47 20L48 20L48 21L49 21L49 18L47 18L47 17L48 17L48 16L45 16L45 14L46 14L46 13L48 13L48 12L46 12L46 11L44 11L44 10L43 10L43 9L45 9L45 8L43 8L43 9L42 9L42 10L41 10L41 11L42 11L42 12L39 12L39 14L38 14L38 12L36 12L36 14L38 14L38 15L37 15L37 16L35 16L35 14L34 14L34 13L33 13L33 14L34 14L34 16L33 16L33 15L32 15L32 16L31 16L31 18L30 18L30 17L29 17L29 16L30 16L30 15L28 15L28 17L27 17L27 18L25 18L25 17L26 17L26 13L27 13L27 14L32 14L32 13L29 13L29 12L33 12L33 11L30 11L30 10L32 10L32 9L31 9L31 8L32 8L32 7L33 7L33 8L34 8L34 7L35 7L35 8L36 8L36 9L35 9L35 10L34 10L34 9L33 9L33 10L34 10L34 12L35 12L35 10L36 10L36 11L39 11L39 10L37 10L37 9L38 9L38 7L39 7L39 5L38 5L38 3L35 3L35 2L37 2L37 1L38 1L38 2L39 2L39 4L40 4L40 3L41 3L41 0L40 0L40 1L38 1L38 0L35 0L35 1L31 1L31 0L29 0L29 1L28 1L28 0L27 0L27 2L28 2L28 3L25 3L25 4L23 4L23 3L24 3L24 2L23 2L23 1L24 1L24 0L21 0L21 1L20 1L20 2L19 2L19 0L16 0L16 1L15 1L15 0ZM25 0L25 1L26 1L26 0ZM12 1L12 2L13 2L13 3L12 3L12 4L13 4L13 5L12 5L12 6L13 6L13 7L14 7L14 5L15 5L15 1L14 1L14 2L13 2L13 1ZM16 1L16 3L17 3L17 2L18 2L18 1ZM21 1L21 3L22 3L22 1ZM29 1L29 2L30 2L30 4L32 4L32 5L30 5L30 6L29 6L29 7L30 7L30 6L31 6L31 7L32 7L32 6L33 6L33 7L34 7L34 6L33 6L33 5L35 5L35 7L36 7L36 6L37 6L37 7L38 7L38 6L37 6L37 4L33 4L33 3L34 3L34 2L33 2L33 3L32 3L32 2L31 2L31 1ZM28 3L28 4L27 4L27 8L28 8L28 5L29 5L29 3ZM10 4L10 5L11 5L11 4ZM16 5L16 6L15 6L15 7L16 7L16 6L17 6L17 5ZM21 5L21 7L22 7L22 5ZM23 5L23 8L26 8L26 5ZM24 6L24 7L25 7L25 6ZM40 6L40 7L41 7L41 6ZM29 8L29 9L26 9L26 10L27 10L27 11L26 11L26 12L23 12L23 13L24 13L24 14L23 14L23 15L22 15L22 14L21 14L21 13L19 13L19 15L17 15L17 16L18 16L18 17L17 17L17 18L16 18L16 21L17 21L17 22L18 22L18 23L17 23L17 24L16 24L16 23L15 23L15 22L14 22L14 21L15 21L15 19L13 19L13 18L12 18L12 17L11 17L11 16L10 16L10 14L11 14L11 13L6 13L6 14L9 14L9 15L8 15L8 16L7 16L7 17L8 17L8 18L10 18L10 19L9 19L9 20L10 20L10 21L8 21L8 20L7 20L7 19L6 19L6 20L5 20L5 19L4 19L4 21L3 21L3 19L1 19L1 20L2 20L2 21L1 21L1 23L2 23L2 24L1 24L1 26L2 26L2 24L3 24L3 25L4 25L4 24L3 24L3 22L5 22L5 21L6 21L6 22L10 22L10 23L12 23L12 24L13 24L13 25L9 25L9 26L11 26L11 27L9 27L9 28L7 28L7 27L4 27L4 26L3 26L3 27L4 27L4 28L7 28L7 29L9 29L9 28L10 28L10 29L11 29L11 30L7 30L7 31L6 31L6 32L8 32L8 33L6 33L6 34L5 34L5 35L6 35L6 36L5 36L5 37L6 37L6 36L7 36L7 35L6 35L6 34L8 34L8 33L9 33L9 34L10 34L10 33L13 33L13 32L11 32L11 31L12 31L12 29L13 29L13 28L14 28L14 30L15 30L15 31L14 31L14 34L15 34L15 35L16 35L16 36L14 36L14 35L13 35L13 36L12 36L12 34L11 34L11 36L12 36L12 37L11 37L11 38L12 38L12 37L13 37L13 39L12 39L12 40L11 40L11 41L10 41L10 42L9 42L9 44L10 44L10 42L11 42L11 45L10 45L10 47L11 47L11 46L12 46L12 45L13 45L13 44L14 44L14 45L15 45L15 46L16 46L16 47L17 47L17 45L18 45L18 44L17 44L17 43L18 43L18 42L19 42L19 43L21 43L21 44L19 44L19 45L22 45L22 42L21 42L21 41L20 41L20 42L19 42L19 40L24 40L24 39L27 39L27 40L28 40L28 41L29 41L29 42L27 42L27 43L29 43L29 42L30 42L30 41L29 41L29 40L30 40L30 39L31 39L31 41L34 41L34 42L31 42L31 43L33 43L33 44L32 44L32 47L33 47L33 46L35 46L35 44L37 44L37 43L36 43L36 42L38 42L38 43L40 43L40 41L39 41L39 40L41 40L41 39L42 39L42 40L44 40L44 39L42 39L42 38L41 38L41 39L38 39L38 38L39 38L39 37L38 37L38 36L37 36L37 35L38 35L38 34L39 34L39 33L38 33L38 32L40 32L40 31L41 31L41 30L42 30L42 29L40 29L40 30L39 30L39 29L38 29L38 28L40 28L40 27L38 27L38 26L40 26L40 24L39 24L39 23L40 23L40 22L41 22L41 21L42 21L42 17L43 17L43 16L42 16L42 15L43 15L43 14L41 14L41 13L40 13L40 14L41 14L41 16L39 16L39 17L40 17L40 18L37 18L37 17L38 17L38 16L37 16L37 17L36 17L36 18L37 18L37 19L35 19L35 18L34 18L34 17L33 17L33 16L32 16L32 18L34 18L34 20L32 20L32 19L30 19L30 18L29 18L29 17L28 17L28 20L27 20L27 21L29 21L29 19L30 19L30 20L31 20L31 22L30 22L30 23L31 23L31 24L32 24L32 25L33 25L33 28L32 28L32 27L31 27L31 26L29 26L29 25L30 25L30 24L29 24L29 22L28 22L28 23L27 23L27 24L28 24L28 25L27 25L27 26L28 26L28 27L26 27L26 29L25 29L25 30L23 30L23 29L22 29L22 28L21 28L21 27L22 27L22 24L21 24L21 27L20 27L20 28L19 28L19 26L20 26L20 25L19 25L19 22L20 22L20 21L21 21L21 23L22 23L22 21L23 21L23 22L26 22L26 21L23 21L23 20L24 20L24 19L25 19L25 20L26 20L26 19L25 19L25 18L23 18L23 17L25 17L25 13L26 13L26 12L29 12L29 10L30 10L30 8ZM39 8L39 9L41 9L41 8ZM48 8L48 9L46 9L46 10L48 10L48 11L49 11L49 10L48 10L48 9L49 9L49 8ZM6 9L6 10L7 10L7 9ZM24 9L24 10L25 10L25 9ZM11 10L11 11L12 11L12 10ZM42 10L42 11L43 11L43 12L42 12L42 13L43 13L43 12L44 12L44 13L46 13L46 12L44 12L44 11L43 11L43 10ZM19 11L19 12L21 12L21 11ZM1 12L1 13L2 13L2 12ZM47 14L47 15L49 15L49 14ZM19 15L19 17L20 17L20 18L19 18L19 19L18 19L18 18L17 18L17 20L20 20L20 18L21 18L21 19L22 19L22 20L23 20L23 19L22 19L22 18L21 18L21 15ZM23 15L23 16L22 16L22 17L23 17L23 16L24 16L24 15ZM41 16L41 17L42 17L42 16ZM44 16L44 17L45 17L45 16ZM10 17L10 18L11 18L11 19L10 19L10 20L13 20L13 19L12 19L12 18L11 18L11 17ZM46 18L46 19L45 19L45 20L44 20L44 21L43 21L43 22L46 22L46 20L47 20L47 18ZM37 19L37 20L36 20L36 21L35 21L35 22L33 22L33 21L32 21L32 22L31 22L31 23L32 23L32 24L33 24L33 23L34 23L34 25L36 25L36 26L34 26L34 27L35 27L35 30L33 30L33 32L31 32L31 31L32 31L32 28L31 28L31 27L30 27L30 28L29 28L29 27L28 27L28 28L27 28L27 29L26 29L26 30L25 30L25 32L22 32L22 31L23 31L23 30L22 30L22 29L21 29L21 30L20 30L20 29L19 29L19 28L18 28L18 27L16 27L16 24L15 24L15 23L14 23L14 25L13 25L13 26L12 26L12 27L11 27L11 28L12 28L12 27L13 27L13 26L14 26L14 27L16 27L16 29L17 29L17 32L16 32L16 35L18 35L18 36L17 36L17 37L16 37L16 40L17 40L17 41L14 41L14 40L13 40L13 41L14 41L14 42L12 42L12 41L11 41L11 42L12 42L12 44L13 44L13 43L14 43L14 42L16 42L16 43L15 43L15 44L16 44L16 43L17 43L17 41L18 41L18 40L19 40L19 38L20 38L20 39L21 39L21 38L20 38L20 35L22 35L22 34L21 34L21 33L25 33L25 34L28 34L28 36L27 36L27 35L23 35L23 36L22 36L22 39L24 39L24 37L23 37L23 36L27 36L27 37L28 37L28 38L27 38L27 39L28 39L28 40L29 40L29 39L28 39L28 38L31 38L31 39L32 39L32 40L34 40L34 39L35 39L35 40L36 40L36 41L35 41L35 42L36 42L36 41L38 41L38 40L36 40L36 39L37 39L37 38L38 38L38 37L37 37L37 36L36 36L36 34L34 34L34 33L36 33L36 32L37 32L37 30L38 30L38 31L39 31L39 30L38 30L38 29L37 29L37 28L36 28L36 26L37 26L37 24L38 24L38 23L39 23L39 22L38 22L38 23L37 23L37 21L41 21L41 20L40 20L40 19ZM6 20L6 21L7 21L7 20ZM18 21L18 22L19 22L19 21ZM32 22L32 23L33 23L33 22ZM5 23L5 26L8 26L8 23ZM23 23L23 26L26 26L26 23ZM35 23L35 24L37 24L37 23ZM41 23L41 26L44 26L44 23ZM6 24L6 25L7 25L7 24ZM24 24L24 25L25 25L25 24ZM42 24L42 25L43 25L43 24ZM14 25L14 26L15 26L15 25ZM17 25L17 26L18 26L18 25ZM47 26L47 27L48 27L48 26ZM23 27L23 28L24 28L24 27ZM42 27L42 28L43 28L43 29L44 29L44 28L43 28L43 27ZM28 28L28 29L29 29L29 28ZM30 28L30 29L31 29L31 28ZM33 28L33 29L34 29L34 28ZM18 29L18 31L19 31L19 34L18 34L18 35L20 35L20 32L21 32L21 31L19 31L19 29ZM27 30L27 31L28 31L28 32L25 32L25 33L28 33L28 32L30 32L30 31L31 31L31 30ZM35 30L35 31L34 31L34 32L36 32L36 30ZM0 31L0 32L1 32L1 31ZM9 31L9 32L10 32L10 31ZM29 33L29 34L30 34L30 35L29 35L29 36L28 36L28 37L29 37L29 36L30 36L30 35L31 35L31 36L32 36L32 37L31 37L31 38L32 38L32 39L33 39L33 38L35 38L35 39L36 39L36 38L37 38L37 37L36 37L36 36L35 36L35 35L34 35L34 34L33 34L33 36L32 36L32 35L31 35L31 34L32 34L32 33L31 33L31 34L30 34L30 33ZM37 33L37 34L38 34L38 33ZM45 34L45 35L46 35L46 34ZM40 36L40 37L41 37L41 36ZM18 37L18 38L17 38L17 39L18 39L18 38L19 38L19 37ZM25 37L25 38L26 38L26 37ZM14 38L14 39L15 39L15 38ZM23 41L23 44L26 44L26 41ZM41 41L41 44L44 44L44 41ZM24 42L24 43L25 43L25 42ZM42 42L42 43L43 43L43 42ZM47 42L47 43L49 43L49 42ZM34 43L34 44L33 44L33 45L34 45L34 44L35 44L35 43ZM38 45L38 46L37 46L37 47L38 47L38 46L39 46L39 47L40 47L40 46L42 46L42 45L40 45L40 46L39 46L39 45ZM43 45L43 46L44 46L44 47L45 47L45 48L48 48L48 47L47 47L47 46L46 46L46 47L45 47L45 46L44 46L44 45ZM24 46L24 47L23 47L23 48L24 48L24 49L25 49L25 48L26 48L26 47L25 47L25 46ZM24 47L24 48L25 48L25 47ZM0 0L0 7L7 7L7 0ZM1 1L1 6L6 6L6 1ZM2 2L2 5L5 5L5 2ZM42 0L42 7L49 7L49 0ZM43 1L43 6L48 6L48 1ZM44 2L44 5L47 5L47 2ZM0 42L0 49L7 49L7 42ZM1 43L1 48L6 48L6 43ZM2 44L2 47L5 47L5 44Z" fill="#000000"/></g></g></svg>
