<?xml version="1.0" encoding="UTF-8"?>
<svg xmlns="http://www.w3.org/2000/svg" version="1.1" width="300" height="300" viewBox="0 0 300 300"><rect x="0" y="0" width="300" height="300" fill="#ffffff"/><g transform="scale(8.108)"><g transform="translate(0,0)"><path fill-rule="evenodd" d="M11 0L11 3L10 3L10 1L8 1L8 3L10 3L10 4L9 4L9 6L8 6L8 7L9 7L9 6L10 6L10 8L11 8L11 9L12 9L12 10L11 10L11 12L10 12L10 9L7 9L7 8L5 8L5 10L4 10L4 8L1 8L1 10L0 10L0 11L1 11L1 10L4 10L4 11L7 11L7 10L8 10L8 11L9 11L9 15L8 15L8 16L6 16L6 17L4 17L4 15L3 15L3 16L2 16L2 13L3 13L3 14L4 14L4 13L5 13L5 12L3 12L3 11L2 11L2 13L0 13L0 15L1 15L1 16L0 16L0 19L1 19L1 20L0 20L0 22L1 22L1 20L2 20L2 21L3 21L3 22L4 22L4 23L2 23L2 26L1 26L1 27L0 27L0 28L1 28L1 27L3 27L3 28L2 28L2 29L3 29L3 28L4 28L4 29L7 29L7 28L8 28L8 30L9 30L9 29L10 29L10 31L11 31L11 30L12 30L12 31L13 31L13 30L12 30L12 28L13 28L13 26L15 26L15 25L14 25L14 23L15 23L15 24L17 24L17 23L16 23L16 22L17 22L17 20L16 20L16 22L14 22L14 21L15 21L15 20L14 20L14 21L13 21L13 20L12 20L12 21L13 21L13 22L12 22L12 23L11 23L11 21L10 21L10 20L11 20L11 19L10 19L10 17L8 17L8 16L11 16L11 17L12 17L12 16L11 16L11 15L10 15L10 14L12 14L12 15L14 15L14 16L13 16L13 19L15 19L15 17L16 17L16 19L17 19L17 18L18 18L18 16L16 16L16 15L17 15L17 13L19 13L19 12L18 12L18 11L12 11L12 10L17 10L17 9L18 9L18 7L19 7L19 9L20 9L20 8L21 8L21 10L22 10L22 8L21 8L21 4L20 4L20 3L21 3L21 2L22 2L22 0L21 0L21 2L19 2L19 0L14 0L14 2L16 2L16 1L17 1L17 3L18 3L18 4L20 4L20 5L18 5L18 7L17 7L17 4L16 4L16 3L15 3L15 5L16 5L16 7L15 7L15 6L14 6L14 4L13 4L13 3L12 3L12 2L13 2L13 1L12 1L12 0ZM25 0L25 2L23 2L23 3L22 3L22 4L23 4L23 6L22 6L22 7L23 7L23 6L24 6L24 8L23 8L23 11L24 11L24 14L25 14L25 13L26 13L26 16L25 16L25 15L23 15L23 13L22 13L22 12L21 12L21 11L20 11L20 13L22 13L22 15L21 15L21 14L20 14L20 15L19 15L19 14L18 14L18 15L19 15L19 19L18 19L18 21L19 21L19 20L20 20L20 21L21 21L21 23L22 23L22 21L23 21L23 20L24 20L24 22L23 22L23 23L25 23L25 24L27 24L27 25L28 25L28 26L26 26L26 25L25 25L25 27L26 27L26 28L25 28L25 29L24 29L24 28L22 28L22 29L21 29L21 27L22 27L22 26L23 26L23 25L21 25L21 24L20 24L20 23L19 23L19 22L18 22L18 24L19 24L19 26L18 26L18 27L20 27L20 29L21 29L21 30L20 30L20 31L21 31L21 32L19 32L19 31L18 31L18 32L17 32L17 31L16 31L16 29L17 29L17 30L18 30L18 29L19 29L19 28L16 28L16 27L14 27L14 28L15 28L15 30L14 30L14 32L11 32L11 33L10 33L10 32L9 32L9 31L8 31L8 32L9 32L9 33L8 33L8 36L10 36L10 37L12 37L12 36L13 36L13 37L15 37L15 35L16 35L16 37L17 37L17 36L18 36L18 35L19 35L19 36L20 36L20 37L22 37L22 36L20 36L20 35L19 35L19 33L21 33L21 34L22 34L22 33L21 33L21 32L22 32L22 31L23 31L23 33L24 33L24 31L25 31L25 29L26 29L26 31L27 31L27 32L26 32L26 33L25 33L25 35L23 35L23 37L25 37L25 35L26 35L26 33L27 33L27 32L28 32L28 34L29 34L29 33L30 33L30 35L31 35L31 37L32 37L32 36L33 36L33 37L37 37L37 36L35 36L35 35L36 35L36 34L35 34L35 35L33 35L33 33L34 33L34 32L33 32L33 31L35 31L35 30L36 30L36 31L37 31L37 27L34 27L34 28L35 28L35 29L34 29L34 30L33 30L33 28L29 28L29 27L30 27L30 26L29 26L29 25L28 25L28 23L29 23L29 24L30 24L30 25L32 25L32 26L35 26L35 25L36 25L36 26L37 26L37 25L36 25L36 24L37 24L37 21L36 21L36 19L37 19L37 17L35 17L35 16L34 16L34 15L36 15L36 16L37 16L37 15L36 15L36 14L37 14L37 13L35 13L35 14L34 14L34 15L33 15L33 11L34 11L34 12L35 12L35 11L34 11L34 9L36 9L36 8L34 8L34 9L30 9L30 10L28 10L28 9L27 9L27 8L28 8L28 7L29 7L29 4L28 4L28 3L29 3L29 1L28 1L28 3L26 3L26 4L25 4L25 2L26 2L26 1L27 1L27 0ZM18 2L18 3L19 3L19 2ZM10 4L10 5L11 5L11 8L12 8L12 9L13 9L13 7L14 7L14 6L13 6L13 7L12 7L12 5L11 5L11 4ZM24 5L24 6L25 6L25 7L26 7L26 5ZM27 5L27 7L28 7L28 5ZM19 6L19 7L20 7L20 6ZM15 8L15 9L17 9L17 8ZM24 8L24 10L25 10L25 11L26 11L26 13L27 13L27 15L29 15L29 12L30 12L30 11L31 11L31 12L32 12L32 11L33 11L33 10L30 10L30 11L29 11L29 12L28 12L28 10L27 10L27 9L25 9L25 8ZM6 9L6 10L7 10L7 9ZM6 12L6 13L8 13L8 12ZM11 12L11 13L12 13L12 12ZM13 12L13 14L14 14L14 15L15 15L15 14L16 14L16 13L17 13L17 12L16 12L16 13L15 13L15 12ZM27 12L27 13L28 13L28 12ZM14 13L14 14L15 14L15 13ZM31 13L31 14L32 14L32 13ZM6 14L6 15L7 15L7 14ZM20 15L20 17L21 17L21 18L23 18L23 19L20 19L20 20L23 20L23 19L24 19L24 20L26 20L26 21L25 21L25 23L26 23L26 21L27 21L27 23L28 23L28 20L27 20L27 17L28 17L28 19L29 19L29 20L30 20L30 21L29 21L29 22L30 22L30 24L32 24L32 25L34 25L34 22L35 22L35 24L36 24L36 21L35 21L35 19L36 19L36 18L35 18L35 19L34 19L34 17L33 17L33 15L31 15L31 16L27 16L27 17L26 17L26 18L25 18L25 17L23 17L23 16L21 16L21 15ZM1 16L1 19L2 19L2 20L3 20L3 21L4 21L4 22L8 22L8 20L10 20L10 19L8 19L8 20L7 20L7 19L6 19L6 20L4 20L4 19L5 19L5 18L4 18L4 17L2 17L2 16ZM6 17L6 18L7 18L7 17ZM30 17L30 18L29 18L29 19L30 19L30 20L31 20L31 22L32 22L32 21L33 21L33 22L34 22L34 20L33 20L33 19L32 19L32 17ZM2 18L2 19L4 19L4 18ZM6 20L6 21L7 21L7 20ZM9 22L9 23L8 23L8 24L7 24L7 23L4 23L4 24L3 24L3 25L4 25L4 26L3 26L3 27L4 27L4 28L7 28L7 27L10 27L10 25L9 25L9 23L10 23L10 24L11 24L11 28L10 28L10 29L11 29L11 28L12 28L12 26L13 26L13 25L12 25L12 24L11 24L11 23L10 23L10 22ZM13 22L13 23L14 23L14 22ZM0 24L0 25L1 25L1 24ZM4 24L4 25L7 25L7 26L6 26L6 27L7 27L7 26L8 26L8 25L7 25L7 24ZM16 25L16 26L17 26L17 25ZM20 25L20 26L21 26L21 25ZM4 26L4 27L5 27L5 26ZM27 27L27 28L28 28L28 27ZM27 29L27 31L28 31L28 29ZM29 29L29 32L32 32L32 29ZM21 30L21 31L22 31L22 30ZM23 30L23 31L24 31L24 30ZM30 30L30 31L31 31L31 30ZM35 32L35 33L37 33L37 32ZM9 33L9 35L11 35L11 34L10 34L10 33ZM13 33L13 34L12 34L12 35L13 35L13 36L14 36L14 35L15 35L15 34L16 34L16 35L17 35L17 34L16 34L16 33L15 33L15 34L14 34L14 33ZM13 34L13 35L14 35L14 34ZM31 34L31 35L32 35L32 34ZM26 36L26 37L27 37L27 36ZM0 0L0 7L7 7L7 0ZM1 1L1 6L6 6L6 1ZM2 2L2 5L5 5L5 2ZM30 0L30 7L37 7L37 0ZM31 1L31 6L36 6L36 1ZM32 2L32 5L35 5L35 2ZM0 30L0 37L7 37L7 30ZM1 31L1 36L6 36L6 31ZM2 32L2 35L5 35L5 32Z" fill="#000000"/></g></g></svg>
