<?xml version="1.0" encoding="UTF-8"?>
<svg xmlns="http://www.w3.org/2000/svg" version="1.1" width="300" height="300" viewBox="0 0 300 300"><rect x="0" y="0" width="300" height="300" fill="#ffffff"/><g transform="scale(8.108)"><g transform="translate(0,0)"><path fill-rule="evenodd" d="M8 0L8 1L9 1L9 4L8 4L8 7L9 7L9 9L11 9L11 10L9 10L9 12L10 12L10 11L11 11L11 13L10 13L10 15L9 15L9 14L6 14L6 13L7 13L7 12L8 12L8 11L7 11L7 10L6 10L6 11L5 11L5 9L8 9L8 8L1 8L1 9L0 9L0 10L1 10L1 11L0 11L0 13L1 13L1 15L2 15L2 13L3 13L3 12L4 12L4 11L5 11L5 12L6 12L6 13L5 13L5 14L4 14L4 15L5 15L5 14L6 14L6 15L9 15L9 16L8 16L8 18L6 18L6 17L7 17L7 16L5 16L5 17L3 17L3 16L2 16L2 18L1 18L1 17L0 17L0 18L1 18L1 19L0 19L0 29L1 29L1 24L4 24L4 25L5 25L5 26L2 26L2 27L3 27L3 29L4 29L4 28L6 28L6 29L8 29L8 36L10 36L10 37L13 37L13 36L12 36L12 35L14 35L14 36L16 36L16 37L18 37L18 36L19 36L19 35L17 35L17 36L16 36L16 35L14 35L14 34L15 34L15 33L16 33L16 34L17 34L17 33L18 33L18 34L19 34L19 33L21 33L21 34L20 34L20 35L21 35L21 36L20 36L20 37L22 37L22 36L23 36L23 37L25 37L25 36L26 36L26 37L27 37L27 36L29 36L29 35L28 35L28 34L27 34L27 33L29 33L29 34L33 34L33 36L34 36L34 37L37 37L37 34L36 34L36 36L34 36L34 35L35 35L35 34L34 34L34 33L36 33L36 32L37 32L37 30L36 30L36 29L37 29L37 26L36 26L36 24L34 24L34 23L36 23L36 22L37 22L37 18L35 18L35 17L37 17L37 14L36 14L36 13L35 13L35 14L36 14L36 16L32 16L32 13L33 13L33 12L34 12L34 11L33 11L33 10L34 10L34 9L33 9L33 8L31 8L31 9L30 9L30 10L28 10L28 9L29 9L29 6L28 6L28 5L26 5L26 4L29 4L29 0L28 0L28 1L26 1L26 0L25 0L25 1L23 1L23 3L22 3L22 2L21 2L21 1L22 1L22 0L21 0L21 1L20 1L20 3L19 3L19 4L18 4L18 7L17 7L17 5L16 5L16 2L14 2L14 1L13 1L13 2L10 2L10 1L9 1L9 0ZM11 0L11 1L12 1L12 0ZM15 0L15 1L16 1L16 0ZM17 0L17 1L19 1L19 0ZM13 2L13 3L14 3L14 5L13 5L13 7L12 7L12 6L11 6L11 5L12 5L12 4L11 4L11 3L10 3L10 4L11 4L11 5L10 5L10 6L9 6L9 7L10 7L10 6L11 6L11 7L12 7L12 10L11 10L11 11L12 11L12 12L13 12L13 11L15 11L15 12L17 12L17 13L18 13L18 14L16 14L16 16L14 16L14 17L13 17L13 18L12 18L12 14L13 14L13 15L15 15L15 13L11 13L11 16L10 16L10 17L11 17L11 18L9 18L9 19L13 19L13 18L14 18L14 19L15 19L15 18L16 18L16 16L17 16L17 17L18 17L18 16L19 16L19 18L20 18L20 16L19 16L19 11L18 11L18 10L19 10L19 8L20 8L20 6L21 6L21 7L22 7L22 8L21 8L21 9L20 9L20 11L21 11L21 9L22 9L22 11L23 11L23 12L22 12L22 13L25 13L25 14L22 14L22 15L23 15L23 16L22 16L22 17L23 17L23 18L21 18L21 19L23 19L23 20L20 20L20 22L19 22L19 19L18 19L18 18L17 18L17 20L14 20L14 22L13 22L13 20L10 20L10 22L9 22L9 23L5 23L5 22L8 22L8 21L9 21L9 20L8 20L8 21L5 21L5 20L3 20L3 19L2 19L2 21L1 21L1 23L2 23L2 21L3 21L3 23L4 23L4 24L7 24L7 25L6 25L6 26L7 26L7 25L8 25L8 28L10 28L10 27L11 27L11 28L12 28L12 29L13 29L13 28L15 28L15 29L14 29L14 30L15 30L15 31L13 31L13 30L12 30L12 31L10 31L10 30L9 30L9 31L10 31L10 32L9 32L9 33L10 33L10 32L11 32L11 33L14 33L14 32L17 32L17 31L18 31L18 33L19 33L19 31L20 31L20 32L23 32L23 33L22 33L22 35L23 35L23 34L25 34L25 33L24 33L24 32L23 32L23 31L24 31L24 30L23 30L23 29L25 29L25 28L26 28L26 29L27 29L27 31L28 31L28 27L29 27L29 28L30 28L30 27L29 27L29 26L27 26L27 28L26 28L26 26L25 26L25 28L24 28L24 26L23 26L23 25L27 25L27 24L28 24L28 25L30 25L30 24L29 24L29 23L30 23L30 22L31 22L31 24L32 24L32 25L31 25L31 26L32 26L32 27L31 27L31 28L34 28L34 29L33 29L33 30L35 30L35 31L34 31L34 32L33 32L33 33L34 33L34 32L35 32L35 31L36 31L36 30L35 30L35 28L34 28L34 27L33 27L33 26L34 26L34 24L33 24L33 23L32 23L32 22L36 22L36 21L34 21L34 20L36 20L36 19L35 19L35 18L33 18L33 17L32 17L32 16L31 16L31 17L30 17L30 16L29 16L29 15L28 15L28 16L29 16L29 17L27 17L27 16L26 16L26 14L27 14L27 12L26 12L26 11L24 11L24 10L27 10L27 9L26 9L26 8L28 8L28 6L27 6L27 7L26 7L26 6L25 6L25 7L24 7L24 6L23 6L23 7L22 7L22 6L21 6L21 5L20 5L20 4L22 4L22 5L25 5L25 4L26 4L26 3L27 3L27 2L26 2L26 3L25 3L25 2L24 2L24 3L25 3L25 4L22 4L22 3L20 3L20 4L19 4L19 5L20 5L20 6L19 6L19 7L18 7L18 10L16 10L16 11L15 11L15 10L14 10L14 8L15 8L15 7L16 7L16 8L17 8L17 7L16 7L16 5L15 5L15 3L14 3L14 2ZM17 2L17 3L18 3L18 2ZM14 6L14 7L13 7L13 8L14 8L14 7L15 7L15 6ZM23 7L23 8L22 8L22 9L23 9L23 10L24 10L24 9L25 9L25 8L26 8L26 7L25 7L25 8L24 8L24 7ZM36 8L36 9L35 9L35 10L36 10L36 11L35 11L35 12L37 12L37 10L36 10L36 9L37 9L37 8ZM31 10L31 11L32 11L32 10ZM1 11L1 13L2 13L2 11ZM6 11L6 12L7 12L7 11ZM28 11L28 14L29 14L29 13L30 13L30 15L31 15L31 13L32 13L32 12L31 12L31 13L30 13L30 11ZM25 12L25 13L26 13L26 12ZM33 14L33 15L34 15L34 14ZM24 15L24 16L23 16L23 17L24 17L24 18L25 18L25 17L26 17L26 16L25 16L25 15ZM24 16L24 17L25 17L25 16ZM14 17L14 18L15 18L15 17ZM29 17L29 18L27 18L27 19L26 19L26 20L27 20L27 21L26 21L26 22L27 22L27 23L26 23L26 24L27 24L27 23L29 23L29 22L27 22L27 21L31 21L31 22L32 22L32 21L33 21L33 20L34 20L34 19L32 19L32 21L31 21L31 20L29 20L29 19L31 19L31 18L30 18L30 17ZM5 18L5 19L6 19L6 20L7 20L7 19L6 19L6 18ZM24 19L24 20L25 20L25 19ZM17 20L17 21L15 21L15 22L16 22L16 24L17 24L17 23L19 23L19 24L18 24L18 25L15 25L15 26L13 26L13 27L12 27L12 25L11 25L11 24L13 24L13 25L14 25L14 24L13 24L13 22L10 22L10 23L9 23L9 24L8 24L8 25L9 25L9 26L11 26L11 27L12 27L12 28L13 28L13 27L15 27L15 28L16 28L16 27L18 27L18 28L17 28L17 29L15 29L15 30L16 30L16 31L17 31L17 30L20 30L20 31L21 31L21 30L20 30L20 29L23 29L23 28L21 28L21 26L19 26L19 24L22 24L22 25L23 25L23 24L22 24L22 23L23 23L23 22L22 22L22 21L21 21L21 22L22 22L22 23L19 23L19 22L18 22L18 20ZM24 21L24 22L25 22L25 21ZM24 23L24 24L25 24L25 23ZM22 26L22 27L23 27L23 26ZM35 26L35 27L36 27L36 26ZM6 27L6 28L7 28L7 27ZM19 27L19 28L18 28L18 29L19 29L19 28L20 28L20 27ZM29 29L29 32L32 32L32 29ZM22 30L22 31L23 31L23 30ZM25 30L25 32L26 32L26 33L27 33L27 32L26 32L26 30ZM30 30L30 31L31 31L31 30ZM12 31L12 32L13 32L13 31ZM11 34L11 35L10 35L10 36L11 36L11 35L12 35L12 34ZM24 35L24 36L25 36L25 35ZM26 35L26 36L27 36L27 35ZM30 36L30 37L32 37L32 36ZM0 0L0 7L7 7L7 0ZM1 1L1 6L6 6L6 1ZM2 2L2 5L5 5L5 2ZM30 0L30 7L37 7L37 0ZM31 1L31 6L36 6L36 1ZM32 2L32 5L35 5L35 2ZM0 30L0 37L7 37L7 30ZM1 31L1 36L6 36L6 31ZM2 32L2 35L5 35L5 32Z" fill="#000000"/></g></g></svg>
