<?xml version="1.0" encoding="UTF-8"?>
<svg xmlns="http://www.w3.org/2000/svg" version="1.1" width="300" height="300" viewBox="0 0 300 300"><rect x="0" y="0" width="300" height="300" fill="#ffffff"/><g transform="scale(8.108)"><g transform="translate(0,0)"><path fill-rule="evenodd" d="M8 0L8 1L9 1L9 0ZM11 0L11 1L10 1L10 2L9 2L9 4L8 4L8 7L9 7L9 8L10 8L10 9L9 9L9 11L8 11L8 12L6 12L6 11L7 11L7 10L8 10L8 8L1 8L1 9L0 9L0 12L1 12L1 13L3 13L3 16L2 16L2 15L1 15L1 16L0 16L0 17L2 17L2 18L3 18L3 19L7 19L7 20L4 20L4 21L5 21L5 22L4 22L4 23L3 23L3 24L2 24L2 23L1 23L1 21L2 21L2 19L1 19L1 18L0 18L0 29L1 29L1 24L2 24L2 25L3 25L3 24L5 24L5 25L7 25L7 24L5 24L5 22L6 22L6 23L8 23L8 24L9 24L9 27L8 27L8 26L5 26L5 29L7 29L7 28L9 28L9 29L8 29L8 36L9 36L9 37L10 37L10 36L9 36L9 35L11 35L11 37L12 37L12 35L13 35L13 33L14 33L14 35L15 35L15 34L16 34L16 36L14 36L14 37L18 37L18 36L17 36L17 35L19 35L19 33L18 33L18 31L17 31L17 32L16 32L16 30L18 30L18 27L19 27L19 28L20 28L20 29L23 29L23 30L22 30L22 31L23 31L23 32L20 32L20 31L19 31L19 32L20 32L20 33L21 33L21 34L20 34L20 35L21 35L21 36L20 36L20 37L22 37L22 36L23 36L23 37L25 37L25 36L26 36L26 37L28 37L28 36L29 36L29 37L31 37L31 36L33 36L33 37L37 37L37 34L36 34L36 36L33 36L33 35L34 35L34 34L33 34L33 32L34 32L34 33L36 33L36 32L37 32L37 30L36 30L36 29L37 29L37 28L36 28L36 27L37 27L37 26L36 26L36 24L33 24L33 25L34 25L34 26L33 26L33 27L34 27L34 28L29 28L29 27L32 27L32 26L31 26L31 25L32 25L32 23L31 23L31 22L30 22L30 23L28 23L28 22L27 22L27 21L33 21L33 23L36 23L36 22L37 22L37 18L34 18L34 19L36 19L36 20L31 20L31 19L32 19L32 18L30 18L30 19L29 19L29 20L27 20L27 19L28 19L28 18L29 18L29 17L31 17L31 15L30 15L30 13L31 13L31 14L32 14L32 15L33 15L33 16L32 16L32 17L33 17L33 16L34 16L34 17L37 17L37 14L36 14L36 13L37 13L37 10L36 10L36 9L37 9L37 8L36 8L36 9L35 9L35 10L36 10L36 13L35 13L35 14L32 14L32 13L33 13L33 12L34 12L34 11L33 11L33 10L34 10L34 9L33 9L33 8L31 8L31 9L30 9L30 10L32 10L32 11L30 11L30 13L29 13L29 15L28 15L28 11L29 11L29 10L28 10L28 9L29 9L29 6L28 6L28 5L26 5L26 4L29 4L29 3L28 3L28 2L29 2L29 1L27 1L27 0L25 0L25 1L22 1L22 0L21 0L21 1L20 1L20 3L19 3L19 0L18 0L18 2L17 2L17 3L19 3L19 4L20 4L20 5L19 5L19 6L18 6L18 7L19 7L19 9L20 9L20 10L19 10L19 11L18 11L18 12L17 12L17 13L16 13L16 12L15 12L15 11L16 11L16 10L17 10L17 5L16 5L16 9L15 9L15 8L14 8L14 7L15 7L15 6L14 6L14 7L13 7L13 6L12 6L12 5L11 5L11 4L12 4L12 3L13 3L13 2L14 2L14 4L13 4L13 5L15 5L15 4L16 4L16 2L14 2L14 1L15 1L15 0L13 0L13 2L11 2L11 1L12 1L12 0ZM21 1L21 2L22 2L22 3L21 3L21 4L23 4L23 5L25 5L25 4L26 4L26 3L27 3L27 2L26 2L26 3L25 3L25 2L24 2L24 3L25 3L25 4L23 4L23 2L22 2L22 1ZM10 2L10 4L11 4L11 2ZM9 5L9 7L10 7L10 8L12 8L12 6L11 6L11 5ZM21 5L21 7L20 7L20 6L19 6L19 7L20 7L20 8L21 8L21 9L23 9L23 7L24 7L24 9L26 9L26 10L22 10L22 11L25 11L25 12L22 12L22 13L25 13L25 14L22 14L22 15L24 15L24 16L22 16L22 17L23 17L23 20L20 20L20 21L22 21L22 22L21 22L21 23L19 23L19 24L18 24L18 23L17 23L17 24L16 24L16 25L17 25L17 27L16 27L16 28L14 28L14 26L15 26L15 22L16 22L16 21L14 21L14 22L12 22L12 20L11 20L11 19L13 19L13 20L17 20L17 22L19 22L19 21L18 21L18 20L17 20L17 19L19 19L19 18L20 18L20 15L19 15L19 14L20 14L20 13L19 13L19 12L21 12L21 10L20 10L20 11L19 11L19 12L18 12L18 13L19 13L19 14L13 14L13 13L11 13L11 12L12 12L12 11L13 11L13 12L14 12L14 13L15 13L15 12L14 12L14 11L13 11L13 9L14 9L14 8L13 8L13 9L12 9L12 11L11 11L11 9L10 9L10 11L9 11L9 12L8 12L8 14L9 14L9 15L6 15L6 14L7 14L7 13L6 13L6 14L5 14L5 13L4 13L4 12L5 12L5 11L6 11L6 10L7 10L7 9L6 9L6 10L5 10L5 9L4 9L4 12L3 12L3 13L4 13L4 14L5 14L5 15L4 15L4 16L3 16L3 18L5 18L5 16L7 16L7 17L6 17L6 18L8 18L8 16L9 16L9 15L10 15L10 13L11 13L11 14L13 14L13 15L11 15L11 16L10 16L10 17L9 17L9 19L10 19L10 20L8 20L8 21L6 21L6 22L8 22L8 23L10 23L10 25L12 25L12 26L13 26L13 28L12 28L12 27L9 27L9 28L10 28L10 29L11 29L11 30L12 30L12 29L13 29L13 28L14 28L14 30L13 30L13 31L12 31L12 32L11 32L11 31L10 31L10 30L9 30L9 31L10 31L10 32L9 32L9 34L10 34L10 32L11 32L11 33L13 33L13 31L14 31L14 33L16 33L16 34L17 34L17 33L16 33L16 32L15 32L15 29L17 29L17 27L18 27L18 25L20 25L20 26L21 26L21 28L23 28L23 29L25 29L25 28L26 28L26 29L27 29L27 31L28 31L28 27L29 27L29 26L27 26L27 28L26 28L26 26L23 26L23 25L27 25L27 24L28 24L28 25L30 25L30 24L28 24L28 23L27 23L27 22L26 22L26 21L27 21L27 20L26 20L26 19L27 19L27 18L28 18L28 17L29 17L29 16L28 16L28 17L27 17L27 16L26 16L26 14L27 14L27 12L26 12L26 11L27 11L27 9L26 9L26 8L28 8L28 6L27 6L27 7L26 7L26 6L25 6L25 7L24 7L24 6L23 6L23 7L22 7L22 5ZM10 6L10 7L11 7L11 6ZM21 7L21 8L22 8L22 7ZM25 7L25 8L26 8L26 7ZM1 10L1 12L2 12L2 10ZM10 11L10 12L9 12L9 13L10 13L10 12L11 12L11 11ZM25 12L25 13L26 13L26 12ZM31 12L31 13L32 13L32 12ZM35 14L35 15L34 15L34 16L36 16L36 14ZM14 15L14 16L11 16L11 17L10 17L10 18L11 18L11 17L12 17L12 18L13 18L13 19L14 19L14 18L13 18L13 17L14 17L14 16L15 16L15 17L16 17L16 18L15 18L15 19L16 19L16 18L19 18L19 16L18 16L18 17L16 17L16 16L15 16L15 15ZM25 16L25 17L24 17L24 18L25 18L25 17L26 17L26 16ZM21 18L21 19L22 19L22 18ZM24 19L24 20L25 20L25 19ZM10 20L10 21L11 21L11 20ZM8 21L8 22L9 22L9 21ZM24 21L24 22L25 22L25 21ZM34 21L34 22L36 22L36 21ZM22 22L22 23L21 23L21 24L22 24L22 25L23 25L23 24L22 24L22 23L23 23L23 22ZM24 23L24 24L25 24L25 23ZM26 23L26 24L27 24L27 23ZM13 24L13 25L14 25L14 24ZM17 24L17 25L18 25L18 24ZM2 26L2 27L3 27L3 29L4 29L4 26ZM22 26L22 27L23 27L23 26ZM35 26L35 27L36 27L36 26ZM6 27L6 28L7 28L7 27ZM34 28L34 32L35 32L35 31L36 31L36 30L35 30L35 29L36 29L36 28ZM29 29L29 32L32 32L32 29ZM23 30L23 31L24 31L24 30ZM25 30L25 32L26 32L26 30ZM30 30L30 31L31 31L31 30ZM23 32L23 33L22 33L22 35L23 35L23 34L25 34L25 33L24 33L24 32ZM26 33L26 34L27 34L27 35L26 35L26 36L28 36L28 35L29 35L29 36L30 36L30 35L31 35L31 34L32 34L32 35L33 35L33 34L32 34L32 33L31 33L31 34L30 34L30 33ZM11 34L11 35L12 35L12 34ZM29 34L29 35L30 35L30 34ZM24 35L24 36L25 36L25 35ZM0 0L0 7L7 7L7 0ZM1 1L1 6L6 6L6 1ZM2 2L2 5L5 5L5 2ZM30 0L30 7L37 7L37 0ZM31 1L31 6L36 6L36 1ZM32 2L32 5L35 5L35 2ZM0 30L0 37L7 37L7 30ZM1 31L1 36L6 36L6 31ZM2 32L2 35L5 35L5 32Z" fill="#000000"/></g></g></svg>
