<?xml version="1.0" encoding="UTF-8"?>
<svg xmlns="http://www.w3.org/2000/svg" version="1.1" width="300" height="300" viewBox="0 0 300 300"><rect x="0" y="0" width="300" height="300" fill="#ffffff"/><g transform="scale(8.108)"><g transform="translate(0,0)"><path fill-rule="evenodd" d="M9 0L9 1L8 1L8 3L10 3L10 2L9 2L9 1L10 1L10 0ZM11 0L11 5L10 5L10 4L9 4L9 5L10 5L10 7L9 7L9 6L8 6L8 7L9 7L9 9L8 9L8 10L6 10L6 9L7 9L7 8L5 8L5 9L4 9L4 8L1 8L1 11L0 11L0 13L1 13L1 12L2 12L2 15L1 15L1 14L0 14L0 17L1 17L1 18L3 18L3 19L2 19L2 20L0 20L0 22L2 22L2 23L4 23L4 24L5 24L5 25L2 25L2 26L1 26L1 27L0 27L0 28L1 28L1 27L3 27L3 28L2 28L2 29L4 29L4 27L3 27L3 26L6 26L6 27L7 27L7 28L5 28L5 29L7 29L7 28L8 28L8 27L7 27L7 26L6 26L6 25L7 25L7 24L9 24L9 23L7 23L7 22L6 22L6 21L7 21L7 20L8 20L8 19L9 19L9 18L10 18L10 19L11 19L11 18L10 18L10 17L7 17L7 16L13 16L13 17L14 17L14 18L13 18L13 19L14 19L14 18L15 18L15 19L16 19L16 20L17 20L17 19L18 19L18 18L17 18L17 17L18 17L18 16L16 16L16 18L15 18L15 16L14 16L14 15L10 15L10 14L12 14L12 13L13 13L13 14L14 14L14 13L18 13L18 12L17 12L17 11L14 11L14 13L13 13L13 12L12 12L12 13L11 13L11 11L10 11L10 13L9 13L9 12L8 12L8 10L9 10L9 9L10 9L10 10L11 10L11 9L13 9L13 10L12 10L12 11L13 11L13 10L18 10L18 11L19 11L19 13L20 13L20 14L18 14L18 15L19 15L19 16L23 16L23 17L25 17L25 18L26 18L26 17L27 17L27 20L28 20L28 22L29 22L29 23L27 23L27 21L26 21L26 20L24 20L24 19L23 19L23 18L22 18L22 19L23 19L23 20L20 20L20 19L21 19L21 17L19 17L19 20L20 20L20 21L19 21L19 22L21 22L21 23L25 23L25 24L27 24L27 25L28 25L28 26L26 26L26 25L25 25L25 27L26 27L26 28L25 28L25 29L24 29L24 27L23 27L23 28L22 28L22 29L21 29L21 30L22 30L22 31L20 31L20 32L19 32L19 31L18 31L18 32L17 32L17 33L16 33L16 34L15 34L15 32L16 32L16 30L19 30L19 29L20 29L20 27L22 27L22 25L23 25L23 24L22 24L22 25L21 25L21 24L19 24L19 23L17 23L17 24L18 24L18 27L17 27L17 28L16 28L16 27L15 27L15 29L13 29L13 28L12 28L12 29L13 29L13 30L12 30L12 33L10 33L10 32L9 32L9 31L8 31L8 32L9 32L9 33L8 33L8 36L9 36L9 35L10 35L10 36L11 36L11 37L12 37L12 36L13 36L13 37L17 37L17 36L20 36L20 37L22 37L22 36L20 36L20 35L19 35L19 33L21 33L21 34L22 34L22 33L21 33L21 32L22 32L22 31L23 31L23 30L24 30L24 31L25 31L25 29L26 29L26 31L27 31L27 30L28 30L28 33L25 33L25 35L23 35L23 37L25 37L25 35L26 35L26 34L27 34L27 35L28 35L28 34L29 34L29 33L30 33L30 37L31 37L31 35L33 35L33 37L37 37L37 36L35 36L35 35L36 35L36 34L35 34L35 35L34 35L34 34L33 34L33 33L34 33L34 32L33 32L33 31L34 31L34 30L36 30L36 31L37 31L37 29L33 29L33 28L29 28L29 25L28 25L28 24L30 24L30 25L32 25L32 26L35 26L35 25L36 25L36 26L37 26L37 25L36 25L36 24L37 24L37 21L36 21L36 19L37 19L37 17L36 17L36 18L35 18L35 21L36 21L36 24L35 24L35 22L34 22L34 21L33 21L33 20L34 20L34 19L32 19L32 17L30 17L30 16L32 16L32 15L31 15L31 13L32 13L32 14L33 14L33 15L34 15L34 14L33 14L33 11L34 11L34 12L35 12L35 13L36 13L36 14L37 14L37 11L36 11L36 12L35 12L35 11L34 11L34 9L36 9L36 8L34 8L34 9L30 9L30 10L33 10L33 11L32 11L32 12L30 12L30 14L28 14L28 15L29 15L29 16L28 16L28 17L27 17L27 16L25 16L25 15L27 15L27 13L28 13L28 12L29 12L29 10L28 10L28 9L27 9L27 8L28 8L28 7L29 7L29 6L28 6L28 7L27 7L27 5L28 5L28 4L29 4L29 1L28 1L28 2L27 2L27 3L26 3L26 4L25 4L25 2L26 2L26 1L27 1L27 0L25 0L25 2L23 2L23 3L22 3L22 4L23 4L23 6L22 6L22 7L23 7L23 6L24 6L24 8L20 8L20 7L21 7L21 5L20 5L20 3L21 3L21 2L22 2L22 0L21 0L21 2L19 2L19 0L18 0L18 2L17 2L17 5L15 5L15 6L14 6L14 4L16 4L16 1L14 1L14 0L13 0L13 1L12 1L12 0ZM13 1L13 2L12 2L12 5L11 5L11 7L12 7L12 8L13 8L13 7L14 7L14 6L13 6L13 7L12 7L12 5L13 5L13 3L15 3L15 2L14 2L14 1ZM18 2L18 6L17 6L17 8L16 8L16 9L17 9L17 8L18 8L18 10L20 10L20 12L22 12L22 13L21 13L21 14L20 14L20 15L22 15L22 13L23 13L23 16L24 16L24 12L25 12L25 11L26 11L26 10L27 10L27 12L26 12L26 13L25 13L25 14L26 14L26 13L27 13L27 12L28 12L28 10L27 10L27 9L26 9L26 10L25 10L25 8L24 8L24 12L23 12L23 10L20 10L20 8L18 8L18 6L19 6L19 7L20 7L20 5L19 5L19 2ZM24 5L24 6L25 6L25 7L26 7L26 5ZM15 6L15 7L16 7L16 6ZM10 8L10 9L11 9L11 8ZM2 10L2 11L3 11L3 13L4 13L4 14L3 14L3 15L2 15L2 17L3 17L3 15L4 15L4 18L5 18L5 17L6 17L6 18L7 18L7 17L6 17L6 16L7 16L7 15L6 15L6 14L7 14L7 13L6 13L6 12L7 12L7 11L6 11L6 10L5 10L5 11L4 11L4 10ZM5 11L5 12L4 12L4 13L5 13L5 14L6 14L6 13L5 13L5 12L6 12L6 11ZM8 14L8 15L9 15L9 14ZM15 14L15 15L16 15L16 14ZM36 15L36 16L37 16L37 15ZM34 16L34 17L35 17L35 16ZM29 18L29 19L28 19L28 20L29 20L29 21L30 21L30 24L32 24L32 25L34 25L34 22L33 22L33 21L32 21L32 22L31 22L31 20L30 20L30 18ZM3 19L3 20L2 20L2 21L3 21L3 22L4 22L4 23L5 23L5 24L7 24L7 23L5 23L5 22L4 22L4 21L5 21L5 19ZM6 19L6 20L7 20L7 19ZM3 20L3 21L4 21L4 20ZM9 20L9 21L10 21L10 22L11 22L11 23L10 23L10 25L9 25L9 27L10 27L10 26L11 26L11 27L14 27L14 26L15 26L15 25L14 25L14 23L16 23L16 22L14 22L14 21L15 21L15 20L12 20L12 21L10 21L10 20ZM23 20L23 21L22 21L22 22L24 22L24 20ZM12 21L12 22L13 22L13 23L14 23L14 22L13 22L13 21ZM17 21L17 22L18 22L18 21ZM25 21L25 23L26 23L26 21ZM0 24L0 25L1 25L1 24ZM11 24L11 25L12 25L12 26L14 26L14 25L13 25L13 24ZM16 25L16 26L17 26L17 25ZM18 27L18 28L19 28L19 27ZM27 27L27 28L28 28L28 27ZM34 27L34 28L35 28L35 27ZM36 27L36 28L37 28L37 27ZM8 29L8 30L9 30L9 29ZM15 29L15 30L16 30L16 29ZM29 29L29 32L32 32L32 29ZM10 30L10 31L11 31L11 30ZM13 30L13 31L14 31L14 30ZM30 30L30 31L31 31L31 30ZM35 32L35 33L37 33L37 32ZM13 33L13 34L12 34L12 35L13 35L13 36L17 36L17 35L15 35L15 34L14 34L14 33ZM31 33L31 34L32 34L32 33ZM26 36L26 37L27 37L27 36ZM0 0L0 7L7 7L7 0ZM1 1L1 6L6 6L6 1ZM2 2L2 5L5 5L5 2ZM30 0L30 7L37 7L37 0ZM31 1L31 6L36 6L36 1ZM32 2L32 5L35 5L35 2ZM0 30L0 37L7 37L7 30ZM1 31L1 36L6 36L6 31ZM2 32L2 35L5 35L5 32Z" fill="#000000"/></g></g></svg>
