<?xml version="1.0" encoding="UTF-8"?>
<svg xmlns="http://www.w3.org/2000/svg" version="1.1" width="300" height="300" viewBox="0 0 300 300"><rect x="0" y="0" width="300" height="300" fill="#ffffff"/><g transform="scale(8.108)"><g transform="translate(0,0)"><path fill-rule="evenodd" d="M8 0L8 1L9 1L9 2L8 2L8 4L10 4L10 7L9 7L9 5L8 5L8 8L5 8L5 9L4 9L4 8L3 8L3 9L2 9L2 8L1 8L1 9L0 9L0 12L1 12L1 14L0 14L0 16L1 16L1 14L2 14L2 17L1 17L1 18L0 18L0 21L1 21L1 18L2 18L2 17L3 17L3 16L4 16L4 14L5 14L5 18L4 18L4 19L3 19L3 21L2 21L2 22L0 22L0 23L3 23L3 24L2 24L2 25L4 25L4 27L3 27L3 26L2 26L2 27L1 27L1 26L0 26L0 27L1 27L1 28L0 28L0 29L3 29L3 28L5 28L5 29L7 29L7 28L9 28L9 27L13 27L13 28L14 28L14 29L12 29L12 28L11 28L11 29L8 29L8 32L9 32L9 33L8 33L8 34L9 34L9 33L10 33L10 35L8 35L8 36L10 36L10 35L11 35L11 37L13 37L13 36L14 36L14 37L19 37L19 36L22 36L22 37L25 37L25 33L26 33L26 34L27 34L27 35L26 35L26 36L27 36L27 35L28 35L28 37L31 37L31 35L34 35L34 34L33 34L33 33L34 33L34 32L35 32L35 30L36 30L36 31L37 31L37 25L36 25L36 24L37 24L37 23L36 23L36 21L37 21L37 20L36 20L36 19L37 19L37 16L36 16L36 15L37 15L37 12L34 12L34 9L35 9L35 8L33 8L33 9L32 9L32 8L29 8L29 5L28 5L28 4L29 4L29 2L28 2L28 0L25 0L25 4L26 4L26 5L27 5L27 6L26 6L26 7L25 7L25 6L24 6L24 5L23 5L23 6L22 6L22 7L21 7L21 4L20 4L20 5L18 5L18 7L17 7L17 6L16 6L16 5L12 5L12 4L11 4L11 3L9 3L9 2L10 2L10 1L11 1L11 2L12 2L12 3L13 3L13 2L15 2L15 0L13 0L13 1L12 1L12 0L10 0L10 1L9 1L9 0ZM16 0L16 1L19 1L19 0ZM20 0L20 3L21 3L21 0ZM22 0L22 2L23 2L23 0ZM17 2L17 3L16 3L16 4L19 4L19 2ZM26 2L26 3L27 3L27 2ZM22 3L22 4L23 4L23 3ZM11 5L11 7L12 7L12 9L11 9L11 10L9 10L9 9L5 9L5 12L4 12L4 13L3 13L3 11L4 11L4 10L2 10L2 9L1 9L1 10L2 10L2 13L3 13L3 14L4 14L4 13L5 13L5 12L8 12L8 14L10 14L10 15L11 15L11 16L9 16L9 15L8 15L8 16L7 16L7 15L6 15L6 16L7 16L7 17L6 17L6 18L7 18L7 17L8 17L8 19L9 19L9 20L8 20L8 21L5 21L5 20L4 20L4 21L3 21L3 23L4 23L4 22L5 22L5 24L7 24L7 25L6 25L6 26L7 26L7 27L5 27L5 28L7 28L7 27L8 27L8 26L10 26L10 25L9 25L9 24L12 24L12 22L15 22L15 24L16 24L16 23L18 23L18 24L19 24L19 23L20 23L20 22L21 22L21 23L23 23L23 25L21 25L21 24L20 24L20 26L19 26L19 27L20 27L20 26L22 26L22 27L21 27L21 29L20 29L20 28L17 28L17 26L18 26L18 25L16 25L16 26L15 26L15 25L12 25L12 26L13 26L13 27L14 27L14 28L15 28L15 27L16 27L16 28L17 28L17 29L19 29L19 30L16 30L16 29L14 29L14 30L12 30L12 29L11 29L11 30L10 30L10 31L11 31L11 32L10 32L10 33L11 33L11 35L12 35L12 34L13 34L13 35L14 35L14 36L17 36L17 35L19 35L19 32L21 32L21 33L20 33L20 35L23 35L23 32L26 32L26 33L27 33L27 34L28 34L28 35L29 35L29 36L30 36L30 35L31 35L31 34L32 34L32 33L28 33L28 32L26 32L26 31L27 31L27 30L28 30L28 29L27 29L27 28L28 28L28 27L27 27L27 28L25 28L25 31L24 31L24 30L23 30L23 29L24 29L24 28L23 28L23 26L24 26L24 27L26 27L26 26L24 26L24 24L25 24L25 25L26 25L26 24L27 24L27 25L28 25L28 26L29 26L29 28L30 28L30 26L32 26L32 28L33 28L33 29L34 29L34 30L35 30L35 28L34 28L34 27L36 27L36 26L35 26L35 24L36 24L36 23L34 23L34 22L35 22L35 21L36 21L36 20L34 20L34 19L33 19L33 18L29 18L29 17L30 17L30 16L31 16L31 15L32 15L32 17L34 17L34 18L35 18L35 19L36 19L36 18L35 18L35 17L34 17L34 16L35 16L35 15L36 15L36 14L34 14L34 13L33 13L33 10L32 10L32 9L30 9L30 10L32 10L32 11L30 11L30 12L29 12L29 11L28 11L28 10L29 10L29 8L28 8L28 10L27 10L27 9L26 9L26 8L27 8L27 7L28 7L28 6L27 6L27 7L26 7L26 8L24 8L24 6L23 6L23 7L22 7L22 8L23 8L23 10L21 10L21 9L20 9L20 8L21 8L21 7L20 7L20 6L19 6L19 7L18 7L18 8L16 8L16 6L15 6L15 7L14 7L14 6L13 6L13 7L12 7L12 5ZM13 7L13 8L14 8L14 10L13 10L13 9L12 9L12 10L11 10L11 14L13 14L13 15L12 15L12 17L13 17L13 19L14 19L14 21L15 21L15 19L17 19L17 20L16 20L16 22L17 22L17 20L18 20L18 21L23 21L23 22L24 22L24 19L23 19L23 17L21 17L21 19L20 19L20 13L19 13L19 15L18 15L18 14L17 14L17 16L18 16L18 17L17 17L17 18L16 18L16 17L15 17L15 19L14 19L14 17L13 17L13 15L14 15L14 16L16 16L16 14L15 14L15 15L14 15L14 14L13 14L13 13L14 13L14 11L15 11L15 10L17 10L17 9L16 9L16 8L14 8L14 7ZM19 7L19 8L18 8L18 9L19 9L19 10L18 10L18 11L17 11L17 12L19 12L19 11L21 11L21 12L22 12L22 13L21 13L21 14L22 14L22 15L21 15L21 16L23 16L23 15L24 15L24 16L26 16L26 17L25 17L25 18L26 18L26 20L28 20L28 19L29 19L29 18L28 18L28 19L27 19L27 15L25 15L25 14L22 14L22 13L23 13L23 12L24 12L24 11L21 11L21 10L20 10L20 9L19 9L19 8L20 8L20 7ZM36 8L36 11L37 11L37 8ZM6 10L6 11L7 11L7 10ZM8 10L8 12L9 12L9 13L10 13L10 11L9 11L9 10ZM12 10L12 11L13 11L13 10ZM25 10L25 13L27 13L27 14L28 14L28 17L29 17L29 12L28 12L28 11L27 11L27 10ZM27 12L27 13L28 13L28 12ZM30 12L30 14L31 14L31 13L32 13L32 12ZM6 13L6 14L7 14L7 13ZM32 14L32 15L33 15L33 14ZM9 17L9 18L10 18L10 22L9 22L9 21L8 21L8 23L7 23L7 22L6 22L6 23L7 23L7 24L9 24L9 23L11 23L11 21L12 21L12 20L11 20L11 17ZM18 17L18 20L19 20L19 17ZM6 19L6 20L7 20L7 19ZM31 19L31 20L29 20L29 21L30 21L30 23L27 23L27 21L25 21L25 24L26 24L26 23L27 23L27 24L28 24L28 25L29 25L29 24L30 24L30 25L34 25L34 23L32 23L32 22L31 22L31 20L32 20L32 21L33 21L33 22L34 22L34 21L33 21L33 20L32 20L32 19ZM18 22L18 23L19 23L19 22ZM30 23L30 24L32 24L32 23ZM0 24L0 25L1 25L1 24ZM7 25L7 26L8 26L8 25ZM14 26L14 27L15 27L15 26ZM2 27L2 28L3 28L3 27ZM22 28L22 29L23 29L23 28ZM26 29L26 30L27 30L27 29ZM29 29L29 32L32 32L32 29ZM15 30L15 33L14 33L14 34L16 34L16 32L17 32L17 31L16 31L16 30ZM20 30L20 31L22 31L22 32L23 32L23 31L22 31L22 30ZM30 30L30 31L31 31L31 30ZM12 31L12 32L11 32L11 33L12 33L12 32L13 32L13 31ZM18 31L18 32L19 32L19 31ZM17 33L17 34L18 34L18 33ZM21 33L21 34L22 34L22 33ZM35 33L35 34L36 34L36 35L37 35L37 33ZM32 36L32 37L33 37L33 36ZM35 36L35 37L37 37L37 36ZM0 0L0 7L7 7L7 0ZM1 1L1 6L6 6L6 1ZM2 2L2 5L5 5L5 2ZM30 0L30 7L37 7L37 0ZM31 1L31 6L36 6L36 1ZM32 2L32 5L35 5L35 2ZM0 30L0 37L7 37L7 30ZM1 31L1 36L6 36L6 31ZM2 32L2 35L5 35L5 32Z" fill="#000000"/></g></g></svg>
