<?xml version="1.0" encoding="UTF-8"?>
<svg xmlns="http://www.w3.org/2000/svg" version="1.1" width="300" height="300" viewBox="0 0 300 300"><rect x="0" y="0" width="300" height="300" fill="#ffffff"/><g transform="scale(8.108)"><g transform="translate(0,0)"><path fill-rule="evenodd" d="M8 0L8 2L9 2L9 5L10 5L10 7L11 7L11 5L14 5L14 4L15 4L15 5L16 5L16 7L15 7L15 6L14 6L14 7L13 7L13 6L12 6L12 7L13 7L13 8L14 8L14 9L15 9L15 8L16 8L16 9L17 9L17 11L18 11L18 12L19 12L19 13L20 13L20 14L19 14L19 15L22 15L22 14L24 14L24 15L23 15L23 16L24 16L24 15L25 15L25 13L24 13L24 12L23 12L23 11L22 11L22 10L20 10L20 11L19 11L19 10L18 10L18 9L19 9L19 8L20 8L20 7L21 7L21 6L22 6L22 8L23 8L23 10L27 10L27 11L26 11L26 13L29 13L29 15L28 15L28 14L27 14L27 15L28 15L28 16L27 16L27 18L25 18L25 17L26 17L26 16L25 16L25 17L24 17L24 18L23 18L23 17L22 17L22 16L20 16L20 18L21 18L21 19L19 19L19 21L18 21L18 23L15 23L15 24L14 24L14 25L13 25L13 24L12 24L12 23L11 23L11 22L17 22L17 21L16 21L16 19L17 19L17 20L18 20L18 19L17 19L17 17L15 17L15 16L14 16L14 15L15 15L15 13L16 13L16 14L18 14L18 13L17 13L17 12L16 12L16 10L14 10L14 11L15 11L15 13L14 13L14 12L13 12L13 9L12 9L12 8L11 8L11 9L10 9L10 8L6 8L6 9L8 9L8 10L9 10L9 11L7 11L7 10L5 10L5 9L4 9L4 10L2 10L2 8L1 8L1 9L0 9L0 10L1 10L1 12L3 12L3 11L4 11L4 10L5 10L5 11L7 11L7 12L4 12L4 13L1 13L1 14L0 14L0 15L2 15L2 16L1 16L1 17L0 17L0 18L1 18L1 19L2 19L2 21L0 21L0 29L1 29L1 25L2 25L2 23L3 23L3 24L4 24L4 23L5 23L5 25L3 25L3 26L2 26L2 28L3 28L3 27L4 27L4 28L6 28L6 29L7 29L7 28L6 28L6 27L7 27L7 26L5 26L5 25L8 25L8 26L9 26L9 25L8 25L8 24L6 24L6 23L7 23L7 22L6 22L6 21L8 21L8 20L9 20L9 19L10 19L10 20L12 20L12 21L11 21L11 22L10 22L10 21L9 21L9 22L8 22L8 23L9 23L9 24L10 24L10 27L11 27L11 28L12 28L12 26L14 26L14 27L13 27L13 29L14 29L14 31L13 31L13 33L12 33L12 32L10 32L10 33L9 33L9 35L8 35L8 36L9 36L9 35L10 35L10 33L11 33L11 34L12 34L12 35L11 35L11 36L12 36L12 35L13 35L13 36L16 36L16 37L17 37L17 35L18 35L18 34L19 34L19 33L18 33L18 30L19 30L19 28L20 28L20 29L21 29L21 30L22 30L22 29L23 29L23 31L24 31L24 29L25 29L25 31L26 31L26 32L24 32L24 33L25 33L25 34L23 34L23 32L22 32L22 31L21 31L21 32L20 32L20 31L19 31L19 32L20 32L20 35L22 35L22 36L21 36L21 37L23 37L23 36L24 36L24 37L26 37L26 35L27 35L27 34L29 34L29 35L28 35L28 37L34 37L34 35L35 35L35 33L36 33L36 32L37 32L37 30L36 30L36 29L37 29L37 28L35 28L35 30L34 30L34 27L35 27L35 26L36 26L36 27L37 27L37 26L36 26L36 25L34 25L34 23L36 23L36 22L37 22L37 18L36 18L36 17L37 17L37 14L36 14L36 13L37 13L37 12L36 12L36 11L37 11L37 10L35 10L35 9L37 9L37 8L35 8L35 9L34 9L34 10L35 10L35 12L34 12L34 14L36 14L36 16L35 16L35 15L34 15L34 19L33 19L33 18L30 18L30 17L31 17L31 16L32 16L32 17L33 17L33 14L32 14L32 12L33 12L33 10L32 10L32 9L30 9L30 8L29 8L29 5L28 5L28 8L26 8L26 7L27 7L27 5L26 5L26 4L25 4L25 3L26 3L26 2L27 2L27 3L29 3L29 0L28 0L28 2L27 2L27 1L24 1L24 0L17 0L17 1L16 1L16 0L15 0L15 1L13 1L13 2L10 2L10 1L11 1L11 0ZM19 1L19 3L20 3L20 4L19 4L19 7L20 7L20 6L21 6L21 3L20 3L20 1ZM17 2L17 3L15 3L15 4L17 4L17 5L18 5L18 4L17 4L17 3L18 3L18 2ZM22 2L22 5L25 5L25 4L23 4L23 2ZM24 2L24 3L25 3L25 2ZM8 6L8 7L9 7L9 6ZM17 6L17 7L16 7L16 8L18 8L18 6ZM23 6L23 7L24 7L24 9L26 9L26 8L25 8L25 7L26 7L26 6L25 6L25 7L24 7L24 6ZM14 7L14 8L15 8L15 7ZM9 9L9 10L10 10L10 11L11 11L11 12L10 12L10 14L9 14L9 16L10 16L10 17L11 17L11 18L12 18L12 19L13 19L13 21L14 21L14 20L15 20L15 18L14 18L14 17L13 17L13 18L12 18L12 17L11 17L11 15L10 15L10 14L11 14L11 12L12 12L12 9L11 9L11 10L10 10L10 9ZM27 9L27 10L28 10L28 9ZM29 9L29 10L30 10L30 9ZM31 10L31 11L27 11L27 12L31 12L31 11L32 11L32 10ZM20 11L20 13L21 13L21 14L22 14L22 13L21 13L21 12L22 12L22 11ZM8 12L8 13L4 13L4 14L2 14L2 15L3 15L3 17L4 17L4 19L5 19L5 16L7 16L7 17L6 17L6 18L7 18L7 19L6 19L6 20L3 20L3 21L2 21L2 22L1 22L1 23L2 23L2 22L3 22L3 23L4 23L4 21L6 21L6 20L7 20L7 19L9 19L9 18L8 18L8 13L9 13L9 12ZM35 12L35 13L36 13L36 12ZM12 13L12 16L13 16L13 13ZM30 13L30 15L32 15L32 14L31 14L31 13ZM4 14L4 16L5 16L5 14ZM6 14L6 15L7 15L7 14ZM18 16L18 18L19 18L19 16ZM28 16L28 17L30 17L30 16ZM21 17L21 18L22 18L22 17ZM2 18L2 19L3 19L3 18ZM13 18L13 19L14 19L14 18ZM24 18L24 19L23 19L23 20L22 20L22 19L21 19L21 22L19 22L19 23L18 23L18 24L17 24L17 28L16 28L16 27L14 27L14 29L15 29L15 32L14 32L14 33L13 33L13 34L14 34L14 33L15 33L15 35L17 35L17 32L16 32L16 31L17 31L17 28L19 28L19 27L18 27L18 26L21 26L21 27L20 27L20 28L21 28L21 27L22 27L22 26L23 26L23 29L24 29L24 26L25 26L25 28L27 28L27 29L26 29L26 31L27 31L27 32L26 32L26 34L27 34L27 32L28 32L28 30L27 30L27 29L28 29L28 28L30 28L30 26L28 26L28 25L27 25L27 27L26 27L26 26L25 26L25 25L24 25L24 26L23 26L23 24L24 24L24 23L25 23L25 24L26 24L26 23L27 23L27 24L28 24L28 23L27 23L27 20L28 20L28 22L29 22L29 23L30 23L30 22L31 22L31 26L32 26L32 27L31 27L31 28L32 28L32 27L33 27L33 25L32 25L32 24L33 24L33 23L32 23L32 21L30 21L30 20L31 20L31 19L30 19L30 18L28 18L28 19L27 19L27 20L26 20L26 19L25 19L25 18ZM24 19L24 20L25 20L25 19ZM32 19L32 20L33 20L33 19ZM34 19L34 20L36 20L36 19ZM22 21L22 22L21 22L21 23L22 23L22 22L23 22L23 21ZM24 21L24 22L25 22L25 21ZM29 21L29 22L30 22L30 21ZM35 21L35 22L36 22L36 21ZM9 22L9 23L10 23L10 24L11 24L11 23L10 23L10 22ZM19 23L19 24L18 24L18 25L21 25L21 26L22 26L22 25L21 25L21 24L20 24L20 23ZM15 24L15 25L14 25L14 26L16 26L16 24ZM11 25L11 26L12 26L12 25ZM4 26L4 27L5 27L5 26ZM27 27L27 28L28 28L28 27ZM9 28L9 29L8 29L8 31L9 31L9 29L10 29L10 30L12 30L12 29L10 29L10 28ZM29 29L29 32L32 32L32 29ZM30 30L30 31L31 31L31 30ZM33 30L33 33L32 33L32 34L30 34L30 33L29 33L29 34L30 34L30 35L29 35L29 36L31 36L31 35L34 35L34 32L35 32L35 31L34 31L34 30ZM15 32L15 33L16 33L16 32ZM21 33L21 34L22 34L22 35L23 35L23 34L22 34L22 33ZM36 34L36 37L37 37L37 34ZM24 35L24 36L25 36L25 35ZM19 36L19 37L20 37L20 36ZM0 0L0 7L7 7L7 0ZM1 1L1 6L6 6L6 1ZM2 2L2 5L5 5L5 2ZM30 0L30 7L37 7L37 0ZM31 1L31 6L36 6L36 1ZM32 2L32 5L35 5L35 2ZM0 30L0 37L7 37L7 30ZM1 31L1 36L6 36L6 31ZM2 32L2 35L5 35L5 32Z" fill="#000000"/></g></g></svg>
