<?xml version="1.0" encoding="UTF-8"?>
<svg xmlns="http://www.w3.org/2000/svg" version="1.1" width="300" height="300" viewBox="0 0 300 300"><rect x="0" y="0" width="300" height="300" fill="#ffffff"/><g transform="scale(8.108)"><g transform="translate(0,0)"><path fill-rule="evenodd" d="M8 0L8 1L9 1L9 2L8 2L8 4L9 4L9 5L8 5L8 8L5 8L5 9L4 9L4 8L3 8L3 9L2 9L2 8L1 8L1 9L2 9L2 10L4 10L4 11L3 11L3 12L4 12L4 11L7 11L7 12L6 12L6 13L7 13L7 12L8 12L8 11L9 11L9 13L8 13L8 14L5 14L5 13L2 13L2 11L1 11L1 10L0 10L0 12L1 12L1 13L2 13L2 14L0 14L0 16L1 16L1 17L2 17L2 18L0 18L0 20L1 20L1 19L2 19L2 21L3 21L3 20L4 20L4 23L3 23L3 22L0 22L0 23L2 23L2 25L4 25L4 27L3 27L3 26L2 26L2 27L1 27L1 26L0 26L0 27L1 27L1 28L0 28L0 29L3 29L3 28L4 28L4 27L5 27L5 29L8 29L8 32L9 32L9 33L8 33L8 34L9 34L9 35L8 35L8 36L10 36L10 37L17 37L17 36L16 36L16 34L18 34L18 33L16 33L16 34L14 34L14 33L15 33L15 31L17 31L17 30L18 30L18 29L19 29L19 28L20 28L20 31L22 31L22 32L23 32L23 35L20 35L20 33L21 33L21 34L22 34L22 33L21 33L21 32L20 32L20 33L19 33L19 35L18 35L18 36L22 36L22 37L25 37L25 33L27 33L27 35L26 35L26 36L27 36L27 35L28 35L28 37L29 37L29 35L28 35L28 33L31 33L31 34L32 34L32 35L31 35L31 37L34 37L34 33L33 33L33 28L32 28L32 26L30 26L30 27L29 27L29 26L28 26L28 25L29 25L29 24L30 24L30 25L34 25L34 23L36 23L36 24L35 24L35 25L36 25L36 26L35 26L35 27L34 27L34 28L35 28L35 27L36 27L36 29L35 29L35 30L36 30L36 31L37 31L37 25L36 25L36 24L37 24L37 23L36 23L36 21L37 21L37 20L36 20L36 19L37 19L37 16L36 16L36 15L37 15L37 12L36 12L36 14L35 14L35 12L34 12L34 9L35 9L35 11L37 11L37 8L36 8L36 9L35 9L35 8L33 8L33 9L32 9L32 8L29 8L29 10L28 10L28 9L27 9L27 8L28 8L28 7L29 7L29 4L28 4L28 3L29 3L29 1L28 1L28 0L25 0L25 4L26 4L26 5L27 5L27 6L26 6L26 7L25 7L25 6L24 6L24 5L23 5L23 4L22 4L22 5L21 5L21 6L20 6L20 7L19 7L19 5L20 5L20 4L21 4L21 0L20 0L20 4L19 4L19 5L18 5L18 7L17 7L17 6L16 6L16 8L14 8L14 7L15 7L15 3L14 3L14 2L16 2L16 3L18 3L18 2L19 2L19 0L18 0L18 2L17 2L17 0L16 0L16 1L14 1L14 0L13 0L13 1L12 1L12 0L10 0L10 1L9 1L9 0ZM22 0L22 3L23 3L23 0ZM10 1L10 2L11 2L11 3L10 3L10 4L11 4L11 5L12 5L12 2L11 2L11 1ZM26 2L26 3L28 3L28 2ZM13 4L13 5L14 5L14 4ZM16 4L16 5L17 5L17 4ZM9 5L9 9L10 9L10 8L11 8L11 9L14 9L14 8L13 8L13 7L14 7L14 6L13 6L13 7L12 7L12 6L11 6L11 7L10 7L10 5ZM21 6L21 7L20 7L20 8L19 8L19 7L18 7L18 9L17 9L17 8L16 8L16 9L17 9L17 10L15 10L15 11L14 11L14 10L13 10L13 12L12 12L12 14L11 14L11 12L10 12L10 13L9 13L9 14L8 14L8 15L9 15L9 14L10 14L10 15L11 15L11 16L8 16L8 19L9 19L9 18L10 18L10 17L11 17L11 20L13 20L13 21L12 21L12 22L11 22L11 21L9 21L9 22L11 22L11 23L10 23L10 24L9 24L9 25L10 25L10 24L13 24L13 22L15 22L15 25L14 25L14 26L15 26L15 27L16 27L16 28L17 28L17 29L18 29L18 28L19 28L19 27L20 27L20 28L21 28L21 30L22 30L22 31L23 31L23 32L26 32L26 31L27 31L27 33L28 33L28 31L27 31L27 30L26 30L26 29L27 29L27 28L28 28L28 27L27 27L27 28L25 28L25 27L26 27L26 26L25 26L25 27L23 27L23 26L24 26L24 24L25 24L25 25L26 25L26 24L27 24L27 25L28 25L28 24L27 24L27 23L30 23L30 24L32 24L32 23L30 23L30 22L29 22L29 21L30 21L30 20L31 20L31 22L33 22L33 21L34 21L34 22L35 22L35 21L36 21L36 20L34 20L34 19L35 19L35 18L36 18L36 17L34 17L34 19L32 19L32 18L31 18L31 19L30 19L30 17L28 17L28 16L27 16L27 15L28 15L28 14L27 14L27 13L28 13L28 12L29 12L29 11L28 11L28 10L27 10L27 9L26 9L26 8L27 8L27 7L28 7L28 6L27 6L27 7L26 7L26 8L24 8L24 6L23 6L23 10L21 10L21 7L22 7L22 6ZM5 9L5 10L7 10L7 11L8 11L8 10L7 10L7 9ZM25 9L25 11L24 11L24 12L25 12L25 13L27 13L27 12L28 12L28 11L27 11L27 10L26 10L26 9ZM30 9L30 10L32 10L32 11L30 11L30 12L32 12L32 13L31 13L31 14L29 14L29 16L31 16L31 14L32 14L32 17L33 17L33 14L34 14L34 13L33 13L33 10L32 10L32 9ZM17 10L17 11L18 11L18 12L16 12L16 13L14 13L14 12L13 12L13 14L12 14L12 15L14 15L14 14L16 14L16 15L17 15L17 16L18 16L18 17L16 17L16 16L14 16L14 17L13 17L13 16L11 16L11 17L13 17L13 20L14 20L14 18L15 18L15 17L16 17L16 19L15 19L15 20L18 20L18 21L17 21L17 22L16 22L16 23L18 23L18 22L19 22L19 23L20 23L20 21L21 21L21 22L22 22L22 21L23 21L23 22L24 22L24 19L23 19L23 17L22 17L22 19L20 19L20 16L19 16L19 15L18 15L18 14L20 14L20 15L21 15L21 16L26 16L26 17L25 17L25 18L26 18L26 20L27 20L27 16L26 16L26 15L27 15L27 14L26 14L26 15L24 15L24 14L22 14L22 13L23 13L23 11L21 11L21 12L22 12L22 13L18 13L18 12L20 12L20 11L19 11L19 10ZM26 11L26 12L27 12L27 11ZM16 13L16 14L18 14L18 13ZM4 14L4 15L3 15L3 16L2 16L2 17L3 17L3 18L4 18L4 17L5 17L5 14ZM21 14L21 15L22 15L22 14ZM6 15L6 16L7 16L7 15ZM34 15L34 16L35 16L35 15ZM6 17L6 18L5 18L5 19L4 19L4 20L5 20L5 22L7 22L7 23L6 23L6 24L5 24L5 23L4 23L4 24L5 24L5 25L6 25L6 26L7 26L7 25L6 25L6 24L7 24L7 23L8 23L8 21L6 21L6 20L7 20L7 19L6 19L6 18L7 18L7 17ZM18 17L18 18L17 18L17 19L18 19L18 18L19 18L19 17ZM22 19L22 20L23 20L23 19ZM28 19L28 20L29 20L29 19ZM31 19L31 20L32 20L32 21L33 21L33 20L32 20L32 19ZM25 21L25 24L26 24L26 23L27 23L27 21ZM21 23L21 25L20 25L20 24L16 24L16 25L15 25L15 26L16 26L16 25L18 25L18 27L19 27L19 26L21 26L21 27L22 27L22 26L21 26L21 25L23 25L23 24L22 24L22 23ZM0 24L0 25L1 25L1 24ZM12 25L12 26L10 26L10 27L9 27L9 28L10 28L10 31L11 31L11 32L10 32L10 33L9 33L9 34L10 34L10 36L11 36L11 35L12 35L12 34L13 34L13 32L12 32L12 31L11 31L11 30L13 30L13 31L15 31L15 30L16 30L16 29L15 29L15 28L13 28L13 29L12 29L12 28L11 28L11 27L13 27L13 25ZM2 27L2 28L3 28L3 27ZM6 27L6 28L8 28L8 27ZM22 28L22 29L23 29L23 30L24 30L24 29L23 29L23 28ZM13 29L13 30L15 30L15 29ZM29 29L29 32L32 32L32 29ZM30 30L30 31L31 31L31 30ZM18 31L18 32L19 32L19 31ZM34 31L34 32L35 32L35 31ZM10 33L10 34L11 34L11 33ZM35 33L35 34L36 34L36 35L37 35L37 33ZM14 35L14 36L15 36L15 35ZM32 35L32 36L33 36L33 35ZM35 36L35 37L37 37L37 36ZM0 0L0 7L7 7L7 0ZM1 1L1 6L6 6L6 1ZM2 2L2 5L5 5L5 2ZM30 0L30 7L37 7L37 0ZM31 1L31 6L36 6L36 1ZM32 2L32 5L35 5L35 2ZM0 30L0 37L7 37L7 30ZM1 31L1 36L6 36L6 31ZM2 32L2 35L5 35L5 32Z" fill="#000000"/></g></g></svg>
