<?xml version="1.0" encoding="UTF-8"?>
<svg xmlns="http://www.w3.org/2000/svg" version="1.1" width="300" height="300" viewBox="0 0 300 300"><rect x="0" y="0" width="300" height="300" fill="#ffffff"/><g transform="scale(8.108)"><g transform="translate(0,0)"><path fill-rule="evenodd" d="M8 0L8 1L9 1L9 0ZM11 0L11 1L10 1L10 3L9 3L9 4L8 4L8 7L9 7L9 9L10 9L10 7L11 7L11 6L12 6L12 7L13 7L13 8L12 8L12 9L13 9L13 8L14 8L14 11L16 11L16 10L17 10L17 13L16 13L16 12L14 12L14 13L12 13L12 12L13 12L13 10L11 10L11 11L9 11L9 10L8 10L8 8L1 8L1 12L0 12L0 13L1 13L1 15L2 15L2 16L4 16L4 15L5 15L5 14L3 14L3 15L2 15L2 13L3 13L3 12L5 12L5 13L7 13L7 14L6 14L6 15L7 15L7 16L5 16L5 17L4 17L4 18L3 18L3 17L2 17L2 18L1 18L1 21L0 21L0 29L1 29L1 24L4 24L4 26L2 26L2 27L3 27L3 28L4 28L4 27L5 27L5 25L7 25L7 26L6 26L6 27L7 27L7 26L8 26L8 27L9 27L9 23L7 23L7 22L6 22L6 21L8 21L8 22L10 22L10 24L11 24L11 23L12 23L12 22L14 22L14 21L15 21L15 20L14 20L14 19L15 19L15 18L13 18L13 16L14 16L14 14L15 14L15 13L16 13L16 15L15 15L15 17L16 17L16 18L17 18L17 19L16 19L16 22L17 22L17 23L15 23L15 24L17 24L17 25L15 25L15 26L13 26L13 25L14 25L14 24L12 24L12 25L10 25L10 28L11 28L11 29L12 29L12 30L10 30L10 29L9 29L9 28L8 28L8 36L10 36L10 35L11 35L11 37L15 37L15 36L16 36L16 35L17 35L17 34L18 34L18 36L19 36L19 33L21 33L21 34L20 34L20 35L21 35L21 36L20 36L20 37L22 37L22 36L23 36L23 37L25 37L25 36L26 36L26 37L27 37L27 36L29 36L29 37L31 37L31 36L33 36L33 37L37 37L37 34L36 34L36 36L33 36L33 35L30 35L30 34L33 34L33 32L34 32L34 33L36 33L36 32L37 32L37 30L36 30L36 29L37 29L37 26L36 26L36 24L34 24L34 22L32 22L32 21L33 21L33 20L34 20L34 21L36 21L36 22L35 22L35 23L36 23L36 22L37 22L37 18L35 18L35 19L36 19L36 20L34 20L34 19L33 19L33 20L32 20L32 18L30 18L30 19L31 19L31 20L30 20L30 21L29 21L29 20L27 20L27 19L29 19L29 18L27 18L27 19L26 19L26 20L27 20L27 21L26 21L26 22L27 22L27 23L26 23L26 24L27 24L27 25L23 25L23 24L22 24L22 23L23 23L23 22L22 22L22 21L20 21L20 20L22 20L22 19L23 19L23 17L22 17L22 16L25 16L25 17L24 17L24 18L25 18L25 17L26 17L26 16L25 16L25 15L28 15L28 11L29 11L29 12L30 12L30 13L29 13L29 16L27 16L27 17L31 17L31 16L32 16L32 17L33 17L33 18L34 18L34 17L37 17L37 14L36 14L36 13L35 13L35 14L32 14L32 13L33 13L33 12L34 12L34 11L33 11L33 10L34 10L34 9L33 9L33 8L31 8L31 9L30 9L30 10L28 10L28 9L29 9L29 8L28 8L28 7L29 7L29 5L26 5L26 4L29 4L29 3L28 3L28 2L29 2L29 1L27 1L27 0L25 0L25 1L23 1L23 2L22 2L22 0L21 0L21 1L20 1L20 3L19 3L19 0L16 0L16 1L17 1L17 2L15 2L15 3L17 3L17 2L18 2L18 4L19 4L19 5L20 5L20 3L23 3L23 4L21 4L21 5L22 5L22 7L21 7L21 6L20 6L20 7L19 7L19 6L18 6L18 7L19 7L19 9L17 9L17 8L16 8L16 9L15 9L15 8L14 8L14 7L15 7L15 6L14 6L14 7L13 7L13 6L12 6L12 5L15 5L15 4L14 4L14 3L13 3L13 2L11 2L11 1L12 1L12 0ZM13 0L13 1L14 1L14 0ZM24 2L24 3L25 3L25 4L23 4L23 5L25 5L25 4L26 4L26 3L27 3L27 2L26 2L26 3L25 3L25 2ZM12 3L12 4L11 4L11 5L10 5L10 4L9 4L9 7L10 7L10 6L11 6L11 5L12 5L12 4L13 4L13 3ZM16 4L16 5L17 5L17 4ZM16 6L16 7L17 7L17 6ZM23 6L23 7L22 7L22 8L21 8L21 9L19 9L19 10L18 10L18 11L19 11L19 13L18 13L18 14L17 14L17 16L16 16L16 17L17 17L17 18L18 18L18 16L19 16L19 13L20 13L20 14L21 14L21 9L22 9L22 11L23 11L23 12L22 12L22 13L25 13L25 14L22 14L22 15L25 15L25 14L27 14L27 12L26 12L26 10L27 10L27 9L28 9L28 8L27 8L27 7L28 7L28 6L27 6L27 7L26 7L26 6L25 6L25 7L24 7L24 6ZM23 7L23 8L22 8L22 9L23 9L23 10L24 10L24 11L25 11L25 10L24 10L24 9L25 9L25 8L26 8L26 9L27 9L27 8L26 8L26 7L25 7L25 8L24 8L24 7ZM36 8L36 9L35 9L35 10L36 10L36 12L37 12L37 10L36 10L36 9L37 9L37 8ZM4 9L4 10L5 10L5 12L7 12L7 11L6 11L6 10L7 10L7 9ZM31 10L31 11L32 11L32 10ZM8 11L8 12L9 12L9 14L8 14L8 16L9 16L9 15L10 15L10 14L11 14L11 15L12 15L12 16L10 16L10 17L11 17L11 18L10 18L10 19L9 19L9 20L8 20L8 21L11 21L11 22L12 22L12 21L13 21L13 20L10 20L10 19L13 19L13 18L12 18L12 16L13 16L13 15L12 15L12 13L10 13L10 12L9 12L9 11ZM1 12L1 13L2 13L2 12ZM25 12L25 13L26 13L26 12ZM31 12L31 13L30 13L30 15L31 15L31 13L32 13L32 12ZM35 14L35 15L34 15L34 16L33 16L33 15L32 15L32 16L33 16L33 17L34 17L34 16L36 16L36 14ZM20 15L20 16L21 16L21 15ZM6 17L6 18L5 18L5 19L6 19L6 20L7 20L7 19L6 19L6 18L8 18L8 17ZM19 17L19 18L20 18L20 17ZM2 18L2 21L1 21L1 23L2 23L2 22L4 22L4 23L6 23L6 24L7 24L7 23L6 23L6 22L4 22L4 21L5 21L5 20L4 20L4 19L3 19L3 18ZM17 19L17 21L18 21L18 22L19 22L19 23L18 23L18 24L19 24L19 23L20 23L20 24L21 24L21 25L20 25L20 27L19 27L19 25L18 25L18 26L17 26L17 27L16 27L16 28L14 28L14 27L13 27L13 26L12 26L12 27L11 27L11 28L12 28L12 27L13 27L13 29L16 29L16 28L17 28L17 29L18 29L18 30L17 30L17 31L18 31L18 33L19 33L19 31L20 31L20 32L23 32L23 33L22 33L22 35L23 35L23 34L25 34L25 33L24 33L24 32L26 32L26 33L27 33L27 32L26 32L26 30L25 30L25 29L24 29L24 28L26 28L26 29L27 29L27 31L28 31L28 27L29 27L29 28L34 28L34 29L35 29L35 28L36 28L36 26L35 26L35 28L34 28L34 27L33 27L33 26L34 26L34 24L33 24L33 23L31 23L31 24L32 24L32 25L31 25L31 26L32 26L32 27L29 27L29 26L27 26L27 28L26 28L26 26L23 26L23 25L22 25L22 24L21 24L21 23L20 23L20 21L18 21L18 20L19 20L19 19ZM24 19L24 20L25 20L25 19ZM3 20L3 21L4 21L4 20ZM31 20L31 21L30 21L30 22L29 22L29 21L27 21L27 22L29 22L29 23L27 23L27 24L28 24L28 25L30 25L30 24L29 24L29 23L30 23L30 22L31 22L31 21L32 21L32 20ZM24 21L24 22L25 22L25 21ZM24 23L24 24L25 24L25 23ZM22 26L22 27L23 27L23 26ZM17 27L17 28L18 28L18 29L19 29L19 30L21 30L21 29L23 29L23 30L22 30L22 31L23 31L23 32L24 32L24 31L23 31L23 30L24 30L24 29L23 29L23 28L19 28L19 27ZM5 28L5 29L7 29L7 28ZM29 29L29 32L32 32L32 29ZM9 30L9 31L10 31L10 32L9 32L9 33L10 33L10 32L12 32L12 33L13 33L13 35L12 35L12 34L11 34L11 35L12 35L12 36L13 36L13 35L14 35L14 36L15 36L15 35L14 35L14 34L15 34L15 33L16 33L16 31L14 31L14 32L12 32L12 31L10 31L10 30ZM30 30L30 31L31 31L31 30ZM34 30L34 32L35 32L35 31L36 31L36 30ZM28 33L28 34L27 34L27 35L26 35L26 36L27 36L27 35L29 35L29 36L30 36L30 35L29 35L29 34L30 34L30 33ZM24 35L24 36L25 36L25 35ZM0 0L0 7L7 7L7 0ZM1 1L1 6L6 6L6 1ZM2 2L2 5L5 5L5 2ZM30 0L30 7L37 7L37 0ZM31 1L31 6L36 6L36 1ZM32 2L32 5L35 5L35 2ZM0 30L0 37L7 37L7 30ZM1 31L1 36L6 36L6 31ZM2 32L2 35L5 35L5 32Z" fill="#000000"/></g></g></svg>
