<?xml version="1.0" encoding="UTF-8"?>
<svg xmlns="http://www.w3.org/2000/svg" version="1.1" width="300" height="300" viewBox="0 0 300 300"><rect x="0" y="0" width="300" height="300" fill="#ffffff"/><g transform="scale(8.108)"><g transform="translate(0,0)"><path fill-rule="evenodd" d="M8 0L8 1L9 1L9 0ZM11 0L11 1L12 1L12 0ZM13 0L13 1L15 1L15 3L13 3L13 2L11 2L11 4L10 4L10 7L9 7L9 4L8 4L8 7L9 7L9 9L8 9L8 8L1 8L1 9L0 9L0 10L2 10L2 11L1 11L1 12L2 12L2 13L3 13L3 12L4 12L4 13L5 13L5 12L4 12L4 11L5 11L5 10L6 10L6 11L7 11L7 10L9 10L9 11L8 11L8 12L6 12L6 13L7 13L7 14L6 14L6 15L7 15L7 14L8 14L8 18L6 18L6 17L7 17L7 16L5 16L5 17L4 17L4 15L5 15L5 14L4 14L4 15L0 15L0 17L1 17L1 18L0 18L0 29L1 29L1 24L2 24L2 23L1 23L1 21L2 21L2 22L4 22L4 23L5 23L5 22L6 22L6 23L7 23L7 22L6 22L6 21L8 21L8 22L11 22L11 23L10 23L10 24L12 24L12 25L9 25L9 24L8 24L8 25L9 25L9 26L5 26L5 25L7 25L7 24L5 24L5 25L4 25L4 26L2 26L2 27L3 27L3 29L4 29L4 28L5 28L5 29L7 29L7 28L5 28L5 27L8 27L8 28L11 28L11 27L12 27L12 25L13 25L13 27L15 27L15 28L16 28L16 27L19 27L19 28L18 28L18 29L17 29L17 30L16 30L16 29L14 29L14 28L12 28L12 32L13 32L13 30L14 30L14 32L16 32L16 31L17 31L17 33L18 33L18 34L16 34L16 35L15 35L15 33L11 33L11 32L10 32L10 31L11 31L11 29L8 29L8 36L9 36L9 37L10 37L10 36L11 36L11 37L14 37L14 36L16 36L16 35L17 35L17 36L18 36L18 37L19 37L19 36L18 36L18 34L19 34L19 33L21 33L21 34L20 34L20 35L21 35L21 36L20 36L20 37L22 37L22 36L23 36L23 37L25 37L25 36L26 36L26 37L27 37L27 36L29 36L29 37L32 37L32 36L31 36L31 35L30 35L30 36L29 36L29 35L27 35L27 33L28 33L28 34L35 34L35 33L36 33L36 32L37 32L37 30L36 30L36 29L37 29L37 26L36 26L36 24L33 24L33 25L34 25L34 26L33 26L33 27L34 27L34 28L31 28L31 27L32 27L32 26L31 26L31 25L32 25L32 23L31 23L31 22L30 22L30 21L33 21L33 22L35 22L35 23L36 23L36 22L37 22L37 18L36 18L36 17L37 17L37 14L36 14L36 13L37 13L37 10L36 10L36 9L37 9L37 8L36 8L36 9L35 9L35 10L36 10L36 12L35 12L35 14L34 14L34 13L33 13L33 12L34 12L34 11L33 11L33 10L34 10L34 9L33 9L33 8L31 8L31 9L30 9L30 10L28 10L28 9L29 9L29 8L28 8L28 7L29 7L29 6L28 6L28 5L29 5L29 4L28 4L28 3L29 3L29 2L28 2L28 1L27 1L27 0L25 0L25 1L22 1L22 0L21 0L21 1L20 1L20 3L17 3L17 4L16 4L16 1L18 1L18 2L19 2L19 0L16 0L16 1L15 1L15 0ZM21 1L21 2L22 2L22 3L20 3L20 5L18 5L18 4L17 4L17 5L16 5L16 6L15 6L15 5L13 5L13 3L12 3L12 6L11 6L11 8L10 8L10 9L11 9L11 10L10 10L10 12L11 12L11 13L9 13L9 12L8 12L8 13L9 13L9 15L10 15L10 14L11 14L11 16L10 16L10 17L9 17L9 18L10 18L10 19L13 19L13 20L10 20L10 21L11 21L11 22L12 22L12 24L14 24L14 26L15 26L15 24L16 24L16 25L19 25L19 24L20 24L20 23L19 23L19 22L21 22L21 21L22 21L22 23L23 23L23 24L21 24L21 26L19 26L19 27L21 27L21 28L20 28L20 29L19 29L19 30L17 30L17 31L18 31L18 33L19 33L19 31L21 31L21 32L23 32L23 33L22 33L22 35L23 35L23 34L25 34L25 33L24 33L24 32L23 32L23 31L24 31L24 30L23 30L23 29L25 29L25 28L26 28L26 29L27 29L27 31L28 31L28 27L29 27L29 28L30 28L30 26L27 26L27 28L26 28L26 26L25 26L25 25L27 25L27 24L26 24L26 23L27 23L27 22L29 22L29 23L28 23L28 25L30 25L30 24L29 24L29 23L30 23L30 22L29 22L29 21L30 21L30 20L33 20L33 21L34 21L34 20L36 20L36 18L33 18L33 17L34 17L34 16L36 16L36 14L35 14L35 15L34 15L34 14L33 14L33 13L32 13L32 12L31 12L31 13L30 13L30 12L29 12L29 11L28 11L28 15L27 15L27 11L26 11L26 10L27 10L27 9L26 9L26 8L27 8L27 7L28 7L28 6L27 6L27 7L26 7L26 6L25 6L25 7L24 7L24 6L23 6L23 7L22 7L22 6L21 6L21 7L20 7L20 5L21 5L21 4L23 4L23 5L25 5L25 4L26 4L26 5L28 5L28 4L26 4L26 3L27 3L27 2L26 2L26 3L25 3L25 2L24 2L24 3L25 3L25 4L23 4L23 2L22 2L22 1ZM9 2L9 3L10 3L10 2ZM12 6L12 8L11 8L11 9L12 9L12 10L13 10L13 11L11 11L11 12L13 12L13 16L12 16L12 18L13 18L13 19L14 19L14 21L13 21L13 22L15 22L15 23L17 23L17 24L19 24L19 23L18 23L18 22L19 22L19 21L20 21L20 20L22 20L22 18L23 18L23 17L24 17L24 18L25 18L25 17L26 17L26 16L25 16L25 15L26 15L26 14L25 14L25 13L26 13L26 12L25 12L25 9L24 9L24 7L23 7L23 8L22 8L22 7L21 7L21 8L22 8L22 9L21 9L21 13L20 13L20 11L19 11L19 12L18 12L18 11L17 11L17 12L18 12L18 13L16 13L16 12L13 12L13 11L14 11L14 10L15 10L15 11L16 11L16 10L17 10L17 8L19 8L19 6L18 6L18 7L17 7L17 6L16 6L16 7L17 7L17 8L16 8L16 9L15 9L15 8L14 8L14 7L15 7L15 6L14 6L14 7L13 7L13 6ZM25 7L25 8L26 8L26 7ZM12 8L12 9L13 9L13 10L14 10L14 8ZM4 9L4 10L5 10L5 9ZM6 9L6 10L7 10L7 9ZM18 9L18 10L19 10L19 9ZM22 9L22 11L24 11L24 10L23 10L23 9ZM31 10L31 11L32 11L32 10ZM22 12L22 13L25 13L25 12ZM11 13L11 14L12 14L12 13ZM14 13L14 15L15 15L15 16L14 16L14 17L13 17L13 18L14 18L14 19L15 19L15 20L16 20L16 21L15 21L15 22L16 22L16 21L19 21L19 20L16 20L16 19L18 19L18 18L16 18L16 17L18 17L18 16L19 16L19 18L20 18L20 16L19 16L19 14L17 14L17 16L16 16L16 13ZM29 13L29 15L28 15L28 16L27 16L27 17L31 17L31 15L32 15L32 17L33 17L33 16L34 16L34 15L32 15L32 13L31 13L31 15L30 15L30 13ZM22 14L22 15L23 15L23 16L22 16L22 17L21 17L21 18L22 18L22 17L23 17L23 16L24 16L24 17L25 17L25 16L24 16L24 14ZM1 16L1 17L3 17L3 18L4 18L4 17L3 17L3 16ZM15 16L15 17L14 17L14 18L15 18L15 19L16 19L16 18L15 18L15 17L16 17L16 16ZM10 17L10 18L11 18L11 17ZM27 18L27 19L26 19L26 20L27 20L27 21L26 21L26 22L27 22L27 21L29 21L29 20L30 20L30 19L31 19L31 18L30 18L30 19L28 19L28 18ZM32 18L32 19L33 19L33 20L34 20L34 19L33 19L33 18ZM3 19L3 21L4 21L4 19ZM5 19L5 20L7 20L7 19ZM24 19L24 20L25 20L25 19ZM24 21L24 22L25 22L25 21ZM35 21L35 22L36 22L36 21ZM24 23L24 25L22 25L22 27L23 27L23 26L24 26L24 27L25 27L25 26L24 26L24 25L25 25L25 23ZM9 26L9 27L10 27L10 26ZM35 26L35 27L36 27L36 26ZM21 28L21 29L23 29L23 28ZM34 28L34 29L33 29L33 30L34 30L34 32L33 32L33 33L34 33L34 32L35 32L35 31L36 31L36 30L35 30L35 29L36 29L36 28ZM29 29L29 32L32 32L32 29ZM9 30L9 31L10 31L10 30ZM15 30L15 31L16 31L16 30ZM22 30L22 31L23 31L23 30ZM25 30L25 32L26 32L26 33L27 33L27 32L26 32L26 30ZM30 30L30 31L31 31L31 30ZM9 32L9 36L10 36L10 35L12 35L12 36L13 36L13 35L12 35L12 34L10 34L10 32ZM36 34L36 36L33 36L33 37L37 37L37 34ZM24 35L24 36L25 36L25 35ZM26 35L26 36L27 36L27 35ZM0 0L0 7L7 7L7 0ZM1 1L1 6L6 6L6 1ZM2 2L2 5L5 5L5 2ZM30 0L30 7L37 7L37 0ZM31 1L31 6L36 6L36 1ZM32 2L32 5L35 5L35 2ZM0 30L0 37L7 37L7 30ZM1 31L1 36L6 36L6 31ZM2 32L2 35L5 35L5 32Z" fill="#000000"/></g></g></svg>
