<?xml version="1.0" encoding="UTF-8"?>
<svg xmlns="http://www.w3.org/2000/svg" version="1.1" width="300" height="300" viewBox="0 0 300 300"><rect x="0" y="0" width="300" height="300" fill="#ffffff"/><g transform="scale(8.108)"><g transform="translate(0,0)"><path fill-rule="evenodd" d="M8 0L8 1L9 1L9 2L10 2L10 3L9 3L9 4L8 4L8 7L9 7L9 8L14 8L14 9L12 9L12 10L11 10L11 9L8 9L8 8L1 8L1 9L0 9L0 10L1 10L1 11L2 11L2 13L3 13L3 12L4 12L4 13L5 13L5 14L4 14L4 15L3 15L3 16L2 16L2 14L1 14L1 13L0 13L0 16L1 16L1 17L2 17L2 19L3 19L3 20L2 20L2 21L1 21L1 20L0 20L0 29L1 29L1 24L2 24L2 25L3 25L3 24L6 24L6 25L7 25L7 26L2 26L2 27L3 27L3 28L6 28L6 29L8 29L8 36L9 36L9 35L10 35L10 36L11 36L11 37L13 37L13 36L12 36L12 35L13 35L13 34L14 34L14 35L15 35L15 33L18 33L18 34L17 34L17 36L18 36L18 37L19 37L19 33L21 33L21 34L20 34L20 35L21 35L21 36L20 36L20 37L22 37L22 36L23 36L23 37L25 37L25 36L26 36L26 37L28 37L28 36L29 36L29 35L28 35L28 36L26 36L26 35L27 35L27 34L31 34L31 35L30 35L30 36L33 36L33 37L37 37L37 34L36 34L36 36L33 36L33 35L32 35L32 34L35 34L35 33L36 33L36 32L37 32L37 30L36 30L36 29L37 29L37 28L36 28L36 27L37 27L37 26L35 26L35 25L36 25L36 24L33 24L33 25L34 25L34 26L33 26L33 27L34 27L34 28L29 28L29 27L32 27L32 26L31 26L31 25L32 25L32 23L31 23L31 22L30 22L30 21L33 21L33 20L34 20L34 21L36 21L36 22L35 22L35 23L36 23L36 22L37 22L37 18L35 18L35 17L37 17L37 14L36 14L36 13L37 13L37 10L36 10L36 9L37 9L37 8L36 8L36 9L35 9L35 10L36 10L36 11L35 11L35 14L36 14L36 16L32 16L32 17L33 17L33 18L32 18L32 19L30 19L30 21L29 21L29 19L28 19L28 18L29 18L29 17L31 17L31 15L30 15L30 13L33 13L33 12L34 12L34 11L33 11L33 10L34 10L34 9L33 9L33 8L31 8L31 9L30 9L30 11L29 11L29 10L28 10L28 9L29 9L29 8L26 8L26 7L27 7L27 6L28 6L28 7L29 7L29 6L28 6L28 5L26 5L26 4L29 4L29 3L26 3L26 2L29 2L29 0L28 0L28 1L26 1L26 0L25 0L25 1L23 1L23 3L22 3L22 2L21 2L21 1L22 1L22 0L21 0L21 1L20 1L20 3L19 3L19 0L18 0L18 2L17 2L17 3L16 3L16 1L14 1L14 0L13 0L13 1L14 1L14 2L11 2L11 1L12 1L12 0L11 0L11 1L10 1L10 0ZM14 2L14 3L13 3L13 4L14 4L14 5L13 5L13 7L14 7L14 8L15 8L15 7L16 7L16 8L19 8L19 9L18 9L18 10L16 10L16 11L15 11L15 10L14 10L14 12L13 12L13 10L12 10L12 12L13 12L13 14L15 14L15 16L13 16L13 15L12 15L12 14L11 14L11 16L10 16L10 17L11 17L11 18L9 18L9 19L13 19L13 18L15 18L15 19L17 19L17 20L18 20L18 19L19 19L19 18L20 18L20 16L21 16L21 12L20 12L20 13L19 13L19 12L18 12L18 11L20 11L20 10L21 10L21 9L23 9L23 8L21 8L21 7L22 7L22 6L23 6L23 7L24 7L24 9L25 9L25 10L22 10L22 11L23 11L23 12L22 12L22 13L23 13L23 12L24 12L24 11L25 11L25 12L26 12L26 13L24 13L24 14L22 14L22 15L23 15L23 16L22 16L22 17L23 17L23 19L22 19L22 20L20 20L20 22L19 22L19 21L16 21L16 20L14 20L14 21L15 21L15 22L12 22L12 21L13 21L13 20L11 20L11 21L9 21L9 20L8 20L8 21L6 21L6 20L7 20L7 19L6 19L6 20L5 20L5 21L6 21L6 22L5 22L5 23L6 23L6 24L7 24L7 23L6 23L6 22L8 22L8 21L9 21L9 22L10 22L10 23L9 23L9 24L10 24L10 25L8 25L8 27L10 27L10 28L8 28L8 29L10 29L10 28L12 28L12 29L11 29L11 31L10 31L10 30L9 30L9 31L10 31L10 32L9 32L9 33L10 33L10 32L11 32L11 31L12 31L12 33L14 33L14 32L13 32L13 31L12 31L12 29L13 29L13 28L14 28L14 29L17 29L17 27L18 27L18 28L20 28L20 29L21 29L21 30L19 30L19 29L18 29L18 30L17 30L17 31L16 31L16 32L17 32L17 31L18 31L18 33L19 33L19 32L20 32L20 31L21 31L21 32L23 32L23 33L22 33L22 35L23 35L23 34L25 34L25 33L24 33L24 32L23 32L23 31L25 31L25 32L26 32L26 30L23 30L23 29L25 29L25 28L26 28L26 29L27 29L27 31L28 31L28 27L29 27L29 26L27 26L27 28L26 28L26 26L25 26L25 28L23 28L23 27L24 27L24 26L23 26L23 25L27 25L27 24L26 24L26 23L27 23L27 22L28 22L28 23L30 23L30 22L29 22L29 21L27 21L27 20L28 20L28 19L27 19L27 18L28 18L28 17L29 17L29 16L28 16L28 15L29 15L29 13L30 13L30 12L31 12L31 11L32 11L32 10L31 10L31 11L30 11L30 12L29 12L29 11L28 11L28 15L27 15L27 11L25 11L25 10L27 10L27 9L26 9L26 8L25 8L25 7L26 7L26 6L25 6L25 7L24 7L24 6L23 6L23 5L25 5L25 4L26 4L26 3L25 3L25 2L24 2L24 3L25 3L25 4L22 4L22 3L20 3L20 4L22 4L22 6L21 6L21 7L20 7L20 5L19 5L19 3L17 3L17 4L16 4L16 3L15 3L15 2ZM10 3L10 4L9 4L9 7L10 7L10 5L11 5L11 7L12 7L12 4L11 4L11 3ZM14 3L14 4L15 4L15 3ZM16 5L16 7L17 7L17 6L18 6L18 7L19 7L19 6L18 6L18 5ZM14 6L14 7L15 7L15 6ZM4 9L4 12L5 12L5 13L6 13L6 14L5 14L5 15L4 15L4 16L3 16L3 17L5 17L5 16L7 16L7 15L6 15L6 14L7 14L7 13L6 13L6 12L9 12L9 15L10 15L10 12L9 12L9 11L10 11L10 10L9 10L9 11L5 11L5 9ZM6 9L6 10L7 10L7 9ZM19 9L19 10L20 10L20 9ZM14 12L14 13L15 13L15 14L16 14L16 16L17 16L17 14L19 14L19 16L18 16L18 17L16 17L16 18L17 18L17 19L18 19L18 18L19 18L19 16L20 16L20 14L19 14L19 13L17 13L17 12ZM25 14L25 15L24 15L24 16L25 16L25 17L24 17L24 18L25 18L25 17L26 17L26 16L25 16L25 15L26 15L26 14ZM32 14L32 15L33 15L33 14ZM11 16L11 17L12 17L12 18L13 18L13 16ZM27 16L27 17L28 17L28 16ZM6 17L6 18L8 18L8 17ZM0 18L0 19L1 19L1 18ZM34 18L34 20L36 20L36 19L35 19L35 18ZM24 19L24 20L25 20L25 19ZM26 19L26 20L27 20L27 19ZM32 19L32 20L33 20L33 19ZM3 20L3 21L4 21L4 20ZM21 21L21 22L22 22L22 21ZM24 21L24 22L25 22L25 21ZM26 21L26 22L27 22L27 21ZM1 22L1 23L2 23L2 24L3 24L3 22ZM11 22L11 23L12 23L12 25L13 25L13 27L12 27L12 26L11 26L11 25L10 25L10 26L11 26L11 27L12 27L12 28L13 28L13 27L14 27L14 24L13 24L13 23L12 23L12 22ZM15 22L15 28L16 28L16 27L17 27L17 25L18 25L18 27L19 27L19 25L20 25L20 24L22 24L22 25L23 25L23 23L20 23L20 24L19 24L19 25L18 25L18 23L19 23L19 22L18 22L18 23L17 23L17 25L16 25L16 22ZM24 23L24 24L25 24L25 23ZM28 24L28 25L30 25L30 24ZM20 26L20 27L21 27L21 26ZM22 26L22 27L23 27L23 26ZM6 27L6 28L7 28L7 27ZM21 28L21 29L23 29L23 28ZM34 28L34 29L33 29L33 31L34 31L34 32L33 32L33 33L34 33L34 32L35 32L35 31L36 31L36 30L35 30L35 29L36 29L36 28ZM29 29L29 32L32 32L32 29ZM14 30L14 31L15 31L15 30ZM22 30L22 31L23 31L23 30ZM30 30L30 31L31 31L31 30ZM26 33L26 34L27 34L27 33ZM31 33L31 34L32 34L32 33ZM10 34L10 35L12 35L12 34ZM24 35L24 36L25 36L25 35ZM0 0L0 7L7 7L7 0ZM1 1L1 6L6 6L6 1ZM2 2L2 5L5 5L5 2ZM30 0L30 7L37 7L37 0ZM31 1L31 6L36 6L36 1ZM32 2L32 5L35 5L35 2ZM0 30L0 37L7 37L7 30ZM1 31L1 36L6 36L6 31ZM2 32L2 35L5 35L5 32Z" fill="#000000"/></g></g></svg>
