<?xml version="1.0" encoding="UTF-8"?>
<svg xmlns="http://www.w3.org/2000/svg" version="1.1" width="300" height="300" viewBox="0 0 300 300"><rect x="0" y="0" width="300" height="300" fill="#ffffff"/><g transform="scale(8.108)"><g transform="translate(0,0)"><path fill-rule="evenodd" d="M10 0L10 1L11 1L11 0ZM16 0L16 2L15 2L15 3L13 3L13 2L9 2L9 1L8 1L8 2L9 2L9 3L8 3L8 5L9 5L9 4L10 4L10 3L11 3L11 5L10 5L10 9L11 9L11 10L6 10L6 11L7 11L7 12L5 12L5 9L7 9L7 8L3 8L3 9L4 9L4 10L3 10L3 11L2 11L2 8L1 8L1 10L0 10L0 14L1 14L1 15L2 15L2 16L0 16L0 18L1 18L1 20L0 20L0 29L1 29L1 27L2 27L2 29L3 29L3 27L7 27L7 28L4 28L4 29L7 29L7 28L9 28L9 29L8 29L8 30L9 30L9 29L10 29L10 30L11 30L11 31L13 31L13 33L12 33L12 32L11 32L11 34L10 34L10 35L8 35L8 36L9 36L9 37L11 37L11 36L10 36L10 35L14 35L14 37L15 37L15 36L16 36L16 37L17 37L17 36L18 36L18 35L17 35L17 34L19 34L19 33L20 33L20 34L21 34L21 35L22 35L22 34L23 34L23 33L22 33L22 31L21 31L21 30L23 30L23 32L24 32L24 33L25 33L25 34L24 34L24 35L25 35L25 36L24 36L24 37L26 37L26 34L29 34L29 36L28 36L28 35L27 35L27 37L29 37L29 36L30 36L30 37L31 37L31 36L30 36L30 34L32 34L32 35L33 35L33 36L32 36L32 37L34 37L34 36L36 36L36 37L37 37L37 34L35 34L35 33L36 33L36 32L37 32L37 30L35 30L35 29L36 29L36 28L37 28L37 26L36 26L36 25L33 25L33 24L32 24L32 23L31 23L31 22L29 22L29 21L31 21L31 19L32 19L32 22L33 22L33 23L34 23L34 24L36 24L36 23L35 23L35 21L36 21L36 22L37 22L37 18L36 18L36 17L37 17L37 14L36 14L36 13L37 13L37 12L36 12L36 13L35 13L35 11L34 11L34 13L35 13L35 14L34 14L34 17L33 17L33 18L34 18L34 19L35 19L35 18L36 18L36 20L35 20L35 21L33 21L33 19L32 19L32 18L29 18L29 17L31 17L31 15L32 15L32 16L33 16L33 15L32 15L32 14L33 14L33 13L31 13L31 12L33 12L33 11L31 11L31 10L32 10L32 9L34 9L34 10L35 10L35 9L36 9L36 8L35 8L35 9L34 9L34 8L32 8L32 9L31 9L31 8L29 8L29 9L28 9L28 10L27 10L27 4L25 4L25 3L24 3L24 2L25 2L25 1L24 1L24 0L18 0L18 1L17 1L17 0ZM26 0L26 1L27 1L27 0ZM20 1L20 2L22 2L22 3L23 3L23 2L22 2L22 1ZM16 2L16 3L15 3L15 5L12 5L12 6L11 6L11 7L12 7L12 6L13 6L13 8L11 8L11 9L12 9L12 10L11 10L11 11L9 11L9 12L8 12L8 13L4 13L4 15L5 15L5 16L4 16L4 18L3 18L3 16L2 16L2 19L3 19L3 21L4 21L4 19L5 19L5 20L7 20L7 21L5 21L5 22L4 22L4 23L5 23L5 22L7 22L7 23L6 23L6 24L3 24L3 23L2 23L2 22L1 22L1 23L2 23L2 24L3 24L3 25L4 25L4 26L7 26L7 27L10 27L10 28L11 28L11 27L12 27L12 28L15 28L15 29L11 29L11 30L13 30L13 31L15 31L15 32L14 32L14 33L13 33L13 34L14 34L14 33L15 33L15 32L17 32L17 30L18 30L18 33L19 33L19 32L21 32L21 31L19 31L19 29L20 29L20 28L19 28L19 27L18 27L18 26L16 26L16 25L15 25L15 26L14 26L14 24L15 24L15 23L16 23L16 24L17 24L17 25L19 25L19 24L21 24L21 25L22 25L22 23L23 23L23 22L24 22L24 23L25 23L25 24L24 24L24 25L25 25L25 26L27 26L27 27L25 27L25 28L24 28L24 29L23 29L23 30L24 30L24 29L25 29L25 28L26 28L26 32L25 32L25 31L24 31L24 32L25 32L25 33L26 33L26 32L28 32L28 30L27 30L27 29L28 29L28 28L32 28L32 27L33 27L33 26L31 26L31 27L28 27L28 25L25 25L25 24L26 24L26 22L27 22L27 19L26 19L26 21L25 21L25 20L24 20L24 19L25 19L25 18L27 18L27 17L28 17L28 15L29 15L29 13L27 13L27 14L25 14L25 13L26 13L26 12L28 12L28 11L27 11L27 10L26 10L26 9L25 9L25 8L26 8L26 6L25 6L25 7L24 7L24 5L25 5L25 4L24 4L24 5L23 5L23 7L22 7L22 6L21 6L21 5L20 5L20 4L19 4L19 2ZM27 2L27 3L28 3L28 7L29 7L29 3L28 3L28 2ZM12 3L12 4L13 4L13 3ZM16 3L16 5L15 5L15 6L14 6L14 8L13 8L13 9L15 9L15 6L16 6L16 8L18 8L18 10L17 10L17 11L16 11L16 10L15 10L15 12L12 12L12 11L11 11L11 12L9 12L9 13L8 13L8 16L6 16L6 17L8 17L8 18L9 18L9 17L10 17L10 16L9 16L9 14L12 14L12 17L11 17L11 18L10 18L10 19L11 19L11 20L10 20L10 21L11 21L11 22L10 22L10 24L6 24L6 25L7 25L7 26L8 26L8 25L9 25L9 26L10 26L10 27L11 27L11 26L12 26L12 27L13 27L13 25L11 25L11 26L10 26L10 24L11 24L11 22L12 22L12 21L11 21L11 20L13 20L13 22L14 22L14 23L15 23L15 22L17 22L17 21L18 21L18 23L17 23L17 24L19 24L19 21L18 21L18 20L19 20L19 17L20 17L20 18L21 18L21 17L22 17L22 16L21 16L21 15L23 15L23 14L24 14L24 16L23 16L23 19L24 19L24 18L25 18L25 17L27 17L27 16L25 16L25 14L24 14L24 13L25 13L25 12L21 12L21 13L22 13L22 14L21 14L21 15L20 15L20 13L16 13L16 12L17 12L17 11L18 11L18 10L21 10L21 11L22 11L22 10L21 10L21 6L20 6L20 7L19 7L19 5L18 5L18 7L17 7L17 3ZM8 6L8 9L9 9L9 6ZM23 7L23 8L22 8L22 9L23 9L23 11L24 11L24 10L25 10L25 9L24 9L24 7ZM19 8L19 9L20 9L20 8ZM29 9L29 10L30 10L30 9ZM13 10L13 11L14 11L14 10ZM36 10L36 11L37 11L37 10ZM1 11L1 13L3 13L3 12L4 12L4 11L3 11L3 12L2 12L2 11ZM19 11L19 12L20 12L20 11ZM29 11L29 12L30 12L30 11ZM11 12L11 13L12 13L12 14L13 14L13 17L16 17L16 16L19 16L19 14L15 14L15 15L14 15L14 13L12 13L12 12ZM30 13L30 15L31 15L31 13ZM6 14L6 15L7 15L7 14ZM27 14L27 15L28 15L28 14ZM35 14L35 17L36 17L36 14ZM15 15L15 16L16 16L16 15ZM8 16L8 17L9 17L9 16ZM20 16L20 17L21 17L21 16ZM24 16L24 17L25 17L25 16ZM17 17L17 18L18 18L18 17ZM6 18L6 19L7 19L7 18ZM12 18L12 19L13 19L13 20L14 20L14 19L16 19L16 18L14 18L14 19L13 19L13 18ZM28 19L28 21L29 21L29 19ZM1 20L1 21L2 21L2 20ZM15 20L15 21L16 21L16 20ZM20 20L20 21L21 21L21 20ZM22 20L22 22L21 22L21 23L22 23L22 22L23 22L23 20ZM8 21L8 23L9 23L9 21ZM24 21L24 22L25 22L25 21ZM28 22L28 23L27 23L27 24L30 24L30 23L29 23L29 22ZM12 23L12 24L13 24L13 23ZM31 24L31 25L32 25L32 24ZM15 26L15 27L16 27L16 29L15 29L15 30L16 30L16 29L18 29L18 28L17 28L17 27L16 27L16 26ZM21 26L21 27L24 27L24 26ZM34 26L34 29L33 29L33 31L34 31L34 33L32 33L32 34L33 34L33 35L34 35L34 33L35 33L35 31L34 31L34 29L35 29L35 27L36 27L36 26ZM27 27L27 28L28 28L28 27ZM29 29L29 32L32 32L32 29ZM30 30L30 31L31 31L31 30ZM8 31L8 34L9 34L9 31ZM21 33L21 34L22 34L22 33ZM15 34L15 35L16 35L16 34ZM12 36L12 37L13 37L13 36ZM19 36L19 37L20 37L20 36ZM21 36L21 37L23 37L23 36ZM0 0L0 7L7 7L7 0ZM1 1L1 6L6 6L6 1ZM2 2L2 5L5 5L5 2ZM30 0L30 7L37 7L37 0ZM31 1L31 6L36 6L36 1ZM32 2L32 5L35 5L35 2ZM0 30L0 37L7 37L7 30ZM1 31L1 36L6 36L6 31ZM2 32L2 35L5 35L5 32Z" fill="#000000"/></g></g></svg>
