<?xml version="1.0" encoding="UTF-8"?>
<svg xmlns="http://www.w3.org/2000/svg" version="1.1" width="300" height="300" viewBox="0 0 300 300"><rect x="0" y="0" width="300" height="300" fill="#ffffff"/><g transform="scale(8.108)"><g transform="translate(0,0)"><path fill-rule="evenodd" d="M11 0L11 1L12 1L12 0ZM15 0L15 1L14 1L14 2L15 2L15 3L14 3L14 4L16 4L16 5L17 5L17 6L16 6L16 8L15 8L15 9L16 9L16 10L15 10L15 11L14 11L14 7L15 7L15 5L13 5L13 3L12 3L12 5L13 5L13 6L12 6L12 7L13 7L13 9L10 9L10 8L11 8L11 6L10 6L10 8L8 8L8 12L6 12L6 11L7 11L7 10L6 10L6 11L5 11L5 10L0 10L0 12L1 12L1 13L0 13L0 16L1 16L1 17L0 17L0 19L1 19L1 18L2 18L2 16L5 16L5 18L4 18L4 17L3 17L3 19L2 19L2 20L1 20L1 21L0 21L0 22L2 22L2 23L1 23L1 24L0 24L0 26L2 26L2 27L3 27L3 28L0 28L0 29L3 29L3 28L4 28L4 26L5 26L5 25L7 25L7 26L6 26L6 27L5 27L5 28L6 28L6 29L8 29L8 30L9 30L9 29L10 29L10 30L11 30L11 31L9 31L9 32L8 32L8 33L10 33L10 34L9 34L9 35L8 35L8 36L9 36L9 35L12 35L12 36L11 36L11 37L12 37L12 36L13 36L13 35L12 35L12 34L13 34L13 33L12 33L12 30L13 30L13 29L16 29L16 28L17 28L17 30L16 30L16 31L13 31L13 32L14 32L14 33L15 33L15 32L16 32L16 36L17 36L17 34L20 34L20 35L21 35L21 36L22 36L22 35L23 35L23 34L21 34L21 33L18 33L18 32L21 32L21 31L20 31L20 30L22 30L22 29L23 29L23 31L22 31L22 33L23 33L23 31L24 31L24 30L25 30L25 29L23 29L23 27L25 27L25 25L27 25L27 24L28 24L28 23L30 23L30 22L28 22L28 21L31 21L31 23L32 23L32 22L33 22L33 21L36 21L36 23L33 23L33 24L32 24L32 25L31 25L31 24L30 24L30 25L28 25L28 27L30 27L30 28L27 28L27 26L26 26L26 28L27 28L27 29L26 29L26 33L27 33L27 29L28 29L28 35L27 35L27 34L25 34L25 35L24 35L24 36L23 36L23 37L26 37L26 35L27 35L27 37L28 37L28 35L29 35L29 36L30 36L30 35L31 35L31 37L33 37L33 36L32 36L32 35L31 35L31 33L33 33L33 28L31 28L31 27L32 27L32 26L33 26L33 27L34 27L34 26L35 26L35 25L36 25L36 24L37 24L37 20L36 20L36 19L33 19L33 21L31 21L31 19L32 19L32 18L34 18L34 17L37 17L37 16L36 16L36 13L37 13L37 12L36 12L36 13L35 13L35 15L33 15L33 17L32 17L32 16L29 16L29 15L28 15L28 14L27 14L27 12L29 12L29 13L31 13L31 14L30 14L30 15L31 15L31 14L33 14L33 13L34 13L34 12L35 12L35 11L36 11L36 9L35 9L35 8L34 8L34 9L35 9L35 10L34 10L34 11L33 11L33 10L32 10L32 11L28 11L28 10L27 10L27 9L26 9L26 7L27 7L27 6L26 6L26 7L25 7L25 5L23 5L23 6L22 6L22 5L21 5L21 6L20 6L20 7L21 7L21 8L19 8L19 9L23 9L23 10L21 10L21 12L22 12L22 11L24 11L24 12L25 12L25 11L26 11L26 14L27 14L27 15L26 15L26 17L24 17L24 15L25 15L25 13L22 13L22 14L21 14L21 16L22 16L22 15L23 15L23 17L22 17L22 18L23 18L23 19L21 19L21 18L20 18L20 16L19 16L19 15L20 15L20 14L19 14L19 13L20 13L20 10L19 10L19 11L18 11L18 9L17 9L17 6L18 6L18 7L19 7L19 6L18 6L18 4L19 4L19 5L20 5L20 3L23 3L23 2L24 2L24 3L26 3L26 5L28 5L28 3L29 3L29 1L28 1L28 0L27 0L27 1L28 1L28 3L26 3L26 2L25 2L25 1L23 1L23 2L20 2L20 1L21 1L21 0ZM9 1L9 2L8 2L8 3L9 3L9 4L8 4L8 7L9 7L9 4L10 4L10 5L11 5L11 4L10 4L10 1ZM15 1L15 2L18 2L18 3L17 3L17 4L18 4L18 3L20 3L20 2L18 2L18 1ZM13 6L13 7L14 7L14 6ZM21 6L21 7L22 7L22 6ZM23 6L23 8L24 8L24 9L25 9L25 8L24 8L24 6ZM28 6L28 9L30 9L30 10L31 10L31 9L33 9L33 8L31 8L31 9L30 9L30 8L29 8L29 6ZM1 8L1 9L2 9L2 8ZM4 8L4 9L5 9L5 8ZM6 8L6 9L7 9L7 8ZM9 10L9 11L11 11L11 12L8 12L8 13L5 13L5 11L4 11L4 12L2 12L2 11L1 11L1 12L2 12L2 13L1 13L1 15L3 15L3 13L4 13L4 15L5 15L5 14L9 14L9 15L6 15L6 16L7 16L7 17L6 17L6 18L7 18L7 17L8 17L8 18L9 18L9 19L10 19L10 17L11 17L11 18L12 18L12 16L11 16L11 14L12 14L12 15L13 15L13 17L14 17L14 16L15 16L15 15L16 15L16 18L14 18L14 19L11 19L11 20L9 20L9 23L6 23L6 24L7 24L7 25L8 25L8 24L9 24L9 25L10 25L10 26L11 26L11 28L10 28L10 27L8 27L8 26L7 26L7 27L6 27L6 28L8 28L8 29L9 29L9 28L10 28L10 29L12 29L12 28L15 28L15 26L16 26L16 27L17 27L17 26L18 26L18 28L20 28L20 29L18 29L18 30L20 30L20 29L22 29L22 27L23 27L23 26L21 26L21 24L19 24L19 25L17 25L17 24L16 24L16 23L17 23L17 19L18 19L18 23L19 23L19 22L24 22L24 21L25 21L25 20L26 20L26 19L27 19L27 18L25 18L25 19L24 19L24 20L22 20L22 21L20 21L20 20L19 20L19 18L17 18L17 17L18 17L18 16L17 16L17 14L16 14L16 11L15 11L15 13L14 13L14 11L11 11L11 10ZM17 11L17 12L18 12L18 13L19 13L19 12L18 12L18 11ZM12 12L12 14L14 14L14 15L15 15L15 14L14 14L14 13L13 13L13 12ZM31 12L31 13L33 13L33 12ZM9 13L9 14L10 14L10 13ZM9 15L9 16L10 16L10 15ZM27 16L27 17L28 17L28 18L30 18L30 19L31 19L31 17L28 17L28 16ZM23 17L23 18L24 18L24 17ZM3 19L3 21L4 21L4 22L8 22L8 20L7 20L7 19L6 19L6 20L5 20L5 19ZM14 19L14 20L15 20L15 21L14 21L14 22L15 22L15 23L16 23L16 22L15 22L15 21L16 21L16 20L15 20L15 19ZM28 19L28 20L27 20L27 21L26 21L26 22L25 22L25 23L24 23L24 24L23 24L23 23L22 23L22 25L25 25L25 24L26 24L26 23L27 23L27 21L28 21L28 20L29 20L29 19ZM4 20L4 21L5 21L5 20ZM6 20L6 21L7 21L7 20ZM12 20L12 23L13 23L13 20ZM2 23L2 24L3 24L3 23ZM4 23L4 25L5 25L5 23ZM9 23L9 24L11 24L11 23ZM14 24L14 25L13 25L13 26L15 26L15 25L16 25L16 26L17 26L17 25L16 25L16 24ZM11 25L11 26L12 26L12 25ZM19 26L19 27L20 27L20 28L21 28L21 27L20 27L20 26ZM30 26L30 27L31 27L31 26ZM35 27L35 28L36 28L36 29L34 29L34 33L36 33L36 32L35 32L35 31L36 31L36 29L37 29L37 28L36 28L36 27ZM29 29L29 32L32 32L32 29ZM30 30L30 31L31 31L31 30ZM17 31L17 32L18 32L18 31ZM24 32L24 33L25 33L25 32ZM35 34L35 35L34 35L34 37L37 37L37 36L36 36L36 34ZM19 36L19 37L20 37L20 36ZM0 0L0 7L7 7L7 0ZM1 1L1 6L6 6L6 1ZM2 2L2 5L5 5L5 2ZM30 0L30 7L37 7L37 0ZM31 1L31 6L36 6L36 1ZM32 2L32 5L35 5L35 2ZM0 30L0 37L7 37L7 30ZM1 31L1 36L6 36L6 31ZM2 32L2 35L5 35L5 32Z" fill="#000000"/></g></g></svg>
