<?xml version="1.0" encoding="UTF-8"?>
<svg xmlns="http://www.w3.org/2000/svg" version="1.1" width="300" height="300" viewBox="0 0 300 300"><rect x="0" y="0" width="300" height="300" fill="#ffffff"/><g transform="scale(8.108)"><g transform="translate(0,0)"><path fill-rule="evenodd" d="M8 0L8 5L9 5L9 6L8 6L8 8L6 8L6 9L8 9L8 10L10 10L10 11L9 11L9 12L6 12L6 13L5 13L5 12L4 12L4 11L7 11L7 10L5 10L5 8L4 8L4 9L3 9L3 8L1 8L1 9L2 9L2 10L4 10L4 11L1 11L1 10L0 10L0 13L1 13L1 15L4 15L4 14L3 14L3 13L2 13L2 12L4 12L4 13L5 13L5 14L6 14L6 15L5 15L5 16L3 16L3 17L2 17L2 18L1 18L1 19L2 19L2 18L3 18L3 20L5 20L5 21L3 21L3 22L4 22L4 24L2 24L2 25L1 25L1 24L0 24L0 25L1 25L1 26L0 26L0 27L1 27L1 28L0 28L0 29L1 29L1 28L2 28L2 29L3 29L3 28L4 28L4 29L5 29L5 28L4 28L4 27L3 27L3 28L2 28L2 27L1 27L1 26L2 26L2 25L7 25L7 26L5 26L5 27L7 27L7 28L6 28L6 29L7 29L7 28L8 28L8 27L10 27L10 26L13 26L13 28L14 28L14 29L16 29L16 27L15 27L15 28L14 28L14 26L13 26L13 25L15 25L15 26L18 26L18 27L17 27L17 28L20 28L20 30L21 30L21 31L22 31L22 30L21 30L21 28L20 28L20 27L22 27L22 26L23 26L23 24L24 24L24 27L23 27L23 29L24 29L24 27L25 27L25 29L26 29L26 30L27 30L27 31L25 31L25 32L24 32L24 31L23 31L23 34L22 34L22 33L21 33L21 34L22 34L22 35L21 35L21 36L22 36L22 37L25 37L25 35L26 35L26 34L27 34L27 37L31 37L31 36L32 36L32 37L34 37L34 35L33 35L33 30L34 30L34 29L36 29L36 31L37 31L37 28L36 28L36 27L37 27L37 25L36 25L36 24L37 24L37 23L36 23L36 21L37 21L37 20L36 20L36 19L37 19L37 16L36 16L36 15L37 15L37 12L34 12L34 11L37 11L37 8L32 8L32 10L33 10L33 11L32 11L32 12L30 12L30 11L31 11L31 10L30 10L30 9L31 9L31 8L30 8L30 9L29 9L29 12L28 12L28 11L27 11L27 10L28 10L28 9L27 9L27 10L26 10L26 9L25 9L25 12L24 12L24 15L23 15L23 9L24 9L24 8L25 8L25 6L24 6L24 8L22 8L22 7L23 7L23 5L22 5L22 7L21 7L21 3L20 3L20 4L19 4L19 2L21 2L21 0L20 0L20 1L19 1L19 0L18 0L18 1L19 1L19 2L17 2L17 3L18 3L18 5L15 5L15 4L16 4L16 3L15 3L15 4L14 4L14 2L16 2L16 1L14 1L14 0L13 0L13 1L12 1L12 0ZM22 0L22 3L24 3L24 2L23 2L23 0ZM25 0L25 1L26 1L26 2L25 2L25 5L26 5L26 7L27 7L27 6L28 6L28 8L29 8L29 6L28 6L28 5L29 5L29 2L28 2L28 1L29 1L29 0L27 0L27 1L26 1L26 0ZM10 1L10 2L9 2L9 3L10 3L10 4L9 4L9 5L11 5L11 4L12 4L12 5L13 5L13 4L12 4L12 3L11 3L11 1ZM13 1L13 2L14 2L14 1ZM27 2L27 3L28 3L28 2ZM14 5L14 6L13 6L13 9L12 9L12 10L11 10L11 9L10 9L10 10L11 10L11 12L10 12L10 13L9 13L9 14L8 14L8 13L6 13L6 14L7 14L7 15L6 15L6 16L7 16L7 15L8 15L8 17L10 17L10 16L9 16L9 14L10 14L10 15L13 15L13 16L14 16L14 17L12 17L12 16L11 16L11 17L12 17L12 18L8 18L8 19L6 19L6 18L7 18L7 17L5 17L5 18L4 18L4 19L5 19L5 20L8 20L8 22L9 22L9 21L10 21L10 19L11 19L11 21L12 21L12 20L13 20L13 18L15 18L15 19L14 19L14 21L13 21L13 23L12 23L12 24L11 24L11 22L10 22L10 24L11 24L11 25L12 25L12 24L13 24L13 23L14 23L14 24L15 24L15 23L14 23L14 22L15 22L15 21L17 21L17 22L18 22L18 23L17 23L17 25L18 25L18 24L19 24L19 26L22 26L22 25L21 25L21 24L20 24L20 23L22 23L22 22L23 22L23 23L24 23L24 24L25 24L25 27L27 27L27 28L28 28L28 27L27 27L27 26L26 26L26 24L25 24L25 23L26 23L26 22L25 22L25 21L26 21L26 20L25 20L25 19L26 19L26 18L27 18L27 25L28 25L28 24L29 24L29 26L31 26L31 25L30 25L30 24L33 24L33 23L34 23L34 25L32 25L32 26L33 26L33 27L32 27L32 28L33 28L33 29L34 29L34 27L36 27L36 25L35 25L35 19L36 19L36 17L35 17L35 15L34 15L34 14L35 14L35 13L33 13L33 12L32 12L32 14L30 14L30 12L29 12L29 13L28 13L28 12L27 12L27 11L26 11L26 12L27 12L27 13L26 13L26 14L25 14L25 15L26 15L26 16L27 16L27 17L26 17L26 18L25 18L25 16L23 16L23 17L24 17L24 18L23 18L23 19L24 19L24 20L23 20L23 21L20 21L20 22L18 22L18 21L19 21L19 20L20 20L20 19L21 19L21 18L20 18L20 19L18 19L18 18L19 18L19 17L18 17L18 16L17 16L17 20L15 20L15 19L16 19L16 16L15 16L15 14L14 14L14 13L17 13L17 14L16 14L16 15L19 15L19 13L22 13L22 12L19 12L19 13L18 13L18 12L17 12L17 11L16 11L16 10L13 10L13 9L15 9L15 7L16 7L16 9L17 9L17 8L18 8L18 9L20 9L20 10L18 10L18 11L22 11L22 10L21 10L21 9L20 9L20 8L19 8L19 7L20 7L20 6L19 6L19 5L18 5L18 6L17 6L17 7L16 7L16 6L15 6L15 5ZM9 6L9 7L10 7L10 8L11 8L11 7L12 7L12 6L11 6L11 7L10 7L10 6ZM14 6L14 7L15 7L15 6ZM18 6L18 7L19 7L19 6ZM8 8L8 9L9 9L9 8ZM34 9L34 10L35 10L35 9ZM12 11L12 12L11 12L11 13L10 13L10 14L11 14L11 13L14 13L14 12L13 12L13 11ZM27 13L27 14L26 14L26 15L27 15L27 16L28 16L28 15L27 15L27 14L28 14L28 13ZM20 14L20 15L22 15L22 14ZM29 14L29 15L30 15L30 14ZM32 14L32 15L33 15L33 18L32 18L32 17L31 17L31 16L29 16L29 18L28 18L28 22L29 22L29 18L30 18L30 23L31 23L31 22L32 22L32 20L31 20L31 18L32 18L32 19L33 19L33 22L34 22L34 19L33 19L33 18L34 18L34 15L33 15L33 14ZM20 16L20 17L22 17L22 16ZM8 19L8 20L9 20L9 19ZM0 20L0 21L1 21L1 22L0 22L0 23L1 23L1 22L2 22L2 20ZM6 21L6 22L7 22L7 21ZM23 21L23 22L24 22L24 21ZM6 23L6 24L8 24L8 23ZM34 25L34 26L35 26L35 25ZM7 26L7 27L8 27L8 26ZM11 27L11 28L9 28L9 29L8 29L8 31L9 31L9 32L8 32L8 33L10 33L10 35L9 35L9 34L8 34L8 36L9 36L9 37L10 37L10 35L11 35L11 33L12 33L12 32L14 32L14 33L13 33L13 34L12 34L12 36L11 36L11 37L12 37L12 36L14 36L14 35L15 35L15 34L16 34L16 33L17 33L17 34L18 34L18 35L16 35L16 36L18 36L18 37L19 37L19 36L20 36L20 35L19 35L19 34L20 34L20 33L19 33L19 34L18 34L18 32L20 32L20 31L18 31L18 32L16 32L16 33L15 33L15 31L17 31L17 30L15 30L15 31L14 31L14 30L13 30L13 31L12 31L12 29L11 29L11 28L12 28L12 27ZM29 27L29 28L30 28L30 27ZM27 29L27 30L28 30L28 29ZM29 29L29 32L32 32L32 29ZM10 30L10 33L11 33L11 32L12 32L12 31L11 31L11 30ZM30 30L30 31L31 31L31 30ZM27 32L27 34L29 34L29 33L28 33L28 32ZM35 32L35 34L36 34L36 35L35 35L35 37L37 37L37 36L36 36L36 35L37 35L37 33L36 33L36 32ZM14 33L14 34L15 34L15 33ZM25 33L25 34L26 34L26 33ZM30 33L30 36L31 36L31 35L32 35L32 36L33 36L33 35L32 35L32 33ZM18 35L18 36L19 36L19 35ZM23 35L23 36L24 36L24 35ZM0 0L0 7L7 7L7 0ZM1 1L1 6L6 6L6 1ZM2 2L2 5L5 5L5 2ZM30 0L30 7L37 7L37 0ZM31 1L31 6L36 6L36 1ZM32 2L32 5L35 5L35 2ZM0 30L0 37L7 37L7 30ZM1 31L1 36L6 36L6 31ZM2 32L2 35L5 35L5 32Z" fill="#000000"/></g></g></svg>
