<?xml version="1.0" encoding="UTF-8"?>
<svg xmlns="http://www.w3.org/2000/svg" version="1.1" width="300" height="300" viewBox="0 0 300 300"><rect x="0" y="0" width="300" height="300" fill="#ffffff"/><g transform="scale(8.108)"><g transform="translate(0,0)"><path fill-rule="evenodd" d="M8 0L8 1L9 1L9 0ZM10 0L10 3L11 3L11 2L12 2L12 3L13 3L13 4L15 4L15 5L13 5L13 6L12 6L12 7L13 7L13 8L14 8L14 9L13 9L13 11L11 11L11 12L9 12L9 11L8 11L8 9L10 9L10 8L11 8L11 9L12 9L12 8L11 8L11 5L12 5L12 4L10 4L10 7L9 7L9 5L8 5L8 8L5 8L5 10L4 10L4 8L3 8L3 9L2 9L2 8L1 8L1 9L0 9L0 11L1 11L1 9L2 9L2 10L4 10L4 11L3 11L3 14L1 14L1 13L2 13L2 12L1 12L1 13L0 13L0 14L1 14L1 15L0 15L0 18L2 18L2 21L1 21L1 22L0 22L0 23L2 23L2 21L5 21L5 20L4 20L4 19L7 19L7 20L6 20L6 21L7 21L7 22L4 22L4 24L2 24L2 25L4 25L4 24L5 24L5 23L7 23L7 24L6 24L6 25L7 25L7 24L8 24L8 25L9 25L9 26L11 26L11 25L15 25L15 26L16 26L16 25L17 25L17 26L18 26L18 27L17 27L17 28L16 28L16 27L14 27L14 26L13 26L13 27L11 27L11 29L12 29L12 28L15 28L15 29L17 29L17 30L18 30L18 29L19 29L19 31L18 31L18 32L19 32L19 35L18 35L18 34L17 34L17 32L16 32L16 35L15 35L15 33L14 33L14 31L13 31L13 33L14 33L14 36L13 36L13 34L12 34L12 35L11 35L11 33L12 33L12 30L11 30L11 31L10 31L10 28L9 28L9 29L8 29L8 32L9 32L9 33L8 33L8 34L9 34L9 33L10 33L10 35L11 35L11 36L10 36L10 37L12 37L12 36L13 36L13 37L14 37L14 36L15 36L15 37L19 37L19 36L22 36L22 37L25 37L25 33L26 33L26 34L27 34L27 35L26 35L26 36L27 36L27 35L28 35L28 37L29 37L29 35L28 35L28 34L27 34L27 33L26 33L26 32L28 32L28 33L32 33L32 34L31 34L31 35L30 35L30 37L31 37L31 35L32 35L32 37L33 37L33 34L36 34L36 35L37 35L37 33L34 33L34 32L35 32L35 30L36 30L36 31L37 31L37 28L36 28L36 29L35 29L35 30L34 30L34 29L33 29L33 28L32 28L32 26L30 26L30 27L29 27L29 26L28 26L28 25L29 25L29 24L30 24L30 25L34 25L34 23L36 23L36 24L35 24L35 25L36 25L36 26L35 26L35 27L34 27L34 28L35 28L35 27L37 27L37 25L36 25L36 24L37 24L37 23L36 23L36 21L37 21L37 20L36 20L36 19L37 19L37 16L36 16L36 15L37 15L37 8L36 8L36 9L35 9L35 8L33 8L33 9L32 9L32 8L29 8L29 5L28 5L28 4L29 4L29 2L28 2L28 1L29 1L29 0L27 0L27 1L26 1L26 0L25 0L25 4L26 4L26 5L27 5L27 6L26 6L26 7L25 7L25 6L24 6L24 5L23 5L23 4L22 4L22 5L21 5L21 4L20 4L20 5L18 5L18 2L19 2L19 0L18 0L18 1L17 1L17 0L16 0L16 3L17 3L17 5L16 5L16 4L15 4L15 2L14 2L14 1L12 1L12 0ZM20 0L20 3L21 3L21 2L22 2L22 1L23 1L23 0L22 0L22 1L21 1L21 0ZM8 2L8 4L9 4L9 2ZM26 2L26 3L27 3L27 2ZM20 5L20 6L19 6L19 8L20 8L20 6L21 6L21 7L22 7L22 6L21 6L21 5ZM13 6L13 7L14 7L14 8L15 8L15 7L16 7L16 9L17 9L17 7L18 7L18 6L17 6L17 7L16 7L16 6L15 6L15 7L14 7L14 6ZM23 6L23 10L21 10L21 9L20 9L20 10L19 10L19 9L18 9L18 10L19 10L19 13L18 13L18 12L17 12L17 10L14 10L14 13L15 13L15 14L14 14L14 15L13 15L13 16L14 16L14 17L15 17L15 18L14 18L14 21L13 21L13 22L12 22L12 21L11 21L11 20L13 20L13 17L11 17L11 16L12 16L12 15L11 15L11 14L12 14L12 13L9 13L9 12L8 12L8 11L6 11L6 12L7 12L7 13L5 13L5 14L4 14L4 17L5 17L5 14L7 14L7 13L8 13L8 15L9 15L9 14L10 14L10 15L11 15L11 16L7 16L7 15L6 15L6 16L7 16L7 17L6 17L6 18L7 18L7 17L8 17L8 19L9 19L9 18L10 18L10 19L11 19L11 20L10 20L10 21L11 21L11 22L9 22L9 23L10 23L10 25L11 25L11 24L12 24L12 23L13 23L13 22L14 22L14 21L16 21L16 19L17 19L17 20L19 20L19 19L18 19L18 18L19 18L19 17L20 17L20 19L22 19L22 20L23 20L23 19L24 19L24 22L23 22L23 21L22 21L22 22L21 22L21 20L20 20L20 23L19 23L19 24L17 24L17 22L16 22L16 23L15 23L15 24L17 24L17 25L20 25L20 29L21 29L21 30L22 30L22 31L21 31L21 33L20 33L20 35L23 35L23 32L22 32L22 31L24 31L24 30L25 30L25 32L26 32L26 31L27 31L27 30L28 30L28 29L26 29L26 28L23 28L23 26L25 26L25 27L26 27L26 26L25 26L25 25L26 25L26 24L27 24L27 25L28 25L28 24L29 24L29 23L30 23L30 24L31 24L31 23L30 23L30 22L29 22L29 21L30 21L30 18L29 18L29 17L30 17L30 16L32 16L32 17L34 17L34 16L35 16L35 15L33 15L33 10L32 10L32 9L30 9L30 10L29 10L29 8L28 8L28 10L27 10L27 9L26 9L26 8L27 8L27 7L28 7L28 6L27 6L27 7L26 7L26 8L25 8L25 9L26 9L26 10L24 10L24 6ZM6 9L6 10L7 10L7 9ZM34 9L34 12L36 12L36 11L35 11L35 9ZM28 10L28 11L27 11L27 12L26 12L26 11L24 11L24 12L25 12L25 13L27 13L27 14L28 14L28 15L29 15L29 12L28 12L28 11L29 11L29 10ZM31 10L31 11L32 11L32 10ZM21 11L21 12L22 12L22 13L20 13L20 14L22 14L22 15L21 15L21 16L23 16L23 15L24 15L24 16L26 16L26 17L25 17L25 18L26 18L26 20L29 20L29 18L28 18L28 19L27 19L27 16L26 16L26 15L24 15L24 14L22 14L22 13L23 13L23 11ZM16 12L16 13L17 13L17 12ZM27 12L27 13L28 13L28 12ZM30 12L30 14L32 14L32 13L31 13L31 12ZM35 13L35 14L36 14L36 13ZM15 14L15 15L16 15L16 14ZM17 14L17 16L16 16L16 17L17 17L17 16L18 16L18 17L19 17L19 16L20 16L20 15L18 15L18 14ZM1 15L1 16L2 16L2 15ZM28 16L28 17L29 17L29 16ZM10 17L10 18L11 18L11 17ZM21 17L21 18L22 18L22 19L23 19L23 17ZM35 17L35 18L36 18L36 17ZM15 18L15 19L16 19L16 18ZM31 18L31 19L32 19L32 20L33 20L33 19L34 19L34 18L33 18L33 19L32 19L32 18ZM34 20L34 22L33 22L33 21L32 21L32 22L33 22L33 23L34 23L34 22L35 22L35 21L36 21L36 20ZM25 21L25 24L26 24L26 23L27 23L27 21ZM22 22L22 23L21 23L21 24L20 24L20 25L22 25L22 26L21 26L21 27L22 27L22 26L23 26L23 25L22 25L22 24L23 24L23 22ZM0 24L0 25L1 25L1 24ZM0 26L0 27L1 27L1 28L0 28L0 29L3 29L3 28L4 28L4 27L7 27L7 28L6 28L6 29L7 29L7 28L8 28L8 27L7 27L7 26L4 26L4 27L3 27L3 26L2 26L2 27L1 27L1 26ZM2 27L2 28L3 28L3 27ZM18 27L18 28L19 28L19 27ZM27 27L27 28L28 28L28 27ZM30 27L30 28L31 28L31 27ZM22 28L22 29L23 29L23 30L24 30L24 29L23 29L23 28ZM29 29L29 32L32 32L32 29ZM15 30L15 31L16 31L16 30ZM30 30L30 31L31 31L31 30ZM19 31L19 32L20 32L20 31ZM10 32L10 33L11 33L11 32ZM21 33L21 34L22 34L22 33ZM8 35L8 36L9 36L9 35ZM17 35L17 36L18 36L18 35ZM35 36L35 37L37 37L37 36ZM0 0L0 7L7 7L7 0ZM1 1L1 6L6 6L6 1ZM2 2L2 5L5 5L5 2ZM30 0L30 7L37 7L37 0ZM31 1L31 6L36 6L36 1ZM32 2L32 5L35 5L35 2ZM0 30L0 37L7 37L7 30ZM1 31L1 36L6 36L6 31ZM2 32L2 35L5 35L5 32Z" fill="#000000"/></g></g></svg>
