<?xml version="1.0" encoding="UTF-8"?>
<svg xmlns="http://www.w3.org/2000/svg" version="1.1" width="300" height="300" viewBox="0 0 300 300"><rect x="0" y="0" width="300" height="300" fill="#ffffff"/><g transform="scale(8.108)"><g transform="translate(0,0)"><path fill-rule="evenodd" d="M11 0L11 1L9 1L9 2L8 2L8 3L9 3L9 2L11 2L11 1L12 1L12 0ZM14 0L14 1L15 1L15 2L16 2L16 3L15 3L15 4L14 4L14 2L13 2L13 3L12 3L12 4L14 4L14 5L10 5L10 4L11 4L11 3L10 3L10 4L8 4L8 7L9 7L9 8L8 8L8 10L6 10L6 9L7 9L7 8L6 8L6 9L5 9L5 8L4 8L4 9L5 9L5 10L2 10L2 12L3 12L3 13L1 13L1 12L0 12L0 13L1 13L1 14L0 14L0 15L1 15L1 17L0 17L0 18L1 18L1 19L0 19L0 20L1 20L1 21L0 21L0 22L1 22L1 21L2 21L2 22L4 22L4 18L6 18L6 19L5 19L5 20L6 20L6 21L5 21L5 24L6 24L6 25L8 25L8 27L9 27L9 29L8 29L8 30L9 30L9 29L11 29L11 31L9 31L9 32L8 32L8 33L9 33L9 34L11 34L11 35L8 35L8 36L10 36L10 37L12 37L12 36L13 36L13 37L14 37L14 36L13 36L13 35L14 35L14 34L15 34L15 35L16 35L16 36L17 36L17 37L18 37L18 36L19 36L19 37L20 37L20 36L19 36L19 34L20 34L20 35L21 35L21 36L22 36L22 35L23 35L23 34L21 34L21 33L20 33L20 32L19 32L19 30L20 30L20 31L21 31L21 30L22 30L22 29L23 29L23 31L22 31L22 33L23 33L23 31L25 31L25 30L24 30L24 29L25 29L25 28L24 28L24 27L25 27L25 25L27 25L27 24L29 24L29 23L30 23L30 22L29 22L29 23L28 23L28 21L32 21L32 22L31 22L31 23L33 23L33 24L32 24L32 25L31 25L31 24L30 24L30 25L28 25L28 27L29 27L29 26L31 26L31 27L32 27L32 26L33 26L33 27L34 27L34 26L35 26L35 27L36 27L36 24L37 24L37 20L36 20L36 17L37 17L37 16L36 16L36 15L35 15L35 14L34 14L34 12L36 12L36 13L37 13L37 11L36 11L36 9L35 9L35 8L34 8L34 9L35 9L35 10L34 10L34 11L33 11L33 10L32 10L32 11L31 11L31 12L29 12L29 11L30 11L30 10L31 10L31 9L33 9L33 8L31 8L31 9L30 9L30 8L28 8L28 7L29 7L29 6L28 6L28 7L27 7L27 6L26 6L26 7L25 7L25 5L23 5L23 3L22 3L22 2L24 2L24 3L26 3L26 5L29 5L29 2L27 2L27 3L26 3L26 2L25 2L25 1L21 1L21 0L17 0L17 1L16 1L16 0ZM26 0L26 1L29 1L29 0ZM17 1L17 3L16 3L16 5L15 5L15 7L14 7L14 6L13 6L13 7L14 7L14 9L12 9L12 10L10 10L10 9L11 9L11 7L12 7L12 6L11 6L11 7L10 7L10 5L9 5L9 7L10 7L10 8L9 8L9 10L10 10L10 11L8 11L8 13L5 13L5 11L4 11L4 13L3 13L3 14L1 14L1 15L3 15L3 16L2 16L2 17L1 17L1 18L2 18L2 19L3 19L3 18L4 18L4 17L5 17L5 16L4 16L4 15L5 15L5 14L7 14L7 15L6 15L6 16L7 16L7 17L6 17L6 18L7 18L7 17L8 17L8 18L10 18L10 19L9 19L9 21L8 21L8 20L7 20L7 19L6 19L6 20L7 20L7 21L6 21L6 22L10 22L10 21L11 21L11 23L12 23L12 20L14 20L14 21L13 21L13 24L12 24L12 25L10 25L10 27L12 27L12 28L14 28L14 27L15 27L15 26L16 26L16 27L17 27L17 29L13 29L13 30L14 30L14 31L15 31L15 32L13 32L13 31L12 31L12 32L11 32L11 33L13 33L13 34L12 34L12 35L11 35L11 36L12 36L12 35L13 35L13 34L14 34L14 33L15 33L15 34L17 34L17 35L18 35L18 33L19 33L19 32L18 32L18 31L16 31L16 30L17 30L17 29L19 29L19 28L18 28L18 27L19 27L19 25L18 25L18 24L20 24L20 22L22 22L22 23L23 23L23 22L24 22L24 21L25 21L25 20L26 20L26 19L27 19L27 18L25 18L25 19L24 19L24 20L22 20L22 21L20 21L20 20L18 20L18 21L17 21L17 20L16 20L16 19L17 19L17 18L18 18L18 19L19 19L19 18L18 18L18 16L17 16L17 17L16 17L16 15L17 15L17 14L16 14L16 15L15 15L15 16L13 16L13 15L12 15L12 14L13 14L13 13L14 13L14 12L13 12L13 11L15 11L15 13L16 13L16 11L15 11L15 10L16 10L16 9L15 9L15 8L16 8L16 6L17 6L17 10L18 10L18 12L17 12L17 13L18 13L18 14L19 14L19 16L20 16L20 18L21 18L21 19L22 19L22 17L23 17L23 18L24 18L24 17L26 17L26 16L27 16L27 15L26 15L26 14L25 14L25 15L24 15L24 16L23 16L23 15L22 15L22 16L21 16L21 14L22 14L22 13L26 13L26 12L27 12L27 14L28 14L28 15L29 15L29 17L28 17L28 18L29 18L29 19L30 19L30 20L32 20L32 21L33 21L33 22L35 22L35 23L36 23L36 21L33 21L33 19L34 19L34 18L35 18L35 17L34 17L34 14L33 14L33 15L32 15L32 14L31 14L31 13L33 13L33 12L31 12L31 13L29 13L29 12L27 12L27 10L28 10L28 11L29 11L29 10L30 10L30 9L28 9L28 8L27 8L27 7L26 7L26 9L27 9L27 10L26 10L26 11L25 11L25 10L24 10L24 12L23 12L23 11L22 11L22 12L21 12L21 11L20 11L20 10L23 10L23 9L20 9L20 10L18 10L18 9L19 9L19 8L21 8L21 7L22 7L22 8L24 8L24 9L25 9L25 8L24 8L24 6L23 6L23 5L22 5L22 3L20 3L20 2L21 2L21 1L20 1L20 2L19 2L19 1ZM17 3L17 4L18 4L18 3ZM19 3L19 5L17 5L17 6L18 6L18 8L19 8L19 5L20 5L20 7L21 7L21 4L20 4L20 3ZM22 6L22 7L23 7L23 6ZM1 8L1 9L2 9L2 8ZM12 10L12 11L13 11L13 10ZM6 11L6 12L7 12L7 11ZM10 11L10 12L9 12L9 14L8 14L8 16L10 16L10 15L9 15L9 14L10 14L10 12L11 12L11 14L12 14L12 13L13 13L13 12L11 12L11 11ZM19 11L19 12L20 12L20 13L19 13L19 14L20 14L20 13L21 13L21 12L20 12L20 11ZM30 14L30 15L31 15L31 14ZM12 16L12 18L11 18L11 17L10 17L10 18L11 18L11 19L10 19L10 20L11 20L11 19L14 19L14 20L15 20L15 19L16 19L16 18L15 18L15 17L13 17L13 16ZM30 16L30 17L29 17L29 18L30 18L30 17L31 17L31 19L32 19L32 18L34 18L34 17L32 17L32 16ZM14 18L14 19L15 19L15 18ZM2 20L2 21L3 21L3 20ZM14 21L14 22L15 22L15 23L16 23L16 24L18 24L18 23L19 23L19 21L18 21L18 22L16 22L16 21ZM26 21L26 22L25 22L25 23L24 23L24 24L22 24L22 25L25 25L25 24L26 24L26 23L27 23L27 21ZM1 23L1 24L0 24L0 26L2 26L2 27L3 27L3 28L0 28L0 29L4 29L4 28L5 28L5 29L7 29L7 28L5 28L5 27L7 27L7 26L5 26L5 25L4 25L4 24L2 24L2 23ZM6 23L6 24L7 24L7 23ZM8 23L8 24L10 24L10 23ZM14 24L14 25L13 25L13 26L12 26L12 27L13 27L13 26L15 26L15 24ZM16 25L16 26L17 26L17 27L18 27L18 26L17 26L17 25ZM20 25L20 26L21 26L21 27L20 27L20 30L21 30L21 29L22 29L22 27L23 27L23 26L21 26L21 25ZM4 26L4 27L5 27L5 26ZM26 26L26 28L27 28L27 29L26 29L26 33L27 33L27 32L28 32L28 34L25 34L25 35L24 35L24 36L23 36L23 37L26 37L26 35L29 35L29 37L31 37L31 36L32 36L32 37L33 37L33 35L31 35L31 33L33 33L33 30L34 30L34 33L36 33L36 32L35 32L35 31L36 31L36 29L37 29L37 28L35 28L35 30L34 30L34 29L33 29L33 28L27 28L27 26ZM29 29L29 32L32 32L32 29ZM27 30L27 31L28 31L28 30ZM30 30L30 31L31 31L31 30ZM16 32L16 33L18 33L18 32ZM24 32L24 33L25 33L25 32ZM29 33L29 35L30 35L30 33ZM35 34L35 35L34 35L34 37L37 37L37 36L36 36L36 34ZM0 0L0 7L7 7L7 0ZM1 1L1 6L6 6L6 1ZM2 2L2 5L5 5L5 2ZM30 0L30 7L37 7L37 0ZM31 1L31 6L36 6L36 1ZM32 2L32 5L35 5L35 2ZM0 30L0 37L7 37L7 30ZM1 31L1 36L6 36L6 31ZM2 32L2 35L5 35L5 32Z" fill="#000000"/></g></g></svg>
