<?xml version="1.0" encoding="UTF-8"?>
<svg xmlns="http://www.w3.org/2000/svg" version="1.1" width="300" height="300" viewBox="0 0 300 300"><rect x="0" y="0" width="300" height="300" fill="#ffffff"/><g transform="scale(8.108)"><g transform="translate(0,0)"><path fill-rule="evenodd" d="M9 0L9 1L8 1L8 2L10 2L10 3L8 3L8 5L9 5L9 6L8 6L8 9L7 9L7 8L3 8L3 9L5 9L5 10L6 10L6 11L5 11L5 12L6 12L6 13L7 13L7 14L6 14L6 15L7 15L7 16L6 16L6 17L8 17L8 18L10 18L10 19L11 19L11 20L12 20L12 21L10 21L10 20L8 20L8 22L9 22L9 21L10 21L10 22L14 22L14 23L15 23L15 24L14 24L14 26L12 26L12 25L11 25L11 24L13 24L13 23L10 23L10 24L9 24L9 23L8 23L8 25L7 25L7 24L6 24L6 25L5 25L5 26L4 26L4 25L2 25L2 23L3 23L3 24L5 24L5 23L3 23L3 22L2 22L2 23L1 23L1 21L4 21L4 22L6 22L6 23L7 23L7 22L6 22L6 21L7 21L7 20L1 20L1 19L2 19L2 16L1 16L1 17L0 17L0 18L1 18L1 19L0 19L0 20L1 20L1 21L0 21L0 29L1 29L1 27L2 27L2 29L4 29L4 28L5 28L5 29L7 29L7 28L8 28L8 30L9 30L9 28L10 28L10 30L12 30L12 31L13 31L13 32L15 32L15 33L14 33L14 34L13 34L13 33L11 33L11 34L9 34L9 31L8 31L8 34L9 34L9 35L8 35L8 36L10 36L10 35L14 35L14 34L15 34L15 36L17 36L17 37L18 37L18 35L16 35L16 34L17 34L17 33L18 33L18 34L19 34L19 33L18 33L18 30L16 30L16 29L17 29L17 28L18 28L18 29L19 29L19 28L18 28L18 27L19 27L19 26L20 26L20 27L21 27L21 28L20 28L20 29L21 29L21 30L19 30L19 32L20 32L20 34L21 34L21 35L22 35L22 34L23 34L23 33L22 33L22 31L21 31L21 30L23 30L23 31L24 31L24 30L25 30L25 32L24 32L24 33L25 33L25 34L24 34L24 35L25 35L25 36L24 36L24 37L26 37L26 33L25 33L25 32L26 32L26 30L27 30L27 28L28 28L28 31L27 31L27 33L29 33L29 36L28 36L28 34L27 34L27 37L29 37L29 36L30 36L30 37L32 37L32 36L30 36L30 34L32 34L32 35L33 35L33 34L35 34L35 35L34 35L34 36L36 36L36 37L37 37L37 34L35 34L35 33L36 33L36 32L37 32L37 30L35 30L35 29L37 29L37 26L35 26L35 25L33 25L33 24L32 24L32 23L34 23L34 24L36 24L36 23L35 23L35 21L36 21L36 22L37 22L37 18L35 18L35 15L34 15L34 14L33 14L33 13L31 13L31 12L33 12L33 11L31 11L31 10L32 10L32 9L34 9L34 10L35 10L35 9L36 9L36 8L35 8L35 9L34 9L34 8L32 8L32 9L31 9L31 8L29 8L29 9L28 9L28 10L27 10L27 4L25 4L25 3L24 3L24 2L25 2L25 1L24 1L24 0L18 0L18 1L17 1L17 0L16 0L16 1L15 1L15 0L14 0L14 1L13 1L13 2L11 2L11 0ZM28 0L28 1L29 1L29 0ZM16 1L16 2L17 2L17 1ZM18 1L18 6L17 6L17 7L16 7L16 6L15 6L15 5L17 5L17 3L16 3L16 4L15 4L15 5L13 5L13 4L11 4L11 3L10 3L10 5L11 5L11 7L10 7L10 6L9 6L9 7L10 7L10 8L11 8L11 11L10 11L10 9L8 9L8 10L7 10L7 9L6 9L6 10L7 10L7 11L6 11L6 12L7 12L7 13L8 13L8 14L7 14L7 15L8 15L8 17L9 17L9 16L10 16L10 18L11 18L11 14L13 14L13 13L11 13L11 14L9 14L9 13L10 13L10 12L11 12L11 11L12 11L12 8L14 8L14 6L15 6L15 7L16 7L16 9L14 9L14 10L13 10L13 12L15 12L15 11L14 11L14 10L16 10L16 11L17 11L17 12L16 12L16 13L14 13L14 15L13 15L13 16L14 16L14 17L13 17L13 18L12 18L12 19L13 19L13 21L14 21L14 22L15 22L15 19L16 19L16 21L17 21L17 19L18 19L18 20L19 20L19 22L18 22L18 24L19 24L19 25L17 25L17 26L16 26L16 24L15 24L15 26L16 26L16 27L13 27L13 28L12 28L12 30L13 30L13 31L14 31L14 30L15 30L15 31L16 31L16 33L17 33L17 31L16 31L16 30L15 30L15 29L16 29L16 27L17 27L17 26L19 26L19 25L20 25L20 26L21 26L21 27L24 27L24 29L23 29L23 30L24 30L24 29L25 29L25 28L27 28L27 27L28 27L28 28L32 28L32 27L33 27L33 26L31 26L31 27L30 27L30 26L29 26L29 27L28 27L28 25L24 25L24 26L23 26L23 24L22 24L22 23L21 23L21 25L20 25L20 24L19 24L19 23L20 23L20 22L22 22L22 20L23 20L23 22L24 22L24 23L25 23L25 24L26 24L26 22L27 22L27 19L26 19L26 21L25 21L25 20L24 20L24 19L25 19L25 18L27 18L27 17L25 17L25 16L26 16L26 15L27 15L27 16L28 16L28 15L29 15L29 13L27 13L27 14L26 14L26 15L25 15L25 16L24 16L24 14L23 14L23 15L21 15L21 14L22 14L22 13L21 13L21 12L24 12L24 13L26 13L26 11L27 11L27 12L28 12L28 11L27 11L27 10L26 10L26 9L25 9L25 8L26 8L26 6L25 6L25 7L24 7L24 5L25 5L25 4L24 4L24 5L23 5L23 7L22 7L22 6L21 6L21 7L20 7L20 5L21 5L21 3L20 3L20 5L19 5L19 1ZM20 1L20 2L22 2L22 3L23 3L23 2L22 2L22 1ZM13 2L13 3L14 3L14 2ZM27 2L27 3L28 3L28 7L29 7L29 2ZM12 5L12 7L13 7L13 5ZM18 6L18 8L19 8L19 9L18 9L18 10L20 10L20 11L19 11L19 12L17 12L17 14L18 14L18 13L19 13L19 12L20 12L20 11L22 11L22 10L20 10L20 7L19 7L19 6ZM23 7L23 8L22 8L22 9L23 9L23 11L24 11L24 12L25 12L25 9L24 9L24 7ZM1 8L1 9L0 9L0 10L1 10L1 12L0 12L0 13L1 13L1 14L2 14L2 13L1 13L1 12L3 12L3 13L4 13L4 12L3 12L3 11L4 11L4 10L3 10L3 11L2 11L2 8ZM29 9L29 10L30 10L30 9ZM36 10L36 11L34 11L34 13L35 13L35 14L36 14L36 17L37 17L37 14L36 14L36 13L37 13L37 12L36 12L36 11L37 11L37 10ZM9 11L9 12L8 12L8 13L9 13L9 12L10 12L10 11ZM30 11L30 12L31 12L31 11ZM35 12L35 13L36 13L36 12ZM30 13L30 15L31 15L31 13ZM3 14L3 17L4 17L4 18L3 18L3 19L4 19L4 18L5 18L5 17L4 17L4 16L5 16L5 15L4 15L4 14ZM15 14L15 15L14 15L14 16L16 16L16 18L17 18L17 17L18 17L18 19L19 19L19 16L17 16L17 15L16 15L16 14ZM27 14L27 15L28 15L28 14ZM21 16L21 17L20 17L20 18L21 18L21 17L22 17L22 16ZM31 16L31 17L29 17L29 20L28 20L28 21L30 21L30 22L32 22L32 19L33 19L33 21L35 21L35 20L36 20L36 19L35 19L35 18L33 18L33 16ZM23 17L23 18L22 18L22 19L24 19L24 18L25 18L25 17ZM6 18L6 19L7 19L7 18ZM13 18L13 19L15 19L15 18ZM30 18L30 21L31 21L31 19L32 19L32 18ZM20 20L20 21L21 21L21 20ZM24 21L24 22L25 22L25 21ZM28 22L28 23L29 23L29 24L30 24L30 23L29 23L29 22ZM31 24L31 25L32 25L32 24ZM6 25L6 26L5 26L5 27L6 27L6 28L7 28L7 27L8 27L8 28L9 28L9 27L10 27L10 28L11 28L11 27L12 27L12 26L11 26L11 25L9 25L9 27L8 27L8 26L7 26L7 25ZM21 25L21 26L22 26L22 25ZM6 26L6 27L7 27L7 26ZM24 26L24 27L27 27L27 26ZM34 26L34 29L35 29L35 26ZM3 27L3 28L4 28L4 27ZM13 28L13 30L14 30L14 28ZM29 29L29 32L32 32L32 29ZM30 30L30 31L31 31L31 30ZM33 30L33 31L34 31L34 33L35 33L35 31L34 31L34 30ZM20 31L20 32L21 32L21 31ZM21 33L21 34L22 34L22 33ZM32 33L32 34L33 34L33 33ZM19 36L19 37L20 37L20 36ZM21 36L21 37L23 37L23 36ZM0 0L0 7L7 7L7 0ZM1 1L1 6L6 6L6 1ZM2 2L2 5L5 5L5 2ZM30 0L30 7L37 7L37 0ZM31 1L31 6L36 6L36 1ZM32 2L32 5L35 5L35 2ZM0 30L0 37L7 37L7 30ZM1 31L1 36L6 36L6 31ZM2 32L2 35L5 35L5 32Z" fill="#000000"/></g></g></svg>
