<?xml version="1.0" encoding="UTF-8"?>
<svg xmlns="http://www.w3.org/2000/svg" version="1.1" width="300" height="300" viewBox="0 0 300 300"><rect x="0" y="0" width="300" height="300" fill="#ffffff"/><g transform="scale(6.122)"><g transform="translate(0,0)"><path fill-rule="evenodd" d="M8 0L8 1L9 1L9 2L10 2L10 1L11 1L11 2L12 2L12 3L11 3L11 4L10 4L10 3L9 3L9 4L8 4L8 7L9 7L9 9L10 9L10 10L11 10L11 11L12 11L12 10L11 10L11 9L10 9L10 7L11 7L11 6L12 6L12 7L13 7L13 6L14 6L14 8L13 8L13 10L15 10L15 11L18 11L18 13L16 13L16 12L12 12L12 13L11 13L11 12L8 12L8 11L9 11L9 10L6 10L6 11L5 11L5 9L8 9L8 8L1 8L1 9L0 9L0 10L1 10L1 14L2 14L2 16L3 16L3 17L4 17L4 19L3 19L3 18L1 18L1 15L0 15L0 18L1 18L1 19L0 19L0 20L1 20L1 21L0 21L0 26L1 26L1 24L2 24L2 29L1 29L1 30L0 30L0 32L1 32L1 31L2 31L2 29L3 29L3 30L5 30L5 29L7 29L7 28L8 28L8 30L6 30L6 31L5 31L5 32L4 32L4 33L3 33L3 32L2 32L2 34L4 34L4 35L3 35L3 36L2 36L2 35L0 35L0 38L1 38L1 40L0 40L0 41L3 41L3 40L4 40L4 39L2 39L2 38L1 38L1 36L2 36L2 37L3 37L3 38L4 38L4 37L3 37L3 36L4 36L4 35L5 35L5 37L7 37L7 36L6 36L6 35L7 35L7 34L6 34L6 33L8 33L8 35L9 35L9 37L8 37L8 38L9 38L9 37L11 37L11 39L10 39L10 40L9 40L9 41L8 41L8 39L7 39L7 38L5 38L5 39L7 39L7 40L6 40L6 41L8 41L8 48L9 48L9 49L10 49L10 48L11 48L11 49L12 49L12 48L13 48L13 46L14 46L14 48L15 48L15 49L18 49L18 46L19 46L19 47L21 47L21 48L20 48L20 49L21 49L21 48L22 48L22 46L23 46L23 45L27 45L27 44L29 44L29 45L28 45L28 46L27 46L27 49L28 49L28 48L29 48L29 49L30 49L30 47L28 47L28 46L31 46L31 47L32 47L32 48L31 48L31 49L32 49L32 48L33 48L33 49L34 49L34 47L37 47L37 48L35 48L35 49L38 49L38 48L40 48L40 49L41 49L41 47L42 47L42 48L43 48L43 47L44 47L44 48L45 48L45 49L49 49L49 45L48 45L48 44L46 44L46 46L45 46L45 43L46 43L46 42L45 42L45 40L46 40L46 41L48 41L48 40L46 40L46 39L49 39L49 38L46 38L46 37L47 37L47 36L48 36L48 37L49 37L49 34L47 34L47 36L46 36L46 34L44 34L44 33L49 33L49 30L48 30L48 31L47 31L47 28L48 28L48 29L49 29L49 26L48 26L48 24L45 24L45 23L46 23L46 22L47 22L47 23L49 23L49 22L47 22L47 20L48 20L48 21L49 21L49 18L47 18L47 17L48 17L48 16L46 16L46 15L49 15L49 14L46 14L46 15L45 15L45 13L44 13L44 12L46 12L46 13L48 13L48 12L46 12L46 11L44 11L44 10L43 10L43 9L45 9L45 8L43 8L43 9L42 9L42 10L41 10L41 12L38 12L38 13L39 13L39 14L36 14L36 13L37 13L37 12L36 12L36 13L35 13L35 14L34 14L34 13L32 13L32 12L33 12L33 11L34 11L34 12L35 12L35 10L36 10L36 11L39 11L39 10L37 10L37 9L38 9L38 7L39 7L39 5L38 5L38 3L35 3L35 2L37 2L37 1L38 1L38 2L39 2L39 4L40 4L40 3L41 3L41 0L40 0L40 1L38 1L38 0L35 0L35 1L31 1L31 0L29 0L29 1L28 1L28 0L26 0L26 1L27 1L27 2L28 2L28 3L25 3L25 1L24 1L24 0L23 0L23 1L22 1L22 0L21 0L21 1L20 1L20 2L17 2L17 3L16 3L16 1L19 1L19 0L16 0L16 1L15 1L15 0ZM12 1L12 2L14 2L14 3L15 3L15 1ZM23 1L23 2L24 2L24 1ZM29 1L29 2L30 2L30 4L32 4L32 5L30 5L30 6L29 6L29 7L28 7L28 6L27 6L27 7L28 7L28 8L27 8L27 9L26 9L26 10L27 10L27 9L28 9L28 8L29 8L29 10L28 10L28 11L26 11L26 12L23 12L23 13L24 13L24 14L23 14L23 15L22 15L22 14L20 14L20 13L19 13L19 15L17 15L17 14L16 14L16 13L14 13L14 14L11 14L11 16L10 16L10 13L6 13L6 12L7 12L7 11L6 11L6 12L5 12L5 13L6 13L6 14L3 14L3 13L4 13L4 12L3 12L3 13L2 13L2 14L3 14L3 15L5 15L5 16L4 16L4 17L6 17L6 18L7 18L7 17L8 17L8 18L10 18L10 19L9 19L9 20L10 20L10 21L8 21L8 20L7 20L7 19L6 19L6 20L5 20L5 19L4 19L4 21L3 21L3 19L1 19L1 20L2 20L2 21L1 21L1 23L2 23L2 24L3 24L3 25L4 25L4 24L3 24L3 22L5 22L5 21L6 21L6 22L10 22L10 23L12 23L12 22L11 22L11 21L12 21L12 20L13 20L13 25L9 25L9 28L11 28L11 29L10 29L10 30L8 30L8 31L10 31L10 30L11 30L11 31L12 31L12 29L13 29L13 32L11 32L11 33L10 33L10 34L11 34L11 37L14 37L14 38L12 38L12 39L11 39L11 41L10 41L10 42L9 42L9 44L10 44L10 42L14 42L14 43L13 43L13 44L12 44L12 43L11 43L11 44L12 44L12 45L13 45L13 44L14 44L14 45L15 45L15 46L16 46L16 47L17 47L17 45L18 45L18 44L17 44L17 43L18 43L18 42L19 42L19 41L21 41L21 40L24 40L24 39L27 39L27 38L28 38L28 39L29 39L29 40L27 40L27 42L28 42L28 43L29 43L29 42L30 42L30 41L29 41L29 40L30 40L30 39L31 39L31 43L33 43L33 44L32 44L32 47L33 47L33 46L35 46L35 44L37 44L37 43L36 43L36 42L38 42L38 43L40 43L40 41L39 41L39 40L41 40L41 39L42 39L42 40L44 40L44 39L46 39L46 38L45 38L45 37L46 37L46 36L45 36L45 35L44 35L44 34L43 34L43 33L44 33L44 32L47 32L47 31L46 31L46 28L47 28L47 27L48 27L48 26L47 26L47 25L45 25L45 27L44 27L44 28L43 28L43 27L42 27L42 28L43 28L43 29L44 29L44 30L43 30L43 31L42 31L42 32L41 32L41 33L42 33L42 34L39 34L39 32L40 32L40 31L41 31L41 30L42 30L42 29L41 29L41 27L40 27L40 24L39 24L39 23L40 23L40 22L41 22L41 21L42 21L42 17L43 17L43 16L42 16L42 15L43 15L43 14L42 14L42 13L40 13L40 14L42 14L42 15L41 15L41 16L39 16L39 17L40 17L40 18L37 18L37 19L35 19L35 18L34 18L34 17L33 17L33 16L34 16L34 14L32 14L32 15L33 15L33 16L31 16L31 14L30 14L30 13L29 13L29 14L27 14L27 13L26 13L26 12L30 12L30 11L31 11L31 12L32 12L32 11L33 11L33 10L35 10L35 9L36 9L36 8L35 8L35 7L36 7L36 6L37 6L37 7L38 7L38 6L37 6L37 4L33 4L33 3L34 3L34 2L33 2L33 3L32 3L32 2L31 2L31 1ZM12 3L12 4L13 4L13 5L12 5L12 6L13 6L13 5L15 5L15 4L13 4L13 3ZM18 3L18 4L17 4L17 5L16 5L16 6L15 6L15 7L16 7L16 6L17 6L17 7L18 7L18 6L19 6L19 8L17 8L17 9L15 9L15 10L17 10L17 9L20 9L20 10L21 10L21 11L19 11L19 10L18 10L18 11L19 11L19 12L21 12L21 11L22 11L22 10L23 10L23 11L24 11L24 10L25 10L25 9L22 9L22 3L21 3L21 4L19 4L19 3ZM23 3L23 4L24 4L24 3ZM28 3L28 5L29 5L29 3ZM9 5L9 7L10 7L10 6L11 6L11 5ZM17 5L17 6L18 6L18 5ZM20 5L20 8L21 8L21 5ZM23 5L23 8L26 8L26 5ZM33 5L33 6L32 6L32 7L31 7L31 6L30 6L30 7L31 7L31 8L30 8L30 10L29 10L29 11L30 11L30 10L32 10L32 9L31 9L31 8L32 8L32 7L33 7L33 8L34 8L34 7L35 7L35 5ZM24 6L24 7L25 7L25 6ZM33 6L33 7L34 7L34 6ZM40 6L40 7L41 7L41 6ZM39 8L39 9L41 9L41 8ZM48 8L48 9L46 9L46 10L48 10L48 11L49 11L49 10L48 10L48 9L49 9L49 8ZM2 9L2 10L3 10L3 11L4 11L4 10L3 10L3 9ZM42 10L42 11L43 11L43 12L44 12L44 11L43 11L43 10ZM25 13L25 17L23 17L23 16L24 16L24 15L23 15L23 16L22 16L22 17L23 17L23 18L25 18L25 19L24 19L24 20L23 20L23 19L22 19L22 18L21 18L21 17L19 17L19 18L21 18L21 19L22 19L22 20L23 20L23 21L21 21L21 20L19 20L19 19L18 19L18 18L17 18L17 17L18 17L18 16L17 16L17 15L16 15L16 16L15 16L15 17L16 17L16 20L15 20L15 21L14 21L14 22L15 22L15 21L16 21L16 24L15 24L15 23L14 23L14 25L13 25L13 26L12 26L12 27L11 27L11 28L12 28L12 27L14 27L14 25L15 25L15 27L16 27L16 29L17 29L17 27L19 27L19 28L18 28L18 30L17 30L17 32L16 32L16 35L15 35L15 36L14 36L14 35L13 35L13 33L14 33L14 32L13 32L13 33L11 33L11 34L12 34L12 36L14 36L14 37L15 37L15 38L14 38L14 39L16 39L16 37L15 37L15 36L16 36L16 35L17 35L17 36L20 36L20 37L21 37L21 36L20 36L20 35L21 35L21 34L22 34L22 39L23 39L23 38L24 38L24 36L23 36L23 34L24 34L24 35L25 35L25 34L24 34L24 32L25 32L25 31L24 31L24 30L25 30L25 29L27 29L27 30L26 30L26 32L28 32L28 33L27 33L27 34L26 34L26 35L27 35L27 36L29 36L29 37L30 37L30 38L29 38L29 39L30 39L30 38L32 38L32 37L31 37L31 36L33 36L33 37L34 37L34 36L33 36L33 34L34 34L34 35L36 35L36 34L34 34L34 33L36 33L36 32L37 32L37 33L38 33L38 31L40 31L40 30L41 30L41 29L40 29L40 28L38 28L38 29L37 29L37 28L36 28L36 26L37 26L37 24L38 24L38 23L39 23L39 22L38 22L38 23L37 23L37 21L41 21L41 20L40 20L40 19L37 19L37 20L36 20L36 21L35 21L35 22L33 22L33 21L32 21L32 22L31 22L31 20L30 20L30 19L32 19L32 20L34 20L34 18L32 18L32 17L31 17L31 18L30 18L30 17L29 17L29 16L30 16L30 14L29 14L29 15L28 15L28 17L27 17L27 18L25 18L25 17L26 17L26 13ZM6 14L6 15L7 15L7 16L6 16L6 17L7 17L7 16L8 16L8 15L9 15L9 14ZM35 14L35 15L36 15L36 16L35 16L35 17L36 17L36 16L37 16L37 17L38 17L38 16L37 16L37 15L36 15L36 14ZM19 15L19 16L20 16L20 15ZM11 16L11 17L10 17L10 18L12 18L12 16ZM13 16L13 17L14 17L14 16ZM16 16L16 17L17 17L17 16ZM41 16L41 17L42 17L42 16ZM44 16L44 17L46 17L46 16ZM28 17L28 20L27 20L27 19L26 19L26 20L27 20L27 21L26 21L26 22L27 22L27 21L29 21L29 19L30 19L30 18L29 18L29 17ZM13 18L13 19L15 19L15 18ZM46 18L46 19L45 19L45 20L44 20L44 21L43 21L43 22L46 22L46 20L47 20L47 18ZM10 19L10 20L12 20L12 19ZM6 20L6 21L7 21L7 20ZM17 20L17 22L18 22L18 23L17 23L17 24L16 24L16 27L17 27L17 25L18 25L18 26L20 26L20 25L19 25L19 23L20 23L20 24L21 24L21 25L22 25L22 23L20 23L20 21L19 21L19 20ZM18 21L18 22L19 22L19 21ZM23 21L23 22L25 22L25 21ZM28 22L28 23L27 23L27 24L28 24L28 25L27 25L27 26L28 26L28 27L27 27L27 28L28 28L28 29L29 29L29 28L30 28L30 29L31 29L31 28L32 28L32 31L31 31L31 30L28 30L28 32L29 32L29 33L30 33L30 31L31 31L31 32L33 32L33 30L35 30L35 31L34 31L34 32L36 32L36 30L35 30L35 27L34 27L34 26L36 26L36 25L34 25L34 23L33 23L33 22L32 22L32 23L31 23L31 22L30 22L30 23L31 23L31 24L32 24L32 25L33 25L33 28L32 28L32 27L31 27L31 26L29 26L29 25L30 25L30 24L29 24L29 22ZM5 23L5 26L8 26L8 23ZM23 23L23 26L26 26L26 23ZM32 23L32 24L33 24L33 23ZM35 23L35 24L37 24L37 23ZM41 23L41 26L44 26L44 23ZM6 24L6 25L7 25L7 24ZM24 24L24 25L25 25L25 24ZM42 24L42 25L43 25L43 24ZM3 26L3 27L4 27L4 28L7 28L7 27L4 27L4 26ZM38 26L38 27L39 27L39 26ZM46 26L46 27L47 27L47 26ZM0 27L0 28L1 28L1 27ZM20 27L20 28L19 28L19 29L20 29L20 30L21 30L21 28L24 28L24 29L22 29L22 31L19 31L19 30L18 30L18 32L17 32L17 33L18 33L18 35L20 35L20 32L22 32L22 33L23 33L23 32L22 32L22 31L23 31L23 30L24 30L24 29L25 29L25 28L24 28L24 27ZM28 27L28 28L29 28L29 27ZM30 27L30 28L31 28L31 27ZM33 28L33 29L34 29L34 28ZM44 28L44 29L45 29L45 28ZM14 29L14 30L15 30L15 29ZM38 29L38 30L37 30L37 31L38 31L38 30L39 30L39 29ZM6 31L6 32L7 32L7 31ZM43 31L43 32L44 32L44 31ZM8 32L8 33L9 33L9 32ZM31 33L31 34L29 34L29 36L30 36L30 35L31 35L31 34L32 34L32 33ZM5 34L5 35L6 35L6 34ZM27 34L27 35L28 35L28 34ZM37 34L37 35L38 35L38 36L39 36L39 38L38 38L38 37L37 37L37 36L35 36L35 37L37 37L37 38L36 38L36 39L35 39L35 38L33 38L33 39L32 39L32 40L34 40L34 39L35 39L35 40L36 40L36 41L38 41L38 40L36 40L36 39L37 39L37 38L38 38L38 39L41 39L41 38L42 38L42 39L44 39L44 37L45 37L45 36L44 36L44 37L42 37L42 36L41 36L41 35L40 35L40 36L39 36L39 34ZM42 34L42 35L43 35L43 34ZM40 36L40 37L41 37L41 36ZM17 37L17 38L18 38L18 39L17 39L17 41L16 41L16 40L15 40L15 41L14 41L14 40L13 40L13 39L12 39L12 40L13 40L13 41L14 41L14 42L15 42L15 43L16 43L16 42L17 42L17 41L18 41L18 40L19 40L19 39L20 39L20 38L19 38L19 37ZM25 37L25 38L26 38L26 37ZM15 41L15 42L16 42L16 41ZM23 41L23 44L26 44L26 41ZM28 41L28 42L29 42L29 41ZM33 41L33 42L34 42L34 41ZM41 41L41 44L44 44L44 41ZM21 42L21 43L19 43L19 44L21 44L21 45L22 45L22 42ZM24 42L24 43L25 43L25 42ZM42 42L42 43L43 43L43 42ZM47 42L47 43L49 43L49 42ZM34 43L34 44L33 44L33 45L34 45L34 44L35 44L35 43ZM10 45L10 47L11 47L11 48L12 48L12 47L11 47L11 45ZM38 45L38 46L37 46L37 47L38 47L38 46L39 46L39 47L40 47L40 46L42 46L42 45L40 45L40 46L39 46L39 45ZM43 45L43 46L44 46L44 47L45 47L45 48L48 48L48 47L47 47L47 46L46 46L46 47L45 47L45 46L44 46L44 45ZM24 46L24 47L23 47L23 48L24 48L24 49L25 49L25 48L26 48L26 47L25 47L25 46ZM24 47L24 48L25 48L25 47ZM0 0L0 7L7 7L7 0ZM1 1L1 6L6 6L6 1ZM2 2L2 5L5 5L5 2ZM42 0L42 7L49 7L49 0ZM43 1L43 6L48 6L48 1ZM44 2L44 5L47 5L47 2ZM0 42L0 49L7 49L7 42ZM1 43L1 48L6 48L6 43ZM2 44L2 47L5 47L5 44Z" fill="#000000"/></g></g></svg>
