<?xml version="1.0" encoding="UTF-8"?>
<svg xmlns="http://www.w3.org/2000/svg" version="1.1" width="300" height="300" viewBox="0 0 300 300"><rect x="0" y="0" width="300" height="300" fill="#ffffff"/><g transform="scale(8.108)"><g transform="translate(0,0)"><path fill-rule="evenodd" d="M8 0L8 1L11 1L11 2L12 2L12 4L9 4L9 3L10 3L10 2L8 2L8 4L9 4L9 5L8 5L8 8L5 8L5 10L4 10L4 8L3 8L3 9L2 9L2 8L1 8L1 9L0 9L0 10L1 10L1 11L2 11L2 10L4 10L4 11L3 11L3 12L4 12L4 13L2 13L2 12L0 12L0 13L2 13L2 14L1 14L1 16L0 16L0 17L2 17L2 18L0 18L0 21L1 21L1 20L4 20L4 19L5 19L5 21L3 21L3 22L0 22L0 23L2 23L2 25L4 25L4 26L5 26L5 28L6 28L6 29L8 29L8 32L9 32L9 33L8 33L8 34L10 34L10 35L8 35L8 36L9 36L9 37L12 37L12 36L13 36L13 37L17 37L17 36L22 36L22 37L25 37L25 33L26 33L26 34L27 34L27 33L26 33L26 32L27 32L27 31L28 31L28 34L29 34L29 33L31 33L31 34L32 34L32 35L34 35L34 34L33 34L33 33L34 33L34 32L35 32L35 31L33 31L33 30L34 30L34 29L33 29L33 28L32 28L32 26L28 26L28 25L29 25L29 24L30 24L30 25L34 25L34 23L36 23L36 24L35 24L35 26L36 26L36 27L34 27L34 28L36 28L36 27L37 27L37 25L36 25L36 24L37 24L37 23L36 23L36 21L37 21L37 20L36 20L36 19L37 19L37 16L36 16L36 15L37 15L37 12L34 12L34 9L35 9L35 11L37 11L37 8L36 8L36 9L35 9L35 8L33 8L33 9L32 9L32 8L29 8L29 6L28 6L28 5L29 5L29 4L28 4L28 3L29 3L29 2L28 2L28 1L29 1L29 0L27 0L27 1L26 1L26 0L25 0L25 4L26 4L26 5L27 5L27 6L26 6L26 7L25 7L25 6L24 6L24 5L23 5L23 4L22 4L22 5L21 5L21 4L19 4L19 3L18 3L18 4L19 4L19 5L17 5L17 6L16 6L16 4L15 4L15 5L13 5L13 1L15 1L15 2L16 2L16 3L17 3L17 2L19 2L19 0L18 0L18 1L15 1L15 0L13 0L13 1L12 1L12 0ZM20 0L20 3L21 3L21 0ZM22 0L22 1L23 1L23 0ZM22 2L22 3L23 3L23 2ZM26 2L26 3L28 3L28 2ZM10 5L10 6L9 6L9 7L10 7L10 6L11 6L11 8L9 8L9 9L11 9L11 10L12 10L12 11L13 11L13 12L15 12L15 14L14 14L14 13L13 13L13 14L14 14L14 15L15 15L15 14L16 14L16 13L17 13L17 14L18 14L18 15L19 15L19 16L20 16L20 19L24 19L24 22L23 22L23 21L22 21L22 22L23 22L23 23L22 23L22 24L23 24L23 25L20 25L20 24L21 24L21 23L20 23L20 22L21 22L21 20L20 20L20 22L19 22L19 21L18 21L18 20L19 20L19 19L18 19L18 20L16 20L16 18L17 18L17 17L18 17L18 18L19 18L19 17L18 17L18 16L15 16L15 17L14 17L14 16L13 16L13 17L12 17L12 16L7 16L7 15L6 15L6 16L7 16L7 17L6 17L6 18L5 18L5 19L6 19L6 20L7 20L7 19L6 19L6 18L7 18L7 17L8 17L8 19L9 19L9 20L8 20L8 21L6 21L6 22L7 22L7 23L4 23L4 22L3 22L3 23L4 23L4 24L5 24L5 26L8 26L8 29L9 29L9 26L10 26L10 28L11 28L11 27L12 27L12 28L14 28L14 29L12 29L12 31L13 31L13 32L12 32L12 33L11 33L11 32L10 32L10 33L11 33L11 35L10 35L10 36L11 36L11 35L12 35L12 34L13 34L13 36L16 36L16 35L17 35L17 34L19 34L19 33L20 33L20 35L23 35L23 32L22 32L22 31L25 31L25 32L26 32L26 31L27 31L27 29L26 29L26 28L25 28L25 27L26 27L26 26L25 26L25 27L24 27L24 28L23 28L23 26L24 26L24 24L25 24L25 25L26 25L26 24L27 24L27 25L28 25L28 24L27 24L27 23L28 23L28 22L29 22L29 23L30 23L30 24L32 24L32 22L33 22L33 23L34 23L34 22L35 22L35 21L36 21L36 20L34 20L34 18L32 18L32 19L30 19L30 17L28 17L28 16L31 16L31 15L32 15L32 17L33 17L33 15L34 15L34 16L35 16L35 14L36 14L36 13L35 13L35 14L34 14L34 13L33 13L33 10L32 10L32 9L30 9L30 10L29 10L29 8L28 8L28 6L27 6L27 7L26 7L26 8L25 8L25 9L26 9L26 10L25 10L25 11L28 11L28 12L27 12L27 13L25 13L25 14L24 14L24 12L23 12L23 13L22 13L22 12L20 12L20 10L21 10L21 11L24 11L24 6L23 6L23 7L22 7L22 6L21 6L21 5L20 5L20 6L19 6L19 8L18 8L18 6L17 6L17 7L16 7L16 6L15 6L15 7L14 7L14 6L13 6L13 7L12 7L12 5ZM20 6L20 8L19 8L19 9L21 9L21 10L23 10L23 8L22 8L22 7L21 7L21 6ZM13 7L13 8L11 8L11 9L12 9L12 10L13 10L13 8L14 8L14 11L15 11L15 10L17 10L17 13L18 13L18 14L19 14L19 15L20 15L20 16L26 16L26 17L25 17L25 18L26 18L26 20L27 20L27 16L26 16L26 15L27 15L27 14L31 14L31 13L32 13L32 12L31 12L31 11L32 11L32 10L30 10L30 12L28 12L28 13L27 13L27 14L26 14L26 15L24 15L24 14L22 14L22 13L21 13L21 14L19 14L19 13L20 13L20 12L19 12L19 13L18 13L18 11L19 11L19 10L17 10L17 9L18 9L18 8L17 8L17 9L16 9L16 8L14 8L14 7ZM26 8L26 9L27 9L27 10L28 10L28 11L29 11L29 10L28 10L28 9L27 9L27 8ZM1 9L1 10L2 10L2 9ZM6 9L6 10L7 10L7 11L5 11L5 13L6 13L6 14L8 14L8 13L9 13L9 14L10 14L10 15L11 15L11 14L12 14L12 13L11 13L11 12L9 12L9 11L8 11L8 10L7 10L7 9ZM6 12L6 13L7 13L7 12ZM2 14L2 15L3 15L3 14ZM4 14L4 16L2 16L2 17L3 17L3 18L2 18L2 19L4 19L4 17L5 17L5 14ZM21 14L21 15L22 15L22 14ZM32 14L32 15L33 15L33 14ZM9 17L9 19L11 19L11 17ZM15 17L15 18L14 18L14 20L13 20L13 21L14 21L14 22L12 22L12 24L13 24L13 25L12 25L12 27L13 27L13 25L15 25L15 26L16 26L16 25L18 25L18 27L17 27L17 29L16 29L16 27L15 27L15 31L16 31L16 30L19 30L19 31L18 31L18 32L19 32L19 31L20 31L20 33L21 33L21 34L22 34L22 33L21 33L21 31L22 31L22 30L19 30L19 28L18 28L18 27L19 27L19 24L18 24L18 23L19 23L19 22L18 22L18 23L17 23L17 24L15 24L15 23L16 23L16 22L15 22L15 21L16 21L16 20L15 20L15 18L16 18L16 17ZM21 17L21 18L23 18L23 17ZM35 17L35 18L36 18L36 17ZM28 19L28 20L29 20L29 21L30 21L30 23L31 23L31 22L32 22L32 21L33 21L33 20L30 20L30 19ZM11 20L11 21L10 21L10 22L11 22L11 21L12 21L12 20ZM8 21L8 22L9 22L9 21ZM25 21L25 24L26 24L26 23L27 23L27 21ZM7 23L7 24L6 24L6 25L9 25L9 24L8 24L8 23ZM0 24L0 25L1 25L1 24ZM0 26L0 27L1 27L1 28L0 28L0 29L3 29L3 28L4 28L4 27L3 27L3 26L2 26L2 27L1 27L1 26ZM20 26L20 27L22 27L22 26ZM2 27L2 28L3 28L3 27ZM6 27L6 28L7 28L7 27ZM27 27L27 28L28 28L28 27ZM22 28L22 29L23 29L23 30L25 30L25 28L24 28L24 29L23 29L23 28ZM29 29L29 32L32 32L32 29ZM35 29L35 30L36 30L36 31L37 31L37 29ZM10 30L10 31L11 31L11 30ZM30 30L30 31L31 31L31 30ZM13 32L13 34L14 34L14 35L16 35L16 34L15 34L15 33L17 33L17 32L15 32L15 33L14 33L14 32ZM35 33L35 34L36 34L36 35L37 35L37 33ZM26 35L26 36L27 36L27 37L29 37L29 35ZM32 36L32 37L33 37L33 36ZM35 36L35 37L37 37L37 36ZM0 0L0 7L7 7L7 0ZM1 1L1 6L6 6L6 1ZM2 2L2 5L5 5L5 2ZM30 0L30 7L37 7L37 0ZM31 1L31 6L36 6L36 1ZM32 2L32 5L35 5L35 2ZM0 30L0 37L7 37L7 30ZM1 31L1 36L6 36L6 31ZM2 32L2 35L5 35L5 32Z" fill="#000000"/></g></g></svg>
