<?xml version="1.0" encoding="UTF-8"?>
<svg xmlns="http://www.w3.org/2000/svg" version="1.1" width="300" height="300" viewBox="0 0 300 300"><rect x="0" y="0" width="300" height="300" fill="#ffffff"/><g transform="scale(8.108)"><g transform="translate(0,0)"><path fill-rule="evenodd" d="M8 0L8 1L9 1L9 2L10 2L10 3L9 3L9 4L8 4L8 7L9 7L9 6L10 6L10 8L11 8L11 6L12 6L12 7L13 7L13 8L14 8L14 9L13 9L13 10L12 10L12 11L11 11L11 9L9 9L9 10L6 10L6 9L8 9L8 8L1 8L1 9L0 9L0 11L1 11L1 10L2 10L2 12L0 12L0 13L2 13L2 14L1 14L1 15L2 15L2 16L1 16L1 17L2 17L2 16L4 16L4 15L5 15L5 14L6 14L6 15L7 15L7 16L5 16L5 17L4 17L4 18L3 18L3 19L2 19L2 18L0 18L0 19L1 19L1 20L3 20L3 21L0 21L0 29L1 29L1 24L3 24L3 23L1 23L1 22L3 22L3 21L7 21L7 22L6 22L6 23L4 23L4 24L5 24L5 26L6 26L6 27L4 27L4 26L2 26L2 27L3 27L3 29L5 29L5 28L6 28L6 29L7 29L7 28L8 28L8 36L9 36L9 37L10 37L10 36L9 36L9 35L10 35L10 34L12 34L12 35L11 35L11 37L12 37L12 35L14 35L14 37L15 37L15 36L16 36L16 37L17 37L17 36L18 36L18 37L19 37L19 36L18 36L18 35L19 35L19 33L21 33L21 34L20 34L20 35L21 35L21 36L20 36L20 37L22 37L22 36L23 36L23 37L25 37L25 36L26 36L26 37L28 37L28 36L29 36L29 35L28 35L28 33L29 33L29 34L33 34L33 35L34 35L34 34L33 34L33 33L36 33L36 32L37 32L37 30L36 30L36 29L37 29L37 28L35 28L35 26L36 26L36 27L37 27L37 26L36 26L36 24L34 24L34 23L33 23L33 24L34 24L34 26L33 26L33 27L34 27L34 28L29 28L29 27L32 27L32 26L31 26L31 25L32 25L32 23L31 23L31 22L30 22L30 21L36 21L36 22L35 22L35 23L36 23L36 22L37 22L37 18L36 18L36 17L37 17L37 14L36 14L36 13L37 13L37 10L36 10L36 9L37 9L37 8L36 8L36 9L35 9L35 10L36 10L36 13L33 13L33 12L34 12L34 11L33 11L33 10L34 10L34 9L33 9L33 8L31 8L31 9L30 9L30 12L29 12L29 13L33 13L33 14L31 14L31 15L30 15L30 14L28 14L28 11L29 11L29 10L28 10L28 9L29 9L29 8L26 8L26 7L27 7L27 6L28 6L28 7L29 7L29 6L28 6L28 5L26 5L26 4L29 4L29 3L28 3L28 2L29 2L29 0L28 0L28 1L26 1L26 0L25 0L25 1L23 1L23 4L21 4L21 3L22 3L22 2L21 2L21 1L22 1L22 0L21 0L21 1L20 1L20 3L19 3L19 2L18 2L18 1L19 1L19 0L17 0L17 1L13 1L13 2L10 2L10 1L9 1L9 0ZM11 0L11 1L12 1L12 0ZM14 2L14 4L17 4L17 5L16 5L16 6L15 6L15 5L12 5L12 4L13 4L13 3L12 3L12 4L11 4L11 5L10 5L10 6L11 6L11 5L12 5L12 6L13 6L13 7L14 7L14 8L15 8L15 9L16 9L16 6L17 6L17 7L18 7L18 6L19 6L19 7L20 7L20 6L21 6L21 7L22 7L22 6L23 6L23 7L24 7L24 9L25 9L25 12L24 12L24 10L22 10L22 11L23 11L23 12L22 12L22 13L25 13L25 14L22 14L22 15L23 15L23 16L22 16L22 17L21 17L21 18L22 18L22 19L23 19L23 20L20 20L20 21L19 21L19 20L17 20L17 19L16 19L16 18L18 18L18 19L19 19L19 18L20 18L20 16L19 16L19 14L20 14L20 15L21 15L21 10L20 10L20 9L23 9L23 8L20 8L20 9L19 9L19 8L17 8L17 9L18 9L18 10L16 10L16 11L14 11L14 12L13 12L13 13L15 13L15 12L17 12L17 11L18 11L18 10L19 10L19 11L20 11L20 13L19 13L19 12L18 12L18 14L17 14L17 13L16 13L16 14L17 14L17 16L15 16L15 15L14 15L14 14L11 14L11 15L12 15L12 16L13 16L13 17L14 17L14 16L15 16L15 17L16 17L16 18L12 18L12 17L11 17L11 16L10 16L10 17L9 17L9 19L10 19L10 20L8 20L8 21L9 21L9 22L10 22L10 23L6 23L6 24L8 24L8 25L6 25L6 26L8 26L8 25L9 25L9 24L10 24L10 26L9 26L9 27L10 27L10 28L9 28L9 29L11 29L11 30L12 30L12 31L10 31L10 30L9 30L9 31L10 31L10 32L9 32L9 34L10 34L10 32L11 32L11 33L13 33L13 34L14 34L14 35L16 35L16 32L15 32L15 31L18 31L18 33L17 33L17 35L18 35L18 33L19 33L19 32L20 32L20 31L21 31L21 32L23 32L23 33L22 33L22 35L23 35L23 34L25 34L25 33L24 33L24 32L26 32L26 30L23 30L23 29L25 29L25 28L26 28L26 29L28 29L28 27L29 27L29 26L27 26L27 28L26 28L26 26L23 26L23 27L22 27L22 25L27 25L27 24L26 24L26 23L27 23L27 22L28 22L28 23L30 23L30 22L29 22L29 21L30 21L30 19L31 19L31 20L36 20L36 18L35 18L35 17L34 17L34 18L33 18L33 17L32 17L32 16L36 16L36 14L33 14L33 15L32 15L32 16L31 16L31 17L29 17L29 15L27 15L27 11L26 11L26 10L27 10L27 9L26 9L26 8L25 8L25 7L26 7L26 6L25 6L25 7L24 7L24 6L23 6L23 5L25 5L25 4L26 4L26 3L27 3L27 2L26 2L26 3L25 3L25 2L24 2L24 3L25 3L25 4L23 4L23 5L22 5L22 6L21 6L21 4L20 4L20 6L19 6L19 5L18 5L18 4L17 4L17 2L16 2L16 3L15 3L15 2ZM14 6L14 7L15 7L15 6ZM4 9L4 14L5 14L5 13L6 13L6 14L7 14L7 15L8 15L8 16L9 16L9 15L10 15L10 13L6 13L6 12L9 12L9 11L10 11L10 12L11 12L11 11L10 11L10 10L9 10L9 11L6 11L6 10L5 10L5 9ZM31 10L31 11L32 11L32 10ZM25 12L25 13L26 13L26 12ZM2 14L2 15L3 15L3 14ZM8 14L8 15L9 15L9 14ZM26 15L26 16L25 16L25 17L24 17L24 18L25 18L25 17L26 17L26 16L27 16L27 17L28 17L28 18L27 18L27 19L26 19L26 20L27 20L27 21L26 21L26 22L27 22L27 21L29 21L29 20L28 20L28 18L29 18L29 17L28 17L28 16L27 16L27 15ZM18 16L18 18L19 18L19 16ZM6 17L6 18L4 18L4 20L7 20L7 19L6 19L6 18L8 18L8 17ZM10 17L10 18L11 18L11 17ZM22 17L22 18L23 18L23 17ZM32 18L32 19L33 19L33 18ZM11 19L11 20L10 20L10 22L12 22L12 23L10 23L10 24L11 24L11 26L10 26L10 27L12 27L12 29L13 29L13 27L12 27L12 25L13 25L13 26L14 26L14 28L16 28L16 29L15 29L15 30L14 30L14 31L15 31L15 30L16 30L16 29L17 29L17 30L19 30L19 31L20 31L20 30L19 30L19 29L23 29L23 28L19 28L19 29L18 29L18 27L21 27L21 26L18 26L18 25L16 25L16 23L17 23L17 24L19 24L19 21L18 21L18 23L17 23L17 22L16 22L16 21L17 21L17 20L16 20L16 19L15 19L15 20L14 20L14 19ZM24 19L24 20L25 20L25 19ZM11 20L11 21L12 21L12 20ZM20 21L20 23L21 23L21 24L22 24L22 23L23 23L23 22L22 22L22 21ZM24 21L24 22L25 22L25 21ZM13 22L13 23L12 23L12 24L14 24L14 26L15 26L15 22ZM21 22L21 23L22 23L22 22ZM24 23L24 24L25 24L25 23ZM28 24L28 25L30 25L30 24ZM17 26L17 27L16 27L16 28L17 28L17 27L18 27L18 26ZM6 27L6 28L7 28L7 27ZM24 27L24 28L25 28L25 27ZM34 28L34 30L33 30L33 32L35 32L35 31L36 31L36 30L35 30L35 28ZM29 29L29 32L32 32L32 29ZM22 30L22 31L23 31L23 32L24 32L24 31L23 31L23 30ZM27 30L27 32L28 32L28 30ZM30 30L30 31L31 31L31 30ZM34 30L34 31L35 31L35 30ZM12 31L12 32L13 32L13 31ZM14 32L14 33L15 33L15 32ZM26 33L26 34L27 34L27 33ZM36 34L36 36L33 36L33 37L37 37L37 34ZM24 35L24 36L25 36L25 35ZM26 35L26 36L28 36L28 35ZM30 35L30 36L32 36L32 35ZM0 0L0 7L7 7L7 0ZM1 1L1 6L6 6L6 1ZM2 2L2 5L5 5L5 2ZM30 0L30 7L37 7L37 0ZM31 1L31 6L36 6L36 1ZM32 2L32 5L35 5L35 2ZM0 30L0 37L7 37L7 30ZM1 31L1 36L6 36L6 31ZM2 32L2 35L5 35L5 32Z" fill="#000000"/></g></g></svg>
