<?xml version="1.0" encoding="UTF-8"?>
<svg xmlns="http://www.w3.org/2000/svg" version="1.1" width="300" height="300" viewBox="0 0 300 300"><rect x="0" y="0" width="300" height="300" fill="#ffffff"/><g transform="scale(8.108)"><g transform="translate(0,0)"><path fill-rule="evenodd" d="M11 0L11 1L9 1L9 2L8 2L8 3L10 3L10 4L8 4L8 7L9 7L9 6L10 6L10 7L11 7L11 8L12 8L12 9L13 9L13 10L14 10L14 11L12 11L12 12L11 12L11 11L10 11L10 8L8 8L8 9L9 9L9 11L10 11L10 12L9 12L9 14L11 14L11 15L13 15L13 16L12 16L12 18L11 18L11 17L9 17L9 18L8 18L8 17L7 17L7 16L10 16L10 15L7 15L7 14L8 14L8 11L7 11L7 10L6 10L6 9L7 9L7 8L6 8L6 9L5 9L5 8L4 8L4 9L5 9L5 10L6 10L6 11L7 11L7 12L5 12L5 15L4 15L4 13L2 13L2 14L3 14L3 15L4 15L4 16L5 16L5 17L4 17L4 20L3 20L3 21L2 21L2 20L1 20L1 19L0 19L0 20L1 20L1 21L0 21L0 22L2 22L2 23L1 23L1 24L0 24L0 26L2 26L2 27L3 27L3 28L0 28L0 29L8 29L8 30L9 30L9 28L11 28L11 29L13 29L13 28L14 28L14 30L15 30L15 31L14 31L14 32L13 32L13 33L12 33L12 32L11 32L11 31L9 31L9 32L8 32L8 33L9 33L9 35L8 35L8 36L9 36L9 37L13 37L13 35L12 35L12 34L15 34L15 35L14 35L14 37L15 37L15 35L16 35L16 36L17 36L17 35L18 35L18 34L20 34L20 35L21 35L21 36L22 36L22 35L23 35L23 34L21 34L21 33L18 33L18 32L19 32L19 31L20 31L20 29L21 29L21 30L22 30L22 29L23 29L23 31L22 31L22 33L23 33L23 32L24 32L24 33L25 33L25 31L24 31L24 29L25 29L25 27L24 27L24 25L27 25L27 23L28 23L28 24L29 24L29 23L30 23L30 21L31 21L31 23L32 23L32 22L34 22L34 23L33 23L33 24L32 24L32 25L31 25L31 24L30 24L30 25L28 25L28 27L29 27L29 28L27 28L27 26L26 26L26 29L27 29L27 30L26 30L26 32L28 32L28 33L29 33L29 36L30 36L30 37L33 37L33 36L31 36L31 33L34 33L34 37L37 37L37 36L36 36L36 34L35 34L35 33L36 33L36 32L35 32L35 31L36 31L36 29L37 29L37 28L36 28L36 24L37 24L37 20L36 20L36 17L37 17L37 16L36 16L36 13L37 13L37 11L35 11L35 10L34 10L34 11L33 11L33 10L32 10L32 11L31 11L31 12L30 12L30 13L29 13L29 14L30 14L30 15L31 15L31 14L32 14L32 15L34 15L34 17L35 17L35 19L33 19L33 17L32 17L32 16L30 16L30 17L29 17L29 15L28 15L28 14L27 14L27 12L29 12L29 11L30 11L30 10L31 10L31 9L33 9L33 8L31 8L31 9L30 9L30 8L28 8L28 9L30 9L30 10L29 10L29 11L28 11L28 10L27 10L27 9L26 9L26 7L27 7L27 6L26 6L26 7L25 7L25 5L23 5L23 2L24 2L24 3L26 3L26 5L29 5L29 0L26 0L26 1L28 1L28 3L26 3L26 2L25 2L25 1L23 1L23 2L22 2L22 1L21 1L21 0L16 0L16 1L14 1L14 0L13 0L13 4L11 4L11 3L10 3L10 2L11 2L11 1L12 1L12 0ZM18 1L18 2L19 2L19 3L20 3L20 6L19 6L19 4L18 4L18 3L17 3L17 2L16 2L16 3L17 3L17 4L18 4L18 5L16 5L16 4L15 4L15 5L16 5L16 6L15 6L15 7L14 7L14 6L13 6L13 5L14 5L14 4L13 4L13 5L12 5L12 6L11 6L11 7L12 7L12 8L13 8L13 7L14 7L14 10L16 10L16 9L15 9L15 8L16 8L16 6L17 6L17 7L18 7L18 6L19 6L19 8L17 8L17 9L19 9L19 8L20 8L20 6L21 6L21 7L22 7L22 8L24 8L24 9L25 9L25 8L24 8L24 6L23 6L23 5L22 5L22 3L20 3L20 2L21 2L21 1L20 1L20 2L19 2L19 1ZM14 2L14 3L15 3L15 2ZM10 4L10 5L11 5L11 4ZM12 6L12 7L13 7L13 6ZM22 6L22 7L23 7L23 6ZM28 6L28 7L29 7L29 6ZM1 8L1 9L0 9L0 10L1 10L1 9L2 9L2 8ZM34 8L34 9L35 9L35 8ZM21 9L21 10L20 10L20 11L21 11L21 10L23 10L23 9ZM2 10L2 12L4 12L4 10ZM18 10L18 12L17 12L17 13L18 13L18 12L19 12L19 14L20 14L20 15L19 15L19 17L20 17L20 18L22 18L22 19L23 19L23 18L24 18L24 17L26 17L26 16L27 16L27 17L28 17L28 18L29 18L29 19L27 19L27 18L25 18L25 19L24 19L24 20L22 20L22 21L21 21L21 23L22 23L22 25L24 25L24 24L26 24L26 23L27 23L27 21L28 21L28 22L29 22L29 21L30 21L30 20L31 20L31 21L33 21L33 19L32 19L32 18L31 18L31 17L30 17L30 18L29 18L29 17L28 17L28 15L22 15L22 16L21 16L21 14L22 14L22 13L26 13L26 12L27 12L27 11L25 11L25 10L24 10L24 11L22 11L22 12L19 12L19 10ZM0 11L0 12L1 12L1 11ZM14 11L14 13L12 13L12 14L13 14L13 15L14 15L14 16L15 16L15 15L16 15L16 14L15 14L15 15L14 15L14 13L16 13L16 11ZM24 11L24 12L25 12L25 11ZM31 12L31 13L30 13L30 14L31 14L31 13L33 13L33 12ZM34 12L34 14L35 14L35 12ZM0 13L0 16L1 16L1 13ZM6 13L6 14L7 14L7 13ZM6 15L6 16L7 16L7 15ZM16 16L16 17L13 17L13 19L11 19L11 18L9 18L9 19L11 19L11 21L10 21L10 20L9 20L9 21L8 21L8 20L7 20L7 19L6 19L6 18L7 18L7 17L6 17L6 18L5 18L5 20L4 20L4 21L5 21L5 22L7 22L7 23L6 23L6 24L10 24L10 25L11 25L11 24L12 24L12 26L13 26L13 27L12 27L12 28L13 28L13 27L14 27L14 28L15 28L15 26L16 26L16 27L17 27L17 29L16 29L16 31L15 31L15 32L18 32L18 31L17 31L17 29L18 29L18 30L19 30L19 29L20 29L20 27L21 27L21 29L22 29L22 27L23 27L23 26L20 26L20 25L21 25L21 24L19 24L19 23L20 23L20 22L19 22L19 21L20 21L20 20L19 20L19 19L18 19L18 20L15 20L15 19L16 19L16 17L18 17L18 16ZM0 17L0 18L1 18L1 17ZM2 17L2 19L3 19L3 17ZM22 17L22 18L23 18L23 17ZM14 18L14 19L15 19L15 18ZM26 19L26 20L25 20L25 21L24 21L24 22L22 22L22 23L23 23L23 24L24 24L24 23L25 23L25 22L26 22L26 21L27 21L27 19ZM29 19L29 20L28 20L28 21L29 21L29 20L30 20L30 19ZM5 20L5 21L7 21L7 22L8 22L8 23L10 23L10 21L9 21L9 22L8 22L8 21L7 21L7 20ZM12 20L12 21L11 21L11 23L12 23L12 24L13 24L13 21L14 21L14 22L15 22L15 20ZM34 21L34 22L35 22L35 23L36 23L36 21ZM3 22L3 23L4 23L4 25L5 25L5 26L4 26L4 28L5 28L5 27L6 27L6 28L7 28L7 27L6 27L6 26L7 26L7 25L5 25L5 23L4 23L4 22ZM16 22L16 23L15 23L15 24L14 24L14 26L15 26L15 25L16 25L16 26L17 26L17 27L19 27L19 25L16 25L16 23L18 23L18 22ZM2 24L2 25L3 25L3 24ZM8 26L8 27L9 27L9 26ZM30 26L30 28L33 28L33 29L34 29L34 31L35 31L35 26L34 26L34 27L33 27L33 26L32 26L32 27L31 27L31 26ZM23 28L23 29L24 29L24 28ZM29 29L29 32L32 32L32 29ZM12 30L12 31L13 31L13 30ZM27 30L27 31L28 31L28 30ZM30 30L30 31L31 31L31 30ZM16 33L16 35L17 35L17 34L18 34L18 33ZM26 33L26 34L25 34L25 35L24 35L24 36L23 36L23 37L26 37L26 35L28 35L28 34L27 34L27 33ZM10 34L10 35L11 35L11 36L12 36L12 35L11 35L11 34ZM18 36L18 37L20 37L20 36ZM0 0L0 7L7 7L7 0ZM1 1L1 6L6 6L6 1ZM2 2L2 5L5 5L5 2ZM30 0L30 7L37 7L37 0ZM31 1L31 6L36 6L36 1ZM32 2L32 5L35 5L35 2ZM0 30L0 37L7 37L7 30ZM1 31L1 36L6 36L6 31ZM2 32L2 35L5 35L5 32Z" fill="#000000"/></g></g></svg>
