<?xml version="1.0" encoding="UTF-8"?>
<svg xmlns="http://www.w3.org/2000/svg" version="1.1" width="300" height="300" viewBox="0 0 300 300"><rect x="0" y="0" width="300" height="300" fill="#ffffff"/><g transform="scale(6.122)"><g transform="translate(0,0)"><path fill-rule="evenodd" d="M9 0L9 1L8 1L8 2L9 2L9 3L8 3L8 5L9 5L9 6L8 6L8 9L7 9L7 8L3 8L3 10L4 10L4 13L3 13L3 11L2 11L2 14L1 14L1 11L0 11L0 16L2 16L2 17L3 17L3 18L5 18L5 17L7 17L7 18L6 18L6 19L7 19L7 18L8 18L8 17L9 17L9 20L8 20L8 21L7 21L7 20L6 20L6 21L7 21L7 22L5 22L5 20L3 20L3 19L0 19L0 20L3 20L3 21L2 21L2 23L1 23L1 21L0 21L0 28L1 28L1 29L0 29L0 30L1 30L1 31L2 31L2 32L0 32L0 33L1 33L1 34L0 34L0 35L1 35L1 34L4 34L4 35L3 35L3 36L2 36L2 38L1 38L1 40L0 40L0 41L3 41L3 40L4 40L4 39L2 39L2 38L5 38L5 39L8 39L8 40L6 40L6 41L8 41L8 42L9 42L9 41L10 41L10 42L11 42L11 41L12 41L12 42L14 42L14 43L12 43L12 44L11 44L11 43L8 43L8 46L9 46L9 47L8 47L8 48L9 48L9 49L11 49L11 48L13 48L13 49L16 49L16 48L15 48L15 47L14 47L14 48L13 48L13 46L14 46L14 45L13 45L13 44L15 44L15 46L19 46L19 49L20 49L20 47L22 47L22 49L29 49L29 48L26 48L26 47L28 47L28 45L29 45L29 47L30 47L30 46L31 46L31 47L32 47L32 49L35 49L35 48L36 48L36 49L37 49L37 48L38 48L38 49L42 49L42 48L43 48L43 49L46 49L46 48L48 48L48 49L49 49L49 45L48 45L48 44L47 44L47 46L48 46L48 47L46 47L46 45L45 45L45 44L46 44L46 43L47 43L47 42L48 42L48 43L49 43L49 42L48 42L48 41L46 41L46 38L47 38L47 39L49 39L49 38L47 38L47 37L49 37L49 34L48 34L48 36L47 36L47 33L46 33L46 31L45 31L45 30L46 30L46 29L48 29L48 28L49 28L49 26L48 26L48 24L47 24L47 23L46 23L46 21L44 21L44 22L43 22L43 18L45 18L45 20L46 20L46 19L47 19L47 20L48 20L48 21L49 21L49 18L48 18L48 17L47 17L47 18L45 18L45 17L46 17L46 16L47 16L47 15L49 15L49 14L47 14L47 13L46 13L46 12L48 12L48 11L49 11L49 10L47 10L47 9L48 9L48 8L47 8L47 9L46 9L46 8L44 8L44 9L45 9L45 10L44 10L44 13L46 13L46 14L44 14L44 15L43 15L43 18L41 18L41 19L40 19L40 16L39 16L39 15L40 15L40 14L39 14L39 13L40 13L40 12L42 12L42 14L41 14L41 17L42 17L42 14L43 14L43 11L39 11L39 12L35 12L35 9L36 9L36 8L37 8L37 9L38 9L38 10L37 10L37 11L38 11L38 10L41 10L41 9L42 9L42 10L43 10L43 8L41 8L41 9L40 9L40 7L41 7L41 6L40 6L40 7L39 7L39 5L38 5L38 2L39 2L39 4L40 4L40 3L41 3L41 0L40 0L40 1L37 1L37 0L36 0L36 1L35 1L35 0L34 0L34 2L37 2L37 3L35 3L35 6L34 6L34 7L33 7L33 6L32 6L32 7L31 7L31 6L30 6L30 8L32 8L32 9L33 9L33 8L34 8L34 11L32 11L32 10L31 10L31 9L30 9L30 10L27 10L27 9L28 9L28 8L29 8L29 4L30 4L30 5L33 5L33 2L31 2L31 3L32 3L32 4L30 4L30 2L29 2L29 1L28 1L28 0L26 0L26 1L25 1L25 0L18 0L18 1L17 1L17 2L12 2L12 1L13 1L13 0L12 0L12 1L11 1L11 2L10 2L10 0ZM30 0L30 1L33 1L33 0ZM20 1L20 2L18 2L18 3L12 3L12 2L11 2L11 3L10 3L10 6L9 6L9 7L10 7L10 6L11 6L11 8L9 8L9 9L8 9L8 12L7 12L7 11L5 11L5 12L7 12L7 13L5 13L5 14L4 14L4 15L5 15L5 16L4 16L4 17L5 17L5 16L7 16L7 17L8 17L8 16L7 16L7 15L8 15L8 14L7 14L7 13L9 13L9 12L10 12L10 14L11 14L11 15L9 15L9 16L12 16L12 19L11 19L11 22L10 22L10 23L9 23L9 24L10 24L10 26L11 26L11 27L12 27L12 29L13 29L13 30L14 30L14 29L16 29L16 28L18 28L18 30L17 30L17 31L16 31L16 30L15 30L15 31L13 31L13 32L10 32L10 31L11 31L11 29L10 29L10 31L9 31L9 32L10 32L10 33L11 33L11 34L9 34L9 33L8 33L8 30L9 30L9 27L6 27L6 28L5 28L5 29L3 29L3 30L2 30L2 29L1 29L1 30L2 30L2 31L3 31L3 32L2 32L2 33L4 33L4 34L5 34L5 31L3 31L3 30L5 30L5 29L6 29L6 30L7 30L7 31L6 31L6 32L7 32L7 33L6 33L6 34L7 34L7 35L5 35L5 36L4 36L4 37L5 37L5 36L7 36L7 37L6 37L6 38L8 38L8 39L9 39L9 40L10 40L10 41L11 41L11 39L10 39L10 38L11 38L11 37L12 37L12 34L13 34L13 36L14 36L14 37L13 37L13 38L12 38L12 39L13 39L13 38L14 38L14 37L15 37L15 36L14 36L14 35L15 35L15 34L16 34L16 33L17 33L17 32L18 32L18 30L19 30L19 31L22 31L22 30L23 30L23 32L21 32L21 33L20 33L20 34L21 34L21 33L22 33L22 35L21 35L21 36L20 36L20 35L19 35L19 36L18 36L18 34L17 34L17 36L16 36L16 38L15 38L15 39L14 39L14 42L15 42L15 43L16 43L16 41L15 41L15 40L16 40L16 39L17 39L17 37L19 37L19 38L18 38L18 40L17 40L17 42L18 42L18 41L20 41L20 42L21 42L21 43L22 43L22 41L20 41L20 40L21 40L21 39L22 39L22 40L25 40L25 39L26 39L26 40L27 40L27 39L28 39L28 41L27 41L27 45L28 45L28 41L29 41L29 42L32 42L32 40L33 40L33 38L29 38L29 39L28 39L28 37L27 37L27 36L26 36L26 35L27 35L27 33L26 33L26 32L27 32L27 31L25 31L25 30L27 30L27 28L26 28L26 27L24 27L24 28L26 28L26 29L25 29L25 30L24 30L24 29L23 29L23 27L22 27L22 29L20 29L20 28L18 28L18 27L20 27L20 26L22 26L22 25L21 25L21 24L22 24L22 20L21 20L21 18L20 18L20 17L22 17L22 16L20 16L20 14L21 14L21 15L24 15L24 17L23 17L23 18L24 18L24 20L23 20L23 21L24 21L24 22L25 22L25 21L26 21L26 22L27 22L27 27L28 27L28 29L29 29L29 30L28 30L28 32L29 32L29 30L30 30L30 32L32 32L32 33L33 33L33 36L37 36L37 37L38 37L38 36L37 36L37 35L40 35L40 36L41 36L41 37L42 37L42 38L40 38L40 37L39 37L39 38L40 38L40 39L42 39L42 40L44 40L44 38L43 38L43 37L45 37L45 36L46 36L46 37L47 37L47 36L46 36L46 35L45 35L45 36L43 36L43 35L42 35L42 36L41 36L41 33L42 33L42 34L43 34L43 31L44 31L44 30L45 30L45 29L46 29L46 28L45 28L45 29L43 29L43 31L42 31L42 30L41 30L41 31L42 31L42 32L40 32L40 33L39 33L39 34L37 34L37 35L34 35L34 32L35 32L35 33L36 33L36 32L35 32L35 30L36 30L36 28L37 28L37 29L38 29L38 31L37 31L37 33L38 33L38 31L40 31L40 29L39 29L39 28L38 28L38 27L37 27L37 26L36 26L36 24L37 24L37 23L38 23L38 24L39 24L39 23L40 23L40 21L42 21L42 19L41 19L41 20L39 20L39 19L38 19L38 18L39 18L39 17L37 17L37 19L34 19L34 17L35 17L35 18L36 18L36 17L35 17L35 16L38 16L38 15L35 15L35 13L34 13L34 12L33 12L33 15L31 15L31 14L29 14L29 15L28 15L28 13L31 13L31 12L30 12L30 11L31 11L31 10L30 10L30 11L29 11L29 12L28 12L28 13L27 13L27 11L26 11L26 13L25 13L25 12L24 12L24 10L26 10L26 9L21 9L21 7L22 7L22 5L21 5L21 7L20 7L20 4L21 4L21 3L20 3L20 2L22 2L22 3L24 3L24 4L25 4L25 2L22 2L22 1ZM26 2L26 4L27 4L27 5L28 5L28 4L29 4L29 2ZM11 3L11 4L12 4L12 5L13 5L13 4L12 4L12 3ZM18 3L18 4L14 4L14 7L13 7L13 6L12 6L12 7L13 7L13 8L11 8L11 9L9 9L9 11L11 11L11 9L12 9L12 12L11 12L11 14L13 14L13 13L12 13L12 12L13 12L13 11L15 11L15 13L14 13L14 14L15 14L15 15L14 15L14 16L13 16L13 17L14 17L14 16L15 16L15 19L13 19L13 21L14 21L14 20L15 20L15 19L16 19L16 21L17 21L17 20L20 20L20 21L21 21L21 20L20 20L20 19L16 19L16 17L17 17L17 18L19 18L19 14L20 14L20 13L22 13L22 14L24 14L24 12L23 12L23 11L22 11L22 12L20 12L20 13L19 13L19 12L18 12L18 13L19 13L19 14L17 14L17 15L16 15L16 14L15 14L15 13L16 13L16 12L17 12L17 11L16 11L16 8L17 8L17 10L18 10L18 11L19 11L19 10L21 10L21 9L19 9L19 10L18 10L18 7L19 7L19 8L20 8L20 7L19 7L19 6L18 6L18 5L19 5L19 4L20 4L20 3ZM27 3L27 4L28 4L28 3ZM36 4L36 6L35 6L35 8L36 8L36 6L37 6L37 7L38 7L38 6L37 6L37 4ZM15 5L15 8L14 8L14 9L15 9L15 8L16 8L16 5ZM23 5L23 8L26 8L26 5ZM17 6L17 7L18 7L18 6ZM24 6L24 7L25 7L25 6ZM27 6L27 8L28 8L28 6ZM1 8L1 10L2 10L2 8ZM38 8L38 9L39 9L39 8ZM4 9L4 10L5 10L5 9ZM6 9L6 10L7 10L7 9ZM46 10L46 11L47 11L47 10ZM22 12L22 13L23 13L23 12ZM26 13L26 14L27 14L27 13ZM2 14L2 16L3 16L3 14ZM5 14L5 15L7 15L7 14ZM15 15L15 16L16 16L16 15ZM17 15L17 16L18 16L18 15ZM25 15L25 17L24 17L24 18L25 18L25 17L27 17L27 16L28 16L28 18L27 18L27 19L25 19L25 20L28 20L28 19L29 19L29 21L27 21L27 22L31 22L31 23L30 23L30 24L29 24L29 23L28 23L28 24L29 24L29 25L28 25L28 26L31 26L31 23L32 23L32 25L33 25L33 26L32 26L32 27L33 27L33 28L31 28L31 27L30 27L30 28L31 28L31 29L30 29L30 30L32 30L32 32L34 32L34 30L35 30L35 29L34 29L34 28L36 28L36 26L35 26L35 27L33 27L33 26L34 26L34 25L33 25L33 24L34 24L34 23L35 23L35 24L36 24L36 23L37 23L37 20L36 20L36 21L35 21L35 20L34 20L34 21L33 21L33 22L31 22L31 21L32 21L32 19L33 19L33 18L32 18L32 19L31 19L31 17L33 17L33 16L31 16L31 15L30 15L30 17L29 17L29 16L28 16L28 15ZM34 15L34 16L35 16L35 15ZM44 15L44 16L46 16L46 15ZM29 18L29 19L30 19L30 20L31 20L31 19L30 19L30 18ZM47 18L47 19L48 19L48 18ZM38 20L38 22L39 22L39 20ZM8 21L8 22L9 22L9 21ZM18 21L18 22L19 22L19 21ZM11 22L11 23L12 23L12 25L14 25L14 27L13 27L13 26L12 26L12 27L13 27L13 29L14 29L14 28L16 28L16 27L18 27L18 23L16 23L16 22L14 22L14 24L13 24L13 22ZM20 22L20 23L19 23L19 24L21 24L21 22ZM35 22L35 23L36 23L36 22ZM48 22L48 23L49 23L49 22ZM2 23L2 25L3 25L3 26L2 26L2 27L4 27L4 23ZM5 23L5 26L8 26L8 23ZM23 23L23 26L26 26L26 23ZM41 23L41 26L44 26L44 23ZM6 24L6 25L7 25L7 24ZM14 24L14 25L15 25L15 26L17 26L17 25L15 25L15 24ZM24 24L24 25L25 25L25 24ZM42 24L42 25L43 25L43 24ZM46 24L46 26L45 26L45 27L48 27L48 26L47 26L47 24ZM19 25L19 26L20 26L20 25ZM39 25L39 27L40 27L40 25ZM42 27L42 28L41 28L41 29L42 29L42 28L43 28L43 27ZM6 28L6 29L7 29L7 30L8 30L8 28ZM19 29L19 30L20 30L20 29ZM32 29L32 30L33 30L33 29ZM47 30L47 32L48 32L48 33L49 33L49 30ZM15 31L15 32L16 32L16 31ZM7 33L7 34L8 34L8 33ZM13 33L13 34L14 34L14 33ZM23 33L23 34L24 34L24 35L23 35L23 36L21 36L21 38L22 38L22 39L24 39L24 38L22 38L22 37L24 37L24 35L26 35L26 34L25 34L25 33ZM29 33L29 34L28 34L28 36L29 36L29 35L32 35L32 34L30 34L30 33ZM45 33L45 34L46 34L46 33ZM8 35L8 36L9 36L9 38L10 38L10 37L11 37L11 36L10 36L10 35ZM19 36L19 37L20 37L20 36ZM30 36L30 37L31 37L31 36ZM42 36L42 37L43 37L43 36ZM25 37L25 38L26 38L26 39L27 39L27 38L26 38L26 37ZM34 37L34 40L35 40L35 41L34 41L34 42L37 42L37 41L39 41L39 39L38 39L38 38L36 38L36 37ZM42 38L42 39L43 39L43 38ZM19 39L19 40L20 40L20 39ZM29 39L29 41L30 41L30 39ZM31 39L31 40L32 40L32 39ZM37 39L37 40L36 40L36 41L37 41L37 40L38 40L38 39ZM12 40L12 41L13 41L13 40ZM23 41L23 44L26 44L26 41ZM41 41L41 44L44 44L44 41ZM24 42L24 43L25 43L25 42ZM39 42L39 43L35 43L35 44L37 44L37 45L38 45L38 44L40 44L40 42ZM42 42L42 43L43 43L43 42ZM31 43L31 45L33 45L33 43ZM10 44L10 45L9 45L9 46L10 46L10 47L9 47L9 48L11 48L11 46L10 46L10 45L11 45L11 44ZM17 44L17 45L18 45L18 44ZM19 44L19 46L22 46L22 47L23 47L23 48L25 48L25 47L26 47L26 45L22 45L22 44ZM41 45L41 46L40 46L40 47L41 47L41 48L42 48L42 45ZM43 45L43 46L45 46L45 45ZM23 46L23 47L25 47L25 46ZM35 46L35 47L36 47L36 48L37 48L37 47L39 47L39 46L37 46L37 47L36 47L36 46ZM33 47L33 48L34 48L34 47ZM43 47L43 48L44 48L44 47ZM0 0L0 7L7 7L7 0ZM1 1L1 6L6 6L6 1ZM2 2L2 5L5 5L5 2ZM42 0L42 7L49 7L49 0ZM43 1L43 6L48 6L48 1ZM44 2L44 5L47 5L47 2ZM0 42L0 49L7 49L7 42ZM1 43L1 48L6 48L6 43ZM2 44L2 47L5 47L5 44Z" fill="#000000"/></g></g></svg>
