<?xml version="1.0" encoding="UTF-8"?>
<svg xmlns="http://www.w3.org/2000/svg" version="1.1" width="300" height="300" viewBox="0 0 300 300"><rect x="0" y="0" width="300" height="300" fill="#ffffff"/><g transform="scale(8.108)"><g transform="translate(0,0)"><path fill-rule="evenodd" d="M11 0L11 1L12 1L12 0ZM17 0L17 2L18 2L18 3L17 3L17 4L15 4L15 3L16 3L16 2L15 2L15 1L13 1L13 2L15 2L15 3L12 3L12 4L11 4L11 2L10 2L10 3L9 3L9 2L8 2L8 3L9 3L9 4L8 4L8 7L9 7L9 8L8 8L8 10L6 10L6 9L7 9L7 8L6 8L6 9L5 9L5 8L4 8L4 10L2 10L2 12L4 12L4 13L2 13L2 16L1 16L1 15L0 15L0 16L1 16L1 18L2 18L2 17L3 17L3 19L1 19L1 20L0 20L0 22L3 22L3 21L1 21L1 20L4 20L4 21L5 21L5 20L4 20L4 19L5 19L5 18L6 18L6 19L7 19L7 20L6 20L6 21L7 21L7 20L9 20L9 21L11 21L11 19L13 19L13 21L14 21L14 19L13 19L13 16L14 16L14 15L13 15L13 16L12 16L12 18L11 18L11 17L9 17L9 18L8 18L8 17L7 17L7 16L8 16L8 15L9 15L9 16L10 16L10 15L9 15L9 14L11 14L11 15L12 15L12 14L13 14L13 13L12 13L12 14L11 14L11 13L10 13L10 12L9 12L9 14L8 14L8 15L7 15L7 14L5 14L5 15L4 15L4 13L5 13L5 11L10 11L10 10L11 10L11 9L12 9L12 8L13 8L13 9L14 9L14 7L15 7L15 5L16 5L16 10L14 10L14 11L13 11L13 12L15 12L15 11L16 11L16 12L17 12L17 10L19 10L19 9L23 9L23 10L21 10L21 11L20 11L20 12L18 12L18 13L14 13L14 14L17 14L17 16L18 16L18 18L17 18L17 19L18 19L18 20L21 20L21 21L22 21L22 20L24 20L24 19L25 19L25 18L27 18L27 19L26 19L26 20L25 20L25 21L24 21L24 22L23 22L23 24L22 24L22 22L21 22L21 23L20 23L20 22L16 22L16 21L17 21L17 20L15 20L15 23L19 23L19 24L18 24L18 26L20 26L20 27L21 27L21 26L22 26L22 25L23 25L23 27L22 27L22 29L21 29L21 30L22 30L22 29L23 29L23 31L22 31L22 33L25 33L25 32L24 32L24 30L25 30L25 29L23 29L23 27L24 27L24 28L25 28L25 27L24 27L24 26L25 26L25 25L27 25L27 24L29 24L29 23L30 23L30 22L29 22L29 21L31 21L31 24L30 24L30 25L28 25L28 27L29 27L29 28L27 28L27 26L26 26L26 29L27 29L27 30L26 30L26 33L27 33L27 34L25 34L25 35L24 35L24 36L23 36L23 37L26 37L26 35L29 35L29 37L32 37L32 36L31 36L31 33L33 33L33 31L34 31L34 35L33 35L33 37L37 37L37 36L36 36L36 34L35 34L35 33L36 33L36 32L35 32L35 31L36 31L36 29L37 29L37 27L36 27L36 24L37 24L37 20L36 20L36 19L33 19L33 18L34 18L34 17L37 17L37 16L36 16L36 13L37 13L37 12L35 12L35 11L36 11L36 9L35 9L35 8L34 8L34 9L35 9L35 10L34 10L34 11L33 11L33 10L32 10L32 11L31 11L31 12L30 12L30 13L29 13L29 14L27 14L27 12L29 12L29 11L30 11L30 10L31 10L31 9L33 9L33 8L31 8L31 9L30 9L30 8L28 8L28 7L29 7L29 5L28 5L28 3L29 3L29 2L27 2L27 3L26 3L26 2L25 2L25 1L22 1L22 2L20 2L20 1L21 1L21 0ZM27 0L27 1L28 1L28 0ZM19 2L19 3L20 3L20 4L17 4L17 5L19 5L19 7L18 7L18 6L17 6L17 9L18 9L18 8L20 8L20 5L25 5L25 7L26 7L26 9L25 9L25 8L24 8L24 6L23 6L23 7L22 7L22 6L21 6L21 7L22 7L22 8L24 8L24 9L25 9L25 10L24 10L24 12L23 12L23 11L22 11L22 12L21 12L21 14L22 14L22 13L26 13L26 12L27 12L27 10L28 10L28 11L29 11L29 10L30 10L30 9L28 9L28 8L27 8L27 7L28 7L28 5L26 5L26 3L24 3L24 2L23 2L23 3L20 3L20 2ZM9 4L9 5L10 5L10 6L9 6L9 7L10 7L10 6L11 6L11 7L12 7L12 6L13 6L13 7L14 7L14 6L13 6L13 5L14 5L14 4L13 4L13 5L12 5L12 6L11 6L11 4ZM26 6L26 7L27 7L27 6ZM1 8L1 9L2 9L2 8ZM10 8L10 9L11 9L11 8ZM26 9L26 10L27 10L27 9ZM0 10L0 11L1 11L1 10ZM4 10L4 11L5 11L5 10ZM11 11L11 12L12 12L12 11ZM0 12L0 14L1 14L1 12ZM6 12L6 13L7 13L7 12ZM32 12L32 13L30 13L30 14L29 14L29 15L28 15L28 16L27 16L27 17L28 17L28 18L29 18L29 19L31 19L31 21L33 21L33 22L32 22L32 24L31 24L31 25L32 25L32 24L33 24L33 23L34 23L34 21L33 21L33 19L31 19L31 17L30 17L30 16L31 16L31 15L32 15L32 17L33 17L33 15L32 15L32 13L33 13L33 12ZM34 12L34 14L35 14L35 12ZM18 13L18 14L20 14L20 13ZM26 14L26 15L24 15L24 16L23 16L23 15L22 15L22 16L20 16L20 15L19 15L19 16L20 16L20 18L22 18L22 19L23 19L23 18L24 18L24 17L26 17L26 15L27 15L27 14ZM30 14L30 15L31 15L31 14ZM3 15L3 17L4 17L4 18L5 18L5 16L4 16L4 15ZM6 15L6 16L7 16L7 15ZM15 16L15 17L16 17L16 16ZM28 16L28 17L29 17L29 18L30 18L30 17L29 17L29 16ZM6 17L6 18L7 18L7 17ZM22 17L22 18L23 18L23 17ZM9 18L9 20L10 20L10 19L11 19L11 18ZM18 18L18 19L19 19L19 18ZM27 20L27 21L26 21L26 22L25 22L25 23L24 23L24 24L23 24L23 25L25 25L25 24L26 24L26 23L27 23L27 21L29 21L29 20ZM35 21L35 23L36 23L36 21ZM4 22L4 23L1 23L1 24L0 24L0 26L2 26L2 27L3 27L3 28L0 28L0 29L4 29L4 28L6 28L6 29L7 29L7 28L8 28L8 30L9 30L9 26L11 26L11 27L12 27L12 28L11 28L11 29L12 29L12 30L11 30L11 31L9 31L9 32L8 32L8 33L10 33L10 34L9 34L9 35L8 35L8 36L9 36L9 37L14 37L14 36L13 36L13 35L12 35L12 34L15 34L15 37L17 37L17 36L18 36L18 37L20 37L20 36L19 36L19 35L18 35L18 34L20 34L20 35L21 35L21 36L22 36L22 35L23 35L23 34L21 34L21 33L20 33L20 32L19 32L19 30L20 30L20 28L19 28L19 27L16 27L16 26L17 26L17 25L16 25L16 26L15 26L15 24L14 24L14 25L13 25L13 22L12 22L12 23L11 23L11 22L10 22L10 24L9 24L9 26L8 26L8 23L7 23L7 22L6 22L6 23L5 23L5 22ZM28 22L28 23L29 23L29 22ZM4 23L4 26L5 26L5 27L6 27L6 28L7 28L7 27L8 27L8 26L7 26L7 25L6 25L6 24L7 24L7 23L6 23L6 24L5 24L5 23ZM2 24L2 25L3 25L3 24ZM10 24L10 25L12 25L12 26L13 26L13 25L12 25L12 24ZM20 24L20 26L21 26L21 24ZM6 26L6 27L7 27L7 26ZM14 26L14 27L13 27L13 31L14 31L14 30L15 30L15 28L14 28L14 27L15 27L15 26ZM30 26L30 28L33 28L33 29L34 29L34 30L35 30L35 26L34 26L34 27L33 27L33 26L32 26L32 27L31 27L31 26ZM17 28L17 29L16 29L16 31L17 31L17 32L18 32L18 33L17 33L17 34L18 34L18 33L19 33L19 32L18 32L18 31L17 31L17 29L18 29L18 28ZM29 29L29 32L32 32L32 29ZM27 30L27 31L28 31L28 30ZM30 30L30 31L31 31L31 30ZM11 31L11 32L12 32L12 33L13 33L13 32L12 32L12 31ZM27 32L27 33L28 33L28 32ZM29 33L29 35L30 35L30 33ZM10 34L10 35L9 35L9 36L12 36L12 35L11 35L11 34ZM0 0L0 7L7 7L7 0ZM1 1L1 6L6 6L6 1ZM2 2L2 5L5 5L5 2ZM30 0L30 7L37 7L37 0ZM31 1L31 6L36 6L36 1ZM32 2L32 5L35 5L35 2ZM0 30L0 37L7 37L7 30ZM1 31L1 36L6 36L6 31ZM2 32L2 35L5 35L5 32Z" fill="#000000"/></g></g></svg>
