<?xml version="1.0" encoding="UTF-8"?>
<svg xmlns="http://www.w3.org/2000/svg" version="1.1" width="300" height="300" viewBox="0 0 300 300"><rect x="0" y="0" width="300" height="300" fill="#ffffff"/><g transform="scale(8.108)"><g transform="translate(0,0)"><path fill-rule="evenodd" d="M8 0L8 5L10 5L10 4L11 4L11 3L12 3L12 4L13 4L13 5L12 5L12 7L13 7L13 6L14 6L14 7L15 7L15 8L17 8L17 9L12 9L12 11L14 11L14 12L15 12L15 11L14 11L14 10L16 10L16 11L17 11L17 13L18 13L18 14L19 14L19 15L17 15L17 14L16 14L16 13L15 13L15 15L14 15L14 16L13 16L13 14L14 14L14 13L13 13L13 12L9 12L9 10L5 10L5 8L4 8L4 9L3 9L3 8L1 8L1 9L0 9L0 10L1 10L1 13L0 13L0 14L1 14L1 15L2 15L2 16L1 16L1 17L0 17L0 18L1 18L1 17L7 17L7 18L5 18L5 19L8 19L8 20L6 20L6 21L8 21L8 20L9 20L9 19L8 19L8 18L9 18L9 17L8 17L8 16L6 16L6 15L9 15L9 16L10 16L10 18L12 18L12 17L14 17L14 18L13 18L13 19L14 19L14 20L15 20L15 17L14 17L14 16L16 16L16 17L17 17L17 18L18 18L18 19L17 19L17 20L16 20L16 21L14 21L14 23L12 23L12 24L11 24L11 25L12 25L12 27L11 27L11 26L10 26L10 27L11 27L11 28L10 28L10 29L8 29L8 28L9 28L9 27L8 27L8 28L6 28L6 27L7 27L7 26L5 26L5 27L3 27L3 28L2 28L2 27L1 27L1 26L2 26L2 25L1 25L1 24L0 24L0 25L1 25L1 26L0 26L0 27L1 27L1 28L0 28L0 29L1 29L1 28L2 28L2 29L3 29L3 28L4 28L4 29L5 29L5 28L6 28L6 29L8 29L8 31L9 31L9 32L8 32L8 33L9 33L9 34L8 34L8 36L9 36L9 34L11 34L11 33L12 33L12 32L13 32L13 33L14 33L14 34L16 34L16 35L17 35L17 36L18 36L18 35L19 35L19 36L20 36L20 35L19 35L19 34L20 34L20 33L19 33L19 34L17 34L17 33L18 33L18 32L21 32L21 31L22 31L22 30L21 30L21 27L22 27L22 26L23 26L23 24L24 24L24 23L23 23L23 22L24 22L24 21L23 21L23 20L24 20L24 19L23 19L23 20L22 20L22 18L24 18L24 17L23 17L23 12L24 12L24 11L23 11L23 9L24 9L24 8L25 8L25 6L24 6L24 8L22 8L22 7L23 7L23 3L24 3L24 2L22 2L22 1L23 1L23 0L22 0L22 1L21 1L21 0L20 0L20 1L19 1L19 0L18 0L18 1L17 1L17 3L16 3L16 5L18 5L18 7L19 7L19 6L20 6L20 8L21 8L21 10L19 10L19 8L17 8L17 6L16 6L16 7L15 7L15 6L14 6L14 4L15 4L15 2L16 2L16 1L14 1L14 2L13 2L13 1L12 1L12 0ZM25 0L25 1L26 1L26 2L25 2L25 5L26 5L26 7L27 7L27 8L28 8L28 7L29 7L29 3L28 3L28 0ZM10 1L10 2L9 2L9 3L10 3L10 2L11 2L11 1ZM18 1L18 2L19 2L19 4L18 4L18 3L17 3L17 4L18 4L18 5L19 5L19 4L20 4L20 3L21 3L21 5L20 5L20 6L21 6L21 7L22 7L22 2L19 2L19 1ZM8 6L8 8L6 8L6 9L8 9L8 8L9 8L9 9L10 9L10 11L11 11L11 9L10 9L10 8L9 8L9 6ZM10 6L10 7L11 7L11 6ZM27 6L27 7L28 7L28 6ZM30 8L30 9L29 9L29 11L30 11L30 12L28 12L28 11L27 11L27 10L28 10L28 9L27 9L27 10L26 10L26 9L25 9L25 14L24 14L24 16L25 16L25 18L26 18L26 19L25 19L25 20L26 20L26 21L25 21L25 22L26 22L26 23L25 23L25 24L26 24L26 26L27 26L27 27L25 27L25 26L24 26L24 31L23 31L23 32L24 32L24 33L23 33L23 34L22 34L22 33L21 33L21 34L22 34L22 35L21 35L21 36L22 36L22 37L25 37L25 35L26 35L26 34L27 34L27 31L28 31L28 33L29 33L29 35L28 35L28 37L29 37L29 36L30 36L30 33L32 33L32 35L31 35L31 37L34 37L34 33L33 33L33 28L32 28L32 27L33 27L33 26L32 26L32 25L34 25L34 26L35 26L35 25L36 25L36 28L35 28L35 27L34 27L34 29L36 29L36 31L37 31L37 25L36 25L36 24L37 24L37 23L36 23L36 21L37 21L37 20L36 20L36 19L37 19L37 16L36 16L36 15L37 15L37 13L36 13L36 15L35 15L35 25L34 25L34 23L33 23L33 24L30 24L30 25L31 25L31 26L29 26L29 24L28 24L28 23L29 23L29 22L28 22L28 23L27 23L27 20L30 20L30 23L31 23L31 22L32 22L32 20L30 20L30 19L29 19L29 18L32 18L32 17L31 17L31 16L32 16L32 15L33 15L33 17L34 17L34 15L33 15L33 14L32 14L32 12L33 12L33 13L35 13L35 12L34 12L34 11L35 11L35 10L34 10L34 9L36 9L36 11L37 11L37 8L32 8L32 10L33 10L33 11L32 11L32 12L31 12L31 10L30 10L30 9L31 9L31 8ZM1 9L1 10L2 10L2 11L4 11L4 12L2 12L2 13L3 13L3 14L2 14L2 15L3 15L3 16L5 16L5 15L6 15L6 14L7 14L7 13L8 13L8 14L10 14L10 15L11 15L11 17L12 17L12 15L11 15L11 13L9 13L9 12L7 12L7 11L6 11L6 12L7 12L7 13L4 13L4 12L5 12L5 11L4 11L4 10L2 10L2 9ZM17 10L17 11L19 11L19 10ZM21 10L21 11L22 11L22 10ZM26 11L26 12L27 12L27 13L26 13L26 16L27 16L27 17L26 17L26 18L27 18L27 19L28 19L28 16L31 16L31 15L32 15L32 14L30 14L30 15L29 15L29 13L28 13L28 12L27 12L27 11ZM18 12L18 13L19 13L19 14L20 14L20 15L19 15L19 17L18 17L18 16L17 16L17 15L16 15L16 16L17 16L17 17L18 17L18 18L19 18L19 17L22 17L22 16L20 16L20 15L22 15L22 14L21 14L21 13L22 13L22 12ZM27 13L27 14L28 14L28 13ZM2 18L2 19L3 19L3 21L1 21L1 22L0 22L0 23L1 23L1 22L3 22L3 21L4 21L4 22L5 22L5 20L4 20L4 19L3 19L3 18ZM20 18L20 19L19 19L19 20L20 20L20 19L21 19L21 18ZM33 18L33 21L34 21L34 18ZM0 19L0 20L1 20L1 19ZM10 19L10 20L11 20L11 19ZM17 20L17 22L19 22L19 23L22 23L22 22L23 22L23 21L22 21L22 22L21 22L21 21L18 21L18 20ZM12 21L12 22L13 22L13 21ZM6 22L6 23L3 23L3 25L4 25L4 24L6 24L6 25L8 25L8 26L9 26L9 25L8 25L8 24L6 24L6 23L7 23L7 22ZM9 22L9 23L10 23L10 22ZM15 22L15 23L14 23L14 24L15 24L15 25L13 25L13 24L12 24L12 25L13 25L13 26L14 26L14 27L16 27L16 28L17 28L17 32L16 32L16 31L14 31L14 30L15 30L15 29L14 29L14 30L13 30L13 31L14 31L14 33L15 33L15 32L16 32L16 33L17 33L17 32L18 32L18 31L19 31L19 30L20 30L20 31L21 31L21 30L20 30L20 28L19 28L19 29L18 29L18 28L17 28L17 27L20 27L20 26L19 26L19 25L20 25L20 24L18 24L18 23L16 23L16 22ZM15 23L15 24L16 24L16 25L15 25L15 26L18 26L18 24L16 24L16 23ZM21 25L21 26L22 26L22 25ZM12 27L12 28L11 28L11 29L10 29L10 33L11 33L11 31L12 31L12 29L13 29L13 27ZM27 27L27 28L26 28L26 29L25 29L25 31L27 31L27 28L28 28L28 27ZM29 27L29 28L31 28L31 27ZM29 29L29 32L32 32L32 29ZM30 30L30 31L31 31L31 30ZM34 30L34 31L35 31L35 30ZM35 32L35 34L36 34L36 35L35 35L35 37L37 37L37 36L36 36L36 35L37 35L37 33L36 33L36 32ZM25 33L25 34L26 34L26 33ZM12 34L12 36L11 36L11 35L10 35L10 36L11 36L11 37L12 37L12 36L13 36L13 37L14 37L14 35L13 35L13 34ZM23 35L23 36L24 36L24 35ZM15 36L15 37L16 37L16 36ZM0 0L0 7L7 7L7 0ZM1 1L1 6L6 6L6 1ZM2 2L2 5L5 5L5 2ZM30 0L30 7L37 7L37 0ZM31 1L31 6L36 6L36 1ZM32 2L32 5L35 5L35 2ZM0 30L0 37L7 37L7 30ZM1 31L1 36L6 36L6 31ZM2 32L2 35L5 35L5 32Z" fill="#000000"/></g></g></svg>
