<?xml version="1.0" encoding="UTF-8"?>
<svg xmlns="http://www.w3.org/2000/svg" version="1.1" width="300" height="300" viewBox="0 0 300 300"><rect x="0" y="0" width="300" height="300" fill="#ffffff"/><g transform="scale(8.108)"><g transform="translate(0,0)"><path fill-rule="evenodd" d="M8 0L8 1L10 1L10 2L11 2L11 3L10 3L10 5L9 5L9 4L8 4L8 7L9 7L9 6L10 6L10 9L12 9L12 11L16 11L16 10L17 10L17 12L18 12L18 13L16 13L16 12L15 12L15 13L12 13L12 12L11 12L11 13L12 13L12 14L15 14L15 15L14 15L14 19L18 19L18 20L19 20L19 21L18 21L18 23L17 23L17 22L16 22L16 21L17 21L17 20L16 20L16 21L13 21L13 19L11 19L11 17L10 17L10 16L11 16L11 14L10 14L10 15L9 15L9 14L8 14L8 13L10 13L10 12L9 12L9 11L10 11L10 10L9 10L9 11L8 11L8 8L1 8L1 10L2 10L2 11L0 11L0 12L1 12L1 13L0 13L0 14L1 14L1 13L2 13L2 14L3 14L3 13L4 13L4 12L5 12L5 14L4 14L4 15L5 15L5 14L6 14L6 15L9 15L9 16L8 16L8 18L6 18L6 17L7 17L7 16L5 16L5 17L4 17L4 16L3 16L3 15L2 15L2 16L1 16L1 17L2 17L2 18L1 18L1 19L5 19L5 18L6 18L6 19L7 19L7 20L6 20L6 21L7 21L7 22L6 22L6 23L5 23L5 22L4 22L4 20L0 20L0 29L1 29L1 24L2 24L2 25L3 25L3 24L2 24L2 23L1 23L1 21L3 21L3 23L4 23L4 24L6 24L6 25L5 25L5 26L2 26L2 27L3 27L3 29L8 29L8 36L9 36L9 37L10 37L10 36L11 36L11 37L12 37L12 35L14 35L14 36L13 36L13 37L15 37L15 36L16 36L16 37L17 37L17 36L18 36L18 37L19 37L19 36L18 36L18 34L19 34L19 33L18 33L18 31L17 31L17 30L19 30L19 29L20 29L20 31L19 31L19 32L20 32L20 33L21 33L21 34L20 34L20 35L21 35L21 36L20 36L20 37L22 37L22 36L23 36L23 37L25 37L25 36L26 36L26 37L28 37L28 36L29 36L29 37L32 37L32 36L34 36L34 37L37 37L37 34L36 34L36 36L34 36L34 35L35 35L35 34L34 34L34 33L36 33L36 32L37 32L37 30L36 30L36 29L35 29L35 30L36 30L36 31L35 31L35 32L33 32L33 30L34 30L34 28L37 28L37 26L35 26L35 25L36 25L36 24L34 24L34 23L33 23L33 22L34 22L34 21L36 21L36 22L35 22L35 23L36 23L36 22L37 22L37 18L36 18L36 17L37 17L37 14L33 14L33 16L32 16L32 14L31 14L31 15L30 15L30 14L28 14L28 11L31 11L31 12L29 12L29 13L33 13L33 12L34 12L34 11L33 11L33 10L34 10L34 9L33 9L33 8L31 8L31 9L30 9L30 10L28 10L28 9L29 9L29 8L28 8L28 7L29 7L29 5L26 5L26 4L29 4L29 3L26 3L26 2L28 2L28 1L27 1L27 0L25 0L25 1L23 1L23 4L21 4L21 3L22 3L22 0L21 0L21 1L20 1L20 3L18 3L18 4L17 4L17 2L16 2L16 0L14 0L14 1L15 1L15 5L16 5L16 8L14 8L14 7L15 7L15 6L14 6L14 7L13 7L13 6L12 6L12 7L11 7L11 4L12 4L12 5L14 5L14 4L13 4L13 3L14 3L14 2L11 2L11 1L12 1L12 0L11 0L11 1L10 1L10 0ZM17 0L17 1L19 1L19 0ZM24 2L24 3L25 3L25 4L23 4L23 5L25 5L25 4L26 4L26 3L25 3L25 2ZM16 4L16 5L17 5L17 7L18 7L18 8L19 8L19 9L20 9L20 10L19 10L19 11L20 11L20 10L21 10L21 9L22 9L22 11L24 11L24 12L22 12L22 13L25 13L25 14L27 14L27 9L28 9L28 8L27 8L27 7L28 7L28 6L27 6L27 7L26 7L26 6L25 6L25 7L24 7L24 6L23 6L23 7L22 7L22 5L21 5L21 4L19 4L19 7L18 7L18 5L17 5L17 4ZM20 5L20 8L22 8L22 9L23 9L23 10L24 10L24 11L25 11L25 10L24 10L24 9L25 9L25 8L26 8L26 9L27 9L27 8L26 8L26 7L25 7L25 8L24 8L24 7L23 7L23 8L22 8L22 7L21 7L21 5ZM12 8L12 9L13 9L13 10L14 10L14 8ZM36 8L36 9L35 9L35 10L36 10L36 12L35 12L35 13L37 13L37 10L36 10L36 9L37 9L37 8ZM4 9L4 11L6 11L6 12L7 12L7 13L6 13L6 14L7 14L7 13L8 13L8 11L6 11L6 10L7 10L7 9ZM31 10L31 11L32 11L32 10ZM19 12L19 13L18 13L18 14L17 14L17 15L16 15L16 17L15 17L15 18L16 18L16 17L18 17L18 16L19 16L19 18L18 18L18 19L19 19L19 18L20 18L20 14L21 14L21 12ZM25 12L25 13L26 13L26 12ZM15 13L15 14L16 14L16 13ZM22 14L22 15L24 15L24 16L22 16L22 17L21 17L21 18L22 18L22 19L23 19L23 20L20 20L20 21L19 21L19 22L21 22L21 21L22 21L22 22L23 22L23 23L22 23L22 24L20 24L20 23L18 23L18 24L19 24L19 25L17 25L17 24L16 24L16 25L17 25L17 27L16 27L16 28L15 28L15 23L16 23L16 22L12 22L12 23L11 23L11 22L10 22L10 23L9 23L9 21L12 21L12 20L10 20L10 17L9 17L9 20L8 20L8 23L6 23L6 24L7 24L7 25L6 25L6 26L7 26L7 27L4 27L4 28L7 28L7 27L8 27L8 26L9 26L9 27L11 27L11 30L12 30L12 33L13 33L13 34L14 34L14 35L15 35L15 33L17 33L17 34L18 34L18 33L17 33L17 32L15 32L15 33L14 33L14 32L13 32L13 31L15 31L15 30L12 30L12 28L13 28L13 27L12 27L12 26L14 26L14 29L16 29L16 30L17 30L17 29L19 29L19 28L18 28L18 27L19 27L19 26L20 26L20 27L21 27L21 28L20 28L20 29L21 29L21 31L20 31L20 32L23 32L23 33L22 33L22 35L23 35L23 34L25 34L25 33L24 33L24 32L26 32L26 33L27 33L27 35L26 35L26 36L28 36L28 35L29 35L29 36L32 36L32 35L34 35L34 34L32 34L32 33L31 33L31 34L30 34L30 33L29 33L29 34L28 34L28 33L27 33L27 32L26 32L26 30L25 30L25 31L24 31L24 30L23 30L23 29L25 29L25 28L26 28L26 29L27 29L27 31L28 31L28 27L30 27L30 28L34 28L34 27L33 27L33 26L34 26L34 24L33 24L33 23L31 23L31 24L32 24L32 25L31 25L31 26L32 26L32 27L30 27L30 26L27 26L27 28L26 28L26 26L25 26L25 25L30 25L30 24L29 24L29 23L30 23L30 22L33 22L33 21L34 21L34 20L36 20L36 18L35 18L35 17L34 17L34 16L36 16L36 15L34 15L34 16L33 16L33 17L32 17L32 16L31 16L31 17L30 17L30 16L29 16L29 15L28 15L28 16L27 16L27 15L24 15L24 14ZM2 16L2 17L3 17L3 16ZM12 16L12 18L13 18L13 16ZM25 16L25 17L24 17L24 18L25 18L25 17L26 17L26 16ZM22 17L22 18L23 18L23 17ZM28 17L28 18L27 18L27 19L26 19L26 20L27 20L27 21L26 21L26 22L27 22L27 23L26 23L26 24L28 24L28 22L27 22L27 21L29 21L29 22L30 22L30 21L33 21L33 20L34 20L34 19L35 19L35 18L34 18L34 17L33 17L33 18L30 18L30 17ZM33 18L33 19L30 19L30 20L29 20L29 19L28 19L28 20L29 20L29 21L30 21L30 20L33 20L33 19L34 19L34 18ZM24 19L24 20L25 20L25 19ZM24 21L24 22L25 22L25 21ZM24 23L24 25L22 25L22 27L23 27L23 28L21 28L21 29L23 29L23 28L25 28L25 26L24 26L24 25L25 25L25 23ZM10 24L10 25L9 25L9 26L12 26L12 25L14 25L14 24ZM7 25L7 26L8 26L8 25ZM20 25L20 26L21 26L21 25ZM23 26L23 27L24 27L24 26ZM9 28L9 29L10 29L10 28ZM16 28L16 29L17 29L17 28ZM29 29L29 32L32 32L32 29ZM9 30L9 31L10 31L10 32L9 32L9 34L10 34L10 32L11 32L11 31L10 31L10 30ZM22 30L22 31L23 31L23 30ZM30 30L30 31L31 31L31 30ZM11 34L11 35L12 35L12 34ZM29 34L29 35L30 35L30 34ZM31 34L31 35L32 35L32 34ZM24 35L24 36L25 36L25 35ZM0 0L0 7L7 7L7 0ZM1 1L1 6L6 6L6 1ZM2 2L2 5L5 5L5 2ZM30 0L30 7L37 7L37 0ZM31 1L31 6L36 6L36 1ZM32 2L32 5L35 5L35 2ZM0 30L0 37L7 37L7 30ZM1 31L1 36L6 36L6 31ZM2 32L2 35L5 35L5 32Z" fill="#000000"/></g></g></svg>
