<?xml version="1.0" encoding="UTF-8"?>
<svg xmlns="http://www.w3.org/2000/svg" version="1.1" width="300" height="300" viewBox="0 0 300 300"><rect x="0" y="0" width="300" height="300" fill="#ffffff"/><g transform="scale(8.108)"><g transform="translate(0,0)"><path fill-rule="evenodd" d="M9 0L9 1L8 1L8 3L9 3L9 6L8 6L8 7L9 7L9 8L10 8L10 9L11 9L11 12L10 12L10 10L9 10L9 13L8 13L8 12L6 12L6 11L7 11L7 10L8 10L8 9L7 9L7 8L5 8L5 9L4 9L4 8L1 8L1 10L0 10L0 12L1 12L1 10L4 10L4 11L5 11L5 12L3 12L3 11L2 11L2 13L1 13L1 15L0 15L0 16L2 16L2 19L3 19L3 20L0 20L0 22L1 22L1 21L3 21L3 22L2 22L2 24L3 24L3 23L4 23L4 24L5 24L5 26L4 26L4 25L2 25L2 26L1 26L1 27L0 27L0 28L1 28L1 27L3 27L3 28L2 28L2 29L4 29L4 28L6 28L6 29L7 29L7 28L9 28L9 29L8 29L8 30L9 30L9 29L10 29L10 31L11 31L11 32L12 32L12 33L10 33L10 32L9 32L9 31L8 31L8 32L9 32L9 33L8 33L8 36L9 36L9 37L10 37L10 35L11 35L11 37L12 37L12 36L14 36L14 37L15 37L15 36L16 36L16 37L17 37L17 34L18 34L18 37L19 37L19 36L20 36L20 37L22 37L22 36L20 36L20 35L19 35L19 32L20 32L20 33L21 33L21 34L22 34L22 33L21 33L21 32L22 32L22 31L23 31L23 30L25 30L25 29L26 29L26 28L27 28L27 29L28 29L28 31L27 31L27 30L26 30L26 31L27 31L27 32L28 32L28 33L25 33L25 35L23 35L23 37L25 37L25 35L26 35L26 34L27 34L27 36L26 36L26 37L28 37L28 33L30 33L30 36L29 36L29 37L32 37L32 36L33 36L33 37L37 37L37 36L35 36L35 35L36 35L36 34L34 34L34 33L33 33L33 32L34 32L34 31L33 31L33 28L31 28L31 26L30 26L30 28L29 28L29 25L28 25L28 24L27 24L27 21L26 21L26 20L24 20L24 19L23 19L23 18L21 18L21 17L19 17L19 18L18 18L18 16L17 16L17 15L14 15L14 13L15 13L15 14L17 14L17 13L18 13L18 15L19 15L19 16L23 16L23 17L25 17L25 18L26 18L26 17L27 17L27 19L28 19L28 20L30 20L30 19L31 19L31 23L33 23L33 25L32 25L32 24L30 24L30 21L29 21L29 24L30 24L30 25L32 25L32 26L35 26L35 25L36 25L36 26L37 26L37 25L36 25L36 24L37 24L37 21L36 21L36 19L37 19L37 17L35 17L35 16L34 16L34 15L33 15L33 17L35 17L35 18L36 18L36 19L35 19L35 21L36 21L36 24L35 24L35 23L34 23L34 22L32 22L32 21L34 21L34 20L33 20L33 18L32 18L32 17L30 17L30 16L31 16L31 14L33 14L33 11L34 11L34 12L36 12L36 14L37 14L37 11L36 11L36 8L34 8L34 9L30 9L30 10L28 10L28 9L27 9L27 5L28 5L28 8L29 8L29 5L28 5L28 4L29 4L29 1L28 1L28 4L27 4L27 3L26 3L26 4L25 4L25 2L26 2L26 1L27 1L27 0L25 0L25 2L23 2L23 4L22 4L22 5L20 5L20 7L19 7L19 5L18 5L18 8L17 8L17 9L16 9L16 8L15 8L15 6L16 6L16 7L17 7L17 4L18 4L18 3L19 3L19 4L20 4L20 3L21 3L21 2L19 2L19 0L18 0L18 1L17 1L17 2L18 2L18 3L17 3L17 4L15 4L15 3L16 3L16 1L15 1L15 3L14 3L14 1L12 1L12 0L11 0L11 1L10 1L10 0ZM21 0L21 1L22 1L22 0ZM9 1L9 2L10 2L10 5L11 5L11 2L10 2L10 1ZM12 2L12 4L13 4L13 2ZM14 4L14 6L13 6L13 7L12 7L12 6L11 6L11 9L12 9L12 12L11 12L11 14L10 14L10 15L11 15L11 16L7 16L7 15L6 15L6 14L7 14L7 13L6 13L6 12L5 12L5 13L4 13L4 16L3 16L3 13L2 13L2 16L3 16L3 17L6 17L6 18L5 18L5 19L6 19L6 20L3 20L3 21L4 21L4 23L5 23L5 21L6 21L6 22L7 22L7 23L6 23L6 24L8 24L8 25L6 25L6 26L5 26L5 27L6 27L6 28L7 28L7 27L8 27L8 25L9 25L9 26L10 26L10 28L11 28L11 26L10 26L10 25L12 25L12 24L10 24L10 25L9 25L9 24L8 24L8 22L7 22L7 21L8 21L8 20L9 20L9 21L10 21L10 22L9 22L9 23L10 23L10 22L11 22L11 21L12 21L12 20L13 20L13 21L14 21L14 19L13 19L13 17L14 17L14 18L15 18L15 17L17 17L17 16L15 16L15 17L14 17L14 15L13 15L13 14L12 14L12 13L14 13L14 11L13 11L13 7L14 7L14 6L15 6L15 4ZM24 5L24 6L23 6L23 8L22 8L22 6L21 6L21 7L20 7L20 8L19 8L19 10L18 10L18 11L17 11L17 10L15 10L15 11L17 11L17 12L16 12L16 13L17 13L17 12L18 12L18 11L19 11L19 12L20 12L20 14L19 14L19 15L20 15L20 14L21 14L21 15L22 15L22 13L23 13L23 15L24 15L24 16L27 16L27 17L28 17L28 14L30 14L30 12L28 12L28 10L27 10L27 9L25 9L25 8L24 8L24 6L25 6L25 7L26 7L26 5ZM9 6L9 7L10 7L10 6ZM20 8L20 9L21 9L21 10L22 10L22 8ZM23 8L23 12L24 12L24 14L25 14L25 15L26 15L26 14L27 14L27 13L28 13L28 12L27 12L27 13L26 13L26 11L24 11L24 8ZM5 9L5 10L7 10L7 9ZM34 9L34 11L35 11L35 9ZM19 10L19 11L20 11L20 10ZM30 10L30 11L31 11L31 13L32 13L32 11L33 11L33 10ZM21 12L21 13L22 13L22 12ZM8 14L8 15L9 15L9 14ZM11 14L11 15L12 15L12 14ZM36 15L36 16L37 16L37 15ZM6 16L6 17L7 17L7 18L6 18L6 19L7 19L7 20L6 20L6 21L7 21L7 20L8 20L8 19L9 19L9 18L10 18L10 19L11 19L11 18L10 18L10 17L7 17L7 16ZM28 18L28 19L29 19L29 18ZM31 18L31 19L32 19L32 18ZM18 19L18 21L17 21L17 20L15 20L15 21L16 21L16 22L18 22L18 23L17 23L17 24L16 24L16 23L14 23L14 22L12 22L12 23L14 23L14 25L15 25L15 27L16 27L16 28L17 28L17 29L16 29L16 31L15 31L15 30L14 30L14 29L13 29L13 30L14 30L14 32L15 32L15 33L13 33L13 34L12 34L12 35L13 35L13 34L17 34L17 32L18 32L18 31L19 31L19 30L17 30L17 29L22 29L22 28L23 28L23 27L25 27L25 28L24 28L24 29L25 29L25 28L26 28L26 27L25 27L25 26L24 26L24 24L25 24L25 25L26 25L26 26L28 26L28 25L27 25L27 24L25 24L25 23L26 23L26 21L25 21L25 23L23 23L23 25L22 25L22 23L21 23L21 21L20 21L20 20L22 20L22 19L20 19L20 20L19 20L19 19ZM10 20L10 21L11 21L11 20ZM23 20L23 21L22 21L22 22L24 22L24 20ZM19 21L19 22L20 22L20 21ZM19 23L19 24L17 24L17 25L16 25L16 26L17 26L17 28L21 28L21 27L22 27L22 25L21 25L21 23ZM0 24L0 25L1 25L1 24ZM19 24L19 25L20 25L20 26L21 26L21 25L20 25L20 24ZM17 25L17 26L18 26L18 25ZM3 26L3 27L4 27L4 26ZM6 26L6 27L7 27L7 26ZM13 26L13 27L12 27L12 28L13 28L13 27L14 27L14 26ZM27 27L27 28L28 28L28 27ZM34 27L34 28L35 28L35 27ZM11 29L11 30L12 30L12 29ZM29 29L29 32L32 32L32 29ZM35 29L35 30L36 30L36 31L37 31L37 29ZM21 30L21 31L22 31L22 30ZM30 30L30 31L31 31L31 30ZM12 31L12 32L13 32L13 31ZM16 31L16 32L17 32L17 31ZM35 32L35 33L37 33L37 32ZM9 33L9 34L10 34L10 33ZM31 33L31 34L32 34L32 33ZM33 34L33 35L34 35L34 34ZM14 35L14 36L15 36L15 35ZM0 0L0 7L7 7L7 0ZM1 1L1 6L6 6L6 1ZM2 2L2 5L5 5L5 2ZM30 0L30 7L37 7L37 0ZM31 1L31 6L36 6L36 1ZM32 2L32 5L35 5L35 2ZM0 30L0 37L7 37L7 30ZM1 31L1 36L6 36L6 31ZM2 32L2 35L5 35L5 32Z" fill="#000000"/></g></g></svg>
