<?xml version="1.0" encoding="UTF-8"?>
<svg xmlns="http://www.w3.org/2000/svg" version="1.1" width="300" height="300" viewBox="0 0 300 300"><rect x="0" y="0" width="300" height="300" fill="#ffffff"/><g transform="scale(8.108)"><g transform="translate(0,0)"><path fill-rule="evenodd" d="M8 0L8 5L9 5L9 4L10 4L10 3L9 3L9 1L10 1L10 2L11 2L11 3L14 3L14 4L13 4L13 5L12 5L12 4L11 4L11 5L10 5L10 7L9 7L9 6L8 6L8 8L6 8L6 9L8 9L8 8L9 8L9 9L10 9L10 11L9 11L9 10L8 10L8 11L7 11L7 10L6 10L6 11L7 11L7 12L4 12L4 11L5 11L5 8L4 8L4 9L3 9L3 8L1 8L1 9L2 9L2 10L4 10L4 11L1 11L1 12L0 12L0 14L1 14L1 12L3 12L3 13L5 13L5 14L6 14L6 15L5 15L5 16L3 16L3 15L4 15L4 14L2 14L2 16L3 16L3 17L4 17L4 19L3 19L3 20L4 20L4 22L5 22L5 23L4 23L4 24L3 24L3 25L4 25L4 24L5 24L5 26L4 26L4 27L3 27L3 28L2 28L2 27L1 27L1 26L2 26L2 25L1 25L1 24L0 24L0 25L1 25L1 26L0 26L0 27L1 27L1 28L0 28L0 29L1 29L1 28L2 28L2 29L4 29L4 28L5 28L5 29L8 29L8 31L9 31L9 32L8 32L8 33L10 33L10 35L11 35L11 33L10 33L10 29L11 29L11 32L13 32L13 33L14 33L14 34L12 34L12 36L10 36L10 37L12 37L12 36L15 36L15 37L17 37L17 35L19 35L19 36L18 36L18 37L19 37L19 36L20 36L20 35L19 35L19 34L20 34L20 33L19 33L19 34L17 34L17 33L18 33L18 32L21 32L21 31L22 31L22 30L19 30L19 29L21 29L21 27L22 27L22 26L21 26L21 27L20 27L20 25L19 25L19 26L17 26L17 23L18 23L18 24L20 24L20 22L18 22L18 21L20 21L20 20L21 20L21 25L22 25L22 24L24 24L24 23L23 23L23 22L24 22L24 21L23 21L23 20L24 20L24 19L23 19L23 18L24 18L24 17L23 17L23 16L25 16L25 18L26 18L26 19L25 19L25 20L26 20L26 21L25 21L25 22L26 22L26 23L25 23L25 24L26 24L26 26L27 26L27 27L25 27L25 26L24 26L24 28L25 28L25 29L26 29L26 30L27 30L27 31L25 31L25 32L24 32L24 31L23 31L23 34L22 34L22 33L21 33L21 34L22 34L22 35L21 35L21 36L22 36L22 37L25 37L25 35L26 35L26 34L25 34L25 33L26 33L26 32L27 32L27 31L28 31L28 33L27 33L27 35L28 35L28 37L29 37L29 36L30 36L30 37L34 37L34 35L35 35L35 37L37 37L37 36L36 36L36 35L37 35L37 33L36 33L36 32L35 32L35 34L34 34L34 35L33 35L33 33L34 33L34 31L35 31L35 30L34 30L34 29L36 29L36 31L37 31L37 28L36 28L36 27L37 27L37 25L36 25L36 24L37 24L37 23L36 23L36 21L37 21L37 20L36 20L36 19L37 19L37 16L36 16L36 15L37 15L37 12L36 12L36 11L37 11L37 8L32 8L32 10L33 10L33 11L32 11L32 12L33 12L33 13L35 13L35 12L36 12L36 15L35 15L35 14L34 14L34 15L33 15L33 14L31 14L31 12L30 12L30 11L31 11L31 10L30 10L30 9L31 9L31 8L30 8L30 9L29 9L29 12L28 12L28 11L27 11L27 10L28 10L28 9L27 9L27 10L26 10L26 9L25 9L25 14L24 14L24 15L23 15L23 13L24 13L24 11L23 11L23 10L22 10L22 8L23 8L23 9L24 9L24 8L25 8L25 6L24 6L24 8L23 8L23 6L22 6L22 7L21 7L21 6L20 6L20 5L21 5L21 4L20 4L20 5L18 5L18 4L17 4L17 5L18 5L18 7L19 7L19 8L17 8L17 9L13 9L13 10L11 10L11 8L10 8L10 7L11 7L11 5L12 5L12 7L13 7L13 6L14 6L14 7L15 7L15 8L16 8L16 7L17 7L17 6L16 6L16 5L15 5L15 6L14 6L14 4L15 4L15 2L17 2L17 3L18 3L18 1L19 1L19 2L22 2L22 5L23 5L23 3L24 3L24 2L22 2L22 1L23 1L23 0L22 0L22 1L21 1L21 0L20 0L20 1L19 1L19 0L18 0L18 1L17 1L17 0L16 0L16 1L15 1L15 0L14 0L14 1L15 1L15 2L13 2L13 1L12 1L12 0ZM25 0L25 1L26 1L26 2L25 2L25 5L26 5L26 7L27 7L27 6L28 6L28 8L29 8L29 6L28 6L28 5L29 5L29 3L27 3L27 2L28 2L28 1L29 1L29 0L27 0L27 1L26 1L26 0ZM15 6L15 7L16 7L16 6ZM19 6L19 7L20 7L20 6ZM19 8L19 9L18 9L18 11L16 11L16 10L13 10L13 11L12 11L12 13L11 13L11 12L10 12L10 13L8 13L8 12L9 12L9 11L8 11L8 12L7 12L7 13L6 13L6 14L7 14L7 15L6 15L6 16L7 16L7 17L5 17L5 18L7 18L7 17L10 17L10 16L9 16L9 14L10 14L10 15L11 15L11 16L14 16L14 17L12 17L12 18L11 18L11 20L10 20L10 18L8 18L8 19L4 19L4 20L8 20L8 21L9 21L9 20L10 20L10 22L11 22L11 21L12 21L12 20L14 20L14 21L13 21L13 22L12 22L12 23L11 23L11 24L12 24L12 25L11 25L11 26L13 26L13 28L12 28L12 29L13 29L13 31L14 31L14 33L16 33L16 31L17 31L17 32L18 32L18 31L19 31L19 30L18 30L18 29L19 29L19 28L20 28L20 27L19 27L19 28L18 28L18 29L17 29L17 30L16 30L16 29L15 29L15 28L14 28L14 27L16 27L16 28L17 28L17 26L15 26L15 25L13 25L13 24L12 24L12 23L14 23L14 24L16 24L16 23L17 23L17 21L16 21L16 20L20 20L20 19L22 19L22 18L20 18L20 19L17 19L17 18L16 18L16 19L15 19L15 17L16 17L16 16L14 16L14 15L15 15L15 14L14 14L14 13L13 13L13 12L14 12L14 11L15 11L15 13L16 13L16 12L18 12L18 13L17 13L17 14L16 14L16 15L19 15L19 13L20 13L20 15L22 15L22 14L21 14L21 13L22 13L22 12L21 12L21 11L22 11L22 10L20 10L20 11L19 11L19 9L21 9L21 8ZM34 9L34 10L35 10L35 11L34 11L34 12L35 12L35 11L36 11L36 9ZM27 12L27 13L26 13L26 14L25 14L25 15L26 15L26 16L27 16L27 17L26 17L26 18L27 18L27 19L28 19L28 20L29 20L29 19L30 19L30 16L31 16L31 17L32 17L32 18L35 18L35 19L31 19L31 20L32 20L32 22L31 22L31 23L30 23L30 22L28 22L28 21L27 21L27 23L28 23L28 24L27 24L27 25L28 25L28 24L29 24L29 28L31 28L31 27L30 27L30 26L31 26L31 25L30 25L30 24L31 24L31 23L32 23L32 24L33 24L33 25L32 25L32 26L33 26L33 27L32 27L32 28L33 28L33 29L34 29L34 27L36 27L36 25L35 25L35 23L34 23L34 22L35 22L35 19L36 19L36 17L35 17L35 15L34 15L34 17L33 17L33 15L31 15L31 14L30 14L30 12L29 12L29 13L28 13L28 12ZM27 13L27 14L26 14L26 15L27 15L27 16L28 16L28 19L29 19L29 16L28 16L28 15L27 15L27 14L28 14L28 13ZM11 14L11 15L12 15L12 14ZM13 14L13 15L14 15L14 14ZM29 14L29 15L30 15L30 14ZM7 15L7 16L8 16L8 15ZM17 16L17 17L18 17L18 18L19 18L19 17L22 17L22 16L19 16L19 17L18 17L18 16ZM0 17L0 18L1 18L1 19L2 19L2 17ZM13 18L13 19L14 19L14 18ZM8 19L8 20L9 20L9 19ZM6 21L6 22L7 22L7 23L6 23L6 24L7 24L7 23L9 23L9 22L7 22L7 21ZM14 21L14 23L15 23L15 21ZM22 21L22 22L23 22L23 21ZM0 22L0 23L1 23L1 22ZM32 22L32 23L33 23L33 22ZM8 24L8 25L9 25L9 26L8 26L8 27L5 27L5 28L11 28L11 27L10 27L10 24ZM6 25L6 26L7 26L7 25ZM34 25L34 26L35 26L35 25ZM27 27L27 28L28 28L28 27ZM13 28L13 29L14 29L14 30L15 30L15 31L16 31L16 30L15 30L15 29L14 29L14 28ZM29 29L29 32L32 32L32 29ZM30 30L30 31L31 31L31 30ZM33 30L33 31L34 31L34 30ZM30 33L30 35L31 35L31 36L33 36L33 35L32 35L32 33ZM8 34L8 36L9 36L9 34ZM14 34L14 35L15 35L15 34ZM16 34L16 35L17 35L17 34ZM35 34L35 35L36 35L36 34ZM23 35L23 36L24 36L24 35ZM0 0L0 7L7 7L7 0ZM1 1L1 6L6 6L6 1ZM2 2L2 5L5 5L5 2ZM30 0L30 7L37 7L37 0ZM31 1L31 6L36 6L36 1ZM32 2L32 5L35 5L35 2ZM0 30L0 37L7 37L7 30ZM1 31L1 36L6 36L6 31ZM2 32L2 35L5 35L5 32Z" fill="#000000"/></g></g></svg>
