<?xml version="1.0" encoding="UTF-8"?>
<svg xmlns="http://www.w3.org/2000/svg" version="1.1" width="300" height="300" viewBox="0 0 300 300"><rect x="0" y="0" width="300" height="300" fill="#ffffff"/><g transform="scale(8.108)"><g transform="translate(0,0)"><path fill-rule="evenodd" d="M8 0L8 1L9 1L9 3L10 3L10 7L11 7L11 8L12 8L12 10L11 10L11 9L10 9L10 8L9 8L9 9L8 9L8 8L1 8L1 10L0 10L0 11L1 11L1 10L2 10L2 13L3 13L3 14L1 14L1 12L0 12L0 14L1 14L1 16L0 16L0 17L1 17L1 19L2 19L2 20L0 20L0 29L1 29L1 24L4 24L4 23L3 23L3 22L2 22L2 23L1 23L1 21L2 21L2 20L3 20L3 21L4 21L4 22L6 22L6 23L5 23L5 24L6 24L6 25L5 25L5 26L2 26L2 27L3 27L3 28L6 28L6 29L7 29L7 28L6 28L6 27L8 27L8 28L10 28L10 29L8 29L8 36L9 36L9 37L10 37L10 35L11 35L11 37L14 37L14 36L15 36L15 35L16 35L16 37L18 37L18 34L19 34L19 33L18 33L18 31L17 31L17 30L18 30L18 29L17 29L17 28L16 28L16 27L19 27L19 31L20 31L20 33L21 33L21 34L20 34L20 35L21 35L21 36L20 36L20 37L22 37L22 36L23 36L23 37L25 37L25 36L26 36L26 37L28 37L28 36L29 36L29 35L28 35L28 34L26 34L26 33L29 33L29 34L33 34L33 32L34 32L34 33L36 33L36 32L37 32L37 30L36 30L36 29L37 29L37 26L36 26L36 24L33 24L33 23L32 23L32 22L30 22L30 21L33 21L33 22L34 22L34 23L36 23L36 22L37 22L37 18L36 18L36 17L37 17L37 14L36 14L36 13L35 13L35 14L36 14L36 16L34 16L34 14L33 14L33 15L32 15L32 17L33 17L33 16L34 16L34 17L35 17L35 18L33 18L33 19L32 19L32 20L30 20L30 19L31 19L31 18L30 18L30 17L31 17L31 15L30 15L30 13L31 13L31 14L32 14L32 13L33 13L33 12L34 12L34 11L33 11L33 10L34 10L34 9L33 9L33 8L31 8L31 9L30 9L30 10L32 10L32 11L29 11L29 10L28 10L28 9L29 9L29 8L26 8L26 7L27 7L27 6L28 6L28 7L29 7L29 6L28 6L28 5L29 5L29 4L28 4L28 5L26 5L26 4L27 4L27 3L28 3L28 2L29 2L29 1L27 1L27 0L25 0L25 1L23 1L23 2L22 2L22 1L20 1L20 3L19 3L19 0L18 0L18 1L17 1L17 0L16 0L16 1L17 1L17 2L18 2L18 3L19 3L19 4L18 4L18 5L17 5L17 3L16 3L16 2L15 2L15 0L13 0L13 2L10 2L10 1L9 1L9 0ZM11 0L11 1L12 1L12 0ZM14 2L14 3L12 3L12 4L11 4L11 7L12 7L12 8L13 8L13 10L12 10L12 11L10 11L10 12L9 12L9 11L8 11L8 9L6 9L6 10L7 10L7 11L6 11L6 12L9 12L9 14L8 14L8 15L6 15L6 14L7 14L7 13L5 13L5 12L3 12L3 13L4 13L4 14L3 14L3 16L1 16L1 17L3 17L3 16L4 16L4 17L5 17L5 16L9 16L9 15L10 15L10 13L11 13L11 14L12 14L12 13L13 13L13 12L14 12L14 14L13 14L13 15L12 15L12 16L13 16L13 17L14 17L14 16L13 16L13 15L14 15L14 14L16 14L16 16L15 16L15 18L16 18L16 19L13 19L13 18L12 18L12 17L11 17L11 16L10 16L10 17L9 17L9 18L10 18L10 19L13 19L13 20L15 20L15 21L14 21L14 22L12 22L12 20L10 20L10 21L11 21L11 22L12 22L12 23L13 23L13 24L10 24L10 23L8 23L8 22L7 22L7 21L6 21L6 20L7 20L7 19L5 19L5 18L3 18L3 20L4 20L4 21L6 21L6 22L7 22L7 23L6 23L6 24L8 24L8 25L6 25L6 26L5 26L5 27L6 27L6 26L9 26L9 24L10 24L10 26L12 26L12 25L13 25L13 27L14 27L14 26L15 26L15 25L17 25L17 26L18 26L18 25L20 25L20 24L21 24L21 26L19 26L19 27L20 27L20 28L23 28L23 29L21 29L21 30L20 30L20 31L21 31L21 32L24 32L24 31L25 31L25 32L26 32L26 30L23 30L23 29L25 29L25 28L26 28L26 29L28 29L28 27L29 27L29 28L34 28L34 29L33 29L33 30L34 30L34 32L35 32L35 31L36 31L36 30L35 30L35 29L36 29L36 26L35 26L35 28L34 28L34 27L33 27L33 26L34 26L34 25L33 25L33 24L32 24L32 23L31 23L31 24L32 24L32 25L31 25L31 26L32 26L32 27L30 27L30 26L27 26L27 28L26 28L26 26L25 26L25 27L24 27L24 26L23 26L23 27L22 27L22 25L27 25L27 24L26 24L26 23L27 23L27 22L29 22L29 23L30 23L30 22L29 22L29 21L30 21L30 20L29 20L29 21L27 21L27 20L26 20L26 19L27 19L27 18L29 18L29 19L30 19L30 18L29 18L29 17L30 17L30 16L29 16L29 15L28 15L28 16L29 16L29 17L27 17L27 12L26 12L26 10L27 10L27 9L26 9L26 8L25 8L25 7L26 7L26 6L25 6L25 7L24 7L24 6L23 6L23 5L25 5L25 4L26 4L26 3L27 3L27 2L26 2L26 3L25 3L25 2L24 2L24 3L25 3L25 4L23 4L23 3L20 3L20 4L23 4L23 5L20 5L20 6L19 6L19 5L18 5L18 6L17 6L17 5L16 5L16 3L15 3L15 2ZM14 3L14 4L13 4L13 5L14 5L14 4L15 4L15 3ZM8 4L8 7L9 7L9 4ZM12 6L12 7L13 7L13 8L14 8L14 10L15 10L15 11L14 11L14 12L15 12L15 13L16 13L16 12L15 12L15 11L16 11L16 10L18 10L18 9L19 9L19 6L18 6L18 7L17 7L17 6L16 6L16 7L17 7L17 8L16 8L16 9L15 9L15 8L14 8L14 7L15 7L15 6L14 6L14 7L13 7L13 6ZM20 6L20 10L21 10L21 12L20 12L20 11L19 11L19 12L18 12L18 11L17 11L17 14L18 14L18 13L19 13L19 14L20 14L20 16L18 16L18 17L17 17L17 16L16 16L16 17L17 17L17 20L18 20L18 21L19 21L19 22L17 22L17 21L15 21L15 24L16 24L16 23L17 23L17 25L18 25L18 23L21 23L21 24L22 24L22 23L23 23L23 22L22 22L22 21L21 21L21 20L23 20L23 17L22 17L22 16L23 16L23 15L22 15L22 14L25 14L25 15L24 15L24 16L25 16L25 17L24 17L24 18L25 18L25 17L26 17L26 16L25 16L25 15L26 15L26 14L25 14L25 13L26 13L26 12L25 12L25 10L24 10L24 9L25 9L25 8L24 8L24 7L23 7L23 6L22 6L22 7L21 7L21 6ZM17 8L17 9L18 9L18 8ZM21 8L21 9L23 9L23 8ZM36 8L36 9L35 9L35 10L36 10L36 12L37 12L37 10L36 10L36 9L37 9L37 8ZM4 9L4 10L5 10L5 9ZM22 10L22 11L23 11L23 12L22 12L22 13L23 13L23 12L24 12L24 13L25 13L25 12L24 12L24 10ZM12 11L12 12L11 12L11 13L12 13L12 12L13 12L13 11ZM28 11L28 14L29 14L29 13L30 13L30 12L29 12L29 11ZM19 12L19 13L20 13L20 12ZM31 12L31 13L32 13L32 12ZM4 14L4 15L5 15L5 14ZM6 17L6 18L8 18L8 17ZM10 17L10 18L11 18L11 17ZM19 17L19 18L18 18L18 19L19 19L19 18L20 18L20 17ZM21 18L21 19L22 19L22 18ZM35 18L35 19L33 19L33 20L36 20L36 18ZM24 19L24 20L25 20L25 19ZM8 20L8 21L9 21L9 20ZM20 21L20 22L21 22L21 21ZM24 21L24 22L25 22L25 21ZM26 21L26 22L27 22L27 21ZM34 21L34 22L36 22L36 21ZM24 23L24 24L25 24L25 23ZM13 24L13 25L14 25L14 24ZM28 24L28 25L30 25L30 24ZM10 27L10 28L11 28L11 29L10 29L10 30L9 30L9 31L10 31L10 32L9 32L9 34L10 34L10 32L11 32L11 33L13 33L13 35L12 35L12 34L11 34L11 35L12 35L12 36L13 36L13 35L15 35L15 32L11 32L11 31L10 31L10 30L12 30L12 31L13 31L13 30L14 30L14 28L12 28L12 27ZM23 27L23 28L24 28L24 27ZM15 28L15 29L16 29L16 30L17 30L17 29L16 29L16 28ZM12 29L12 30L13 30L13 29ZM29 29L29 32L32 32L32 29ZM22 30L22 31L23 31L23 30ZM27 30L27 32L28 32L28 30ZM30 30L30 31L31 31L31 30ZM16 31L16 32L17 32L17 31ZM17 33L17 34L18 34L18 33ZM22 33L22 35L23 35L23 34L25 34L25 33ZM36 34L36 36L34 36L34 35L31 35L31 36L30 36L30 37L31 37L31 36L34 36L34 37L37 37L37 34ZM24 35L24 36L25 36L25 35ZM26 35L26 36L28 36L28 35ZM0 0L0 7L7 7L7 0ZM1 1L1 6L6 6L6 1ZM2 2L2 5L5 5L5 2ZM30 0L30 7L37 7L37 0ZM31 1L31 6L36 6L36 1ZM32 2L32 5L35 5L35 2ZM0 30L0 37L7 37L7 30ZM1 31L1 36L6 36L6 31ZM2 32L2 35L5 35L5 32Z" fill="#000000"/></g></g></svg>
