<?xml version="1.0" encoding="UTF-8"?>
<svg xmlns="http://www.w3.org/2000/svg" version="1.1" width="300" height="300" viewBox="0 0 300 300"><rect x="0" y="0" width="300" height="300" fill="#ffffff"/><g transform="scale(8.108)"><g transform="translate(0,0)"><path fill-rule="evenodd" d="M11 0L11 1L9 1L9 2L8 2L8 3L9 3L9 2L11 2L11 1L12 1L12 0ZM14 0L14 1L13 1L13 2L14 2L14 3L16 3L16 4L17 4L17 5L18 5L18 8L15 8L15 9L16 9L16 10L13 10L13 11L12 11L12 9L14 9L14 7L15 7L15 6L16 6L16 7L17 7L17 6L16 6L16 5L15 5L15 4L14 4L14 5L12 5L12 4L13 4L13 3L12 3L12 4L11 4L11 5L10 5L10 8L8 8L8 9L7 9L7 8L6 8L6 9L5 9L5 8L4 8L4 9L5 9L5 10L6 10L6 11L7 11L7 12L5 12L5 11L4 11L4 10L2 10L2 12L1 12L1 9L2 9L2 8L1 8L1 9L0 9L0 13L2 13L2 14L3 14L3 13L2 13L2 12L5 12L5 13L7 13L7 12L9 12L9 11L10 11L10 12L11 12L11 14L12 14L12 13L13 13L13 15L12 15L12 16L11 16L11 17L9 17L9 18L8 18L8 16L6 16L6 15L9 15L9 16L10 16L10 15L9 15L9 14L10 14L10 13L8 13L8 14L5 14L5 15L4 15L4 16L2 16L2 15L1 15L1 17L0 17L0 18L1 18L1 20L0 20L0 22L1 22L1 21L3 21L3 19L4 19L4 21L5 21L5 22L4 22L4 23L1 23L1 24L0 24L0 26L2 26L2 27L3 27L3 28L0 28L0 29L3 29L3 28L5 28L5 29L7 29L7 28L8 28L8 30L9 30L9 29L10 29L10 28L11 28L11 29L12 29L12 30L11 30L11 31L9 31L9 32L8 32L8 33L9 33L9 35L8 35L8 36L9 36L9 35L10 35L10 34L11 34L11 35L12 35L12 36L10 36L10 37L15 37L15 36L16 36L16 35L17 35L17 34L20 34L20 35L21 35L21 36L22 36L22 35L23 35L23 34L21 34L21 33L18 33L18 32L21 32L21 31L20 31L20 30L19 30L19 29L20 29L20 26L18 26L18 25L16 25L16 24L18 24L18 22L20 22L20 23L19 23L19 24L20 24L20 25L21 25L21 26L22 26L22 25L23 25L23 27L22 27L22 29L21 29L21 30L22 30L22 29L23 29L23 31L22 31L22 33L23 33L23 32L24 32L24 33L25 33L25 31L24 31L24 29L25 29L25 27L24 27L24 26L25 26L25 25L27 25L27 24L28 24L28 22L29 22L29 23L30 23L30 21L31 21L31 24L30 24L30 25L28 25L28 27L29 27L29 28L27 28L27 26L26 26L26 28L27 28L27 29L26 29L26 32L27 32L27 29L28 29L28 33L26 33L26 34L25 34L25 35L24 35L24 36L23 36L23 37L26 37L26 35L27 35L27 37L28 37L28 35L29 35L29 36L30 36L30 35L31 35L31 37L33 37L33 35L34 35L34 37L37 37L37 36L36 36L36 34L35 34L35 35L34 35L34 34L33 34L33 35L32 35L32 33L36 33L36 32L35 32L35 31L36 31L36 29L37 29L37 27L35 27L35 28L36 28L36 29L35 29L35 30L33 30L33 28L31 28L31 27L32 27L32 26L33 26L33 27L34 27L34 26L35 26L35 25L36 25L36 24L37 24L37 20L36 20L36 17L37 17L37 16L36 16L36 15L35 15L35 14L34 14L34 15L33 15L33 13L34 13L34 12L35 12L35 13L37 13L37 11L36 11L36 9L35 9L35 8L34 8L34 9L35 9L35 10L34 10L34 11L33 11L33 10L32 10L32 11L30 11L30 12L29 12L29 11L28 11L28 10L27 10L27 9L26 9L26 7L27 7L27 8L28 8L28 9L30 9L30 10L31 10L31 9L33 9L33 8L31 8L31 9L30 9L30 8L29 8L29 5L28 5L28 3L26 3L26 2L25 2L25 1L23 1L23 2L20 2L20 1L22 1L22 0L18 0L18 1L17 1L17 0ZM27 0L27 1L28 1L28 0ZM15 1L15 2L16 2L16 1ZM18 1L18 3L17 3L17 4L18 4L18 3L20 3L20 4L19 4L19 11L20 11L20 13L19 13L19 12L18 12L18 9L17 9L17 12L16 12L16 11L14 11L14 13L15 13L15 14L16 14L16 15L15 15L15 17L18 17L18 16L16 16L16 15L17 15L17 14L16 14L16 13L17 13L17 12L18 12L18 13L19 13L19 15L20 15L20 18L22 18L22 17L23 17L23 18L24 18L24 17L26 17L26 16L27 16L27 17L28 17L28 18L30 18L30 19L27 19L27 18L25 18L25 19L24 19L24 20L22 20L22 22L24 22L24 21L25 21L25 20L26 20L26 19L27 19L27 21L26 21L26 22L25 22L25 23L24 23L24 24L23 24L23 23L22 23L22 24L23 24L23 25L25 25L25 24L26 24L26 23L27 23L27 21L30 21L30 19L31 19L31 17L28 17L28 15L29 15L29 16L31 16L31 15L32 15L32 17L33 17L33 18L32 18L32 20L31 20L31 21L33 21L33 22L32 22L32 24L31 24L31 25L32 25L32 24L33 24L33 25L34 25L34 23L33 23L33 22L34 22L34 19L35 19L35 17L33 17L33 15L32 15L32 13L33 13L33 12L32 12L32 13L29 13L29 12L27 12L27 14L24 14L24 15L25 15L25 16L23 16L23 15L22 15L22 16L21 16L21 14L22 14L22 13L26 13L26 11L27 11L27 10L26 10L26 11L25 11L25 10L24 10L24 11L22 11L22 12L21 12L21 11L20 11L20 8L21 8L21 7L22 7L22 6L23 6L23 8L22 8L22 9L21 9L21 10L22 10L22 9L23 9L23 8L24 8L24 9L25 9L25 8L24 8L24 6L23 6L23 5L25 5L25 7L26 7L26 6L27 6L27 7L28 7L28 5L26 5L26 3L24 3L24 2L23 2L23 5L22 5L22 3L20 3L20 2L19 2L19 1ZM8 4L8 7L9 7L9 4ZM11 5L11 7L12 7L12 8L13 8L13 7L14 7L14 6L13 6L13 7L12 7L12 5ZM20 5L20 7L21 7L21 5ZM6 9L6 10L7 10L7 11L9 11L9 10L10 10L10 11L11 11L11 12L12 12L12 11L11 11L11 10L10 10L10 9L8 9L8 10L7 10L7 9ZM24 11L24 12L25 12L25 11ZM20 13L20 14L21 14L21 13ZM27 14L27 15L28 15L28 14ZM30 14L30 15L31 15L31 14ZM13 15L13 16L14 16L14 15ZM4 16L4 18L5 18L5 16ZM1 17L1 18L2 18L2 17ZM6 17L6 18L7 18L7 17ZM11 17L11 18L12 18L12 17ZM13 17L13 18L14 18L14 17ZM15 18L15 19L16 19L16 21L15 21L15 22L14 22L14 19L11 19L11 20L9 20L9 21L8 21L8 20L7 20L7 19L6 19L6 20L5 20L5 21L6 21L6 22L5 22L5 24L4 24L4 25L5 25L5 26L4 26L4 27L5 27L5 28L7 28L7 27L6 27L6 26L8 26L8 25L9 25L9 27L8 27L8 28L10 28L10 25L12 25L12 26L11 26L11 28L12 28L12 29L13 29L13 30L14 30L14 32L13 32L13 31L11 31L11 32L12 32L12 33L13 33L13 34L12 34L12 35L13 35L13 36L14 36L14 33L15 33L15 34L17 34L17 33L16 33L16 32L15 32L15 31L17 31L17 32L18 32L18 31L17 31L17 30L14 30L14 29L13 29L13 27L14 27L14 28L15 28L15 26L16 26L16 27L17 27L17 28L16 28L16 29L17 29L17 28L19 28L19 27L17 27L17 26L16 26L16 25L15 25L15 26L14 26L14 24L15 24L15 22L16 22L16 21L17 21L17 22L18 22L18 21L20 21L20 22L21 22L21 21L20 21L20 20L18 20L18 21L17 21L17 19L16 19L16 18ZM18 18L18 19L19 19L19 18ZM33 18L33 19L34 19L34 18ZM6 20L6 21L7 21L7 22L6 22L6 23L7 23L7 24L5 24L5 25L7 25L7 24L8 24L8 23L9 23L9 24L10 24L10 21L9 21L9 22L8 22L8 21L7 21L7 20ZM12 20L12 22L13 22L13 20ZM35 21L35 23L36 23L36 21ZM20 23L20 24L21 24L21 23ZM2 24L2 25L3 25L3 24ZM12 24L12 25L13 25L13 24ZM12 26L12 27L13 27L13 26ZM29 26L29 27L31 27L31 26ZM23 27L23 29L24 29L24 27ZM29 29L29 32L32 32L32 29ZM30 30L30 31L31 31L31 30ZM29 33L29 35L30 35L30 33ZM27 34L27 35L28 35L28 34ZM18 35L18 37L20 37L20 36L19 36L19 35ZM0 0L0 7L7 7L7 0ZM1 1L1 6L6 6L6 1ZM2 2L2 5L5 5L5 2ZM30 0L30 7L37 7L37 0ZM31 1L31 6L36 6L36 1ZM32 2L32 5L35 5L35 2ZM0 30L0 37L7 37L7 30ZM1 31L1 36L6 36L6 31ZM2 32L2 35L5 35L5 32Z" fill="#000000"/></g></g></svg>
