<?xml version="1.0" encoding="UTF-8"?>
<svg xmlns="http://www.w3.org/2000/svg" version="1.1" width="300" height="300" viewBox="0 0 300 300"><rect x="0" y="0" width="300" height="300" fill="#ffffff"/><g transform="scale(6.122)"><g transform="translate(0,0)"><path fill-rule="evenodd" d="M9 0L9 1L8 1L8 3L9 3L9 6L8 6L8 7L9 7L9 10L8 10L8 9L7 9L7 8L5 8L5 10L4 10L4 8L1 8L1 10L0 10L0 11L1 11L1 13L0 13L0 16L1 16L1 15L2 15L2 14L4 14L4 13L2 13L2 11L3 11L3 12L5 12L5 11L9 11L9 10L10 10L10 12L6 12L6 13L5 13L5 15L7 15L7 16L5 16L5 17L3 17L3 16L2 16L2 17L1 17L1 19L2 19L2 20L3 20L3 18L5 18L5 17L7 17L7 16L8 16L8 17L9 17L9 18L6 18L6 19L7 19L7 20L6 20L6 21L5 21L5 20L4 20L4 21L5 21L5 22L4 22L4 26L1 26L1 27L0 27L0 28L1 28L1 27L2 27L2 29L1 29L1 30L0 30L0 31L1 31L1 30L3 30L3 31L2 31L2 32L3 32L3 33L4 33L4 35L3 35L3 36L2 36L2 33L1 33L1 35L0 35L0 36L2 36L2 37L0 37L0 38L1 38L1 40L0 40L0 41L3 41L3 40L4 40L4 39L2 39L2 37L3 37L3 38L5 38L5 39L10 39L10 43L8 43L8 44L12 44L12 43L11 43L11 42L13 42L13 43L14 43L14 44L15 44L15 43L16 43L16 46L15 46L15 45L11 45L11 46L12 46L12 47L11 47L11 49L12 49L12 48L15 48L15 49L18 49L18 48L20 48L20 49L21 49L21 48L20 48L20 47L21 47L21 46L23 46L23 47L22 47L22 48L24 48L24 49L25 49L25 47L24 47L24 46L23 46L23 45L28 45L28 46L29 46L29 49L30 49L30 48L31 48L31 49L32 49L32 48L33 48L33 49L34 49L34 48L35 48L35 49L38 49L38 48L39 48L39 47L41 47L41 46L40 46L40 45L42 45L42 47L43 47L43 48L45 48L45 49L49 49L49 48L47 48L47 47L45 47L45 45L46 45L46 46L49 46L49 40L48 40L48 42L47 42L47 40L46 40L46 39L48 39L48 38L49 38L49 36L48 36L48 35L46 35L46 37L45 37L45 36L44 36L44 37L43 37L43 38L45 38L45 39L44 39L44 40L42 40L42 39L41 39L41 40L40 40L40 41L39 41L39 40L37 40L37 42L35 42L35 41L36 41L36 39L35 39L35 41L34 41L34 38L33 38L33 37L35 37L35 36L36 36L36 38L37 38L37 37L38 37L38 39L39 39L39 37L40 37L40 38L41 38L41 37L42 37L42 36L43 36L43 35L42 35L42 33L43 33L43 31L44 31L44 33L45 33L45 32L46 32L46 31L47 31L47 32L49 32L49 29L48 29L48 31L47 31L47 30L46 30L46 29L47 29L47 28L49 28L49 27L47 27L47 28L45 28L45 30L46 30L46 31L44 31L44 27L46 27L46 25L48 25L48 26L49 26L49 25L48 25L48 24L49 24L49 23L48 23L48 24L47 24L47 23L45 23L45 22L43 22L43 21L41 21L41 22L40 22L40 20L38 20L38 19L35 19L35 20L33 20L33 21L32 21L32 20L31 20L31 19L34 19L34 17L36 17L36 15L34 15L34 17L33 17L33 15L32 15L32 13L31 13L31 12L29 12L29 11L28 11L28 10L27 10L27 12L26 12L26 13L24 13L24 15L23 15L23 16L21 16L21 15L22 15L22 14L23 14L23 12L24 12L24 10L25 10L25 11L26 11L26 9L27 9L27 4L30 4L30 3L33 3L33 4L31 4L31 5L28 5L28 7L29 7L29 6L30 6L30 7L31 7L31 8L29 8L29 9L30 9L30 11L31 11L31 10L32 10L32 12L34 12L34 11L36 11L36 13L35 13L35 14L37 14L37 12L39 12L39 13L38 13L38 15L37 15L37 16L39 16L39 17L38 17L38 18L39 18L39 17L40 17L40 18L41 18L41 17L44 17L44 18L42 18L42 19L41 19L41 20L42 20L42 19L43 19L43 20L44 20L44 19L45 19L45 21L46 21L46 22L47 22L47 21L46 21L46 18L45 18L45 17L47 17L47 16L46 16L46 15L45 15L45 14L46 14L46 13L47 13L47 15L48 15L48 14L49 14L49 13L48 13L48 12L49 12L49 11L48 11L48 8L46 8L46 10L43 10L43 9L42 9L42 11L43 11L43 14L42 14L42 16L41 16L41 15L39 15L39 13L42 13L42 12L41 12L41 11L40 11L40 10L39 10L39 11L38 11L38 10L37 10L37 9L39 9L39 8L40 8L40 7L41 7L41 6L40 6L40 7L39 7L39 5L38 5L38 2L39 2L39 4L40 4L40 3L41 3L41 0L40 0L40 1L38 1L38 0L35 0L35 1L34 1L34 2L32 2L32 1L31 1L31 0L29 0L29 1L28 1L28 2L27 2L27 1L26 1L26 2L24 2L24 1L25 1L25 0L22 0L22 1L21 1L21 2L20 2L20 3L19 3L19 0L16 0L16 1L18 1L18 2L16 2L16 3L15 3L15 4L14 4L14 5L11 5L11 4L12 4L12 3L10 3L10 2L11 2L11 1L12 1L12 2L15 2L15 0ZM35 1L35 2L34 2L34 3L36 3L36 2L38 2L38 1ZM21 2L21 7L20 7L20 6L19 6L19 7L18 7L18 5L20 5L20 4L18 4L18 3L17 3L17 7L18 7L18 8L20 8L20 12L18 12L18 11L19 11L19 10L18 10L18 9L17 9L17 8L16 8L16 4L15 4L15 5L14 5L14 6L13 6L13 7L14 7L14 9L12 9L12 8L11 8L11 9L10 9L10 10L11 10L11 12L10 12L10 13L11 13L11 14L10 14L10 15L8 15L8 13L6 13L6 14L7 14L7 15L8 15L8 16L10 16L10 19L11 19L11 21L10 21L10 20L9 20L9 19L8 19L8 20L9 20L9 21L6 21L6 22L9 22L9 24L13 24L13 25L14 25L14 24L13 24L13 23L14 23L14 21L17 21L17 24L16 24L16 23L15 23L15 24L16 24L16 25L15 25L15 28L16 28L16 26L17 26L17 28L19 28L19 30L21 30L21 34L20 34L20 33L19 33L19 32L20 32L20 31L19 31L19 32L18 32L18 34L17 34L17 35L18 35L18 34L19 34L19 36L16 36L16 35L15 35L15 34L16 34L16 33L17 33L17 31L18 31L18 29L17 29L17 30L15 30L15 29L11 29L11 30L8 30L8 29L9 29L9 28L11 28L11 27L12 27L12 28L13 28L13 26L11 26L11 25L10 25L10 26L9 26L9 28L7 28L7 27L4 27L4 28L5 28L5 29L4 29L4 33L5 33L5 32L8 32L8 33L9 33L9 32L10 32L10 33L12 33L12 32L13 32L13 31L16 31L16 33L14 33L14 35L13 35L13 34L12 34L12 35L9 35L9 36L7 36L7 35L6 35L6 36L7 36L7 37L5 37L5 38L11 38L11 40L12 40L12 41L13 41L13 40L16 40L16 41L15 41L15 42L14 42L14 43L15 43L15 42L16 42L16 41L17 41L17 45L19 45L19 46L21 46L21 44L20 44L20 45L19 45L19 43L20 43L20 42L21 42L21 43L22 43L22 40L23 40L23 38L22 38L22 39L20 39L20 38L21 38L21 37L22 37L22 36L21 36L21 34L22 34L22 35L24 35L24 36L23 36L23 37L24 37L24 40L25 40L25 37L27 37L27 36L25 36L25 34L26 34L26 35L27 35L27 33L26 33L26 32L28 32L28 33L31 33L31 34L32 34L32 35L28 35L28 37L30 37L30 38L31 38L31 40L30 40L30 39L29 39L29 40L28 40L28 41L27 41L27 44L28 44L28 43L29 43L29 44L30 44L30 45L32 45L32 46L33 46L33 48L34 48L34 46L35 46L35 48L36 48L36 47L37 47L37 48L38 48L38 47L39 47L39 45L40 45L40 42L39 42L39 41L38 41L38 44L36 44L36 45L38 45L38 46L35 46L35 45L34 45L34 44L33 44L33 43L35 43L35 42L34 42L34 41L32 41L32 39L33 39L33 38L31 38L31 37L33 37L33 36L34 36L34 35L33 35L33 34L32 34L32 31L33 31L33 29L36 29L36 30L35 30L35 31L34 31L34 32L33 32L33 33L34 33L34 34L35 34L35 35L36 35L36 34L38 34L38 35L37 35L37 36L39 36L39 33L42 33L42 31L41 31L41 30L43 30L43 27L42 27L42 28L41 28L41 27L36 27L36 28L35 28L35 25L34 25L34 24L36 24L36 23L37 23L37 25L36 25L36 26L38 26L38 25L40 25L40 23L39 23L39 21L38 21L38 20L35 20L35 21L33 21L33 23L34 23L34 24L32 24L32 26L31 26L31 25L30 25L30 24L31 24L31 23L30 23L30 22L27 22L27 20L30 20L30 21L31 21L31 22L32 22L32 21L31 21L31 20L30 20L30 18L28 18L28 17L26 17L26 18L28 18L28 19L26 19L26 20L25 20L25 17L24 17L24 18L22 18L22 19L24 19L24 21L22 21L22 22L19 22L19 23L20 23L20 24L21 24L21 25L19 25L19 24L18 24L18 20L20 20L20 21L21 21L21 17L20 17L20 16L19 16L19 14L18 14L18 15L17 15L17 14L16 14L16 15L15 15L15 14L14 14L14 15L12 15L12 13L16 13L16 12L15 12L15 11L16 11L16 10L18 10L18 11L17 11L17 13L21 13L21 14L20 14L20 15L21 15L21 14L22 14L22 13L21 13L21 12L23 12L23 11L21 11L21 10L23 10L23 9L22 9L22 2ZM23 2L23 3L24 3L24 4L25 4L25 3L24 3L24 2ZM26 2L26 3L27 3L27 2ZM28 2L28 3L29 3L29 2ZM34 4L34 5L32 5L32 6L31 6L31 7L32 7L32 6L33 6L33 8L32 8L32 10L33 10L33 9L34 9L34 10L35 10L35 9L37 9L37 7L38 7L38 5L37 5L37 7L36 7L36 5L35 5L35 4ZM10 5L10 6L9 6L9 7L10 7L10 6L11 6L11 7L12 7L12 6L11 6L11 5ZM23 5L23 8L26 8L26 5ZM14 6L14 7L15 7L15 6ZM24 6L24 7L25 7L25 6ZM34 6L34 7L35 7L35 6ZM6 9L6 10L7 10L7 9ZM1 10L1 11L2 11L2 10ZM12 10L12 12L11 12L11 13L12 13L12 12L13 12L13 10ZM36 10L36 11L37 11L37 10ZM46 10L46 11L45 11L45 12L44 12L44 14L43 14L43 15L44 15L44 14L45 14L45 13L46 13L46 11L47 11L47 12L48 12L48 11L47 11L47 10ZM1 13L1 14L2 14L2 13ZM27 13L27 14L25 14L25 15L24 15L24 16L25 16L25 15L26 15L26 16L28 16L28 15L27 15L27 14L28 14L28 13ZM29 13L29 15L30 15L30 16L31 16L31 18L33 18L33 17L32 17L32 16L31 16L31 15L30 15L30 14L31 14L31 13ZM33 13L33 14L34 14L34 13ZM10 15L10 16L12 16L12 15ZM13 16L13 17L12 17L12 18L11 18L11 19L12 19L12 18L13 18L13 19L14 19L14 20L13 20L13 21L14 21L14 20L15 20L15 19L16 19L16 18L17 18L17 19L18 19L18 18L19 18L19 19L20 19L20 17L19 17L19 16L18 16L18 18L17 18L17 17L16 17L16 16ZM40 16L40 17L41 17L41 16ZM48 16L48 18L47 18L47 19L49 19L49 16ZM2 17L2 18L3 18L3 17ZM14 17L14 18L16 18L16 17ZM0 20L0 22L1 22L1 20ZM25 21L25 22L22 22L22 23L21 23L21 24L22 24L22 25L21 25L21 26L20 26L20 27L19 27L19 28L20 28L20 29L21 29L21 30L22 30L22 33L24 33L24 34L25 34L25 33L24 33L24 32L25 32L25 31L28 31L28 28L29 28L29 26L28 26L28 24L30 24L30 23L27 23L27 22L26 22L26 21ZM35 21L35 22L34 22L34 23L35 23L35 22L37 22L37 21ZM2 22L2 23L3 23L3 22ZM12 22L12 23L13 23L13 22ZM5 23L5 26L8 26L8 23ZM23 23L23 26L26 26L26 23ZM41 23L41 26L44 26L44 23ZM0 24L0 25L1 25L1 24ZM2 24L2 25L3 25L3 24ZM6 24L6 25L7 25L7 24ZM24 24L24 25L25 25L25 24ZM42 24L42 25L43 25L43 24ZM18 25L18 26L19 26L19 25ZM33 25L33 26L32 26L32 28L31 28L31 26L30 26L30 29L29 29L29 30L30 30L30 29L33 29L33 27L34 27L34 25ZM10 26L10 27L11 27L11 26ZM21 26L21 27L20 27L20 28L21 28L21 29L22 29L22 30L23 30L23 31L25 31L25 29L24 29L24 30L23 30L23 29L22 29L22 28L24 28L24 27L22 27L22 26ZM27 26L27 27L28 27L28 26ZM21 27L21 28L22 28L22 27ZM25 27L25 28L26 28L26 30L27 30L27 28L26 28L26 27ZM6 28L6 29L7 29L7 28ZM40 28L40 30L38 30L38 31L37 31L37 30L36 30L36 31L35 31L35 33L37 33L37 32L38 32L38 33L39 33L39 32L41 32L41 31L40 31L40 30L41 30L41 28ZM6 30L6 31L8 31L8 32L9 32L9 31L8 31L8 30ZM12 30L12 31L13 31L13 30ZM31 30L31 31L32 31L32 30ZM29 31L29 32L30 32L30 31ZM36 31L36 32L37 32L37 31ZM6 33L6 34L7 34L7 33ZM40 34L40 37L41 37L41 36L42 36L42 35L41 35L41 34ZM14 35L14 36L11 36L11 37L12 37L12 38L13 38L13 39L17 39L17 40L18 40L18 43L19 43L19 42L20 42L20 41L19 41L19 40L20 40L20 39L17 39L17 38L18 38L18 37L15 37L15 35ZM32 35L32 36L33 36L33 35ZM3 36L3 37L4 37L4 36ZM9 36L9 37L10 37L10 36ZM47 36L47 37L46 37L46 38L47 38L47 37L48 37L48 36ZM19 37L19 38L20 38L20 37ZM26 38L26 39L28 39L28 38ZM6 40L6 41L8 41L8 42L9 42L9 40ZM23 41L23 44L26 44L26 41ZM41 41L41 44L44 44L44 41ZM24 42L24 43L25 43L25 42ZM29 42L29 43L31 43L31 44L32 44L32 43L31 43L31 42ZM42 42L42 43L43 43L43 42ZM46 42L46 45L47 45L47 42ZM38 44L38 45L39 45L39 44ZM8 45L8 48L9 48L9 49L10 49L10 48L9 48L9 46L10 46L10 45ZM43 45L43 46L44 46L44 45ZM13 46L13 47L15 47L15 48L16 48L16 47L18 47L18 46L16 46L16 47L15 47L15 46ZM26 46L26 47L27 47L27 46ZM27 48L27 49L28 49L28 48ZM40 48L40 49L41 49L41 48ZM0 0L0 7L7 7L7 0ZM1 1L1 6L6 6L6 1ZM2 2L2 5L5 5L5 2ZM42 0L42 7L49 7L49 0ZM43 1L43 6L48 6L48 1ZM44 2L44 5L47 5L47 2ZM0 42L0 49L7 49L7 42ZM1 43L1 48L6 48L6 43ZM2 44L2 47L5 47L5 44Z" fill="#000000"/></g></g></svg>
