<?xml version="1.0" encoding="UTF-8"?>
<svg xmlns="http://www.w3.org/2000/svg" version="1.1" width="300" height="300" viewBox="0 0 300 300"><rect x="0" y="0" width="300" height="300" fill="#ffffff"/><g transform="scale(7.317)"><g transform="translate(0,0)"><path fill-rule="evenodd" d="M9 0L9 1L8 1L8 2L10 2L10 1L11 1L11 2L13 2L13 3L15 3L15 5L14 5L14 7L15 7L15 8L16 8L16 9L14 9L14 8L11 8L11 9L10 9L10 10L9 10L9 13L10 13L10 14L11 14L11 17L13 17L13 15L15 15L15 16L18 16L18 17L17 17L17 19L15 19L15 17L14 17L14 19L15 19L15 20L14 20L14 21L15 21L15 22L14 22L14 23L13 23L13 21L11 21L11 22L10 22L10 21L9 21L9 20L6 20L6 19L9 19L9 18L6 18L6 17L7 17L7 16L6 16L6 17L3 17L3 18L2 18L2 16L5 16L5 14L4 14L4 12L3 12L3 11L5 11L5 9L7 9L7 10L6 10L6 11L7 11L7 12L6 12L6 13L7 13L7 12L8 12L8 11L7 11L7 10L8 10L8 9L9 9L9 8L10 8L10 7L11 7L11 5L12 5L12 7L13 7L13 4L12 4L12 3L8 3L8 5L10 5L10 7L9 7L9 6L8 6L8 9L7 9L7 8L3 8L3 9L2 9L2 8L1 8L1 9L0 9L0 10L1 10L1 9L2 9L2 11L1 11L1 12L2 12L2 14L3 14L3 15L0 15L0 16L1 16L1 17L0 17L0 19L1 19L1 20L0 20L0 25L2 25L2 26L3 26L3 25L4 25L4 26L5 26L5 25L7 25L7 24L11 24L11 23L12 23L12 25L13 25L13 27L16 27L16 29L15 29L15 30L14 30L14 31L15 31L15 32L14 32L14 33L12 33L12 32L13 32L13 31L12 31L12 30L13 30L13 29L14 29L14 28L12 28L12 26L11 26L11 29L10 29L10 28L5 28L5 27L4 27L4 29L5 29L5 30L4 30L4 31L3 31L3 29L1 29L1 28L2 28L2 27L1 27L1 26L0 26L0 27L1 27L1 28L0 28L0 33L3 33L3 32L5 32L5 33L8 33L8 34L9 34L9 35L8 35L8 38L9 38L9 39L8 39L8 40L9 40L9 41L10 41L10 37L9 37L9 36L10 36L10 35L11 35L11 33L12 33L12 34L14 34L14 35L15 35L15 34L16 34L16 33L15 33L15 32L16 32L16 31L19 31L19 32L18 32L18 33L17 33L17 38L16 38L16 36L15 36L15 37L13 37L13 36L12 36L12 38L11 38L11 39L12 39L12 41L16 41L16 40L19 40L19 41L22 41L22 40L23 40L23 41L24 41L24 39L26 39L26 37L27 37L27 39L28 39L28 41L29 41L29 39L30 39L30 41L35 41L35 39L36 39L36 41L38 41L38 40L39 40L39 39L38 39L38 38L39 38L39 37L40 37L40 36L41 36L41 35L40 35L40 33L41 33L41 32L40 32L40 31L41 31L41 30L40 30L40 28L41 28L41 24L40 24L40 27L38 27L38 26L39 26L39 25L38 25L38 23L39 23L39 22L38 22L38 21L41 21L41 20L39 20L39 19L41 19L41 18L40 18L40 17L41 17L41 11L40 11L40 10L38 10L38 11L37 11L37 9L38 9L38 8L36 8L36 11L35 11L35 12L33 12L33 13L32 13L32 12L31 12L31 13L29 13L29 14L28 14L28 13L27 13L27 12L28 12L28 10L29 10L29 12L30 12L30 11L31 11L31 10L33 10L33 9L35 9L35 8L33 8L33 6L32 6L32 8L31 8L31 5L32 5L32 4L33 4L33 0L32 0L32 1L30 1L30 2L31 2L31 3L29 3L29 4L28 4L28 5L30 5L30 8L29 8L29 9L28 9L28 8L27 8L27 6L26 6L26 7L25 7L25 6L24 6L24 7L25 7L25 8L27 8L27 9L26 9L26 10L25 10L25 11L27 11L27 12L26 12L26 13L24 13L24 10L23 10L23 8L22 8L22 7L23 7L23 5L25 5L25 3L26 3L26 5L27 5L27 3L26 3L26 2L27 2L27 0L26 0L26 1L25 1L25 0L24 0L24 2L25 2L25 3L24 3L24 4L23 4L23 0L22 0L22 2L20 2L20 3L19 3L19 2L18 2L18 3L17 3L17 2L16 2L16 3L15 3L15 1L18 1L18 0L14 0L14 2L13 2L13 1L12 1L12 0ZM19 0L19 1L20 1L20 0ZM18 3L18 4L19 4L19 3ZM20 3L20 5L21 5L21 7L20 7L20 6L19 6L19 7L18 7L18 5L17 5L17 4L16 4L16 6L15 6L15 7L16 7L16 6L17 6L17 9L16 9L16 11L15 11L15 10L14 10L14 9L13 9L13 10L14 10L14 11L12 11L12 10L11 10L11 12L10 12L10 13L11 13L11 12L13 12L13 14L12 14L12 15L13 15L13 14L14 14L14 12L18 12L18 13L17 13L17 14L19 14L19 15L18 15L18 16L19 16L19 15L21 15L21 13L22 13L22 15L23 15L23 16L24 16L24 17L22 17L22 16L20 16L20 17L18 17L18 18L19 18L19 19L17 19L17 20L16 20L16 22L18 22L18 23L17 23L17 25L15 25L15 24L13 24L13 25L15 25L15 26L16 26L16 27L18 27L18 28L17 28L17 30L20 30L20 31L21 31L21 32L20 32L20 33L19 33L19 35L18 35L18 38L17 38L17 39L18 39L18 38L21 38L21 39L20 39L20 40L22 40L22 39L24 39L24 38L25 38L25 37L24 37L24 38L23 38L23 36L22 36L22 38L21 38L21 36L20 36L20 34L22 34L22 35L23 35L23 33L22 33L22 32L23 32L23 31L24 31L24 32L25 32L25 33L24 33L24 35L25 35L25 36L26 36L26 32L27 32L27 30L26 30L26 32L25 32L25 31L24 31L24 30L25 30L25 29L24 29L24 28L23 28L23 27L24 27L24 26L22 26L22 27L21 27L21 26L20 26L20 27L18 27L18 26L19 26L19 24L21 24L21 23L22 23L22 24L23 24L23 23L22 23L22 22L23 22L23 21L25 21L25 20L26 20L26 19L27 19L27 17L28 17L28 22L29 22L29 23L27 23L27 22L26 22L26 23L25 23L25 22L24 22L24 23L25 23L25 24L24 24L24 25L25 25L25 28L28 28L28 27L26 27L26 26L27 26L27 25L28 25L28 26L30 26L30 27L29 27L29 30L28 30L28 32L31 32L31 28L30 28L30 27L31 27L31 26L32 26L32 25L33 25L33 24L32 24L32 23L34 23L34 22L35 22L35 24L36 24L36 25L37 25L37 26L38 26L38 25L37 25L37 24L36 24L36 23L37 23L37 22L36 22L36 21L38 21L38 20L36 20L36 19L35 19L35 17L37 17L37 16L38 16L38 19L39 19L39 16L38 16L38 15L39 15L39 14L38 14L38 15L37 15L37 14L36 14L36 13L40 13L40 12L39 12L39 11L38 11L38 12L36 12L36 13L35 13L35 14L34 14L34 15L33 15L33 14L32 14L32 13L31 13L31 14L32 14L32 16L31 16L31 17L32 17L32 18L33 18L33 19L32 19L32 20L33 20L33 21L32 21L32 22L31 22L31 21L29 21L29 20L31 20L31 19L29 19L29 18L30 18L30 14L29 14L29 16L28 16L28 15L27 15L27 14L24 14L24 13L22 13L22 12L23 12L23 11L22 11L22 10L21 10L21 11L20 11L20 9L21 9L21 7L22 7L22 5L23 5L23 4L21 4L21 3ZM31 3L31 4L30 4L30 5L31 5L31 4L32 4L32 3ZM28 6L28 7L29 7L29 6ZM39 8L39 9L40 9L40 8ZM3 9L3 10L4 10L4 9ZM17 9L17 11L18 11L18 12L19 12L19 13L21 13L21 12L19 12L19 9ZM30 9L30 10L31 10L31 9ZM6 14L6 15L8 15L8 16L9 16L9 15L8 15L8 14ZM24 15L24 16L25 16L25 17L24 17L24 18L22 18L22 17L20 17L20 19L19 19L19 20L17 20L17 21L18 21L18 22L20 22L20 21L19 21L19 20L21 20L21 22L22 22L22 20L25 20L25 18L26 18L26 17L27 17L27 16L25 16L25 15ZM35 15L35 16L37 16L37 15ZM33 16L33 17L34 17L34 16ZM1 18L1 19L2 19L2 18ZM3 18L3 19L6 19L6 18ZM11 18L11 19L12 19L12 18ZM21 19L21 20L22 20L22 19ZM33 19L33 20L34 20L34 21L33 21L33 22L34 22L34 21L36 21L36 20L35 20L35 19ZM3 21L3 23L2 23L2 22L1 22L1 24L2 24L2 25L3 25L3 23L4 23L4 24L5 24L5 23L4 23L4 22L5 22L5 21ZM6 21L6 22L8 22L8 23L9 23L9 22L8 22L8 21ZM6 23L6 24L7 24L7 23ZM18 23L18 24L19 24L19 23ZM29 23L29 24L28 24L28 25L29 25L29 24L30 24L30 26L31 26L31 25L32 25L32 24L30 24L30 23ZM26 24L26 25L27 25L27 24ZM9 25L9 26L6 26L6 27L10 27L10 25ZM17 25L17 26L18 26L18 25ZM35 26L35 27L34 27L34 30L33 30L33 27L32 27L32 32L33 32L33 31L36 31L36 32L37 32L37 30L39 30L39 28L38 28L38 29L37 29L37 28L36 28L36 26ZM20 27L20 29L21 29L21 30L22 30L22 31L23 31L23 30L24 30L24 29L23 29L23 28L22 28L22 29L21 29L21 27ZM18 28L18 29L19 29L19 28ZM6 29L6 30L5 30L5 32L7 32L7 31L6 31L6 30L8 30L8 31L9 31L9 34L10 34L10 29L9 29L9 30L8 30L8 29ZM11 29L11 30L12 30L12 29ZM36 29L36 30L37 30L37 29ZM29 30L29 31L30 31L30 30ZM14 33L14 34L15 34L15 33ZM28 33L28 35L27 35L27 36L29 36L29 37L28 37L28 39L29 39L29 37L31 37L31 38L30 38L30 39L31 39L31 40L33 40L33 38L34 38L34 39L35 39L35 37L33 37L33 38L32 38L32 37L31 37L31 36L32 36L32 35L31 35L31 33ZM33 33L33 36L36 36L36 33ZM37 33L37 34L38 34L38 33ZM29 34L29 36L31 36L31 35L30 35L30 34ZM34 34L34 35L35 35L35 34ZM37 35L37 37L36 37L36 38L38 38L38 37L39 37L39 36L40 36L40 35ZM19 36L19 37L20 37L20 36ZM12 38L12 39L13 39L13 40L15 40L15 38ZM31 38L31 39L32 39L32 38ZM40 38L40 40L41 40L41 38ZM37 39L37 40L38 40L38 39ZM25 40L25 41L27 41L27 40ZM0 0L0 7L7 7L7 0ZM1 1L1 6L6 6L6 1ZM2 2L2 5L5 5L5 2ZM34 0L34 7L41 7L41 0ZM35 1L35 6L40 6L40 1ZM36 2L36 5L39 5L39 2ZM0 34L0 41L7 41L7 34ZM1 35L1 40L6 40L6 35ZM2 36L2 39L5 39L5 36Z" fill="#000000"/></g></g></svg>
