<?xml version="1.0" encoding="UTF-8"?>
<svg xmlns="http://www.w3.org/2000/svg" version="1.1" width="300" height="300" viewBox="0 0 300 300"><rect x="0" y="0" width="300" height="300" fill="#ffffff"/><g transform="scale(6.122)"><g transform="translate(0,0)"><path fill-rule="evenodd" d="M8 0L8 1L9 1L9 2L10 2L10 3L11 3L11 4L10 4L10 5L11 5L11 6L10 6L10 7L9 7L9 4L8 4L8 7L9 7L9 8L11 8L11 6L12 6L12 7L13 7L13 6L14 6L14 12L13 12L13 13L16 13L16 14L15 14L15 15L16 15L16 16L15 16L15 18L13 18L13 19L12 19L12 18L11 18L11 17L14 17L14 16L13 16L13 15L12 15L12 16L11 16L11 12L8 12L8 11L7 11L7 10L8 10L8 8L1 8L1 10L0 10L0 13L1 13L1 14L2 14L2 16L3 16L3 17L4 17L4 19L3 19L3 18L1 18L1 15L0 15L0 18L1 18L1 19L0 19L0 20L1 20L1 21L0 21L0 26L1 26L1 27L2 27L2 28L1 28L1 29L0 29L0 30L1 30L1 32L2 32L2 33L4 33L4 35L3 35L3 34L1 34L1 33L0 33L0 36L1 36L1 37L0 37L0 38L1 38L1 40L0 40L0 41L3 41L3 40L4 40L4 39L2 39L2 38L1 38L1 37L4 37L4 35L5 35L5 36L6 36L6 37L5 37L5 39L7 39L7 38L6 38L6 37L9 37L9 36L6 36L6 35L8 35L8 34L9 34L9 33L11 33L11 34L12 34L12 36L11 36L11 35L10 35L10 36L11 36L11 37L10 37L10 38L11 38L11 37L12 37L12 39L13 39L13 38L14 38L14 39L15 39L15 40L16 40L16 39L15 39L15 38L16 38L16 37L17 37L17 36L18 36L18 39L17 39L17 41L18 41L18 40L19 40L19 41L20 41L20 40L19 40L19 38L20 38L20 35L23 35L23 36L22 36L22 39L23 39L23 40L21 40L21 42L18 42L18 43L17 43L17 44L16 44L16 45L14 45L14 44L13 44L13 46L14 46L14 48L15 48L15 49L18 49L18 46L21 46L21 47L20 47L20 49L21 49L21 48L22 48L22 46L23 46L23 45L27 45L27 44L29 44L29 45L28 45L28 46L27 46L27 49L28 49L28 48L29 48L29 49L30 49L30 47L28 47L28 46L31 46L31 47L32 47L32 48L31 48L31 49L32 49L32 48L33 48L33 49L34 49L34 47L37 47L37 48L35 48L35 49L38 49L38 48L40 48L40 49L41 49L41 47L42 47L42 48L43 48L43 47L44 47L44 48L45 48L45 49L49 49L49 45L48 45L48 44L46 44L46 46L45 46L45 43L46 43L46 42L45 42L45 40L46 40L46 41L48 41L48 40L46 40L46 39L44 39L44 37L45 37L45 38L46 38L46 37L47 37L47 36L48 36L48 37L49 37L49 34L47 34L47 36L44 36L44 37L42 37L42 36L41 36L41 35L40 35L40 36L36 36L36 34L33 34L33 33L36 33L36 32L38 32L38 31L40 31L40 32L39 32L39 34L37 34L37 35L39 35L39 34L42 34L42 35L46 35L46 34L44 34L44 33L49 33L49 30L48 30L48 31L47 31L47 28L48 28L48 29L49 29L49 26L48 26L48 24L45 24L45 23L46 23L46 22L47 22L47 23L49 23L49 22L47 22L47 20L48 20L48 21L49 21L49 18L47 18L47 17L48 17L48 16L45 16L45 15L46 15L46 13L48 13L48 12L46 12L46 11L44 11L44 10L43 10L43 9L45 9L45 8L43 8L43 9L42 9L42 10L41 10L41 11L42 11L42 12L43 12L43 13L42 13L42 14L40 14L40 13L41 13L41 12L39 12L39 10L38 10L38 7L39 7L39 5L38 5L38 3L35 3L35 2L37 2L37 1L38 1L38 2L39 2L39 4L40 4L40 3L41 3L41 0L40 0L40 1L38 1L38 0L35 0L35 1L31 1L31 0L29 0L29 1L28 1L28 2L27 2L27 3L24 3L24 4L22 4L22 3L23 3L23 2L26 2L26 1L27 1L27 0L26 0L26 1L23 1L23 0L21 0L21 1L20 1L20 2L19 2L19 0L16 0L16 1L15 1L15 0ZM12 1L12 2L11 2L11 3L12 3L12 4L13 4L13 5L12 5L12 6L13 6L13 5L14 5L14 6L15 6L15 7L16 7L16 6L17 6L17 7L18 7L18 6L19 6L19 9L20 9L20 10L21 10L21 11L19 11L19 10L17 10L17 9L18 9L18 8L17 8L17 9L15 9L15 10L17 10L17 11L15 11L15 12L17 12L17 11L19 11L19 12L18 12L18 14L19 14L19 15L17 15L17 16L16 16L16 18L18 18L18 19L21 19L21 20L17 20L17 22L18 22L18 23L16 23L16 22L14 22L14 21L16 21L16 20L15 20L15 19L13 19L13 20L10 20L10 19L11 19L11 18L10 18L10 17L11 17L11 16L10 16L10 14L9 14L9 13L6 13L6 12L7 12L7 11L6 11L6 12L5 12L5 9L3 9L3 10L2 10L2 11L1 11L1 13L2 13L2 11L3 11L3 16L5 16L5 18L7 18L7 17L8 17L8 18L10 18L10 19L9 19L9 20L10 20L10 21L8 21L8 20L7 20L7 19L6 19L6 20L5 20L5 19L4 19L4 21L3 21L3 19L1 19L1 20L2 20L2 21L1 21L1 23L2 23L2 24L1 24L1 26L2 26L2 24L3 24L3 25L4 25L4 24L3 24L3 22L5 22L5 21L6 21L6 22L10 22L10 23L11 23L11 24L13 24L13 25L9 25L9 28L10 28L10 30L11 30L11 31L12 31L12 29L13 29L13 30L14 30L14 29L15 29L15 31L14 31L14 34L15 34L15 35L16 35L16 36L17 36L17 35L18 35L18 36L19 36L19 35L20 35L20 32L21 32L21 34L22 34L22 33L23 33L23 35L25 35L25 36L23 36L23 38L24 38L24 39L27 39L27 36L28 36L28 39L29 39L29 40L27 40L27 42L30 42L30 41L29 41L29 40L30 40L30 39L31 39L31 42L32 42L32 43L33 43L33 44L32 44L32 47L33 47L33 46L35 46L35 44L37 44L37 43L35 43L35 42L38 42L38 43L40 43L40 41L39 41L39 40L41 40L41 39L42 39L42 40L44 40L44 39L42 39L42 38L41 38L41 39L38 39L38 38L39 38L39 37L38 37L38 38L37 38L37 39L36 39L36 40L35 40L35 39L34 39L34 40L32 40L32 39L33 39L33 38L36 38L36 36L35 36L35 35L33 35L33 36L31 36L31 38L30 38L30 37L29 37L29 36L30 36L30 35L31 35L31 34L32 34L32 33L31 33L31 34L30 34L30 33L29 33L29 34L30 34L30 35L29 35L29 36L28 36L28 34L27 34L27 36L26 36L26 34L24 34L24 33L25 33L25 32L24 32L24 31L23 31L23 32L22 32L22 31L19 31L19 29L20 29L20 30L21 30L21 29L22 29L22 30L23 30L23 29L24 29L24 30L25 30L25 31L26 31L26 30L28 30L28 32L26 32L26 33L28 33L28 32L36 32L36 30L35 30L35 27L34 27L34 26L36 26L36 28L37 28L37 29L38 29L38 30L37 30L37 31L38 31L38 30L39 30L39 29L38 29L38 28L40 28L40 27L38 27L38 26L40 26L40 24L39 24L39 23L40 23L40 22L41 22L41 21L42 21L42 17L43 17L43 16L42 16L42 15L43 15L43 14L42 14L42 15L41 15L41 16L39 16L39 17L40 17L40 18L37 18L37 19L35 19L35 18L34 18L34 17L33 17L33 16L34 16L34 15L33 15L33 14L37 14L37 15L36 15L36 16L35 16L35 17L36 17L36 16L37 16L37 17L38 17L38 16L37 16L37 15L38 15L38 14L39 14L39 12L38 12L38 10L37 10L37 11L36 11L36 10L35 10L35 9L36 9L36 8L35 8L35 7L36 7L36 6L37 6L37 7L38 7L38 6L37 6L37 4L33 4L33 3L34 3L34 2L33 2L33 3L32 3L32 2L31 2L31 1L29 1L29 2L30 2L30 4L32 4L32 5L30 5L30 6L29 6L29 4L27 4L27 5L28 5L28 6L27 6L27 7L28 7L28 6L29 6L29 7L30 7L30 6L31 6L31 7L32 7L32 8L29 8L29 10L30 10L30 11L33 11L33 12L30 12L30 13L29 13L29 14L27 14L27 13L26 13L26 12L29 12L29 11L26 11L26 12L23 12L23 13L24 13L24 14L23 14L23 15L22 15L22 14L21 14L21 13L20 13L20 14L19 14L19 12L21 12L21 11L22 11L22 10L23 10L23 9L22 9L22 6L21 6L21 8L20 8L20 5L21 5L21 4L19 4L19 2L18 2L18 3L17 3L17 1L16 1L16 3L17 3L17 4L18 4L18 6L17 6L17 5L16 5L16 6L15 6L15 2L14 2L14 1ZM12 2L12 3L13 3L13 4L14 4L14 3L13 3L13 2ZM23 5L23 8L26 8L26 5ZM33 5L33 6L32 6L32 7L33 7L33 6L34 6L34 7L35 7L35 5ZM24 6L24 7L25 7L25 6ZM40 6L40 7L41 7L41 6ZM34 8L34 9L33 9L33 10L34 10L34 12L35 12L35 10L34 10L34 9L35 9L35 8ZM39 8L39 9L41 9L41 8ZM48 8L48 9L46 9L46 10L48 10L48 11L49 11L49 10L48 10L48 9L49 9L49 8ZM6 9L6 10L7 10L7 9ZM10 9L10 11L12 11L12 10L11 10L11 9ZM24 9L24 11L25 11L25 9ZM26 9L26 10L28 10L28 9ZM30 9L30 10L32 10L32 9ZM42 10L42 11L43 11L43 12L44 12L44 13L46 13L46 12L44 12L44 11L43 11L43 10ZM4 12L4 15L7 15L7 16L6 16L6 17L7 17L7 16L8 16L8 15L9 15L9 14L6 14L6 13L5 13L5 12ZM36 12L36 13L37 13L37 14L38 14L38 12ZM25 13L25 17L23 17L23 16L24 16L24 15L23 15L23 16L22 16L22 17L23 17L23 18L25 18L25 19L24 19L24 20L23 20L23 19L22 19L22 18L21 18L21 19L22 19L22 20L23 20L23 21L22 21L22 23L21 23L21 22L19 22L19 21L18 21L18 22L19 22L19 23L21 23L21 24L19 24L19 25L20 25L20 26L19 26L19 27L18 27L18 29L19 29L19 28L20 28L20 27L21 27L21 28L22 28L22 29L23 29L23 28L22 28L22 27L24 27L24 28L25 28L25 30L26 30L26 29L28 29L28 28L29 28L29 30L31 30L31 31L32 31L32 28L33 28L33 29L34 29L34 28L33 28L33 25L32 25L32 24L33 24L33 23L34 23L34 25L36 25L36 26L37 26L37 24L38 24L38 23L39 23L39 22L40 22L40 21L41 21L41 20L40 20L40 19L37 19L37 20L36 20L36 21L35 21L35 22L33 22L33 21L32 21L32 22L31 22L31 20L30 20L30 19L32 19L32 20L34 20L34 18L32 18L32 17L31 17L31 18L30 18L30 17L29 17L29 16L30 16L30 14L31 14L31 16L33 16L33 15L32 15L32 14L31 14L31 13L30 13L30 14L29 14L29 15L28 15L28 17L27 17L27 18L25 18L25 17L26 17L26 13ZM47 14L47 15L49 15L49 14ZM19 15L19 17L21 17L21 16L20 16L20 15ZM17 16L17 17L18 17L18 16ZM44 16L44 17L45 17L45 16ZM28 17L28 20L27 20L27 21L29 21L29 19L30 19L30 18L29 18L29 17ZM46 18L46 19L45 19L45 20L44 20L44 21L43 21L43 22L46 22L46 20L47 20L47 18ZM25 19L25 21L23 21L23 22L25 22L25 21L26 21L26 19ZM6 20L6 21L7 21L7 20ZM39 20L39 21L37 21L37 23L35 23L35 24L37 24L37 23L38 23L38 22L39 22L39 21L40 21L40 20ZM11 22L11 23L12 23L12 22ZM28 22L28 23L27 23L27 24L28 24L28 25L27 25L27 26L28 26L28 27L25 27L25 28L28 28L28 27L29 27L29 28L30 28L30 29L31 29L31 28L32 28L32 27L31 27L31 26L29 26L29 25L30 25L30 24L29 24L29 22ZM30 22L30 23L31 23L31 24L32 24L32 23L33 23L33 22L32 22L32 23L31 23L31 22ZM5 23L5 26L8 26L8 23ZM14 23L14 25L13 25L13 26L12 26L12 27L10 27L10 28L12 28L12 27L14 27L14 28L15 28L15 27L16 27L16 29L17 29L17 27L16 27L16 24L15 24L15 23ZM23 23L23 26L26 26L26 23ZM41 23L41 26L44 26L44 23ZM6 24L6 25L7 25L7 24ZM24 24L24 25L25 25L25 24ZM42 24L42 25L43 25L43 24ZM14 25L14 27L15 27L15 25ZM17 25L17 26L18 26L18 25ZM21 25L21 26L22 26L22 25ZM45 25L45 27L44 27L44 28L45 28L45 29L43 29L43 31L42 31L42 32L41 32L41 33L42 33L42 34L43 34L43 33L44 33L44 32L47 32L47 31L46 31L46 28L47 28L47 27L48 27L48 26L47 26L47 25ZM3 26L3 27L4 27L4 28L2 28L2 29L1 29L1 30L2 30L2 32L3 32L3 31L4 31L4 32L5 32L5 31L6 31L6 32L7 32L7 33L6 33L6 34L5 34L5 35L6 35L6 34L8 34L8 31L9 31L9 32L10 32L10 31L9 31L9 30L8 30L8 31L6 31L6 30L7 30L7 29L8 29L8 28L7 28L7 27L4 27L4 26ZM46 26L46 27L47 27L47 26ZM30 27L30 28L31 28L31 27ZM42 27L42 28L43 28L43 27ZM4 28L4 29L2 29L2 30L5 30L5 29L7 29L7 28ZM40 29L40 31L41 31L41 30L42 30L42 29ZM33 30L33 31L35 31L35 30ZM44 30L44 31L45 31L45 30ZM17 31L17 32L16 32L16 35L17 35L17 34L19 34L19 31ZM11 32L11 33L13 33L13 32ZM17 32L17 33L18 33L18 32ZM23 32L23 33L24 33L24 32ZM1 35L1 36L2 36L2 35ZM13 35L13 37L14 37L14 38L15 38L15 36L14 36L14 35ZM40 36L40 37L41 37L41 36ZM24 37L24 38L26 38L26 37ZM29 38L29 39L30 39L30 38ZM31 38L31 39L32 39L32 38ZM47 38L47 39L49 39L49 38ZM8 39L8 40L6 40L6 41L8 41L8 48L9 48L9 49L10 49L10 48L11 48L11 49L12 49L12 47L10 47L10 45L12 45L12 43L14 43L14 42L15 42L15 41L14 41L14 40L13 40L13 41L12 41L12 40L11 40L11 39L10 39L10 40L9 40L9 39ZM8 40L8 41L9 41L9 40ZM36 40L36 41L38 41L38 40ZM10 41L10 42L9 42L9 44L10 44L10 42L11 42L11 41ZM13 41L13 42L14 42L14 41ZM23 41L23 44L26 44L26 41ZM33 41L33 42L34 42L34 41ZM41 41L41 44L44 44L44 41ZM21 42L21 44L19 44L19 45L22 45L22 42ZM24 42L24 43L25 43L25 42ZM42 42L42 43L43 43L43 42ZM47 42L47 43L49 43L49 42ZM34 43L34 44L33 44L33 45L34 45L34 44L35 44L35 43ZM17 44L17 45L18 45L18 44ZM38 45L38 46L37 46L37 47L38 47L38 46L39 46L39 47L40 47L40 46L41 46L41 45L40 45L40 46L39 46L39 45ZM43 45L43 46L42 46L42 47L43 47L43 46L44 46L44 47L45 47L45 48L48 48L48 47L47 47L47 46L46 46L46 47L45 47L45 46L44 46L44 45ZM15 46L15 48L17 48L17 47L16 47L16 46ZM24 46L24 47L23 47L23 48L24 48L24 49L25 49L25 48L26 48L26 47L25 47L25 46ZM24 47L24 48L25 48L25 47ZM0 0L0 7L7 7L7 0ZM1 1L1 6L6 6L6 1ZM2 2L2 5L5 5L5 2ZM42 0L42 7L49 7L49 0ZM43 1L43 6L48 6L48 1ZM44 2L44 5L47 5L47 2ZM0 42L0 49L7 49L7 42ZM1 43L1 48L6 48L6 43ZM2 44L2 47L5 47L5 44Z" fill="#000000"/></g></g></svg>
