<?xml version="1.0" encoding="UTF-8"?>
<svg xmlns="http://www.w3.org/2000/svg" version="1.1" width="300" height="300" viewBox="0 0 300 300"><rect x="0" y="0" width="300" height="300" fill="#ffffff"/><g transform="scale(8.108)"><g transform="translate(0,0)"><path fill-rule="evenodd" d="M9 0L9 1L10 1L10 0ZM11 0L11 1L12 1L12 0ZM13 0L13 1L15 1L15 2L14 2L14 3L13 3L13 4L12 4L12 5L10 5L10 8L12 8L12 7L13 7L13 10L14 10L14 11L13 11L13 12L14 12L14 13L11 13L11 12L12 12L12 10L11 10L11 11L9 11L9 12L8 12L8 11L7 11L7 10L8 10L8 9L9 9L9 10L10 10L10 9L9 9L9 8L8 8L8 9L7 9L7 8L6 8L6 9L7 9L7 10L5 10L5 8L4 8L4 10L0 10L0 11L1 11L1 12L3 12L3 13L2 13L2 14L1 14L1 15L0 15L0 17L1 17L1 16L3 16L3 15L4 15L4 16L5 16L5 18L4 18L4 17L3 17L3 18L4 18L4 19L5 19L5 21L7 21L7 20L9 20L9 18L10 18L10 20L11 20L11 19L13 19L13 20L14 20L14 22L15 22L15 23L16 23L16 24L18 24L18 25L16 25L16 26L15 26L15 24L14 24L14 25L13 25L13 26L12 26L12 27L13 27L13 28L14 28L14 30L13 30L13 31L12 31L12 30L11 30L11 31L9 31L9 32L8 32L8 33L9 33L9 34L10 34L10 35L8 35L8 36L9 36L9 37L10 37L10 36L11 36L11 37L14 37L14 35L17 35L17 36L16 36L16 37L20 37L20 36L19 36L19 35L17 35L17 34L16 34L16 33L15 33L15 32L13 32L13 31L15 31L15 29L16 29L16 32L17 32L17 33L18 33L18 34L20 34L20 35L21 35L21 36L22 36L22 35L23 35L23 34L21 34L21 33L18 33L18 32L20 32L20 31L21 31L21 30L22 30L22 29L23 29L23 31L22 31L22 33L23 33L23 32L24 32L24 33L25 33L25 29L23 29L23 28L24 28L24 27L25 27L25 25L27 25L27 24L28 24L28 23L30 23L30 21L32 21L32 22L31 22L31 23L32 23L32 22L34 22L34 23L33 23L33 24L32 24L32 25L31 25L31 24L30 24L30 25L28 25L28 27L29 27L29 28L27 28L27 26L26 26L26 29L28 29L28 33L26 33L26 34L25 34L25 35L24 35L24 36L23 36L23 37L26 37L26 35L27 35L27 37L28 37L28 35L29 35L29 37L32 37L32 35L31 35L31 33L33 33L33 34L34 34L34 35L33 35L33 37L37 37L37 36L36 36L36 34L34 34L34 33L36 33L36 32L35 32L35 31L36 31L36 29L37 29L37 28L36 28L36 24L37 24L37 20L36 20L36 17L37 17L37 16L36 16L36 15L35 15L35 14L34 14L34 12L36 12L36 13L37 13L37 12L36 12L36 9L35 9L35 8L34 8L34 9L35 9L35 10L34 10L34 11L33 11L33 10L32 10L32 11L28 11L28 10L27 10L27 9L26 9L26 7L27 7L27 8L28 8L28 9L30 9L30 10L31 10L31 9L33 9L33 8L31 8L31 9L30 9L30 8L29 8L29 6L28 6L28 7L27 7L27 6L26 6L26 7L25 7L25 5L23 5L23 6L22 6L22 7L21 7L21 6L20 6L20 3L23 3L23 2L24 2L24 3L26 3L26 5L28 5L28 3L26 3L26 2L25 2L25 1L21 1L21 0L18 0L18 1L17 1L17 2L16 2L16 0ZM27 0L27 1L28 1L28 2L29 2L29 1L28 1L28 0ZM18 1L18 2L17 2L17 4L18 4L18 3L20 3L20 2L21 2L21 1L20 1L20 2L19 2L19 1ZM8 2L8 3L9 3L9 4L8 4L8 7L9 7L9 4L10 4L10 3L11 3L11 2L10 2L10 3L9 3L9 2ZM13 4L13 5L16 5L16 4ZM11 6L11 7L12 7L12 6ZM13 6L13 7L14 7L14 10L16 10L16 9L15 9L15 8L16 8L16 6L15 6L15 7L14 7L14 6ZM17 6L17 7L18 7L18 8L19 8L19 9L17 9L17 10L18 10L18 14L19 14L19 17L20 17L20 18L22 18L22 19L23 19L23 18L24 18L24 17L26 17L26 15L27 15L27 14L28 14L28 15L29 15L29 16L31 16L31 15L32 15L32 17L34 17L34 19L32 19L32 18L31 18L31 17L28 17L28 16L27 16L27 17L28 17L28 18L29 18L29 19L28 19L28 20L27 20L27 21L26 21L26 22L25 22L25 23L24 23L24 24L22 24L22 25L25 25L25 24L26 24L26 23L27 23L27 21L28 21L28 22L29 22L29 21L30 21L30 20L29 20L29 19L31 19L31 20L32 20L32 21L34 21L34 22L35 22L35 23L36 23L36 21L34 21L34 19L35 19L35 17L34 17L34 14L33 14L33 15L32 15L32 13L33 13L33 12L32 12L32 13L30 13L30 12L27 12L27 11L25 11L25 10L24 10L24 11L22 11L22 12L21 12L21 10L23 10L23 9L21 9L21 10L20 10L20 8L19 8L19 7L20 7L20 6L19 6L19 7L18 7L18 6ZM23 6L23 8L24 8L24 9L25 9L25 8L24 8L24 6ZM1 8L1 9L2 9L2 8ZM4 10L4 15L5 15L5 14L8 14L8 12L7 12L7 11L5 11L5 10ZM19 10L19 11L20 11L20 10ZM14 11L14 12L15 12L15 13L14 13L14 14L15 14L15 15L13 15L13 14L11 14L11 13L10 13L10 12L9 12L9 13L10 13L10 14L9 14L9 15L6 15L6 16L7 16L7 17L6 17L6 18L7 18L7 17L8 17L8 18L9 18L9 17L11 17L11 18L12 18L12 16L15 16L15 17L13 17L13 19L14 19L14 20L15 20L15 21L16 21L16 22L17 22L17 23L18 23L18 24L20 24L20 23L19 23L19 22L18 22L18 21L20 21L20 20L19 20L19 19L18 19L18 18L16 18L16 17L18 17L18 16L17 16L17 15L16 15L16 14L15 14L15 13L17 13L17 12L16 12L16 11ZM24 11L24 13L22 13L22 14L20 14L20 16L22 16L22 15L24 15L24 16L25 16L25 15L26 15L26 14L27 14L27 12L26 12L26 13L25 13L25 11ZM5 12L5 13L7 13L7 12ZM24 13L24 15L25 15L25 13ZM29 13L29 14L30 14L30 15L31 15L31 14L30 14L30 13ZM2 14L2 15L3 15L3 14ZM9 15L9 16L10 16L10 15ZM22 17L22 18L23 18L23 17ZM1 18L1 19L2 19L2 21L1 21L1 20L0 20L0 22L2 22L2 23L1 23L1 24L0 24L0 26L2 26L2 27L3 27L3 28L0 28L0 29L5 29L5 28L4 28L4 27L7 27L7 28L6 28L6 29L8 29L8 30L9 30L9 29L10 29L10 27L11 27L11 23L12 23L12 24L13 24L13 22L11 22L11 21L10 21L10 22L9 22L9 21L8 21L8 22L4 22L4 21L3 21L3 19L2 19L2 18ZM15 18L15 20L16 20L16 21L17 21L17 20L18 20L18 19L16 19L16 18ZM25 18L25 19L24 19L24 20L22 20L22 21L21 21L21 23L23 23L23 22L24 22L24 21L25 21L25 20L26 20L26 19L27 19L27 18ZM6 19L6 20L7 20L7 19ZM28 20L28 21L29 21L29 20ZM3 22L3 23L2 23L2 24L4 24L4 22ZM8 22L8 23L5 23L5 24L8 24L8 23L9 23L9 22ZM10 22L10 23L11 23L11 22ZM6 25L6 26L8 26L8 25ZM9 25L9 26L10 26L10 25ZM19 25L19 26L16 26L16 27L17 27L17 28L16 28L16 29L18 29L18 30L19 30L19 31L20 31L20 30L21 30L21 29L22 29L22 27L23 27L23 26L20 26L20 25ZM13 26L13 27L15 27L15 26ZM29 26L29 27L30 27L30 28L33 28L33 29L34 29L34 31L33 31L33 33L34 33L34 31L35 31L35 29L36 29L36 28L35 28L35 26L34 26L34 27L33 27L33 26L32 26L32 27L31 27L31 26ZM18 27L18 28L19 28L19 29L21 29L21 28L20 28L20 27ZM29 29L29 32L32 32L32 29ZM26 30L26 32L27 32L27 30ZM30 30L30 31L31 31L31 30ZM11 31L11 33L13 33L13 34L12 34L12 35L11 35L11 36L12 36L12 35L13 35L13 34L14 34L14 33L13 33L13 32L12 32L12 31ZM17 31L17 32L18 32L18 31ZM28 33L28 34L27 34L27 35L28 35L28 34L29 34L29 33ZM30 35L30 36L31 36L31 35ZM0 0L0 7L7 7L7 0ZM1 1L1 6L6 6L6 1ZM2 2L2 5L5 5L5 2ZM30 0L30 7L37 7L37 0ZM31 1L31 6L36 6L36 1ZM32 2L32 5L35 5L35 2ZM0 30L0 37L7 37L7 30ZM1 31L1 36L6 36L6 31ZM2 32L2 35L5 35L5 32Z" fill="#000000"/></g></g></svg>
