<?xml version="1.0" encoding="UTF-8"?>
<svg xmlns="http://www.w3.org/2000/svg" version="1.1" width="300" height="300" viewBox="0 0 300 300"><rect x="0" y="0" width="300" height="300" fill="#ffffff"/><g transform="scale(6.122)"><g transform="translate(0,0)"><path fill-rule="evenodd" d="M8 0L8 1L11 1L11 2L10 2L10 4L8 4L8 7L9 7L9 8L10 8L10 9L8 9L8 8L1 8L1 9L0 9L0 12L1 12L1 13L0 13L0 14L2 14L2 16L3 16L3 17L4 17L4 19L3 19L3 18L1 18L1 15L0 15L0 18L1 18L1 19L0 19L0 20L1 20L1 21L0 21L0 26L1 26L1 24L2 24L2 29L3 29L3 30L5 30L5 29L7 29L7 28L9 28L9 29L8 29L8 30L10 30L10 31L7 31L7 30L6 30L6 31L5 31L5 32L4 32L4 31L3 31L3 32L4 32L4 33L3 33L3 34L1 34L1 33L2 33L2 31L1 31L1 30L0 30L0 35L1 35L1 36L2 36L2 37L1 37L1 40L0 40L0 41L3 41L3 40L4 40L4 39L2 39L2 37L3 37L3 36L4 36L4 35L5 35L5 36L6 36L6 37L5 37L5 39L7 39L7 40L6 40L6 41L8 41L8 48L9 48L9 49L10 49L10 48L11 48L11 49L12 49L12 46L11 46L11 47L10 47L10 45L12 45L12 44L13 44L13 46L14 46L14 48L15 48L15 49L18 49L18 46L21 46L21 47L20 47L20 49L21 49L21 48L22 48L22 46L23 46L23 45L27 45L27 44L29 44L29 45L28 45L28 46L27 46L27 49L28 49L28 48L29 48L29 49L30 49L30 47L28 47L28 46L31 46L31 47L32 47L32 48L31 48L31 49L32 49L32 48L33 48L33 49L34 49L34 47L37 47L37 48L35 48L35 49L38 49L38 48L40 48L40 49L41 49L41 46L40 46L40 45L42 45L42 46L43 46L43 47L42 47L42 48L43 48L43 47L44 47L44 48L45 48L45 49L49 49L49 45L48 45L48 44L46 44L46 46L45 46L45 43L46 43L46 42L45 42L45 41L48 41L48 40L45 40L45 39L44 39L44 37L45 37L45 38L46 38L46 37L47 37L47 36L48 36L48 37L49 37L49 34L47 34L47 36L44 36L44 35L43 35L43 34L44 34L44 33L49 33L49 30L48 30L48 32L44 32L44 33L43 33L43 34L42 34L42 33L41 33L41 32L42 32L42 31L45 31L45 30L43 30L43 29L45 29L45 28L44 28L44 27L45 27L45 25L48 25L48 24L45 24L45 23L46 23L46 22L47 22L47 23L49 23L49 22L47 22L47 20L48 20L48 21L49 21L49 18L47 18L47 17L48 17L48 16L45 16L45 15L46 15L46 14L45 14L45 13L44 13L44 12L46 12L46 13L48 13L48 12L46 12L46 11L44 11L44 10L43 10L43 9L45 9L45 8L43 8L43 9L42 9L42 10L41 10L41 11L42 11L42 12L39 12L39 14L37 14L37 13L38 13L38 12L36 12L36 14L37 14L37 16L35 16L35 14L33 14L33 15L31 15L31 16L33 16L33 17L34 17L34 18L32 18L32 17L31 17L31 18L30 18L30 17L29 17L29 16L30 16L30 15L28 15L28 17L27 17L27 18L25 18L25 17L26 17L26 13L27 13L27 14L31 14L31 13L30 13L30 12L33 12L33 11L34 11L34 12L35 12L35 10L36 10L36 11L39 11L39 10L37 10L37 8L38 8L38 9L41 9L41 8L38 8L38 7L39 7L39 5L38 5L38 3L35 3L35 2L37 2L37 1L38 1L38 2L39 2L39 4L40 4L40 3L41 3L41 0L40 0L40 1L38 1L38 0L35 0L35 1L31 1L31 0L28 0L28 1L26 1L26 0L25 0L25 1L26 1L26 2L27 2L27 3L25 3L25 2L23 2L23 3L25 3L25 4L22 4L22 5L20 5L20 8L21 8L21 9L25 9L25 10L24 10L24 11L23 11L23 10L22 10L22 11L21 11L21 10L20 10L20 9L19 9L19 6L18 6L18 5L19 5L19 4L21 4L21 2L22 2L22 1L20 1L20 2L19 2L19 3L18 3L18 5L17 5L17 3L16 3L16 1L19 1L19 0L16 0L16 1L15 1L15 0ZM12 1L12 2L11 2L11 3L12 3L12 4L13 4L13 3L14 3L14 2L15 2L15 1ZM29 1L29 2L28 2L28 3L27 3L27 5L28 5L28 6L27 6L27 7L28 7L28 9L29 9L29 10L28 10L28 11L26 11L26 12L23 12L23 13L24 13L24 14L23 14L23 15L22 15L22 14L21 14L21 11L19 11L19 10L18 10L18 8L17 8L17 9L15 9L15 7L16 7L16 6L17 6L17 7L18 7L18 6L17 6L17 5L16 5L16 6L15 6L15 4L14 4L14 5L12 5L12 6L11 6L11 7L10 7L10 5L9 5L9 7L10 7L10 8L11 8L11 9L10 9L10 10L9 10L9 11L8 11L8 12L10 12L10 11L11 11L11 13L12 13L12 16L10 16L10 13L5 13L5 14L4 14L4 12L3 12L3 11L4 11L4 10L3 10L3 11L1 11L1 12L3 12L3 14L4 14L4 15L3 15L3 16L4 16L4 15L6 15L6 16L7 16L7 17L5 17L5 18L7 18L7 17L8 17L8 18L10 18L10 19L9 19L9 20L10 20L10 21L8 21L8 20L7 20L7 19L6 19L6 20L5 20L5 19L4 19L4 21L3 21L3 19L1 19L1 20L2 20L2 21L1 21L1 23L2 23L2 24L3 24L3 25L4 25L4 24L3 24L3 22L5 22L5 21L6 21L6 22L10 22L10 23L11 23L11 24L13 24L13 25L9 25L9 27L10 27L10 28L11 28L11 29L10 29L10 30L11 30L11 31L12 31L12 29L13 29L13 27L15 27L15 28L14 28L14 29L15 29L15 30L13 30L13 32L9 32L9 33L8 33L8 32L7 32L7 31L6 31L6 32L7 32L7 33L6 33L6 34L5 34L5 35L6 35L6 36L7 36L7 37L6 37L6 38L7 38L7 39L8 39L8 38L7 38L7 37L10 37L10 38L9 38L9 40L8 40L8 41L9 41L9 40L10 40L10 39L11 39L11 40L12 40L12 41L10 41L10 42L9 42L9 44L10 44L10 42L11 42L11 43L12 43L12 41L13 41L13 42L14 42L14 43L13 43L13 44L14 44L14 45L15 45L15 47L16 47L16 48L17 48L17 45L18 45L18 44L17 44L17 45L15 45L15 43L16 43L16 42L14 42L14 41L15 41L15 39L16 39L16 41L17 41L17 43L18 43L18 42L19 42L19 45L20 45L20 44L21 44L21 45L22 45L22 42L21 42L21 43L20 43L20 42L19 42L19 40L20 40L20 39L21 39L21 40L23 40L23 39L24 39L24 40L25 40L25 39L27 39L27 40L28 40L28 41L27 41L27 43L29 43L29 42L30 42L30 41L29 41L29 40L30 40L30 39L31 39L31 42L32 42L32 43L33 43L33 44L32 44L32 47L33 47L33 46L35 46L35 44L37 44L37 43L36 43L36 41L35 41L35 40L38 40L38 41L37 41L37 42L38 42L38 43L40 43L40 41L39 41L39 40L44 40L44 39L38 39L38 38L39 38L39 37L38 37L38 38L37 38L37 37L36 37L36 36L40 36L40 37L41 37L41 36L42 36L42 37L44 37L44 36L43 36L43 35L42 35L42 34L39 34L39 33L38 33L38 32L40 32L40 31L41 31L41 30L42 30L42 29L41 29L41 30L40 30L40 31L38 31L38 30L39 30L39 29L38 29L38 28L40 28L40 27L38 27L38 26L40 26L40 24L39 24L39 23L40 23L40 22L41 22L41 21L42 21L42 17L41 17L41 16L42 16L42 15L43 15L43 14L42 14L42 13L40 13L40 14L42 14L42 15L41 15L41 16L39 16L39 17L40 17L40 18L37 18L37 19L35 19L35 18L34 18L34 20L32 20L32 19L30 19L30 18L29 18L29 17L28 17L28 20L25 20L25 21L23 21L23 20L24 20L24 19L25 19L25 18L23 18L23 17L25 17L25 13L26 13L26 12L29 12L29 10L30 10L30 11L33 11L33 10L35 10L35 9L36 9L36 8L35 8L35 7L36 7L36 6L37 6L37 7L38 7L38 6L37 6L37 4L33 4L33 3L34 3L34 2L33 2L33 3L32 3L32 2L31 2L31 1ZM12 2L12 3L13 3L13 2ZM29 2L29 4L28 4L28 5L29 5L29 6L28 6L28 7L29 7L29 6L30 6L30 8L29 8L29 9L30 9L30 10L32 10L32 9L31 9L31 8L32 8L32 7L33 7L33 8L34 8L34 9L35 9L35 8L34 8L34 7L35 7L35 5L33 5L33 6L32 6L32 7L31 7L31 6L30 6L30 5L32 5L32 4L30 4L30 2ZM23 5L23 8L26 8L26 5ZM12 6L12 7L13 7L13 6ZM14 6L14 7L15 7L15 6ZM21 6L21 8L22 8L22 6ZM24 6L24 7L25 7L25 6ZM33 6L33 7L34 7L34 6ZM40 6L40 7L41 7L41 6ZM13 8L13 9L14 9L14 8ZM48 8L48 9L46 9L46 10L48 10L48 11L49 11L49 10L48 10L48 9L49 9L49 8ZM5 9L5 10L8 10L8 9ZM26 9L26 10L27 10L27 9ZM11 10L11 11L12 11L12 10ZM13 10L13 11L14 11L14 12L12 12L12 13L14 13L14 12L15 12L15 14L17 14L17 15L19 15L19 17L21 17L21 14L17 14L17 13L20 13L20 12L18 12L18 10L15 10L15 11L14 11L14 10ZM42 10L42 11L43 11L43 12L44 12L44 11L43 11L43 10ZM6 11L6 12L7 12L7 11ZM15 11L15 12L16 12L16 13L17 13L17 11ZM6 14L6 15L7 15L7 16L8 16L8 15L9 15L9 14ZM47 14L47 15L49 15L49 14ZM23 15L23 16L22 16L22 17L23 17L23 16L24 16L24 15ZM33 15L33 16L34 16L34 15ZM12 16L12 17L10 17L10 18L11 18L11 19L10 19L10 20L11 20L11 19L12 19L12 17L14 17L14 16ZM15 16L15 17L18 17L18 16ZM37 16L37 17L38 17L38 16ZM44 16L44 17L45 17L45 16ZM13 18L13 19L15 19L15 20L16 20L16 18ZM17 18L17 20L19 20L19 21L18 21L18 22L17 22L17 21L14 21L14 22L17 22L17 23L14 23L14 25L13 25L13 26L12 26L12 27L11 27L11 26L10 26L10 27L11 27L11 28L12 28L12 27L13 27L13 26L14 26L14 25L15 25L15 27L16 27L16 29L17 29L17 30L18 30L18 31L22 31L22 32L20 32L20 35L19 35L19 38L18 38L18 34L19 34L19 33L18 33L18 32L16 32L16 35L15 35L15 37L16 37L16 38L18 38L18 39L17 39L17 41L18 41L18 40L19 40L19 38L21 38L21 37L20 37L20 35L23 35L23 36L22 36L22 39L23 39L23 38L26 38L26 37L25 37L25 36L26 36L26 35L27 35L27 34L28 34L28 36L27 36L27 37L28 37L28 38L27 38L27 39L28 39L28 40L29 40L29 39L28 39L28 38L32 38L32 40L34 40L34 39L35 39L35 38L34 38L34 37L35 37L35 36L36 36L36 34L34 34L34 33L36 33L36 32L38 32L38 31L37 31L37 30L38 30L38 29L37 29L37 28L36 28L36 26L37 26L37 24L38 24L38 23L39 23L39 22L38 22L38 23L37 23L37 21L41 21L41 20L40 20L40 19L37 19L37 20L36 20L36 21L35 21L35 22L33 22L33 21L32 21L32 22L31 22L31 20L30 20L30 19L29 19L29 21L25 21L25 22L22 22L22 24L19 24L19 25L20 25L20 26L18 26L18 25L17 25L17 27L16 27L16 24L17 24L17 23L18 23L18 22L19 22L19 23L20 23L20 22L19 22L19 21L20 21L20 20L21 20L21 19L22 19L22 20L23 20L23 19L22 19L22 18L20 18L20 19L18 19L18 18ZM46 18L46 19L45 19L45 20L44 20L44 21L43 21L43 22L46 22L46 20L47 20L47 18ZM6 20L6 21L7 21L7 20ZM12 20L12 22L11 22L11 23L12 23L12 22L13 22L13 20ZM28 22L28 23L27 23L27 24L28 24L28 25L27 25L27 26L28 26L28 27L29 27L29 28L26 28L26 29L27 29L27 30L26 30L26 32L27 32L27 33L28 33L28 32L29 32L29 31L31 31L31 32L36 32L36 30L35 30L35 27L34 27L34 26L36 26L36 25L34 25L34 23L33 23L33 22L32 22L32 23L31 23L31 22L30 22L30 23L31 23L31 24L32 24L32 25L33 25L33 28L32 28L32 27L31 27L31 26L29 26L29 25L30 25L30 24L29 24L29 22ZM5 23L5 26L8 26L8 23ZM23 23L23 26L26 26L26 23ZM32 23L32 24L33 24L33 23ZM35 23L35 24L37 24L37 23ZM41 23L41 26L44 26L44 23ZM6 24L6 25L7 25L7 24ZM24 24L24 25L25 25L25 24ZM42 24L42 25L43 25L43 24ZM21 25L21 26L22 26L22 25ZM3 26L3 27L4 27L4 28L7 28L7 27L4 27L4 26ZM46 26L46 27L47 27L47 28L46 28L46 31L47 31L47 29L49 29L49 26ZM18 27L18 28L17 28L17 29L18 29L18 30L19 30L19 29L20 29L20 30L21 30L21 27L20 27L20 28L19 28L19 27ZM23 27L23 28L22 28L22 30L23 30L23 32L25 32L25 31L24 31L24 29L25 29L25 28L24 28L24 27ZM30 27L30 28L29 28L29 29L28 29L28 30L31 30L31 31L32 31L32 28L31 28L31 27ZM42 27L42 28L43 28L43 27ZM30 28L30 29L31 29L31 28ZM33 28L33 29L34 29L34 28ZM33 30L33 31L35 31L35 30ZM27 31L27 32L28 32L28 31ZM13 32L13 33L11 33L11 34L12 34L12 36L13 36L13 37L14 37L14 35L13 35L13 34L14 34L14 32ZM7 33L7 34L6 34L6 35L7 35L7 34L8 34L8 33ZM17 33L17 34L18 34L18 33ZM21 33L21 34L22 34L22 33ZM29 33L29 34L30 34L30 35L29 35L29 36L28 36L28 37L32 37L32 38L33 38L33 39L34 39L34 38L33 38L33 36L35 36L35 35L34 35L34 34L33 34L33 36L30 36L30 35L31 35L31 34L32 34L32 33L31 33L31 34L30 34L30 33ZM3 34L3 35L4 35L4 34ZM23 34L23 35L24 35L24 36L23 36L23 37L24 37L24 36L25 36L25 35L26 35L26 34ZM37 34L37 35L39 35L39 34ZM45 34L45 35L46 35L46 34ZM9 35L9 36L10 36L10 37L11 37L11 39L12 39L12 40L13 40L13 41L14 41L14 40L13 40L13 38L12 38L12 37L11 37L11 35ZM16 35L16 37L17 37L17 35ZM40 35L40 36L41 36L41 35ZM14 38L14 39L15 39L15 38ZM36 38L36 39L37 39L37 38ZM47 38L47 39L49 39L49 38ZM23 41L23 44L26 44L26 41ZM28 41L28 42L29 42L29 41ZM32 41L32 42L34 42L34 41ZM41 41L41 44L44 44L44 41ZM24 42L24 43L25 43L25 42ZM42 42L42 43L43 43L43 42ZM47 42L47 43L49 43L49 42ZM34 43L34 44L33 44L33 45L34 45L34 44L35 44L35 43ZM38 45L38 46L37 46L37 47L38 47L38 46L39 46L39 47L40 47L40 46L39 46L39 45ZM43 45L43 46L44 46L44 47L45 47L45 48L48 48L48 47L47 47L47 46L46 46L46 47L45 47L45 46L44 46L44 45ZM24 46L24 47L23 47L23 48L24 48L24 49L25 49L25 48L26 48L26 47L25 47L25 46ZM24 47L24 48L25 48L25 47ZM0 0L0 7L7 7L7 0ZM1 1L1 6L6 6L6 1ZM2 2L2 5L5 5L5 2ZM42 0L42 7L49 7L49 0ZM43 1L43 6L48 6L48 1ZM44 2L44 5L47 5L47 2ZM0 42L0 49L7 49L7 42ZM1 43L1 48L6 48L6 43ZM2 44L2 47L5 47L5 44Z" fill="#000000"/></g></g></svg>
