<?xml version="1.0" encoding="UTF-8"?>
<svg xmlns="http://www.w3.org/2000/svg" version="1.1" width="300" height="300" viewBox="0 0 300 300"><rect x="0" y="0" width="300" height="300" fill="#ffffff"/><g transform="scale(8.108)"><g transform="translate(0,0)"><path fill-rule="evenodd" d="M11 0L11 1L12 1L12 0ZM14 0L14 1L13 1L13 2L14 2L14 3L13 3L13 4L15 4L15 5L12 5L12 7L13 7L13 9L12 9L12 12L11 12L11 11L10 11L10 12L9 12L9 14L8 14L8 13L7 13L7 12L6 12L6 11L9 11L9 9L10 9L10 10L11 10L11 6L10 6L10 5L9 5L9 4L11 4L11 3L10 3L10 1L9 1L9 2L8 2L8 3L9 3L9 4L8 4L8 7L9 7L9 8L8 8L8 9L7 9L7 8L6 8L6 9L7 9L7 10L5 10L5 11L4 11L4 10L1 10L1 11L0 11L0 13L1 13L1 15L0 15L0 16L1 16L1 18L2 18L2 20L0 20L0 22L1 22L1 21L3 21L3 22L4 22L4 24L3 24L3 23L1 23L1 24L0 24L0 26L2 26L2 27L3 27L3 28L0 28L0 29L3 29L3 28L5 28L5 27L4 27L4 25L5 25L5 26L6 26L6 27L7 27L7 28L6 28L6 29L7 29L7 28L9 28L9 27L10 27L10 28L12 28L12 29L10 29L10 30L11 30L11 31L9 31L9 32L8 32L8 33L9 33L9 35L8 35L8 36L9 36L9 37L12 37L12 36L13 36L13 35L15 35L15 36L16 36L16 35L17 35L17 36L18 36L18 37L20 37L20 36L18 36L18 35L17 35L17 34L16 34L16 33L18 33L18 34L20 34L20 35L21 35L21 36L22 36L22 35L23 35L23 34L21 34L21 33L18 33L18 32L19 32L19 31L21 31L21 30L22 30L22 29L23 29L23 31L22 31L22 33L23 33L23 32L24 32L24 33L25 33L25 32L24 32L24 30L25 30L25 29L24 29L24 26L25 26L25 25L27 25L27 23L28 23L28 24L29 24L29 23L30 23L30 21L31 21L31 22L32 22L32 23L31 23L31 24L30 24L30 25L28 25L28 27L29 27L29 28L27 28L27 26L26 26L26 29L27 29L27 30L26 30L26 33L27 33L27 32L28 32L28 34L25 34L25 35L24 35L24 36L23 36L23 37L26 37L26 35L27 35L27 37L28 37L28 35L29 35L29 36L30 36L30 35L31 35L31 33L33 33L33 34L34 34L34 35L33 35L33 36L32 36L32 37L37 37L37 36L36 36L36 34L34 34L34 33L36 33L36 32L35 32L35 31L36 31L36 29L37 29L37 27L36 27L36 24L37 24L37 20L36 20L36 19L34 19L34 17L37 17L37 16L36 16L36 15L35 15L35 14L34 14L34 12L35 12L35 11L36 11L36 13L37 13L37 11L36 11L36 9L35 9L35 8L34 8L34 9L35 9L35 10L34 10L34 11L33 11L33 10L32 10L32 11L30 11L30 10L31 10L31 9L33 9L33 8L31 8L31 9L30 9L30 8L29 8L29 6L28 6L28 7L27 7L27 6L26 6L26 7L25 7L25 5L23 5L23 6L22 6L22 5L21 5L21 6L20 6L20 7L21 7L21 8L19 8L19 6L18 6L18 5L17 5L17 4L18 4L18 3L19 3L19 4L20 4L20 3L22 3L22 2L24 2L24 3L26 3L26 5L28 5L28 3L29 3L29 2L28 2L28 3L26 3L26 2L25 2L25 1L22 1L22 2L20 2L20 1L21 1L21 0L18 0L18 1L17 1L17 0L16 0L16 1L15 1L15 0ZM27 0L27 1L28 1L28 0ZM14 1L14 2L15 2L15 1ZM17 2L17 3L18 3L18 2ZM19 2L19 3L20 3L20 2ZM15 3L15 4L16 4L16 3ZM15 5L15 7L14 7L14 6L13 6L13 7L14 7L14 9L13 9L13 12L12 12L12 15L11 15L11 12L10 12L10 14L9 14L9 15L10 15L10 16L7 16L7 15L8 15L8 14L7 14L7 13L6 13L6 12L5 12L5 13L4 13L4 14L3 14L3 12L2 12L2 11L1 11L1 12L2 12L2 14L3 14L3 15L1 15L1 16L2 16L2 17L3 17L3 19L5 19L5 22L7 22L7 21L8 21L8 20L7 20L7 19L6 19L6 18L7 18L7 17L8 17L8 18L9 18L9 17L11 17L11 18L12 18L12 17L11 17L11 16L12 16L12 15L13 15L13 12L15 12L15 13L19 13L19 12L20 12L20 10L23 10L23 9L20 9L20 10L19 10L19 8L18 8L18 6L17 6L17 10L19 10L19 12L18 12L18 11L17 11L17 12L16 12L16 11L15 11L15 10L16 10L16 5ZM9 6L9 7L10 7L10 6ZM21 6L21 7L22 7L22 8L24 8L24 6L23 6L23 7L22 7L22 6ZM26 7L26 9L27 9L27 10L28 10L28 11L29 11L29 12L27 12L27 14L26 14L26 11L25 11L25 12L24 12L24 11L22 11L22 12L21 12L21 14L20 14L20 15L19 15L19 17L20 17L20 18L21 18L21 19L22 19L22 17L23 17L23 18L24 18L24 17L26 17L26 15L27 15L27 14L28 14L28 16L27 16L27 17L28 17L28 18L29 18L29 19L28 19L28 20L27 20L27 21L26 21L26 22L25 22L25 23L24 23L24 24L23 24L23 23L22 23L22 25L25 25L25 24L26 24L26 23L27 23L27 21L28 21L28 23L29 23L29 21L30 21L30 20L31 20L31 21L33 21L33 23L32 23L32 24L31 24L31 25L32 25L32 24L33 24L33 23L36 23L36 21L33 21L33 19L32 19L32 18L31 18L31 17L28 17L28 16L31 16L31 15L32 15L32 17L34 17L34 14L33 14L33 15L32 15L32 13L33 13L33 12L32 12L32 13L30 13L30 11L29 11L29 10L30 10L30 9L27 9L27 7ZM1 8L1 9L2 9L2 8ZM4 8L4 9L5 9L5 8ZM24 9L24 10L25 10L25 9ZM22 13L22 14L21 14L21 16L22 16L22 15L23 15L23 16L25 16L25 15L24 15L24 14L25 14L25 13ZM29 13L29 14L30 14L30 15L31 15L31 14L30 14L30 13ZM5 14L5 15L3 15L3 17L4 17L4 18L6 18L6 17L7 17L7 16L6 16L6 15L7 15L7 14ZM14 14L14 16L13 16L13 17L14 17L14 16L15 16L15 15L16 15L16 17L18 17L18 16L17 16L17 14ZM4 16L4 17L5 17L5 16ZM14 18L14 19L15 19L15 22L14 22L14 20L13 20L13 19L10 19L10 20L9 20L9 21L10 21L10 23L9 23L9 24L7 24L7 23L6 23L6 24L7 24L7 25L6 25L6 26L7 26L7 27L9 27L9 26L7 26L7 25L10 25L10 24L11 24L11 26L10 26L10 27L12 27L12 28L15 28L15 26L16 26L16 27L17 27L17 28L16 28L16 29L17 29L17 28L18 28L18 29L22 29L22 27L23 27L23 26L21 26L21 25L20 25L20 24L18 24L18 23L19 23L19 21L20 21L20 22L24 22L24 21L25 21L25 20L26 20L26 19L27 19L27 18L25 18L25 19L24 19L24 20L22 20L22 21L20 21L20 20L19 20L19 19L18 19L18 18ZM16 19L16 22L15 22L15 23L16 23L16 24L14 24L14 26L15 26L15 25L16 25L16 26L17 26L17 27L18 27L18 28L20 28L20 26L19 26L19 25L16 25L16 24L17 24L17 23L18 23L18 22L17 22L17 21L19 21L19 20L17 20L17 19ZM29 19L29 20L28 20L28 21L29 21L29 20L30 20L30 19ZM3 20L3 21L4 21L4 20ZM6 20L6 21L7 21L7 20ZM10 20L10 21L11 21L11 24L12 24L12 21L11 21L11 20ZM16 22L16 23L17 23L17 22ZM2 24L2 25L3 25L3 24ZM12 26L12 27L13 27L13 26ZM29 26L29 27L31 27L31 28L33 28L33 29L34 29L34 31L33 31L33 33L34 33L34 31L35 31L35 29L36 29L36 28L35 28L35 26L34 26L34 27L33 27L33 26L32 26L32 27L31 27L31 26ZM8 29L8 30L9 30L9 29ZM12 29L12 30L13 30L13 31L11 31L11 32L12 32L12 33L13 33L13 34L12 34L12 35L11 35L11 36L12 36L12 35L13 35L13 34L15 34L15 35L16 35L16 34L15 34L15 32L16 32L16 31L17 31L17 32L18 32L18 31L17 31L17 30L16 30L16 31L14 31L14 30L15 30L15 29ZM29 29L29 32L32 32L32 29ZM27 30L27 31L28 31L28 30ZM30 30L30 31L31 31L31 30ZM13 31L13 33L14 33L14 31ZM29 33L29 35L30 35L30 33ZM9 35L9 36L10 36L10 35ZM0 0L0 7L7 7L7 0ZM1 1L1 6L6 6L6 1ZM2 2L2 5L5 5L5 2ZM30 0L30 7L37 7L37 0ZM31 1L31 6L36 6L36 1ZM32 2L32 5L35 5L35 2ZM0 30L0 37L7 37L7 30ZM1 31L1 36L6 36L6 31ZM2 32L2 35L5 35L5 32Z" fill="#000000"/></g></g></svg>
