<?xml version="1.0" encoding="UTF-8"?>
<svg xmlns="http://www.w3.org/2000/svg" version="1.1" width="300" height="300" viewBox="0 0 300 300"><rect x="0" y="0" width="300" height="300" fill="#ffffff"/><g transform="scale(8.108)"><g transform="translate(0,0)"><path fill-rule="evenodd" d="M8 0L8 1L9 1L9 2L8 2L8 4L9 4L9 5L8 5L8 8L5 8L5 9L4 9L4 8L3 8L3 9L2 9L2 8L1 8L1 9L2 9L2 10L4 10L4 11L3 11L3 12L4 12L4 14L5 14L5 17L4 17L4 16L3 16L3 15L2 15L2 11L1 11L1 10L0 10L0 13L1 13L1 14L0 14L0 16L1 16L1 15L2 15L2 16L3 16L3 17L1 17L1 18L0 18L0 19L1 19L1 20L0 20L0 21L1 21L1 22L0 22L0 23L4 23L4 24L2 24L2 25L4 25L4 26L5 26L5 25L7 25L7 26L6 26L6 27L7 27L7 28L6 28L6 29L8 29L8 32L9 32L9 33L8 33L8 34L9 34L9 33L10 33L10 34L11 34L11 33L12 33L12 32L13 32L13 31L12 31L12 30L14 30L14 29L15 29L15 30L16 30L16 31L14 31L14 32L15 32L15 33L14 33L14 34L12 34L12 35L8 35L8 36L9 36L9 37L10 37L10 36L11 36L11 37L12 37L12 36L13 36L13 37L14 37L14 36L15 36L15 37L16 37L16 36L15 36L15 33L17 33L17 34L16 34L16 35L18 35L18 36L17 36L17 37L18 37L18 36L22 36L22 37L25 37L25 33L26 33L26 34L27 34L27 35L26 35L26 36L27 36L27 37L34 37L34 35L35 35L35 34L36 34L36 35L37 35L37 33L35 33L35 34L34 34L34 33L33 33L33 30L34 30L34 29L33 29L33 28L32 28L32 26L30 26L30 27L29 27L29 26L28 26L28 25L29 25L29 24L30 24L30 25L34 25L34 22L33 22L33 23L31 23L31 22L32 22L32 21L34 21L34 20L36 20L36 21L35 21L35 23L36 23L36 24L35 24L35 25L36 25L36 26L35 26L35 27L34 27L34 28L35 28L35 27L36 27L36 29L35 29L35 30L36 30L36 31L37 31L37 25L36 25L36 24L37 24L37 23L36 23L36 21L37 21L37 20L36 20L36 19L37 19L37 16L36 16L36 15L37 15L37 13L35 13L35 12L34 12L34 9L35 9L35 11L37 11L37 8L36 8L36 9L35 9L35 8L33 8L33 9L32 9L32 8L29 8L29 10L28 10L28 9L27 9L27 8L28 8L28 7L29 7L29 5L28 5L28 4L29 4L29 0L27 0L27 1L26 1L26 0L25 0L25 4L26 4L26 5L27 5L27 6L26 6L26 7L25 7L25 6L24 6L24 5L23 5L23 4L22 4L22 7L21 7L21 6L20 6L20 5L19 5L19 3L18 3L18 1L19 1L19 0L17 0L17 1L16 1L16 3L18 3L18 5L12 5L12 4L11 4L11 6L10 6L10 2L12 2L12 3L13 3L13 4L14 4L14 3L13 3L13 1L12 1L12 0L10 0L10 1L9 1L9 0ZM14 0L14 1L15 1L15 0ZM20 0L20 4L21 4L21 2L23 2L23 0L22 0L22 1L21 1L21 0ZM26 2L26 3L27 3L27 2ZM9 6L9 9L5 9L5 10L7 10L7 11L4 11L4 12L7 12L7 13L6 13L6 14L8 14L8 15L9 15L9 14L10 14L10 15L11 15L11 16L7 16L7 15L6 15L6 16L7 16L7 17L6 17L6 18L7 18L7 17L8 17L8 19L10 19L10 22L9 22L9 27L8 27L8 26L7 26L7 27L8 27L8 28L10 28L10 27L11 27L11 24L10 24L10 23L11 23L11 22L12 22L12 23L13 23L13 22L14 22L14 21L15 21L15 20L14 20L14 19L15 19L15 17L16 17L16 19L17 19L17 17L18 17L18 19L19 19L19 17L18 17L18 16L14 16L14 18L13 18L13 17L11 17L11 16L13 16L13 15L14 15L14 14L13 14L13 11L12 11L12 13L10 13L10 11L11 11L11 10L14 10L14 11L15 11L15 12L14 12L14 13L17 13L17 14L15 14L15 15L17 15L17 14L18 14L18 15L20 15L20 19L21 19L21 17L23 17L23 19L24 19L24 22L23 22L23 21L21 21L21 20L20 20L20 21L18 21L18 22L16 22L16 24L15 24L15 25L14 25L14 28L15 28L15 27L16 27L16 28L17 28L17 29L18 29L18 30L17 30L17 31L16 31L16 32L17 32L17 33L18 33L18 35L19 35L19 33L20 33L20 35L23 35L23 32L22 32L22 31L24 31L24 32L26 32L26 33L27 33L27 34L28 34L28 35L29 35L29 36L31 36L31 34L32 34L32 33L30 33L30 35L29 35L29 34L28 34L28 32L26 32L26 31L27 31L27 30L28 30L28 29L27 29L27 28L28 28L28 27L27 27L27 28L25 28L25 27L26 27L26 26L25 26L25 27L23 27L23 26L24 26L24 24L25 24L25 25L26 25L26 24L27 24L27 25L28 25L28 22L29 22L29 23L30 23L30 24L31 24L31 23L30 23L30 21L29 21L29 20L31 20L31 19L29 19L29 18L30 18L30 17L28 17L28 16L31 16L31 14L32 14L32 15L33 15L33 16L32 16L32 17L34 17L34 18L33 18L33 19L32 19L32 20L33 20L33 19L36 19L36 18L35 18L35 17L34 17L34 16L35 16L35 15L36 15L36 14L35 14L35 15L34 15L34 13L33 13L33 10L32 10L32 9L30 9L30 10L32 10L32 11L31 11L31 12L32 12L32 13L31 13L31 14L30 14L30 12L29 12L29 11L28 11L28 10L27 10L27 9L26 9L26 8L27 8L27 7L28 7L28 6L27 6L27 7L26 7L26 8L24 8L24 6L23 6L23 7L22 7L22 8L23 8L23 10L21 10L21 11L23 11L23 13L22 13L22 12L21 12L21 13L22 13L22 14L21 14L21 15L20 15L20 14L19 14L19 13L20 13L20 11L19 11L19 10L20 10L20 9L21 9L21 7L20 7L20 6L19 6L19 7L18 7L18 6L17 6L17 7L16 7L16 6L15 6L15 7L14 7L14 6L13 6L13 7L12 7L12 6L11 6L11 7L12 7L12 8L11 8L11 9L10 9L10 6ZM13 7L13 8L12 8L12 9L13 9L13 8L14 8L14 10L17 10L17 9L16 9L16 8L14 8L14 7ZM18 8L18 10L19 10L19 9L20 9L20 8ZM25 9L25 13L27 13L27 14L22 14L22 15L21 15L21 16L23 16L23 15L25 15L25 16L26 16L26 17L25 17L25 18L26 18L26 20L27 20L27 14L28 14L28 15L29 15L29 12L28 12L28 11L27 11L27 10L26 10L26 9ZM8 10L8 11L7 11L7 12L9 12L9 10ZM17 11L17 13L18 13L18 12L19 12L19 11ZM26 11L26 12L27 12L27 13L28 13L28 12L27 12L27 11ZM8 13L8 14L9 14L9 13ZM11 14L11 15L12 15L12 14ZM9 17L9 18L11 18L11 17ZM3 18L3 19L4 19L4 20L5 20L5 22L4 22L4 23L5 23L5 24L7 24L7 25L8 25L8 23L6 23L6 22L8 22L8 21L9 21L9 20L8 20L8 21L6 21L6 20L7 20L7 19L6 19L6 20L5 20L5 18ZM28 19L28 20L29 20L29 19ZM1 20L1 21L2 21L2 22L3 22L3 21L2 21L2 20ZM11 20L11 21L12 21L12 22L13 22L13 20ZM16 20L16 21L17 21L17 20ZM25 21L25 24L26 24L26 23L27 23L27 21ZM21 23L21 25L22 25L22 26L19 26L19 29L20 29L20 30L21 30L21 31L22 31L22 30L21 30L21 29L20 29L20 27L22 27L22 26L23 26L23 25L22 25L22 24L23 24L23 23ZM0 24L0 25L1 25L1 24ZM16 24L16 25L15 25L15 26L16 26L16 25L17 25L17 24ZM18 24L18 25L20 25L20 24ZM12 25L12 26L13 26L13 25ZM0 26L0 27L1 27L1 28L0 28L0 29L3 29L3 28L4 28L4 29L5 29L5 28L4 28L4 27L3 27L3 26L2 26L2 27L1 27L1 26ZM17 26L17 28L18 28L18 26ZM2 27L2 28L3 28L3 27ZM12 27L12 28L11 28L11 29L13 29L13 27ZM22 28L22 29L23 29L23 30L24 30L24 29L23 29L23 28ZM26 29L26 30L27 30L27 29ZM29 29L29 32L32 32L32 29ZM10 30L10 31L11 31L11 32L10 32L10 33L11 33L11 32L12 32L12 31L11 31L11 30ZM30 30L30 31L31 31L31 30ZM18 31L18 32L20 32L20 33L21 33L21 34L22 34L22 33L21 33L21 32L20 32L20 31ZM34 31L34 32L35 32L35 31ZM33 34L33 35L32 35L32 36L33 36L33 35L34 35L34 34ZM35 36L35 37L37 37L37 36ZM0 0L0 7L7 7L7 0ZM1 1L1 6L6 6L6 1ZM2 2L2 5L5 5L5 2ZM30 0L30 7L37 7L37 0ZM31 1L31 6L36 6L36 1ZM32 2L32 5L35 5L35 2ZM0 30L0 37L7 37L7 30ZM1 31L1 36L6 36L6 31ZM2 32L2 35L5 35L5 32Z" fill="#000000"/></g></g></svg>
