<?xml version="1.0" encoding="UTF-8"?>
<svg xmlns="http://www.w3.org/2000/svg" version="1.1" width="300" height="300" viewBox="0 0 300 300"><rect x="0" y="0" width="300" height="300" fill="#ffffff"/><g transform="scale(8.108)"><g transform="translate(0,0)"><path fill-rule="evenodd" d="M8 0L8 1L10 1L10 0ZM11 0L11 1L12 1L12 0ZM13 0L13 2L9 2L9 3L10 3L10 5L9 5L9 4L8 4L8 7L9 7L9 6L10 6L10 9L8 9L8 8L1 8L1 10L0 10L0 11L1 11L1 10L2 10L2 12L1 12L1 13L0 13L0 15L1 15L1 16L0 16L0 20L1 20L1 17L2 17L2 18L3 18L3 19L2 19L2 20L3 20L3 21L4 21L4 23L5 23L5 24L6 24L6 25L4 25L4 26L2 26L2 27L3 27L3 29L4 29L4 27L5 27L5 26L6 26L6 27L8 27L8 26L6 26L6 25L9 25L9 24L10 24L10 25L11 25L11 24L12 24L12 26L9 26L9 28L6 28L6 29L8 29L8 36L9 36L9 37L10 37L10 36L11 36L11 37L13 37L13 36L14 36L14 37L16 37L16 34L17 34L17 36L18 36L18 34L19 34L19 33L21 33L21 34L20 34L20 35L21 35L21 36L20 36L20 37L22 37L22 36L23 36L23 37L25 37L25 36L26 36L26 37L28 37L28 36L29 36L29 35L30 35L30 34L34 34L34 35L35 35L35 34L34 34L34 33L36 33L36 32L37 32L37 30L36 30L36 29L37 29L37 28L36 28L36 27L37 27L37 26L36 26L36 24L33 24L33 25L34 25L34 26L33 26L33 27L34 27L34 28L31 28L31 27L32 27L32 26L31 26L31 25L32 25L32 21L33 21L33 23L36 23L36 22L37 22L37 18L36 18L36 17L37 17L37 14L36 14L36 13L33 13L33 12L34 12L34 11L33 11L33 10L34 10L34 9L33 9L33 8L31 8L31 9L30 9L30 10L28 10L28 9L29 9L29 4L28 4L28 5L26 5L26 4L27 4L27 3L28 3L28 2L29 2L29 0L28 0L28 1L26 1L26 0L25 0L25 1L22 1L22 0L21 0L21 1L20 1L20 3L19 3L19 2L18 2L18 3L17 3L17 4L16 4L16 3L13 3L13 2L14 2L14 1L15 1L15 2L17 2L17 1L16 1L16 0ZM18 0L18 1L19 1L19 0ZM24 2L24 3L25 3L25 4L23 4L23 3L20 3L20 4L19 4L19 3L18 3L18 4L17 4L17 5L18 5L18 6L17 6L17 7L16 7L16 6L15 6L15 5L16 5L16 4L14 4L14 5L13 5L13 3L12 3L12 5L13 5L13 7L14 7L14 8L13 8L13 9L14 9L14 8L15 8L15 9L16 9L16 8L17 8L17 7L18 7L18 6L19 6L19 7L20 7L20 8L21 8L21 9L19 9L19 10L18 10L18 9L17 9L17 10L16 10L16 11L15 11L15 12L14 12L14 10L13 10L13 12L14 12L14 13L12 13L12 14L14 14L14 13L15 13L15 12L17 12L17 10L18 10L18 11L19 11L19 10L21 10L21 9L23 9L23 7L24 7L24 9L25 9L25 12L26 12L26 13L24 13L24 12L22 12L22 13L24 13L24 14L22 14L22 15L23 15L23 16L22 16L22 17L21 17L21 18L22 18L22 19L23 19L23 20L21 20L21 21L22 21L22 24L21 24L21 22L20 22L20 21L19 21L19 20L18 20L18 19L17 19L17 18L18 18L18 16L19 16L19 14L17 14L17 17L16 17L16 19L17 19L17 20L14 20L14 19L15 19L15 16L16 16L16 15L13 15L13 18L12 18L12 15L11 15L11 16L10 16L10 17L9 17L9 19L10 19L10 17L11 17L11 19L13 19L13 21L12 21L12 20L10 20L10 23L12 23L12 24L14 24L14 25L13 25L13 26L12 26L12 27L13 27L13 28L14 28L14 29L11 29L11 30L12 30L12 32L11 32L11 31L10 31L10 30L9 30L9 31L10 31L10 32L9 32L9 33L10 33L10 32L11 32L11 33L13 33L13 32L14 32L14 31L15 31L15 32L16 32L16 33L15 33L15 34L13 34L13 35L12 35L12 34L9 34L9 36L10 36L10 35L12 35L12 36L13 36L13 35L15 35L15 34L16 34L16 33L17 33L17 31L18 31L18 33L19 33L19 30L21 30L21 31L20 31L20 32L24 32L24 30L23 30L23 29L25 29L25 28L26 28L26 29L27 29L27 31L28 31L28 27L29 27L29 28L30 28L30 27L29 27L29 26L27 26L27 28L26 28L26 26L25 26L25 25L27 25L27 24L26 24L26 23L27 23L27 22L28 22L28 21L30 21L30 22L29 22L29 23L30 23L30 22L31 22L31 21L32 21L32 20L36 20L36 18L35 18L35 17L34 17L34 16L36 16L36 14L33 14L33 13L32 13L32 12L31 12L31 11L32 11L32 10L31 10L31 11L28 11L28 14L30 14L30 15L31 15L31 17L30 17L30 16L29 16L29 15L26 15L26 14L27 14L27 11L26 11L26 10L27 10L27 9L26 9L26 8L27 8L27 7L28 7L28 6L27 6L27 7L26 7L26 6L25 6L25 7L24 7L24 6L23 6L23 7L22 7L22 6L21 6L21 5L20 5L20 4L23 4L23 5L25 5L25 4L26 4L26 3L27 3L27 2L26 2L26 3L25 3L25 2ZM18 4L18 5L19 5L19 6L20 6L20 7L21 7L21 8L22 8L22 7L21 7L21 6L20 6L20 5L19 5L19 4ZM10 5L10 6L11 6L11 7L12 7L12 6L11 6L11 5ZM14 6L14 7L15 7L15 8L16 8L16 7L15 7L15 6ZM25 7L25 8L26 8L26 7ZM11 8L11 9L10 9L10 11L9 11L9 10L8 10L8 9L4 9L4 12L3 12L3 13L1 13L1 14L2 14L2 15L4 15L4 17L3 17L3 16L2 16L2 17L3 17L3 18L4 18L4 17L5 17L5 16L7 16L7 17L6 17L6 18L8 18L8 16L9 16L9 15L10 15L10 14L11 14L11 13L9 13L9 12L10 12L10 11L11 11L11 12L12 12L12 11L11 11L11 9L12 9L12 8ZM36 8L36 9L35 9L35 10L36 10L36 12L37 12L37 10L36 10L36 9L37 9L37 8ZM6 10L6 11L7 11L7 10ZM22 10L22 11L24 11L24 10ZM8 11L8 12L9 12L9 11ZM20 11L20 12L18 12L18 13L20 13L20 14L21 14L21 11ZM6 12L6 13L5 13L5 14L4 14L4 13L3 13L3 14L4 14L4 15L5 15L5 14L6 14L6 15L7 15L7 16L8 16L8 15L7 15L7 14L6 14L6 13L7 13L7 12ZM29 12L29 13L31 13L31 14L32 14L32 13L31 13L31 12ZM8 13L8 14L9 14L9 13ZM24 14L24 16L23 16L23 17L22 17L22 18L23 18L23 17L24 17L24 18L25 18L25 17L26 17L26 16L25 16L25 14ZM20 15L20 16L21 16L21 15ZM32 15L32 17L33 17L33 19L34 19L34 17L33 17L33 16L34 16L34 15ZM24 16L24 17L25 17L25 16ZM27 16L27 17L29 17L29 18L27 18L27 19L26 19L26 20L28 20L28 19L29 19L29 18L30 18L30 19L31 19L31 20L30 20L30 21L31 21L31 20L32 20L32 18L30 18L30 17L29 17L29 16ZM19 17L19 18L20 18L20 17ZM13 18L13 19L14 19L14 18ZM4 19L4 20L5 20L5 19ZM6 19L6 20L7 20L7 19ZM24 19L24 20L25 20L25 19ZM8 20L8 21L6 21L6 22L5 22L5 23L6 23L6 24L8 24L8 23L9 23L9 22L8 22L8 21L9 21L9 20ZM0 21L0 29L1 29L1 24L3 24L3 23L1 23L1 21ZM11 21L11 22L12 22L12 21ZM13 21L13 22L14 22L14 21ZM15 21L15 22L17 22L17 21ZM18 21L18 22L19 22L19 21ZM24 21L24 22L25 22L25 21ZM26 21L26 22L27 22L27 21ZM34 21L34 22L36 22L36 21ZM6 22L6 23L8 23L8 22ZM24 23L24 25L22 25L22 27L23 27L23 26L24 26L24 27L25 27L25 26L24 26L24 25L25 25L25 23ZM15 24L15 26L13 26L13 27L15 27L15 28L16 28L16 29L15 29L15 30L16 30L16 31L17 31L17 30L19 30L19 29L17 29L17 28L18 28L18 27L19 27L19 28L20 28L20 25L19 25L19 26L18 26L18 27L17 27L17 25L18 25L18 24L17 24L17 25L16 25L16 24ZM28 24L28 25L30 25L30 24ZM35 26L35 27L36 27L36 26ZM10 27L10 28L11 28L11 27ZM16 27L16 28L17 28L17 27ZM21 28L21 29L23 29L23 28ZM34 28L34 29L36 29L36 28ZM16 29L16 30L17 30L17 29ZM29 29L29 32L32 32L32 29ZM22 30L22 31L23 31L23 30ZM25 30L25 32L26 32L26 33L27 33L27 34L28 34L28 35L26 35L26 36L28 36L28 35L29 35L29 34L30 34L30 33L27 33L27 32L26 32L26 30ZM30 30L30 31L31 31L31 30ZM34 30L34 31L33 31L33 32L35 32L35 31L36 31L36 30ZM22 33L22 35L23 35L23 34L25 34L25 33ZM36 34L36 36L33 36L33 37L37 37L37 34ZM24 35L24 36L25 36L25 35ZM31 35L31 36L30 36L30 37L32 37L32 35ZM0 0L0 7L7 7L7 0ZM1 1L1 6L6 6L6 1ZM2 2L2 5L5 5L5 2ZM30 0L30 7L37 7L37 0ZM31 1L31 6L36 6L36 1ZM32 2L32 5L35 5L35 2ZM0 30L0 37L7 37L7 30ZM1 31L1 36L6 36L6 31ZM2 32L2 35L5 35L5 32Z" fill="#000000"/></g></g></svg>
