<?xml version="1.0" encoding="UTF-8"?>
<svg xmlns="http://www.w3.org/2000/svg" version="1.1" width="300" height="300" viewBox="0 0 300 300"><rect x="0" y="0" width="300" height="300" fill="#ffffff"/><g transform="scale(8.108)"><g transform="translate(0,0)"><path fill-rule="evenodd" d="M8 0L8 5L9 5L9 6L8 6L8 8L6 8L6 9L5 9L5 8L4 8L4 9L3 9L3 8L1 8L1 9L0 9L0 10L1 10L1 9L2 9L2 10L4 10L4 9L5 9L5 12L4 12L4 11L2 11L2 12L4 12L4 13L5 13L5 14L6 14L6 15L5 15L5 16L4 16L4 17L3 17L3 19L1 19L1 18L2 18L2 17L1 17L1 18L0 18L0 20L1 20L1 22L0 22L0 23L1 23L1 22L2 22L2 21L3 21L3 23L4 23L4 20L5 20L5 21L7 21L7 22L5 22L5 24L2 24L2 25L1 25L1 24L0 24L0 25L1 25L1 26L0 26L0 27L1 27L1 28L0 28L0 29L1 29L1 28L2 28L2 29L3 29L3 28L4 28L4 27L7 27L7 26L8 26L8 25L9 25L9 27L10 27L10 29L8 29L8 28L5 28L5 29L8 29L8 31L9 31L9 32L8 32L8 33L9 33L9 34L8 34L8 36L10 36L10 37L12 37L12 36L13 36L13 37L16 37L16 34L17 34L17 37L19 37L19 36L20 36L20 35L19 35L19 34L20 34L20 32L21 32L21 31L22 31L22 30L21 30L21 31L20 31L20 32L19 32L19 31L18 31L18 32L16 32L16 31L17 31L17 29L18 29L18 30L20 30L20 29L21 29L21 28L20 28L20 29L18 29L18 27L19 27L19 26L20 26L20 27L22 27L22 26L23 26L23 24L24 24L24 23L23 23L23 22L24 22L24 21L23 21L23 20L24 20L24 19L23 19L23 18L24 18L24 17L23 17L23 12L24 12L24 16L25 16L25 18L26 18L26 19L25 19L25 20L26 20L26 21L25 21L25 22L26 22L26 23L25 23L25 24L26 24L26 26L27 26L27 27L25 27L25 26L24 26L24 27L23 27L23 28L25 28L25 29L26 29L26 30L27 30L27 31L25 31L25 32L24 32L24 31L23 31L23 34L22 34L22 33L21 33L21 34L22 34L22 35L21 35L21 36L22 36L22 37L25 37L25 35L26 35L26 34L25 34L25 33L26 33L26 32L28 32L28 35L27 35L27 37L29 37L29 36L30 36L30 37L34 37L34 35L35 35L35 37L37 37L37 36L36 36L36 35L37 35L37 33L36 33L36 32L35 32L35 34L34 34L34 35L33 35L33 31L35 31L35 30L34 30L34 29L35 29L35 27L34 27L34 29L33 29L33 28L32 28L32 27L33 27L33 26L32 26L32 25L34 25L34 26L35 26L35 25L36 25L36 31L37 31L37 25L36 25L36 24L37 24L37 23L36 23L36 21L37 21L37 20L36 20L36 19L37 19L37 16L36 16L36 15L37 15L37 12L36 12L36 11L37 11L37 8L32 8L32 10L33 10L33 11L32 11L32 12L33 12L33 14L34 14L34 15L35 15L35 17L33 17L33 18L32 18L32 17L31 17L31 16L32 16L32 14L31 14L31 10L30 10L30 9L31 9L31 8L30 8L30 9L29 9L29 10L30 10L30 11L29 11L29 12L28 12L28 11L27 11L27 10L28 10L28 9L27 9L27 10L26 10L26 9L25 9L25 10L24 10L24 11L23 11L23 10L22 10L22 7L23 7L23 5L22 5L22 7L21 7L21 6L20 6L20 5L19 5L19 2L21 2L21 0L20 0L20 1L19 1L19 0L18 0L18 1L16 1L16 0L15 0L15 1L16 1L16 4L15 4L15 3L14 3L14 4L13 4L13 2L14 2L14 1L12 1L12 0L10 0L10 2L11 2L11 3L10 3L10 5L9 5L9 0ZM22 0L22 1L23 1L23 0ZM25 0L25 1L26 1L26 2L25 2L25 5L26 5L26 7L27 7L27 8L28 8L28 7L29 7L29 3L27 3L27 2L28 2L28 1L29 1L29 0L27 0L27 1L26 1L26 0ZM22 2L22 3L24 3L24 2ZM11 3L11 4L12 4L12 3ZM17 3L17 4L18 4L18 3ZM20 3L20 4L21 4L21 3ZM12 5L12 6L11 6L11 7L10 7L10 6L9 6L9 8L8 8L8 9L6 9L6 10L7 10L7 11L6 11L6 12L5 12L5 13L6 13L6 14L7 14L7 15L6 15L6 16L7 16L7 17L4 17L4 19L3 19L3 20L4 20L4 19L5 19L5 20L8 20L8 19L9 19L9 18L10 18L10 16L9 16L9 14L10 14L10 15L13 15L13 16L14 16L14 17L16 17L16 18L14 18L14 20L13 20L13 17L12 17L12 16L11 16L11 17L12 17L12 18L11 18L11 19L10 19L10 20L9 20L9 21L8 21L8 23L6 23L6 24L5 24L5 26L7 26L7 25L8 25L8 24L9 24L9 23L10 23L10 25L11 25L11 26L10 26L10 27L13 27L13 28L12 28L12 29L10 29L10 33L11 33L11 34L10 34L10 36L12 36L12 34L13 34L13 33L16 33L16 32L15 32L15 31L14 31L14 30L16 30L16 29L15 29L15 28L14 28L14 27L16 27L16 28L17 28L17 26L19 26L19 24L20 24L20 25L21 25L21 26L22 26L22 25L21 25L21 24L20 24L20 22L19 22L19 21L18 21L18 20L20 20L20 21L21 21L21 20L20 20L20 19L22 19L22 20L23 20L23 19L22 19L22 18L20 18L20 19L18 19L18 18L19 18L19 17L18 17L18 16L17 16L17 17L16 17L16 15L20 15L20 17L22 17L22 16L21 16L21 15L22 15L22 14L21 14L21 13L22 13L22 12L21 12L21 13L20 13L20 12L18 12L18 13L17 13L17 11L18 11L18 10L19 10L19 11L20 11L20 10L19 10L19 9L20 9L20 8L21 8L21 7L20 7L20 6L19 6L19 7L20 7L20 8L19 8L19 9L18 9L18 10L17 10L17 11L16 11L16 10L15 10L15 11L14 11L14 10L13 10L13 11L12 11L12 12L11 12L11 10L12 10L12 9L10 9L10 8L11 8L11 7L12 7L12 8L13 8L13 9L17 9L17 8L18 8L18 5L17 5L17 7L16 7L16 5L14 5L14 6L13 6L13 5ZM12 6L12 7L13 7L13 6ZM14 6L14 7L15 7L15 6ZM24 6L24 8L23 8L23 9L24 9L24 8L25 8L25 6ZM27 6L27 7L28 7L28 6ZM34 9L34 10L35 10L35 11L34 11L34 12L35 12L35 11L36 11L36 9ZM21 10L21 11L22 11L22 10ZM9 11L9 13L7 13L7 12L6 12L6 13L7 13L7 14L9 14L9 13L10 13L10 14L12 14L12 13L14 13L14 12L12 12L12 13L10 13L10 11ZM24 11L24 12L25 12L25 11ZM26 11L26 12L27 12L27 13L26 13L26 16L27 16L27 17L26 17L26 18L27 18L27 19L29 19L29 20L27 20L27 25L28 25L28 22L29 22L29 28L31 28L31 27L30 27L30 26L31 26L31 25L30 25L30 24L33 24L33 23L32 23L32 22L33 22L33 19L34 19L34 21L35 21L35 19L36 19L36 17L35 17L35 19L34 19L34 18L33 18L33 19L32 19L32 22L31 22L31 23L30 23L30 22L29 22L29 20L30 20L30 16L31 16L31 14L30 14L30 15L29 15L29 16L27 16L27 15L28 15L28 14L29 14L29 13L28 13L28 12L27 12L27 11ZM0 12L0 13L1 13L1 12ZM18 13L18 14L20 14L20 13ZM27 13L27 14L28 14L28 13ZM35 13L35 15L36 15L36 13ZM0 14L0 15L2 15L2 16L3 16L3 14ZM13 14L13 15L14 15L14 14ZM7 17L7 18L5 18L5 19L8 19L8 18L9 18L9 17ZM17 17L17 18L16 18L16 19L15 19L15 21L17 21L17 22L16 22L16 23L17 23L17 24L16 24L16 25L15 25L15 24L14 24L14 23L15 23L15 22L14 22L14 23L11 23L11 22L10 22L10 23L11 23L11 25L15 25L15 26L17 26L17 25L18 25L18 24L19 24L19 22L18 22L18 21L17 21L17 20L16 20L16 19L17 19L17 18L18 18L18 17ZM10 20L10 21L11 21L11 20ZM12 21L12 22L13 22L13 21ZM22 21L22 22L23 22L23 21ZM17 22L17 23L18 23L18 22ZM22 23L22 24L23 24L23 23ZM34 23L34 25L35 25L35 23ZM6 24L6 25L7 25L7 24ZM2 25L2 26L1 26L1 27L2 27L2 28L3 28L3 27L4 27L4 25ZM13 26L13 27L14 27L14 26ZM27 27L27 28L28 28L28 27ZM13 28L13 29L14 29L14 28ZM27 29L27 30L28 30L28 29ZM29 29L29 32L32 32L32 29ZM11 30L11 32L12 32L12 31L13 31L13 30ZM30 30L30 31L31 31L31 30ZM18 32L18 34L19 34L19 32ZM30 33L30 35L32 35L32 33ZM35 34L35 35L36 35L36 34ZM14 35L14 36L15 36L15 35ZM23 35L23 36L24 36L24 35ZM0 0L0 7L7 7L7 0ZM1 1L1 6L6 6L6 1ZM2 2L2 5L5 5L5 2ZM30 0L30 7L37 7L37 0ZM31 1L31 6L36 6L36 1ZM32 2L32 5L35 5L35 2ZM0 30L0 37L7 37L7 30ZM1 31L1 36L6 36L6 31ZM2 32L2 35L5 35L5 32Z" fill="#000000"/></g></g></svg>
