<?xml version="1.0" encoding="UTF-8"?>
<svg xmlns="http://www.w3.org/2000/svg" version="1.1" width="300" height="300" viewBox="0 0 300 300"><rect x="0" y="0" width="300" height="300" fill="#ffffff"/><g transform="scale(8.108)"><g transform="translate(0,0)"><path fill-rule="evenodd" d="M8 0L8 1L9 1L9 2L8 2L8 4L9 4L9 5L8 5L8 8L5 8L5 10L4 10L4 8L3 8L3 9L2 9L2 8L1 8L1 9L2 9L2 10L4 10L4 11L3 11L3 13L1 13L1 14L2 14L2 16L1 16L1 15L0 15L0 17L2 17L2 18L0 18L0 21L1 21L1 20L2 20L2 22L0 22L0 23L2 23L2 25L4 25L4 24L5 24L5 23L4 23L4 22L3 22L3 20L5 20L5 19L4 19L4 18L6 18L6 19L7 19L7 20L6 20L6 21L5 21L5 22L6 22L6 23L7 23L7 22L8 22L8 21L9 21L9 19L8 19L8 16L6 16L6 15L7 15L7 14L6 14L6 13L7 13L7 12L9 12L9 13L8 13L8 14L9 14L9 16L11 16L11 17L10 17L10 18L11 18L11 17L13 17L13 16L11 16L11 15L10 15L10 14L9 14L9 13L10 13L10 12L11 12L11 13L12 13L12 12L11 12L11 11L10 11L10 8L12 8L12 9L11 9L11 10L12 10L12 11L13 11L13 14L12 14L12 15L13 15L13 14L14 14L14 13L15 13L15 12L14 12L14 11L15 11L15 10L17 10L17 9L20 9L20 11L19 11L19 10L18 10L18 12L20 12L20 11L21 11L21 12L22 12L22 13L18 13L18 14L17 14L17 13L16 13L16 14L17 14L17 15L16 15L16 16L15 16L15 15L14 15L14 16L15 16L15 17L17 17L17 18L16 18L16 19L15 19L15 18L13 18L13 21L12 21L12 20L11 20L11 19L10 19L10 21L12 21L12 22L9 22L9 23L8 23L8 24L9 24L9 23L10 23L10 25L11 25L11 26L9 26L9 25L8 25L8 26L9 26L9 28L13 28L13 29L12 29L12 30L13 30L13 29L14 29L14 31L13 31L13 32L14 32L14 35L16 35L16 36L14 36L14 37L17 37L17 35L18 35L18 37L19 37L19 36L22 36L22 37L25 37L25 33L27 33L27 31L28 31L28 33L31 33L31 34L32 34L32 35L31 35L31 36L29 36L29 35L28 35L28 37L33 37L33 35L35 35L35 34L36 34L36 35L37 35L37 33L35 33L35 34L34 34L34 32L35 32L35 30L36 30L36 31L37 31L37 25L36 25L36 24L37 24L37 23L36 23L36 21L37 21L37 20L36 20L36 19L37 19L37 16L36 16L36 15L37 15L37 12L34 12L34 9L35 9L35 11L37 11L37 8L36 8L36 9L35 9L35 8L33 8L33 9L32 9L32 8L29 8L29 10L28 10L28 9L27 9L27 8L28 8L28 7L29 7L29 5L28 5L28 4L29 4L29 1L28 1L28 0L25 0L25 4L26 4L26 5L27 5L27 6L26 6L26 7L25 7L25 6L24 6L24 5L23 5L23 4L22 4L22 5L21 5L21 6L20 6L20 8L19 8L19 6L18 6L18 5L20 5L20 4L18 4L18 5L17 5L17 3L18 3L18 2L16 2L16 4L15 4L15 3L14 3L14 2L13 2L13 1L15 1L15 0L13 0L13 1L12 1L12 0L10 0L10 1L9 1L9 0ZM18 0L18 1L19 1L19 0ZM20 0L20 3L21 3L21 0ZM22 0L22 3L23 3L23 0ZM9 2L9 3L10 3L10 4L11 4L11 5L10 5L10 6L9 6L9 8L10 8L10 6L11 6L11 7L12 7L12 6L11 6L11 5L15 5L15 4L14 4L14 3L12 3L12 2L11 2L11 3L10 3L10 2ZM26 2L26 3L27 3L27 2ZM16 5L16 6L15 6L15 7L14 7L14 6L13 6L13 7L14 7L14 8L13 8L13 9L14 9L14 8L15 8L15 9L17 9L17 7L18 7L18 6L17 6L17 5ZM16 6L16 7L17 7L17 6ZM21 6L21 7L22 7L22 6ZM23 6L23 10L21 10L21 11L23 11L23 13L22 13L22 14L18 14L18 15L19 15L19 16L20 16L20 19L22 19L22 20L23 20L23 19L24 19L24 22L23 22L23 21L22 21L22 25L21 25L21 24L20 24L20 23L21 23L21 21L19 21L19 22L20 22L20 23L19 23L19 24L18 24L18 21L17 21L17 20L15 20L15 19L14 19L14 20L15 20L15 21L17 21L17 24L18 24L18 25L19 25L19 24L20 24L20 25L21 25L21 26L18 26L18 27L17 27L17 25L16 25L16 24L15 24L15 25L14 25L14 26L13 26L13 22L14 22L14 21L13 21L13 22L12 22L12 24L11 24L11 25L12 25L12 26L11 26L11 27L12 27L12 26L13 26L13 27L14 27L14 28L15 28L15 27L16 27L16 28L18 28L18 30L17 30L17 29L15 29L15 31L14 31L14 32L15 32L15 34L16 34L16 35L17 35L17 34L19 34L19 33L20 33L20 35L23 35L23 32L26 32L26 31L27 31L27 29L26 29L26 28L23 28L23 26L25 26L25 27L26 27L26 26L25 26L25 25L26 25L26 24L27 24L27 25L28 25L28 26L29 26L29 27L30 27L30 26L32 26L32 28L33 28L33 29L34 29L34 30L35 30L35 29L36 29L36 27L35 27L35 26L36 26L36 25L35 25L35 24L36 24L36 23L35 23L35 21L36 21L36 20L34 20L34 19L35 19L35 18L36 18L36 17L34 17L34 16L35 16L35 15L36 15L36 14L34 14L34 15L33 15L33 10L32 10L32 9L30 9L30 10L29 10L29 11L28 11L28 10L27 10L27 9L26 9L26 8L27 8L27 7L28 7L28 6L27 6L27 7L26 7L26 8L24 8L24 6ZM6 9L6 10L5 10L5 11L6 11L6 12L4 12L4 13L3 13L3 15L4 15L4 16L3 16L3 17L5 17L5 14L4 14L4 13L6 13L6 12L7 12L7 11L8 11L8 9ZM25 9L25 10L24 10L24 11L25 11L25 12L24 12L24 14L22 14L22 15L20 15L20 16L23 16L23 15L24 15L24 16L26 16L26 17L25 17L25 18L26 18L26 20L27 20L27 16L26 16L26 15L27 15L27 14L28 14L28 16L29 16L29 17L28 17L28 18L29 18L29 17L30 17L30 19L28 19L28 22L30 22L30 23L27 23L27 21L25 21L25 24L26 24L26 23L27 23L27 24L28 24L28 25L29 25L29 24L30 24L30 25L34 25L34 22L32 22L32 23L31 23L31 20L32 20L32 21L33 21L33 20L32 20L32 19L31 19L31 18L33 18L33 19L34 19L34 17L32 17L32 14L31 14L31 13L32 13L32 12L30 12L30 11L32 11L32 10L30 10L30 11L29 11L29 12L28 12L28 11L26 11L26 9ZM0 10L0 12L2 12L2 11L1 11L1 10ZM6 10L6 11L7 11L7 10ZM9 11L9 12L10 12L10 11ZM27 12L27 13L25 13L25 14L27 14L27 13L28 13L28 12ZM29 14L29 16L31 16L31 14ZM17 16L17 17L18 17L18 18L17 18L17 19L19 19L19 17L18 17L18 16ZM6 17L6 18L7 18L7 17ZM21 17L21 18L22 18L22 19L23 19L23 17ZM2 18L2 20L3 20L3 18ZM30 19L30 20L29 20L29 21L30 21L30 20L31 20L31 19ZM6 21L6 22L7 22L7 21ZM2 22L2 23L3 23L3 24L4 24L4 23L3 23L3 22ZM30 23L30 24L31 24L31 23ZM32 23L32 24L33 24L33 23ZM0 24L0 25L1 25L1 24ZM6 24L6 25L7 25L7 24ZM15 25L15 26L14 26L14 27L15 27L15 26L16 26L16 25ZM22 25L22 26L21 26L21 27L22 27L22 26L23 26L23 25ZM0 26L0 27L1 27L1 28L0 28L0 29L7 29L7 28L8 28L8 27L7 27L7 26L5 26L5 28L4 28L4 27L3 27L3 26L2 26L2 27L1 27L1 26ZM2 27L2 28L3 28L3 27ZM6 27L6 28L7 28L7 27ZM18 27L18 28L19 28L19 27ZM27 27L27 28L28 28L28 27ZM34 27L34 28L35 28L35 27ZM22 28L22 29L23 29L23 30L24 30L24 29L23 29L23 28ZM8 29L8 32L9 32L9 33L8 33L8 34L9 34L9 35L8 35L8 36L9 36L9 35L10 35L10 36L11 36L11 37L12 37L12 36L13 36L13 34L12 34L12 35L11 35L11 33L10 33L10 32L11 32L11 31L10 31L10 29ZM29 29L29 32L32 32L32 29ZM21 30L21 31L20 31L20 33L21 33L21 34L22 34L22 33L21 33L21 31L22 31L22 32L23 32L23 31L22 31L22 30ZM30 30L30 31L31 31L31 30ZM18 31L18 32L19 32L19 31ZM16 32L16 33L17 33L17 32ZM9 33L9 34L10 34L10 33ZM26 35L26 36L27 36L27 35ZM35 36L35 37L37 37L37 36ZM0 0L0 7L7 7L7 0ZM1 1L1 6L6 6L6 1ZM2 2L2 5L5 5L5 2ZM30 0L30 7L37 7L37 0ZM31 1L31 6L36 6L36 1ZM32 2L32 5L35 5L35 2ZM0 30L0 37L7 37L7 30ZM1 31L1 36L6 36L6 31ZM2 32L2 35L5 35L5 32Z" fill="#000000"/></g></g></svg>
