<?xml version="1.0" encoding="UTF-8"?>
<svg xmlns="http://www.w3.org/2000/svg" version="1.1" width="300" height="300" viewBox="0 0 300 300"><rect x="0" y="0" width="300" height="300" fill="#ffffff"/><g transform="scale(8.108)"><g transform="translate(0,0)"><path fill-rule="evenodd" d="M8 0L8 1L9 1L9 2L11 2L11 3L9 3L9 4L8 4L8 7L9 7L9 8L10 8L10 12L9 12L9 9L8 9L8 8L1 8L1 10L0 10L0 12L1 12L1 11L2 11L2 14L4 14L4 15L3 15L3 17L4 17L4 15L5 15L5 14L4 14L4 13L7 13L7 12L4 12L4 9L8 9L8 12L9 12L9 13L10 13L10 12L11 12L11 13L12 13L12 15L11 15L11 14L10 14L10 15L9 15L9 14L6 14L6 15L7 15L7 16L5 16L5 19L7 19L7 20L5 20L5 21L4 21L4 20L3 20L3 21L2 21L2 20L0 20L0 29L1 29L1 24L2 24L2 25L3 25L3 24L4 24L4 25L7 25L7 26L6 26L6 27L5 27L5 28L4 28L4 26L2 26L2 27L3 27L3 29L5 29L5 28L6 28L6 29L8 29L8 36L10 36L10 34L12 34L12 35L11 35L11 37L18 37L18 35L17 35L17 33L18 33L18 34L19 34L19 33L18 33L18 31L17 31L17 32L16 32L16 31L15 31L15 28L16 28L16 30L18 30L18 29L17 29L17 28L16 28L16 27L18 27L18 25L19 25L19 27L20 27L20 28L19 28L19 30L20 30L20 31L19 31L19 32L20 32L20 33L21 33L21 34L20 34L20 35L21 35L21 36L20 36L20 37L22 37L22 36L23 36L23 37L25 37L25 36L26 36L26 37L28 37L28 36L29 36L29 35L28 35L28 36L26 36L26 35L27 35L27 34L33 34L33 36L34 36L34 37L37 37L37 34L36 34L36 36L34 36L34 35L35 35L35 34L33 34L33 32L34 32L34 33L36 33L36 32L37 32L37 30L36 30L36 29L37 29L37 28L35 28L35 26L36 26L36 27L37 27L37 26L36 26L36 24L34 24L34 23L33 23L33 22L34 22L34 21L36 21L36 22L35 22L35 23L36 23L36 22L37 22L37 18L36 18L36 17L37 17L37 14L36 14L36 13L37 13L37 12L36 12L36 11L37 11L37 10L35 10L35 12L36 12L36 13L35 13L35 14L33 14L33 16L32 16L32 17L33 17L33 19L34 19L34 18L36 18L36 20L32 20L32 18L27 18L27 19L26 19L26 20L27 20L27 21L26 21L26 22L27 22L27 23L26 23L26 24L27 24L27 25L25 25L25 23L24 23L24 25L22 25L22 27L23 27L23 28L21 28L21 27L20 27L20 26L21 26L21 25L20 25L20 24L19 24L19 23L18 23L18 25L15 25L15 26L14 26L14 24L13 24L13 22L16 22L16 23L15 23L15 24L17 24L17 22L16 22L16 21L17 21L17 20L16 20L16 17L17 17L17 16L16 16L16 17L15 17L15 18L14 18L14 17L13 17L13 16L15 16L15 15L13 15L13 14L14 14L14 13L12 13L12 11L13 11L13 12L15 12L15 13L16 13L16 12L15 12L15 11L16 11L16 10L17 10L17 8L18 8L18 9L20 9L20 7L21 7L21 8L23 8L23 9L21 9L21 10L18 10L18 11L17 11L17 14L18 14L18 13L19 13L19 14L20 14L20 15L21 15L21 16L20 16L20 18L19 18L19 16L18 16L18 18L19 18L19 19L18 19L18 21L20 21L20 20L23 20L23 19L22 19L22 18L23 18L23 17L22 17L22 16L23 16L23 15L22 15L22 14L25 14L25 15L26 15L26 16L25 16L25 17L24 17L24 18L25 18L25 17L26 17L26 16L27 16L27 17L31 17L31 15L32 15L32 14L31 14L31 15L30 15L30 13L33 13L33 12L34 12L34 11L33 11L33 10L34 10L34 9L33 9L33 8L31 8L31 9L30 9L30 10L28 10L28 9L29 9L29 5L26 5L26 4L29 4L29 1L27 1L27 0L25 0L25 1L23 1L23 2L21 2L21 1L22 1L22 0L21 0L21 1L20 1L20 3L19 3L19 2L17 2L17 3L16 3L16 2L14 2L14 1L13 1L13 2L11 2L11 1L12 1L12 0L11 0L11 1L9 1L9 0ZM15 0L15 1L17 1L17 0ZM18 0L18 1L19 1L19 0ZM24 2L24 3L25 3L25 4L22 4L22 3L20 3L20 4L17 4L17 5L16 5L16 4L14 4L14 3L13 3L13 4L11 4L11 5L9 5L9 7L10 7L10 6L11 6L11 8L12 8L12 9L11 9L11 11L12 11L12 9L14 9L14 8L15 8L15 9L16 9L16 8L17 8L17 7L18 7L18 6L19 6L19 7L20 7L20 6L19 6L19 5L20 5L20 4L22 4L22 6L21 6L21 7L22 7L22 6L23 6L23 7L24 7L24 9L25 9L25 10L22 10L22 11L25 11L25 12L22 12L22 13L25 13L25 14L27 14L27 11L25 11L25 10L27 10L27 9L26 9L26 8L28 8L28 6L27 6L27 7L26 7L26 6L25 6L25 7L24 7L24 6L23 6L23 5L25 5L25 4L26 4L26 3L28 3L28 2L26 2L26 3L25 3L25 2ZM13 4L13 5L14 5L14 4ZM15 5L15 6L14 6L14 7L13 7L13 6L12 6L12 8L14 8L14 7L15 7L15 8L16 8L16 7L17 7L17 6L18 6L18 5L17 5L17 6L16 6L16 5ZM15 6L15 7L16 7L16 6ZM25 7L25 8L26 8L26 7ZM36 8L36 9L37 9L37 8ZM5 10L5 11L7 11L7 10ZM13 10L13 11L15 11L15 10ZM31 10L31 11L32 11L32 10ZM18 11L18 12L19 12L19 11ZM20 11L20 13L21 13L21 11ZM28 11L28 15L27 15L27 16L28 16L28 15L29 15L29 13L30 13L30 12L29 12L29 11ZM25 12L25 13L26 13L26 12ZM0 13L0 14L1 14L1 13ZM35 14L35 15L34 15L34 16L33 16L33 17L34 17L34 16L36 16L36 14ZM1 15L1 16L0 16L0 17L1 17L1 18L0 18L0 19L1 19L1 18L2 18L2 19L3 19L3 18L2 18L2 17L1 17L1 16L2 16L2 15ZM7 16L7 17L6 17L6 18L8 18L8 16ZM10 16L10 17L9 17L9 19L10 19L10 21L9 21L9 20L8 20L8 23L6 23L6 22L7 22L7 21L5 21L5 22L4 22L4 24L7 24L7 25L8 25L8 26L7 26L7 27L6 27L6 28L7 28L7 27L8 27L8 29L10 29L10 30L9 30L9 31L10 31L10 32L9 32L9 33L10 33L10 32L11 32L11 31L10 31L10 30L11 30L11 29L12 29L12 30L13 30L13 32L12 32L12 33L13 33L13 32L14 32L14 33L15 33L15 35L14 35L14 34L13 34L13 35L12 35L12 36L17 36L17 35L16 35L16 33L15 33L15 32L14 32L14 30L13 30L13 29L14 29L14 28L11 28L11 23L12 23L12 20L11 20L11 19L13 19L13 21L14 21L14 20L15 20L15 19L13 19L13 18L12 18L12 17L11 17L11 16ZM10 17L10 18L11 18L11 17ZM24 19L24 20L25 20L25 19ZM27 19L27 20L29 20L29 19ZM1 21L1 23L2 23L2 24L3 24L3 22L2 22L2 21ZM21 21L21 22L20 22L20 23L21 23L21 24L23 24L23 23L21 23L21 22L22 22L22 21ZM24 21L24 22L25 22L25 21ZM27 21L27 22L29 22L29 23L27 23L27 24L28 24L28 25L30 25L30 24L29 24L29 23L30 23L30 22L31 22L31 24L32 24L32 25L31 25L31 26L32 26L32 27L29 27L29 26L27 26L27 28L26 28L26 26L25 26L25 25L24 25L24 26L23 26L23 27L24 27L24 26L25 26L25 28L26 28L26 29L28 29L28 27L29 27L29 28L34 28L34 30L35 30L35 31L34 31L34 32L35 32L35 31L36 31L36 30L35 30L35 28L34 28L34 27L33 27L33 26L34 26L34 24L33 24L33 23L32 23L32 22L33 22L33 21ZM9 22L9 23L11 23L11 22ZM8 24L8 25L9 25L9 26L10 26L10 24ZM12 25L12 26L13 26L13 25ZM9 27L9 28L10 28L10 27ZM20 28L20 30L21 30L21 31L20 31L20 32L24 32L24 30L25 30L25 32L26 32L26 30L25 30L25 29L24 29L24 28L23 28L23 29L21 29L21 28ZM23 29L23 30L22 30L22 31L23 31L23 30L24 30L24 29ZM29 29L29 32L32 32L32 29ZM27 30L27 32L28 32L28 30ZM30 30L30 31L31 31L31 30ZM22 33L22 35L23 35L23 34L25 34L25 33ZM26 33L26 34L27 34L27 33ZM24 35L24 36L25 36L25 35ZM30 35L30 36L31 36L31 37L32 37L32 35ZM0 0L0 7L7 7L7 0ZM1 1L1 6L6 6L6 1ZM2 2L2 5L5 5L5 2ZM30 0L30 7L37 7L37 0ZM31 1L31 6L36 6L36 1ZM32 2L32 5L35 5L35 2ZM0 30L0 37L7 37L7 30ZM1 31L1 36L6 36L6 31ZM2 32L2 35L5 35L5 32Z" fill="#000000"/></g></g></svg>
