<?xml version="1.0" encoding="UTF-8"?>
<svg xmlns="http://www.w3.org/2000/svg" version="1.1" width="300" height="300" viewBox="0 0 300 300"><rect x="0" y="0" width="300" height="300" fill="#ffffff"/><g transform="scale(6.122)"><g transform="translate(0,0)"><path fill-rule="evenodd" d="M8 0L8 1L9 1L9 2L10 2L10 3L9 3L9 4L8 4L8 7L9 7L9 6L10 6L10 7L11 7L11 6L12 6L12 7L13 7L13 8L9 8L9 9L10 9L10 10L9 10L9 12L8 12L8 10L5 10L5 9L8 9L8 8L1 8L1 9L4 9L4 10L1 10L1 11L0 11L0 13L1 13L1 14L0 14L0 16L3 16L3 17L4 17L4 19L3 19L3 18L1 18L1 19L0 19L0 20L1 20L1 21L0 21L0 26L1 26L1 24L2 24L2 25L3 25L3 26L4 26L4 27L5 27L5 28L4 28L4 30L2 30L2 31L3 31L3 35L2 35L2 33L0 33L0 35L2 35L2 36L1 36L1 37L2 37L2 38L1 38L1 40L0 40L0 41L3 41L3 40L4 40L4 39L2 39L2 38L3 38L3 37L5 37L5 39L7 39L7 40L6 40L6 41L8 41L8 48L9 48L9 49L10 49L10 48L11 48L11 49L12 49L12 48L11 48L11 47L10 47L10 45L11 45L11 46L12 46L12 47L13 47L13 46L14 46L14 48L15 48L15 49L18 49L18 46L21 46L21 48L20 48L20 47L19 47L19 48L20 48L20 49L21 49L21 48L22 48L22 46L23 46L23 45L27 45L27 44L29 44L29 45L28 45L28 46L27 46L27 49L28 49L28 48L29 48L29 49L30 49L30 47L28 47L28 46L31 46L31 47L32 47L32 48L31 48L31 49L32 49L32 48L33 48L33 49L34 49L34 47L37 47L37 48L35 48L35 49L38 49L38 48L39 48L39 49L40 49L40 48L39 48L39 47L40 47L40 46L38 46L38 45L41 45L41 46L43 46L43 47L42 47L42 48L41 48L41 49L42 49L42 48L43 48L43 47L44 47L44 48L45 48L45 49L49 49L49 45L48 45L48 44L46 44L46 46L45 46L45 43L46 43L46 42L45 42L45 41L46 41L46 40L47 40L47 41L48 41L48 40L47 40L47 39L49 39L49 38L47 38L47 36L48 36L48 37L49 37L49 34L47 34L47 36L46 36L46 35L44 35L44 34L42 34L42 33L41 33L41 32L42 32L42 31L44 31L44 30L43 30L43 29L44 29L44 27L45 27L45 25L47 25L47 24L48 24L48 23L49 23L49 22L47 22L47 20L48 20L48 21L49 21L49 18L47 18L47 17L48 17L48 16L47 16L47 17L46 17L46 15L49 15L49 14L46 14L46 13L48 13L48 12L46 12L46 11L47 11L47 10L46 10L46 9L45 9L45 8L43 8L43 9L41 9L41 8L39 8L39 5L38 5L38 3L35 3L35 2L37 2L37 1L38 1L38 2L39 2L39 4L40 4L40 3L41 3L41 0L40 0L40 1L38 1L38 0L35 0L35 1L31 1L31 0L27 0L27 1L26 1L26 2L27 2L27 1L28 1L28 2L29 2L29 5L28 5L28 4L27 4L27 3L25 3L25 0L24 0L24 4L22 4L22 7L21 7L21 5L20 5L20 8L18 8L18 7L19 7L19 6L18 6L18 4L21 4L21 2L22 2L22 3L23 3L23 1L22 1L22 0L21 0L21 1L20 1L20 2L17 2L17 3L16 3L16 1L19 1L19 0L16 0L16 1L15 1L15 0ZM12 1L12 2L11 2L11 3L10 3L10 4L11 4L11 3L12 3L12 4L13 4L13 5L12 5L12 6L13 6L13 7L14 7L14 6L15 6L15 7L16 7L16 6L17 6L17 7L18 7L18 6L17 6L17 5L16 5L16 6L15 6L15 5L14 5L14 4L15 4L15 3L12 3L12 2L13 2L13 1ZM14 1L14 2L15 2L15 1ZM29 1L29 2L30 2L30 4L32 4L32 5L30 5L30 6L29 6L29 7L28 7L28 5L27 5L27 9L23 9L23 10L21 10L21 9L22 9L22 8L20 8L20 10L18 10L18 8L17 8L17 10L16 10L16 9L13 9L13 10L16 10L16 11L14 11L14 12L11 12L11 10L12 10L12 9L11 9L11 10L10 10L10 12L9 12L9 13L6 13L6 12L7 12L7 11L3 11L3 12L2 12L2 11L1 11L1 13L2 13L2 14L1 14L1 15L2 15L2 14L3 14L3 15L4 15L4 14L5 14L5 16L4 16L4 17L6 17L6 18L5 18L5 19L4 19L4 21L3 21L3 19L1 19L1 20L2 20L2 21L1 21L1 23L2 23L2 24L3 24L3 25L4 25L4 24L3 24L3 22L7 22L7 21L6 21L6 20L7 20L7 19L6 19L6 18L7 18L7 17L8 17L8 18L10 18L10 19L9 19L9 20L10 20L10 21L9 21L9 22L10 22L10 23L11 23L11 24L12 24L12 23L11 23L11 20L12 20L12 22L13 22L13 25L9 25L9 31L10 31L10 33L9 33L9 32L8 32L8 30L7 30L7 29L5 29L5 30L4 30L4 32L5 32L5 31L6 31L6 32L7 32L7 33L6 33L6 34L5 34L5 35L3 35L3 36L5 36L5 35L6 35L6 36L7 36L7 37L6 37L6 38L7 38L7 39L8 39L8 41L9 41L9 39L11 39L11 40L10 40L10 42L9 42L9 44L10 44L10 42L11 42L11 43L12 43L12 44L11 44L11 45L12 45L12 46L13 46L13 45L12 45L12 44L14 44L14 45L15 45L15 44L16 44L16 45L18 45L18 44L16 44L16 42L17 42L17 43L18 43L18 42L17 42L17 41L16 41L16 40L17 40L17 38L18 38L18 41L19 41L19 43L20 43L20 44L19 44L19 45L22 45L22 42L21 42L21 41L19 41L19 40L22 40L22 39L23 39L23 40L25 40L25 39L24 39L24 38L26 38L26 37L23 37L23 35L25 35L25 36L26 36L26 35L25 35L25 34L24 34L24 32L22 32L22 31L23 31L23 30L27 30L27 31L26 31L26 32L25 32L25 33L26 33L26 32L28 32L28 33L27 33L27 34L28 34L28 35L29 35L29 36L27 36L27 40L28 40L28 42L27 42L27 43L30 43L30 42L31 42L31 43L33 43L33 44L32 44L32 47L33 47L33 46L35 46L35 44L37 44L37 43L40 43L40 41L39 41L39 42L37 42L37 41L38 41L38 40L37 40L37 39L35 39L35 40L37 40L37 41L35 41L35 42L34 42L34 41L33 41L33 40L34 40L34 39L33 39L33 38L35 38L35 37L36 37L36 36L37 36L37 35L38 35L38 34L39 34L39 36L38 36L38 37L37 37L37 38L39 38L39 36L40 36L40 37L41 37L41 36L43 36L43 37L44 37L44 39L39 39L39 40L46 40L46 39L45 39L45 38L46 38L46 37L44 37L44 36L43 36L43 35L42 35L42 34L39 34L39 33L38 33L38 32L40 32L40 31L41 31L41 30L42 30L42 29L41 29L41 27L40 27L40 26L39 26L39 25L40 25L40 23L38 23L38 22L41 22L41 21L42 21L42 18L43 18L43 14L42 14L42 13L40 13L40 14L42 14L42 16L40 16L40 17L39 17L39 15L38 15L38 14L39 14L39 12L44 12L44 13L46 13L46 12L44 12L44 11L46 11L46 10L45 10L45 9L43 9L43 10L41 10L41 9L39 9L39 8L38 8L38 6L37 6L37 4L33 4L33 3L34 3L34 2L33 2L33 3L32 3L32 2L31 2L31 1ZM17 3L17 4L18 4L18 3ZM10 5L10 6L11 6L11 5ZM13 5L13 6L14 6L14 5ZM23 5L23 8L26 8L26 5ZM33 5L33 6L32 6L32 7L33 7L33 6L34 6L34 8L35 8L35 9L36 9L36 8L37 8L37 6L36 6L36 8L35 8L35 5ZM24 6L24 7L25 7L25 6ZM30 6L30 8L28 8L28 9L30 9L30 10L31 10L31 11L29 11L29 10L28 10L28 11L29 11L29 12L26 12L26 10L25 10L25 11L24 11L24 10L23 10L23 12L22 12L22 11L21 11L21 10L20 10L20 11L21 11L21 13L20 13L20 12L19 12L19 13L18 13L18 10L17 10L17 14L16 14L16 12L15 12L15 14L16 14L16 17L15 17L15 16L13 16L13 17L15 17L15 18L13 18L13 19L16 19L16 20L15 20L15 21L14 21L14 22L15 22L15 23L14 23L14 25L13 25L13 26L12 26L12 27L11 27L11 28L12 28L12 27L14 27L14 25L15 25L15 27L16 27L16 29L17 29L17 30L18 30L18 32L16 32L16 33L15 33L15 34L14 34L14 32L15 32L15 31L14 31L14 30L15 30L15 29L14 29L14 28L13 28L13 29L12 29L12 31L11 31L11 29L10 29L10 31L11 31L11 32L13 32L13 34L10 34L10 36L9 36L9 37L7 37L7 38L12 38L12 37L13 37L13 38L14 38L14 39L13 39L13 43L14 43L14 41L15 41L15 42L16 42L16 41L15 41L15 38L17 38L17 37L15 37L15 38L14 38L14 37L13 37L13 35L17 35L17 34L18 34L18 38L19 38L19 37L22 37L22 35L20 35L20 34L21 34L21 32L20 32L20 33L18 33L18 32L19 32L19 31L22 31L22 29L24 29L24 27L27 27L27 28L26 28L26 29L27 29L27 30L31 30L31 32L30 32L30 31L29 31L29 33L30 33L30 34L29 34L29 35L30 35L30 36L29 36L29 37L30 37L30 38L29 38L29 39L28 39L28 40L30 40L30 38L31 38L31 39L32 39L32 40L31 40L31 42L32 42L32 40L33 40L33 39L32 39L32 38L31 38L31 37L30 37L30 36L33 36L33 37L35 37L35 36L36 36L36 35L37 35L37 34L38 34L38 33L37 33L37 30L38 30L38 31L40 31L40 30L38 30L38 29L40 29L40 28L38 28L38 29L37 29L37 28L36 28L36 26L37 26L37 24L38 24L38 23L37 23L37 21L41 21L41 18L42 18L42 17L40 17L40 18L39 18L39 19L38 19L38 18L37 18L37 17L38 17L38 16L36 16L36 17L35 17L35 19L37 19L37 20L36 20L36 21L35 21L35 22L33 22L33 21L32 21L32 22L31 22L31 20L30 20L30 19L32 19L32 20L34 20L34 19L32 19L32 18L31 18L31 16L34 16L34 15L37 15L37 14L33 14L33 13L35 13L35 12L36 12L36 13L38 13L38 12L36 12L36 10L33 10L33 8L31 8L31 6ZM40 6L40 7L41 7L41 6ZM30 8L30 9L31 9L31 10L32 10L32 9L31 9L31 8ZM48 8L48 9L49 9L49 8ZM37 10L37 11L39 11L39 10ZM43 10L43 11L44 11L44 10ZM48 10L48 11L49 11L49 10ZM31 11L31 12L32 12L32 13L33 13L33 12L32 12L32 11ZM34 11L34 12L35 12L35 11ZM3 12L3 13L5 13L5 12ZM10 12L10 14L6 14L6 15L7 15L7 16L6 16L6 17L7 17L7 16L8 16L8 15L9 15L9 17L11 17L11 19L10 19L10 20L11 20L11 19L12 19L12 16L11 16L11 15L10 15L10 14L11 14L11 12ZM23 12L23 13L24 13L24 14L23 14L23 15L22 15L22 14L21 14L21 17L20 17L20 16L19 16L19 17L20 17L20 22L23 22L23 21L24 21L24 22L25 22L25 21L27 21L27 23L28 23L28 24L27 24L27 25L28 25L28 24L29 24L29 25L30 25L30 24L29 24L29 21L28 21L28 20L29 20L29 18L30 18L30 17L28 17L28 15L29 15L29 16L30 16L30 15L33 15L33 14L30 14L30 13L29 13L29 14L27 14L27 13L26 13L26 12ZM13 13L13 15L14 15L14 13ZM19 13L19 14L20 14L20 13ZM25 13L25 17L23 17L23 16L24 16L24 15L23 15L23 16L22 16L22 17L23 17L23 18L25 18L25 19L26 19L26 20L27 20L27 19L28 19L28 17L27 17L27 18L25 18L25 17L26 17L26 13ZM29 14L29 15L30 15L30 14ZM17 15L17 17L16 17L16 19L17 19L17 18L18 18L18 19L19 19L19 18L18 18L18 15ZM44 16L44 17L45 17L45 16ZM33 17L33 18L34 18L34 17ZM21 18L21 19L22 19L22 20L24 20L24 19L22 19L22 18ZM46 18L46 19L45 19L45 20L44 20L44 21L43 21L43 22L46 22L46 23L45 23L45 24L47 24L47 22L46 22L46 20L47 20L47 18ZM39 19L39 20L40 20L40 19ZM16 20L16 23L17 23L17 24L16 24L16 27L18 27L18 28L17 28L17 29L18 29L18 28L19 28L19 29L20 29L20 30L21 30L21 28L22 28L22 24L21 24L21 23L19 23L19 22L18 22L18 21L19 21L19 20ZM17 22L17 23L18 23L18 22ZM30 22L30 23L31 23L31 24L32 24L32 25L33 25L33 28L32 28L32 27L31 27L31 26L29 26L29 28L27 28L27 29L29 29L29 28L30 28L30 29L31 29L31 28L32 28L32 32L31 32L31 33L32 33L32 34L30 34L30 35L33 35L33 36L35 36L35 35L36 35L36 34L35 34L35 33L36 33L36 32L35 32L35 31L36 31L36 30L35 30L35 27L34 27L34 26L36 26L36 25L34 25L34 23L33 23L33 22L32 22L32 23L31 23L31 22ZM5 23L5 26L8 26L8 23ZM23 23L23 26L26 26L26 23ZM32 23L32 24L33 24L33 23ZM35 23L35 24L37 24L37 23ZM41 23L41 26L44 26L44 23ZM6 24L6 25L7 25L7 24ZM19 24L19 25L20 25L20 26L18 26L18 25L17 25L17 26L18 26L18 27L19 27L19 28L20 28L20 27L21 27L21 24ZM24 24L24 25L25 25L25 24ZM42 24L42 25L43 25L43 24ZM27 26L27 27L28 27L28 26ZM38 26L38 27L39 27L39 26ZM46 26L46 27L48 27L48 28L46 28L46 31L45 31L45 32L43 32L43 33L45 33L45 32L46 32L46 33L47 33L47 32L46 32L46 31L48 31L48 33L49 33L49 30L47 30L47 29L49 29L49 26ZM1 27L1 29L0 29L0 30L1 30L1 29L3 29L3 28L2 28L2 27ZM6 27L6 28L8 28L8 27ZM30 27L30 28L31 28L31 27ZM42 27L42 28L43 28L43 27ZM33 28L33 29L34 29L34 28ZM13 29L13 30L14 30L14 29ZM6 30L6 31L7 31L7 30ZM33 30L33 32L34 32L34 33L35 33L35 32L34 32L34 31L35 31L35 30ZM13 31L13 32L14 32L14 31ZM8 33L8 35L7 35L7 34L6 34L6 35L7 35L7 36L8 36L8 35L9 35L9 33ZM16 33L16 34L17 34L17 33ZM22 33L22 34L23 34L23 33ZM33 34L33 35L35 35L35 34ZM19 35L19 36L20 36L20 35ZM40 35L40 36L41 36L41 35ZM11 36L11 37L12 37L12 36ZM11 40L11 42L12 42L12 40ZM23 41L23 44L26 44L26 41ZM29 41L29 42L30 42L30 41ZM41 41L41 44L44 44L44 41ZM20 42L20 43L21 43L21 42ZM24 42L24 43L25 43L25 42ZM33 42L33 43L34 43L34 44L33 44L33 45L34 45L34 44L35 44L35 43L34 43L34 42ZM36 42L36 43L37 43L37 42ZM42 42L42 43L43 43L43 42ZM47 42L47 43L49 43L49 42ZM43 45L43 46L44 46L44 47L45 47L45 48L48 48L48 47L47 47L47 46L46 46L46 47L45 47L45 46L44 46L44 45ZM24 46L24 47L23 47L23 48L24 48L24 49L25 49L25 48L26 48L26 47L25 47L25 46ZM37 46L37 47L38 47L38 46ZM15 47L15 48L17 48L17 47ZM24 47L24 48L25 48L25 47ZM0 0L0 7L7 7L7 0ZM1 1L1 6L6 6L6 1ZM2 2L2 5L5 5L5 2ZM42 0L42 7L49 7L49 0ZM43 1L43 6L48 6L48 1ZM44 2L44 5L47 5L47 2ZM0 42L0 49L7 49L7 42ZM1 43L1 48L6 48L6 43ZM2 44L2 47L5 47L5 44Z" fill="#000000"/></g></g></svg>
