<?xml version="1.0" encoding="UTF-8"?>
<svg xmlns="http://www.w3.org/2000/svg" version="1.1" width="300" height="300" viewBox="0 0 300 300"><rect x="0" y="0" width="300" height="300" fill="#ffffff"/><g transform="scale(8.108)"><g transform="translate(0,0)"><path fill-rule="evenodd" d="M8 0L8 1L10 1L10 3L11 3L11 4L12 4L12 5L14 5L14 4L15 4L15 5L16 5L16 7L15 7L15 6L14 6L14 7L13 7L13 6L12 6L12 7L11 7L11 6L10 6L10 7L9 7L9 5L10 5L10 4L8 4L8 7L9 7L9 10L10 10L10 12L6 12L6 13L7 13L7 14L6 14L6 15L7 15L7 16L5 16L5 18L4 18L4 19L3 19L3 18L0 18L0 19L1 19L1 21L0 21L0 29L1 29L1 24L2 24L2 25L3 25L3 24L4 24L4 25L5 25L5 28L4 28L4 26L2 26L2 27L3 27L3 29L5 29L5 28L6 28L6 29L8 29L8 36L9 36L9 37L12 37L12 35L14 35L14 33L15 33L15 35L16 35L16 36L17 36L17 37L18 37L18 36L19 36L19 35L16 35L16 34L17 34L17 33L18 33L18 34L19 34L19 33L18 33L18 31L16 31L16 30L19 30L19 29L16 29L16 30L15 30L15 29L14 29L14 28L16 28L16 27L17 27L17 28L18 28L18 27L17 27L17 25L16 25L16 24L15 24L15 27L14 27L14 26L12 26L12 25L9 25L9 26L8 26L8 23L9 23L9 22L10 22L10 23L13 23L13 22L14 22L14 19L17 19L17 20L18 20L18 23L17 23L17 24L18 24L18 23L19 23L19 21L20 21L20 22L22 22L22 21L20 21L20 20L22 20L22 19L23 19L23 17L24 17L24 18L25 18L25 17L26 17L26 16L27 16L27 17L28 17L28 18L27 18L27 19L26 19L26 20L27 20L27 21L26 21L26 22L27 22L27 23L26 23L26 24L27 24L27 25L25 25L25 23L24 23L24 25L22 25L22 27L23 27L23 28L21 28L21 27L20 27L20 26L19 26L19 25L18 25L18 26L19 26L19 28L21 28L21 29L23 29L23 30L22 30L22 31L23 31L23 30L24 30L24 33L25 33L25 34L23 34L23 35L22 35L22 33L23 33L23 32L20 32L20 33L21 33L21 34L20 34L20 35L21 35L21 36L20 36L20 37L22 37L22 36L23 36L23 37L25 37L25 36L26 36L26 37L27 37L27 36L29 36L29 35L27 35L27 33L29 33L29 34L33 34L33 35L31 35L31 36L30 36L30 37L32 37L32 36L34 36L34 37L37 37L37 34L36 34L36 36L34 36L34 34L35 34L35 33L36 33L36 32L37 32L37 30L36 30L36 29L35 29L35 30L36 30L36 31L35 31L35 32L34 32L34 28L35 28L35 26L36 26L36 28L37 28L37 26L36 26L36 24L34 24L34 23L36 23L36 22L37 22L37 18L33 18L33 20L32 20L32 19L31 19L31 18L30 18L30 17L31 17L31 15L30 15L30 13L31 13L31 14L32 14L32 15L33 15L33 16L32 16L32 17L33 17L33 16L34 16L34 17L37 17L37 14L35 14L35 15L36 15L36 16L34 16L34 14L32 14L32 13L33 13L33 12L34 12L34 11L33 11L33 10L34 10L34 9L33 9L33 8L31 8L31 9L30 9L30 11L31 11L31 12L30 12L30 13L29 13L29 15L28 15L28 11L29 11L29 10L28 10L28 9L29 9L29 8L26 8L26 7L27 7L27 6L28 6L28 7L29 7L29 5L26 5L26 4L29 4L29 2L28 2L28 1L29 1L29 0L28 0L28 1L26 1L26 0L25 0L25 1L22 1L22 0L21 0L21 1L20 1L20 3L19 3L19 5L18 5L18 3L16 3L16 1L18 1L18 2L19 2L19 0L16 0L16 1L14 1L14 0L13 0L13 1L14 1L14 4L12 4L12 3L13 3L13 2L11 2L11 1L12 1L12 0L11 0L11 1L10 1L10 0ZM21 1L21 2L22 2L22 1ZM24 2L24 3L25 3L25 4L23 4L23 3L20 3L20 4L23 4L23 5L20 5L20 6L19 6L19 8L20 8L20 6L21 6L21 7L22 7L22 6L23 6L23 7L24 7L24 8L25 8L25 9L24 9L24 10L23 10L23 9L22 9L22 8L21 8L21 9L20 9L20 10L19 10L19 9L18 9L18 8L17 8L17 9L18 9L18 10L19 10L19 12L20 12L20 10L21 10L21 9L22 9L22 11L23 11L23 12L22 12L22 13L25 13L25 14L22 14L22 15L23 15L23 16L22 16L22 17L23 17L23 16L24 16L24 17L25 17L25 16L26 16L26 14L27 14L27 12L26 12L26 11L24 11L24 10L27 10L27 9L26 9L26 8L25 8L25 7L26 7L26 6L25 6L25 7L24 7L24 6L23 6L23 5L25 5L25 4L26 4L26 3L27 3L27 2L26 2L26 3L25 3L25 2ZM15 3L15 4L16 4L16 3ZM17 5L17 7L18 7L18 5ZM14 7L14 8L13 8L13 9L14 9L14 8L15 8L15 9L16 9L16 8L15 8L15 7ZM1 8L1 9L0 9L0 11L1 11L1 12L0 12L0 13L1 13L1 12L2 12L2 13L3 13L3 16L2 16L2 14L0 14L0 15L1 15L1 16L0 16L0 17L4 17L4 15L5 15L5 14L4 14L4 13L5 13L5 12L4 12L4 9L5 9L5 11L7 11L7 10L6 10L6 9L8 9L8 8ZM10 8L10 9L12 9L12 8ZM36 8L36 9L37 9L37 8ZM11 10L11 12L10 12L10 13L8 13L8 14L7 14L7 15L8 15L8 16L9 16L9 15L10 15L10 13L13 13L13 15L12 15L12 16L10 16L10 17L9 17L9 18L10 18L10 17L11 17L11 19L10 19L10 20L11 20L11 21L10 21L10 22L11 22L11 21L12 21L12 22L13 22L13 20L11 20L11 19L14 19L14 18L15 18L15 17L16 17L16 18L17 18L17 19L18 19L18 20L19 20L19 19L18 19L18 18L17 18L17 17L18 17L18 16L19 16L19 14L17 14L17 17L16 17L16 16L15 16L15 15L16 15L16 13L17 13L17 10L16 10L16 11L15 11L15 10L13 10L13 12L12 12L12 10ZM31 10L31 11L32 11L32 10ZM35 10L35 11L36 11L36 12L35 12L35 13L37 13L37 10ZM14 11L14 12L15 12L15 13L14 13L14 14L15 14L15 13L16 13L16 12L15 12L15 11ZM25 12L25 13L26 13L26 12ZM31 12L31 13L32 13L32 12ZM20 13L20 14L21 14L21 13ZM24 15L24 16L25 16L25 15ZM27 15L27 16L28 16L28 17L30 17L30 16L28 16L28 15ZM12 16L12 18L13 18L13 16ZM14 16L14 17L15 17L15 16ZM6 17L6 18L8 18L8 17ZM19 17L19 18L20 18L20 17ZM21 18L21 19L22 19L22 18ZM29 18L29 19L28 19L28 20L29 20L29 21L27 21L27 22L28 22L28 23L27 23L27 24L28 24L28 25L30 25L30 24L28 24L28 23L30 23L30 22L31 22L31 21L32 21L32 22L33 22L33 23L31 23L31 24L32 24L32 25L31 25L31 26L32 26L32 27L30 27L30 26L27 26L27 28L26 28L26 26L25 26L25 25L24 25L24 26L23 26L23 27L24 27L24 28L23 28L23 29L25 29L25 28L26 28L26 29L28 29L28 27L29 27L29 28L34 28L34 27L33 27L33 26L34 26L34 24L33 24L33 23L34 23L34 22L36 22L36 21L34 21L34 20L36 20L36 19L34 19L34 20L33 20L33 21L32 21L32 20L31 20L31 19L30 19L30 18ZM2 19L2 20L3 20L3 21L2 21L2 22L1 22L1 23L3 23L3 22L5 22L5 23L4 23L4 24L7 24L7 23L6 23L6 22L7 22L7 21L6 21L6 20L7 20L7 19L4 19L4 20L3 20L3 19ZM24 19L24 20L25 20L25 19ZM29 19L29 20L30 20L30 21L29 21L29 22L30 22L30 21L31 21L31 20L30 20L30 19ZM4 20L4 21L5 21L5 22L6 22L6 21L5 21L5 20ZM15 20L15 22L16 22L16 20ZM8 21L8 22L9 22L9 21ZM24 21L24 22L25 22L25 21ZM33 21L33 22L34 22L34 21ZM21 23L21 24L20 24L20 25L21 25L21 24L23 24L23 23ZM13 24L13 25L14 25L14 24ZM6 25L6 26L7 26L7 25ZM24 26L24 27L25 27L25 26ZM6 27L6 28L8 28L8 29L9 29L9 28L11 28L11 29L10 29L10 30L9 30L9 31L10 31L10 32L9 32L9 36L11 36L11 35L12 35L12 34L11 34L11 35L10 35L10 32L11 32L11 31L12 31L12 33L14 33L14 32L15 32L15 33L16 33L16 32L15 32L15 31L14 31L14 30L13 30L13 29L12 29L12 27ZM11 29L11 30L10 30L10 31L11 31L11 30L12 30L12 31L13 31L13 30L12 30L12 29ZM29 29L29 32L32 32L32 29ZM25 30L25 32L26 32L26 33L27 33L27 32L28 32L28 30L27 30L27 32L26 32L26 30ZM30 30L30 31L31 31L31 30ZM33 32L33 33L34 33L34 32ZM24 35L24 36L25 36L25 35ZM26 35L26 36L27 36L27 35ZM13 36L13 37L14 37L14 36ZM0 0L0 7L7 7L7 0ZM1 1L1 6L6 6L6 1ZM2 2L2 5L5 5L5 2ZM30 0L30 7L37 7L37 0ZM31 1L31 6L36 6L36 1ZM32 2L32 5L35 5L35 2ZM0 30L0 37L7 37L7 30ZM1 31L1 36L6 36L6 31ZM2 32L2 35L5 35L5 32Z" fill="#000000"/></g></g></svg>
