<?xml version="1.0" encoding="UTF-8"?>
<svg xmlns="http://www.w3.org/2000/svg" version="1.1" width="300" height="300" viewBox="0 0 300 300"><rect x="0" y="0" width="300" height="300" fill="#ffffff"/><g transform="scale(6.122)"><g transform="translate(0,0)"><path fill-rule="evenodd" d="M8 0L8 1L9 1L9 3L10 3L10 4L8 4L8 7L9 7L9 6L10 6L10 7L11 7L11 6L12 6L12 7L13 7L13 8L11 8L11 9L12 9L12 10L10 10L10 9L9 9L9 10L8 10L8 8L1 8L1 9L0 9L0 10L1 10L1 9L2 9L2 10L3 10L3 15L1 15L1 14L2 14L2 13L1 13L1 12L0 12L0 13L1 13L1 14L0 14L0 16L3 16L3 17L5 17L5 18L6 18L6 19L7 19L7 20L6 20L6 21L7 21L7 22L3 22L3 24L2 24L2 23L1 23L1 21L2 21L2 20L1 20L1 19L3 19L3 21L4 21L4 19L3 19L3 18L1 18L1 19L0 19L0 20L1 20L1 21L0 21L0 28L1 28L1 29L0 29L0 30L1 30L1 29L2 29L2 30L3 30L3 29L4 29L4 30L5 30L5 29L8 29L8 30L6 30L6 31L5 31L5 32L4 32L4 31L2 31L2 32L1 32L1 31L0 31L0 32L1 32L1 33L2 33L2 34L1 34L1 37L2 37L2 38L1 38L1 40L0 40L0 41L3 41L3 40L4 40L4 39L2 39L2 38L4 38L4 37L2 37L2 36L3 36L3 33L4 33L4 35L5 35L5 36L6 36L6 37L7 37L7 38L5 38L5 39L7 39L7 38L8 38L8 40L6 40L6 41L8 41L8 48L9 48L9 49L10 49L10 48L11 48L11 49L12 49L12 47L13 47L13 46L14 46L14 48L15 48L15 49L18 49L18 46L19 46L19 47L20 47L20 45L19 45L19 41L20 41L20 38L21 38L21 37L22 37L22 36L23 36L23 38L24 38L24 40L23 40L23 39L22 39L22 40L21 40L21 42L22 42L22 45L21 45L21 48L20 48L20 49L21 49L21 48L22 48L22 46L23 46L23 45L27 45L27 44L29 44L29 45L28 45L28 46L27 46L27 49L28 49L28 48L29 48L29 49L30 49L30 47L28 47L28 46L31 46L31 47L32 47L32 48L31 48L31 49L32 49L32 48L33 48L33 49L34 49L34 47L37 47L37 48L35 48L35 49L38 49L38 48L39 48L39 49L40 49L40 48L39 48L39 47L40 47L40 46L38 46L38 45L44 45L44 46L42 46L42 48L41 48L41 49L42 49L42 48L43 48L43 47L44 47L44 48L45 48L45 49L49 49L49 45L48 45L48 44L46 44L46 46L45 46L45 43L46 43L46 42L45 42L45 41L46 41L46 40L47 40L47 41L48 41L48 40L47 40L47 39L49 39L49 38L47 38L47 36L48 36L48 37L49 37L49 34L46 34L46 33L49 33L49 32L46 32L46 31L47 31L47 30L48 30L48 31L49 31L49 30L48 30L48 29L49 29L49 28L48 28L48 29L47 29L47 28L46 28L46 31L45 31L45 32L44 32L44 33L43 33L43 34L42 34L42 33L41 33L41 32L42 32L42 31L44 31L44 30L43 30L43 29L44 29L44 27L45 27L45 25L47 25L47 24L48 24L48 23L49 23L49 22L47 22L47 20L48 20L48 21L49 21L49 18L47 18L47 17L48 17L48 16L47 16L47 17L46 17L46 15L49 15L49 14L46 14L46 13L48 13L48 12L45 12L45 11L44 11L44 10L46 10L46 11L47 11L47 10L46 10L46 9L45 9L45 8L43 8L43 9L42 9L42 10L41 10L41 11L42 11L42 12L38 12L38 13L39 13L39 14L38 14L38 15L39 15L39 17L40 17L40 18L39 18L39 19L38 19L38 18L35 18L35 19L37 19L37 20L36 20L36 21L35 21L35 22L33 22L33 21L32 21L32 22L31 22L31 20L30 20L30 19L31 19L31 18L34 18L34 17L31 17L31 16L34 16L34 15L35 15L35 14L36 14L36 15L37 15L37 12L36 12L36 10L34 10L34 9L33 9L33 8L31 8L31 6L30 6L30 5L32 5L32 4L30 4L30 2L29 2L29 6L28 6L28 7L27 7L27 4L28 4L28 2L27 2L27 3L25 3L25 2L26 2L26 1L27 1L27 0L23 0L23 2L21 2L21 1L22 1L22 0L21 0L21 1L20 1L20 2L19 2L19 4L17 4L17 3L18 3L18 2L17 2L17 3L16 3L16 1L19 1L19 0L16 0L16 1L15 1L15 0ZM28 0L28 1L31 1L31 2L32 2L32 3L33 3L33 4L37 4L37 6L36 6L36 8L35 8L35 5L33 5L33 6L32 6L32 7L33 7L33 6L34 6L34 8L35 8L35 9L36 9L36 8L37 8L37 9L41 9L41 8L37 8L37 6L38 6L38 7L39 7L39 5L38 5L38 3L35 3L35 2L37 2L37 1L38 1L38 2L39 2L39 4L40 4L40 3L41 3L41 0L40 0L40 1L38 1L38 0L35 0L35 1L31 1L31 0ZM10 1L10 2L11 2L11 3L12 3L12 4L13 4L13 5L12 5L12 6L13 6L13 7L14 7L14 9L15 9L15 10L14 10L14 11L13 11L13 12L14 12L14 15L13 15L13 14L12 14L12 12L11 12L11 11L10 11L10 12L9 12L9 11L8 11L8 10L7 10L7 9L5 9L5 10L4 10L4 14L9 14L9 13L10 13L10 15L11 15L11 14L12 14L12 17L9 17L9 15L8 15L8 16L7 16L7 15L6 15L6 16L7 16L7 17L6 17L6 18L7 18L7 17L8 17L8 18L10 18L10 19L9 19L9 20L10 20L10 21L9 21L9 22L10 22L10 23L11 23L11 24L13 24L13 25L9 25L9 28L10 28L10 30L11 30L11 31L9 31L9 32L8 32L8 31L6 31L6 32L7 32L7 33L6 33L6 34L5 34L5 35L6 35L6 36L7 36L7 37L8 37L8 38L9 38L9 39L11 39L11 40L10 40L10 42L9 42L9 44L10 44L10 42L11 42L11 40L13 40L13 39L14 39L14 38L16 38L16 37L17 37L17 38L18 38L18 41L19 41L19 38L18 38L18 37L17 37L17 36L18 36L18 35L19 35L19 36L20 36L20 37L21 37L21 36L20 36L20 35L23 35L23 34L24 34L24 33L23 33L23 32L25 32L25 31L26 31L26 29L29 29L29 28L30 28L30 29L31 29L31 28L32 28L32 32L31 32L31 30L27 30L27 32L26 32L26 33L25 33L25 34L26 34L26 33L27 33L27 34L28 34L28 35L26 35L26 36L28 36L28 37L29 37L29 38L27 38L27 39L29 39L29 38L30 38L30 40L27 40L27 41L28 41L28 42L27 42L27 43L30 43L30 42L31 42L31 43L33 43L33 44L32 44L32 47L33 47L33 46L35 46L35 44L37 44L37 43L40 43L40 41L39 41L39 42L37 42L37 43L36 43L36 40L37 40L37 41L38 41L38 40L37 40L37 39L36 39L36 40L35 40L35 42L34 42L34 41L33 41L33 40L34 40L34 38L36 38L36 37L35 37L35 36L37 36L37 35L36 35L36 34L35 34L35 33L36 33L36 32L35 32L35 31L36 31L36 30L35 30L35 27L34 27L34 26L36 26L36 28L37 28L37 29L38 29L38 30L37 30L37 31L38 31L38 32L40 32L40 31L41 31L41 30L42 30L42 29L38 29L38 28L41 28L41 27L40 27L40 25L39 25L39 23L40 23L40 22L41 22L41 21L42 21L42 18L43 18L43 14L42 14L42 13L40 13L40 14L42 14L42 16L40 16L40 17L42 17L42 18L41 18L41 21L37 21L37 23L35 23L35 24L37 24L37 26L36 26L36 25L34 25L34 23L33 23L33 22L32 22L32 23L31 23L31 22L30 22L30 23L31 23L31 24L32 24L32 25L33 25L33 28L32 28L32 27L31 27L31 26L29 26L29 28L26 28L26 27L24 27L24 29L21 29L21 27L20 27L20 28L17 28L17 29L16 29L16 27L17 27L17 25L18 25L18 27L19 27L19 26L20 26L20 25L19 25L19 24L20 24L20 22L21 22L21 24L22 24L22 21L24 21L24 22L25 22L25 18L27 18L27 17L28 17L28 19L26 19L26 21L27 21L27 23L28 23L28 24L27 24L27 25L28 25L28 24L29 24L29 25L30 25L30 24L29 24L29 21L28 21L28 20L29 20L29 18L30 18L30 17L28 17L28 15L29 15L29 16L30 16L30 15L33 15L33 14L35 14L35 13L36 13L36 12L35 12L35 11L34 11L34 10L33 10L33 12L31 12L31 13L33 13L33 14L27 14L27 13L26 13L26 12L29 12L29 13L30 13L30 12L29 12L29 11L31 11L31 10L32 10L32 9L31 9L31 8L29 8L29 9L28 9L28 10L27 10L27 9L25 9L25 10L26 10L26 12L23 12L23 10L24 10L24 9L23 9L23 10L21 10L21 9L22 9L22 8L20 8L20 5L22 5L22 4L19 4L19 5L18 5L18 6L17 6L17 5L16 5L16 6L15 6L15 7L14 7L14 4L15 4L15 3L12 3L12 2L15 2L15 1L12 1L12 2L11 2L11 1ZM24 1L24 2L23 2L23 3L24 3L24 2L25 2L25 1ZM33 2L33 3L34 3L34 2ZM10 4L10 6L11 6L11 4ZM23 5L23 8L26 8L26 5ZM16 6L16 7L15 7L15 9L16 9L16 10L15 10L15 11L16 11L16 10L17 10L17 11L18 11L18 9L17 9L17 8L18 8L18 7L19 7L19 6L18 6L18 7L17 7L17 6ZM21 6L21 7L22 7L22 6ZM24 6L24 7L25 7L25 6ZM29 6L29 7L30 7L30 6ZM40 6L40 7L41 7L41 6ZM19 8L19 10L20 10L20 11L21 11L21 14L20 14L20 15L19 15L19 14L17 14L17 13L18 13L18 12L15 12L15 13L16 13L16 14L15 14L15 16L13 16L13 17L12 17L12 19L10 19L10 20L12 20L12 21L11 21L11 23L12 23L12 21L13 21L13 19L16 19L16 20L15 20L15 21L14 21L14 22L15 22L15 23L14 23L14 25L13 25L13 26L12 26L12 27L11 27L11 26L10 26L10 28L12 28L12 27L13 27L13 26L14 26L14 29L12 29L12 31L11 31L11 32L10 32L10 33L8 33L8 34L6 34L6 35L7 35L7 36L8 36L8 34L10 34L10 33L11 33L11 32L13 32L13 33L15 33L15 35L14 35L14 34L11 34L11 36L10 36L10 35L9 35L9 36L10 36L10 37L11 37L11 39L13 39L13 38L14 38L14 37L16 37L16 36L15 36L15 35L17 35L17 34L18 34L18 33L17 33L17 32L16 32L16 33L15 33L15 31L14 31L14 32L13 32L13 30L15 30L15 27L16 27L16 24L17 24L17 23L18 23L18 22L19 22L19 21L18 21L18 22L17 22L17 23L16 23L16 22L15 22L15 21L16 21L16 20L20 20L20 19L22 19L22 20L24 20L24 19L22 19L22 18L21 18L21 14L22 14L22 15L23 15L23 16L22 16L22 17L23 17L23 18L25 18L25 17L26 17L26 13L25 13L25 17L23 17L23 16L24 16L24 15L23 15L23 14L24 14L24 13L23 13L23 12L22 12L22 11L21 11L21 10L20 10L20 8ZM48 8L48 9L49 9L49 8ZM30 9L30 10L31 10L31 9ZM6 10L6 11L5 11L5 13L9 13L9 12L8 12L8 11L7 11L7 10ZM37 10L37 11L39 11L39 10ZM42 10L42 11L43 11L43 12L44 12L44 13L45 13L45 12L44 12L44 11L43 11L43 10ZM48 10L48 11L49 11L49 10ZM6 11L6 12L7 12L7 11ZM10 12L10 13L11 13L11 12ZM19 12L19 13L20 13L20 12ZM33 12L33 13L34 13L34 12ZM16 14L16 15L17 15L17 16L16 16L16 17L13 17L13 18L16 18L16 19L17 19L17 18L18 18L18 19L19 19L19 18L20 18L20 17L19 17L19 18L18 18L18 15L17 15L17 14ZM3 15L3 16L5 16L5 15ZM36 16L36 17L38 17L38 16ZM44 16L44 17L45 17L45 16ZM16 17L16 18L17 18L17 17ZM46 18L46 19L45 19L45 20L44 20L44 21L43 21L43 22L46 22L46 23L45 23L45 24L47 24L47 22L46 22L46 20L47 20L47 18ZM32 19L32 20L34 20L34 19ZM39 19L39 20L40 20L40 19ZM38 22L38 23L37 23L37 24L38 24L38 23L39 23L39 22ZM5 23L5 26L8 26L8 23ZM23 23L23 26L26 26L26 23ZM32 23L32 24L33 24L33 23ZM41 23L41 26L44 26L44 23ZM1 24L1 27L2 27L2 28L5 28L5 27L4 27L4 26L3 26L3 25L4 25L4 24L3 24L3 25L2 25L2 24ZM6 24L6 25L7 25L7 24ZM24 24L24 25L25 25L25 24ZM42 24L42 25L43 25L43 24ZM14 25L14 26L15 26L15 25ZM27 26L27 27L28 27L28 26ZM38 26L38 27L39 27L39 26ZM46 26L46 27L49 27L49 26ZM6 27L6 28L8 28L8 27ZM22 27L22 28L23 28L23 27ZM30 27L30 28L31 28L31 27ZM42 27L42 28L43 28L43 27ZM33 28L33 29L34 29L34 28ZM19 29L19 30L18 30L18 32L19 32L19 31L21 31L21 30L20 30L20 29ZM22 30L22 32L23 32L23 30ZM24 30L24 31L25 31L25 30ZM33 30L33 33L35 33L35 32L34 32L34 31L35 31L35 30ZM38 30L38 31L40 31L40 30ZM29 31L29 33L30 33L30 34L29 34L29 35L28 35L28 36L30 36L30 38L31 38L31 39L32 39L32 40L31 40L31 42L33 42L33 43L34 43L34 44L33 44L33 45L34 45L34 44L35 44L35 43L34 43L34 42L33 42L33 41L32 41L32 40L33 40L33 39L32 39L32 38L34 38L34 36L33 36L33 35L35 35L35 34L33 34L33 35L32 35L32 36L31 36L31 35L30 35L30 34L32 34L32 33L31 33L31 32L30 32L30 31ZM2 32L2 33L3 33L3 32ZM20 32L20 33L19 33L19 35L20 35L20 34L22 34L22 33L21 33L21 32ZM27 32L27 33L28 33L28 32ZM45 32L45 33L44 33L44 35L46 35L46 36L47 36L47 35L46 35L46 34L45 34L45 33L46 33L46 32ZM16 33L16 34L17 34L17 33ZM37 33L37 34L39 34L39 36L38 36L38 37L37 37L37 38L39 38L39 36L40 36L40 37L41 37L41 39L39 39L39 40L41 40L41 39L42 39L42 40L46 40L46 39L45 39L45 38L46 38L46 37L42 37L42 36L43 36L43 35L42 35L42 34L39 34L39 33ZM13 35L13 36L11 36L11 37L13 37L13 36L14 36L14 35ZM24 35L24 37L25 37L25 38L26 38L26 37L25 37L25 35ZM40 35L40 36L41 36L41 35ZM32 36L32 37L33 37L33 36ZM42 38L42 39L44 39L44 38ZM15 39L15 40L17 40L17 39ZM8 40L8 41L9 41L9 40ZM12 41L12 43L11 43L11 45L10 45L10 47L12 47L12 46L13 46L13 44L14 44L14 45L15 45L15 41L14 41L14 43L13 43L13 41ZM16 41L16 42L17 42L17 43L18 43L18 42L17 42L17 41ZM23 41L23 44L26 44L26 41ZM29 41L29 42L30 42L30 41ZM41 41L41 44L44 44L44 41ZM24 42L24 43L25 43L25 42ZM42 42L42 43L43 43L43 42ZM47 42L47 43L49 43L49 42ZM16 44L16 45L18 45L18 44ZM11 45L11 46L12 46L12 45ZM16 46L16 47L15 47L15 48L17 48L17 46ZM24 46L24 47L23 47L23 48L24 48L24 49L25 49L25 48L26 48L26 47L25 47L25 46ZM37 46L37 47L38 47L38 46ZM44 46L44 47L45 47L45 48L48 48L48 47L47 47L47 46L46 46L46 47L45 47L45 46ZM24 47L24 48L25 48L25 47ZM0 0L0 7L7 7L7 0ZM1 1L1 6L6 6L6 1ZM2 2L2 5L5 5L5 2ZM42 0L42 7L49 7L49 0ZM43 1L43 6L48 6L48 1ZM44 2L44 5L47 5L47 2ZM0 42L0 49L7 49L7 42ZM1 43L1 48L6 48L6 43ZM2 44L2 47L5 47L5 44Z" fill="#000000"/></g></g></svg>
