<?xml version="1.0" encoding="UTF-8"?>
<svg xmlns="http://www.w3.org/2000/svg" version="1.1" width="300" height="300" viewBox="0 0 300 300"><rect x="0" y="0" width="300" height="300" fill="#ffffff"/><g transform="scale(8.108)"><g transform="translate(0,0)"><path fill-rule="evenodd" d="M9 0L9 1L8 1L8 3L9 3L9 6L8 6L8 7L9 7L9 6L10 6L10 7L11 7L11 8L12 8L12 7L13 7L13 9L12 9L12 10L13 10L13 11L14 11L14 12L15 12L15 13L14 13L14 15L10 15L10 13L11 13L11 14L13 14L13 12L12 12L12 11L11 11L11 12L8 12L8 11L9 11L9 10L11 10L11 9L10 9L10 8L9 8L9 9L7 9L7 8L5 8L5 9L7 9L7 10L4 10L4 8L1 8L1 10L0 10L0 11L1 11L1 10L4 10L4 11L7 11L7 12L3 12L3 11L2 11L2 13L1 13L1 12L0 12L0 14L2 14L2 13L7 13L7 14L6 14L6 15L8 15L8 13L9 13L9 16L13 16L13 17L15 17L15 16L14 16L14 15L15 15L15 13L16 13L16 16L17 16L17 17L16 17L16 18L13 18L13 19L14 19L14 21L13 21L13 22L11 22L11 18L9 18L9 17L8 17L8 16L6 16L6 17L5 17L5 19L4 19L4 18L3 18L3 19L2 19L2 18L0 18L0 22L1 22L1 21L2 21L2 20L5 20L5 19L7 19L7 20L6 20L6 21L7 21L7 22L6 22L6 23L7 23L7 24L6 24L6 25L5 25L5 26L6 26L6 27L7 27L7 26L6 26L6 25L8 25L8 24L9 24L9 26L8 26L8 27L9 27L9 26L10 26L10 27L11 27L11 28L10 28L10 29L11 29L11 30L10 30L10 31L11 31L11 32L12 32L12 33L10 33L10 32L9 32L9 31L8 31L8 32L9 32L9 33L8 33L8 36L10 36L10 37L14 37L14 36L15 36L15 35L17 35L17 36L16 36L16 37L17 37L17 36L18 36L18 37L19 37L19 36L20 36L20 37L22 37L22 36L20 36L20 35L19 35L19 33L21 33L21 34L22 34L22 33L21 33L21 32L22 32L22 31L23 31L23 32L25 32L25 29L26 29L26 28L27 28L27 30L26 30L26 31L27 31L27 30L28 30L28 33L25 33L25 35L23 35L23 37L25 37L25 35L26 35L26 34L28 34L28 33L29 33L29 35L31 35L31 34L32 34L32 35L33 35L33 34L34 34L34 32L33 32L33 30L36 30L36 31L37 31L37 29L33 29L33 28L31 28L31 27L29 27L29 25L28 25L28 24L27 24L27 21L26 21L26 20L24 20L24 19L23 19L23 20L20 20L20 19L21 19L21 17L19 17L19 18L18 18L18 16L17 16L17 13L18 13L18 15L20 15L20 14L21 14L21 13L22 13L22 15L21 15L21 16L23 16L23 17L25 17L25 18L26 18L26 17L27 17L27 20L28 20L28 23L29 23L29 24L30 24L30 25L32 25L32 26L35 26L35 25L36 25L36 26L37 26L37 25L36 25L36 24L37 24L37 21L36 21L36 19L37 19L37 17L36 17L36 18L35 18L35 16L34 16L34 18L33 18L33 19L32 19L32 17L30 17L30 18L31 18L31 19L32 19L32 20L31 20L31 23L32 23L32 21L33 21L33 22L35 22L35 21L36 21L36 24L35 24L35 23L34 23L34 25L32 25L32 24L30 24L30 21L29 21L29 20L30 20L30 19L28 19L28 18L29 18L29 16L32 16L32 15L34 15L34 14L33 14L33 11L34 11L34 12L35 12L35 15L36 15L36 16L37 16L37 15L36 15L36 14L37 14L37 12L35 12L35 11L36 11L36 8L34 8L34 9L30 9L30 10L33 10L33 11L32 11L32 12L30 12L30 14L28 14L28 15L27 15L27 13L28 13L28 12L29 12L29 10L28 10L28 9L27 9L27 8L29 8L29 5L28 5L28 4L29 4L29 2L28 2L28 3L26 3L26 4L25 4L25 2L26 2L26 0L25 0L25 2L23 2L23 1L22 1L22 0L21 0L21 2L19 2L19 0L17 0L17 1L18 1L18 2L17 2L17 3L16 3L16 2L13 2L13 1L12 1L12 0L11 0L11 1L10 1L10 0ZM14 0L14 1L15 1L15 0ZM28 0L28 1L29 1L29 0ZM9 1L9 2L10 2L10 3L11 3L11 2L10 2L10 1ZM12 2L12 3L13 3L13 4L11 4L11 5L10 5L10 6L11 6L11 7L12 7L12 6L11 6L11 5L13 5L13 4L14 4L14 3L13 3L13 2ZM21 2L21 4L20 4L20 5L21 5L21 7L20 7L20 6L19 6L19 4L18 4L18 3L17 3L17 4L18 4L18 6L17 6L17 5L16 5L16 6L15 6L15 5L14 5L14 6L13 6L13 7L14 7L14 6L15 6L15 7L16 7L16 6L17 6L17 7L18 7L18 9L17 9L17 8L16 8L16 9L17 9L17 10L14 10L14 9L13 9L13 10L14 10L14 11L17 11L17 12L16 12L16 13L17 13L17 12L18 12L18 13L19 13L19 11L18 11L18 10L19 10L19 9L21 9L21 8L24 8L24 6L25 6L25 7L26 7L26 5L24 5L24 6L23 6L23 7L22 7L22 5L23 5L23 4L22 4L22 2ZM27 5L27 7L28 7L28 5ZM18 6L18 7L19 7L19 8L20 8L20 7L19 7L19 6ZM25 9L25 10L24 10L24 12L23 12L23 10L20 10L20 12L22 12L22 13L23 13L23 15L24 15L24 12L25 12L25 11L26 11L26 10L27 10L27 12L26 12L26 13L25 13L25 16L27 16L27 17L28 17L28 16L27 16L27 15L26 15L26 13L27 13L27 12L28 12L28 10L27 10L27 9ZM34 9L34 11L35 11L35 9ZM7 12L7 13L8 13L8 12ZM11 12L11 13L12 13L12 12ZM31 13L31 14L32 14L32 13ZM0 15L0 16L1 16L1 15ZM2 15L2 16L4 16L4 15ZM6 17L6 18L7 18L7 17ZM8 19L8 20L7 20L7 21L8 21L8 20L9 20L9 21L10 21L10 20L9 20L9 19ZM33 19L33 20L34 20L34 21L35 21L35 19ZM16 20L16 22L15 22L15 23L14 23L14 22L13 22L13 23L11 23L11 22L10 22L10 23L9 23L9 24L10 24L10 25L11 25L11 24L13 24L13 23L14 23L14 25L13 25L13 26L12 26L12 29L13 29L13 30L14 30L14 32L15 32L15 30L16 30L16 29L18 29L18 30L17 30L17 31L16 31L16 33L15 33L15 34L16 34L16 33L17 33L17 35L18 35L18 36L19 36L19 35L18 35L18 33L17 33L17 32L18 32L18 31L19 31L19 32L20 32L20 31L22 31L22 30L21 30L21 29L22 29L22 28L24 28L24 29L25 29L25 28L26 28L26 27L24 27L24 26L25 26L25 25L26 25L26 26L28 26L28 25L27 25L27 24L25 24L25 23L26 23L26 21L25 21L25 23L23 23L23 22L24 22L24 20L23 20L23 21L21 21L21 22L20 22L20 20L19 20L19 23L20 23L20 24L19 24L19 25L18 25L18 23L17 23L17 22L18 22L18 21L17 21L17 20ZM3 21L3 23L2 23L2 26L1 26L1 27L0 27L0 28L1 28L1 27L3 27L3 28L2 28L2 29L3 29L3 28L4 28L4 29L5 29L5 27L3 27L3 26L4 26L4 25L3 25L3 24L4 24L4 21ZM22 23L22 25L21 25L21 24L20 24L20 27L19 27L19 26L18 26L18 25L16 25L16 26L18 26L18 27L19 27L19 30L20 30L20 28L21 28L21 27L22 27L22 25L23 25L23 23ZM0 24L0 25L1 25L1 24ZM14 25L14 26L13 26L13 28L14 28L14 30L15 30L15 29L16 29L16 27L15 27L15 25ZM27 27L27 28L28 28L28 27ZM34 27L34 28L37 28L37 27ZM6 28L6 29L8 29L8 30L9 30L9 29L8 29L8 28ZM29 29L29 32L32 32L32 29ZM11 30L11 31L12 31L12 30ZM23 30L23 31L24 31L24 30ZM30 30L30 31L31 31L31 30ZM35 32L35 33L37 33L37 32ZM13 33L13 34L12 34L12 35L13 35L13 34L14 34L14 33ZM9 34L9 35L10 35L10 34ZM35 34L35 35L34 35L34 37L37 37L37 36L35 36L35 35L36 35L36 34ZM26 36L26 37L27 37L27 36ZM29 36L29 37L31 37L31 36ZM32 36L32 37L33 37L33 36ZM0 0L0 7L7 7L7 0ZM1 1L1 6L6 6L6 1ZM2 2L2 5L5 5L5 2ZM30 0L30 7L37 7L37 0ZM31 1L31 6L36 6L36 1ZM32 2L32 5L35 5L35 2ZM0 30L0 37L7 37L7 30ZM1 31L1 36L6 36L6 31ZM2 32L2 35L5 35L5 32Z" fill="#000000"/></g></g></svg>
