<?xml version="1.0" encoding="UTF-8"?>
<svg xmlns="http://www.w3.org/2000/svg" version="1.1" width="300" height="300" viewBox="0 0 300 300"><rect x="0" y="0" width="300" height="300" fill="#ffffff"/><g transform="scale(8.108)"><g transform="translate(0,0)"><path fill-rule="evenodd" d="M8 0L8 1L9 1L9 2L8 2L8 4L9 4L9 2L10 2L10 3L11 3L11 2L12 2L12 3L13 3L13 2L14 2L14 3L15 3L15 2L17 2L17 4L18 4L18 3L19 3L19 0L18 0L18 1L17 1L17 0L16 0L16 1L15 1L15 2L14 2L14 1L12 1L12 0L10 0L10 1L9 1L9 0ZM20 0L20 5L21 5L21 2L22 2L22 3L23 3L23 2L22 2L22 1L23 1L23 0L22 0L22 1L21 1L21 0ZM25 0L25 4L26 4L26 5L27 5L27 6L26 6L26 7L25 7L25 6L24 6L24 5L23 5L23 4L22 4L22 5L23 5L23 6L22 6L22 7L21 7L21 6L20 6L20 8L19 8L19 9L18 9L18 8L17 8L17 6L18 6L18 7L19 7L19 5L17 5L17 6L16 6L16 4L14 4L14 5L12 5L12 4L11 4L11 5L10 5L10 7L9 7L9 5L8 5L8 8L5 8L5 9L4 9L4 8L3 8L3 9L2 9L2 8L1 8L1 9L0 9L0 10L1 10L1 11L0 11L0 16L1 16L1 17L0 17L0 18L1 18L1 19L2 19L2 18L1 18L1 17L2 17L2 16L1 16L1 15L4 15L4 14L5 14L5 17L3 17L3 18L4 18L4 19L3 19L3 20L0 20L0 21L1 21L1 22L0 22L0 23L2 23L2 24L3 24L3 25L5 25L5 26L6 26L6 27L7 27L7 26L6 26L6 25L8 25L8 26L9 26L9 25L10 25L10 26L12 26L12 27L11 27L11 28L12 28L12 29L11 29L11 30L15 30L15 31L10 31L10 27L9 27L9 28L8 28L8 32L9 32L9 33L8 33L8 34L9 34L9 33L10 33L10 35L8 35L8 36L9 36L9 37L10 37L10 35L11 35L11 37L12 37L12 36L13 36L13 37L14 37L14 36L15 36L15 37L17 37L17 36L18 36L18 34L16 34L16 32L17 32L17 30L18 30L18 28L17 28L17 29L16 29L16 27L15 27L15 26L16 26L16 25L17 25L17 27L18 27L18 26L19 26L19 28L20 28L20 27L22 27L22 26L19 26L19 25L20 25L20 22L21 22L21 25L23 25L23 24L22 24L22 21L23 21L23 22L24 22L24 19L23 19L23 17L21 17L21 19L20 19L20 17L19 17L19 15L21 15L21 16L26 16L26 17L25 17L25 18L26 18L26 20L27 20L27 16L28 16L28 15L27 15L27 14L31 14L31 16L30 16L30 17L28 17L28 18L29 18L29 19L28 19L28 23L27 23L27 21L25 21L25 24L26 24L26 25L25 25L25 26L23 26L23 28L22 28L22 29L23 29L23 30L24 30L24 32L23 32L23 31L22 31L22 30L21 30L21 29L20 29L20 30L21 30L21 31L20 31L20 33L19 33L19 36L22 36L22 37L25 37L25 33L26 33L26 34L29 34L29 35L28 35L28 37L29 37L29 35L30 35L30 37L33 37L33 34L36 34L36 35L37 35L37 33L33 33L33 28L32 28L32 26L28 26L28 25L29 25L29 24L30 24L30 25L34 25L34 23L36 23L36 24L35 24L35 25L36 25L36 26L35 26L35 27L34 27L34 28L35 28L35 30L34 30L34 32L35 32L35 30L36 30L36 31L37 31L37 28L35 28L35 27L37 27L37 25L36 25L36 24L37 24L37 23L36 23L36 21L37 21L37 20L36 20L36 19L37 19L37 16L36 16L36 15L37 15L37 13L36 13L36 14L35 14L35 12L36 12L36 11L37 11L37 8L36 8L36 11L35 11L35 12L34 12L34 9L35 9L35 8L33 8L33 9L32 9L32 8L29 8L29 10L28 10L28 9L27 9L27 8L28 8L28 7L29 7L29 6L28 6L28 4L29 4L29 2L28 2L28 1L29 1L29 0L27 0L27 1L26 1L26 0ZM10 1L10 2L11 2L11 1ZM26 2L26 3L27 3L27 2ZM11 6L11 7L10 7L10 8L9 8L9 9L11 9L11 11L10 11L10 12L11 12L11 11L12 11L12 13L14 13L14 14L12 14L12 16L9 16L9 14L10 14L10 15L11 15L11 14L10 14L10 13L6 13L6 14L7 14L7 15L6 15L6 16L7 16L7 17L6 17L6 18L7 18L7 17L8 17L8 19L10 19L10 20L9 20L9 21L6 21L6 20L7 20L7 19L6 19L6 20L5 20L5 19L4 19L4 20L5 20L5 21L6 21L6 22L5 22L5 23L6 23L6 24L5 24L5 25L6 25L6 24L9 24L9 21L10 21L10 22L11 22L11 23L10 23L10 25L12 25L12 24L13 24L13 23L12 23L12 22L14 22L14 20L13 20L13 19L14 19L14 17L12 17L12 16L14 16L14 15L17 15L17 14L18 14L18 15L19 15L19 14L21 14L21 15L22 15L22 14L24 14L24 15L26 15L26 14L27 14L27 13L28 13L28 12L30 12L30 10L32 10L32 11L31 11L31 12L32 12L32 13L31 13L31 14L34 14L34 13L33 13L33 10L32 10L32 9L30 9L30 10L29 10L29 11L28 11L28 10L27 10L27 9L26 9L26 8L27 8L27 7L28 7L28 6L27 6L27 7L26 7L26 8L25 8L25 9L26 9L26 12L27 12L27 13L25 13L25 12L24 12L24 11L25 11L25 10L24 10L24 6L23 6L23 10L21 10L21 8L20 8L20 9L19 9L19 10L18 10L18 9L17 9L17 8L16 8L16 6L15 6L15 7L14 7L14 6L13 6L13 7L12 7L12 6ZM13 7L13 8L12 8L12 10L13 10L13 8L14 8L14 10L17 10L17 9L15 9L15 8L14 8L14 7ZM1 9L1 10L2 10L2 11L1 11L1 13L3 13L3 14L4 14L4 13L5 13L5 12L7 12L7 11L8 11L8 12L9 12L9 10L8 10L8 9L5 9L5 10L2 10L2 9ZM6 10L6 11L7 11L7 10ZM19 10L19 11L17 11L17 13L18 13L18 14L19 14L19 13L21 13L21 14L22 14L22 13L23 13L23 11L21 11L21 10ZM3 11L3 13L4 13L4 12L5 12L5 11ZM13 11L13 12L14 12L14 13L15 13L15 14L16 14L16 13L15 13L15 12L14 12L14 11ZM19 11L19 12L21 12L21 13L22 13L22 12L21 12L21 11ZM27 11L27 12L28 12L28 11ZM7 15L7 16L8 16L8 15ZM32 15L32 17L33 17L33 15ZM34 15L34 16L35 16L35 15ZM15 16L15 19L16 19L16 20L15 20L15 21L16 21L16 22L15 22L15 23L16 23L16 22L17 22L17 20L19 20L19 17L18 17L18 16L17 16L17 17L16 17L16 16ZM10 17L10 19L11 19L11 17ZM34 17L34 18L31 18L31 19L32 19L32 20L33 20L33 19L34 19L34 18L36 18L36 17ZM10 20L10 21L13 21L13 20ZM34 20L34 22L35 22L35 21L36 21L36 20ZM2 21L2 22L4 22L4 21ZM18 21L18 23L17 23L17 24L18 24L18 23L19 23L19 22L20 22L20 21ZM29 21L29 23L28 23L28 24L29 24L29 23L30 23L30 24L31 24L31 23L32 23L32 22L33 22L33 21L32 21L32 22L31 22L31 23L30 23L30 21ZM6 22L6 23L7 23L7 22ZM3 23L3 24L4 24L4 23ZM26 23L26 24L27 24L27 23ZM0 24L0 25L1 25L1 24ZM15 24L15 25L13 25L13 26L15 26L15 25L16 25L16 24ZM0 26L0 27L1 27L1 28L0 28L0 29L4 29L4 27L3 27L3 26L2 26L2 27L1 27L1 26ZM25 26L25 27L26 27L26 26ZM2 27L2 28L3 28L3 27ZM12 27L12 28L14 28L14 27ZM27 27L27 28L25 28L25 32L26 32L26 33L28 33L28 31L27 31L27 30L26 30L26 29L27 29L27 28L28 28L28 27ZM6 28L6 29L7 29L7 28ZM23 28L23 29L24 29L24 28ZM29 29L29 32L32 32L32 29ZM30 30L30 31L31 31L31 30ZM18 31L18 32L19 32L19 31ZM21 31L21 33L20 33L20 35L23 35L23 32L22 32L22 31ZM26 31L26 32L27 32L27 31ZM10 32L10 33L11 33L11 35L12 35L12 34L14 34L14 33L15 33L15 32L14 32L14 33L13 33L13 32ZM21 33L21 34L22 34L22 33ZM30 33L30 35L31 35L31 36L32 36L32 34L31 34L31 33ZM13 35L13 36L14 36L14 35ZM15 35L15 36L17 36L17 35ZM26 35L26 36L27 36L27 35ZM35 36L35 37L37 37L37 36ZM0 0L0 7L7 7L7 0ZM1 1L1 6L6 6L6 1ZM2 2L2 5L5 5L5 2ZM30 0L30 7L37 7L37 0ZM31 1L31 6L36 6L36 1ZM32 2L32 5L35 5L35 2ZM0 30L0 37L7 37L7 30ZM1 31L1 36L6 36L6 31ZM2 32L2 35L5 35L5 32Z" fill="#000000"/></g></g></svg>
