<?xml version="1.0" encoding="UTF-8"?>
<svg xmlns="http://www.w3.org/2000/svg" version="1.1" width="300" height="300" viewBox="0 0 300 300"><rect x="0" y="0" width="300" height="300" fill="#ffffff"/><g transform="scale(8.108)"><g transform="translate(0,0)"><path fill-rule="evenodd" d="M8 0L8 1L9 1L9 0ZM11 0L11 1L12 1L12 0ZM13 0L13 1L14 1L14 2L10 2L10 3L9 3L9 4L8 4L8 7L9 7L9 5L10 5L10 8L11 8L11 9L13 9L13 10L14 10L14 11L16 11L16 10L19 10L19 11L17 11L17 12L15 12L15 14L16 14L16 17L13 17L13 16L14 16L14 14L13 14L13 13L12 13L12 14L13 14L13 16L12 16L12 15L11 15L11 12L10 12L10 11L11 11L11 10L10 10L10 9L9 9L9 10L8 10L8 8L1 8L1 10L0 10L0 11L1 11L1 12L0 12L0 16L3 16L3 18L1 18L1 19L0 19L0 20L1 20L1 21L0 21L0 29L1 29L1 24L2 24L2 25L3 25L3 24L6 24L6 25L4 25L4 26L2 26L2 27L3 27L3 29L7 29L7 28L8 28L8 27L10 27L10 28L9 28L9 29L8 29L8 36L9 36L9 34L12 34L12 35L11 35L11 36L10 36L10 37L15 37L15 36L16 36L16 37L17 37L17 36L18 36L18 34L19 34L19 33L18 33L18 31L17 31L17 30L19 30L19 31L20 31L20 33L21 33L21 34L20 34L20 35L21 35L21 36L20 36L20 37L22 37L22 36L23 36L23 37L25 37L25 36L26 36L26 37L28 37L28 36L29 36L29 37L31 37L31 35L30 35L30 36L29 36L29 35L28 35L28 34L33 34L33 32L34 32L34 33L36 33L36 32L37 32L37 30L36 30L36 29L37 29L37 28L36 28L36 27L37 27L37 26L35 26L35 25L36 25L36 24L34 24L34 23L36 23L36 22L37 22L37 18L35 18L35 19L36 19L36 20L34 20L34 18L33 18L33 20L32 20L32 19L31 19L31 18L30 18L30 19L29 19L29 18L27 18L27 19L26 19L26 20L27 20L27 21L26 21L26 22L27 22L27 23L26 23L26 24L27 24L27 25L23 25L23 22L22 22L22 21L20 21L20 20L23 20L23 19L22 19L22 18L23 18L23 17L22 17L22 16L24 16L24 15L25 15L25 13L26 13L26 12L25 12L25 11L24 11L24 12L23 12L23 11L22 11L22 10L25 10L25 9L24 9L24 7L25 7L25 8L26 8L26 9L27 9L27 10L26 10L26 11L27 11L27 14L26 14L26 16L25 16L25 17L24 17L24 18L25 18L25 17L26 17L26 16L27 16L27 17L31 17L31 15L35 15L35 14L36 14L36 16L32 16L32 17L37 17L37 14L36 14L36 13L37 13L37 12L35 12L35 14L34 14L34 13L33 13L33 12L34 12L34 11L33 11L33 10L34 10L34 9L33 9L33 8L31 8L31 9L30 9L30 11L29 11L29 10L28 10L28 9L29 9L29 8L26 8L26 7L27 7L27 6L28 6L28 7L29 7L29 6L28 6L28 5L26 5L26 4L29 4L29 0L28 0L28 1L26 1L26 0L25 0L25 1L23 1L23 2L22 2L22 1L20 1L20 3L19 3L19 2L18 2L18 1L19 1L19 0L16 0L16 1L15 1L15 0ZM16 1L16 2L15 2L15 3L13 3L13 4L12 4L12 6L11 6L11 7L12 7L12 6L13 6L13 7L14 7L14 8L13 8L13 9L14 9L14 8L15 8L15 7L16 7L16 6L17 6L17 9L18 9L18 8L19 8L19 7L20 7L20 9L19 9L19 10L20 10L20 11L19 11L19 12L17 12L17 13L16 13L16 14L17 14L17 17L16 17L16 18L12 18L12 17L11 17L11 16L10 16L10 17L9 17L9 18L10 18L10 21L9 21L9 20L8 20L8 21L9 21L9 23L10 23L10 22L11 22L11 24L10 24L10 25L11 25L11 26L10 26L10 27L11 27L11 26L12 26L12 27L13 27L13 28L10 28L10 30L9 30L9 31L10 31L10 32L9 32L9 33L10 33L10 32L12 32L12 33L13 33L13 35L12 35L12 36L15 36L15 34L16 34L16 36L17 36L17 34L18 34L18 33L15 33L15 31L16 31L16 30L17 30L17 27L18 27L18 25L19 25L19 24L20 24L20 26L19 26L19 28L18 28L18 29L19 29L19 30L20 30L20 31L21 31L21 32L23 32L23 33L22 33L22 35L23 35L23 34L25 34L25 33L24 33L24 32L23 32L23 31L25 31L25 32L26 32L26 33L27 33L27 34L28 34L28 33L27 33L27 32L26 32L26 30L27 30L27 31L28 31L28 27L29 27L29 28L34 28L34 29L33 29L33 30L35 30L35 31L34 31L34 32L35 32L35 31L36 31L36 30L35 30L35 29L36 29L36 28L34 28L34 27L33 27L33 26L34 26L34 24L33 24L33 23L31 23L31 24L32 24L32 25L31 25L31 26L32 26L32 27L30 27L30 26L27 26L27 29L26 29L26 30L25 30L25 29L24 29L24 27L25 27L25 28L26 28L26 26L23 26L23 25L22 25L22 24L20 24L20 23L22 23L22 22L18 22L18 23L17 23L17 24L16 24L16 25L17 25L17 27L16 27L16 28L14 28L14 27L15 27L15 23L16 23L16 22L17 22L17 20L18 20L18 21L19 21L19 20L18 20L18 19L16 19L16 18L18 18L18 16L20 16L20 15L21 15L21 14L20 14L20 13L19 13L19 12L21 12L21 9L23 9L23 7L24 7L24 6L23 6L23 5L25 5L25 4L26 4L26 3L27 3L27 2L26 2L26 3L25 3L25 2L24 2L24 3L25 3L25 4L22 4L22 3L20 3L20 5L19 5L19 7L18 7L18 5L16 5L16 2L17 2L17 1ZM17 3L17 4L18 4L18 3ZM13 4L13 5L15 5L15 6L14 6L14 7L15 7L15 6L16 6L16 5L15 5L15 4ZM21 4L21 5L20 5L20 7L21 7L21 8L22 8L22 7L23 7L23 6L22 6L22 4ZM21 6L21 7L22 7L22 6ZM25 6L25 7L26 7L26 6ZM36 8L36 9L37 9L37 8ZM4 9L4 11L6 11L6 12L8 12L8 13L9 13L9 14L7 14L7 13L6 13L6 14L5 14L5 12L4 12L4 14L3 14L3 13L1 13L1 15L4 15L4 18L3 18L3 20L4 20L4 19L6 19L6 20L7 20L7 19L6 19L6 18L8 18L8 17L6 17L6 18L5 18L5 16L7 16L7 15L10 15L10 12L8 12L8 10L7 10L7 9ZM1 10L1 11L2 11L2 10ZM6 10L6 11L7 11L7 10ZM31 10L31 11L30 11L30 12L31 12L31 11L32 11L32 10ZM35 10L35 11L37 11L37 10ZM28 11L28 15L27 15L27 16L29 16L29 14L30 14L30 15L31 15L31 14L33 14L33 13L29 13L29 11ZM22 12L22 13L23 13L23 12ZM24 12L24 13L25 13L25 12ZM17 13L17 14L18 14L18 13ZM4 14L4 15L5 15L5 14ZM6 14L6 15L7 15L7 14ZM22 14L22 15L24 15L24 14ZM10 17L10 18L11 18L11 17ZM19 17L19 18L20 18L20 17ZM1 19L1 20L2 20L2 19ZM11 19L11 20L14 20L14 21L11 21L11 22L14 22L14 21L15 21L15 22L16 22L16 19ZM24 19L24 20L25 20L25 19ZM31 20L31 21L27 21L27 22L29 22L29 23L27 23L27 24L28 24L28 25L30 25L30 24L29 24L29 23L30 23L30 22L31 22L31 21L32 21L32 22L36 22L36 21L34 21L34 20L33 20L33 21L32 21L32 20ZM1 21L1 23L2 23L2 24L3 24L3 22L5 22L5 21L3 21L3 22L2 22L2 21ZM6 21L6 22L7 22L7 21ZM24 21L24 22L25 22L25 21ZM6 23L6 24L8 24L8 23ZM12 23L12 26L13 26L13 25L14 25L14 24L13 24L13 23ZM18 23L18 24L17 24L17 25L18 25L18 24L19 24L19 23ZM24 23L24 24L25 24L25 23ZM6 25L6 26L4 26L4 28L5 28L5 27L6 27L6 28L7 28L7 27L8 27L8 26L9 26L9 25L8 25L8 26L7 26L7 25ZM6 26L6 27L7 27L7 26ZM22 26L22 27L23 27L23 26ZM13 28L13 29L12 29L12 31L13 31L13 33L14 33L14 34L15 34L15 33L14 33L14 31L15 31L15 30L13 30L13 29L14 29L14 28ZM20 28L20 29L23 29L23 30L22 30L22 31L23 31L23 30L24 30L24 29L23 29L23 28ZM29 29L29 32L32 32L32 29ZM10 30L10 31L11 31L11 30ZM30 30L30 31L31 31L31 30ZM34 34L34 35L32 35L32 36L34 36L34 37L37 37L37 34L36 34L36 36L34 36L34 35L35 35L35 34ZM24 35L24 36L25 36L25 35ZM26 35L26 36L28 36L28 35ZM0 0L0 7L7 7L7 0ZM1 1L1 6L6 6L6 1ZM2 2L2 5L5 5L5 2ZM30 0L30 7L37 7L37 0ZM31 1L31 6L36 6L36 1ZM32 2L32 5L35 5L35 2ZM0 30L0 37L7 37L7 30ZM1 31L1 36L6 36L6 31ZM2 32L2 35L5 35L5 32Z" fill="#000000"/></g></g></svg>
