<?xml version="1.0" encoding="UTF-8"?>
<svg xmlns="http://www.w3.org/2000/svg" version="1.1" width="300" height="300" viewBox="0 0 300 300"><rect x="0" y="0" width="300" height="300" fill="#ffffff"/><g transform="scale(8.108)"><g transform="translate(0,0)"><path fill-rule="evenodd" d="M11 0L11 1L12 1L12 0ZM14 0L14 1L15 1L15 3L14 3L14 2L13 2L13 4L14 4L14 5L12 5L12 4L11 4L11 2L8 2L8 3L9 3L9 4L8 4L8 7L9 7L9 6L10 6L10 7L11 7L11 6L12 6L12 8L13 8L13 9L14 9L14 7L15 7L15 8L16 8L16 10L14 10L14 11L13 11L13 13L12 13L12 11L10 11L10 12L11 12L11 13L9 13L9 12L8 12L8 13L7 13L7 12L6 12L6 11L7 11L7 10L8 10L8 11L9 11L9 9L10 9L10 10L11 10L11 9L10 9L10 8L8 8L8 9L7 9L7 8L6 8L6 9L5 9L5 8L4 8L4 9L5 9L5 11L4 11L4 10L1 10L1 9L2 9L2 8L1 8L1 9L0 9L0 12L5 12L5 15L4 15L4 13L0 13L0 14L3 14L3 15L2 15L2 16L1 16L1 15L0 15L0 17L4 17L4 16L5 16L5 18L4 18L4 20L3 20L3 19L2 19L2 18L0 18L0 19L1 19L1 20L0 20L0 22L1 22L1 20L2 20L2 23L1 23L1 24L0 24L0 26L2 26L2 27L3 27L3 28L0 28L0 29L3 29L3 28L4 28L4 29L5 29L5 28L6 28L6 29L7 29L7 28L6 28L6 27L8 27L8 28L10 28L10 29L11 29L11 31L9 31L9 32L8 32L8 33L9 33L9 34L11 34L11 35L12 35L12 36L11 36L11 37L12 37L12 36L14 36L14 37L16 37L16 35L15 35L15 33L16 33L16 34L17 34L17 35L18 35L18 34L20 34L20 35L21 35L21 36L22 36L22 35L23 35L23 34L21 34L21 33L18 33L18 32L20 32L20 30L22 30L22 29L23 29L23 31L22 31L22 33L23 33L23 31L24 31L24 33L25 33L25 31L24 31L24 30L25 30L25 29L23 29L23 28L24 28L24 26L25 26L25 25L27 25L27 23L28 23L28 24L29 24L29 23L30 23L30 22L29 22L29 23L28 23L28 21L31 21L31 22L32 22L32 23L33 23L33 24L32 24L32 25L31 25L31 24L30 24L30 25L28 25L28 27L30 27L30 26L31 26L31 27L32 27L32 26L33 26L33 27L34 27L34 26L35 26L35 27L36 27L36 24L37 24L37 20L36 20L36 17L37 17L37 16L36 16L36 13L37 13L37 11L36 11L36 9L35 9L35 8L34 8L34 9L35 9L35 10L34 10L34 11L33 11L33 10L32 10L32 11L30 11L30 10L31 10L31 9L33 9L33 8L31 8L31 9L30 9L30 8L29 8L29 6L28 6L28 7L27 7L27 6L26 6L26 7L25 7L25 5L23 5L23 3L22 3L22 2L20 2L20 1L21 1L21 0L17 0L17 1L16 1L16 0ZM27 0L27 1L28 1L28 2L27 2L27 3L26 3L26 2L25 2L25 1L23 1L23 2L24 2L24 3L26 3L26 5L28 5L28 4L27 4L27 3L29 3L29 1L28 1L28 0ZM16 2L16 3L15 3L15 4L16 4L16 5L15 5L15 7L16 7L16 6L17 6L17 7L18 7L18 8L21 8L21 7L22 7L22 3L21 3L21 4L20 4L20 5L17 5L17 4L16 4L16 3L18 3L18 4L19 4L19 3L20 3L20 2ZM10 4L10 6L11 6L11 4ZM20 5L20 7L21 7L21 5ZM13 6L13 7L14 7L14 6ZM18 6L18 7L19 7L19 6ZM23 6L23 8L22 8L22 9L20 9L20 10L19 10L19 9L18 9L18 10L17 10L17 11L19 11L19 12L21 12L21 13L20 13L20 14L19 14L19 13L18 13L18 14L19 14L19 17L20 17L20 18L21 18L21 19L22 19L22 17L23 17L23 18L24 18L24 17L26 17L26 16L27 16L27 17L28 17L28 19L27 19L27 18L25 18L25 19L24 19L24 20L22 20L22 21L21 21L21 20L19 20L19 18L18 18L18 16L17 16L17 15L15 15L15 14L16 14L16 13L17 13L17 12L16 12L16 11L15 11L15 12L14 12L14 14L12 14L12 13L11 13L11 14L9 14L9 15L8 15L8 14L7 14L7 13L6 13L6 14L7 14L7 15L6 15L6 16L7 16L7 15L8 15L8 18L9 18L9 19L10 19L10 17L11 17L11 18L12 18L12 17L11 17L11 15L12 15L12 16L13 16L13 17L14 17L14 18L13 18L13 19L11 19L11 21L10 21L10 20L7 20L7 19L6 19L6 18L7 18L7 17L6 17L6 18L5 18L5 19L6 19L6 20L5 20L5 21L4 21L4 22L3 22L3 23L4 23L4 22L7 22L7 21L10 21L10 23L9 23L9 22L8 22L8 24L7 24L7 23L5 23L5 24L7 24L7 25L4 25L4 27L6 27L6 26L7 26L7 25L8 25L8 27L9 27L9 25L10 25L10 24L11 24L11 25L14 25L14 24L15 24L15 26L16 26L16 27L17 27L17 29L18 29L18 27L17 27L17 26L18 26L18 25L19 25L19 26L21 26L21 27L20 27L20 28L19 28L19 30L20 30L20 28L21 28L21 29L22 29L22 27L23 27L23 26L21 26L21 25L20 25L20 24L19 24L19 23L17 23L17 24L15 24L15 23L16 23L16 22L15 22L15 21L13 21L13 22L12 22L12 23L11 23L11 21L12 21L12 20L16 20L16 21L18 21L18 20L19 20L19 22L20 22L20 23L21 23L21 22L22 22L22 23L23 23L23 22L24 22L24 21L25 21L25 20L26 20L26 19L27 19L27 21L26 21L26 22L25 22L25 23L24 23L24 24L22 24L22 25L25 25L25 24L26 24L26 23L27 23L27 21L28 21L28 19L29 19L29 20L31 20L31 21L33 21L33 22L34 22L34 21L33 21L33 20L32 20L32 19L34 19L34 15L35 15L35 13L36 13L36 12L34 12L34 15L32 15L32 13L33 13L33 12L32 12L32 13L30 13L30 12L27 12L27 14L25 14L25 13L26 13L26 11L27 11L27 10L28 10L28 11L29 11L29 10L30 10L30 9L27 9L27 7L26 7L26 9L24 9L24 12L25 12L25 13L24 13L24 15L25 15L25 16L23 16L23 15L22 15L22 16L21 16L21 14L22 14L22 13L23 13L23 11L22 11L22 12L21 12L21 10L22 10L22 9L23 9L23 8L24 8L24 6ZM6 9L6 10L7 10L7 9ZM26 9L26 10L27 10L27 9ZM29 13L29 14L27 14L27 16L28 16L28 17L29 17L29 19L30 19L30 17L31 17L31 19L32 19L32 18L33 18L33 17L32 17L32 15L31 15L31 14L30 14L30 13ZM29 14L29 17L30 17L30 16L31 16L31 15L30 15L30 14ZM9 15L9 16L10 16L10 15ZM13 15L13 16L14 16L14 15ZM16 16L16 17L15 17L15 18L14 18L14 19L16 19L16 20L17 20L17 19L16 19L16 18L17 18L17 16ZM6 20L6 21L7 21L7 20ZM20 21L20 22L21 22L21 21ZM35 21L35 23L36 23L36 21ZM8 24L8 25L9 25L9 24ZM17 24L17 25L16 25L16 26L17 26L17 25L18 25L18 24ZM10 26L10 28L11 28L11 29L12 29L12 28L11 28L11 26ZM13 26L13 27L14 27L14 28L13 28L13 31L12 31L12 33L13 33L13 34L12 34L12 35L14 35L14 33L15 33L15 32L16 32L16 33L17 33L17 34L18 34L18 33L17 33L17 32L18 32L18 31L15 31L15 30L16 30L16 29L15 29L15 27L14 27L14 26ZM26 26L26 29L27 29L27 30L26 30L26 33L27 33L27 32L28 32L28 35L29 35L29 37L32 37L32 33L33 33L33 30L34 30L34 33L36 33L36 32L35 32L35 31L36 31L36 29L37 29L37 28L36 28L36 29L35 29L35 30L34 30L34 29L33 29L33 28L27 28L27 26ZM8 29L8 30L9 30L9 29ZM29 29L29 32L32 32L32 29ZM27 30L27 31L28 31L28 30ZM30 30L30 31L31 31L31 30ZM29 33L29 35L30 35L30 33ZM25 34L25 35L24 35L24 36L23 36L23 37L26 37L26 35L27 35L27 34ZM33 34L33 37L37 37L37 36L36 36L36 34L35 34L35 35L34 35L34 34ZM8 35L8 36L9 36L9 37L10 37L10 35ZM17 36L17 37L20 37L20 36ZM0 0L0 7L7 7L7 0ZM1 1L1 6L6 6L6 1ZM2 2L2 5L5 5L5 2ZM30 0L30 7L37 7L37 0ZM31 1L31 6L36 6L36 1ZM32 2L32 5L35 5L35 2ZM0 30L0 37L7 37L7 30ZM1 31L1 36L6 36L6 31ZM2 32L2 35L5 35L5 32Z" fill="#000000"/></g></g></svg>
