<?xml version="1.0" encoding="UTF-8"?>
<svg xmlns="http://www.w3.org/2000/svg" version="1.1" width="300" height="300" viewBox="0 0 300 300"><rect x="0" y="0" width="300" height="300" fill="#ffffff"/><g transform="scale(8.108)"><g transform="translate(0,0)"><path fill-rule="evenodd" d="M9 0L9 1L10 1L10 2L8 2L8 3L9 3L9 4L8 4L8 7L9 7L9 8L8 8L8 9L7 9L7 8L6 8L6 9L5 9L5 8L4 8L4 10L2 10L2 12L3 12L3 14L0 14L0 15L2 15L2 16L1 16L1 19L0 19L0 22L2 22L2 23L1 23L1 24L0 24L0 26L2 26L2 27L3 27L3 28L0 28L0 29L3 29L3 28L6 28L6 29L7 29L7 28L10 28L10 27L14 27L14 28L13 28L13 30L11 30L11 29L12 29L12 28L11 28L11 29L10 29L10 30L11 30L11 31L9 31L9 32L8 32L8 33L10 33L10 34L9 34L9 35L8 35L8 36L10 36L10 34L11 34L11 35L12 35L12 36L11 36L11 37L12 37L12 36L13 36L13 37L15 37L15 36L13 36L13 35L14 35L14 33L17 33L17 35L16 35L16 36L18 36L18 34L20 34L20 35L21 35L21 36L22 36L22 35L23 35L23 34L21 34L21 33L20 33L20 31L19 31L19 30L20 30L20 29L21 29L21 30L22 30L22 29L23 29L23 31L22 31L22 33L23 33L23 31L25 31L25 29L23 29L23 27L25 27L25 25L27 25L27 23L28 23L28 24L29 24L29 23L30 23L30 21L31 21L31 23L32 23L32 25L31 25L31 24L30 24L30 25L28 25L28 27L29 27L29 26L31 26L31 27L32 27L32 26L33 26L33 27L34 27L34 26L35 26L35 27L36 27L36 24L37 24L37 20L36 20L36 17L37 17L37 16L36 16L36 13L37 13L37 11L36 11L36 9L35 9L35 8L34 8L34 9L35 9L35 10L34 10L34 11L33 11L33 10L32 10L32 11L31 11L31 12L29 12L29 11L28 11L28 10L27 10L27 9L26 9L26 7L27 7L27 8L28 8L28 9L30 9L30 10L31 10L31 9L33 9L33 8L31 8L31 9L30 9L30 8L28 8L28 7L29 7L29 6L28 6L28 7L27 7L27 6L26 6L26 7L25 7L25 5L23 5L23 3L22 3L22 2L20 2L20 1L21 1L21 0L18 0L18 1L17 1L17 0L16 0L16 1L17 1L17 2L15 2L15 1L14 1L14 0L13 0L13 2L14 2L14 3L12 3L12 4L14 4L14 5L11 5L11 4L10 4L10 2L11 2L11 1L12 1L12 0L11 0L11 1L10 1L10 0ZM27 0L27 1L28 1L28 0ZM18 1L18 2L19 2L19 3L20 3L20 4L19 4L19 5L18 5L18 4L17 4L17 3L15 3L15 4L16 4L16 5L15 5L15 7L14 7L14 6L13 6L13 7L12 7L12 6L11 6L11 5L9 5L9 7L10 7L10 6L11 6L11 7L12 7L12 8L9 8L9 12L8 12L8 11L5 11L5 13L4 13L4 14L3 14L3 15L5 15L5 13L6 13L6 14L7 14L7 13L10 13L10 12L12 12L12 13L11 13L11 14L8 14L8 15L6 15L6 16L7 16L7 17L6 17L6 18L5 18L5 19L6 19L6 20L4 20L4 21L3 21L3 23L2 23L2 24L3 24L3 23L6 23L6 24L7 24L7 23L8 23L8 20L7 20L7 19L6 19L6 18L7 18L7 17L8 17L8 18L9 18L9 19L10 19L10 22L9 22L9 23L10 23L10 24L9 24L9 25L6 25L6 26L5 26L5 27L6 27L6 28L7 28L7 27L8 27L8 26L11 26L11 25L13 25L13 26L14 26L14 27L15 27L15 26L16 26L16 27L17 27L17 26L18 26L18 28L17 28L17 29L20 29L20 27L21 27L21 29L22 29L22 27L23 27L23 26L21 26L21 24L20 24L20 23L22 23L22 22L24 22L24 21L25 21L25 20L26 20L26 19L27 19L27 18L25 18L25 19L24 19L24 20L23 20L23 19L22 19L22 17L23 17L23 18L24 18L24 17L26 17L26 15L27 15L27 17L28 17L28 19L29 19L29 21L28 21L28 20L27 20L27 21L26 21L26 22L25 22L25 23L24 23L24 24L22 24L22 25L25 25L25 24L26 24L26 23L27 23L27 21L28 21L28 23L29 23L29 21L30 21L30 19L32 19L32 20L31 20L31 21L33 21L33 22L32 22L32 23L33 23L33 25L34 25L34 22L35 22L35 23L36 23L36 21L33 21L33 19L34 19L34 18L35 18L35 17L34 17L34 15L35 15L35 12L36 12L36 11L35 11L35 12L34 12L34 13L33 13L33 12L31 12L31 13L29 13L29 12L27 12L27 11L26 11L26 10L25 10L25 9L24 9L24 10L25 10L25 11L24 11L24 12L23 12L23 11L22 11L22 12L21 12L21 14L20 14L20 15L19 15L19 17L20 17L20 18L21 18L21 19L22 19L22 21L21 21L21 20L15 20L15 17L16 17L16 18L17 18L17 17L18 17L18 16L17 16L17 17L16 17L16 15L15 15L15 14L16 14L16 13L18 13L18 11L19 11L19 12L20 12L20 10L22 10L22 9L23 9L23 8L24 8L24 6L23 6L23 5L22 5L22 3L20 3L20 2L19 2L19 1ZM23 1L23 2L24 2L24 3L26 3L26 5L29 5L29 3L28 3L28 2L27 2L27 3L26 3L26 2L25 2L25 1ZM20 4L20 5L21 5L21 4ZM17 5L17 6L16 6L16 7L15 7L15 8L16 8L16 10L15 10L15 11L14 11L14 7L13 7L13 8L12 8L12 9L11 9L11 10L12 10L12 12L13 12L13 13L12 13L12 14L11 14L11 15L13 15L13 16L12 16L12 18L11 18L11 17L10 17L10 18L11 18L11 19L14 19L14 18L13 18L13 16L14 16L14 14L13 14L13 13L15 13L15 11L16 11L16 12L17 12L17 8L18 8L18 7L19 7L19 6L18 6L18 5ZM17 6L17 7L16 7L16 8L17 8L17 7L18 7L18 6ZM20 6L20 8L21 8L21 9L22 9L22 7L23 7L23 6L22 6L22 7L21 7L21 6ZM1 8L1 9L0 9L0 11L1 11L1 9L2 9L2 8ZM6 9L6 10L7 10L7 9ZM18 9L18 10L20 10L20 9ZM6 12L6 13L7 13L7 12ZM24 12L24 13L22 13L22 14L21 14L21 15L20 15L20 16L22 16L22 15L23 15L23 17L24 17L24 15L25 15L25 14L24 14L24 13L25 13L25 12ZM26 12L26 14L27 14L27 15L28 15L28 17L31 17L31 18L34 18L34 17L32 17L32 15L34 15L34 14L33 14L33 13L31 13L31 14L30 14L30 15L31 15L31 16L29 16L29 14L27 14L27 12ZM31 14L31 15L32 15L32 14ZM9 15L9 16L10 16L10 15ZM3 16L3 17L2 17L2 18L3 18L3 19L2 19L2 20L3 20L3 19L4 19L4 18L3 18L3 17L5 17L5 16ZM29 18L29 19L30 19L30 18ZM6 20L6 21L7 21L7 20ZM13 20L13 21L14 21L14 22L15 22L15 23L16 23L16 24L17 24L17 25L16 25L16 26L17 26L17 25L18 25L18 26L19 26L19 23L20 23L20 22L19 22L19 21L18 21L18 22L19 22L19 23L16 23L16 22L17 22L17 21L16 21L16 22L15 22L15 21L14 21L14 20ZM4 21L4 22L5 22L5 21ZM6 22L6 23L7 23L7 22ZM12 22L12 23L11 23L11 24L10 24L10 25L11 25L11 24L13 24L13 22ZM14 24L14 26L15 26L15 24ZM6 26L6 27L7 27L7 26ZM26 26L26 28L27 28L27 29L26 29L26 32L27 32L27 29L28 29L28 35L29 35L29 37L37 37L37 36L36 36L36 34L35 34L35 33L36 33L36 32L35 32L35 31L36 31L36 29L35 29L35 30L34 30L34 29L33 29L33 28L27 28L27 26ZM14 28L14 29L15 29L15 28ZM8 29L8 30L9 30L9 29ZM29 29L29 32L32 32L32 29ZM13 30L13 31L12 31L12 32L11 32L11 33L14 33L14 32L13 32L13 31L15 31L15 32L16 32L16 31L15 31L15 30ZM30 30L30 31L31 31L31 30ZM17 31L17 32L18 32L18 33L19 33L19 32L18 32L18 31ZM24 32L24 33L25 33L25 32ZM26 33L26 34L25 34L25 35L24 35L24 36L23 36L23 37L26 37L26 35L27 35L27 33ZM29 33L29 35L30 35L30 36L32 36L32 35L33 35L33 34L34 34L34 33L31 33L31 35L30 35L30 33ZM12 34L12 35L13 35L13 34ZM19 36L19 37L20 37L20 36ZM0 0L0 7L7 7L7 0ZM1 1L1 6L6 6L6 1ZM2 2L2 5L5 5L5 2ZM30 0L30 7L37 7L37 0ZM31 1L31 6L36 6L36 1ZM32 2L32 5L35 5L35 2ZM0 30L0 37L7 37L7 30ZM1 31L1 36L6 36L6 31ZM2 32L2 35L5 35L5 32Z" fill="#000000"/></g></g></svg>
