<?xml version="1.0" encoding="UTF-8"?>
<svg xmlns="http://www.w3.org/2000/svg" version="1.1" width="300" height="300" viewBox="0 0 300 300"><rect x="0" y="0" width="300" height="300" fill="#ffffff"/><g transform="scale(8.108)"><g transform="translate(0,0)"><path fill-rule="evenodd" d="M8 0L8 2L10 2L10 1L11 1L11 0L10 0L10 1L9 1L9 0ZM15 0L15 2L16 2L16 3L17 3L17 5L15 5L15 3L14 3L14 2L11 2L11 4L10 4L10 3L9 3L9 6L8 6L8 7L9 7L9 8L6 8L6 9L5 9L5 10L2 10L2 8L1 8L1 10L0 10L0 11L1 11L1 10L2 10L2 12L3 12L3 14L4 14L4 16L5 16L5 18L4 18L4 17L3 17L3 16L2 16L2 17L0 17L0 20L2 20L2 21L0 21L0 29L1 29L1 25L3 25L3 26L2 26L2 28L3 28L3 27L4 27L4 26L5 26L5 25L7 25L7 26L6 26L6 27L8 27L8 28L4 28L4 29L8 29L8 31L9 31L9 29L10 29L10 30L11 30L11 32L10 32L10 33L9 33L9 35L8 35L8 36L10 36L10 35L11 35L11 36L12 36L12 37L15 37L15 35L16 35L16 36L17 36L17 37L20 37L20 36L19 36L19 35L18 35L18 36L17 36L17 35L16 35L16 34L19 34L19 33L18 33L18 29L19 29L19 30L20 30L20 35L22 35L22 36L21 36L21 37L23 37L23 36L24 36L24 37L26 37L26 35L27 35L27 37L32 37L32 36L29 36L29 34L31 34L31 35L32 35L32 34L31 34L31 33L33 33L33 35L35 35L35 33L36 33L36 32L37 32L37 30L36 30L36 29L35 29L35 32L34 32L34 33L33 33L33 29L34 29L34 27L35 27L35 28L37 28L37 26L35 26L35 25L33 25L33 24L32 24L32 23L33 23L33 22L34 22L34 23L36 23L36 22L37 22L37 18L36 18L36 17L37 17L37 14L36 14L36 13L37 13L37 10L36 10L36 9L37 9L37 8L35 8L35 9L34 9L34 10L36 10L36 11L35 11L35 12L34 12L34 13L33 13L33 14L32 14L32 12L33 12L33 10L32 10L32 9L30 9L30 8L29 8L29 3L28 3L28 2L29 2L29 0L28 0L28 2L27 2L27 1L24 1L24 0L18 0L18 2L16 2L16 1L17 1L17 0ZM19 1L19 2L18 2L18 3L20 3L20 1ZM21 1L21 2L23 2L23 1ZM24 2L24 3L25 3L25 4L23 4L23 3L22 3L22 5L21 5L21 4L20 4L20 5L17 5L17 9L14 9L14 8L15 8L15 7L16 7L16 6L15 6L15 5L12 5L12 6L11 6L11 5L10 5L10 6L9 6L9 7L10 7L10 6L11 6L11 8L9 8L9 9L10 9L10 10L12 10L12 11L10 11L10 12L8 12L8 9L6 9L6 10L5 10L5 11L3 11L3 12L4 12L4 14L5 14L5 16L7 16L7 17L6 17L6 18L5 18L5 20L7 20L7 19L9 19L9 18L8 18L8 15L9 15L9 16L10 16L10 17L11 17L11 18L10 18L10 19L11 19L11 18L12 18L12 19L13 19L13 20L14 20L14 21L15 21L15 22L13 22L13 21L12 21L12 20L9 20L9 21L11 21L11 23L9 23L9 25L8 25L8 24L7 24L7 23L8 23L8 22L7 22L7 21L6 21L6 22L7 22L7 23L6 23L6 24L7 24L7 25L8 25L8 27L10 27L10 28L11 28L11 26L12 26L12 25L13 25L13 26L14 26L14 27L15 27L15 28L13 28L13 27L12 27L12 28L13 28L13 29L12 29L12 30L13 30L13 31L12 31L12 33L14 33L14 32L15 32L15 34L16 34L16 32L17 32L17 31L16 31L16 32L15 32L15 30L14 30L14 29L16 29L16 30L17 30L17 29L16 29L16 27L15 27L15 26L16 26L16 24L17 24L17 26L19 26L19 27L17 27L17 28L21 28L21 27L22 27L22 26L20 26L20 25L18 25L18 24L17 24L17 21L18 21L18 23L21 23L21 25L22 25L22 23L21 23L21 22L22 22L22 21L23 21L23 24L24 24L24 23L25 23L25 24L26 24L26 23L27 23L27 20L28 20L28 24L29 24L29 23L30 23L30 22L32 22L32 21L30 21L30 20L29 20L29 19L30 19L30 18L33 18L33 17L34 17L34 19L33 19L33 21L34 21L34 20L36 20L36 19L35 19L35 17L34 17L34 15L35 15L35 16L36 16L36 14L35 14L35 13L34 13L34 14L33 14L33 17L32 17L32 16L31 16L31 17L30 17L30 16L29 16L29 17L28 17L28 18L29 18L29 19L27 19L27 20L26 20L26 19L25 19L25 18L27 18L27 16L28 16L28 15L29 15L29 13L26 13L26 12L30 12L30 9L29 9L29 11L27 11L27 10L28 10L28 9L27 9L27 10L26 10L26 8L28 8L28 4L27 4L27 2L26 2L26 3L25 3L25 2ZM13 3L13 4L14 4L14 3ZM25 4L25 5L22 5L22 7L23 7L23 8L22 8L22 10L21 10L21 11L22 11L22 12L21 12L21 13L20 13L20 14L19 14L19 12L20 12L20 9L21 9L21 8L20 8L20 9L19 9L19 6L18 6L18 9L17 9L17 12L16 12L16 10L14 10L14 9L13 9L13 8L14 8L14 7L15 7L15 6L14 6L14 7L13 7L13 6L12 6L12 9L13 9L13 11L12 11L12 12L10 12L10 13L9 13L9 14L10 14L10 15L11 15L11 13L12 13L12 14L13 14L13 15L12 15L12 18L13 18L13 19L14 19L14 17L13 17L13 16L15 16L15 19L16 19L16 16L15 16L15 15L16 15L16 14L19 14L19 16L18 16L18 17L17 17L17 20L19 20L19 21L20 21L20 22L21 22L21 19L22 19L22 20L23 20L23 19L24 19L24 20L25 20L25 19L24 19L24 18L25 18L25 17L26 17L26 16L25 16L25 15L24 15L24 16L25 16L25 17L24 17L24 18L23 18L23 17L22 17L22 16L20 16L20 15L22 15L22 14L26 14L26 13L24 13L24 12L23 12L23 11L22 11L22 10L24 10L24 11L26 11L26 10L24 10L24 9L25 9L25 8L26 8L26 7L27 7L27 5L26 5L26 4ZM20 6L20 7L21 7L21 6ZM23 6L23 7L24 7L24 8L25 8L25 7L26 7L26 6L25 6L25 7L24 7L24 6ZM18 9L18 12L19 12L19 9ZM6 10L6 11L7 11L7 10ZM31 10L31 11L32 11L32 10ZM5 12L5 14L6 14L6 15L7 15L7 14L6 14L6 13L7 13L7 12ZM12 12L12 13L13 13L13 14L15 14L15 13L13 13L13 12ZM0 13L0 14L1 14L1 15L2 15L2 13ZM21 13L21 14L22 14L22 13ZM30 13L30 15L32 15L32 14L31 14L31 13ZM27 14L27 15L28 15L28 14ZM19 16L19 19L21 19L21 18L22 18L22 17L21 17L21 18L20 18L20 16ZM29 17L29 18L30 18L30 17ZM1 18L1 19L3 19L3 18ZM6 18L6 19L7 19L7 18ZM31 19L31 20L32 20L32 19ZM3 20L3 21L4 21L4 22L5 22L5 21L4 21L4 20ZM24 21L24 22L25 22L25 21ZM29 21L29 22L30 22L30 21ZM35 21L35 22L36 22L36 21ZM1 22L1 23L2 23L2 24L3 24L3 25L5 25L5 23L3 23L3 22ZM15 22L15 23L16 23L16 22ZM11 23L11 24L10 24L10 25L9 25L9 26L10 26L10 25L12 25L12 23ZM14 24L14 25L15 25L15 24ZM31 24L31 26L28 26L28 25L27 25L27 27L26 27L26 26L25 26L25 25L24 25L24 26L23 26L23 28L24 28L24 29L25 29L25 28L27 28L27 29L26 29L26 31L25 31L25 30L24 30L24 31L23 31L23 29L22 29L22 30L21 30L21 29L20 29L20 30L21 30L21 31L22 31L22 32L23 32L23 34L22 34L22 33L21 33L21 34L22 34L22 35L23 35L23 34L25 34L25 33L24 33L24 32L26 32L26 34L27 34L27 32L28 32L28 30L27 30L27 29L28 29L28 28L29 28L29 27L31 27L31 28L32 28L32 27L33 27L33 25L32 25L32 24ZM31 26L31 27L32 27L32 26ZM24 27L24 28L25 28L25 27ZM27 27L27 28L28 28L28 27ZM29 29L29 32L32 32L32 29ZM30 30L30 31L31 31L31 30ZM26 31L26 32L27 32L27 31ZM10 33L10 34L11 34L11 35L12 35L12 36L14 36L14 35L12 35L12 34L11 34L11 33ZM36 34L36 37L37 37L37 34ZM24 35L24 36L25 36L25 35ZM0 0L0 7L7 7L7 0ZM1 1L1 6L6 6L6 1ZM2 2L2 5L5 5L5 2ZM30 0L30 7L37 7L37 0ZM31 1L31 6L36 6L36 1ZM32 2L32 5L35 5L35 2ZM0 30L0 37L7 37L7 30ZM1 31L1 36L6 36L6 31ZM2 32L2 35L5 35L5 32Z" fill="#000000"/></g></g></svg>
