<?xml version="1.0" encoding="UTF-8"?>
<svg xmlns="http://www.w3.org/2000/svg" version="1.1" width="300" height="300" viewBox="0 0 300 300"><rect x="0" y="0" width="300" height="300" fill="#ffffff"/><g transform="scale(8.108)"><g transform="translate(0,0)"><path fill-rule="evenodd" d="M8 0L8 5L10 5L10 8L11 8L11 5L12 5L12 9L10 9L10 10L13 10L13 6L14 6L14 7L15 7L15 9L14 9L14 10L16 10L16 11L17 11L17 10L18 10L18 9L19 9L19 8L18 8L18 7L19 7L19 3L17 3L17 1L19 1L19 2L21 2L21 0L20 0L20 1L19 1L19 0L16 0L16 2L15 2L15 1L14 1L14 0L13 0L13 1L12 1L12 0L10 0L10 1L11 1L11 3L13 3L13 5L12 5L12 4L10 4L10 2L9 2L9 0ZM22 0L22 1L23 1L23 0ZM25 0L25 1L26 1L26 2L25 2L25 5L26 5L26 7L27 7L27 8L29 8L29 6L28 6L28 5L29 5L29 3L27 3L27 2L28 2L28 0ZM13 2L13 3L15 3L15 5L14 5L14 6L15 6L15 7L16 7L16 9L18 9L18 8L17 8L17 7L18 7L18 4L17 4L17 5L16 5L16 3L15 3L15 2ZM23 2L23 3L22 3L22 5L21 5L21 4L20 4L20 5L21 5L21 6L20 6L20 7L21 7L21 9L20 9L20 10L19 10L19 11L18 11L18 13L19 13L19 15L17 15L17 16L15 16L15 15L16 15L16 14L17 14L17 12L16 12L16 13L15 13L15 11L11 11L11 12L12 12L12 13L13 13L13 14L14 14L14 15L13 15L13 16L12 16L12 15L10 15L10 14L11 14L11 13L10 13L10 14L9 14L9 15L8 15L8 12L10 12L10 11L9 11L9 9L8 9L8 8L9 8L9 6L8 6L8 8L6 8L6 9L7 9L7 10L6 10L6 11L7 11L7 10L8 10L8 12L4 12L4 11L5 11L5 8L4 8L4 9L3 9L3 8L1 8L1 9L0 9L0 11L1 11L1 12L0 12L0 14L1 14L1 15L0 15L0 18L1 18L1 19L0 19L0 20L2 20L2 24L3 24L3 25L4 25L4 27L3 27L3 28L2 28L2 27L1 27L1 26L2 26L2 25L1 25L1 24L0 24L0 25L1 25L1 26L0 26L0 27L1 27L1 28L0 28L0 29L1 29L1 28L2 28L2 29L3 29L3 28L4 28L4 27L8 27L8 26L6 26L6 25L9 25L9 26L10 26L10 27L11 27L11 28L12 28L12 29L10 29L10 28L9 28L9 29L8 29L8 31L9 31L9 32L8 32L8 33L9 33L9 34L8 34L8 36L9 36L9 37L10 37L10 36L9 36L9 34L11 34L11 33L10 33L10 30L12 30L12 31L11 31L11 32L13 32L13 33L15 33L15 34L12 34L12 36L11 36L11 37L12 37L12 36L13 36L13 37L14 37L14 35L15 35L15 34L17 34L17 35L16 35L16 36L15 36L15 37L16 37L16 36L17 36L17 37L19 37L19 36L20 36L20 35L19 35L19 34L20 34L20 31L22 31L22 30L21 30L21 27L22 27L22 26L23 26L23 24L24 24L24 26L25 26L25 24L26 24L26 26L27 26L27 27L23 27L23 28L25 28L25 29L26 29L26 28L27 28L27 31L23 31L23 32L24 32L24 33L23 33L23 34L22 34L22 33L21 33L21 34L22 34L22 35L21 35L21 36L22 36L22 37L25 37L25 35L26 35L26 34L27 34L27 35L28 35L28 37L29 37L29 36L30 36L30 35L29 35L29 34L27 34L27 31L28 31L28 33L31 33L31 37L34 37L34 35L33 35L33 34L34 34L34 33L33 33L33 28L32 28L32 27L33 27L33 26L32 26L32 25L33 25L33 24L30 24L30 25L31 25L31 26L29 26L29 22L30 22L30 23L31 23L31 22L32 22L32 19L31 19L31 18L32 18L32 17L31 17L31 16L29 16L29 20L28 20L28 19L27 19L27 18L26 18L26 17L27 17L27 16L26 16L26 15L27 15L27 14L28 14L28 15L30 15L30 14L31 14L31 15L33 15L33 14L31 14L31 12L30 12L30 11L31 11L31 10L30 10L30 9L31 9L31 8L30 8L30 9L29 9L29 10L30 10L30 11L29 11L29 12L28 12L28 11L27 11L27 10L28 10L28 9L27 9L27 10L26 10L26 9L25 9L25 12L24 12L24 15L25 15L25 18L26 18L26 19L25 19L25 20L26 20L26 21L25 21L25 22L26 22L26 23L25 23L25 24L24 24L24 23L23 23L23 22L24 22L24 21L23 21L23 20L24 20L24 19L23 19L23 20L22 20L22 19L20 19L20 18L24 18L24 17L23 17L23 9L24 9L24 8L25 8L25 6L24 6L24 8L22 8L22 7L23 7L23 6L22 6L22 5L23 5L23 3L24 3L24 2ZM15 5L15 6L16 6L16 7L17 7L17 6L16 6L16 5ZM21 6L21 7L22 7L22 6ZM27 6L27 7L28 7L28 6ZM32 8L32 10L33 10L33 11L32 11L32 12L33 12L33 13L35 13L35 12L34 12L34 11L35 11L35 10L34 10L34 9L36 9L36 15L35 15L35 14L34 14L34 15L35 15L35 17L33 17L33 18L34 18L34 19L35 19L35 25L34 25L34 26L35 26L35 25L36 25L36 28L35 28L35 27L34 27L34 29L36 29L36 31L37 31L37 25L36 25L36 24L37 24L37 23L36 23L36 21L37 21L37 20L36 20L36 19L37 19L37 16L36 16L36 15L37 15L37 8ZM1 9L1 10L2 10L2 11L4 11L4 10L2 10L2 9ZM20 10L20 12L19 12L19 13L20 13L20 15L22 15L22 14L21 14L21 13L22 13L22 12L21 12L21 11L22 11L22 10ZM1 12L1 14L4 14L4 15L1 15L1 16L2 16L2 17L1 17L1 18L2 18L2 17L3 17L3 19L5 19L5 20L8 20L8 21L10 21L10 22L7 22L7 21L4 21L4 20L3 20L3 21L4 21L4 22L3 22L3 24L5 24L5 23L6 23L6 24L8 24L8 23L10 23L10 24L11 24L11 23L12 23L12 22L13 22L13 23L14 23L14 24L15 24L15 25L13 25L13 26L15 26L15 27L16 27L16 29L15 29L15 32L16 32L16 31L17 31L17 32L18 32L18 34L19 34L19 32L18 32L18 31L20 31L20 30L18 30L18 29L20 29L20 28L19 28L19 27L21 27L21 26L22 26L22 25L21 25L21 24L20 24L20 25L18 25L18 24L19 24L19 23L20 23L20 22L18 22L18 24L17 24L17 22L15 22L15 21L17 21L17 19L14 19L14 20L15 20L15 21L12 21L12 20L13 20L13 18L14 18L14 17L12 17L12 16L11 16L11 17L12 17L12 18L11 18L11 19L10 19L10 20L8 20L8 19L9 19L9 18L10 18L10 16L8 16L8 17L9 17L9 18L8 18L8 19L5 19L5 18L7 18L7 17L5 17L5 18L4 18L4 16L5 16L5 15L6 15L6 16L7 16L7 15L6 15L6 14L7 14L7 13L3 13L3 12ZM13 12L13 13L14 13L14 12ZM27 12L27 13L26 13L26 14L27 14L27 13L28 13L28 14L29 14L29 13L28 13L28 12ZM17 16L17 17L16 17L16 18L18 18L18 19L19 19L19 20L20 20L20 21L21 21L21 20L20 20L20 19L19 19L19 17L22 17L22 16L19 16L19 17L18 17L18 16ZM30 19L30 20L31 20L31 19ZM22 21L22 22L21 22L21 23L22 23L22 24L23 24L23 23L22 23L22 22L23 22L23 21ZM27 21L27 23L28 23L28 21ZM0 22L0 23L1 23L1 22ZM4 22L4 23L5 23L5 22ZM6 22L6 23L7 23L7 22ZM10 22L10 23L11 23L11 22ZM14 22L14 23L15 23L15 22ZM33 22L33 23L34 23L34 22ZM16 24L16 25L15 25L15 26L17 26L17 24ZM27 24L27 25L28 25L28 24ZM10 25L10 26L11 26L11 25ZM20 25L20 26L21 26L21 25ZM12 27L12 28L13 28L13 29L14 29L14 27ZM17 27L17 29L18 29L18 27ZM27 27L27 28L28 28L28 27ZM6 28L6 29L7 29L7 28ZM29 29L29 32L32 32L32 29ZM30 30L30 31L31 31L31 30ZM34 30L34 31L35 31L35 30ZM13 31L13 32L14 32L14 31ZM35 32L35 34L36 34L36 35L35 35L35 37L37 37L37 36L36 36L36 35L37 35L37 33L36 33L36 32ZM25 33L25 34L26 34L26 33ZM18 35L18 36L19 36L19 35ZM23 35L23 36L24 36L24 35ZM32 35L32 36L33 36L33 35ZM0 0L0 7L7 7L7 0ZM1 1L1 6L6 6L6 1ZM2 2L2 5L5 5L5 2ZM30 0L30 7L37 7L37 0ZM31 1L31 6L36 6L36 1ZM32 2L32 5L35 5L35 2ZM0 30L0 37L7 37L7 30ZM1 31L1 36L6 36L6 31ZM2 32L2 35L5 35L5 32Z" fill="#000000"/></g></g></svg>
