<?xml version="1.0" encoding="UTF-8"?>
<svg xmlns="http://www.w3.org/2000/svg" version="1.1" width="300" height="300" viewBox="0 0 300 300"><rect x="0" y="0" width="300" height="300" fill="#ffffff"/><g transform="scale(6.122)"><g transform="translate(0,0)"><path fill-rule="evenodd" d="M8 0L8 1L9 1L9 4L8 4L8 7L9 7L9 5L10 5L10 8L9 8L9 9L8 9L8 8L1 8L1 9L0 9L0 10L1 10L1 11L0 11L0 13L2 13L2 14L3 14L3 15L2 15L2 16L3 16L3 17L4 17L4 16L3 16L3 15L4 15L4 14L3 14L3 11L4 11L4 10L5 10L5 11L7 11L7 12L5 12L5 13L9 13L9 14L6 14L6 15L5 15L5 16L6 16L6 17L7 17L7 18L6 18L6 19L5 19L5 20L6 20L6 21L5 21L5 22L3 22L3 24L2 24L2 23L1 23L1 21L2 21L2 20L1 20L1 19L3 19L3 21L4 21L4 19L3 19L3 18L1 18L1 15L0 15L0 18L1 18L1 19L0 19L0 20L1 20L1 21L0 21L0 26L1 26L1 24L2 24L2 27L1 27L1 28L0 28L0 29L1 29L1 30L5 30L5 29L7 29L7 28L9 28L9 30L10 30L10 31L9 31L9 32L10 32L10 33L11 33L11 34L10 34L10 35L9 35L9 36L6 36L6 35L7 35L7 34L9 34L9 33L7 33L7 32L8 32L8 31L7 31L7 30L6 30L6 31L5 31L5 32L4 32L4 31L0 31L0 32L2 32L2 33L3 33L3 36L2 36L2 37L5 37L5 39L7 39L7 38L8 38L8 40L6 40L6 41L8 41L8 48L9 48L9 49L10 49L10 48L11 48L11 49L12 49L12 48L11 48L11 47L10 47L10 45L11 45L11 46L12 46L12 47L13 47L13 46L14 46L14 48L15 48L15 49L18 49L18 46L19 46L19 47L20 47L20 49L21 49L21 48L22 48L22 46L23 46L23 45L27 45L27 44L29 44L29 45L28 45L28 46L27 46L27 49L28 49L28 48L29 48L29 49L30 49L30 47L28 47L28 46L31 46L31 47L32 47L32 48L31 48L31 49L32 49L32 48L33 48L33 49L34 49L34 47L37 47L37 48L35 48L35 49L38 49L38 48L40 48L40 49L41 49L41 46L40 46L40 45L42 45L42 46L43 46L43 47L42 47L42 48L43 48L43 47L44 47L44 48L45 48L45 49L49 49L49 45L48 45L48 44L46 44L46 46L45 46L45 43L46 43L46 42L45 42L45 41L48 41L48 40L45 40L45 39L44 39L44 37L45 37L45 38L46 38L46 37L47 37L47 36L48 36L48 37L49 37L49 34L47 34L47 36L46 36L46 34L45 34L45 35L44 35L44 34L42 34L42 33L41 33L41 32L42 32L42 31L43 31L43 33L47 33L47 32L44 32L44 30L43 30L43 29L45 29L45 28L44 28L44 27L45 27L45 25L47 25L47 26L46 26L46 27L47 27L47 26L48 26L48 28L49 28L49 26L48 26L48 24L45 24L45 23L46 23L46 22L47 22L47 23L49 23L49 22L47 22L47 20L48 20L48 21L49 21L49 18L47 18L47 17L48 17L48 16L45 16L45 13L44 13L44 12L46 12L46 13L48 13L48 12L46 12L46 11L44 11L44 10L43 10L43 9L45 9L45 8L43 8L43 9L42 9L42 10L41 10L41 11L42 11L42 12L43 12L43 13L42 13L42 14L40 14L40 13L41 13L41 12L38 12L38 13L39 13L39 14L36 14L36 13L37 13L37 12L36 12L36 13L35 13L35 14L34 14L34 13L33 13L33 14L34 14L34 16L33 16L33 15L32 15L32 12L33 12L33 11L32 11L32 12L31 12L31 11L30 11L30 10L32 10L32 9L30 9L30 8L32 8L32 7L33 7L33 10L34 10L34 12L35 12L35 10L36 10L36 11L37 11L37 10L38 10L38 11L39 11L39 10L38 10L38 9L37 9L37 8L38 8L38 7L39 7L39 5L38 5L38 3L35 3L35 2L37 2L37 1L38 1L38 2L39 2L39 4L40 4L40 3L41 3L41 0L40 0L40 1L38 1L38 0L35 0L35 1L31 1L31 0L29 0L29 1L31 1L31 2L32 2L32 3L33 3L33 4L37 4L37 6L36 6L36 7L35 7L35 5L33 5L33 6L32 6L32 7L31 7L31 6L30 6L30 5L32 5L32 4L30 4L30 2L28 2L28 1L27 1L27 0L26 0L26 1L24 1L24 0L23 0L23 2L22 2L22 1L20 1L20 2L19 2L19 0L16 0L16 1L15 1L15 0ZM10 1L10 3L12 3L12 4L13 4L13 5L12 5L12 6L11 6L11 9L10 9L10 10L12 10L12 11L11 11L11 12L12 12L12 15L13 15L13 16L14 16L14 17L12 17L12 18L15 18L15 17L16 17L16 20L15 20L15 19L13 19L13 20L10 20L10 19L11 19L11 18L10 18L10 17L11 17L11 16L10 16L10 14L9 14L9 15L8 15L8 16L7 16L7 15L6 15L6 16L7 16L7 17L8 17L8 18L10 18L10 19L9 19L9 20L10 20L10 21L8 21L8 20L7 20L7 19L6 19L6 20L7 20L7 21L6 21L6 22L10 22L10 23L13 23L13 25L9 25L9 26L11 26L11 27L10 27L10 28L11 28L11 29L10 29L10 30L11 30L11 31L10 31L10 32L11 32L11 33L13 33L13 32L11 32L11 31L12 31L12 29L13 29L13 28L14 28L14 29L15 29L15 30L14 30L14 31L15 31L15 32L14 32L14 34L15 34L15 35L14 35L14 36L12 36L12 34L11 34L11 35L10 35L10 37L11 37L11 36L12 36L12 37L13 37L13 39L12 39L12 38L9 38L9 37L8 37L8 38L9 38L9 40L8 40L8 41L9 41L9 40L10 40L10 39L11 39L11 41L10 41L10 42L9 42L9 44L10 44L10 42L11 42L11 41L12 41L12 40L14 40L14 41L13 41L13 42L12 42L12 44L11 44L11 45L12 45L12 46L13 46L13 45L12 45L12 44L14 44L14 45L15 45L15 46L16 46L16 45L15 45L15 44L17 44L17 45L18 45L18 44L17 44L17 43L18 43L18 42L19 42L19 40L20 40L20 41L21 41L21 40L23 40L23 39L24 39L24 38L23 38L23 39L22 39L22 34L24 34L24 36L23 36L23 37L26 37L26 38L25 38L25 39L27 39L27 40L28 40L28 42L27 42L27 43L29 43L29 42L30 42L30 41L29 41L29 40L30 40L30 39L31 39L31 42L32 42L32 43L33 43L33 44L32 44L32 47L33 47L33 46L35 46L35 44L37 44L37 43L35 43L35 41L36 41L36 40L38 40L38 41L37 41L37 42L38 42L38 43L40 43L40 41L39 41L39 40L44 40L44 39L38 39L38 38L39 38L39 36L40 36L40 37L41 37L41 36L42 36L42 37L44 37L44 35L42 35L42 34L39 34L39 33L38 33L38 32L40 32L40 31L41 31L41 30L42 30L42 29L41 29L41 28L40 28L40 27L38 27L38 26L40 26L40 24L39 24L39 23L40 23L40 22L41 22L41 21L42 21L42 17L41 17L41 16L43 16L43 14L42 14L42 15L41 15L41 16L39 16L39 17L40 17L40 18L36 18L36 16L37 16L37 17L38 17L38 16L37 16L37 15L36 15L36 14L35 14L35 15L36 15L36 16L35 16L35 18L34 18L34 17L33 17L33 16L31 16L31 14L27 14L27 13L26 13L26 12L29 12L29 13L31 13L31 12L30 12L30 11L29 11L29 10L30 10L30 9L29 9L29 8L30 8L30 6L29 6L29 7L28 7L28 6L27 6L27 7L28 7L28 8L27 8L27 9L26 9L26 10L27 10L27 11L26 11L26 12L23 12L23 13L24 13L24 14L23 14L23 15L22 15L22 14L21 14L21 11L22 11L22 10L23 10L23 9L22 9L22 6L21 6L21 8L20 8L20 5L21 5L21 4L18 4L18 6L17 6L17 5L16 5L16 6L15 6L15 2L13 2L13 1L12 1L12 2L11 2L11 1ZM16 1L16 3L17 3L17 2L18 2L18 1ZM12 2L12 3L13 3L13 2ZM24 2L24 4L25 4L25 3L27 3L27 4L28 4L28 5L29 5L29 3L28 3L28 2ZM33 2L33 3L34 3L34 2ZM22 3L22 4L23 4L23 3ZM10 4L10 5L11 5L11 4ZM13 5L13 6L12 6L12 7L13 7L13 6L14 6L14 7L15 7L15 9L19 9L19 11L17 11L17 10L14 10L14 9L13 9L13 10L14 10L14 11L13 11L13 12L14 12L14 11L17 11L17 12L16 12L16 13L15 13L15 14L16 14L16 15L19 15L19 19L18 19L18 18L17 18L17 20L16 20L16 21L14 21L14 22L15 22L15 23L14 23L14 25L13 25L13 26L12 26L12 27L11 27L11 28L12 28L12 27L14 27L14 25L15 25L15 27L16 27L16 29L17 29L17 28L18 28L18 32L16 32L16 35L15 35L15 36L16 36L16 38L17 38L17 37L18 37L18 39L16 39L16 40L15 40L15 41L14 41L14 42L13 42L13 43L14 43L14 42L15 42L15 43L17 43L17 41L18 41L18 40L19 40L19 37L20 37L20 40L21 40L21 36L20 36L20 35L21 35L21 34L22 34L22 33L23 33L23 31L21 31L21 30L20 30L20 29L19 29L19 28L20 28L20 27L22 27L22 28L21 28L21 29L22 29L22 30L24 30L24 29L25 29L25 28L26 28L26 31L25 31L25 33L24 33L24 34L25 34L25 36L26 36L26 34L28 34L28 35L27 35L27 36L29 36L29 37L28 37L28 38L29 38L29 39L28 39L28 40L29 40L29 39L30 39L30 38L31 38L31 39L32 39L32 40L34 40L34 39L35 39L35 40L36 40L36 39L37 39L37 38L38 38L38 36L39 36L39 34L38 34L38 33L37 33L37 34L38 34L38 36L35 36L35 35L36 35L36 34L34 34L34 31L35 31L35 30L36 30L36 32L35 32L35 33L36 33L36 32L37 32L37 30L38 30L38 31L40 31L40 30L38 30L38 29L40 29L40 28L38 28L38 29L37 29L37 28L36 28L36 26L37 26L37 24L38 24L38 23L39 23L39 22L38 22L38 23L37 23L37 21L41 21L41 20L40 20L40 19L37 19L37 20L36 20L36 21L35 21L35 22L33 22L33 21L32 21L32 22L31 22L31 20L30 20L30 19L32 19L32 20L34 20L34 18L32 18L32 17L31 17L31 18L30 18L30 17L29 17L29 16L30 16L30 15L28 15L28 17L27 17L27 18L25 18L25 17L26 17L26 13L25 13L25 17L23 17L23 16L24 16L24 15L23 15L23 16L22 16L22 17L23 17L23 18L25 18L25 19L24 19L24 20L23 20L23 19L22 19L22 18L21 18L21 17L20 17L20 15L21 15L21 14L20 14L20 12L19 12L19 11L21 11L21 10L20 10L20 9L19 9L19 8L17 8L17 6L16 6L16 7L15 7L15 6L14 6L14 5ZM23 5L23 8L26 8L26 5ZM18 6L18 7L19 7L19 6ZM24 6L24 7L25 7L25 6ZM33 6L33 7L34 7L34 6ZM37 6L37 7L38 7L38 6ZM40 6L40 7L41 7L41 6ZM34 8L34 10L35 10L35 9L36 9L36 8ZM39 8L39 9L41 9L41 8ZM48 8L48 9L46 9L46 10L48 10L48 11L49 11L49 10L48 10L48 9L49 9L49 8ZM3 9L3 10L2 10L2 11L3 11L3 10L4 10L4 9ZM5 9L5 10L7 10L7 9ZM24 10L24 11L25 11L25 10ZM42 10L42 11L43 11L43 12L44 12L44 11L43 11L43 10ZM8 11L8 12L10 12L10 11ZM17 12L17 13L16 13L16 14L19 14L19 12ZM13 13L13 14L14 14L14 13ZM47 14L47 15L49 15L49 14ZM16 16L16 17L18 17L18 16ZM44 16L44 17L45 17L45 16ZM28 17L28 20L27 20L27 21L26 21L26 22L27 22L27 21L29 21L29 19L30 19L30 18L29 18L29 17ZM20 18L20 19L21 19L21 21L20 21L20 20L17 20L17 21L16 21L16 27L18 27L18 26L20 26L20 25L19 25L19 24L20 24L20 23L22 23L22 22L25 22L25 21L23 21L23 20L22 20L22 19L21 19L21 18ZM46 18L46 19L45 19L45 20L44 20L44 21L43 21L43 22L46 22L46 20L47 20L47 18ZM25 19L25 20L26 20L26 19ZM12 21L12 22L13 22L13 21ZM18 21L18 22L17 22L17 23L18 23L18 22L19 22L19 23L20 23L20 21ZM21 21L21 22L22 22L22 21ZM28 22L28 23L27 23L27 24L28 24L28 25L27 25L27 26L28 26L28 27L27 27L27 28L28 28L28 29L27 29L27 30L28 30L28 32L27 32L27 33L28 33L28 32L29 32L29 34L30 34L30 35L29 35L29 36L30 36L30 35L31 35L31 34L32 34L32 33L31 33L31 34L30 34L30 32L29 32L29 31L31 31L31 32L33 32L33 30L35 30L35 27L34 27L34 26L36 26L36 25L34 25L34 23L33 23L33 22L32 22L32 23L31 23L31 22L30 22L30 23L31 23L31 24L32 24L32 25L33 25L33 28L32 28L32 27L31 27L31 26L29 26L29 25L30 25L30 24L29 24L29 22ZM5 23L5 26L8 26L8 23ZM23 23L23 26L26 26L26 23ZM32 23L32 24L33 24L33 23ZM35 23L35 24L37 24L37 23ZM41 23L41 26L44 26L44 23ZM3 24L3 25L4 25L4 24ZM6 24L6 25L7 25L7 24ZM24 24L24 25L25 25L25 24ZM42 24L42 25L43 25L43 24ZM17 25L17 26L18 26L18 25ZM3 26L3 27L4 27L4 28L3 28L3 29L4 29L4 28L7 28L7 27L4 27L4 26ZM23 27L23 29L24 29L24 27ZM28 27L28 28L29 28L29 30L31 30L31 31L32 31L32 28L31 28L31 27L30 27L30 28L29 28L29 27ZM42 27L42 28L43 28L43 27ZM30 28L30 29L31 29L31 28ZM33 28L33 29L34 29L34 28ZM46 28L46 31L47 31L47 28ZM48 30L48 33L49 33L49 30ZM6 31L6 32L7 32L7 31ZM19 31L19 35L20 35L20 32L21 32L21 31ZM0 33L0 38L1 38L1 40L0 40L0 41L3 41L3 40L4 40L4 39L2 39L2 38L1 38L1 33ZM6 33L6 34L5 34L5 35L4 35L4 36L5 36L5 35L6 35L6 34L7 34L7 33ZM25 33L25 34L26 34L26 33ZM17 34L17 35L16 35L16 36L18 36L18 37L19 37L19 36L18 36L18 34ZM33 34L33 35L34 35L34 34ZM40 35L40 36L41 36L41 35ZM31 36L31 37L34 37L34 38L32 38L32 39L34 39L34 38L35 38L35 39L36 39L36 38L37 38L37 37L36 37L36 38L35 38L35 36ZM45 36L45 37L46 37L46 36ZM6 37L6 38L7 38L7 37ZM29 37L29 38L30 38L30 37ZM14 38L14 39L15 39L15 38ZM47 38L47 39L49 39L49 38ZM16 40L16 41L15 41L15 42L16 42L16 41L17 41L17 40ZM23 41L23 44L26 44L26 41ZM33 41L33 42L34 42L34 41ZM41 41L41 44L44 44L44 41ZM20 42L20 44L19 44L19 45L20 45L20 46L21 46L21 45L22 45L22 42ZM24 42L24 43L25 43L25 42ZM42 42L42 43L43 43L43 42ZM47 42L47 43L49 43L49 42ZM34 43L34 44L33 44L33 45L34 45L34 44L35 44L35 43ZM20 44L20 45L21 45L21 44ZM38 45L38 46L37 46L37 47L38 47L38 46L39 46L39 47L40 47L40 46L39 46L39 45ZM43 45L43 46L44 46L44 47L45 47L45 48L48 48L48 47L47 47L47 46L46 46L46 47L45 47L45 46L44 46L44 45ZM24 46L24 47L23 47L23 48L24 48L24 49L25 49L25 48L26 48L26 47L25 47L25 46ZM16 47L16 48L17 48L17 47ZM24 47L24 48L25 48L25 47ZM0 0L0 7L7 7L7 0ZM1 1L1 6L6 6L6 1ZM2 2L2 5L5 5L5 2ZM42 0L42 7L49 7L49 0ZM43 1L43 6L48 6L48 1ZM44 2L44 5L47 5L47 2ZM0 42L0 49L7 49L7 42ZM1 43L1 48L6 48L6 43ZM2 44L2 47L5 47L5 44Z" fill="#000000"/></g></g></svg>
