<?xml version="1.0" encoding="UTF-8"?>
<svg xmlns="http://www.w3.org/2000/svg" version="1.1" width="300" height="300" viewBox="0 0 300 300"><rect x="0" y="0" width="300" height="300" fill="#ffffff"/><g transform="scale(6.122)"><g transform="translate(0,0)"><path fill-rule="evenodd" d="M8 0L8 1L10 1L10 3L9 3L9 4L8 4L8 7L9 7L9 8L10 8L10 9L8 9L8 8L1 8L1 9L0 9L0 10L1 10L1 9L3 9L3 10L2 10L2 11L1 11L1 12L2 12L2 11L5 11L5 12L4 12L4 14L2 14L2 13L1 13L1 14L0 14L0 16L3 16L3 17L4 17L4 18L6 18L6 19L7 19L7 20L6 20L6 21L7 21L7 22L3 22L3 24L2 24L2 23L1 23L1 21L2 21L2 20L1 20L1 19L3 19L3 21L4 21L4 19L3 19L3 18L1 18L1 19L0 19L0 20L1 20L1 21L0 21L0 27L1 27L1 28L2 28L2 26L1 26L1 24L2 24L2 25L3 25L3 26L4 26L4 27L5 27L5 28L3 28L3 29L4 29L4 30L5 30L5 29L7 29L7 30L6 30L6 31L5 31L5 32L4 32L4 33L3 33L3 30L0 30L0 33L1 33L1 35L2 35L2 36L1 36L1 40L0 40L0 41L3 41L3 40L4 40L4 39L2 39L2 38L3 38L3 36L4 36L4 35L5 35L5 36L6 36L6 37L5 37L5 39L7 39L7 38L6 38L6 37L8 37L8 38L11 38L11 37L12 37L12 40L13 40L13 41L11 41L11 42L10 42L10 40L11 40L11 39L9 39L9 41L8 41L8 40L6 40L6 41L8 41L8 48L9 48L9 49L10 49L10 48L11 48L11 49L12 49L12 46L14 46L14 48L15 48L15 49L18 49L18 46L20 46L20 47L21 47L21 48L20 48L20 49L21 49L21 48L22 48L22 46L23 46L23 45L27 45L27 44L29 44L29 45L28 45L28 46L27 46L27 49L28 49L28 48L29 48L29 49L30 49L30 47L28 47L28 46L31 46L31 47L32 47L32 48L31 48L31 49L32 49L32 48L33 48L33 49L34 49L34 47L37 47L37 48L35 48L35 49L38 49L38 48L39 48L39 49L40 49L40 48L39 48L39 47L40 47L40 46L38 46L38 45L42 45L42 48L41 48L41 49L42 49L42 48L43 48L43 47L44 47L44 48L45 48L45 49L49 49L49 45L48 45L48 44L46 44L46 46L45 46L45 43L46 43L46 42L45 42L45 41L46 41L46 40L47 40L47 41L48 41L48 40L47 40L47 39L49 39L49 38L47 38L47 36L48 36L48 37L49 37L49 34L47 34L47 36L46 36L46 35L44 35L44 34L42 34L42 33L41 33L41 32L42 32L42 31L44 31L44 30L43 30L43 29L44 29L44 27L45 27L45 25L47 25L47 26L46 26L46 27L47 27L47 28L46 28L46 31L49 31L49 30L47 30L47 29L49 29L49 26L48 26L48 25L47 25L47 24L48 24L48 23L49 23L49 22L47 22L47 20L48 20L48 21L49 21L49 18L47 18L47 17L48 17L48 16L47 16L47 17L46 17L46 14L47 14L47 15L49 15L49 14L47 14L47 13L48 13L48 12L45 12L45 11L44 11L44 12L39 12L39 14L38 14L38 15L39 15L39 17L40 17L40 18L39 18L39 19L38 19L38 18L36 18L36 17L38 17L38 16L36 16L36 17L35 17L35 18L36 18L36 19L37 19L37 20L36 20L36 21L35 21L35 22L33 22L33 21L32 21L32 22L31 22L31 20L30 20L30 19L31 19L31 17L32 17L32 16L34 16L34 15L35 15L35 14L36 14L36 15L37 15L37 14L36 14L36 13L37 13L37 12L38 12L38 11L39 11L39 10L38 10L38 9L41 9L41 8L38 8L38 9L37 9L37 10L38 10L38 11L37 11L37 12L35 12L35 14L34 14L34 13L33 13L33 14L34 14L34 15L32 15L32 16L31 16L31 15L30 15L30 14L32 14L32 13L30 13L30 14L29 14L29 12L33 12L33 11L36 11L36 10L33 10L33 8L31 8L31 6L30 6L30 5L32 5L32 4L30 4L30 2L29 2L29 1L31 1L31 2L32 2L32 3L33 3L33 4L37 4L37 6L36 6L36 8L35 8L35 5L33 5L33 6L32 6L32 7L33 7L33 6L34 6L34 8L35 8L35 9L36 9L36 8L37 8L37 6L38 6L38 7L39 7L39 5L38 5L38 3L35 3L35 2L37 2L37 1L38 1L38 2L39 2L39 4L40 4L40 3L41 3L41 0L40 0L40 1L38 1L38 0L35 0L35 1L31 1L31 0L29 0L29 1L28 1L28 0L27 0L27 1L26 1L26 0L25 0L25 2L27 2L27 3L25 3L25 4L24 4L24 2L23 2L23 3L22 3L22 5L20 5L20 8L19 8L19 9L17 9L17 8L18 8L18 7L19 7L19 6L18 6L18 5L19 5L19 4L21 4L21 2L22 2L22 1L24 1L24 0L21 0L21 1L20 1L20 2L19 2L19 0L16 0L16 1L15 1L15 0ZM12 1L12 2L11 2L11 3L12 3L12 4L13 4L13 3L12 3L12 2L13 2L13 1ZM14 1L14 3L15 3L15 1ZM16 1L16 3L17 3L17 5L16 5L16 6L15 6L15 7L14 7L14 6L13 6L13 5L12 5L12 6L11 6L11 4L10 4L10 6L9 6L9 7L10 7L10 6L11 6L11 8L13 8L13 7L14 7L14 11L15 11L15 12L17 12L17 14L16 14L16 13L14 13L14 12L10 12L10 11L8 11L8 10L7 10L7 9L4 9L4 10L7 10L7 11L6 11L6 12L5 12L5 13L6 13L6 14L4 14L4 15L3 15L3 16L4 16L4 15L6 15L6 16L7 16L7 17L6 17L6 18L7 18L7 17L8 17L8 18L10 18L10 19L9 19L9 20L10 20L10 21L9 21L9 22L10 22L10 23L11 23L11 24L13 24L13 25L9 25L9 26L10 26L10 27L9 27L9 28L10 28L10 29L9 29L9 30L10 30L10 29L11 29L11 31L8 31L8 32L7 32L7 31L6 31L6 32L7 32L7 33L6 33L6 34L5 34L5 35L6 35L6 36L8 36L8 37L9 37L9 36L8 36L8 34L7 34L7 33L9 33L9 34L10 34L10 37L11 37L11 34L14 34L14 33L13 33L13 32L14 32L14 31L13 31L13 32L11 32L11 31L12 31L12 29L13 29L13 27L12 27L12 26L13 26L13 25L14 25L14 27L15 27L15 33L16 33L16 34L17 34L17 33L18 33L18 34L19 34L19 33L20 33L20 32L22 32L22 31L23 31L23 32L24 32L24 33L21 33L21 34L20 34L20 35L19 35L19 36L18 36L18 35L15 35L15 36L16 36L16 37L13 37L13 39L14 39L14 38L15 38L15 40L16 40L16 42L15 42L15 41L14 41L14 43L13 43L13 42L11 42L11 45L10 45L10 47L11 47L11 45L13 45L13 44L14 44L14 45L15 45L15 46L16 46L16 45L18 45L18 44L17 44L17 43L18 43L18 42L17 42L17 38L18 38L18 41L19 41L19 39L20 39L20 41L21 41L21 40L22 40L22 39L23 39L23 40L24 40L24 39L25 39L25 38L26 38L26 37L25 37L25 36L24 36L24 33L25 33L25 32L26 32L26 36L27 36L27 38L28 38L28 39L27 39L27 40L28 40L28 42L27 42L27 43L30 43L30 42L31 42L31 43L33 43L33 44L32 44L32 47L33 47L33 46L35 46L35 44L37 44L37 43L40 43L40 41L39 41L39 42L37 42L37 41L38 41L38 40L37 40L37 39L36 39L36 40L35 40L35 41L36 41L36 42L34 42L34 41L33 41L33 40L34 40L34 39L33 39L33 38L36 38L36 36L37 36L37 35L38 35L38 34L39 34L39 36L38 36L38 37L37 37L37 38L39 38L39 36L40 36L40 37L41 37L41 39L39 39L39 40L41 40L41 39L42 39L42 40L43 40L43 39L44 39L44 40L46 40L46 39L44 39L44 38L46 38L46 37L44 37L44 36L43 36L43 35L42 35L42 34L39 34L39 32L40 32L40 31L41 31L41 30L42 30L42 29L38 29L38 28L41 28L41 27L40 27L40 26L39 26L39 24L40 24L40 22L41 22L41 21L42 21L42 18L43 18L43 14L42 14L42 13L40 13L40 14L42 14L42 16L40 16L40 17L42 17L42 18L41 18L41 21L37 21L37 23L35 23L35 24L37 24L37 26L36 26L36 25L34 25L34 23L33 23L33 22L32 22L32 23L31 23L31 22L30 22L30 23L31 23L31 24L32 24L32 25L33 25L33 28L32 28L32 27L31 27L31 26L29 26L29 28L28 28L28 26L27 26L27 28L26 28L26 27L24 27L24 28L26 28L26 29L27 29L27 30L28 30L28 31L27 31L27 32L26 32L26 31L25 31L25 32L24 32L24 30L25 30L25 29L23 29L23 30L22 30L22 29L21 29L21 27L20 27L20 28L19 28L19 26L20 26L20 25L19 25L19 24L21 24L21 26L22 26L22 23L21 23L21 22L22 22L22 21L24 21L24 22L26 22L26 21L27 21L27 23L28 23L28 24L27 24L27 25L28 25L28 24L29 24L29 25L30 25L30 24L29 24L29 21L28 21L28 20L29 20L29 18L30 18L30 17L28 17L28 15L29 15L29 16L30 16L30 15L29 15L29 14L27 14L27 13L26 13L26 12L29 12L29 11L31 11L31 10L32 10L32 9L31 9L31 8L30 8L30 6L29 6L29 5L27 5L27 9L23 9L23 10L21 10L21 8L22 8L22 6L21 6L21 8L20 8L20 10L19 10L19 12L20 12L20 13L19 13L19 18L18 18L18 15L17 15L17 14L18 14L18 12L17 12L17 10L16 10L16 9L15 9L15 7L16 7L16 6L17 6L17 7L18 7L18 6L17 6L17 5L18 5L18 3L17 3L17 2L18 2L18 1ZM27 1L27 2L28 2L28 3L27 3L27 4L29 4L29 2L28 2L28 1ZM33 2L33 3L34 3L34 2ZM23 5L23 8L26 8L26 5ZM12 6L12 7L13 7L13 6ZM24 6L24 7L25 7L25 6ZM28 6L28 7L29 7L29 6ZM40 6L40 7L41 7L41 6ZM43 8L43 9L42 9L42 10L41 10L41 11L42 11L42 10L43 10L43 9L44 9L44 10L45 10L45 8ZM48 8L48 9L49 9L49 8ZM10 9L10 10L12 10L12 9ZM28 9L28 10L29 10L29 9ZM30 9L30 10L31 10L31 9ZM15 10L15 11L16 11L16 10ZM20 10L20 11L21 11L21 13L20 13L20 14L22 14L22 15L23 15L23 16L22 16L22 17L23 17L23 18L25 18L25 19L26 19L26 20L27 20L27 19L28 19L28 17L27 17L27 18L25 18L25 17L26 17L26 13L25 13L25 17L23 17L23 16L24 16L24 15L23 15L23 14L24 14L24 13L23 13L23 12L26 12L26 10L25 10L25 11L23 11L23 12L22 12L22 11L21 11L21 10ZM48 10L48 11L49 11L49 10ZM7 11L7 12L6 12L6 13L9 13L9 14L6 14L6 15L7 15L7 16L8 16L8 15L9 15L9 17L12 17L12 18L13 18L13 19L15 19L15 20L19 20L19 21L18 21L18 22L15 22L15 21L14 21L14 22L15 22L15 23L14 23L14 25L15 25L15 27L16 27L16 29L19 29L19 30L17 30L17 32L16 32L16 33L17 33L17 32L18 32L18 33L19 33L19 31L21 31L21 30L20 30L20 29L19 29L19 28L18 28L18 25L17 25L17 27L16 27L16 24L17 24L17 23L18 23L18 22L21 22L21 21L20 21L20 20L19 20L19 19L18 19L18 18L16 18L16 17L15 17L15 16L13 16L13 15L14 15L14 14L13 14L13 13L12 13L12 14L11 14L11 13L10 13L10 12L8 12L8 11ZM44 12L44 13L45 13L45 12ZM1 14L1 15L2 15L2 14ZM10 14L10 15L11 15L11 16L12 16L12 15L11 15L11 14ZM16 15L16 16L17 16L17 15ZM44 16L44 17L45 17L45 16ZM13 17L13 18L15 18L15 17ZM33 17L33 18L32 18L32 20L34 20L34 19L33 19L33 18L34 18L34 17ZM20 18L20 19L22 19L22 20L24 20L24 19L22 19L22 18ZM46 18L46 19L45 19L45 20L44 20L44 21L43 21L43 22L46 22L46 23L45 23L45 24L47 24L47 22L46 22L46 20L47 20L47 18ZM10 19L10 20L11 20L11 21L12 21L12 22L11 22L11 23L13 23L13 20L11 20L11 19ZM39 19L39 20L40 20L40 19ZM38 22L38 23L37 23L37 24L38 24L38 23L39 23L39 22ZM5 23L5 26L8 26L8 23ZM23 23L23 26L26 26L26 23ZM32 23L32 24L33 24L33 23ZM41 23L41 26L44 26L44 23ZM3 24L3 25L4 25L4 24ZM6 24L6 25L7 25L7 24ZM24 24L24 25L25 25L25 24ZM42 24L42 25L43 25L43 24ZM34 26L34 27L35 27L35 30L33 30L33 32L34 32L34 33L35 33L35 34L33 34L33 35L31 35L31 36L29 36L29 35L30 35L30 34L32 34L32 33L31 33L31 32L32 32L32 28L31 28L31 27L30 27L30 28L29 28L29 30L31 30L31 32L30 32L30 31L29 31L29 33L30 33L30 34L29 34L29 35L28 35L28 34L27 34L27 36L29 36L29 37L28 37L28 38L29 38L29 39L28 39L28 40L30 40L30 38L31 38L31 36L36 36L36 35L37 35L37 34L38 34L38 31L40 31L40 30L38 30L38 29L37 29L37 28L36 28L36 26ZM38 26L38 27L39 27L39 26ZM47 26L47 27L48 27L48 26ZM6 27L6 28L8 28L8 27ZM10 27L10 28L12 28L12 27ZM22 27L22 28L23 28L23 27ZM42 27L42 28L43 28L43 27ZM27 28L27 29L28 29L28 28ZM30 28L30 29L31 29L31 28ZM33 28L33 29L34 29L34 28ZM35 30L35 31L34 31L34 32L35 32L35 33L36 33L36 32L35 32L35 31L36 31L36 30ZM37 30L37 31L38 31L38 30ZM27 32L27 33L28 33L28 32ZM43 32L43 33L45 33L45 34L46 34L46 33L47 33L47 32ZM48 32L48 33L49 33L49 32ZM2 33L2 34L3 34L3 33ZM10 33L10 34L11 34L11 33ZM6 34L6 35L7 35L7 34ZM35 34L35 35L36 35L36 34ZM13 35L13 36L14 36L14 35ZM20 35L20 37L22 37L22 36L23 36L23 35ZM40 35L40 36L41 36L41 37L42 37L42 39L43 39L43 38L44 38L44 37L43 37L43 36L41 36L41 35ZM16 37L16 38L17 38L17 37ZM18 37L18 38L19 38L19 37ZM23 37L23 39L24 39L24 37ZM29 37L29 38L30 38L30 37ZM32 37L32 38L33 38L33 37ZM20 38L20 39L21 39L21 38ZM31 39L31 40L33 40L33 39ZM36 40L36 41L37 41L37 40ZM23 41L23 44L26 44L26 41ZM29 41L29 42L30 42L30 41ZM31 41L31 42L32 42L32 41ZM41 41L41 44L44 44L44 41ZM9 42L9 44L10 44L10 42ZM16 42L16 43L17 43L17 42ZM19 42L19 44L21 44L21 45L20 45L20 46L21 46L21 45L22 45L22 42L21 42L21 43L20 43L20 42ZM24 42L24 43L25 43L25 42ZM33 42L33 43L34 43L34 44L33 44L33 45L34 45L34 44L35 44L35 43L34 43L34 42ZM36 42L36 43L37 43L37 42ZM42 42L42 43L43 43L43 42ZM47 42L47 43L49 43L49 42ZM12 43L12 44L13 44L13 43ZM15 44L15 45L16 45L16 44ZM43 45L43 46L44 46L44 47L45 47L45 48L48 48L48 47L47 47L47 46L46 46L46 47L45 47L45 46L44 46L44 45ZM24 46L24 47L23 47L23 48L24 48L24 49L25 49L25 48L26 48L26 47L25 47L25 46ZM37 46L37 47L38 47L38 46ZM16 47L16 48L17 48L17 47ZM24 47L24 48L25 48L25 47ZM0 0L0 7L7 7L7 0ZM1 1L1 6L6 6L6 1ZM2 2L2 5L5 5L5 2ZM42 0L42 7L49 7L49 0ZM43 1L43 6L48 6L48 1ZM44 2L44 5L47 5L47 2ZM0 42L0 49L7 49L7 42ZM1 43L1 48L6 48L6 43ZM2 44L2 47L5 47L5 44Z" fill="#000000"/></g></g></svg>
