<?xml version="1.0" encoding="UTF-8"?>
<svg xmlns="http://www.w3.org/2000/svg" version="1.1" width="300" height="300" viewBox="0 0 300 300"><rect x="0" y="0" width="300" height="300" fill="#ffffff"/><g transform="scale(8.108)"><g transform="translate(0,0)"><path fill-rule="evenodd" d="M8 0L8 1L11 1L11 2L12 2L12 3L13 3L13 4L14 4L14 3L13 3L13 2L14 2L14 1L15 1L15 0L14 0L14 1L12 1L12 0ZM17 0L17 1L16 1L16 4L15 4L15 5L13 5L13 6L12 6L12 5L11 5L11 3L10 3L10 2L8 2L8 4L9 4L9 3L10 3L10 5L8 5L8 8L5 8L5 9L4 9L4 8L3 8L3 9L2 9L2 8L1 8L1 9L0 9L0 10L1 10L1 9L2 9L2 10L5 10L5 13L2 13L2 12L1 12L1 13L0 13L0 14L1 14L1 15L0 15L0 16L2 16L2 17L0 17L0 18L1 18L1 19L0 19L0 20L1 20L1 22L0 22L0 23L2 23L2 24L3 24L3 25L4 25L4 27L3 27L3 26L2 26L2 27L1 27L1 26L0 26L0 27L1 27L1 28L0 28L0 29L8 29L8 32L9 32L9 33L8 33L8 34L9 34L9 33L10 33L10 37L13 37L13 36L14 36L14 37L15 37L15 36L14 36L14 35L15 35L15 34L16 34L16 33L17 33L17 35L16 35L16 36L18 36L18 37L19 37L19 36L22 36L22 37L25 37L25 33L26 33L26 34L27 34L27 33L26 33L26 32L27 32L27 31L28 31L28 34L29 34L29 33L32 33L32 34L31 34L31 35L30 35L30 36L29 36L29 35L28 35L28 37L31 37L31 36L32 36L32 37L34 37L34 32L35 32L35 31L33 31L33 28L32 28L32 26L30 26L30 27L29 27L29 26L28 26L28 25L29 25L29 24L30 24L30 25L33 25L33 23L34 23L34 22L32 22L32 23L31 23L31 19L32 19L32 18L33 18L33 17L36 17L36 18L35 18L35 19L34 19L34 20L36 20L36 21L35 21L35 23L36 23L36 24L35 24L35 25L36 25L36 26L35 26L35 27L34 27L34 28L36 28L36 29L35 29L35 30L36 30L36 31L37 31L37 25L36 25L36 24L37 24L37 23L36 23L36 21L37 21L37 20L36 20L36 19L37 19L37 16L36 16L36 15L37 15L37 8L36 8L36 9L35 9L35 8L33 8L33 9L32 9L32 8L29 8L29 10L28 10L28 9L27 9L27 8L28 8L28 7L29 7L29 5L28 5L28 4L29 4L29 3L28 3L28 2L29 2L29 0L27 0L27 1L26 1L26 0L25 0L25 4L26 4L26 5L27 5L27 6L26 6L26 7L25 7L25 6L24 6L24 5L23 5L23 4L22 4L22 7L21 7L21 5L20 5L20 4L17 4L17 1L18 1L18 2L19 2L19 0ZM20 0L20 3L21 3L21 0ZM22 0L22 1L23 1L23 0ZM22 2L22 3L23 3L23 2ZM26 2L26 3L27 3L27 2ZM15 5L15 7L14 7L14 6L13 6L13 7L14 7L14 8L9 8L9 9L8 9L8 10L7 10L7 9L6 9L6 10L7 10L7 11L6 11L6 12L9 12L9 14L8 14L8 13L6 13L6 14L7 14L7 15L6 15L6 16L7 16L7 15L9 15L9 14L10 14L10 15L11 15L11 16L8 16L8 19L10 19L10 20L8 20L8 21L9 21L9 22L8 22L8 23L5 23L5 26L7 26L7 27L6 27L6 28L7 28L7 27L8 27L8 28L9 28L9 27L8 27L8 26L9 26L9 25L10 25L10 28L11 28L11 29L10 29L10 31L12 31L12 30L13 30L13 31L14 31L14 32L10 32L10 33L11 33L11 35L12 35L12 34L13 34L13 33L14 33L14 32L15 32L15 33L16 33L16 32L17 32L17 33L18 33L18 34L19 34L19 33L20 33L20 35L23 35L23 32L22 32L22 31L24 31L24 30L25 30L25 32L26 32L26 31L27 31L27 30L26 30L26 29L27 29L27 28L28 28L28 27L27 27L27 28L25 28L25 27L26 27L26 26L25 26L25 27L24 27L24 28L23 28L23 26L24 26L24 24L25 24L25 25L26 25L26 24L27 24L27 25L28 25L28 24L27 24L27 23L28 23L28 22L29 22L29 23L30 23L30 24L31 24L31 23L30 23L30 21L29 21L29 20L30 20L30 18L29 18L29 17L30 17L30 16L32 16L32 17L33 17L33 15L31 15L31 14L33 14L33 10L32 10L32 9L30 9L30 10L29 10L29 11L28 11L28 10L27 10L27 9L26 9L26 8L27 8L27 7L28 7L28 6L27 6L27 7L26 7L26 8L25 8L25 9L26 9L26 10L24 10L24 6L23 6L23 10L21 10L21 8L17 8L17 7L18 7L18 6L19 6L19 7L20 7L20 5L18 5L18 6L17 6L17 5ZM9 6L9 7L10 7L10 6ZM11 6L11 7L12 7L12 6ZM16 6L16 7L17 7L17 6ZM14 8L14 9L9 9L9 10L8 10L8 11L9 11L9 10L11 10L11 11L10 11L10 12L11 12L11 15L13 15L13 14L14 14L14 15L15 15L15 16L16 16L16 17L14 17L14 16L11 16L11 17L9 17L9 18L11 18L11 17L14 17L14 18L15 18L15 19L16 19L16 17L17 17L17 18L18 18L18 19L17 19L17 21L16 21L16 20L15 20L15 21L14 21L14 19L13 19L13 20L10 20L10 22L11 22L11 23L12 23L12 24L10 24L10 23L9 23L9 24L8 24L8 25L9 25L9 24L10 24L10 25L11 25L11 28L12 28L12 29L11 29L11 30L12 30L12 29L13 29L13 30L18 30L18 29L20 29L20 31L22 31L22 30L21 30L21 29L20 29L20 28L19 28L19 25L18 25L18 23L21 23L21 25L22 25L22 26L21 26L21 27L22 27L22 26L23 26L23 25L22 25L22 23L23 23L23 22L24 22L24 19L22 19L22 18L23 18L23 17L21 17L21 19L20 19L20 14L22 14L22 15L21 15L21 16L23 16L23 15L24 15L24 14L22 14L22 13L23 13L23 11L21 11L21 10L20 10L20 9L18 9L18 10L20 10L20 11L19 11L19 15L18 15L18 14L17 14L17 13L18 13L18 11L17 11L17 12L16 12L16 14L17 14L17 16L16 16L16 15L15 15L15 14L14 14L14 13L15 13L15 11L14 11L14 13L13 13L13 10L17 10L17 9L16 9L16 8ZM34 9L34 12L35 12L35 14L36 14L36 11L35 11L35 9ZM26 10L26 11L25 11L25 13L27 13L27 14L31 14L31 13L32 13L32 12L31 12L31 11L32 11L32 10L30 10L30 12L28 12L28 11L27 11L27 10ZM3 11L3 12L4 12L4 11ZM21 12L21 13L22 13L22 12ZM27 12L27 13L28 13L28 12ZM12 13L12 14L13 14L13 13ZM2 14L2 15L3 15L3 16L4 16L4 17L5 17L5 14L4 14L4 15L3 15L3 14ZM25 14L25 16L26 16L26 17L25 17L25 18L26 18L26 20L27 20L27 21L25 21L25 24L26 24L26 23L27 23L27 21L28 21L28 20L29 20L29 19L27 19L27 16L26 16L26 14ZM34 15L34 16L35 16L35 15ZM17 16L17 17L18 17L18 18L19 18L19 17L18 17L18 16ZM28 16L28 17L29 17L29 16ZM6 17L6 18L3 18L3 19L5 19L5 20L3 20L3 22L2 22L2 23L4 23L4 22L5 22L5 20L7 20L7 19L6 19L6 18L7 18L7 17ZM1 19L1 20L2 20L2 19ZM18 20L18 21L17 21L17 22L20 22L20 21L21 21L21 20L20 20L20 21L19 21L19 20ZM32 20L32 21L33 21L33 20ZM6 21L6 22L7 22L7 21ZM11 21L11 22L12 22L12 23L13 23L13 22L14 22L14 21ZM22 21L22 22L23 22L23 21ZM15 22L15 25L14 25L14 29L15 29L15 27L16 27L16 29L17 29L17 28L18 28L18 27L17 27L17 25L16 25L16 22ZM0 24L0 25L1 25L1 24ZM6 24L6 25L7 25L7 24ZM12 24L12 27L13 27L13 24ZM15 25L15 26L16 26L16 25ZM2 27L2 28L3 28L3 27ZM4 27L4 28L5 28L5 27ZM30 27L30 28L31 28L31 27ZM22 28L22 29L23 29L23 30L24 30L24 29L23 29L23 28ZM29 29L29 32L32 32L32 29ZM30 30L30 31L31 31L31 30ZM15 31L15 32L16 32L16 31ZM18 31L18 32L19 32L19 31ZM20 32L20 33L21 33L21 34L22 34L22 33L21 33L21 32ZM35 33L35 34L36 34L36 35L37 35L37 33ZM8 35L8 36L9 36L9 35ZM18 35L18 36L19 36L19 35ZM26 35L26 36L27 36L27 35ZM32 35L32 36L33 36L33 35ZM35 36L35 37L37 37L37 36ZM0 0L0 7L7 7L7 0ZM1 1L1 6L6 6L6 1ZM2 2L2 5L5 5L5 2ZM30 0L30 7L37 7L37 0ZM31 1L31 6L36 6L36 1ZM32 2L32 5L35 5L35 2ZM0 30L0 37L7 37L7 30ZM1 31L1 36L6 36L6 31ZM2 32L2 35L5 35L5 32Z" fill="#000000"/></g></g></svg>
