<?xml version="1.0" encoding="UTF-8"?>
<svg xmlns="http://www.w3.org/2000/svg" version="1.1" width="300" height="300" viewBox="0 0 300 300"><rect x="0" y="0" width="300" height="300" fill="#ffffff"/><g transform="scale(8.108)"><g transform="translate(0,0)"><path fill-rule="evenodd" d="M8 0L8 1L9 1L9 2L10 2L10 3L9 3L9 4L8 4L8 7L9 7L9 8L11 8L11 9L10 9L10 10L8 10L8 12L6 12L6 11L7 11L7 10L6 10L6 11L4 11L4 10L5 10L5 9L8 9L8 8L1 8L1 9L0 9L0 10L1 10L1 12L0 12L0 13L1 13L1 12L2 12L2 14L1 14L1 15L0 15L0 19L1 19L1 20L0 20L0 29L1 29L1 24L2 24L2 25L3 25L3 24L4 24L4 26L2 26L2 27L3 27L3 29L4 29L4 27L5 27L5 28L6 28L6 29L7 29L7 28L6 28L6 27L8 27L8 28L10 28L10 27L12 27L12 26L13 26L13 27L14 27L14 29L13 29L13 28L11 28L11 30L10 30L10 29L8 29L8 36L11 36L11 37L13 37L13 36L14 36L14 37L16 37L16 36L17 36L17 37L18 37L18 36L19 36L19 33L21 33L21 34L20 34L20 35L21 35L21 36L20 36L20 37L22 37L22 36L23 36L23 37L25 37L25 36L26 36L26 37L28 37L28 36L29 36L29 35L30 35L30 36L32 36L32 37L33 37L33 36L34 36L34 37L37 37L37 34L36 34L36 36L34 36L34 35L35 35L35 34L34 34L34 33L36 33L36 32L37 32L37 30L36 30L36 29L37 29L37 26L36 26L36 24L34 24L34 23L36 23L36 22L37 22L37 18L36 18L36 17L37 17L37 14L36 14L36 13L37 13L37 10L35 10L35 12L36 12L36 13L35 13L35 14L34 14L34 13L33 13L33 12L34 12L34 11L33 11L33 10L34 10L34 9L33 9L33 8L31 8L31 9L30 9L30 10L28 10L28 9L29 9L29 8L26 8L26 7L27 7L27 6L28 6L28 7L29 7L29 5L26 5L26 4L29 4L29 0L28 0L28 1L26 1L26 0L25 0L25 1L23 1L23 4L21 4L21 6L20 6L20 5L19 5L19 4L20 4L20 3L22 3L22 2L21 2L21 1L22 1L22 0L21 0L21 1L20 1L20 3L19 3L19 4L17 4L17 3L18 3L18 1L19 1L19 0L17 0L17 1L16 1L16 0L15 0L15 1L16 1L16 2L15 2L15 3L14 3L14 1L13 1L13 2L10 2L10 0ZM11 0L11 1L12 1L12 0ZM24 2L24 3L25 3L25 4L23 4L23 5L25 5L25 4L26 4L26 3L27 3L27 2L26 2L26 3L25 3L25 2ZM10 3L10 4L9 4L9 5L12 5L12 6L11 6L11 7L12 7L12 9L11 9L11 10L12 10L12 12L10 12L10 11L9 11L9 12L8 12L8 13L9 13L9 14L7 14L7 13L6 13L6 12L5 12L5 13L3 13L3 16L4 16L4 17L1 17L1 19L2 19L2 18L4 18L4 20L5 20L5 19L6 19L6 20L7 20L7 19L6 19L6 18L8 18L8 17L6 17L6 18L5 18L5 16L8 16L8 15L10 15L10 14L12 14L12 12L13 12L13 13L14 13L14 14L13 14L13 15L14 15L14 17L13 17L13 18L12 18L12 17L11 17L11 16L10 16L10 17L11 17L11 18L9 18L9 19L13 19L13 20L11 20L11 21L10 21L10 20L8 20L8 21L6 21L6 22L5 22L5 23L4 23L4 21L3 21L3 20L2 20L2 21L1 21L1 23L2 23L2 24L3 24L3 23L4 23L4 24L5 24L5 25L6 25L6 26L5 26L5 27L6 27L6 26L7 26L7 25L8 25L8 24L9 24L9 25L10 25L10 24L9 24L9 23L8 23L8 21L9 21L9 22L11 22L11 24L12 24L12 25L13 25L13 26L14 26L14 27L15 27L15 22L16 22L16 25L17 25L17 26L18 26L18 28L17 28L17 27L16 27L16 28L15 28L15 29L14 29L14 30L13 30L13 31L15 31L15 30L16 30L16 28L17 28L17 29L18 29L18 30L17 30L17 31L16 31L16 32L12 32L12 30L11 30L11 31L10 31L10 30L9 30L9 31L10 31L10 32L9 32L9 35L12 35L12 36L13 36L13 35L12 35L12 34L10 34L10 32L12 32L12 33L13 33L13 34L14 34L14 35L15 35L15 34L16 34L16 35L18 35L18 33L19 33L19 29L20 29L20 31L21 31L21 32L23 32L23 33L22 33L22 35L23 35L23 34L25 34L25 33L24 33L24 32L26 32L26 33L27 33L27 35L26 35L26 36L28 36L28 35L29 35L29 34L30 34L30 35L31 35L31 34L32 34L32 36L33 36L33 34L32 34L32 33L31 33L31 34L30 34L30 33L27 33L27 32L26 32L26 30L25 30L25 31L24 31L24 30L23 30L23 29L25 29L25 28L26 28L26 29L27 29L27 31L28 31L28 27L29 27L29 28L34 28L34 29L33 29L33 31L34 31L34 32L33 32L33 33L34 33L34 32L35 32L35 31L36 31L36 30L35 30L35 28L34 28L34 27L33 27L33 26L34 26L34 24L33 24L33 21L34 21L34 22L36 22L36 21L34 21L34 20L36 20L36 18L33 18L33 17L32 17L32 16L36 16L36 14L35 14L35 15L33 15L33 13L32 13L32 12L31 12L31 13L29 13L29 12L30 12L30 11L28 11L28 15L27 15L27 16L26 16L26 14L27 14L27 9L26 9L26 8L25 8L25 7L26 7L26 6L25 6L25 7L24 7L24 6L23 6L23 7L22 7L22 6L21 6L21 7L20 7L20 6L19 6L19 5L18 5L18 6L17 6L17 9L19 9L19 13L20 13L20 14L21 14L21 11L20 11L20 9L23 9L23 7L24 7L24 8L25 8L25 9L24 9L24 10L22 10L22 11L23 11L23 12L22 12L22 13L24 13L24 14L22 14L22 15L24 15L24 16L22 16L22 17L21 17L21 18L22 18L22 20L20 20L20 21L21 21L21 22L19 22L19 19L18 19L18 18L17 18L17 17L18 17L18 16L21 16L21 15L19 15L19 14L16 14L16 15L14 15L14 14L15 14L15 13L14 13L14 12L16 12L16 13L18 13L18 12L17 12L17 10L16 10L16 11L14 11L14 12L13 12L13 10L14 10L14 8L15 8L15 7L16 7L16 6L15 6L15 5L16 5L16 4L14 4L14 3L13 3L13 4L14 4L14 5L12 5L12 4L11 4L11 3ZM9 6L9 7L10 7L10 6ZM12 6L12 7L13 7L13 8L14 8L14 7L15 7L15 6L14 6L14 7L13 7L13 6ZM18 6L18 8L19 8L19 9L20 9L20 7L19 7L19 6ZM21 7L21 8L22 8L22 7ZM36 8L36 9L37 9L37 8ZM25 9L25 10L26 10L26 9ZM31 10L31 11L32 11L32 10ZM9 12L9 13L10 13L10 12ZM24 12L24 13L26 13L26 12ZM31 13L31 15L30 15L30 14L29 14L29 16L27 16L27 17L31 17L31 15L32 15L32 13ZM4 14L4 15L5 15L5 14ZM6 14L6 15L7 15L7 14ZM24 14L24 15L25 15L25 14ZM16 15L16 16L17 16L17 15ZM25 16L25 17L24 17L24 18L25 18L25 17L26 17L26 16ZM14 17L14 19L16 19L16 20L15 20L15 21L12 21L12 22L15 22L15 21L17 21L17 22L18 22L18 20L17 20L17 18L16 18L16 17ZM19 17L19 18L20 18L20 17ZM22 17L22 18L23 18L23 17ZM27 18L27 19L26 19L26 20L27 20L27 21L26 21L26 22L27 22L27 23L26 23L26 24L27 24L27 25L25 25L25 23L24 23L24 25L23 25L23 24L22 24L22 22L21 22L21 23L19 23L19 24L17 24L17 25L19 25L19 27L20 27L20 28L21 28L21 29L23 29L23 28L25 28L25 26L26 26L26 28L27 28L27 26L30 26L30 27L32 27L32 26L31 26L31 25L32 25L32 21L33 21L33 20L34 20L34 19L32 19L32 21L31 21L31 18L29 18L29 19L30 19L30 21L29 21L29 20L27 20L27 19L28 19L28 18ZM24 19L24 20L25 20L25 19ZM24 21L24 22L25 22L25 21ZM27 21L27 22L29 22L29 23L27 23L27 24L28 24L28 25L30 25L30 24L29 24L29 23L30 23L30 22L31 22L31 21L30 21L30 22L29 22L29 21ZM6 22L6 23L5 23L5 24L6 24L6 25L7 25L7 24L6 24L6 23L7 23L7 22ZM13 24L13 25L14 25L14 24ZM20 24L20 25L21 25L21 26L20 26L20 27L21 27L21 28L23 28L23 27L24 27L24 26L25 26L25 25L24 25L24 26L23 26L23 25L22 25L22 24ZM22 26L22 27L23 27L23 26ZM35 26L35 27L36 27L36 26ZM29 29L29 32L32 32L32 29ZM22 30L22 31L23 31L23 30ZM30 30L30 31L31 31L31 30ZM17 31L17 32L16 32L16 34L17 34L17 33L18 33L18 31ZM14 33L14 34L15 34L15 33ZM24 35L24 36L25 36L25 35ZM0 0L0 7L7 7L7 0ZM1 1L1 6L6 6L6 1ZM2 2L2 5L5 5L5 2ZM30 0L30 7L37 7L37 0ZM31 1L31 6L36 6L36 1ZM32 2L32 5L35 5L35 2ZM0 30L0 37L7 37L7 30ZM1 31L1 36L6 36L6 31ZM2 32L2 35L5 35L5 32Z" fill="#000000"/></g></g></svg>
