<?xml version="1.0" encoding="UTF-8"?>
<svg xmlns="http://www.w3.org/2000/svg" version="1.1" width="300" height="300" viewBox="0 0 300 300"><rect x="0" y="0" width="300" height="300" fill="#ffffff"/><g transform="scale(8.108)"><g transform="translate(0,0)"><path fill-rule="evenodd" d="M8 0L8 1L9 1L9 4L8 4L8 7L9 7L9 8L10 8L10 9L8 9L8 8L1 8L1 10L0 10L0 11L1 11L1 10L2 10L2 13L1 13L1 14L0 14L0 20L2 20L2 21L3 21L3 20L4 20L4 21L5 21L5 19L7 19L7 20L6 20L6 21L8 21L8 20L9 20L9 21L11 21L11 23L10 23L10 24L11 24L11 26L8 26L8 27L7 27L7 26L6 26L6 25L9 25L9 24L6 24L6 25L4 25L4 26L2 26L2 27L3 27L3 29L8 29L8 36L11 36L11 37L12 37L12 35L13 35L13 36L14 36L14 37L19 37L19 33L21 33L21 34L20 34L20 35L21 35L21 36L20 36L20 37L22 37L22 36L23 36L23 37L25 37L25 36L26 36L26 37L27 37L27 36L29 36L29 37L31 37L31 36L32 36L32 35L31 35L31 36L29 36L29 35L30 35L30 34L33 34L33 35L34 35L34 34L33 34L33 33L36 33L36 32L37 32L37 30L36 30L36 29L37 29L37 26L35 26L35 25L36 25L36 24L33 24L33 25L34 25L34 26L33 26L33 27L34 27L34 28L31 28L31 27L32 27L32 26L31 26L31 25L32 25L32 24L31 24L31 22L30 22L30 21L36 21L36 22L35 22L35 23L36 23L36 22L37 22L37 18L36 18L36 17L37 17L37 14L36 14L36 13L37 13L37 12L36 12L36 13L33 13L33 12L34 12L34 11L33 11L33 10L34 10L34 9L33 9L33 8L31 8L31 9L30 9L30 10L28 10L28 9L29 9L29 6L28 6L28 5L26 5L26 4L29 4L29 2L28 2L28 1L29 1L29 0L28 0L28 1L26 1L26 0L25 0L25 1L23 1L23 2L22 2L22 1L20 1L20 3L19 3L19 2L18 2L18 4L20 4L20 5L21 5L21 6L20 6L20 7L21 7L21 8L22 8L22 9L19 9L19 6L18 6L18 5L17 5L17 6L16 6L16 7L17 7L17 8L14 8L14 7L15 7L15 6L14 6L14 7L13 7L13 6L12 6L12 7L11 7L11 6L10 6L10 7L9 7L9 4L10 4L10 3L11 3L11 5L14 5L14 4L15 4L15 3L16 3L16 2L17 2L17 1L19 1L19 0L15 0L15 1L16 1L16 2L14 2L14 1L13 1L13 2L11 2L11 1L12 1L12 0L11 0L11 1L10 1L10 0ZM13 2L13 3L12 3L12 4L13 4L13 3L14 3L14 2ZM24 2L24 3L25 3L25 4L22 4L22 3L21 3L21 4L22 4L22 6L21 6L21 7L22 7L22 6L23 6L23 7L24 7L24 8L25 8L25 9L24 9L24 10L23 10L23 9L22 9L22 11L24 11L24 10L25 10L25 12L22 12L22 13L25 13L25 14L22 14L22 15L25 15L25 16L22 16L22 17L23 17L23 20L20 20L20 21L19 21L19 18L20 18L20 17L19 17L19 18L18 18L18 16L19 16L19 15L20 15L20 16L21 16L21 14L20 14L20 13L21 13L21 12L19 12L19 9L18 9L18 8L17 8L17 10L16 10L16 11L15 11L15 12L14 12L14 11L13 11L13 10L12 10L12 9L10 9L10 11L11 11L11 10L12 10L12 11L13 11L13 12L11 12L11 14L12 14L12 13L13 13L13 14L14 14L14 16L15 16L15 17L16 17L16 18L12 18L12 15L11 15L11 16L10 16L10 17L11 17L11 19L9 19L9 20L11 20L11 21L12 21L12 23L11 23L11 24L12 24L12 25L13 25L13 24L14 24L14 27L13 27L13 26L11 26L11 27L13 27L13 28L15 28L15 29L12 29L12 30L11 30L11 31L10 31L10 30L9 30L9 31L10 31L10 32L9 32L9 35L10 35L10 32L11 32L11 31L12 31L12 30L13 30L13 32L12 32L12 33L13 33L13 32L14 32L14 31L15 31L15 30L16 30L16 31L18 31L18 33L19 33L19 32L20 32L20 30L17 30L17 29L16 29L16 28L17 28L17 27L16 27L16 28L15 28L15 25L17 25L17 24L16 24L16 23L17 23L17 22L19 22L19 24L18 24L18 25L19 25L19 26L20 26L20 21L22 21L22 22L21 22L21 23L22 23L22 24L21 24L21 28L23 28L23 29L21 29L21 32L23 32L23 33L22 33L22 35L23 35L23 34L25 34L25 33L24 33L24 32L26 32L26 33L27 33L27 32L26 32L26 30L23 30L23 29L25 29L25 28L26 28L26 29L27 29L27 31L28 31L28 27L29 27L29 28L30 28L30 26L27 26L27 28L26 28L26 26L25 26L25 27L24 27L24 26L23 26L23 27L22 27L22 25L27 25L27 24L28 24L28 25L30 25L30 24L28 24L28 23L27 23L27 22L28 22L28 21L30 21L30 20L36 20L36 18L35 18L35 17L32 17L32 16L36 16L36 14L34 14L34 15L31 15L31 13L32 13L32 14L33 14L33 13L32 13L32 12L31 12L31 11L32 11L32 10L31 10L31 11L28 11L28 14L29 14L29 13L30 13L30 15L31 15L31 17L30 17L30 16L29 16L29 15L26 15L26 14L27 14L27 12L26 12L26 11L27 11L27 9L26 9L26 8L28 8L28 6L27 6L27 7L26 7L26 6L25 6L25 7L24 7L24 6L23 6L23 5L25 5L25 4L26 4L26 3L28 3L28 2L26 2L26 3L25 3L25 2ZM17 6L17 7L18 7L18 6ZM10 7L10 8L11 8L11 7ZM12 7L12 8L13 8L13 9L14 9L14 8L13 8L13 7ZM25 7L25 8L26 8L26 7ZM36 8L36 9L35 9L35 10L36 10L36 11L37 11L37 10L36 10L36 9L37 9L37 8ZM6 9L6 10L4 10L4 12L3 12L3 13L2 13L2 14L1 14L1 15L2 15L2 16L1 16L1 17L2 17L2 18L3 18L3 17L5 17L5 16L7 16L7 17L6 17L6 18L8 18L8 16L9 16L9 15L10 15L10 13L9 13L9 11L8 11L8 9ZM25 9L25 10L26 10L26 9ZM6 10L6 11L5 11L5 12L4 12L4 13L7 13L7 12L8 12L8 11L7 11L7 10ZM17 10L17 11L18 11L18 10ZM6 11L6 12L7 12L7 11ZM13 12L13 13L14 13L14 12ZM15 12L15 13L16 13L16 15L17 15L17 14L18 14L18 13L17 13L17 12ZM25 12L25 13L26 13L26 12ZM30 12L30 13L31 13L31 12ZM8 13L8 14L9 14L9 13ZM2 14L2 15L3 15L3 14ZM4 14L4 15L5 15L5 14ZM6 14L6 15L7 15L7 14ZM2 16L2 17L3 17L3 16ZM25 16L25 17L24 17L24 18L25 18L25 17L26 17L26 16ZM27 16L27 17L28 17L28 18L27 18L27 19L26 19L26 20L27 20L27 21L26 21L26 22L27 22L27 21L28 21L28 19L29 19L29 18L30 18L30 19L31 19L31 18L30 18L30 17L28 17L28 16ZM16 18L16 19L17 19L17 20L16 20L16 21L18 21L18 18ZM32 18L32 19L34 19L34 18ZM2 19L2 20L3 20L3 19ZM11 19L11 20L13 20L13 19ZM14 19L14 20L15 20L15 19ZM24 19L24 20L25 20L25 19ZM0 21L0 29L1 29L1 24L2 24L2 25L3 25L3 24L5 24L5 23L4 23L4 22L2 22L2 23L1 23L1 21ZM13 21L13 22L14 22L14 21ZM24 21L24 22L25 22L25 21ZM6 22L6 23L9 23L9 22ZM15 22L15 23L16 23L16 22ZM22 22L22 23L23 23L23 22ZM29 22L29 23L30 23L30 22ZM32 22L32 23L34 23L34 22ZM2 23L2 24L3 24L3 23ZM24 23L24 24L25 24L25 23ZM26 23L26 24L27 24L27 23ZM5 27L5 28L7 28L7 27ZM8 27L8 29L9 29L9 28L10 28L10 29L11 29L11 28L10 28L10 27ZM19 27L19 29L20 29L20 27ZM23 27L23 28L24 28L24 27ZM35 27L35 28L34 28L34 29L33 29L33 30L35 30L35 31L33 31L33 32L35 32L35 31L36 31L36 30L35 30L35 28L36 28L36 27ZM29 29L29 32L32 32L32 29ZM22 30L22 31L23 31L23 32L24 32L24 31L23 31L23 30ZM30 30L30 31L31 31L31 30ZM15 32L15 33L14 33L14 34L13 34L13 35L14 35L14 36L15 36L15 35L16 35L16 34L15 34L15 33L16 33L16 32ZM28 33L28 35L29 35L29 34L30 34L30 33ZM11 34L11 35L12 35L12 34ZM14 34L14 35L15 35L15 34ZM17 34L17 35L18 35L18 34ZM36 34L36 36L33 36L33 37L37 37L37 34ZM24 35L24 36L25 36L25 35ZM26 35L26 36L27 36L27 35ZM0 0L0 7L7 7L7 0ZM1 1L1 6L6 6L6 1ZM2 2L2 5L5 5L5 2ZM30 0L30 7L37 7L37 0ZM31 1L31 6L36 6L36 1ZM32 2L32 5L35 5L35 2ZM0 30L0 37L7 37L7 30ZM1 31L1 36L6 36L6 31ZM2 32L2 35L5 35L5 32Z" fill="#000000"/></g></g></svg>
