<?xml version="1.0" encoding="UTF-8"?>
<svg xmlns="http://www.w3.org/2000/svg" version="1.1" width="300" height="300" viewBox="0 0 300 300"><rect x="0" y="0" width="300" height="300" fill="#ffffff"/><g transform="scale(6.122)"><g transform="translate(0,0)"><path fill-rule="evenodd" d="M8 0L8 1L10 1L10 2L12 2L12 3L10 3L10 4L8 4L8 7L9 7L9 5L10 5L10 4L11 4L11 6L10 6L10 11L9 11L9 10L8 10L8 8L1 8L1 9L0 9L0 14L3 14L3 15L4 15L4 16L3 16L3 17L4 17L4 19L3 19L3 18L1 18L1 15L0 15L0 18L1 18L1 19L0 19L0 20L1 20L1 21L0 21L0 26L1 26L1 27L0 27L0 28L1 28L1 27L2 27L2 29L0 29L0 34L1 34L1 33L4 33L4 35L3 35L3 36L2 36L2 35L0 35L0 36L1 36L1 40L0 40L0 41L3 41L3 40L4 40L4 39L2 39L2 37L3 37L3 38L5 38L5 39L8 39L8 40L6 40L6 41L8 41L8 48L9 48L9 49L10 49L10 48L11 48L11 49L12 49L12 48L11 48L11 47L12 47L12 46L14 46L14 48L15 48L15 49L18 49L18 46L19 46L19 48L20 48L20 49L21 49L21 48L22 48L22 46L23 46L23 45L27 45L27 44L29 44L29 45L28 45L28 46L27 46L27 49L28 49L28 48L29 48L29 49L30 49L30 47L28 47L28 46L31 46L31 47L32 47L32 48L31 48L31 49L32 49L32 48L33 48L33 49L34 49L34 47L37 47L37 48L35 48L35 49L38 49L38 48L40 48L40 49L41 49L41 46L43 46L43 47L42 47L42 48L43 48L43 47L44 47L44 48L45 48L45 49L49 49L49 45L48 45L48 44L46 44L46 46L45 46L45 43L46 43L46 42L45 42L45 40L46 40L46 41L48 41L48 40L46 40L46 39L49 39L49 38L46 38L46 39L44 39L44 37L45 37L45 36L46 36L46 37L47 37L47 36L48 36L48 37L49 37L49 34L47 34L47 36L46 36L46 34L45 34L45 36L44 36L44 37L42 37L42 36L41 36L41 35L40 35L40 36L39 36L39 38L38 38L38 36L36 36L36 34L34 34L34 33L36 33L36 32L37 32L37 33L38 33L38 31L40 31L40 32L39 32L39 34L37 34L37 35L39 35L39 34L42 34L42 35L44 35L44 34L42 34L42 33L41 33L41 32L42 32L42 31L43 31L43 33L49 33L49 30L48 30L48 31L47 31L47 29L49 29L49 28L46 28L46 31L47 31L47 32L44 32L44 31L45 31L45 30L44 30L44 29L45 29L45 28L44 28L44 27L45 27L45 25L47 25L47 26L46 26L46 27L47 27L47 26L48 26L48 27L49 27L49 26L48 26L48 24L45 24L45 23L46 23L46 22L47 22L47 23L49 23L49 22L47 22L47 20L48 20L48 21L49 21L49 18L47 18L47 17L48 17L48 16L46 16L46 15L49 15L49 14L46 14L46 15L45 15L45 13L44 13L44 12L46 12L46 13L48 13L48 12L46 12L46 11L44 11L44 10L43 10L43 9L45 9L45 8L43 8L43 9L42 9L42 10L41 10L41 11L42 11L42 12L39 12L39 10L38 10L38 9L41 9L41 8L38 8L38 9L37 9L37 6L38 6L38 7L39 7L39 5L38 5L38 3L35 3L35 2L37 2L37 1L38 1L38 2L39 2L39 4L40 4L40 3L41 3L41 0L40 0L40 1L38 1L38 0L35 0L35 1L31 1L31 0L29 0L29 1L28 1L28 0L26 0L26 1L24 1L24 0L23 0L23 1L20 1L20 2L18 2L18 3L16 3L16 1L19 1L19 0L16 0L16 1L15 1L15 0ZM12 1L12 2L13 2L13 3L12 3L12 4L13 4L13 3L14 3L14 5L12 5L12 6L11 6L11 10L12 10L12 11L10 11L10 12L9 12L9 11L8 11L8 12L9 12L9 13L6 13L6 14L9 14L9 15L8 15L8 16L7 16L7 15L5 15L5 14L4 14L4 15L5 15L5 16L4 16L4 17L5 17L5 16L7 16L7 17L6 17L6 18L7 18L7 17L8 17L8 18L10 18L10 19L9 19L9 20L10 20L10 21L8 21L8 20L7 20L7 19L6 19L6 20L5 20L5 19L4 19L4 21L3 21L3 19L1 19L1 20L2 20L2 21L1 21L1 23L2 23L2 24L1 24L1 26L2 26L2 24L3 24L3 25L4 25L4 24L3 24L3 22L5 22L5 21L6 21L6 22L10 22L10 23L13 23L13 25L9 25L9 26L10 26L10 27L12 27L12 28L11 28L11 30L10 30L10 32L7 32L7 31L8 31L8 29L9 29L9 28L7 28L7 27L4 27L4 26L3 26L3 27L4 27L4 28L3 28L3 31L2 31L2 32L5 32L5 31L6 31L6 32L7 32L7 33L6 33L6 34L5 34L5 35L4 35L4 36L5 36L5 35L6 35L6 36L9 36L9 35L6 35L6 34L7 34L7 33L9 33L9 34L10 34L10 37L9 37L9 38L8 38L8 37L6 37L6 38L8 38L8 39L9 39L9 40L8 40L8 41L9 41L9 40L10 40L10 39L11 39L11 41L10 41L10 42L9 42L9 44L10 44L10 42L11 42L11 44L14 44L14 45L15 45L15 42L17 42L17 43L18 43L18 42L19 42L19 41L20 41L20 40L23 40L23 39L24 39L24 40L25 40L25 39L27 39L27 40L28 40L28 41L29 41L29 42L27 42L27 43L29 43L29 42L30 42L30 41L29 41L29 40L30 40L30 39L31 39L31 41L34 41L34 42L32 42L32 43L33 43L33 44L32 44L32 47L33 47L33 46L35 46L35 44L37 44L37 43L35 43L35 41L36 41L36 40L38 40L38 41L37 41L37 42L38 42L38 43L40 43L40 41L39 41L39 40L44 40L44 39L38 39L38 38L37 38L37 39L36 39L36 40L35 40L35 39L34 39L34 38L35 38L35 37L36 37L36 36L35 36L35 35L34 35L34 34L33 34L33 36L31 36L31 37L34 37L34 38L32 38L32 39L31 39L31 38L30 38L30 36L28 36L28 34L27 34L27 33L28 33L28 32L29 32L29 31L31 31L31 32L36 32L36 30L35 30L35 27L34 27L34 26L36 26L36 28L37 28L37 29L38 29L38 30L37 30L37 31L38 31L38 30L40 30L40 31L41 31L41 30L42 30L42 29L41 29L41 28L40 28L40 27L38 27L38 26L40 26L40 24L39 24L39 23L40 23L40 22L41 22L41 21L42 21L42 17L43 17L43 16L42 16L42 15L43 15L43 14L42 14L42 13L40 13L40 14L42 14L42 15L41 15L41 16L39 16L39 17L40 17L40 18L37 18L37 19L36 19L36 18L34 18L34 17L33 17L33 16L34 16L34 15L33 15L33 14L35 14L35 15L36 15L36 16L35 16L35 17L36 17L36 16L37 16L37 17L38 17L38 16L37 16L37 15L38 15L38 14L39 14L39 12L38 12L38 10L37 10L37 11L36 11L36 10L35 10L35 9L36 9L36 8L35 8L35 7L36 7L36 6L37 6L37 4L33 4L33 3L34 3L34 2L33 2L33 3L32 3L32 2L31 2L31 1L29 1L29 2L24 2L24 3L29 3L29 2L30 2L30 4L32 4L32 5L30 5L30 6L29 6L29 7L28 7L28 5L29 5L29 4L27 4L27 7L28 7L28 9L29 9L29 10L27 10L27 9L26 9L26 10L27 10L27 11L26 11L26 12L23 12L23 13L24 13L24 14L23 14L23 15L22 15L22 14L19 14L19 13L21 13L21 11L22 11L22 10L23 10L23 9L21 9L21 8L20 8L20 5L21 5L21 4L22 4L22 3L21 3L21 4L19 4L19 3L18 3L18 4L17 4L17 5L16 5L16 6L15 6L15 7L14 7L14 5L15 5L15 3L14 3L14 2L13 2L13 1ZM17 5L17 6L16 6L16 7L15 7L15 9L17 9L17 6L18 6L18 7L19 7L19 5ZM23 5L23 8L26 8L26 5ZM33 5L33 6L32 6L32 7L31 7L31 6L30 6L30 7L29 7L29 8L30 8L30 10L29 10L29 12L26 12L26 13L25 13L25 17L23 17L23 16L24 16L24 15L23 15L23 16L22 16L22 17L23 17L23 18L25 18L25 19L24 19L24 20L23 20L23 19L22 19L22 18L21 18L21 19L22 19L22 20L23 20L23 21L22 21L22 23L21 23L21 21L20 21L20 23L19 23L19 25L20 25L20 26L19 26L19 27L18 27L18 25L17 25L17 27L16 27L16 24L17 24L17 23L18 23L18 22L19 22L19 21L18 21L18 22L16 22L16 24L15 24L15 23L14 23L14 25L13 25L13 26L12 26L12 27L13 27L13 29L12 29L12 31L11 31L11 32L10 32L10 34L12 34L12 36L14 36L14 35L15 35L15 37L13 37L13 38L12 38L12 37L10 37L10 38L11 38L11 39L13 39L13 38L14 38L14 39L15 39L15 40L16 40L16 41L18 41L18 40L19 40L19 38L20 38L20 39L21 39L21 36L20 36L20 35L23 35L23 36L22 36L22 39L23 39L23 37L24 37L24 39L25 39L25 38L26 38L26 37L25 37L25 36L27 36L27 39L28 39L28 40L29 40L29 39L30 39L30 38L29 38L29 37L28 37L28 36L27 36L27 35L26 35L26 34L23 34L23 33L22 33L22 32L24 32L24 31L23 31L23 30L24 30L24 29L22 29L22 27L24 27L24 28L25 28L25 27L27 27L27 28L29 28L29 30L31 30L31 31L32 31L32 28L33 28L33 29L34 29L34 28L33 28L33 25L32 25L32 24L33 24L33 23L34 23L34 25L36 25L36 26L37 26L37 24L38 24L38 23L39 23L39 22L40 22L40 21L41 21L41 20L40 20L40 19L37 19L37 20L36 20L36 21L35 21L35 22L33 22L33 21L32 21L32 22L31 22L31 20L30 20L30 19L32 19L32 20L34 20L34 18L32 18L32 17L31 17L31 18L30 18L30 17L29 17L29 16L30 16L30 14L31 14L31 13L32 13L32 14L33 14L33 13L32 13L32 12L33 12L33 11L34 11L34 12L35 12L35 10L33 10L33 11L32 11L32 12L31 12L31 11L30 11L30 10L32 10L32 9L31 9L31 8L32 8L32 7L33 7L33 6L34 6L34 7L35 7L35 5ZM12 6L12 7L13 7L13 6ZM21 6L21 7L22 7L22 6ZM24 6L24 7L25 7L25 6ZM40 6L40 7L41 7L41 6ZM13 8L13 9L14 9L14 8ZM33 8L33 9L35 9L35 8ZM48 8L48 9L46 9L46 10L48 10L48 11L49 11L49 10L48 10L48 9L49 9L49 8ZM2 9L2 10L3 10L3 9ZM4 9L4 11L5 11L5 12L4 12L4 13L5 13L5 12L7 12L7 11L6 11L6 10L7 10L7 9ZM19 9L19 11L21 11L21 10L20 10L20 9ZM24 9L24 11L25 11L25 9ZM14 10L14 11L13 11L13 13L12 13L12 14L10 14L10 16L11 16L11 17L10 17L10 18L11 18L11 17L12 17L12 18L13 18L13 19L16 19L16 20L19 20L19 19L18 19L18 18L17 18L17 17L18 17L18 16L17 16L17 17L16 17L16 16L15 16L15 18L13 18L13 17L14 17L14 16L13 16L13 17L12 17L12 16L11 16L11 15L13 15L13 14L14 14L14 13L15 13L15 11L17 11L17 10ZM42 10L42 11L43 11L43 12L44 12L44 11L43 11L43 10ZM2 11L2 12L1 12L1 13L3 13L3 11ZM10 12L10 13L11 13L11 12ZM16 12L16 14L17 14L17 15L19 15L19 14L18 14L18 13L19 13L19 12ZM36 12L36 13L35 13L35 14L36 14L36 15L37 15L37 14L38 14L38 12ZM26 13L26 17L25 17L25 18L27 18L27 17L28 17L28 20L26 20L26 19L25 19L25 20L26 20L26 22L27 22L27 21L29 21L29 19L30 19L30 18L29 18L29 17L28 17L28 15L29 15L29 14L30 14L30 13L29 13L29 14L27 14L27 13ZM36 13L36 14L37 14L37 13ZM20 15L20 16L21 16L21 15ZM31 15L31 16L33 16L33 15ZM44 16L44 17L46 17L46 16ZM19 17L19 18L20 18L20 17ZM46 18L46 19L45 19L45 20L44 20L44 21L43 21L43 22L46 22L46 20L47 20L47 18ZM10 19L10 20L11 20L11 21L12 21L12 20L11 20L11 19ZM6 20L6 21L7 21L7 20ZM39 20L39 21L37 21L37 23L35 23L35 24L37 24L37 23L38 23L38 22L39 22L39 21L40 21L40 20ZM14 21L14 22L15 22L15 21ZM23 21L23 22L25 22L25 21ZM28 22L28 23L27 23L27 24L28 24L28 25L27 25L27 26L28 26L28 27L29 27L29 28L30 28L30 29L31 29L31 28L32 28L32 27L31 27L31 26L29 26L29 25L30 25L30 24L29 24L29 22ZM30 22L30 23L31 23L31 24L32 24L32 23L33 23L33 22L32 22L32 23L31 23L31 22ZM5 23L5 26L8 26L8 23ZM23 23L23 26L26 26L26 23ZM41 23L41 26L44 26L44 23ZM6 24L6 25L7 25L7 24ZM24 24L24 25L25 25L25 24ZM42 24L42 25L43 25L43 24ZM14 25L14 26L15 26L15 25ZM21 26L21 27L20 27L20 28L17 28L17 29L16 29L16 27L15 27L15 28L14 28L14 30L13 30L13 31L14 31L14 30L15 30L15 35L16 35L16 36L18 36L18 34L19 34L19 35L20 35L20 32L22 32L22 29L21 29L21 27L22 27L22 26ZM30 27L30 28L31 28L31 27ZM42 27L42 28L43 28L43 29L44 29L44 28L43 28L43 27ZM4 28L4 30L5 30L5 29L7 29L7 28ZM38 28L38 29L40 29L40 30L41 30L41 29L40 29L40 28ZM18 29L18 31L21 31L21 30L20 30L20 29ZM25 29L25 31L27 31L27 32L28 32L28 30L27 30L27 29ZM6 30L6 31L7 31L7 30ZM33 30L33 31L35 31L35 30ZM43 30L43 31L44 31L44 30ZM11 32L11 33L14 33L14 32ZM16 32L16 35L17 35L17 34L18 34L18 32ZM21 33L21 34L22 34L22 33ZM31 33L31 34L29 34L29 35L31 35L31 34L32 34L32 33ZM19 36L19 37L18 37L18 38L17 38L17 37L16 37L16 38L15 38L15 39L18 39L18 38L19 38L19 37L20 37L20 36ZM40 36L40 37L41 37L41 36ZM28 38L28 39L29 39L29 38ZM32 39L32 40L34 40L34 39ZM12 40L12 41L11 41L11 42L12 42L12 43L14 43L14 42L15 42L15 41L14 41L14 40ZM12 41L12 42L14 42L14 41ZM23 41L23 44L26 44L26 41ZM41 41L41 44L44 44L44 41ZM20 42L20 43L19 43L19 46L20 46L20 48L21 48L21 45L22 45L22 42ZM24 42L24 43L25 43L25 42ZM42 42L42 43L43 43L43 42ZM47 42L47 43L49 43L49 42ZM34 43L34 44L33 44L33 45L34 45L34 44L35 44L35 43ZM17 44L17 45L18 45L18 44ZM10 45L10 47L11 47L11 45ZM38 45L38 46L37 46L37 47L38 47L38 46L39 46L39 47L40 47L40 46L41 46L41 45L40 45L40 46L39 46L39 45ZM43 45L43 46L44 46L44 47L45 47L45 48L48 48L48 47L47 47L47 46L46 46L46 47L45 47L45 46L44 46L44 45ZM15 46L15 48L17 48L17 47L16 47L16 46ZM24 46L24 47L23 47L23 48L24 48L24 49L25 49L25 48L26 48L26 47L25 47L25 46ZM24 47L24 48L25 48L25 47ZM0 0L0 7L7 7L7 0ZM1 1L1 6L6 6L6 1ZM2 2L2 5L5 5L5 2ZM42 0L42 7L49 7L49 0ZM43 1L43 6L48 6L48 1ZM44 2L44 5L47 5L47 2ZM0 42L0 49L7 49L7 42ZM1 43L1 48L6 48L6 43ZM2 44L2 47L5 47L5 44Z" fill="#000000"/></g></g></svg>
