<?xml version="1.0" encoding="UTF-8"?>
<svg xmlns="http://www.w3.org/2000/svg" version="1.1" width="300" height="300" viewBox="0 0 300 300"><rect x="0" y="0" width="300" height="300" fill="#ffffff"/><g transform="scale(8.108)"><g transform="translate(0,0)"><path fill-rule="evenodd" d="M9 0L9 1L10 1L10 0ZM11 0L11 1L12 1L12 0ZM15 0L15 2L16 2L16 0ZM17 0L17 1L19 1L19 2L17 2L17 3L18 3L18 4L19 4L19 5L16 5L16 7L15 7L15 5L13 5L13 4L11 4L11 3L9 3L9 2L8 2L8 3L9 3L9 4L8 4L8 7L9 7L9 6L10 6L10 7L11 7L11 8L10 8L10 9L9 9L9 8L8 8L8 9L7 9L7 8L6 8L6 9L7 9L7 10L5 10L5 11L4 11L4 10L2 10L2 12L1 12L1 11L0 11L0 16L2 16L2 12L5 12L5 13L7 13L7 12L9 12L9 11L10 11L10 12L11 12L11 13L9 13L9 14L8 14L8 15L9 15L9 16L10 16L10 15L9 15L9 14L11 14L11 13L12 13L12 15L11 15L11 16L12 16L12 18L11 18L11 17L9 17L9 18L8 18L8 17L7 17L7 16L6 16L6 15L7 15L7 14L5 14L5 15L4 15L4 13L3 13L3 19L4 19L4 22L5 22L5 24L4 24L4 23L3 23L3 21L2 21L2 19L1 19L1 18L0 18L0 22L1 22L1 21L2 21L2 23L1 23L1 24L0 24L0 26L2 26L2 27L3 27L3 28L0 28L0 29L3 29L3 28L4 28L4 27L5 27L5 29L7 29L7 28L8 28L8 30L9 30L9 27L10 27L10 29L12 29L12 30L13 30L13 29L12 29L12 28L11 28L11 26L13 26L13 27L14 27L14 29L15 29L15 30L16 30L16 32L15 32L15 31L14 31L14 33L15 33L15 34L13 34L13 33L11 33L11 31L9 31L9 32L8 32L8 33L9 33L9 34L11 34L11 35L12 35L12 36L9 36L9 35L8 35L8 36L9 36L9 37L12 37L12 36L13 36L13 35L14 35L14 37L15 37L15 34L16 34L16 37L20 37L20 36L17 36L17 35L19 35L19 34L20 34L20 35L21 35L21 36L22 36L22 35L23 35L23 34L21 34L21 33L20 33L20 32L21 32L21 30L22 30L22 29L23 29L23 31L22 31L22 33L23 33L23 32L24 32L24 33L25 33L25 29L23 29L23 27L24 27L24 26L25 26L25 25L27 25L27 23L28 23L28 24L29 24L29 23L30 23L30 21L31 21L31 22L33 22L33 21L34 21L34 23L33 23L33 24L32 24L32 23L31 23L31 24L30 24L30 25L28 25L28 27L29 27L29 28L27 28L27 26L26 26L26 29L27 29L27 30L26 30L26 32L28 32L28 33L26 33L26 34L25 34L25 35L24 35L24 36L23 36L23 37L26 37L26 35L27 35L27 37L28 37L28 35L29 35L29 37L31 37L31 36L30 36L30 35L32 35L32 37L37 37L37 36L36 36L36 34L33 34L33 35L32 35L32 33L36 33L36 32L35 32L35 31L36 31L36 29L37 29L37 28L36 28L36 29L35 29L35 30L34 30L34 31L33 31L33 28L30 28L30 27L29 27L29 26L31 26L31 27L32 27L32 26L33 26L33 27L34 27L34 26L35 26L35 27L36 27L36 24L37 24L37 20L36 20L36 17L37 17L37 16L36 16L36 13L37 13L37 11L36 11L36 9L35 9L35 8L34 8L34 9L35 9L35 10L34 10L34 11L33 11L33 10L32 10L32 11L31 11L31 12L30 12L30 10L31 10L31 9L33 9L33 8L31 8L31 9L30 9L30 8L28 8L28 9L30 9L30 10L29 10L29 11L28 11L28 10L27 10L27 9L26 9L26 7L27 7L27 6L26 6L26 7L25 7L25 5L23 5L23 2L24 2L24 3L26 3L26 5L28 5L28 7L29 7L29 5L28 5L28 3L29 3L29 2L28 2L28 3L26 3L26 2L25 2L25 1L23 1L23 2L20 2L20 1L21 1L21 0ZM27 0L27 1L28 1L28 0ZM19 2L19 3L20 3L20 4L21 4L21 7L20 7L20 5L19 5L19 8L18 8L18 6L17 6L17 7L16 7L16 8L17 8L17 10L18 10L18 9L19 9L19 8L20 8L20 9L21 9L21 10L19 10L19 11L18 11L18 12L16 12L16 11L15 11L15 10L16 10L16 9L15 9L15 7L14 7L14 6L13 6L13 5L11 5L11 4L10 4L10 6L11 6L11 7L12 7L12 8L13 8L13 7L14 7L14 11L11 11L11 12L12 12L12 13L13 13L13 15L12 15L12 16L13 16L13 17L14 17L14 20L15 20L15 21L12 21L12 20L13 20L13 19L11 19L11 21L12 21L12 22L10 22L10 21L9 21L9 20L10 20L10 18L9 18L9 20L7 20L7 19L6 19L6 20L5 20L5 21L6 21L6 22L8 22L8 23L9 23L9 24L8 24L8 27L9 27L9 25L10 25L10 26L11 26L11 25L10 25L10 24L13 24L13 25L14 25L14 24L15 24L15 22L17 22L17 21L16 21L16 20L18 20L18 21L19 21L19 23L16 23L16 25L15 25L15 26L16 26L16 27L19 27L19 26L16 26L16 25L17 25L17 24L18 24L18 25L19 25L19 23L20 23L20 24L21 24L21 23L20 23L20 20L19 20L19 19L18 19L18 18L17 18L17 17L18 17L18 16L17 16L17 13L19 13L19 14L22 14L22 13L25 13L25 16L23 16L23 15L22 15L22 16L21 16L21 15L19 15L19 16L20 16L20 18L21 18L21 19L22 19L22 21L21 21L21 22L22 22L22 23L23 23L23 22L24 22L24 21L25 21L25 20L26 20L26 19L27 19L27 21L26 21L26 22L25 22L25 23L24 23L24 24L23 24L23 25L22 25L22 26L21 26L21 25L20 25L20 27L21 27L21 29L19 29L19 28L18 28L18 29L19 29L19 31L20 31L20 30L21 30L21 29L22 29L22 27L23 27L23 25L25 25L25 24L26 24L26 23L27 23L27 21L28 21L28 22L29 22L29 21L30 21L30 20L31 20L31 21L33 21L33 19L34 19L34 18L35 18L35 17L34 17L34 15L33 15L33 14L35 14L35 13L36 13L36 11L35 11L35 12L34 12L34 13L33 13L33 12L31 12L31 13L30 13L30 12L27 12L27 14L26 14L26 11L25 11L25 9L24 9L24 12L23 12L23 11L22 11L22 12L21 12L21 10L23 10L23 9L21 9L21 7L22 7L22 3L20 3L20 2ZM12 6L12 7L13 7L13 6ZM23 6L23 8L24 8L24 6ZM1 8L1 9L0 9L0 10L1 10L1 9L2 9L2 8ZM4 8L4 9L5 9L5 8ZM8 9L8 10L9 10L9 9ZM5 11L5 12L7 12L7 11ZM14 11L14 14L16 14L16 13L15 13L15 11ZM19 11L19 12L20 12L20 11ZM29 13L29 14L27 14L27 15L29 15L29 14L30 14L30 15L31 15L31 16L28 16L28 17L27 17L27 16L26 16L26 17L24 17L24 18L23 18L23 17L22 17L22 19L23 19L23 20L24 20L24 19L25 19L25 18L27 18L27 19L30 19L30 18L28 18L28 17L31 17L31 20L32 20L32 18L34 18L34 17L32 17L32 15L31 15L31 14L33 14L33 13L31 13L31 14L30 14L30 13ZM14 15L14 17L15 17L15 20L16 20L16 19L17 19L17 18L16 18L16 17L17 17L17 16L16 16L16 15ZM4 16L4 17L5 17L5 16ZM15 16L15 17L16 17L16 16ZM6 17L6 18L7 18L7 17ZM6 20L6 21L7 21L7 20ZM28 20L28 21L29 21L29 20ZM8 21L8 22L9 22L9 21ZM35 21L35 23L36 23L36 21ZM6 23L6 24L5 24L5 27L6 27L6 28L7 28L7 27L6 27L6 26L7 26L7 25L6 25L6 24L7 24L7 23ZM31 24L31 25L32 25L32 24ZM16 28L16 30L17 30L17 28ZM29 29L29 32L32 32L32 29ZM27 30L27 31L28 31L28 30ZM30 30L30 31L31 31L31 30ZM12 31L12 32L13 32L13 31ZM17 31L17 32L16 32L16 33L17 33L17 34L18 34L18 33L19 33L19 32L18 32L18 31ZM17 32L17 33L18 33L18 32ZM29 33L29 35L30 35L30 33ZM12 34L12 35L13 35L13 34ZM27 34L27 35L28 35L28 34ZM0 0L0 7L7 7L7 0ZM1 1L1 6L6 6L6 1ZM2 2L2 5L5 5L5 2ZM30 0L30 7L37 7L37 0ZM31 1L31 6L36 6L36 1ZM32 2L32 5L35 5L35 2ZM0 30L0 37L7 37L7 30ZM1 31L1 36L6 36L6 31ZM2 32L2 35L5 35L5 32Z" fill="#000000"/></g></g></svg>
