<?xml version="1.0" encoding="UTF-8"?>
<svg xmlns="http://www.w3.org/2000/svg" version="1.1" width="300" height="300" viewBox="0 0 300 300"><rect x="0" y="0" width="300" height="300" fill="#ffffff"/><g transform="scale(8.108)"><g transform="translate(0,0)"><path fill-rule="evenodd" d="M9 0L9 1L10 1L10 2L8 2L8 3L9 3L9 4L8 4L8 7L9 7L9 6L10 6L10 8L11 8L11 11L13 11L13 13L12 13L12 12L11 12L11 13L9 13L9 11L7 11L7 10L8 10L8 9L9 9L9 10L10 10L10 9L9 9L9 8L8 8L8 9L7 9L7 8L6 8L6 9L5 9L5 8L4 8L4 9L5 9L5 10L6 10L6 11L7 11L7 12L6 12L6 13L7 13L7 14L5 14L5 15L4 15L4 13L5 13L5 12L4 12L4 10L0 10L0 16L1 16L1 17L3 17L3 16L5 16L5 18L4 18L4 19L5 19L5 20L4 20L4 21L2 21L2 22L4 22L4 21L5 21L5 20L6 20L6 21L7 21L7 20L8 20L8 21L11 21L11 19L13 19L13 17L14 17L14 16L15 16L15 18L14 18L14 22L16 22L16 23L15 23L15 24L14 24L14 28L15 28L15 29L12 29L12 28L13 28L13 24L11 24L11 23L12 23L12 22L13 22L13 21L12 21L12 22L11 22L11 23L10 23L10 22L5 22L5 23L8 23L8 24L5 24L5 26L4 26L4 23L1 23L1 24L0 24L0 26L2 26L2 27L3 27L3 28L0 28L0 29L3 29L3 28L4 28L4 27L5 27L5 29L7 29L7 28L8 28L8 27L9 27L9 24L10 24L10 26L11 26L11 25L12 25L12 27L11 27L11 28L10 28L10 29L12 29L12 30L11 30L11 31L9 31L9 32L8 32L8 33L9 33L9 34L10 34L10 35L8 35L8 36L10 36L10 37L12 37L12 36L13 36L13 37L14 37L14 36L15 36L15 37L18 37L18 35L19 35L19 34L20 34L20 35L21 35L21 36L22 36L22 35L23 35L23 34L21 34L21 33L18 33L18 32L21 32L21 31L19 31L19 29L18 29L18 27L16 27L16 26L17 26L17 25L18 25L18 24L17 24L17 25L16 25L16 26L15 26L15 24L16 24L16 23L17 23L17 20L18 20L18 22L19 22L19 23L21 23L21 24L20 24L20 25L19 25L19 26L20 26L20 27L21 27L21 26L23 26L23 27L22 27L22 29L21 29L21 28L20 28L20 29L21 29L21 30L22 30L22 29L23 29L23 31L22 31L22 33L23 33L23 31L24 31L24 29L25 29L25 27L24 27L24 26L25 26L25 25L27 25L27 24L28 24L28 22L29 22L29 23L30 23L30 21L32 21L32 22L33 22L33 24L32 24L32 25L31 25L31 24L30 24L30 25L28 25L28 27L29 27L29 26L31 26L31 27L32 27L32 26L33 26L33 27L34 27L34 26L35 26L35 25L36 25L36 24L37 24L37 20L36 20L36 17L37 17L37 16L36 16L36 13L37 13L37 11L36 11L36 9L35 9L35 8L34 8L34 9L35 9L35 10L34 10L34 11L33 11L33 10L32 10L32 11L31 11L31 12L30 12L30 11L28 11L28 10L27 10L27 9L26 9L26 7L27 7L27 6L26 6L26 7L25 7L25 5L23 5L23 2L24 2L24 3L26 3L26 5L28 5L28 3L29 3L29 1L28 1L28 0L27 0L27 1L28 1L28 3L26 3L26 2L25 2L25 1L23 1L23 2L22 2L22 1L21 1L21 0L18 0L18 1L19 1L19 2L18 2L18 3L19 3L19 4L20 4L20 5L18 5L18 8L17 8L17 6L16 6L16 8L15 8L15 9L16 9L16 10L14 10L14 7L15 7L15 5L17 5L17 4L16 4L16 3L17 3L17 2L16 2L16 1L17 1L17 0L16 0L16 1L15 1L15 0L14 0L14 2L13 2L13 3L12 3L12 4L11 4L11 5L9 5L9 4L10 4L10 2L11 2L11 1L12 1L12 0L11 0L11 1L10 1L10 0ZM20 1L20 2L19 2L19 3L20 3L20 2L21 2L21 1ZM13 3L13 4L12 4L12 5L11 5L11 8L12 8L12 9L13 9L13 7L14 7L14 6L13 6L13 7L12 7L12 5L15 5L15 3ZM21 3L21 5L20 5L20 6L19 6L19 8L18 8L18 9L17 9L17 10L19 10L19 8L20 8L20 9L21 9L21 10L23 10L23 9L21 9L21 7L22 7L22 6L23 6L23 8L24 8L24 9L25 9L25 11L24 11L24 12L23 12L23 11L22 11L22 12L21 12L21 11L20 11L20 12L19 12L19 13L18 13L18 14L19 14L19 16L20 16L20 18L22 18L22 19L23 19L23 18L24 18L24 17L26 17L26 15L27 15L27 14L28 14L28 15L29 15L29 16L31 16L31 15L32 15L32 17L33 17L33 19L32 19L32 18L31 18L31 17L28 17L28 18L30 18L30 19L32 19L32 21L33 21L33 19L34 19L34 18L35 18L35 17L33 17L33 14L31 14L31 13L33 13L33 12L31 12L31 13L30 13L30 12L27 12L27 10L26 10L26 9L25 9L25 8L24 8L24 6L23 6L23 5L22 5L22 3ZM21 5L21 6L20 6L20 7L21 7L21 6L22 6L22 5ZM28 6L28 7L29 7L29 6ZM1 8L1 9L2 9L2 8ZM28 8L28 9L30 9L30 10L31 10L31 9L33 9L33 8L31 8L31 9L30 9L30 8ZM6 9L6 10L7 10L7 9ZM13 10L13 11L14 11L14 13L17 13L17 12L18 12L18 11L17 11L17 12L16 12L16 11L14 11L14 10ZM1 11L1 14L2 14L2 15L1 15L1 16L2 16L2 15L3 15L3 13L4 13L4 12L2 12L2 11ZM7 12L7 13L8 13L8 12ZM20 12L20 13L21 13L21 12ZM24 12L24 13L22 13L22 14L21 14L21 15L20 15L20 16L22 16L22 15L23 15L23 16L25 16L25 14L27 14L27 12L26 12L26 13L25 13L25 12ZM34 12L34 15L35 15L35 12ZM11 13L11 14L9 14L9 15L6 15L6 16L8 16L8 18L9 18L9 19L10 19L10 17L11 17L11 18L12 18L12 16L14 16L14 14L12 14L12 13ZM24 13L24 14L25 14L25 13ZM29 13L29 14L30 14L30 15L31 15L31 14L30 14L30 13ZM11 14L11 15L12 15L12 14ZM15 14L15 16L17 16L17 17L16 17L16 18L15 18L15 20L17 20L17 19L18 19L18 20L19 20L19 22L24 22L24 21L25 21L25 20L26 20L26 19L27 19L27 18L25 18L25 19L24 19L24 20L22 20L22 21L21 21L21 20L19 20L19 18L18 18L18 16L17 16L17 14ZM9 15L9 16L10 16L10 15ZM6 17L6 18L5 18L5 19L6 19L6 20L7 20L7 19L6 19L6 18L7 18L7 17ZM22 17L22 18L23 18L23 17ZM2 18L2 20L3 20L3 18ZM16 18L16 19L17 19L17 18ZM0 19L0 22L1 22L1 19ZM28 19L28 20L27 20L27 21L26 21L26 22L25 22L25 23L24 23L24 24L23 24L23 23L22 23L22 25L25 25L25 24L26 24L26 23L27 23L27 21L30 21L30 20L29 20L29 19ZM34 21L34 22L35 22L35 23L36 23L36 21ZM6 25L6 26L5 26L5 27L6 27L6 28L7 28L7 27L8 27L8 26L7 26L7 25ZM6 26L6 27L7 27L7 26ZM26 26L26 29L27 29L27 30L26 30L26 33L27 33L27 32L28 32L28 33L30 33L30 35L29 35L29 36L30 36L30 35L32 35L32 36L31 36L31 37L37 37L37 36L36 36L36 34L35 34L35 35L34 35L34 33L36 33L36 32L35 32L35 31L36 31L36 29L35 29L35 30L33 30L33 28L27 28L27 26ZM35 27L35 28L36 28L36 27ZM16 28L16 30L12 30L12 31L11 31L11 33L13 33L13 34L12 34L12 35L10 35L10 36L12 36L12 35L14 35L14 33L13 33L13 32L15 32L15 33L16 33L16 32L15 32L15 31L16 31L16 30L17 30L17 28ZM23 28L23 29L24 29L24 28ZM8 29L8 30L9 30L9 29ZM29 29L29 32L32 32L32 29ZM27 30L27 31L28 31L28 30ZM30 30L30 31L31 31L31 30ZM17 31L17 32L18 32L18 31ZM24 32L24 33L25 33L25 32ZM17 33L17 34L16 34L16 35L15 35L15 36L16 36L16 35L18 35L18 33ZM32 33L32 35L33 35L33 33ZM25 34L25 35L24 35L24 36L23 36L23 37L26 37L26 35L28 35L28 34ZM19 36L19 37L20 37L20 36ZM0 0L0 7L7 7L7 0ZM1 1L1 6L6 6L6 1ZM2 2L2 5L5 5L5 2ZM30 0L30 7L37 7L37 0ZM31 1L31 6L36 6L36 1ZM32 2L32 5L35 5L35 2ZM0 30L0 37L7 37L7 30ZM1 31L1 36L6 36L6 31ZM2 32L2 35L5 35L5 32Z" fill="#000000"/></g></g></svg>
