<?xml version="1.0" encoding="UTF-8"?>
<svg xmlns="http://www.w3.org/2000/svg" version="1.1" width="300" height="300" viewBox="0 0 300 300"><rect x="0" y="0" width="300" height="300" fill="#ffffff"/><g transform="scale(8.108)"><g transform="translate(0,0)"><path fill-rule="evenodd" d="M10 0L10 1L11 1L11 0ZM13 0L13 2L10 2L10 3L8 3L8 5L9 5L9 6L8 6L8 9L9 9L9 6L10 6L10 9L11 9L11 10L6 10L6 11L8 11L8 13L9 13L9 14L8 14L8 15L7 15L7 14L6 14L6 15L7 15L7 16L6 16L6 17L7 17L7 16L8 16L8 15L9 15L9 14L10 14L10 13L11 13L11 12L12 12L12 13L14 13L14 12L13 12L13 11L14 11L14 10L12 10L12 9L16 9L16 8L15 8L15 6L16 6L16 7L17 7L17 6L16 6L16 5L18 5L18 7L19 7L19 6L20 6L20 7L21 7L21 5L24 5L24 7L23 7L23 6L22 6L22 9L23 9L23 12L21 12L21 11L22 11L22 10L21 10L21 9L19 9L19 8L17 8L17 10L19 10L19 11L16 11L16 10L15 10L15 14L14 14L14 15L13 15L13 16L12 16L12 17L11 17L11 18L10 18L10 16L9 16L9 17L8 17L8 18L9 18L9 21L8 21L8 22L9 22L9 21L10 21L10 22L14 22L14 23L15 23L15 24L14 24L14 25L13 25L13 23L12 23L12 25L10 25L10 24L11 24L11 23L10 23L10 24L9 24L9 23L8 23L8 26L4 26L4 25L5 25L5 22L6 22L6 23L7 23L7 22L6 22L6 21L7 21L7 20L5 20L5 19L4 19L4 18L5 18L5 17L4 17L4 16L5 16L5 15L4 15L4 16L2 16L2 15L0 15L0 18L1 18L1 16L2 16L2 20L0 20L0 29L1 29L1 27L2 27L2 29L4 29L4 28L3 28L3 27L5 27L5 28L6 28L6 29L8 29L8 30L9 30L9 28L8 28L8 27L9 27L9 25L10 25L10 28L11 28L11 31L12 31L12 30L13 30L13 33L12 33L12 32L11 32L11 35L10 35L10 34L9 34L9 31L8 31L8 34L9 34L9 35L8 35L8 36L9 36L9 35L10 35L10 36L11 36L11 35L13 35L13 36L14 36L14 37L15 37L15 36L14 36L14 33L15 33L15 34L16 34L16 35L17 35L17 34L16 34L16 32L17 32L17 33L18 33L18 34L19 34L19 33L20 33L20 34L21 34L21 35L22 35L22 34L23 34L23 33L25 33L25 34L24 34L24 35L25 35L25 36L24 36L24 37L26 37L26 33L25 33L25 32L26 32L26 30L27 30L27 28L28 28L28 31L27 31L27 33L30 33L30 34L32 34L32 37L33 37L33 35L34 35L34 36L36 36L36 37L37 37L37 34L35 34L35 33L36 33L36 32L37 32L37 30L35 30L35 29L37 29L37 26L36 26L36 25L34 25L34 24L36 24L36 23L35 23L35 21L36 21L36 22L37 22L37 18L36 18L36 17L37 17L37 14L36 14L36 13L37 13L37 12L36 12L36 13L35 13L35 11L34 11L34 13L32 13L32 12L33 12L33 11L31 11L31 10L32 10L32 9L34 9L34 10L35 10L35 9L36 9L36 8L35 8L35 9L34 9L34 8L32 8L32 9L31 9L31 8L29 8L29 6L28 6L28 7L27 7L27 4L28 4L28 3L29 3L29 0L28 0L28 2L27 2L27 4L25 4L25 3L24 3L24 2L25 2L25 1L24 1L24 0L18 0L18 2L17 2L17 3L16 3L16 5L15 5L15 2L16 2L16 0ZM8 1L8 2L9 2L9 1ZM20 1L20 2L21 2L21 1ZM22 1L22 3L23 3L23 1ZM18 2L18 4L19 4L19 5L21 5L21 4L19 4L19 2ZM12 3L12 4L9 4L9 5L10 5L10 6L11 6L11 9L12 9L12 8L14 8L14 6L15 6L15 5L12 5L12 4L13 4L13 3ZM24 4L24 5L25 5L25 4ZM12 6L12 7L13 7L13 6ZM25 6L25 7L24 7L24 8L26 8L26 6ZM1 8L1 10L2 10L2 8ZM3 8L3 9L4 9L4 10L3 10L3 11L2 11L2 12L3 12L3 14L4 14L4 12L3 12L3 11L5 11L5 9L7 9L7 8ZM28 8L28 9L27 9L27 10L26 10L26 9L24 9L24 10L26 10L26 11L25 11L25 13L24 13L24 12L23 12L23 13L24 13L24 14L23 14L23 15L21 15L21 14L22 14L22 13L21 13L21 12L20 12L20 11L19 11L19 12L18 12L18 14L15 14L15 15L14 15L14 16L20 16L20 17L19 17L19 18L16 18L16 17L15 17L15 18L12 18L12 19L16 19L16 20L15 20L15 21L14 21L14 20L11 20L11 19L10 19L10 21L14 21L14 22L15 22L15 23L17 23L17 24L19 24L19 23L18 23L18 22L17 22L17 20L18 20L18 21L19 21L19 22L20 22L20 20L21 20L21 22L22 22L22 23L21 23L21 25L20 25L20 27L18 27L18 28L17 28L17 30L18 30L18 33L19 33L19 31L20 31L20 32L21 32L21 31L22 31L22 33L21 33L21 34L22 34L22 33L23 33L23 32L24 32L24 31L25 31L25 30L24 30L24 29L25 29L25 28L27 28L27 27L28 27L28 28L30 28L30 27L31 27L31 28L32 28L32 27L33 27L33 26L29 26L29 27L28 27L28 25L25 25L25 24L26 24L26 22L27 22L27 20L28 20L28 21L30 21L30 22L31 22L31 25L32 25L32 24L33 24L33 22L31 22L31 21L30 21L30 20L32 20L32 19L33 19L33 21L35 21L35 20L36 20L36 18L35 18L35 17L36 17L36 14L35 14L35 13L34 13L34 15L33 15L33 14L32 14L32 13L30 13L30 15L31 15L31 17L29 17L29 18L28 18L28 19L26 19L26 21L25 21L25 20L24 20L24 19L25 19L25 18L27 18L27 17L25 17L25 16L26 16L26 15L27 15L27 16L28 16L28 15L29 15L29 13L27 13L27 14L25 14L25 13L26 13L26 12L28 12L28 11L27 11L27 10L28 10L28 9L29 9L29 11L30 11L30 12L31 12L31 11L30 11L30 9L29 9L29 8ZM11 10L11 11L12 11L12 10ZM36 10L36 11L37 11L37 10ZM0 11L0 12L1 12L1 11ZM6 12L6 13L7 13L7 12ZM9 12L9 13L10 13L10 12ZM16 12L16 13L17 13L17 12ZM19 12L19 13L20 13L20 14L21 14L21 13L20 13L20 12ZM0 13L0 14L1 14L1 13ZM24 14L24 15L23 15L23 18L22 18L22 22L23 22L23 26L24 26L24 28L25 28L25 27L27 27L27 26L25 26L25 25L24 25L24 24L25 24L25 23L24 23L24 22L25 22L25 21L24 21L24 22L23 22L23 19L24 19L24 18L25 18L25 17L24 17L24 15L25 15L25 14ZM27 14L27 15L28 15L28 14ZM31 14L31 15L32 15L32 16L33 16L33 15L32 15L32 14ZM20 15L20 16L21 16L21 17L20 17L20 18L21 18L21 17L22 17L22 16L21 16L21 15ZM34 15L34 17L35 17L35 15ZM6 18L6 19L7 19L7 18ZM30 18L30 19L31 19L31 18ZM34 18L34 19L35 19L35 18ZM28 19L28 20L29 20L29 19ZM2 20L2 22L1 22L1 23L2 23L2 22L3 22L3 23L4 23L4 22L5 22L5 20ZM3 21L3 22L4 22L4 21ZM28 22L28 24L30 24L30 23L29 23L29 22ZM2 24L2 25L4 25L4 24ZM6 24L6 25L7 25L7 24ZM15 24L15 26L11 26L11 28L12 28L12 27L13 27L13 30L14 30L14 31L15 31L15 32L16 32L16 27L17 27L17 26L18 26L18 25L17 25L17 26L16 26L16 24ZM21 25L21 26L22 26L22 25ZM15 26L15 27L16 27L16 26ZM34 26L34 29L33 29L33 33L32 33L32 34L33 34L33 33L35 33L35 31L34 31L34 29L35 29L35 27L36 27L36 26ZM6 27L6 28L7 28L7 27ZM21 27L21 28L19 28L19 30L20 30L20 29L21 29L21 30L23 30L23 31L24 31L24 30L23 30L23 27ZM29 29L29 32L32 32L32 29ZM30 30L30 31L31 31L31 30ZM34 34L34 35L35 35L35 34ZM29 35L29 36L28 36L28 37L29 37L29 36L30 36L30 37L31 37L31 36L30 36L30 35ZM17 36L17 37L20 37L20 36ZM21 36L21 37L23 37L23 36ZM0 0L0 7L7 7L7 0ZM1 1L1 6L6 6L6 1ZM2 2L2 5L5 5L5 2ZM30 0L30 7L37 7L37 0ZM31 1L31 6L36 6L36 1ZM32 2L32 5L35 5L35 2ZM0 30L0 37L7 37L7 30ZM1 31L1 36L6 36L6 31ZM2 32L2 35L5 35L5 32Z" fill="#000000"/></g></g></svg>
