<?xml version="1.0" encoding="UTF-8"?>
<svg xmlns="http://www.w3.org/2000/svg" version="1.1" width="300" height="300" viewBox="0 0 300 300"><rect x="0" y="0" width="300" height="300" fill="#ffffff"/><g transform="scale(6.122)"><g transform="translate(0,0)"><path fill-rule="evenodd" d="M8 0L8 1L9 1L9 4L8 4L8 7L9 7L9 10L8 10L8 8L1 8L1 9L0 9L0 10L1 10L1 9L3 9L3 10L4 10L4 11L5 11L5 12L4 12L4 13L1 13L1 14L3 14L3 15L2 15L2 16L3 16L3 17L7 17L7 18L5 18L5 20L6 20L6 21L5 21L5 22L3 22L3 24L2 24L2 23L1 23L1 21L2 21L2 20L1 20L1 19L3 19L3 21L4 21L4 19L3 19L3 18L1 18L1 15L0 15L0 18L1 18L1 19L0 19L0 20L1 20L1 21L0 21L0 26L1 26L1 24L2 24L2 27L1 27L1 28L0 28L0 29L2 29L2 28L4 28L4 29L3 29L3 30L5 30L5 29L7 29L7 28L8 28L8 29L10 29L10 28L12 28L12 27L14 27L14 28L13 28L13 29L12 29L12 31L11 31L11 30L8 30L8 31L7 31L7 30L6 30L6 31L5 31L5 32L4 32L4 31L2 31L2 30L1 30L1 31L2 31L2 32L1 32L1 33L2 33L2 32L3 32L3 33L4 33L4 34L1 34L1 35L0 35L0 36L1 36L1 37L4 37L4 38L5 38L5 39L7 39L7 38L5 38L5 37L8 37L8 36L9 36L9 38L8 38L8 39L9 39L9 38L11 38L11 39L10 39L10 40L9 40L9 41L8 41L8 40L6 40L6 41L8 41L8 48L9 48L9 49L10 49L10 48L11 48L11 49L12 49L12 46L14 46L14 48L15 48L15 49L18 49L18 46L19 46L19 47L20 47L20 49L21 49L21 48L22 48L22 46L23 46L23 45L27 45L27 44L29 44L29 45L28 45L28 46L27 46L27 49L28 49L28 48L29 48L29 49L30 49L30 47L28 47L28 46L31 46L31 47L32 47L32 48L31 48L31 49L32 49L32 48L33 48L33 49L34 49L34 47L37 47L37 48L35 48L35 49L38 49L38 48L40 48L40 49L41 49L41 46L42 46L42 48L43 48L43 47L44 47L44 48L45 48L45 49L49 49L49 45L48 45L48 44L46 44L46 46L45 46L45 43L46 43L46 42L45 42L45 41L48 41L48 40L45 40L45 39L49 39L49 38L45 38L45 39L44 39L44 37L47 37L47 36L48 36L48 37L49 37L49 34L47 34L47 36L44 36L44 34L42 34L42 33L41 33L41 32L42 32L42 31L43 31L43 33L49 33L49 32L44 32L44 31L45 31L45 30L44 30L44 29L45 29L45 28L44 28L44 27L45 27L45 25L47 25L47 26L46 26L46 27L47 27L47 26L48 26L48 28L46 28L46 31L47 31L47 29L49 29L49 26L48 26L48 24L45 24L45 23L46 23L46 22L47 22L47 23L49 23L49 22L47 22L47 20L48 20L48 21L49 21L49 18L47 18L47 17L48 17L48 16L46 16L46 13L48 13L48 12L46 12L46 11L44 11L44 10L43 10L43 9L45 9L45 8L43 8L43 9L42 9L42 10L41 10L41 11L42 11L42 10L43 10L43 11L44 11L44 12L38 12L38 13L39 13L39 14L36 14L36 13L37 13L37 12L36 12L36 13L35 13L35 14L34 14L34 13L31 13L31 12L33 12L33 11L34 11L34 12L35 12L35 10L36 10L36 11L37 11L37 10L38 10L38 11L39 11L39 10L38 10L38 9L41 9L41 8L38 8L38 7L39 7L39 5L38 5L38 3L35 3L35 2L37 2L37 1L38 1L38 2L39 2L39 4L40 4L40 3L41 3L41 0L40 0L40 1L38 1L38 0L35 0L35 1L31 1L31 0L29 0L29 1L31 1L31 2L32 2L32 3L33 3L33 4L37 4L37 6L36 6L36 7L35 7L35 5L33 5L33 6L32 6L32 7L31 7L31 6L30 6L30 5L32 5L32 4L30 4L30 2L28 2L28 0L27 0L27 3L25 3L25 2L26 2L26 1L25 1L25 0L23 0L23 1L20 1L20 2L18 2L18 3L16 3L16 1L19 1L19 0L16 0L16 1L15 1L15 0ZM10 1L10 5L9 5L9 7L10 7L10 9L11 9L11 10L12 10L12 11L8 11L8 12L9 12L9 13L6 13L6 14L5 14L5 13L4 13L4 15L3 15L3 16L4 16L4 15L5 15L5 16L7 16L7 17L8 17L8 18L10 18L10 19L9 19L9 20L10 20L10 21L8 21L8 20L7 20L7 19L6 19L6 20L7 20L7 21L6 21L6 22L10 22L10 23L11 23L11 24L13 24L13 25L9 25L9 27L12 27L12 26L13 26L13 25L14 25L14 27L15 27L15 29L14 29L14 30L15 30L15 31L14 31L14 32L10 32L10 31L8 31L8 32L7 32L7 31L6 31L6 32L7 32L7 33L6 33L6 34L5 34L5 35L2 35L2 36L5 36L5 35L6 35L6 36L7 36L7 35L8 35L8 34L7 34L7 33L9 33L9 32L10 32L10 33L13 33L13 36L14 36L14 34L15 34L15 35L16 35L16 36L15 36L15 39L14 39L14 37L11 37L11 38L12 38L12 40L11 40L11 41L10 41L10 42L9 42L9 44L10 44L10 42L11 42L11 44L14 44L14 45L15 45L15 46L16 46L16 42L17 42L17 43L18 43L18 42L19 42L19 46L20 46L20 47L21 47L21 46L20 46L20 40L18 40L18 41L16 41L16 40L17 40L17 39L18 39L18 38L16 38L16 36L17 36L17 37L18 37L18 36L19 36L19 37L20 37L20 36L21 36L21 38L19 38L19 39L21 39L21 40L24 40L24 39L22 39L22 36L23 36L23 37L24 37L24 38L25 38L25 39L27 39L27 40L28 40L28 41L27 41L27 42L28 42L28 43L29 43L29 42L30 42L30 41L29 41L29 40L30 40L30 39L31 39L31 43L33 43L33 44L32 44L32 47L33 47L33 46L35 46L35 44L37 44L37 43L35 43L35 41L36 41L36 40L38 40L38 41L37 41L37 42L38 42L38 43L40 43L40 41L39 41L39 40L41 40L41 39L42 39L42 40L44 40L44 39L42 39L42 38L41 38L41 39L36 39L36 38L39 38L39 36L40 36L40 37L41 37L41 36L42 36L42 37L44 37L44 36L43 36L43 35L42 35L42 34L39 34L39 32L40 32L40 31L41 31L41 30L42 30L42 29L41 29L41 30L40 30L40 29L38 29L38 28L41 28L41 27L40 27L40 24L39 24L39 23L40 23L40 22L41 22L41 21L42 21L42 17L41 17L41 16L39 16L39 17L40 17L40 18L34 18L34 17L33 17L33 16L34 16L34 14L32 14L32 15L33 15L33 16L31 16L31 14L30 14L30 12L31 12L31 11L33 11L33 10L35 10L35 9L36 9L36 8L34 8L34 9L33 9L33 7L34 7L34 6L33 6L33 7L32 7L32 8L31 8L31 7L30 7L30 6L29 6L29 4L28 4L28 3L27 3L27 9L26 9L26 10L27 10L27 11L26 11L26 12L23 12L23 13L24 13L24 14L23 14L23 15L22 15L22 14L21 14L21 11L22 11L22 10L23 10L23 11L25 11L25 10L24 10L24 9L21 9L21 8L20 8L20 5L22 5L22 4L23 4L23 3L24 3L24 2L25 2L25 1L24 1L24 2L22 2L22 4L19 4L19 3L18 3L18 4L17 4L17 5L16 5L16 6L15 6L15 7L16 7L16 6L17 6L17 7L18 7L18 8L17 8L17 9L14 9L14 6L13 6L13 5L12 5L12 6L11 6L11 3L12 3L12 4L14 4L14 5L15 5L15 3L14 3L14 1L12 1L12 2L11 2L11 1ZM12 2L12 3L13 3L13 2ZM33 2L33 3L34 3L34 2ZM18 4L18 5L17 5L17 6L18 6L18 7L19 7L19 6L18 6L18 5L19 5L19 4ZM23 5L23 8L26 8L26 5ZM10 6L10 7L11 7L11 6ZM12 6L12 7L13 7L13 6ZM21 6L21 7L22 7L22 6ZM24 6L24 7L25 7L25 6ZM28 6L28 9L30 9L30 10L29 10L29 11L30 11L30 10L32 10L32 9L31 9L31 8L29 8L29 6ZM37 6L37 7L38 7L38 6ZM40 6L40 7L41 7L41 6ZM48 8L48 9L46 9L46 10L48 10L48 11L49 11L49 10L48 10L48 9L49 9L49 8ZM4 9L4 10L7 10L7 9ZM17 9L17 10L14 10L14 11L21 11L21 10L20 10L20 9L19 9L19 10L18 10L18 9ZM1 11L1 12L3 12L3 11ZM6 11L6 12L7 12L7 11ZM12 12L12 13L14 13L14 14L15 14L15 15L16 15L16 16L15 16L15 17L16 17L16 18L12 18L12 20L13 20L13 19L16 19L16 20L15 20L15 21L14 21L14 22L15 22L15 23L14 23L14 25L15 25L15 27L16 27L16 29L17 29L17 27L16 27L16 24L17 24L17 23L18 23L18 22L20 22L20 23L19 23L19 25L20 25L20 26L19 26L19 28L18 28L18 30L19 30L19 31L18 31L18 32L16 32L16 35L18 35L18 34L19 34L19 31L22 31L22 32L20 32L20 35L19 35L19 36L20 36L20 35L21 35L21 33L22 33L22 34L23 34L23 36L24 36L24 37L25 37L25 38L26 38L26 37L25 37L25 36L29 36L29 37L28 37L28 38L29 38L29 39L28 39L28 40L29 40L29 39L30 39L30 38L31 38L31 39L32 39L32 40L34 40L34 39L35 39L35 40L36 40L36 39L35 39L35 38L36 38L36 37L37 37L37 36L38 36L38 35L39 35L39 34L37 34L37 36L36 36L36 34L33 34L33 33L36 33L36 32L37 32L37 33L38 33L38 31L40 31L40 30L38 30L38 29L37 29L37 28L36 28L36 26L37 26L37 24L38 24L38 23L39 23L39 22L38 22L38 23L37 23L37 21L41 21L41 20L40 20L40 19L37 19L37 20L36 20L36 21L35 21L35 22L33 22L33 21L32 21L32 22L31 22L31 20L30 20L30 19L32 19L32 20L34 20L34 18L32 18L32 17L31 17L31 18L30 18L30 17L29 17L29 16L30 16L30 14L29 14L29 12L26 12L26 13L25 13L25 17L23 17L23 16L24 16L24 15L23 15L23 16L22 16L22 17L23 17L23 18L25 18L25 19L24 19L24 20L23 20L23 19L22 19L22 18L21 18L21 17L20 17L20 15L19 15L19 14L20 14L20 12L18 12L18 13L19 13L19 14L17 14L17 12ZM44 12L44 13L46 13L46 12ZM15 13L15 14L16 14L16 13ZM26 13L26 17L25 17L25 18L27 18L27 17L28 17L28 20L27 20L27 19L25 19L25 21L23 21L23 20L22 20L22 19L21 19L21 21L23 21L23 22L26 22L26 20L27 20L27 21L29 21L29 19L30 19L30 18L29 18L29 17L28 17L28 15L29 15L29 14L27 14L27 13ZM40 13L40 14L42 14L42 15L43 15L43 14L42 14L42 13ZM6 14L6 15L7 15L7 16L8 16L8 15L9 15L9 14ZM10 14L10 16L11 16L11 17L10 17L10 18L11 18L11 17L14 17L14 16L13 16L13 14ZM35 14L35 15L36 15L36 16L35 16L35 17L36 17L36 16L37 16L37 17L38 17L38 16L37 16L37 15L36 15L36 14ZM47 14L47 15L49 15L49 14ZM11 15L11 16L12 16L12 15ZM17 15L17 16L18 16L18 17L17 17L17 18L16 18L16 19L17 19L17 18L18 18L18 19L19 19L19 15ZM44 16L44 17L46 17L46 16ZM46 18L46 19L45 19L45 20L44 20L44 21L43 21L43 22L46 22L46 20L47 20L47 18ZM10 19L10 20L11 20L11 19ZM16 20L16 21L15 21L15 22L16 22L16 23L15 23L15 24L16 24L16 23L17 23L17 22L18 22L18 21L20 21L20 20ZM12 21L12 22L11 22L11 23L12 23L12 22L13 22L13 21ZM28 22L28 23L27 23L27 24L28 24L28 25L27 25L27 26L28 26L28 27L26 27L26 29L25 29L25 28L24 28L24 27L23 27L23 28L22 28L22 25L21 25L21 27L20 27L20 28L19 28L19 29L20 29L20 30L22 30L22 31L23 31L23 32L22 32L22 33L23 33L23 32L27 32L27 33L26 33L26 34L24 34L24 35L28 35L28 34L27 34L27 33L28 33L28 32L36 32L36 30L35 30L35 27L34 27L34 26L36 26L36 25L34 25L34 23L33 23L33 22L32 22L32 23L31 23L31 22L30 22L30 23L31 23L31 24L32 24L32 25L33 25L33 28L32 28L32 27L31 27L31 26L29 26L29 25L30 25L30 24L29 24L29 22ZM5 23L5 26L8 26L8 23ZM20 23L20 24L22 24L22 23ZM23 23L23 26L26 26L26 23ZM32 23L32 24L33 24L33 23ZM35 23L35 24L37 24L37 23ZM41 23L41 26L44 26L44 23ZM3 24L3 25L4 25L4 24ZM6 24L6 25L7 25L7 24ZM24 24L24 25L25 25L25 24ZM42 24L42 25L43 25L43 24ZM17 25L17 26L18 26L18 25ZM3 26L3 27L4 27L4 28L7 28L7 27L4 27L4 26ZM38 26L38 27L39 27L39 26ZM28 27L28 28L27 28L27 29L26 29L26 30L25 30L25 29L24 29L24 31L27 31L27 32L28 32L28 31L27 31L27 29L28 29L28 28L29 28L29 30L31 30L31 31L32 31L32 28L31 28L31 27L30 27L30 28L29 28L29 27ZM42 27L42 28L43 28L43 29L44 29L44 28L43 28L43 27ZM21 28L21 29L22 29L22 28ZM30 28L30 29L31 29L31 28ZM33 28L33 29L34 29L34 28ZM33 30L33 31L35 31L35 30ZM37 30L37 31L38 31L38 30ZM43 30L43 31L44 31L44 30ZM48 30L48 31L49 31L49 30ZM14 32L14 33L15 33L15 32ZM31 33L31 34L29 34L29 36L30 36L30 35L31 35L31 34L32 34L32 33ZM6 34L6 35L7 35L7 34ZM9 34L9 35L11 35L11 36L12 36L12 34ZM45 34L45 35L46 35L46 34ZM34 35L34 37L33 37L33 36L31 36L31 38L32 38L32 39L33 39L33 38L35 38L35 37L36 37L36 36L35 36L35 35ZM40 35L40 36L41 36L41 35ZM29 37L29 38L30 38L30 37ZM1 38L1 40L0 40L0 41L3 41L3 40L4 40L4 39L2 39L2 38ZM15 39L15 40L16 40L16 39ZM13 40L13 41L11 41L11 42L13 42L13 43L14 43L14 42L16 42L16 41L14 41L14 40ZM13 41L13 42L14 42L14 41ZM23 41L23 44L26 44L26 41ZM28 41L28 42L29 42L29 41ZM32 41L32 42L34 42L34 41ZM41 41L41 44L44 44L44 41ZM21 42L21 45L22 45L22 42ZM24 42L24 43L25 43L25 42ZM42 42L42 43L43 43L43 42ZM47 42L47 43L49 43L49 42ZM34 43L34 44L33 44L33 45L34 45L34 44L35 44L35 43ZM17 44L17 45L18 45L18 44ZM10 45L10 47L11 47L11 45ZM38 45L38 46L37 46L37 47L38 47L38 46L39 46L39 47L40 47L40 46L41 46L41 45L40 45L40 46L39 46L39 45ZM43 45L43 46L44 46L44 47L45 47L45 48L48 48L48 47L47 47L47 46L46 46L46 47L45 47L45 46L44 46L44 45ZM24 46L24 47L23 47L23 48L24 48L24 49L25 49L25 48L26 48L26 47L25 47L25 46ZM24 47L24 48L25 48L25 47ZM0 0L0 7L7 7L7 0ZM1 1L1 6L6 6L6 1ZM2 2L2 5L5 5L5 2ZM42 0L42 7L49 7L49 0ZM43 1L43 6L48 6L48 1ZM44 2L44 5L47 5L47 2ZM0 42L0 49L7 49L7 42ZM1 43L1 48L6 48L6 43ZM2 44L2 47L5 47L5 44Z" fill="#000000"/></g></g></svg>
