<?xml version="1.0" encoding="UTF-8"?>
<svg xmlns="http://www.w3.org/2000/svg" version="1.1" width="300" height="300" viewBox="0 0 300 300"><rect x="0" y="0" width="300" height="300" fill="#ffffff"/><g transform="scale(8.108)"><g transform="translate(0,0)"><path fill-rule="evenodd" d="M8 0L8 2L10 2L10 4L9 4L9 6L8 6L8 7L9 7L9 6L10 6L10 9L9 9L9 8L6 8L6 9L4 9L4 10L2 10L2 8L1 8L1 9L0 9L0 10L1 10L1 11L0 11L0 12L1 12L1 13L0 13L0 15L1 15L1 13L2 13L2 12L3 12L3 11L4 11L4 12L5 12L5 14L3 14L3 15L4 15L4 16L5 16L5 17L3 17L3 16L0 16L0 19L2 19L2 18L4 18L4 20L2 20L2 23L1 23L1 20L0 20L0 29L1 29L1 25L2 25L2 23L3 23L3 24L5 24L5 26L4 26L4 25L3 25L3 26L2 26L2 28L3 28L3 29L5 29L5 28L6 28L6 29L8 29L8 31L9 31L9 29L10 29L10 30L11 30L11 31L12 31L12 30L11 30L11 28L12 28L12 29L13 29L13 28L15 28L15 27L16 27L16 31L17 31L17 32L16 32L16 33L15 33L15 32L14 32L14 31L13 31L13 33L11 33L11 32L10 32L10 33L9 33L9 35L8 35L8 36L9 36L9 35L10 35L10 37L11 37L11 36L12 36L12 35L13 35L13 36L14 36L14 37L20 37L20 36L19 36L19 33L20 33L20 35L22 35L22 36L21 36L21 37L23 37L23 36L24 36L24 37L26 37L26 35L27 35L27 37L30 37L30 36L31 36L31 37L32 37L32 36L31 36L31 35L30 35L30 36L29 36L29 35L27 35L27 34L26 34L26 32L27 32L27 33L29 33L29 34L32 34L32 33L33 33L33 37L34 37L34 35L35 35L35 33L36 33L36 32L37 32L37 30L36 30L36 29L37 29L37 28L36 28L36 27L37 27L37 26L36 26L36 25L33 25L33 24L32 24L32 22L34 22L34 23L36 23L36 22L37 22L37 18L36 18L36 17L37 17L37 14L36 14L36 13L37 13L37 10L36 10L36 9L37 9L37 8L35 8L35 9L34 9L34 10L36 10L36 11L35 11L35 12L34 12L34 14L36 14L36 16L35 16L35 15L34 15L34 17L33 17L33 15L32 15L32 17L33 17L33 18L31 18L31 19L30 19L30 18L28 18L28 17L31 17L31 15L30 15L30 14L25 14L25 13L24 13L24 12L23 12L23 11L22 11L22 10L21 10L21 8L18 8L18 9L17 9L17 8L14 8L14 7L15 7L15 6L14 6L14 7L13 7L13 5L14 5L14 4L13 4L13 5L12 5L12 3L14 3L14 2L15 2L15 1L17 1L17 0L15 0L15 1L14 1L14 0L13 0L13 1L14 1L14 2L10 2L10 1L11 1L11 0ZM18 0L18 2L19 2L19 1L20 1L20 3L17 3L17 2L16 2L16 4L15 4L15 5L16 5L16 7L17 7L17 6L18 6L18 7L19 7L19 6L20 6L20 7L21 7L21 6L22 6L22 8L23 8L23 10L24 10L24 9L25 9L25 8L26 8L26 10L25 10L25 11L26 11L26 13L29 13L29 12L27 12L27 11L30 11L30 13L31 13L31 12L33 12L33 10L32 10L32 9L30 9L30 8L29 8L29 6L28 6L28 7L27 7L27 5L26 5L26 4L25 4L25 3L26 3L26 2L27 2L27 1L24 1L24 0L22 0L22 1L23 1L23 2L21 2L21 0ZM28 0L28 1L29 1L29 0ZM24 2L24 3L25 3L25 2ZM28 3L28 5L29 5L29 3ZM10 4L10 6L11 6L11 8L13 8L13 9L12 9L12 10L11 10L11 12L12 12L12 13L13 13L13 12L12 12L12 10L13 10L13 11L14 11L14 13L15 13L15 10L16 10L16 12L17 12L17 13L16 13L16 14L15 14L15 15L16 15L16 16L14 16L14 14L11 14L11 15L10 15L10 14L9 14L9 13L10 13L10 12L7 12L7 11L6 11L6 12L7 12L7 13L6 13L6 14L5 14L5 16L7 16L7 17L6 17L6 18L5 18L5 20L4 20L4 21L3 21L3 23L5 23L5 24L7 24L7 23L6 23L6 22L7 22L7 21L6 21L6 20L7 20L7 19L9 19L9 20L8 20L8 22L9 22L9 24L8 24L8 29L9 29L9 26L11 26L11 27L12 27L12 28L13 28L13 27L14 27L14 26L16 26L16 25L14 25L14 24L18 24L18 25L19 25L19 26L20 26L20 28L19 28L19 27L18 27L18 28L19 28L19 29L18 29L18 33L16 33L16 35L14 35L14 33L13 33L13 35L14 35L14 36L16 36L16 35L17 35L17 36L18 36L18 33L19 33L19 32L20 32L20 28L21 28L21 27L22 27L22 26L23 26L23 29L22 29L22 30L21 30L21 31L22 31L22 32L23 32L23 34L22 34L22 33L21 33L21 34L22 34L22 35L23 35L23 34L25 34L25 33L24 33L24 32L23 32L23 29L25 29L25 28L27 28L27 29L26 29L26 31L25 31L25 30L24 30L24 31L25 31L25 32L26 32L26 31L27 31L27 32L28 32L28 30L27 30L27 29L28 29L28 28L29 28L29 27L30 27L30 28L32 28L32 27L33 27L33 25L32 25L32 24L31 24L31 26L32 26L32 27L30 27L30 26L28 26L28 25L27 25L27 27L26 27L26 26L25 26L25 27L24 27L24 26L23 26L23 24L24 24L24 25L25 25L25 24L26 24L26 23L27 23L27 24L28 24L28 23L30 23L30 22L32 22L32 21L29 21L29 22L28 22L28 23L27 23L27 20L28 20L28 19L27 19L27 20L26 20L26 19L25 19L25 18L27 18L27 16L29 16L29 15L27 15L27 16L26 16L26 15L25 15L25 14L22 14L22 13L20 13L20 12L22 12L22 11L21 11L21 10L20 10L20 11L19 11L19 10L18 10L18 11L19 11L19 12L17 12L17 9L14 9L14 8L13 8L13 7L12 7L12 5L11 5L11 4ZM18 4L18 6L19 6L19 4ZM20 4L20 6L21 6L21 4ZM23 4L23 5L22 5L22 6L23 6L23 7L24 7L24 8L25 8L25 7L26 7L26 8L27 8L27 7L26 7L26 6L25 6L25 7L24 7L24 6L23 6L23 5L25 5L25 4ZM6 9L6 10L8 10L8 11L9 11L9 10L8 10L8 9ZM27 9L27 10L26 10L26 11L27 11L27 10L28 10L28 9ZM29 9L29 10L30 10L30 9ZM31 10L31 11L32 11L32 10ZM1 11L1 12L2 12L2 11ZM7 13L7 14L6 14L6 15L7 15L7 16L8 16L8 18L10 18L10 20L9 20L9 21L10 21L10 20L12 20L12 21L13 21L13 22L16 22L16 23L18 23L18 24L20 24L20 26L22 26L22 25L21 25L21 24L20 24L20 23L22 23L22 22L23 22L23 21L22 21L22 22L19 22L19 21L20 21L20 20L21 20L21 19L19 19L19 17L20 17L20 18L21 18L21 17L22 17L22 18L23 18L23 19L24 19L24 20L25 20L25 19L24 19L24 18L25 18L25 17L26 17L26 16L25 16L25 17L24 17L24 18L23 18L23 17L22 17L22 16L20 16L20 15L22 15L22 14L20 14L20 15L19 15L19 16L18 16L18 17L16 17L16 18L15 18L15 17L14 17L14 18L13 18L13 16L12 16L12 18L11 18L11 17L10 17L10 16L8 16L8 13ZM17 13L17 14L16 14L16 15L17 15L17 14L19 14L19 13ZM23 15L23 16L24 16L24 15ZM34 17L34 18L35 18L35 17ZM6 18L6 19L7 19L7 18ZM12 18L12 19L13 19L13 20L14 20L14 19L15 19L15 18L14 18L14 19L13 19L13 18ZM16 18L16 20L15 20L15 21L16 21L16 22L18 22L18 23L19 23L19 22L18 22L18 21L19 21L19 19L18 19L18 18ZM32 19L32 20L33 20L33 21L34 21L34 20L36 20L36 19ZM16 20L16 21L18 21L18 20ZM4 21L4 22L6 22L6 21ZM24 21L24 22L25 22L25 21ZM35 21L35 22L36 22L36 21ZM10 22L10 25L11 25L11 24L12 24L12 25L13 25L13 26L12 26L12 27L13 27L13 26L14 26L14 25L13 25L13 23L12 23L12 22ZM24 23L24 24L25 24L25 23ZM6 25L6 26L7 26L7 25ZM35 26L35 27L34 27L34 30L33 30L33 33L34 33L34 32L35 32L35 31L34 31L34 30L35 30L35 29L36 29L36 28L35 28L35 27L36 27L36 26ZM3 27L3 28L4 28L4 27ZM6 27L6 28L7 28L7 27ZM27 27L27 28L28 28L28 27ZM29 29L29 32L32 32L32 29ZM30 30L30 31L31 31L31 30ZM10 33L10 34L11 34L11 35L12 35L12 34L11 34L11 33ZM36 34L36 37L37 37L37 34ZM24 35L24 36L25 36L25 35ZM0 0L0 7L7 7L7 0ZM1 1L1 6L6 6L6 1ZM2 2L2 5L5 5L5 2ZM30 0L30 7L37 7L37 0ZM31 1L31 6L36 6L36 1ZM32 2L32 5L35 5L35 2ZM0 30L0 37L7 37L7 30ZM1 31L1 36L6 36L6 31ZM2 32L2 35L5 35L5 32Z" fill="#000000"/></g></g></svg>
