<?xml version="1.0" encoding="UTF-8"?>
<svg xmlns="http://www.w3.org/2000/svg" version="1.1" width="300" height="300" viewBox="0 0 300 300"><rect x="0" y="0" width="300" height="300" fill="#ffffff"/><g transform="scale(8.108)"><g transform="translate(0,0)"><path fill-rule="evenodd" d="M11 0L11 1L10 1L10 2L8 2L8 3L9 3L9 4L8 4L8 7L9 7L9 8L8 8L8 9L9 9L9 10L8 10L8 12L9 12L9 13L7 13L7 12L6 12L6 11L7 11L7 10L6 10L6 9L7 9L7 8L6 8L6 9L5 9L5 8L4 8L4 9L5 9L5 15L4 15L4 14L3 14L3 13L1 13L1 15L0 15L0 16L2 16L2 18L1 18L1 19L2 19L2 18L3 18L3 19L4 19L4 20L3 20L3 21L2 21L2 20L0 20L0 22L1 22L1 21L2 21L2 22L3 22L3 23L1 23L1 24L0 24L0 26L2 26L2 27L3 27L3 28L0 28L0 29L3 29L3 28L4 28L4 29L8 29L8 30L9 30L9 28L4 28L4 26L5 26L5 27L7 27L7 26L8 26L8 27L9 27L9 25L7 25L7 24L8 24L8 23L10 23L10 24L11 24L11 23L12 23L12 25L11 25L11 26L12 26L12 27L10 27L10 29L11 29L11 30L12 30L12 28L13 28L13 23L12 23L12 22L13 22L13 21L12 21L12 22L9 22L9 21L7 21L7 20L9 20L9 18L11 18L11 19L10 19L10 20L11 20L11 19L13 19L13 20L16 20L16 21L15 21L15 24L14 24L14 27L15 27L15 28L14 28L14 29L13 29L13 30L14 30L14 31L13 31L13 32L14 32L14 33L11 33L11 32L12 32L12 31L9 31L9 32L8 32L8 33L10 33L10 35L12 35L12 36L11 36L11 37L12 37L12 36L13 36L13 35L14 35L14 33L15 33L15 32L14 32L14 31L15 31L15 30L16 30L16 28L19 28L19 30L18 30L18 29L17 29L17 31L16 31L16 33L17 33L17 34L15 34L15 37L16 37L16 35L17 35L17 36L18 36L18 35L17 35L17 34L20 34L20 35L21 35L21 36L22 36L22 35L23 35L23 34L21 34L21 33L18 33L18 32L19 32L19 31L20 31L20 27L19 27L19 25L18 25L18 24L19 24L19 23L20 23L20 22L21 22L21 21L22 21L22 20L24 20L24 19L25 19L25 18L27 18L27 19L26 19L26 20L25 20L25 21L24 21L24 22L23 22L23 24L22 24L22 23L21 23L21 24L20 24L20 25L21 25L21 26L22 26L22 25L23 25L23 27L22 27L22 29L21 29L21 30L22 30L22 29L23 29L23 31L22 31L22 33L23 33L23 31L24 31L24 33L25 33L25 31L24 31L24 29L25 29L25 25L27 25L27 24L28 24L28 23L30 23L30 21L31 21L31 24L30 24L30 25L28 25L28 27L29 27L29 28L27 28L27 26L26 26L26 28L27 28L27 29L26 29L26 33L27 33L27 34L25 34L25 35L24 35L24 36L23 36L23 37L26 37L26 35L29 35L29 36L30 36L30 35L31 35L31 37L33 37L33 35L34 35L34 37L37 37L37 36L36 36L36 34L34 34L34 33L36 33L36 32L35 32L35 31L36 31L36 29L37 29L37 28L36 28L36 27L35 27L35 31L34 31L34 30L33 30L33 28L31 28L31 27L32 27L32 26L33 26L33 27L34 27L34 26L35 26L35 25L36 25L36 24L37 24L37 20L36 20L36 17L37 17L37 16L36 16L36 13L37 13L37 12L36 12L36 9L35 9L35 8L34 8L34 9L35 9L35 10L34 10L34 11L33 11L33 10L32 10L32 11L30 11L30 10L31 10L31 9L33 9L33 8L31 8L31 9L30 9L30 8L29 8L29 6L28 6L28 9L30 9L30 10L29 10L29 11L28 11L28 10L27 10L27 9L26 9L26 7L27 7L27 6L26 6L26 7L25 7L25 5L23 5L23 3L22 3L22 2L20 2L20 1L21 1L21 0L16 0L16 2L18 2L18 1L19 1L19 2L20 2L20 3L18 3L18 4L17 4L17 3L15 3L15 1L14 1L14 2L13 2L13 4L14 4L14 3L15 3L15 5L12 5L12 4L11 4L11 3L10 3L10 2L11 2L11 1L12 1L12 0ZM27 0L27 1L28 1L28 0ZM23 1L23 2L24 2L24 3L26 3L26 5L28 5L28 4L27 4L27 3L29 3L29 2L27 2L27 3L26 3L26 2L25 2L25 1ZM21 3L21 4L18 4L18 5L17 5L17 7L16 7L16 6L15 6L15 7L14 7L14 6L13 6L13 7L14 7L14 9L12 9L12 8L11 8L11 7L12 7L12 6L11 6L11 5L10 5L10 4L9 4L9 5L10 5L10 6L9 6L9 7L10 7L10 8L9 8L9 9L11 9L11 10L9 10L9 12L10 12L10 14L8 14L8 15L6 15L6 16L7 16L7 17L6 17L6 18L5 18L5 16L4 16L4 19L6 19L6 20L7 20L7 19L6 19L6 18L7 18L7 17L8 17L8 18L9 18L9 17L11 17L11 18L12 18L12 17L11 17L11 12L10 12L10 11L13 11L13 10L14 10L14 11L15 11L15 12L14 12L14 13L13 13L13 12L12 12L12 16L13 16L13 17L14 17L14 18L15 18L15 19L16 19L16 18L17 18L17 19L19 19L19 18L17 18L17 17L18 17L18 16L17 16L17 17L16 17L16 16L15 16L15 17L14 17L14 15L13 15L13 14L14 14L14 13L15 13L15 15L17 15L17 14L16 14L16 11L15 11L15 10L16 10L16 9L15 9L15 7L16 7L16 8L17 8L17 9L18 9L18 8L19 8L19 9L20 9L20 10L22 10L22 9L23 9L23 8L24 8L24 6L23 6L23 7L22 7L22 3ZM18 5L18 7L19 7L19 5ZM20 5L20 8L21 8L21 9L22 9L22 7L21 7L21 5ZM10 6L10 7L11 7L11 6ZM1 8L1 9L0 9L0 12L1 12L1 9L2 9L2 8ZM24 9L24 10L25 10L25 9ZM2 10L2 12L4 12L4 10ZM26 10L26 11L24 11L24 12L25 12L25 13L24 13L24 15L25 15L25 16L23 16L23 15L22 15L22 16L19 16L19 17L20 17L20 18L22 18L22 17L23 17L23 18L24 18L24 17L26 17L26 14L25 14L25 13L26 13L26 12L27 12L27 14L28 14L28 15L27 15L27 17L28 17L28 19L30 19L30 20L27 20L27 21L26 21L26 22L25 22L25 23L24 23L24 24L23 24L23 25L25 25L25 24L26 24L26 23L27 23L27 21L30 21L30 20L31 20L31 21L33 21L33 22L32 22L32 24L31 24L31 25L32 25L32 24L33 24L33 25L34 25L34 21L33 21L33 18L34 18L34 19L35 19L35 17L34 17L34 15L33 15L33 14L34 14L34 13L35 13L35 12L34 12L34 13L33 13L33 12L32 12L32 13L30 13L30 11L29 11L29 12L27 12L27 10ZM17 11L17 13L20 13L20 14L22 14L22 13L23 13L23 11L22 11L22 12L19 12L19 11ZM6 13L6 14L7 14L7 13ZM29 13L29 14L30 14L30 15L32 15L32 14L33 14L33 13L32 13L32 14L30 14L30 13ZM8 15L8 16L10 16L10 15ZM28 15L28 17L31 17L31 19L32 19L32 18L33 18L33 17L32 17L32 16L29 16L29 15ZM17 20L17 22L18 22L18 23L16 23L16 24L15 24L15 26L16 26L16 27L17 27L17 26L16 26L16 25L17 25L17 24L18 24L18 23L19 23L19 22L20 22L20 21L21 21L21 20ZM4 21L4 23L3 23L3 24L2 24L2 25L3 25L3 24L4 24L4 25L5 25L5 26L7 26L7 25L6 25L6 24L7 24L7 23L6 23L6 22L7 22L7 21ZM35 21L35 23L36 23L36 21ZM29 26L29 27L31 27L31 26ZM23 27L23 29L24 29L24 27ZM14 29L14 30L15 30L15 29ZM27 29L27 33L28 33L28 29ZM29 29L29 32L32 32L32 29ZM30 30L30 31L31 31L31 30ZM17 31L17 32L18 32L18 31ZM29 33L29 35L30 35L30 33ZM31 33L31 35L33 35L33 33ZM12 34L12 35L13 35L13 34ZM8 35L8 36L9 36L9 37L10 37L10 36L9 36L9 35ZM19 36L19 37L20 37L20 36ZM0 0L0 7L7 7L7 0ZM1 1L1 6L6 6L6 1ZM2 2L2 5L5 5L5 2ZM30 0L30 7L37 7L37 0ZM31 1L31 6L36 6L36 1ZM32 2L32 5L35 5L35 2ZM0 30L0 37L7 37L7 30ZM1 31L1 36L6 36L6 31ZM2 32L2 35L5 35L5 32Z" fill="#000000"/></g></g></svg>
