<?xml version="1.0" encoding="UTF-8"?>
<svg xmlns="http://www.w3.org/2000/svg" version="1.1" width="300" height="300" viewBox="0 0 300 300"><rect x="0" y="0" width="300" height="300" fill="#ffffff"/><g transform="scale(8.108)"><g transform="translate(0,0)"><path fill-rule="evenodd" d="M11 0L11 1L12 1L12 0ZM13 0L13 1L14 1L14 2L13 2L13 3L14 3L14 4L15 4L15 3L14 3L14 2L16 2L16 3L17 3L17 4L18 4L18 7L19 7L19 6L20 6L20 8L17 8L17 5L13 5L13 4L11 4L11 2L10 2L10 1L9 1L9 2L8 2L8 3L9 3L9 4L8 4L8 7L9 7L9 4L11 4L11 6L10 6L10 7L11 7L11 9L10 9L10 8L8 8L8 9L7 9L7 8L6 8L6 9L5 9L5 8L4 8L4 9L5 9L5 11L4 11L4 10L1 10L1 9L2 9L2 8L1 8L1 9L0 9L0 10L1 10L1 11L0 11L0 16L3 16L3 15L2 15L2 14L4 14L4 13L5 13L5 15L4 15L4 16L5 16L5 17L4 17L4 19L3 19L3 17L2 17L2 18L1 18L1 17L0 17L0 19L2 19L2 20L3 20L3 21L4 21L4 20L6 20L6 21L7 21L7 20L9 20L9 18L11 18L11 19L14 19L14 20L12 20L12 21L11 21L11 20L10 20L10 21L8 21L8 23L9 23L9 24L10 24L10 25L8 25L8 24L6 24L6 23L7 23L7 22L6 22L6 23L5 23L5 24L2 24L2 23L3 23L3 22L2 22L2 23L1 23L1 24L0 24L0 26L2 26L2 27L3 27L3 28L0 28L0 29L3 29L3 28L4 28L4 29L8 29L8 30L9 30L9 29L10 29L10 30L11 30L11 31L9 31L9 32L8 32L8 33L9 33L9 35L8 35L8 36L9 36L9 37L12 37L12 36L13 36L13 37L15 37L15 36L16 36L16 37L17 37L17 36L19 36L19 37L20 37L20 36L19 36L19 34L20 34L20 35L21 35L21 36L22 36L22 35L23 35L23 34L21 34L21 33L20 33L20 32L21 32L21 31L19 31L19 30L22 30L22 29L23 29L23 31L22 31L22 33L23 33L23 32L24 32L24 33L25 33L25 30L24 30L24 29L25 29L25 27L24 27L24 25L27 25L27 23L28 23L28 24L29 24L29 23L30 23L30 21L32 21L32 22L31 22L31 23L32 23L32 22L33 22L33 21L32 21L32 18L34 18L34 21L36 21L36 23L35 23L35 22L34 22L34 23L33 23L33 24L32 24L32 25L31 25L31 24L30 24L30 25L28 25L28 27L29 27L29 28L27 28L27 26L26 26L26 29L28 29L28 33L27 33L27 30L26 30L26 33L27 33L27 34L25 34L25 35L24 35L24 36L23 36L23 37L26 37L26 35L29 35L29 36L30 36L30 35L31 35L31 33L36 33L36 32L35 32L35 31L36 31L36 29L37 29L37 28L36 28L36 24L37 24L37 20L36 20L36 17L37 17L37 16L36 16L36 13L37 13L37 11L36 11L36 9L35 9L35 8L34 8L34 9L35 9L35 10L34 10L34 11L33 11L33 10L32 10L32 11L31 11L31 12L30 12L30 11L28 11L28 10L27 10L27 9L26 9L26 7L27 7L27 8L28 8L28 9L30 9L30 10L31 10L31 9L33 9L33 8L31 8L31 9L30 9L30 8L29 8L29 5L28 5L28 3L29 3L29 1L28 1L28 0L27 0L27 1L28 1L28 3L26 3L26 2L25 2L25 1L23 1L23 2L24 2L24 3L26 3L26 5L28 5L28 7L27 7L27 6L26 6L26 7L25 7L25 5L23 5L23 3L22 3L22 1L21 1L21 0L17 0L17 1L14 1L14 0ZM20 1L20 2L19 2L19 3L18 3L18 4L19 4L19 5L20 5L20 6L21 6L21 7L22 7L22 9L17 9L17 11L18 11L18 10L19 10L19 11L20 11L20 10L22 10L22 9L23 9L23 8L24 8L24 6L23 6L23 7L22 7L22 3L21 3L21 4L19 4L19 3L20 3L20 2L21 2L21 1ZM9 2L9 3L10 3L10 2ZM11 6L11 7L12 7L12 8L13 8L13 7L14 7L14 9L11 9L11 10L13 10L13 11L14 11L14 12L15 12L15 14L14 14L14 13L12 13L12 11L11 11L11 12L10 12L10 10L8 10L8 12L7 12L7 11L5 11L5 12L7 12L7 13L6 13L6 14L8 14L8 15L6 15L6 16L8 16L8 18L9 18L9 17L11 17L11 18L12 18L12 17L11 17L11 16L12 16L12 15L11 15L11 13L12 13L12 14L14 14L14 15L13 15L13 18L14 18L14 19L15 19L15 20L16 20L16 21L17 21L17 22L16 22L16 23L15 23L15 21L12 21L12 22L11 22L11 21L10 21L10 22L9 22L9 23L10 23L10 24L13 24L13 25L12 25L12 26L11 26L11 27L12 27L12 28L10 28L10 27L9 27L9 28L8 28L8 26L7 26L7 25L6 25L6 24L5 24L5 25L4 25L4 26L5 26L5 27L6 27L6 28L8 28L8 29L9 29L9 28L10 28L10 29L14 29L14 28L15 28L15 27L12 27L12 26L13 26L13 25L14 25L14 24L16 24L16 25L15 25L15 26L16 26L16 27L17 27L17 28L16 28L16 30L17 30L17 29L18 29L18 30L19 30L19 28L20 28L20 27L21 27L21 29L22 29L22 27L23 27L23 29L24 29L24 27L23 27L23 26L19 26L19 28L18 28L18 27L17 27L17 26L16 26L16 25L17 25L17 24L16 24L16 23L17 23L17 22L18 22L18 23L19 23L19 24L18 24L18 25L19 25L19 24L20 24L20 23L21 23L21 22L22 22L22 23L23 23L23 22L24 22L24 21L25 21L25 20L26 20L26 19L27 19L27 18L25 18L25 19L24 19L24 20L23 20L23 19L22 19L22 21L21 21L21 20L19 20L19 21L21 21L21 22L20 22L20 23L19 23L19 22L18 22L18 20L16 20L16 19L18 19L18 18L17 18L17 17L18 17L18 16L17 16L17 13L16 13L16 11L14 11L14 10L16 10L16 6L15 6L15 7L14 7L14 6L13 6L13 7L12 7L12 6ZM6 9L6 10L7 10L7 9ZM24 9L24 11L25 11L25 13L24 13L24 12L23 12L23 11L22 11L22 12L21 12L21 13L20 13L20 12L18 12L18 14L19 14L19 13L20 13L20 14L22 14L22 13L24 13L24 14L25 14L25 16L23 16L23 15L22 15L22 16L20 16L20 15L19 15L19 17L20 17L20 18L21 18L21 17L23 17L23 18L24 18L24 17L26 17L26 16L27 16L27 17L28 17L28 18L31 18L31 17L28 17L28 15L26 15L26 14L25 14L25 13L26 13L26 11L27 11L27 10L26 10L26 11L25 11L25 9ZM35 11L35 12L34 12L34 13L33 13L33 12L31 12L31 13L30 13L30 12L27 12L27 14L29 14L29 16L31 16L31 15L32 15L32 17L34 17L34 18L35 18L35 17L34 17L34 13L35 13L35 12L36 12L36 11ZM1 12L1 14L2 14L2 13L4 13L4 12ZM8 13L8 14L10 14L10 13ZM29 13L29 14L30 14L30 15L31 15L31 14L33 14L33 13L31 13L31 14L30 14L30 13ZM15 14L15 16L16 16L16 14ZM9 15L9 16L10 16L10 15ZM6 17L6 18L5 18L5 19L6 19L6 20L7 20L7 19L6 19L6 18L7 18L7 17ZM15 17L15 19L16 19L16 17ZM30 19L30 20L29 20L29 21L28 21L28 20L27 20L27 21L26 21L26 22L25 22L25 23L24 23L24 24L22 24L22 25L24 25L24 24L26 24L26 23L27 23L27 21L28 21L28 22L29 22L29 21L30 21L30 20L31 20L31 19ZM0 20L0 22L1 22L1 20ZM10 22L10 23L11 23L11 22ZM6 26L6 27L7 27L7 26ZM30 26L30 28L33 28L33 29L34 29L34 30L35 30L35 26L34 26L34 27L33 27L33 26L32 26L32 27L31 27L31 26ZM29 29L29 32L32 32L32 29ZM12 30L12 33L13 33L13 34L12 34L12 35L10 35L10 36L12 36L12 35L13 35L13 34L14 34L14 35L15 35L15 33L14 33L14 32L15 32L15 31L14 31L14 30ZM30 30L30 31L31 31L31 30ZM16 31L16 32L18 32L18 33L19 33L19 32L18 32L18 31ZM16 33L16 35L17 35L17 33ZM28 33L28 34L29 34L29 33ZM35 34L35 35L34 35L34 37L37 37L37 36L36 36L36 34ZM32 35L32 36L31 36L31 37L33 37L33 35ZM0 0L0 7L7 7L7 0ZM1 1L1 6L6 6L6 1ZM2 2L2 5L5 5L5 2ZM30 0L30 7L37 7L37 0ZM31 1L31 6L36 6L36 1ZM32 2L32 5L35 5L35 2ZM0 30L0 37L7 37L7 30ZM1 31L1 36L6 36L6 31ZM2 32L2 35L5 35L5 32Z" fill="#000000"/></g></g></svg>
