<?xml version="1.0" encoding="UTF-8"?>
<svg xmlns="http://www.w3.org/2000/svg" version="1.1" width="300" height="300" viewBox="0 0 300 300"><rect x="0" y="0" width="300" height="300" fill="#ffffff"/><g transform="scale(8.108)"><g transform="translate(0,0)"><path fill-rule="evenodd" d="M8 0L8 1L9 1L9 2L8 2L8 4L9 4L9 3L10 3L10 7L9 7L9 5L8 5L8 8L5 8L5 9L7 9L7 10L4 10L4 8L3 8L3 9L2 9L2 8L1 8L1 9L2 9L2 10L4 10L4 11L3 11L3 12L4 12L4 14L5 14L5 17L3 17L3 16L2 16L2 15L1 15L1 14L0 14L0 17L1 17L1 18L0 18L0 19L1 19L1 20L0 20L0 21L2 21L2 20L3 20L3 21L4 21L4 22L5 22L5 21L8 21L8 22L10 22L10 23L9 23L9 24L10 24L10 25L11 25L11 22L12 22L12 20L11 20L11 21L9 21L9 19L8 19L8 16L6 16L6 15L9 15L9 16L11 16L11 17L9 17L9 18L11 18L11 17L13 17L13 18L15 18L15 19L13 19L13 20L14 20L14 22L13 22L13 24L12 24L12 25L15 25L15 26L16 26L16 25L17 25L17 26L18 26L18 27L17 27L17 28L16 28L16 27L14 27L14 28L15 28L15 29L14 29L14 30L13 30L13 31L12 31L12 28L13 28L13 26L12 26L12 27L10 27L10 28L9 28L9 27L8 27L8 28L9 28L9 29L8 29L8 32L9 32L9 33L8 33L8 34L9 34L9 35L8 35L8 36L9 36L9 37L12 37L12 36L16 36L16 37L19 37L19 36L22 36L22 37L25 37L25 33L26 33L26 34L27 34L27 33L26 33L26 32L27 32L27 31L28 31L28 34L29 34L29 35L26 35L26 36L27 36L27 37L34 37L34 34L33 34L33 31L34 31L34 32L35 32L35 30L36 30L36 31L37 31L37 28L36 28L36 27L37 27L37 25L36 25L36 24L37 24L37 23L36 23L36 21L37 21L37 20L36 20L36 19L37 19L37 16L36 16L36 15L37 15L37 8L36 8L36 9L35 9L35 8L33 8L33 9L32 9L32 8L29 8L29 4L28 4L28 3L26 3L26 2L28 2L28 0L25 0L25 4L26 4L26 5L27 5L27 6L26 6L26 7L25 7L25 6L24 6L24 5L23 5L23 4L22 4L22 7L21 7L21 6L20 6L20 5L21 5L21 4L20 4L20 5L19 5L19 4L18 4L18 5L19 5L19 6L18 6L18 7L17 7L17 3L18 3L18 1L19 1L19 0L17 0L17 1L16 1L16 2L17 2L17 3L15 3L15 0L14 0L14 1L12 1L12 0ZM20 0L20 3L21 3L21 2L22 2L22 3L23 3L23 0ZM10 1L10 3L11 3L11 5L14 5L14 3L12 3L12 2L11 2L11 1ZM15 5L15 7L14 7L14 6L13 6L13 7L14 7L14 8L10 8L10 9L9 9L9 10L7 10L7 11L6 11L6 12L7 12L7 11L10 11L10 10L11 10L11 11L12 11L12 12L13 12L13 13L12 13L12 14L11 14L11 12L8 12L8 13L9 13L9 14L10 14L10 15L11 15L11 16L13 16L13 17L14 17L14 16L15 16L15 18L16 18L16 19L15 19L15 23L16 23L16 24L15 24L15 25L16 25L16 24L17 24L17 25L18 25L18 22L19 22L19 24L21 24L21 23L23 23L23 24L22 24L22 25L20 25L20 27L18 27L18 29L19 29L19 30L17 30L17 29L16 29L16 30L15 30L15 31L13 31L13 32L10 32L10 33L9 33L9 34L10 34L10 33L11 33L11 35L12 35L12 34L13 34L13 35L14 35L14 33L16 33L16 36L18 36L18 34L19 34L19 33L20 33L20 35L23 35L23 32L22 32L22 31L25 31L25 32L26 32L26 31L27 31L27 29L26 29L26 28L25 28L25 27L26 27L26 26L25 26L25 27L24 27L24 28L23 28L23 26L24 26L24 24L25 24L25 25L26 25L26 24L27 24L27 25L28 25L28 26L32 26L32 28L33 28L33 30L35 30L35 28L34 28L34 27L36 27L36 26L35 26L35 24L36 24L36 23L34 23L34 22L35 22L35 21L36 21L36 20L34 20L34 18L31 18L31 19L30 19L30 20L31 20L31 23L30 23L30 21L29 21L29 18L30 18L30 17L28 17L28 16L32 16L32 17L33 17L33 15L34 15L34 16L35 16L35 15L34 15L34 14L36 14L36 13L34 13L34 14L33 14L33 10L32 10L32 9L30 9L30 10L32 10L32 11L30 11L30 12L32 12L32 13L31 13L31 14L27 14L27 13L28 13L28 12L29 12L29 11L28 11L28 10L29 10L29 8L28 8L28 10L27 10L27 9L26 9L26 8L27 8L27 7L28 7L28 6L27 6L27 7L26 7L26 8L24 8L24 6L23 6L23 7L22 7L22 8L23 8L23 10L21 10L21 11L24 11L24 12L23 12L23 13L22 13L22 12L20 12L20 11L19 11L19 9L21 9L21 8L19 8L19 9L17 9L17 7L16 7L16 5ZM11 6L11 7L12 7L12 6ZM19 6L19 7L20 7L20 6ZM14 8L14 9L13 9L13 10L12 10L12 11L14 11L14 12L15 12L15 11L14 11L14 10L17 10L17 11L18 11L18 10L17 10L17 9L16 9L16 8ZM25 9L25 10L24 10L24 11L25 11L25 13L27 13L27 12L28 12L28 11L25 11L25 10L26 10L26 9ZM34 9L34 12L36 12L36 11L35 11L35 9ZM0 11L0 13L2 13L2 14L3 14L3 13L2 13L2 12L1 12L1 11ZM16 12L16 16L18 16L18 17L17 17L17 18L18 18L18 17L19 17L19 20L18 20L18 21L17 21L17 20L16 20L16 23L17 23L17 22L18 22L18 21L20 21L20 23L21 23L21 22L22 22L22 21L23 21L23 22L24 22L24 19L23 19L23 17L24 17L24 14L22 14L22 13L19 13L19 12L18 12L18 14L17 14L17 12ZM6 13L6 14L7 14L7 13ZM12 14L12 15L13 15L13 16L14 16L14 14ZM18 14L18 15L22 15L22 14ZM32 14L32 15L33 15L33 14ZM25 15L25 16L26 16L26 17L25 17L25 18L26 18L26 20L28 20L28 19L27 19L27 15ZM20 16L20 19L22 19L22 20L23 20L23 19L22 19L22 17L23 17L23 16ZM2 17L2 18L3 18L3 17ZM6 17L6 18L5 18L5 19L6 19L6 20L7 20L7 19L6 19L6 18L7 18L7 17ZM35 18L35 19L36 19L36 18ZM3 19L3 20L4 20L4 21L5 21L5 20L4 20L4 19ZM31 19L31 20L32 20L32 21L33 21L33 20L32 20L32 19ZM20 20L20 21L21 21L21 20ZM25 21L25 24L26 24L26 23L27 23L27 24L28 24L28 25L29 25L29 24L30 24L30 25L34 25L34 23L31 23L31 24L30 24L30 23L29 23L29 22L28 22L28 23L27 23L27 21ZM0 22L0 23L2 23L2 24L3 24L3 25L4 25L4 26L5 26L5 27L3 27L3 26L2 26L2 27L1 27L1 26L0 26L0 27L1 27L1 28L0 28L0 29L3 29L3 28L4 28L4 29L5 29L5 27L7 27L7 26L9 26L9 25L7 25L7 24L8 24L8 23L7 23L7 22L6 22L6 23L7 23L7 24L5 24L5 23L3 23L3 22ZM28 23L28 24L29 24L29 23ZM0 24L0 25L1 25L1 24ZM4 24L4 25L5 25L5 24ZM6 25L6 26L7 26L7 25ZM22 25L22 26L21 26L21 27L22 27L22 26L23 26L23 25ZM2 27L2 28L3 28L3 27ZM27 27L27 28L28 28L28 27ZM29 27L29 28L30 28L30 27ZM6 28L6 29L7 29L7 28ZM19 28L19 29L20 29L20 30L21 30L21 31L22 31L22 30L21 30L21 29L20 29L20 28ZM22 28L22 29L23 29L23 30L24 30L24 29L23 29L23 28ZM10 29L10 31L11 31L11 29ZM29 29L29 32L32 32L32 29ZM16 30L16 31L17 31L17 30ZM30 30L30 31L31 31L31 30ZM18 31L18 32L19 32L19 31ZM20 32L20 33L21 33L21 34L22 34L22 33L21 33L21 32ZM30 33L30 35L29 35L29 36L33 36L33 35L32 35L32 34L31 34L31 33ZM35 33L35 34L36 34L36 35L37 35L37 33ZM35 36L35 37L37 37L37 36ZM0 0L0 7L7 7L7 0ZM1 1L1 6L6 6L6 1ZM2 2L2 5L5 5L5 2ZM30 0L30 7L37 7L37 0ZM31 1L31 6L36 6L36 1ZM32 2L32 5L35 5L35 2ZM0 30L0 37L7 37L7 30ZM1 31L1 36L6 36L6 31ZM2 32L2 35L5 35L5 32Z" fill="#000000"/></g></g></svg>
