<?xml version="1.0" encoding="UTF-8"?>
<svg xmlns="http://www.w3.org/2000/svg" version="1.1" width="300" height="300" viewBox="0 0 300 300"><rect x="0" y="0" width="300" height="300" fill="#ffffff"/><g transform="scale(6.122)"><g transform="translate(0,0)"><path fill-rule="evenodd" d="M8 0L8 1L11 1L11 2L12 2L12 3L9 3L9 4L8 4L8 7L9 7L9 9L10 9L10 11L9 11L9 12L8 12L8 10L6 10L6 9L8 9L8 8L1 8L1 9L0 9L0 11L1 11L1 12L0 12L0 13L2 13L2 14L5 14L5 15L7 15L7 16L6 16L6 17L7 17L7 18L5 18L5 16L3 16L3 17L4 17L4 18L5 18L5 19L7 19L7 20L6 20L6 21L7 21L7 22L3 22L3 24L2 24L2 23L1 23L1 21L2 21L2 20L1 20L1 19L3 19L3 21L4 21L4 19L3 19L3 18L1 18L1 19L0 19L0 20L1 20L1 21L0 21L0 28L1 28L1 27L2 27L2 26L1 26L1 24L2 24L2 25L3 25L3 26L4 26L4 27L5 27L5 28L3 28L3 29L2 29L2 30L3 30L3 31L1 31L1 30L0 30L0 32L3 32L3 33L0 33L0 34L2 34L2 35L3 35L3 34L4 34L4 35L5 35L5 37L4 37L4 36L0 36L0 38L1 38L1 40L0 40L0 41L3 41L3 40L4 40L4 39L2 39L2 37L3 37L3 38L5 38L5 39L7 39L7 40L6 40L6 41L8 41L8 48L9 48L9 49L10 49L10 48L11 48L11 49L12 49L12 48L11 48L11 47L10 47L10 45L13 45L13 46L12 46L12 47L13 47L13 46L14 46L14 48L15 48L15 49L18 49L18 46L19 46L19 44L20 44L20 46L21 46L21 48L20 48L20 49L21 49L21 48L22 48L22 46L23 46L23 45L27 45L27 44L29 44L29 45L28 45L28 46L27 46L27 49L28 49L28 48L29 48L29 49L30 49L30 47L28 47L28 46L31 46L31 47L32 47L32 48L31 48L31 49L32 49L32 48L33 48L33 49L34 49L34 47L37 47L37 48L35 48L35 49L38 49L38 48L39 48L39 49L40 49L40 48L39 48L39 47L40 47L40 46L38 46L38 45L42 45L42 46L41 46L41 47L42 47L42 48L41 48L41 49L42 49L42 48L43 48L43 47L44 47L44 48L45 48L45 49L49 49L49 45L48 45L48 44L46 44L46 46L45 46L45 43L46 43L46 42L45 42L45 41L46 41L46 40L47 40L47 41L48 41L48 40L47 40L47 39L49 39L49 38L47 38L47 36L48 36L48 37L49 37L49 34L46 34L46 33L49 33L49 30L47 30L47 29L49 29L49 28L46 28L46 31L47 31L47 32L44 32L44 33L43 33L43 34L42 34L42 33L41 33L41 32L42 32L42 31L44 31L44 30L43 30L43 29L44 29L44 27L45 27L45 25L47 25L47 24L48 24L48 23L49 23L49 22L47 22L47 20L48 20L48 21L49 21L49 18L47 18L47 17L48 17L48 16L47 16L47 17L46 17L46 15L45 15L45 13L44 13L44 12L46 12L46 13L48 13L48 12L46 12L46 11L47 11L47 10L45 10L45 11L44 11L44 10L43 10L43 9L45 9L45 8L43 8L43 9L42 9L42 10L41 10L41 11L42 11L42 12L43 12L43 13L41 13L41 12L39 12L39 14L38 14L38 15L39 15L39 17L40 17L40 18L39 18L39 19L38 19L38 18L37 18L37 17L38 17L38 16L36 16L36 18L35 18L35 19L37 19L37 20L36 20L36 21L35 21L35 22L33 22L33 21L32 21L32 22L31 22L31 20L30 20L30 19L31 19L31 18L32 18L32 20L34 20L34 19L33 19L33 18L34 18L34 17L33 17L33 18L32 18L32 16L34 16L34 15L35 15L35 14L36 14L36 15L37 15L37 14L36 14L36 13L38 13L38 12L36 12L36 10L33 10L33 8L31 8L31 6L30 6L30 5L32 5L32 4L30 4L30 2L29 2L29 1L31 1L31 2L32 2L32 3L33 3L33 4L37 4L37 6L36 6L36 8L35 8L35 5L33 5L33 6L32 6L32 7L33 7L33 6L34 6L34 8L35 8L35 9L36 9L36 8L37 8L37 10L38 10L38 11L39 11L39 10L38 10L38 9L41 9L41 8L38 8L38 7L39 7L39 5L38 5L38 3L35 3L35 2L37 2L37 1L38 1L38 2L39 2L39 4L40 4L40 3L41 3L41 0L40 0L40 1L38 1L38 0L35 0L35 1L31 1L31 0L29 0L29 1L28 1L28 2L27 2L27 0L24 0L24 4L22 4L22 5L20 5L20 8L18 8L18 9L19 9L19 10L18 10L18 11L17 11L17 12L16 12L16 13L17 13L17 14L15 14L15 12L13 12L13 8L11 8L11 6L12 6L12 7L13 7L13 6L14 6L14 9L16 9L16 10L14 10L14 11L16 11L16 10L17 10L17 6L16 6L16 5L17 5L17 4L21 4L21 1L22 1L22 3L23 3L23 0L21 0L21 1L20 1L20 2L19 2L19 0L16 0L16 1L15 1L15 0ZM12 1L12 2L15 2L15 1ZM16 1L16 3L17 3L17 2L18 2L18 3L19 3L19 2L18 2L18 1ZM25 2L25 3L27 3L27 2ZM33 2L33 3L34 3L34 2ZM12 3L12 4L13 4L13 3ZM28 3L28 4L27 4L27 8L28 8L28 9L29 9L29 11L28 11L28 10L27 10L27 9L25 9L25 10L26 10L26 12L23 12L23 11L24 11L24 10L21 10L21 9L22 9L22 8L20 8L20 10L19 10L19 11L18 11L18 12L20 12L20 13L18 13L18 14L20 14L20 13L21 13L21 11L22 11L22 12L23 12L23 13L24 13L24 14L23 14L23 15L22 15L22 14L21 14L21 15L20 15L20 16L19 16L19 18L18 18L18 15L17 15L17 17L16 17L16 15L15 15L15 14L14 14L14 13L11 13L11 14L10 14L10 13L6 13L6 14L10 14L10 15L11 15L11 14L12 14L12 16L11 16L11 17L9 17L9 15L8 15L8 16L7 16L7 17L8 17L8 18L10 18L10 19L9 19L9 20L10 20L10 21L9 21L9 22L10 22L10 23L12 23L12 22L13 22L13 25L9 25L9 29L8 29L8 27L6 27L6 28L7 28L7 29L5 29L5 30L4 30L4 29L3 29L3 30L4 30L4 31L3 31L3 32L5 32L5 31L6 31L6 32L7 32L7 33L6 33L6 34L5 34L5 35L6 35L6 36L7 36L7 37L5 37L5 38L7 38L7 39L11 39L11 38L10 38L10 37L8 37L8 35L6 35L6 34L7 34L7 33L11 33L11 34L9 34L9 36L11 36L11 34L13 34L13 35L15 35L15 36L18 36L18 41L19 41L19 38L20 38L20 35L22 35L22 37L21 37L21 40L22 40L22 39L23 39L23 40L25 40L25 38L26 38L26 37L25 37L25 36L26 36L26 35L25 35L25 36L23 36L23 35L22 35L22 34L20 34L20 35L19 35L19 34L18 34L18 33L20 33L20 32L22 32L22 30L23 30L23 31L24 31L24 30L23 30L23 29L24 29L24 28L25 28L25 27L24 27L24 28L23 28L23 27L20 27L20 28L19 28L19 26L20 26L20 25L19 25L19 24L21 24L21 26L22 26L22 22L23 22L23 21L24 21L24 22L26 22L26 20L27 20L27 23L28 23L28 24L27 24L27 25L28 25L28 24L29 24L29 25L30 25L30 24L29 24L29 21L28 21L28 20L29 20L29 18L30 18L30 17L28 17L28 15L29 15L29 16L30 16L30 15L31 15L31 16L32 16L32 15L34 15L34 14L35 14L35 13L36 13L36 12L35 12L35 11L34 11L34 14L32 14L32 13L33 13L33 12L31 12L31 14L27 14L27 13L26 13L26 12L29 12L29 13L30 13L30 12L29 12L29 11L31 11L31 10L32 10L32 9L31 9L31 8L30 8L30 6L29 6L29 7L28 7L28 5L29 5L29 3ZM9 5L9 7L10 7L10 5ZM12 5L12 6L13 6L13 5ZM18 5L18 7L19 7L19 5ZM23 5L23 8L26 8L26 5ZM15 6L15 7L16 7L16 6ZM21 6L21 7L22 7L22 6ZM24 6L24 7L25 7L25 6ZM37 6L37 7L38 7L38 6ZM40 6L40 7L41 7L41 6ZM48 8L48 9L49 9L49 8ZM2 9L2 10L1 10L1 11L2 11L2 13L3 13L3 12L4 12L4 9ZM11 9L11 10L12 10L12 9ZM30 9L30 10L31 10L31 9ZM2 10L2 11L3 11L3 10ZM20 10L20 11L21 11L21 10ZM42 10L42 11L43 11L43 12L44 12L44 11L43 11L43 10ZM48 10L48 11L49 11L49 10ZM5 11L5 12L7 12L7 11ZM25 13L25 17L23 17L23 16L24 16L24 15L23 15L23 16L22 16L22 17L23 17L23 18L25 18L25 20L26 20L26 19L28 19L28 17L27 17L27 18L25 18L25 17L26 17L26 13ZM40 13L40 14L41 14L41 15L42 15L42 16L40 16L40 17L42 17L42 18L41 18L41 21L37 21L37 23L35 23L35 24L37 24L37 26L36 26L36 25L34 25L34 23L33 23L33 22L32 22L32 23L31 23L31 22L30 22L30 23L31 23L31 24L32 24L32 25L33 25L33 28L32 28L32 27L31 27L31 26L29 26L29 28L28 28L28 26L27 26L27 27L26 27L26 28L28 28L28 29L25 29L25 31L27 31L27 32L23 32L23 34L25 34L25 33L26 33L26 34L28 34L28 35L29 35L29 34L30 34L30 35L34 35L34 36L31 36L31 37L32 37L32 39L33 39L33 40L31 40L31 38L30 38L30 37L29 37L29 36L27 36L27 37L29 37L29 38L27 38L27 40L28 40L28 42L27 42L27 43L30 43L30 42L31 42L31 43L33 43L33 44L32 44L32 47L33 47L33 46L35 46L35 44L37 44L37 43L40 43L40 41L39 41L39 42L37 42L37 41L38 41L38 40L37 40L37 39L36 39L36 40L35 40L35 42L34 42L34 41L33 41L33 40L34 40L34 38L35 38L35 37L36 37L36 38L39 38L39 36L40 36L40 37L41 37L41 36L43 36L43 35L42 35L42 34L39 34L39 33L37 33L37 34L39 34L39 36L38 36L38 37L36 37L36 36L37 36L37 35L36 35L36 34L35 34L35 33L36 33L36 32L35 32L35 31L36 31L36 30L35 30L35 27L34 27L34 26L36 26L36 28L37 28L37 29L38 29L38 30L37 30L37 32L40 32L40 31L41 31L41 30L42 30L42 29L41 29L41 30L40 30L40 31L38 31L38 30L39 30L39 29L38 29L38 28L41 28L41 27L40 27L40 26L39 26L39 24L40 24L40 23L38 23L38 22L41 22L41 21L42 21L42 18L43 18L43 14L41 14L41 13ZM0 14L0 16L2 16L2 15L1 15L1 14ZM13 14L13 15L14 15L14 14ZM47 14L47 15L49 15L49 14ZM13 16L13 17L15 17L15 18L12 18L12 19L16 19L16 20L15 20L15 21L14 21L14 22L15 22L15 23L14 23L14 25L13 25L13 26L12 26L12 27L10 27L10 32L14 32L14 33L13 33L13 34L14 34L14 33L15 33L15 35L18 35L18 34L16 34L16 33L18 33L18 32L16 32L16 33L15 33L15 32L14 32L14 31L15 31L15 28L14 28L14 30L13 30L13 29L12 29L12 31L11 31L11 28L12 28L12 27L13 27L13 26L14 26L14 25L15 25L15 27L16 27L16 29L18 29L18 31L21 31L21 30L20 30L20 29L19 29L19 28L18 28L18 27L16 27L16 24L17 24L17 23L18 23L18 22L19 22L19 23L21 23L21 20L19 20L19 19L20 19L20 18L19 18L19 19L18 19L18 18L17 18L17 19L16 19L16 17L15 17L15 16ZM20 16L20 17L21 17L21 16ZM44 16L44 17L45 17L45 16ZM21 18L21 19L22 19L22 20L24 20L24 19L22 19L22 18ZM46 18L46 19L45 19L45 20L44 20L44 21L43 21L43 22L46 22L46 23L45 23L45 24L47 24L47 22L46 22L46 20L47 20L47 18ZM10 19L10 20L11 20L11 21L13 21L13 20L11 20L11 19ZM39 19L39 20L40 20L40 19ZM16 20L16 22L18 22L18 21L19 21L19 20ZM5 23L5 26L8 26L8 23ZM15 23L15 24L16 24L16 23ZM23 23L23 26L26 26L26 23ZM32 23L32 24L33 24L33 23ZM37 23L37 24L38 24L38 23ZM41 23L41 26L44 26L44 23ZM3 24L3 25L4 25L4 24ZM6 24L6 25L7 25L7 24ZM24 24L24 25L25 25L25 24ZM42 24L42 25L43 25L43 24ZM17 25L17 26L18 26L18 25ZM38 26L38 27L39 27L39 26ZM46 26L46 27L49 27L49 26ZM30 27L30 28L29 28L29 30L31 30L31 32L30 32L30 31L29 31L29 33L30 33L30 34L32 34L32 33L31 33L31 32L32 32L32 28L31 28L31 27ZM42 27L42 28L43 28L43 27ZM21 28L21 29L23 29L23 28ZM30 28L30 29L31 29L31 28ZM33 28L33 29L34 29L34 28ZM6 30L6 31L7 31L7 30ZM33 30L33 31L35 31L35 30ZM27 32L27 33L28 33L28 32ZM33 32L33 34L34 34L34 35L35 35L35 36L36 36L36 35L35 35L35 34L34 34L34 32ZM44 33L44 35L46 35L46 36L47 36L47 35L46 35L46 34L45 34L45 33ZM40 35L40 36L41 36L41 35ZM12 36L12 38L13 38L13 39L12 39L12 40L13 40L13 39L14 39L14 38L15 38L15 41L14 41L14 43L13 43L13 42L12 42L12 43L11 43L11 44L12 44L12 43L13 43L13 44L14 44L14 45L18 45L18 44L17 44L17 43L18 43L18 42L16 42L16 41L17 41L17 39L16 39L16 38L17 38L17 37L16 37L16 38L15 38L15 37L14 37L14 38L13 38L13 36ZM23 37L23 38L25 38L25 37ZM33 37L33 38L34 38L34 37ZM42 37L42 38L44 38L44 40L46 40L46 39L45 39L45 38L46 38L46 37ZM29 38L29 39L28 39L28 40L30 40L30 38ZM39 39L39 40L43 40L43 39ZM8 40L8 41L9 41L9 40ZM10 40L10 42L9 42L9 44L10 44L10 42L11 42L11 40ZM36 40L36 41L37 41L37 40ZM20 41L20 44L21 44L21 45L22 45L22 42L21 42L21 41ZM23 41L23 44L26 44L26 41ZM29 41L29 42L30 42L30 41ZM31 41L31 42L32 42L32 41ZM41 41L41 44L44 44L44 41ZM24 42L24 43L25 43L25 42ZM33 42L33 43L34 43L34 44L33 44L33 45L34 45L34 44L35 44L35 43L34 43L34 42ZM36 42L36 43L37 43L37 42ZM42 42L42 43L43 43L43 42ZM47 42L47 43L49 43L49 42ZM43 45L43 46L42 46L42 47L43 47L43 46L44 46L44 47L45 47L45 48L48 48L48 47L47 47L47 46L46 46L46 47L45 47L45 46L44 46L44 45ZM16 46L16 47L15 47L15 48L17 48L17 46ZM24 46L24 47L23 47L23 48L24 48L24 49L25 49L25 48L26 48L26 47L25 47L25 46ZM37 46L37 47L38 47L38 46ZM24 47L24 48L25 48L25 47ZM0 0L0 7L7 7L7 0ZM1 1L1 6L6 6L6 1ZM2 2L2 5L5 5L5 2ZM42 0L42 7L49 7L49 0ZM43 1L43 6L48 6L48 1ZM44 2L44 5L47 5L47 2ZM0 42L0 49L7 49L7 42ZM1 43L1 48L6 48L6 43ZM2 44L2 47L5 47L5 44Z" fill="#000000"/></g></g></svg>
