<?xml version="1.0" encoding="UTF-8"?>
<svg xmlns="http://www.w3.org/2000/svg" version="1.1" width="300" height="300" viewBox="0 0 300 300"><rect x="0" y="0" width="300" height="300" fill="#ffffff"/><g transform="scale(8.108)"><g transform="translate(0,0)"><path fill-rule="evenodd" d="M8 0L8 1L9 1L9 0ZM10 0L10 3L11 3L11 2L12 2L12 3L14 3L14 1L15 1L15 2L16 2L16 1L17 1L17 2L18 2L18 1L19 1L19 0L16 0L16 1L15 1L15 0L14 0L14 1L12 1L12 0ZM20 0L20 3L21 3L21 0ZM22 0L22 3L23 3L23 0ZM25 0L25 4L26 4L26 5L27 5L27 6L26 6L26 7L25 7L25 6L24 6L24 5L23 5L23 4L21 4L21 5L19 5L19 6L18 6L18 4L19 4L19 3L18 3L18 4L16 4L16 3L15 3L15 4L14 4L14 5L13 5L13 4L12 4L12 5L8 5L8 8L5 8L5 9L4 9L4 8L3 8L3 9L2 9L2 8L1 8L1 9L0 9L0 10L1 10L1 11L0 11L0 12L1 12L1 15L3 15L3 14L5 14L5 17L4 17L4 16L0 16L0 17L2 17L2 18L1 18L1 20L0 20L0 21L1 21L1 22L0 22L0 23L2 23L2 24L3 24L3 25L4 25L4 23L2 23L2 21L3 21L3 22L4 22L4 21L3 21L3 20L2 20L2 19L4 19L4 20L6 20L6 21L7 21L7 22L6 22L6 23L5 23L5 24L6 24L6 25L5 25L5 26L4 26L4 27L3 27L3 26L2 26L2 27L1 27L1 26L0 26L0 27L1 27L1 28L0 28L0 29L3 29L3 28L4 28L4 27L5 27L5 29L8 29L8 32L9 32L9 33L8 33L8 34L9 34L9 33L10 33L10 34L11 34L11 33L10 33L10 32L12 32L12 31L10 31L10 30L12 30L12 28L13 28L13 29L14 29L14 30L15 30L15 33L14 33L14 31L13 31L13 34L12 34L12 35L11 35L11 37L15 37L15 36L16 36L16 37L19 37L19 36L22 36L22 37L25 37L25 33L27 33L27 34L29 34L29 35L28 35L28 37L29 37L29 35L30 35L30 37L31 37L31 36L32 36L32 37L33 37L33 35L35 35L35 34L36 34L36 35L37 35L37 33L35 33L35 34L33 34L33 31L34 31L34 32L35 32L35 30L36 30L36 31L37 31L37 25L36 25L36 24L37 24L37 23L36 23L36 21L37 21L37 20L36 20L36 19L37 19L37 16L36 16L36 15L37 15L37 8L36 8L36 9L35 9L35 8L33 8L33 9L32 9L32 8L29 8L29 4L27 4L27 3L26 3L26 2L28 2L28 3L29 3L29 1L28 1L28 0ZM8 2L8 4L9 4L9 2ZM15 4L15 5L16 5L16 6L15 6L15 7L14 7L14 6L13 6L13 5L12 5L12 6L11 6L11 8L12 8L12 10L11 10L11 9L9 9L9 10L8 10L8 9L5 9L5 11L4 11L4 10L2 10L2 9L1 9L1 10L2 10L2 11L1 11L1 12L2 12L2 14L3 14L3 11L4 11L4 12L5 12L5 13L6 13L6 14L7 14L7 15L6 15L6 16L7 16L7 17L6 17L6 18L7 18L7 17L8 17L8 19L10 19L10 20L12 20L12 23L11 23L11 21L10 21L10 22L8 22L8 23L9 23L9 24L8 24L8 26L7 26L7 25L6 25L6 26L7 26L7 27L6 27L6 28L8 28L8 29L9 29L9 28L10 28L10 29L11 29L11 28L10 28L10 26L12 26L12 27L13 27L13 28L14 28L14 27L16 27L16 29L15 29L15 30L17 30L17 31L16 31L16 32L17 32L17 35L18 35L18 36L19 36L19 33L20 33L20 35L23 35L23 32L22 32L22 31L24 31L24 30L25 30L25 32L26 32L26 31L27 31L27 33L28 33L28 31L27 31L27 29L26 29L26 28L25 28L25 27L26 27L26 26L25 26L25 25L26 25L26 24L27 24L27 25L28 25L28 26L29 26L29 28L30 28L30 26L32 26L32 28L33 28L33 30L35 30L35 28L34 28L34 27L36 27L36 26L35 26L35 24L36 24L36 23L34 23L34 22L35 22L35 21L36 21L36 20L34 20L34 21L32 21L32 22L31 22L31 23L30 23L30 21L29 21L29 20L31 20L31 19L32 19L32 20L33 20L33 19L36 19L36 18L35 18L35 17L34 17L34 16L35 16L35 15L32 15L32 14L33 14L33 10L32 10L32 9L30 9L30 10L29 10L29 8L28 8L28 10L27 10L27 9L26 9L26 8L27 8L27 7L28 7L28 6L27 6L27 7L26 7L26 8L24 8L24 6L23 6L23 5L22 5L22 6L21 6L21 7L22 7L22 6L23 6L23 10L20 10L20 9L19 9L19 11L18 11L18 10L15 10L15 12L12 12L12 10L14 10L14 8L15 8L15 9L17 9L17 8L20 8L20 6L19 6L19 7L18 7L18 6L17 6L17 5L16 5L16 4ZM9 6L9 7L10 7L10 6ZM12 6L12 7L13 7L13 8L14 8L14 7L13 7L13 6ZM16 6L16 7L15 7L15 8L17 8L17 6ZM25 9L25 10L24 10L24 11L25 11L25 13L27 13L27 14L26 14L26 15L25 15L25 14L22 14L22 13L23 13L23 11L20 11L20 13L19 13L19 12L18 12L18 11L17 11L17 12L16 12L16 13L13 13L13 14L14 14L14 15L15 15L15 14L17 14L17 15L16 15L16 16L15 16L15 17L17 17L17 19L18 19L18 17L19 17L19 20L16 20L16 18L15 18L15 21L14 21L14 22L13 22L13 23L12 23L12 24L9 24L9 25L12 25L12 24L13 24L13 25L15 25L15 26L16 26L16 25L17 25L17 26L18 26L18 23L19 23L19 27L18 27L18 28L17 28L17 30L18 30L18 29L19 29L19 30L20 30L20 31L22 31L22 30L21 30L21 28L20 28L20 29L19 29L19 27L20 27L20 24L21 24L21 25L22 25L22 26L21 26L21 27L22 27L22 26L23 26L23 27L24 27L24 26L23 26L23 25L22 25L22 21L23 21L23 22L24 22L24 19L23 19L23 17L22 17L22 19L20 19L20 17L19 17L19 15L18 15L18 14L17 14L17 12L18 12L18 13L19 13L19 14L20 14L20 15L21 15L21 16L26 16L26 17L25 17L25 18L26 18L26 20L27 20L27 16L26 16L26 15L27 15L27 14L29 14L29 12L30 12L30 14L31 14L31 13L32 13L32 12L30 12L30 11L32 11L32 10L30 10L30 11L29 11L29 10L28 10L28 11L26 11L26 9ZM34 9L34 12L35 12L35 13L34 13L34 14L36 14L36 11L35 11L35 9ZM6 10L6 11L7 11L7 12L6 12L6 13L7 13L7 14L8 14L8 15L9 15L9 16L12 16L12 17L13 17L13 16L12 16L12 15L10 15L10 14L12 14L12 12L10 12L10 11L11 11L11 10L10 10L10 11L9 11L9 13L7 13L7 12L8 12L8 10ZM28 11L28 12L27 12L27 13L28 13L28 12L29 12L29 11ZM21 12L21 13L22 13L22 12ZM9 13L9 14L10 14L10 13ZM21 14L21 15L22 15L22 14ZM31 15L31 16L30 16L30 17L29 17L29 16L28 16L28 17L29 17L29 18L34 18L34 17L32 17L32 15ZM17 16L17 17L18 17L18 16ZM3 17L3 18L4 18L4 17ZM9 17L9 18L10 18L10 19L11 19L11 17ZM13 18L13 19L14 19L14 18ZM6 19L6 20L7 20L7 19ZM22 19L22 20L23 20L23 19ZM8 20L8 21L9 21L9 20ZM20 20L20 21L21 21L21 20ZM25 21L25 24L26 24L26 23L27 23L27 21ZM20 22L20 23L21 23L21 22ZM28 22L28 23L29 23L29 24L28 24L28 25L29 25L29 24L30 24L30 25L34 25L34 23L31 23L31 24L30 24L30 23L29 23L29 22ZM6 23L6 24L7 24L7 23ZM15 23L15 24L16 24L16 23ZM0 24L0 25L1 25L1 24ZM8 26L8 28L9 28L9 26ZM2 27L2 28L3 28L3 27ZM27 27L27 28L28 28L28 27ZM22 28L22 29L23 29L23 30L24 30L24 29L23 29L23 28ZM29 29L29 32L32 32L32 29ZM30 30L30 31L31 31L31 30ZM18 31L18 32L19 32L19 31ZM20 32L20 33L21 33L21 34L22 34L22 33L21 33L21 32ZM15 33L15 34L13 34L13 35L14 35L14 36L15 36L15 35L16 35L16 33ZM30 33L30 35L31 35L31 34L32 34L32 33ZM8 35L8 36L10 36L10 35ZM26 35L26 36L27 36L27 35ZM35 36L35 37L37 37L37 36ZM0 0L0 7L7 7L7 0ZM1 1L1 6L6 6L6 1ZM2 2L2 5L5 5L5 2ZM30 0L30 7L37 7L37 0ZM31 1L31 6L36 6L36 1ZM32 2L32 5L35 5L35 2ZM0 30L0 37L7 37L7 30ZM1 31L1 36L6 36L6 31ZM2 32L2 35L5 35L5 32Z" fill="#000000"/></g></g></svg>
