<?xml version="1.0" encoding="UTF-8"?>
<svg xmlns="http://www.w3.org/2000/svg" version="1.1" width="300" height="300" viewBox="0 0 300 300"><rect x="0" y="0" width="300" height="300" fill="#ffffff"/><g transform="scale(8.108)"><g transform="translate(0,0)"><path fill-rule="evenodd" d="M8 0L8 5L10 5L10 3L12 3L12 4L11 4L11 5L12 5L12 8L11 8L11 10L10 10L10 7L11 7L11 6L10 6L10 7L9 7L9 6L8 6L8 8L6 8L6 9L7 9L7 10L6 10L6 11L5 11L5 8L4 8L4 9L3 9L3 8L1 8L1 9L0 9L0 11L1 11L1 9L2 9L2 10L4 10L4 11L2 11L2 12L4 12L4 13L3 13L3 14L4 14L4 13L5 13L5 14L6 14L6 15L5 15L5 16L4 16L4 15L2 15L2 14L0 14L0 15L2 15L2 17L1 17L1 16L0 16L0 17L1 17L1 18L0 18L0 20L1 20L1 21L4 21L4 23L5 23L5 24L6 24L6 25L4 25L4 24L3 24L3 25L4 25L4 27L3 27L3 28L2 28L2 27L1 27L1 26L2 26L2 25L1 25L1 24L0 24L0 25L1 25L1 26L0 26L0 27L1 27L1 28L0 28L0 29L1 29L1 28L2 28L2 29L4 29L4 28L6 28L6 29L7 29L7 28L8 28L8 31L9 31L9 32L8 32L8 33L9 33L9 34L8 34L8 36L9 36L9 35L10 35L10 34L11 34L11 33L10 33L10 30L11 30L11 31L13 31L13 33L14 33L14 29L13 29L13 28L15 28L15 31L16 31L16 33L15 33L15 34L14 34L14 35L15 35L15 34L16 34L16 35L17 35L17 37L19 37L19 36L20 36L20 35L19 35L19 34L20 34L20 32L21 32L21 31L22 31L22 30L21 30L21 27L22 27L22 26L20 26L20 25L22 25L22 24L24 24L24 23L23 23L23 22L24 22L24 21L23 21L23 20L24 20L24 19L23 19L23 18L24 18L24 17L23 17L23 13L24 13L24 11L23 11L23 9L24 9L24 8L25 8L25 6L24 6L24 8L22 8L22 7L23 7L23 6L22 6L22 4L21 4L21 6L20 6L20 4L19 4L19 3L18 3L18 2L16 2L16 1L17 1L17 0L13 0L13 1L12 1L12 0L10 0L10 3L9 3L9 0ZM18 0L18 1L19 1L19 2L22 2L22 1L23 1L23 0L22 0L22 1L21 1L21 0L20 0L20 1L19 1L19 0ZM25 0L25 1L26 1L26 2L25 2L25 5L26 5L26 7L27 7L27 8L28 8L28 7L29 7L29 5L28 5L28 3L29 3L29 0L27 0L27 1L26 1L26 0ZM13 1L13 4L12 4L12 5L13 5L13 4L15 4L15 5L14 5L14 6L13 6L13 10L12 10L12 12L13 12L13 11L14 11L14 12L15 12L15 16L13 16L13 17L12 17L12 18L10 18L10 16L8 16L8 15L9 15L9 14L10 14L10 15L11 15L11 16L12 16L12 15L13 15L13 14L14 14L14 13L12 13L12 14L10 14L10 12L11 12L11 11L10 11L10 10L9 10L9 8L8 8L8 12L7 12L7 11L6 11L6 12L5 12L5 11L4 11L4 12L5 12L5 13L6 13L6 14L7 14L7 15L6 15L6 16L8 16L8 17L9 17L9 18L8 18L8 19L6 19L6 18L7 18L7 17L5 17L5 18L4 18L4 17L3 17L3 18L4 18L4 19L6 19L6 20L8 20L8 19L11 19L11 20L9 20L9 21L5 21L5 20L4 20L4 21L5 21L5 23L6 23L6 24L7 24L7 25L6 25L6 26L5 26L5 27L6 27L6 28L7 28L7 27L6 27L6 26L7 26L7 25L8 25L8 22L11 22L11 21L12 21L12 20L13 20L13 22L12 22L12 23L14 23L14 24L16 24L16 23L17 23L17 25L18 25L18 24L19 24L19 23L20 23L20 24L21 24L21 23L22 23L22 22L23 22L23 21L19 21L19 20L20 20L20 19L22 19L22 18L20 18L20 19L19 19L19 17L18 17L18 16L17 16L17 15L19 15L19 12L21 12L21 13L20 13L20 14L21 14L21 15L22 15L22 14L21 14L21 13L22 13L22 12L21 12L21 11L22 11L22 10L21 10L21 9L20 9L20 8L21 8L21 7L22 7L22 6L21 6L21 7L20 7L20 6L19 6L19 9L18 9L18 10L17 10L17 11L16 11L16 10L15 10L15 11L14 11L14 9L17 9L17 7L18 7L18 6L17 6L17 7L16 7L16 5L19 5L19 4L16 4L16 2L15 2L15 3L14 3L14 1ZM23 2L23 3L24 3L24 2ZM27 2L27 3L28 3L28 2ZM14 6L14 7L15 7L15 6ZM27 6L27 7L28 7L28 6ZM30 8L30 9L29 9L29 10L30 10L30 11L29 11L29 12L28 12L28 11L27 11L27 10L28 10L28 9L27 9L27 10L26 10L26 9L25 9L25 13L27 13L27 14L26 14L26 15L25 15L25 14L24 14L24 15L25 15L25 18L26 18L26 19L25 19L25 20L26 20L26 21L25 21L25 22L26 22L26 23L25 23L25 24L26 24L26 26L27 26L27 27L25 27L25 28L24 28L24 27L23 27L23 28L24 28L24 33L23 33L23 34L22 34L22 33L21 33L21 34L22 34L22 35L21 35L21 36L22 36L22 37L25 37L25 35L26 35L26 34L25 34L25 33L26 33L26 32L28 32L28 33L29 33L29 34L28 34L28 35L27 35L27 37L29 37L29 36L30 36L30 37L34 37L34 35L35 35L35 37L37 37L37 36L36 36L36 35L37 35L37 33L36 33L36 32L35 32L35 34L34 34L34 35L33 35L33 33L34 33L34 31L35 31L35 30L33 30L33 28L32 28L32 27L33 27L33 26L32 26L32 25L34 25L34 26L35 26L35 25L36 25L36 27L37 27L37 25L36 25L36 24L37 24L37 23L36 23L36 21L37 21L37 20L36 20L36 19L37 19L37 16L36 16L36 15L37 15L37 12L36 12L36 11L37 11L37 8L32 8L32 10L33 10L33 11L32 11L32 12L31 12L31 10L30 10L30 9L31 9L31 8ZM19 9L19 11L17 11L17 12L16 12L16 13L17 13L17 12L19 12L19 11L21 11L21 10L20 10L20 9ZM34 9L34 10L35 10L35 9ZM9 11L9 12L8 12L8 13L7 13L7 12L6 12L6 13L7 13L7 14L8 14L8 13L9 13L9 12L10 12L10 11ZM34 11L34 12L35 12L35 13L34 13L34 14L35 14L35 15L32 15L32 16L31 16L31 14L30 14L30 12L29 12L29 13L28 13L28 12L27 12L27 13L28 13L28 14L27 14L27 17L26 17L26 18L27 18L27 19L29 19L29 20L27 20L27 25L28 25L28 24L29 24L29 26L31 26L31 25L30 25L30 24L31 24L31 23L32 23L32 22L33 22L33 23L34 23L34 25L35 25L35 19L36 19L36 17L35 17L35 15L36 15L36 12L35 12L35 11ZM32 12L32 14L33 14L33 12ZM16 14L16 15L17 15L17 14ZM28 14L28 15L30 15L30 14ZM15 16L15 17L16 17L16 16ZM20 16L20 17L22 17L22 16ZM30 16L30 18L29 18L29 19L31 19L31 18L32 18L32 19L33 19L33 22L34 22L34 19L35 19L35 18L34 18L34 19L33 19L33 18L32 18L32 17L31 17L31 16ZM13 17L13 18L14 18L14 19L13 19L13 20L14 20L14 23L15 23L15 21L16 21L16 22L17 22L17 23L19 23L19 22L18 22L18 20L19 20L19 19L18 19L18 20L17 20L17 18L18 18L18 17L17 17L17 18L14 18L14 17ZM1 18L1 20L2 20L2 18ZM14 19L14 20L16 20L16 19ZM29 20L29 22L28 22L28 23L29 23L29 22L30 22L30 23L31 23L31 22L32 22L32 20ZM0 22L0 23L1 23L1 22ZM2 22L2 23L3 23L3 22ZM6 22L6 23L7 23L7 22ZM20 22L20 23L21 23L21 22ZM10 23L10 25L9 25L9 26L10 26L10 28L11 28L11 30L12 30L12 28L13 28L13 27L14 27L14 26L15 26L15 27L16 27L16 28L17 28L17 29L16 29L16 31L17 31L17 32L18 32L18 34L17 34L17 35L18 35L18 34L19 34L19 32L18 32L18 31L19 31L19 29L20 29L20 28L19 28L19 29L18 29L18 27L20 27L20 26L18 26L18 27L17 27L17 26L15 26L15 25L14 25L14 26L12 26L12 25L13 25L13 24L11 24L11 23ZM10 25L10 26L11 26L11 25ZM27 27L27 28L26 28L26 29L25 29L25 31L27 31L27 30L28 30L28 29L27 29L27 28L28 28L28 27ZM30 27L30 28L31 28L31 27ZM34 27L34 29L35 29L35 27ZM36 28L36 31L37 31L37 28ZM29 29L29 32L32 32L32 29ZM20 30L20 31L21 31L21 30ZM30 30L30 31L31 31L31 30ZM30 33L30 35L32 35L32 33ZM12 34L12 36L10 36L10 37L12 37L12 36L13 36L13 34ZM35 34L35 35L36 35L36 34ZM23 35L23 36L24 36L24 35ZM0 0L0 7L7 7L7 0ZM1 1L1 6L6 6L6 1ZM2 2L2 5L5 5L5 2ZM30 0L30 7L37 7L37 0ZM31 1L31 6L36 6L36 1ZM32 2L32 5L35 5L35 2ZM0 30L0 37L7 37L7 30ZM1 31L1 36L6 36L6 31ZM2 32L2 35L5 35L5 32Z" fill="#000000"/></g></g></svg>
