<?xml version="1.0" encoding="UTF-8"?>
<svg xmlns="http://www.w3.org/2000/svg" version="1.1" width="300" height="300" viewBox="0 0 300 300"><rect x="0" y="0" width="300" height="300" fill="#ffffff"/><g transform="scale(8.108)"><g transform="translate(0,0)"><path fill-rule="evenodd" d="M11 0L11 1L9 1L9 2L8 2L8 3L9 3L9 4L8 4L8 7L9 7L9 8L8 8L8 9L9 9L9 8L11 8L11 10L13 10L13 11L14 11L14 7L15 7L15 5L17 5L17 3L15 3L15 2L17 2L17 1L19 1L19 2L18 2L18 3L19 3L19 5L18 5L18 7L17 7L17 6L16 6L16 10L15 10L15 11L16 11L16 12L17 12L17 11L18 11L18 13L16 13L16 14L14 14L14 13L15 13L15 12L14 12L14 13L13 13L13 12L11 12L11 11L10 11L10 10L9 10L9 11L10 11L10 13L8 13L8 12L6 12L6 11L8 11L8 10L5 10L5 8L4 8L4 10L2 10L2 11L1 11L1 10L0 10L0 13L1 13L1 14L0 14L0 15L1 15L1 16L2 16L2 15L1 15L1 14L2 14L2 13L1 13L1 12L4 12L4 11L5 11L5 13L8 13L8 14L5 14L5 15L4 15L4 16L5 16L5 17L0 17L0 18L2 18L2 19L0 19L0 20L1 20L1 21L0 21L0 22L1 22L1 21L3 21L3 23L1 23L1 24L0 24L0 26L2 26L2 27L3 27L3 28L0 28L0 29L4 29L4 27L5 27L5 29L7 29L7 28L8 28L8 30L9 30L9 29L10 29L10 30L12 30L12 31L13 31L13 30L12 30L12 27L11 27L11 26L10 26L10 25L12 25L12 26L13 26L13 23L11 23L11 24L10 24L10 21L7 21L7 20L11 20L11 19L15 19L15 20L12 20L12 22L13 22L13 21L14 21L14 22L15 22L15 24L14 24L14 26L15 26L15 28L14 28L14 30L15 30L15 29L17 29L17 30L16 30L16 31L18 31L18 32L13 32L13 33L12 33L12 32L11 32L11 31L9 31L9 32L8 32L8 33L9 33L9 35L8 35L8 36L9 36L9 37L12 37L12 36L13 36L13 35L12 35L12 34L13 34L13 33L14 33L14 36L16 36L16 37L20 37L20 36L18 36L18 35L19 35L19 34L20 34L20 35L21 35L21 36L22 36L22 35L23 35L23 34L21 34L21 33L18 33L18 32L20 32L20 31L21 31L21 30L22 30L22 29L23 29L23 31L22 31L22 33L23 33L23 31L24 31L24 33L25 33L25 31L24 31L24 30L25 30L25 29L23 29L23 28L24 28L24 27L25 27L25 25L27 25L27 23L28 23L28 21L29 21L29 23L30 23L30 21L32 21L32 22L34 22L34 21L36 21L36 23L33 23L33 24L32 24L32 25L31 25L31 24L30 24L30 25L28 25L28 27L29 27L29 28L27 28L27 26L26 26L26 28L27 28L27 29L26 29L26 32L28 32L28 34L27 34L27 33L26 33L26 34L25 34L25 35L24 35L24 36L23 36L23 37L26 37L26 35L27 35L27 37L28 37L28 35L29 35L29 37L31 37L31 36L32 36L32 37L33 37L33 35L34 35L34 37L37 37L37 36L36 36L36 34L35 34L35 35L34 35L34 33L36 33L36 32L35 32L35 31L36 31L36 29L37 29L37 27L35 27L35 28L36 28L36 29L34 29L34 31L33 31L33 28L30 28L30 27L32 27L32 26L33 26L33 27L34 27L34 26L35 26L35 25L36 25L36 24L37 24L37 20L36 20L36 19L35 19L35 17L37 17L37 16L36 16L36 13L37 13L37 11L36 11L36 9L35 9L35 8L34 8L34 9L35 9L35 10L34 10L34 11L33 11L33 10L32 10L32 11L31 11L31 12L30 12L30 13L29 13L29 14L30 14L30 15L31 15L31 16L30 16L30 17L27 17L27 16L28 16L28 14L27 14L27 12L29 12L29 11L30 11L30 10L31 10L31 9L33 9L33 8L31 8L31 9L30 9L30 8L29 8L29 5L28 5L28 2L29 2L29 1L28 1L28 0L27 0L27 1L28 1L28 2L27 2L27 3L26 3L26 2L25 2L25 1L23 1L23 2L24 2L24 3L26 3L26 5L28 5L28 9L30 9L30 10L29 10L29 11L28 11L28 10L27 10L27 9L26 9L26 7L27 7L27 6L26 6L26 7L25 7L25 5L23 5L23 3L22 3L22 2L20 2L20 1L22 1L22 0L14 0L14 3L15 3L15 5L13 5L13 4L12 4L12 5L11 5L11 6L10 6L10 7L9 7L9 4L11 4L11 1L12 1L12 0ZM19 2L19 3L20 3L20 4L21 4L21 5L19 5L19 7L20 7L20 6L21 6L21 7L22 7L22 9L21 9L21 10L22 10L22 9L23 9L23 8L24 8L24 6L23 6L23 5L22 5L22 3L20 3L20 2ZM21 5L21 6L22 6L22 7L23 7L23 6L22 6L22 5ZM11 6L11 7L12 7L12 8L13 8L13 7L14 7L14 6L13 6L13 7L12 7L12 6ZM1 8L1 9L2 9L2 8ZM6 8L6 9L7 9L7 8ZM17 8L17 9L19 9L19 11L20 11L20 12L21 12L21 14L19 14L19 13L18 13L18 14L19 14L19 15L20 15L20 16L19 16L19 17L20 17L20 18L21 18L21 19L23 19L23 18L24 18L24 17L26 17L26 14L24 14L24 15L22 15L22 16L21 16L21 14L22 14L22 13L26 13L26 11L27 11L27 10L26 10L26 9L24 9L24 12L23 12L23 11L22 11L22 12L21 12L21 11L20 11L20 8ZM35 11L35 12L34 12L34 13L33 13L33 12L31 12L31 13L30 13L30 14L31 14L31 15L32 15L32 17L33 17L33 18L34 18L34 17L33 17L33 15L35 15L35 13L36 13L36 11ZM10 13L10 14L9 14L9 15L10 15L10 16L8 16L8 15L6 15L6 16L7 16L7 17L6 17L6 18L7 18L7 17L8 17L8 18L9 18L9 17L11 17L11 18L10 18L10 19L11 19L11 18L12 18L12 17L11 17L11 16L13 16L13 18L15 18L15 17L16 17L16 19L17 19L17 20L16 20L16 21L15 21L15 22L16 22L16 21L17 21L17 22L19 22L19 23L18 23L18 24L17 24L17 23L16 23L16 25L15 25L15 26L16 26L16 27L18 27L18 28L17 28L17 29L18 29L18 30L19 30L19 31L20 31L20 30L21 30L21 29L22 29L22 27L23 27L23 25L25 25L25 24L26 24L26 23L27 23L27 21L28 21L28 20L27 20L27 21L26 21L26 22L25 22L25 23L24 23L24 24L23 24L23 23L22 23L22 24L23 24L23 25L22 25L22 26L21 26L21 28L20 28L20 29L18 29L18 28L19 28L19 25L21 25L21 23L20 23L20 21L21 21L21 20L19 20L19 19L18 19L18 18L17 18L17 17L18 17L18 16L17 16L17 17L16 17L16 15L17 15L17 14L16 14L16 15L15 15L15 17L14 17L14 14L12 14L12 13ZM31 13L31 14L33 14L33 13ZM11 14L11 15L12 15L12 14ZM24 15L24 16L25 16L25 15ZM22 17L22 18L23 18L23 17ZM30 17L30 18L31 18L31 17ZM3 18L3 19L2 19L2 20L3 20L3 19L5 19L5 21L6 21L6 22L7 22L7 21L6 21L6 20L7 20L7 19L5 19L5 18ZM25 18L25 19L24 19L24 20L22 20L22 22L24 22L24 21L25 21L25 20L26 20L26 19L27 19L27 18ZM28 18L28 19L29 19L29 21L30 21L30 20L32 20L32 21L33 21L33 19L29 19L29 18ZM18 20L18 21L19 21L19 20ZM4 22L4 23L3 23L3 24L2 24L2 25L3 25L3 24L4 24L4 26L5 26L5 27L6 27L6 28L7 28L7 27L6 27L6 26L8 26L8 28L9 28L9 27L10 27L10 29L11 29L11 27L10 27L10 26L8 26L8 24L7 24L7 23L6 23L6 24L7 24L7 25L5 25L5 22ZM8 22L8 23L9 23L9 22ZM19 23L19 24L18 24L18 25L19 25L19 24L20 24L20 23ZM9 24L9 25L10 25L10 24ZM16 25L16 26L17 26L17 25ZM29 29L29 32L32 32L32 29ZM27 30L27 31L28 31L28 30ZM30 30L30 31L31 31L31 30ZM29 33L29 35L30 35L30 33ZM31 33L31 35L33 35L33 33ZM10 34L10 35L9 35L9 36L10 36L10 35L11 35L11 36L12 36L12 35L11 35L11 34ZM17 34L17 35L18 35L18 34ZM0 0L0 7L7 7L7 0ZM1 1L1 6L6 6L6 1ZM2 2L2 5L5 5L5 2ZM30 0L30 7L37 7L37 0ZM31 1L31 6L36 6L36 1ZM32 2L32 5L35 5L35 2ZM0 30L0 37L7 37L7 30ZM1 31L1 36L6 36L6 31ZM2 32L2 35L5 35L5 32Z" fill="#000000"/></g></g></svg>
