<?xml version="1.0" encoding="UTF-8"?>
<svg xmlns="http://www.w3.org/2000/svg" version="1.1" width="300" height="300" viewBox="0 0 300 300"><rect x="0" y="0" width="300" height="300" fill="#ffffff"/><g transform="scale(8.108)"><g transform="translate(0,0)"><path fill-rule="evenodd" d="M8 0L8 5L9 5L9 6L8 6L8 8L6 8L6 9L8 9L8 10L5 10L5 8L4 8L4 9L3 9L3 8L1 8L1 9L2 9L2 10L1 10L1 11L0 11L0 12L1 12L1 13L0 13L0 14L1 14L1 13L2 13L2 15L4 15L4 12L5 12L5 13L8 13L8 12L5 12L5 11L9 11L9 12L10 12L10 10L11 10L11 11L12 11L12 12L14 12L14 13L10 13L10 14L8 14L8 15L9 15L9 16L10 16L10 18L12 18L12 17L13 17L13 18L15 18L15 22L14 22L14 23L13 23L13 22L12 22L12 21L14 21L14 19L13 19L13 20L12 20L12 21L11 21L11 20L10 20L10 21L11 21L11 22L9 22L9 23L10 23L10 25L9 25L9 24L8 24L8 23L7 23L7 22L5 22L5 23L4 23L4 24L3 24L3 25L4 25L4 27L3 27L3 28L2 28L2 27L1 27L1 26L2 26L2 25L1 25L1 24L0 24L0 25L1 25L1 26L0 26L0 27L1 27L1 28L0 28L0 29L1 29L1 28L2 28L2 29L3 29L3 28L4 28L4 29L5 29L5 28L6 28L6 29L7 29L7 28L6 28L6 27L10 27L10 26L11 26L11 28L8 28L8 31L9 31L9 32L8 32L8 33L9 33L9 34L8 34L8 36L9 36L9 34L11 34L11 33L12 33L12 32L14 32L14 33L13 33L13 34L12 34L12 36L11 36L11 35L10 35L10 36L11 36L11 37L13 37L13 36L14 36L14 33L15 33L15 32L14 32L14 31L16 31L16 32L17 32L17 33L18 33L18 32L19 32L19 34L20 34L20 31L18 31L18 32L17 32L17 31L16 31L16 30L17 30L17 29L16 29L16 27L14 27L14 26L11 26L11 23L12 23L12 25L15 25L15 26L17 26L17 28L20 28L20 29L19 29L19 30L20 30L20 29L21 29L21 27L22 27L22 26L23 26L23 24L24 24L24 23L23 23L23 22L24 22L24 21L23 21L23 20L24 20L24 19L20 19L20 18L24 18L24 17L23 17L23 16L25 16L25 18L26 18L26 19L25 19L25 20L26 20L26 21L25 21L25 22L26 22L26 23L25 23L25 24L26 24L26 26L27 26L27 27L25 27L25 26L24 26L24 27L23 27L23 28L24 28L24 27L25 27L25 29L26 29L26 30L27 30L27 31L23 31L23 32L24 32L24 33L23 33L23 34L22 34L22 33L21 33L21 34L22 34L22 35L21 35L21 36L22 36L22 37L25 37L25 35L26 35L26 34L27 34L27 35L28 35L28 37L29 37L29 36L30 36L30 35L29 35L29 33L32 33L32 35L33 35L33 33L34 33L34 31L35 31L35 29L36 29L36 31L37 31L37 25L36 25L36 24L37 24L37 23L36 23L36 21L37 21L37 20L36 20L36 19L37 19L37 16L36 16L36 15L37 15L37 8L32 8L32 10L33 10L33 11L32 11L32 12L33 12L33 13L36 13L36 15L35 15L35 14L34 14L34 15L33 15L33 17L34 17L34 15L35 15L35 17L36 17L36 19L35 19L35 25L34 25L34 26L35 26L35 25L36 25L36 27L34 27L34 29L33 29L33 28L32 28L32 27L33 27L33 26L32 26L32 25L33 25L33 24L30 24L30 25L31 25L31 26L29 26L29 22L28 22L28 23L27 23L27 18L26 18L26 17L27 17L27 16L26 16L26 13L27 13L27 14L28 14L28 15L30 15L30 14L31 14L31 10L30 10L30 9L31 9L31 8L30 8L30 9L29 9L29 10L30 10L30 11L29 11L29 12L28 12L28 11L27 11L27 10L28 10L28 9L27 9L27 10L26 10L26 11L24 11L24 12L25 12L25 15L23 15L23 10L22 10L22 7L23 7L23 5L21 5L21 4L20 4L20 5L21 5L21 6L20 6L20 7L19 7L19 5L17 5L17 6L16 6L16 5L15 5L15 4L19 4L19 3L18 3L18 1L19 1L19 2L22 2L22 3L24 3L24 2L23 2L23 0L22 0L22 1L21 1L21 0L20 0L20 1L19 1L19 0L18 0L18 1L17 1L17 0L14 0L14 2L13 2L13 1L12 1L12 0ZM25 0L25 1L26 1L26 2L25 2L25 5L26 5L26 7L27 7L27 6L28 6L28 8L29 8L29 1L28 1L28 0ZM9 1L9 2L10 2L10 1ZM14 2L14 4L15 4L15 3L16 3L16 2ZM10 3L10 4L9 4L9 5L10 5L10 6L9 6L9 7L10 7L10 8L8 8L8 9L9 9L9 10L10 10L10 9L12 9L12 8L13 8L13 9L17 9L17 11L16 11L16 10L15 10L15 13L14 13L14 14L15 14L15 15L14 15L14 17L15 17L15 18L16 18L16 19L19 19L19 20L20 20L20 21L21 21L21 20L20 20L20 19L19 19L19 17L22 17L22 16L19 16L19 17L18 17L18 16L17 16L17 18L16 18L16 17L15 17L15 15L22 15L22 14L18 14L18 13L16 13L16 12L17 12L17 11L18 11L18 12L21 12L21 13L22 13L22 12L21 12L21 11L22 11L22 10L21 10L21 9L20 9L20 8L19 8L19 7L18 7L18 6L17 6L17 8L16 8L16 6L15 6L15 5L14 5L14 6L13 6L13 5L12 5L12 3ZM10 6L10 7L11 7L11 8L12 8L12 7L13 7L13 6L12 6L12 7L11 7L11 6ZM14 6L14 7L15 7L15 6ZM21 6L21 7L22 7L22 6ZM24 6L24 8L23 8L23 9L24 9L24 8L25 8L25 6ZM17 8L17 9L18 9L18 8ZM19 9L19 10L18 10L18 11L19 11L19 10L20 10L20 9ZM34 9L34 10L35 10L35 11L34 11L34 12L35 12L35 11L36 11L36 9ZM2 10L2 11L1 11L1 12L2 12L2 13L3 13L3 12L2 12L2 11L4 11L4 10ZM13 10L13 11L14 11L14 10ZM27 12L27 13L28 13L28 14L29 14L29 13L28 13L28 12ZM6 14L6 15L5 15L5 16L0 16L0 17L7 17L7 18L6 18L6 19L8 19L8 20L6 20L6 21L8 21L8 20L9 20L9 19L8 19L8 18L9 18L9 17L8 17L8 16L6 16L6 15L7 15L7 14ZM10 14L10 15L11 15L11 14ZM12 14L12 15L13 15L13 14ZM11 16L11 17L12 17L12 16ZM28 16L28 19L29 19L29 20L30 20L30 23L32 23L32 20L31 20L31 19L34 19L34 18L32 18L32 17L31 17L31 16ZM0 18L0 19L1 19L1 22L0 22L0 23L1 23L1 22L2 22L2 21L3 21L3 20L2 20L2 19L3 19L3 18L2 18L2 19L1 19L1 18ZM4 18L4 21L5 21L5 18ZM29 18L29 19L30 19L30 18ZM16 20L16 21L18 21L18 20ZM22 21L22 22L18 22L18 23L16 23L16 24L15 24L15 23L14 23L14 24L15 24L15 25L16 25L16 24L17 24L17 25L18 25L18 27L20 27L20 26L22 26L22 25L21 25L21 23L22 23L22 22L23 22L23 21ZM33 21L33 23L34 23L34 21ZM5 23L5 24L4 24L4 25L5 25L5 26L8 26L8 24L7 24L7 23ZM19 23L19 26L20 26L20 23ZM6 24L6 25L7 25L7 24ZM27 24L27 25L28 25L28 24ZM13 27L13 28L11 28L11 29L14 29L14 30L16 30L16 29L15 29L15 28L14 28L14 27ZM27 27L27 28L28 28L28 27ZM30 27L30 28L31 28L31 27ZM27 29L27 30L28 30L28 29ZM29 29L29 32L32 32L32 29ZM10 30L10 33L11 33L11 32L12 32L12 31L13 31L13 30L12 30L12 31L11 31L11 30ZM21 30L21 31L22 31L22 30ZM30 30L30 31L31 31L31 30ZM33 30L33 31L34 31L34 30ZM27 32L27 33L28 33L28 32ZM35 32L35 34L36 34L36 35L35 35L35 37L37 37L37 36L36 36L36 35L37 35L37 33L36 33L36 32ZM25 33L25 34L26 34L26 33ZM15 34L15 35L18 35L18 34ZM19 35L19 36L16 36L16 37L19 37L19 36L20 36L20 35ZM23 35L23 36L24 36L24 35ZM31 36L31 37L33 37L33 36ZM0 0L0 7L7 7L7 0ZM1 1L1 6L6 6L6 1ZM2 2L2 5L5 5L5 2ZM30 0L30 7L37 7L37 0ZM31 1L31 6L36 6L36 1ZM32 2L32 5L35 5L35 2ZM0 30L0 37L7 37L7 30ZM1 31L1 36L6 36L6 31ZM2 32L2 35L5 35L5 32Z" fill="#000000"/></g></g></svg>
