<?xml version="1.0" encoding="UTF-8"?>
<svg xmlns="http://www.w3.org/2000/svg" version="1.1" width="300" height="300" viewBox="0 0 300 300"><rect x="0" y="0" width="300" height="300" fill="#ffffff"/><g transform="scale(8.108)"><g transform="translate(0,0)"><path fill-rule="evenodd" d="M10 0L10 1L8 1L8 2L9 2L9 3L8 3L8 5L9 5L9 6L8 6L8 9L7 9L7 8L3 8L3 9L4 9L4 10L3 10L3 11L2 11L2 8L1 8L1 9L0 9L0 10L1 10L1 11L0 11L0 13L1 13L1 14L0 14L0 15L1 15L1 16L0 16L0 18L2 18L2 19L1 19L1 20L0 20L0 29L1 29L1 27L2 27L2 29L3 29L3 27L4 27L4 25L5 25L5 28L4 28L4 29L8 29L8 30L9 30L9 29L8 29L8 28L10 28L10 29L13 29L13 31L14 31L14 32L13 32L13 33L12 33L12 31L11 31L11 35L13 35L13 36L15 36L15 34L16 34L16 36L18 36L18 37L20 37L20 36L19 36L19 35L18 35L18 34L19 34L19 33L20 33L20 34L21 34L21 35L22 35L22 34L23 34L23 33L22 33L22 31L21 31L21 32L19 32L19 33L18 33L18 30L19 30L19 29L20 29L20 28L19 28L19 25L20 25L20 27L21 27L21 30L23 30L23 31L24 31L24 33L25 33L25 34L24 34L24 35L25 35L25 36L24 36L24 37L26 37L26 34L27 34L27 33L28 33L28 34L29 34L29 36L28 36L28 37L29 37L29 36L30 36L30 37L31 37L31 36L30 36L30 34L32 34L32 37L33 37L33 34L32 34L32 33L33 33L33 31L34 31L34 30L35 30L35 33L36 33L36 32L37 32L37 30L35 30L35 29L37 29L37 28L35 28L35 29L34 29L34 26L36 26L36 27L37 27L37 26L36 26L36 25L33 25L33 24L32 24L32 23L34 23L34 24L36 24L36 23L35 23L35 21L36 21L36 22L37 22L37 18L36 18L36 17L37 17L37 14L35 14L35 15L34 15L34 14L33 14L33 13L31 13L31 12L33 12L33 11L31 11L31 10L32 10L32 9L34 9L34 10L35 10L35 9L36 9L36 8L35 8L35 9L34 9L34 8L32 8L32 9L31 9L31 8L29 8L29 6L28 6L28 8L27 8L27 4L28 4L28 3L29 3L29 0L28 0L28 2L27 2L27 4L25 4L25 3L24 3L24 2L25 2L25 1L24 1L24 0L18 0L18 2L16 2L16 0L15 0L15 1L14 1L14 0L13 0L13 2L11 2L11 0ZM20 1L20 2L22 2L22 3L23 3L23 1ZM14 2L14 5L13 5L13 8L14 8L14 6L15 6L15 9L14 9L14 10L13 10L13 9L12 9L12 8L11 8L11 10L13 10L13 11L12 11L12 12L11 12L11 11L10 11L10 10L9 10L9 11L10 11L10 14L9 14L9 13L6 13L6 12L7 12L7 11L8 11L8 10L7 10L7 9L5 9L5 10L4 10L4 11L3 11L3 12L2 12L2 14L3 14L3 15L5 15L5 16L1 16L1 17L2 17L2 18L4 18L4 19L2 19L2 20L1 20L1 21L3 21L3 22L5 22L5 23L3 23L3 24L2 24L2 25L4 25L4 24L5 24L5 25L6 25L6 26L7 26L7 27L6 27L6 28L8 28L8 25L6 25L6 24L8 24L8 23L6 23L6 22L7 22L7 21L8 21L8 20L9 20L9 22L10 22L10 21L12 21L12 22L11 22L11 23L12 23L12 22L13 22L13 24L11 24L11 25L10 25L10 23L9 23L9 26L10 26L10 28L12 28L12 26L11 26L11 25L14 25L14 24L18 24L18 22L19 22L19 24L20 24L20 22L22 22L22 19L21 19L21 18L23 18L23 17L25 17L25 18L24 18L24 19L23 19L23 22L24 22L24 23L25 23L25 24L24 24L24 25L25 25L25 26L27 26L27 27L25 27L25 28L24 28L24 29L23 29L23 30L24 30L24 31L25 31L25 30L24 30L24 29L25 29L25 28L26 28L26 32L25 32L25 33L26 33L26 32L28 32L28 30L27 30L27 29L28 29L28 28L29 28L29 27L28 27L28 25L25 25L25 24L26 24L26 22L27 22L27 19L26 19L26 21L25 21L25 20L24 20L24 19L25 19L25 18L27 18L27 17L25 17L25 16L26 16L26 15L27 15L27 16L29 16L29 13L27 13L27 14L26 14L26 15L25 15L25 16L24 16L24 14L23 14L23 15L21 15L21 14L22 14L22 13L21 13L21 14L20 14L20 13L19 13L19 14L15 14L15 13L14 13L14 14L13 14L13 13L12 13L12 12L14 12L14 11L15 11L15 10L16 10L16 11L17 11L17 9L18 9L18 8L19 8L19 7L20 7L20 8L21 8L21 9L19 9L19 10L20 10L20 11L18 11L18 12L20 12L20 11L21 11L21 12L24 12L24 13L26 13L26 12L28 12L28 11L26 11L26 9L24 9L24 10L25 10L25 11L23 11L23 10L22 10L22 9L23 9L23 8L22 8L22 5L21 5L21 7L20 7L20 6L19 6L19 5L20 5L20 4L21 4L21 3L20 3L20 4L19 4L19 3L18 3L18 5L17 5L17 4L15 4L15 3L16 3L16 2ZM9 3L9 5L10 5L10 4L11 4L11 3ZM12 3L12 4L13 4L13 3ZM24 4L24 5L23 5L23 7L24 7L24 8L26 8L26 6L25 6L25 7L24 7L24 5L25 5L25 4ZM15 5L15 6L16 6L16 7L17 7L17 5ZM9 6L9 7L10 7L10 6ZM11 6L11 7L12 7L12 6ZM18 6L18 7L19 7L19 6ZM9 8L9 9L10 9L10 8ZM28 8L28 9L27 9L27 10L28 10L28 9L29 9L29 10L30 10L30 9L29 9L29 8ZM6 10L6 11L5 11L5 12L6 12L6 11L7 11L7 10ZM21 10L21 11L22 11L22 10ZM36 10L36 12L35 12L35 11L34 11L34 13L36 13L36 12L37 12L37 10ZM29 11L29 12L31 12L31 11ZM3 12L3 13L4 13L4 12ZM5 13L5 14L6 14L6 15L9 15L9 14L6 14L6 13ZM11 13L11 18L9 18L9 17L10 17L10 16L9 16L9 17L8 17L8 18L9 18L9 20L13 20L13 22L14 22L14 23L17 23L17 22L18 22L18 20L19 20L19 19L18 19L18 18L19 18L19 17L20 17L20 18L21 18L21 17L22 17L22 16L21 16L21 17L20 17L20 14L19 14L19 16L16 16L16 15L15 15L15 14L14 14L14 15L13 15L13 14L12 14L12 13ZM30 13L30 15L31 15L31 13ZM27 14L27 15L28 15L28 14ZM14 15L14 16L15 16L15 17L14 17L14 18L12 18L12 19L13 19L13 20L14 20L14 21L15 21L15 20L18 20L18 19L16 19L16 18L17 18L17 17L16 17L16 16L15 16L15 15ZM33 15L33 16L31 16L31 17L29 17L29 19L28 19L28 20L29 20L29 21L28 21L28 23L29 23L29 24L30 24L30 23L29 23L29 21L30 21L30 22L31 22L31 21L30 21L30 20L29 20L29 19L30 19L30 18L33 18L33 17L34 17L34 15ZM35 15L35 17L36 17L36 15ZM6 16L6 17L7 17L7 16ZM4 17L4 18L5 18L5 19L4 19L4 20L5 20L5 21L7 21L7 20L6 20L6 19L7 19L7 18L5 18L5 17ZM15 17L15 18L16 18L16 17ZM34 18L34 19L33 19L33 21L35 21L35 20L36 20L36 18ZM14 19L14 20L15 20L15 19ZM31 19L31 20L32 20L32 19ZM20 20L20 21L21 21L21 20ZM24 21L24 22L25 22L25 21ZM1 22L1 23L2 23L2 22ZM21 23L21 25L22 25L22 26L21 26L21 27L24 27L24 26L23 26L23 24L22 24L22 23ZM31 24L31 25L32 25L32 24ZM15 25L15 26L14 26L14 28L13 28L13 29L16 29L16 31L15 31L15 32L14 32L14 33L16 33L16 34L17 34L17 33L16 33L16 31L17 31L17 30L18 30L18 29L19 29L19 28L18 28L18 27L17 27L17 26L16 26L16 25ZM15 26L15 27L16 27L16 29L17 29L17 27L16 27L16 26ZM31 26L31 27L30 27L30 28L32 28L32 27L33 27L33 26ZM27 27L27 28L28 28L28 27ZM29 29L29 32L32 32L32 29ZM33 29L33 30L34 30L34 29ZM30 30L30 31L31 31L31 30ZM8 31L8 34L9 34L9 31ZM21 33L21 34L22 34L22 33ZM35 34L35 35L34 35L34 36L36 36L36 37L37 37L37 34ZM8 35L8 36L9 36L9 37L11 37L11 36L9 36L9 35ZM21 36L21 37L23 37L23 36ZM0 0L0 7L7 7L7 0ZM1 1L1 6L6 6L6 1ZM2 2L2 5L5 5L5 2ZM30 0L30 7L37 7L37 0ZM31 1L31 6L36 6L36 1ZM32 2L32 5L35 5L35 2ZM0 30L0 37L7 37L7 30ZM1 31L1 36L6 36L6 31ZM2 32L2 35L5 35L5 32Z" fill="#000000"/></g></g></svg>
