<?xml version="1.0" encoding="UTF-8"?>
<svg xmlns="http://www.w3.org/2000/svg" version="1.1" width="300" height="300" viewBox="0 0 300 300"><rect x="0" y="0" width="300" height="300" fill="#ffffff"/><g transform="scale(7.317)"><g transform="translate(0,0)"><path fill-rule="evenodd" d="M10 0L10 3L8 3L8 5L9 5L9 4L10 4L10 7L9 7L9 6L8 6L8 9L7 9L7 8L3 8L3 9L2 9L2 8L1 8L1 9L0 9L0 13L1 13L1 9L2 9L2 11L3 11L3 12L2 12L2 13L3 13L3 14L2 14L2 15L1 15L1 16L0 16L0 17L1 17L1 18L2 18L2 19L1 19L1 21L2 21L2 23L3 23L3 24L2 24L2 25L1 25L1 26L0 26L0 27L1 27L1 26L2 26L2 25L3 25L3 24L4 24L4 26L3 26L3 28L2 28L2 29L5 29L5 28L6 28L6 29L8 29L8 34L9 34L9 32L10 32L10 33L12 33L12 34L11 34L11 36L12 36L12 37L10 37L10 35L8 35L8 38L9 38L9 37L10 37L10 38L12 38L12 39L10 39L10 41L12 41L12 39L14 39L14 40L13 40L13 41L14 41L14 40L15 40L15 39L16 39L16 37L18 37L18 36L20 36L20 37L21 37L21 38L22 38L22 39L23 39L23 38L24 38L24 39L26 39L26 37L27 37L27 39L28 39L28 38L29 38L29 39L30 39L30 41L33 41L33 40L31 40L31 39L30 39L30 38L31 38L31 37L32 37L32 39L34 39L34 40L35 40L35 39L36 39L36 41L38 41L38 40L39 40L39 37L40 37L40 36L41 36L41 35L40 35L40 33L41 33L41 30L40 30L40 32L39 32L39 30L37 30L37 29L38 29L38 28L40 28L40 27L41 27L41 24L39 24L39 25L38 25L38 26L37 26L37 25L36 25L36 27L35 27L35 24L37 24L37 23L38 23L38 22L39 22L39 21L41 21L41 20L39 20L39 19L41 19L41 18L40 18L40 17L38 17L38 16L41 16L41 13L40 13L40 12L41 12L41 11L39 11L39 10L38 10L38 11L35 11L35 12L34 12L34 14L33 14L33 13L32 13L32 12L31 12L31 13L30 13L30 14L31 14L31 15L32 15L32 16L30 16L30 17L29 17L29 18L30 18L30 22L32 22L32 23L31 23L31 24L30 24L30 23L28 23L28 22L29 22L29 21L28 21L28 20L27 20L27 19L28 19L28 17L27 17L27 19L26 19L26 20L24 20L24 21L23 21L23 20L22 20L22 21L20 21L20 22L21 22L21 23L23 23L23 24L22 24L22 25L21 25L21 24L20 24L20 25L19 25L19 28L18 28L18 27L15 27L15 26L16 26L16 24L15 24L15 23L17 23L17 26L18 26L18 24L19 24L19 23L17 23L17 22L19 22L19 20L18 20L18 19L19 19L19 18L20 18L20 20L21 20L21 19L25 19L25 18L26 18L26 16L28 16L28 15L29 15L29 12L30 12L30 11L31 11L31 10L34 10L34 9L35 9L35 8L32 8L32 9L31 9L31 5L32 5L32 7L33 7L33 5L32 5L32 4L33 4L33 3L32 3L32 1L33 1L33 0L32 0L32 1L31 1L31 2L30 2L30 0L29 0L29 2L30 2L30 3L29 3L29 5L28 5L28 8L27 8L27 6L26 6L26 7L25 7L25 6L24 6L24 8L23 8L23 9L21 9L21 8L22 8L22 7L23 7L23 6L22 6L22 5L23 5L23 4L22 4L22 3L21 3L21 2L24 2L24 0L23 0L23 1L20 1L20 3L19 3L19 4L18 4L18 3L17 3L17 4L16 4L16 2L15 2L15 5L17 5L17 6L16 6L16 7L15 7L15 6L14 6L14 7L13 7L13 4L14 4L14 2L13 2L13 1L12 1L12 2L13 2L13 4L12 4L12 3L11 3L11 0ZM14 0L14 1L17 1L17 2L18 2L18 0ZM25 0L25 3L26 3L26 4L27 4L27 0ZM8 1L8 2L9 2L9 1ZM31 3L31 4L30 4L30 5L29 5L29 8L28 8L28 9L29 9L29 8L30 8L30 5L31 5L31 4L32 4L32 3ZM11 4L11 9L8 9L8 10L7 10L7 9L5 9L5 10L4 10L4 12L7 12L7 13L6 13L6 14L5 14L5 13L4 13L4 15L3 15L3 16L1 16L1 17L2 17L2 18L3 18L3 16L4 16L4 15L6 15L6 16L7 16L7 15L6 15L6 14L7 14L7 13L9 13L9 14L8 14L8 15L11 15L11 17L12 17L12 18L11 18L11 20L10 20L10 19L9 19L9 21L8 21L8 20L7 20L7 19L6 19L6 18L7 18L7 17L6 17L6 18L5 18L5 17L4 17L4 18L5 18L5 19L4 19L4 20L2 20L2 21L3 21L3 23L5 23L5 24L7 24L7 23L6 23L6 22L9 22L9 21L11 21L11 22L10 22L10 23L9 23L9 24L8 24L8 25L5 25L5 26L8 26L8 28L9 28L9 31L11 31L11 32L13 32L13 34L12 34L12 36L15 36L15 37L13 37L13 38L15 38L15 37L16 37L16 35L20 35L20 36L21 36L21 34L23 34L23 33L21 33L21 32L23 32L23 31L24 31L24 33L25 33L25 34L24 34L24 36L22 36L22 38L23 38L23 37L25 37L25 36L26 36L26 33L27 33L27 32L30 32L30 31L29 31L29 30L28 30L28 29L27 29L27 30L26 30L26 29L24 29L24 28L22 28L22 27L24 27L24 26L21 26L21 25L20 25L20 28L19 28L19 29L18 29L18 28L16 28L16 29L17 29L17 30L16 30L16 31L15 31L15 32L13 32L13 31L12 31L12 30L15 30L15 28L14 28L14 27L12 27L12 28L13 28L13 29L12 29L12 30L11 30L11 28L9 28L9 27L11 27L11 26L12 26L12 25L10 25L10 26L8 26L8 25L9 25L9 24L10 24L10 23L11 23L11 24L14 24L14 25L15 25L15 24L14 24L14 22L15 22L15 19L16 19L16 18L17 18L17 19L18 19L18 17L16 17L16 16L14 16L14 20L13 20L13 22L12 22L12 19L13 19L13 16L12 16L12 15L13 15L13 13L12 13L12 12L11 12L11 14L10 14L10 13L9 13L9 10L10 10L10 11L13 11L13 10L11 10L11 9L14 9L14 10L16 10L16 12L18 12L18 13L15 13L15 11L14 11L14 13L15 13L15 14L14 14L14 15L17 15L17 16L19 16L19 17L20 17L20 16L21 16L21 15L22 15L22 16L24 16L24 17L23 17L23 18L24 18L24 17L25 17L25 16L26 16L26 14L27 14L27 15L28 15L28 12L29 12L29 10L28 10L28 12L27 12L27 13L26 13L26 11L27 11L27 10L26 10L26 9L27 9L27 8L24 8L24 11L23 11L23 12L22 12L22 11L21 11L21 10L20 10L20 8L19 8L19 7L20 7L20 6L19 6L19 7L18 7L18 6L17 6L17 7L16 7L16 9L15 9L15 7L14 7L14 8L13 8L13 7L12 7L12 4ZM17 4L17 5L18 5L18 4ZM19 4L19 5L21 5L21 4ZM21 6L21 7L22 7L22 6ZM17 7L17 10L19 10L19 11L20 11L20 10L19 10L19 8L18 8L18 7ZM36 8L36 10L37 10L37 9L38 9L38 8ZM39 8L39 9L40 9L40 8ZM30 9L30 10L31 10L31 9ZM6 10L6 11L7 11L7 12L8 12L8 11L7 11L7 10ZM24 11L24 12L25 12L25 11ZM38 11L38 12L36 12L36 13L39 13L39 14L38 14L38 15L37 15L37 14L36 14L36 15L35 15L35 14L34 14L34 15L33 15L33 16L32 16L32 18L35 18L35 17L37 17L37 16L38 16L38 15L39 15L39 14L40 14L40 13L39 13L39 11ZM19 12L19 14L17 14L17 15L19 15L19 14L20 14L20 15L21 15L21 14L23 14L23 13L21 13L21 14L20 14L20 12ZM24 13L24 14L26 14L26 13ZM31 13L31 14L32 14L32 13ZM24 15L24 16L25 16L25 15ZM36 15L36 16L37 16L37 15ZM33 16L33 17L34 17L34 16ZM8 17L8 18L10 18L10 17ZM15 17L15 18L16 18L16 17ZM30 17L30 18L31 18L31 17ZM37 18L37 20L36 20L36 19L35 19L35 20L36 20L36 21L34 21L34 20L33 20L33 19L32 19L32 20L33 20L33 24L31 24L31 26L30 26L30 24L29 24L29 25L28 25L28 26L29 26L29 29L30 29L30 30L31 30L31 29L30 29L30 27L31 27L31 26L32 26L32 25L33 25L33 27L32 27L32 30L33 30L33 31L32 31L32 32L33 32L33 31L36 31L36 32L37 32L37 30L36 30L36 29L37 29L37 28L34 28L34 30L33 30L33 27L34 27L34 25L33 25L33 24L35 24L35 22L36 22L36 23L37 23L37 22L38 22L38 21L37 21L37 20L38 20L38 18ZM5 19L5 20L4 20L4 22L5 22L5 21L7 21L7 20L6 20L6 19ZM16 21L16 22L17 22L17 21ZM22 21L22 22L23 22L23 21ZM24 21L24 25L26 25L26 26L25 26L25 28L28 28L28 27L27 27L27 25L26 25L26 24L27 24L27 22L26 22L26 23L25 23L25 21ZM36 21L36 22L37 22L37 21ZM0 23L0 24L1 24L1 23ZM38 26L38 27L39 27L39 26ZM4 27L4 28L5 28L5 27ZM6 27L6 28L7 28L7 27ZM20 28L20 29L19 29L19 31L18 31L18 30L17 30L17 31L16 31L16 32L17 32L17 33L16 33L16 34L13 34L13 35L16 35L16 34L18 34L18 32L20 32L20 31L23 31L23 30L24 30L24 31L25 31L25 32L27 32L27 31L28 31L28 30L27 30L27 31L26 31L26 30L24 30L24 29L22 29L22 28ZM0 29L0 33L3 33L3 31L5 31L5 30L1 30L1 29ZM21 29L21 30L22 30L22 29ZM6 30L6 31L7 31L7 30ZM4 32L4 33L7 33L7 32ZM19 33L19 34L20 34L20 33ZM28 33L28 34L29 34L29 35L27 35L27 37L28 37L28 36L30 36L30 37L31 37L31 36L32 36L32 35L31 35L31 34L29 34L29 33ZM33 33L33 36L36 36L36 33ZM34 34L34 35L35 35L35 34ZM37 34L37 37L36 37L36 38L38 38L38 37L39 37L39 36L40 36L40 35L39 35L39 34ZM30 35L30 36L31 36L31 35ZM33 37L33 38L34 38L34 39L35 39L35 37ZM17 38L17 39L19 39L19 40L16 40L16 41L19 41L19 40L20 40L20 41L21 41L21 39L20 39L20 38ZM40 38L40 40L41 40L41 38ZM8 39L8 40L9 40L9 39ZM37 39L37 40L38 40L38 39ZM22 40L22 41L24 41L24 40ZM25 40L25 41L27 41L27 40ZM28 40L28 41L29 41L29 40ZM0 0L0 7L7 7L7 0ZM1 1L1 6L6 6L6 1ZM2 2L2 5L5 5L5 2ZM34 0L34 7L41 7L41 0ZM35 1L35 6L40 6L40 1ZM36 2L36 5L39 5L39 2ZM0 34L0 41L7 41L7 34ZM1 35L1 40L6 40L6 35ZM2 36L2 39L5 39L5 36Z" fill="#000000"/></g></g></svg>
