<?xml version="1.0" encoding="UTF-8"?>
<svg xmlns="http://www.w3.org/2000/svg" version="1.1" width="300" height="300" viewBox="0 0 300 300"><rect x="0" y="0" width="300" height="300" fill="#ffffff"/><g transform="scale(8.108)"><g transform="translate(0,0)"><path fill-rule="evenodd" d="M8 0L8 1L9 1L9 2L8 2L8 4L9 4L9 5L8 5L8 8L5 8L5 9L4 9L4 8L3 8L3 9L2 9L2 8L1 8L1 9L0 9L0 10L1 10L1 9L2 9L2 10L4 10L4 11L3 11L3 14L2 14L2 11L0 11L0 12L1 12L1 14L0 14L0 17L2 17L2 16L3 16L3 17L4 17L4 15L3 15L3 14L5 14L5 18L4 18L4 19L3 19L3 20L2 20L2 19L1 19L1 18L0 18L0 20L2 20L2 21L1 21L1 22L0 22L0 23L2 23L2 21L3 21L3 23L4 23L4 24L2 24L2 25L5 25L5 26L4 26L4 27L3 27L3 26L2 26L2 27L1 27L1 26L0 26L0 27L1 27L1 28L0 28L0 29L3 29L3 28L4 28L4 27L5 27L5 26L6 26L6 27L7 27L7 28L5 28L5 29L8 29L8 32L9 32L9 33L8 33L8 34L11 34L11 33L12 33L12 31L13 31L13 32L14 32L14 33L13 33L13 34L12 34L12 35L11 35L11 37L14 37L14 36L13 36L13 34L15 34L15 36L18 36L18 35L16 35L16 34L17 34L17 33L15 33L15 31L16 31L16 29L17 29L17 30L18 30L18 29L20 29L20 30L21 30L21 31L22 31L22 32L23 32L23 35L20 35L20 33L21 33L21 34L22 34L22 33L21 33L21 32L20 32L20 31L18 31L18 32L19 32L19 36L22 36L22 37L25 37L25 33L26 33L26 34L27 34L27 35L26 35L26 36L27 36L27 35L28 35L28 37L29 37L29 35L28 35L28 33L31 33L31 34L32 34L32 35L33 35L33 36L31 36L31 37L34 37L34 35L35 35L35 34L36 34L36 35L37 35L37 33L35 33L35 34L34 34L34 35L33 35L33 33L34 33L34 32L35 32L35 30L36 30L36 31L37 31L37 28L36 28L36 29L35 29L35 30L34 30L34 29L33 29L33 28L32 28L32 26L30 26L30 27L29 27L29 26L28 26L28 25L29 25L29 24L30 24L30 25L34 25L34 22L33 22L33 23L32 23L32 22L31 22L31 20L32 20L32 21L34 21L34 20L36 20L36 21L35 21L35 23L36 23L36 24L35 24L35 25L36 25L36 26L35 26L35 27L34 27L34 28L35 28L35 27L37 27L37 25L36 25L36 24L37 24L37 23L36 23L36 21L37 21L37 20L36 20L36 19L37 19L37 16L36 16L36 15L37 15L37 8L36 8L36 14L35 14L35 12L34 12L34 9L35 9L35 8L33 8L33 9L32 9L32 8L29 8L29 10L28 10L28 9L27 9L27 8L26 8L26 7L27 7L27 6L28 6L28 7L29 7L29 5L28 5L28 4L29 4L29 2L28 2L28 1L29 1L29 0L27 0L27 1L26 1L26 0L25 0L25 4L26 4L26 5L27 5L27 6L26 6L26 7L25 7L25 6L24 6L24 5L23 5L23 6L22 6L22 5L20 5L20 7L21 7L21 8L20 8L20 9L19 9L19 10L17 10L17 9L16 9L16 8L17 8L17 6L18 6L18 7L19 7L19 3L17 3L17 4L15 4L15 5L12 5L12 7L11 7L11 6L10 6L10 8L9 8L9 5L10 5L10 4L9 4L9 2L10 2L10 1L11 1L11 2L12 2L12 3L13 3L13 4L14 4L14 3L16 3L16 2L18 2L18 1L19 1L19 0L18 0L18 1L17 1L17 0L15 0L15 1L14 1L14 0L13 0L13 1L12 1L12 0L10 0L10 1L9 1L9 0ZM20 0L20 4L21 4L21 2L23 2L23 0ZM15 1L15 2L16 2L16 1ZM13 2L13 3L14 3L14 2ZM26 2L26 3L27 3L27 2ZM22 3L22 4L23 4L23 3ZM16 5L16 6L15 6L15 7L14 7L14 6L13 6L13 7L14 7L14 8L13 8L13 10L14 10L14 8L16 8L16 6L17 6L17 5ZM21 6L21 7L22 7L22 6ZM23 6L23 10L21 10L21 9L20 9L20 10L19 10L19 11L17 11L17 10L15 10L15 11L12 11L12 12L11 12L11 13L10 13L10 11L9 11L9 10L8 10L8 9L5 9L5 11L4 11L4 12L5 12L5 14L7 14L7 13L6 13L6 12L9 12L9 13L8 13L8 14L10 14L10 15L12 15L12 14L13 14L13 15L14 15L14 16L13 16L13 17L12 17L12 16L8 16L8 15L6 15L6 16L7 16L7 17L6 17L6 18L7 18L7 17L8 17L8 19L9 19L9 18L10 18L10 17L11 17L11 20L12 20L12 21L11 21L11 24L10 24L10 25L9 25L9 26L8 26L8 24L7 24L7 23L8 23L8 22L10 22L10 21L9 21L9 20L8 20L8 21L4 21L4 20L5 20L5 19L4 19L4 20L3 20L3 21L4 21L4 23L5 23L5 22L7 22L7 23L6 23L6 24L7 24L7 25L6 25L6 26L8 26L8 28L9 28L9 29L11 29L11 30L10 30L10 31L11 31L11 30L12 30L12 29L13 29L13 30L14 30L14 31L15 31L15 29L13 29L13 27L14 27L14 26L15 26L15 27L16 27L16 28L17 28L17 29L18 29L18 28L20 28L20 29L21 29L21 30L22 30L22 31L25 31L25 32L26 32L26 33L28 33L28 32L26 32L26 31L27 31L27 30L28 30L28 29L27 29L27 28L28 28L28 27L27 27L27 28L25 28L25 30L23 30L23 29L24 29L24 28L23 28L23 26L24 26L24 27L26 27L26 26L24 26L24 24L25 24L25 25L26 25L26 24L27 24L27 25L28 25L28 24L29 24L29 23L30 23L30 24L32 24L32 23L30 23L30 21L29 21L29 20L30 20L30 17L29 17L29 16L32 16L32 17L33 17L33 18L31 18L31 19L32 19L32 20L33 20L33 19L35 19L35 18L36 18L36 17L33 17L33 15L32 15L32 14L33 14L33 10L32 10L32 9L30 9L30 10L29 10L29 11L28 11L28 10L27 10L27 9L26 9L26 8L24 8L24 6ZM11 9L11 10L12 10L12 9ZM25 9L25 10L24 10L24 11L20 11L20 12L18 12L18 14L17 14L17 13L15 13L15 12L14 12L14 13L15 13L15 16L14 16L14 17L13 17L13 18L14 18L14 22L13 22L13 23L12 23L12 24L11 24L11 26L9 26L9 27L11 27L11 28L12 28L12 27L11 27L11 26L12 26L12 25L13 25L13 26L14 26L14 25L15 25L15 26L16 26L16 25L17 25L17 26L18 26L18 27L19 27L19 26L20 26L20 28L21 28L21 27L22 27L22 26L20 26L20 25L23 25L23 23L22 23L22 21L23 21L23 22L24 22L24 19L23 19L23 17L21 17L21 18L22 18L22 19L20 19L20 14L22 14L22 15L21 15L21 16L26 16L26 17L25 17L25 18L26 18L26 20L29 20L29 19L27 19L27 16L29 16L29 14L31 14L31 13L32 13L32 12L31 12L31 11L32 11L32 10L30 10L30 12L28 12L28 11L25 11L25 10L26 10L26 9ZM6 10L6 11L7 11L7 10ZM24 11L24 12L23 12L23 13L22 13L22 12L21 12L21 13L22 13L22 14L24 14L24 15L25 15L25 14L26 14L26 16L27 16L27 15L28 15L28 14L27 14L27 13L28 13L28 12L27 12L27 13L25 13L25 11ZM12 12L12 13L11 13L11 14L12 14L12 13L13 13L13 12ZM1 14L1 16L2 16L2 14ZM16 14L16 15L17 15L17 14ZM18 14L18 15L19 15L19 14ZM34 15L34 16L35 16L35 15ZM16 16L16 17L15 17L15 19L16 19L16 20L15 20L15 21L16 21L16 20L17 20L17 22L15 22L15 25L16 25L16 24L17 24L17 22L18 22L18 25L20 25L20 24L21 24L21 23L19 23L19 17L18 17L18 16ZM16 17L16 18L17 18L17 17ZM28 17L28 18L29 18L29 17ZM6 19L6 20L7 20L7 19ZM22 19L22 20L23 20L23 19ZM20 21L20 22L21 22L21 21ZM25 21L25 24L26 24L26 23L27 23L27 21ZM0 24L0 25L1 25L1 24ZM2 27L2 28L3 28L3 27ZM30 27L30 28L31 28L31 27ZM22 28L22 29L23 29L23 28ZM26 29L26 30L27 30L27 29ZM29 29L29 32L32 32L32 29ZM30 30L30 31L31 31L31 30ZM33 30L33 31L34 31L34 30ZM10 32L10 33L11 33L11 32ZM8 35L8 36L9 36L9 37L10 37L10 36L9 36L9 35ZM35 36L35 37L37 37L37 36ZM0 0L0 7L7 7L7 0ZM1 1L1 6L6 6L6 1ZM2 2L2 5L5 5L5 2ZM30 0L30 7L37 7L37 0ZM31 1L31 6L36 6L36 1ZM32 2L32 5L35 5L35 2ZM0 30L0 37L7 37L7 30ZM1 31L1 36L6 36L6 31ZM2 32L2 35L5 35L5 32Z" fill="#000000"/></g></g></svg>
