<?xml version="1.0" encoding="UTF-8"?>
<svg xmlns="http://www.w3.org/2000/svg" version="1.1" width="300" height="300" viewBox="0 0 300 300"><rect x="0" y="0" width="300" height="300" fill="#ffffff"/><g transform="scale(8.108)"><g transform="translate(0,0)"><path fill-rule="evenodd" d="M8 0L8 1L9 1L9 2L8 2L8 4L9 4L9 5L8 5L8 8L5 8L5 9L4 9L4 8L3 8L3 9L2 9L2 8L1 8L1 9L0 9L0 11L1 11L1 12L2 12L2 10L4 10L4 11L3 11L3 12L4 12L4 14L5 14L5 17L4 17L4 16L3 16L3 14L2 14L2 13L0 13L0 14L2 14L2 16L3 16L3 17L4 17L4 18L3 18L3 19L4 19L4 20L5 20L5 21L8 21L8 20L9 20L9 21L10 21L10 20L11 20L11 23L10 23L10 24L9 24L9 23L8 23L8 22L6 22L6 23L5 23L5 22L3 22L3 21L1 21L1 20L0 20L0 21L1 21L1 22L0 22L0 23L2 23L2 25L4 25L4 24L3 24L3 23L5 23L5 24L6 24L6 25L5 25L5 27L3 27L3 26L2 26L2 27L1 27L1 26L0 26L0 27L1 27L1 28L0 28L0 29L3 29L3 28L5 28L5 29L8 29L8 32L9 32L9 33L8 33L8 34L9 34L9 35L8 35L8 36L10 36L10 37L13 37L13 36L15 36L15 37L16 37L16 36L17 36L17 37L19 37L19 36L22 36L22 37L25 37L25 33L26 33L26 34L27 34L27 35L26 35L26 36L27 36L27 35L28 35L28 37L34 37L34 34L33 34L33 33L34 33L34 32L35 32L35 30L36 30L36 31L37 31L37 29L35 29L35 30L33 30L33 28L32 28L32 26L31 26L31 28L29 28L29 27L30 27L30 26L28 26L28 25L29 25L29 24L30 24L30 25L34 25L34 22L31 22L31 19L32 19L32 18L33 18L33 19L34 19L34 20L36 20L36 21L35 21L35 23L36 23L36 24L35 24L35 25L36 25L36 26L35 26L35 27L34 27L34 28L36 28L36 27L37 27L37 25L36 25L36 24L37 24L37 23L36 23L36 21L37 21L37 20L36 20L36 19L37 19L37 16L36 16L36 15L37 15L37 12L36 12L36 11L37 11L37 8L36 8L36 9L35 9L35 8L33 8L33 9L32 9L32 8L29 8L29 10L28 10L28 9L27 9L27 8L28 8L28 7L29 7L29 6L28 6L28 5L29 5L29 4L28 4L28 3L29 3L29 0L27 0L27 1L26 1L26 0L25 0L25 4L26 4L26 5L27 5L27 6L26 6L26 7L25 7L25 6L24 6L24 5L23 5L23 4L22 4L22 7L21 7L21 6L20 6L20 5L21 5L21 4L19 4L19 3L18 3L18 2L19 2L19 0L18 0L18 1L17 1L17 4L16 4L16 2L14 2L14 0L13 0L13 1L12 1L12 0L10 0L10 1L9 1L9 0ZM20 0L20 3L21 3L21 2L22 2L22 1L23 1L23 0L22 0L22 1L21 1L21 0ZM10 1L10 5L9 5L9 7L10 7L10 9L9 9L9 10L8 10L8 9L6 9L6 10L8 10L8 11L5 11L5 13L6 13L6 14L7 14L7 13L6 13L6 12L8 12L8 13L9 13L9 14L8 14L8 15L6 15L6 16L8 16L8 19L11 19L11 20L12 20L12 23L13 23L13 22L14 22L14 20L13 20L13 19L14 19L14 18L15 18L15 20L16 20L16 23L15 23L15 24L16 24L16 23L17 23L17 24L18 24L18 25L16 25L16 26L15 26L15 25L14 25L14 26L15 26L15 27L16 27L16 28L18 28L18 26L19 26L19 29L21 29L21 30L22 30L22 31L21 31L21 33L20 33L20 31L19 31L19 30L17 30L17 33L16 33L16 34L17 34L17 33L18 33L18 34L19 34L19 33L20 33L20 35L23 35L23 32L22 32L22 31L24 31L24 32L26 32L26 33L27 33L27 34L28 34L28 35L29 35L29 36L30 36L30 35L32 35L32 36L33 36L33 35L32 35L32 34L31 34L31 33L30 33L30 35L29 35L29 34L28 34L28 32L26 32L26 31L27 31L27 30L28 30L28 29L27 29L27 28L28 28L28 27L27 27L27 28L25 28L25 27L26 27L26 26L25 26L25 27L24 27L24 30L23 30L23 29L22 29L22 28L23 28L23 26L24 26L24 24L25 24L25 25L26 25L26 24L27 24L27 25L28 25L28 24L27 24L27 23L30 23L30 24L31 24L31 23L30 23L30 21L29 21L29 22L28 22L28 20L26 20L26 18L25 18L25 17L26 17L26 16L27 16L27 19L30 19L30 18L29 18L29 17L30 17L30 16L31 16L31 15L32 15L32 17L34 17L34 19L36 19L36 18L35 18L35 17L34 17L34 16L35 16L35 15L36 15L36 14L34 14L34 13L33 13L33 10L32 10L32 9L30 9L30 10L29 10L29 11L28 11L28 10L27 10L27 9L26 9L26 8L27 8L27 7L28 7L28 6L27 6L27 7L26 7L26 8L25 8L25 9L26 9L26 10L25 10L25 11L26 11L26 10L27 10L27 11L28 11L28 12L27 12L27 13L25 13L25 12L23 12L23 13L22 13L22 12L21 12L21 11L24 11L24 6L23 6L23 10L21 10L21 8L20 8L20 6L19 6L19 4L17 4L17 5L15 5L15 7L14 7L14 6L13 6L13 5L14 5L14 2L13 2L13 5L12 5L12 2L11 2L11 1ZM26 2L26 3L28 3L28 2ZM10 5L10 7L11 7L11 10L9 10L9 13L10 13L10 14L9 14L9 15L8 15L8 16L12 16L12 17L13 17L13 16L14 16L14 17L15 17L15 16L14 16L14 15L15 15L15 14L13 14L13 16L12 16L12 13L10 13L10 11L11 11L11 10L12 10L12 12L14 12L14 11L15 11L15 10L19 10L19 9L20 9L20 8L19 8L19 6L18 6L18 5L17 5L17 6L16 6L16 7L17 7L17 6L18 6L18 8L17 8L17 9L16 9L16 8L14 8L14 7L13 7L13 6L12 6L12 7L11 7L11 5ZM12 7L12 10L13 10L13 9L14 9L14 8L13 8L13 7ZM18 8L18 9L19 9L19 8ZM1 9L1 10L2 10L2 9ZM34 9L34 12L35 12L35 9ZM30 10L30 11L29 11L29 12L28 12L28 13L27 13L27 14L28 14L28 15L27 15L27 16L28 16L28 17L29 17L29 12L30 12L30 14L31 14L31 13L32 13L32 12L31 12L31 11L32 11L32 10ZM18 11L18 12L20 12L20 13L21 13L21 14L19 14L19 13L18 13L18 14L17 14L17 12L16 12L16 14L17 14L17 16L16 16L16 17L17 17L17 18L18 18L18 19L17 19L17 21L18 21L18 22L19 22L19 26L20 26L20 25L23 25L23 23L21 23L21 22L22 22L22 21L23 21L23 22L24 22L24 19L23 19L23 17L22 17L22 19L20 19L20 17L19 17L19 15L20 15L20 16L24 16L24 14L22 14L22 13L21 13L21 12L20 12L20 11ZM10 14L10 15L11 15L11 14ZM18 14L18 15L19 15L19 14ZM21 14L21 15L22 15L22 14ZM25 14L25 16L26 16L26 14ZM32 14L32 15L33 15L33 14ZM0 15L0 17L1 17L1 18L2 18L2 17L1 17L1 15ZM17 16L17 17L18 17L18 18L19 18L19 17L18 17L18 16ZM6 17L6 18L7 18L7 17ZM10 17L10 18L11 18L11 17ZM4 18L4 19L5 19L5 18ZM6 19L6 20L7 20L7 19ZM18 19L18 20L19 20L19 19ZM20 20L20 21L19 21L19 22L20 22L20 21L21 21L21 20ZM32 20L32 21L33 21L33 20ZM25 21L25 24L26 24L26 23L27 23L27 21ZM6 23L6 24L7 24L7 25L6 25L6 26L7 26L7 25L8 25L8 26L9 26L9 27L8 27L8 29L10 29L10 28L12 28L12 29L11 29L11 30L10 30L10 31L11 31L11 32L10 32L10 33L9 33L9 34L10 34L10 33L11 33L11 35L12 35L12 34L15 34L15 32L16 32L16 31L15 31L15 30L16 30L16 29L15 29L15 30L13 30L13 31L11 31L11 30L12 30L12 29L13 29L13 28L14 28L14 27L13 27L13 25L11 25L11 24L10 24L10 25L8 25L8 24L7 24L7 23ZM20 23L20 24L21 24L21 23ZM32 23L32 24L33 24L33 23ZM0 24L0 25L1 25L1 24ZM10 26L10 27L11 27L11 26ZM21 26L21 27L20 27L20 28L21 28L21 27L22 27L22 26ZM2 27L2 28L3 28L3 27ZM5 27L5 28L7 28L7 27ZM12 27L12 28L13 28L13 27ZM26 29L26 30L27 30L27 29ZM29 29L29 32L32 32L32 29ZM30 30L30 31L31 31L31 30ZM13 31L13 33L14 33L14 31ZM18 31L18 32L19 32L19 31ZM21 33L21 34L22 34L22 33ZM35 33L35 34L36 34L36 35L37 35L37 33ZM15 35L15 36L16 36L16 35ZM17 35L17 36L18 36L18 35ZM35 36L35 37L37 37L37 36ZM0 0L0 7L7 7L7 0ZM1 1L1 6L6 6L6 1ZM2 2L2 5L5 5L5 2ZM30 0L30 7L37 7L37 0ZM31 1L31 6L36 6L36 1ZM32 2L32 5L35 5L35 2ZM0 30L0 37L7 37L7 30ZM1 31L1 36L6 36L6 31ZM2 32L2 35L5 35L5 32Z" fill="#000000"/></g></g></svg>
