<?xml version="1.0" encoding="UTF-8"?>
<svg xmlns="http://www.w3.org/2000/svg" version="1.1" width="300" height="300" viewBox="0 0 300 300"><rect x="0" y="0" width="300" height="300" fill="#ffffff"/><g transform="scale(6.122)"><g transform="translate(0,0)"><path fill-rule="evenodd" d="M9 0L9 1L8 1L8 2L12 2L12 3L11 3L11 4L10 4L10 3L8 3L8 5L9 5L9 4L10 4L10 7L9 7L9 6L8 6L8 9L7 9L7 8L3 8L3 9L2 9L2 8L1 8L1 11L0 11L0 12L1 12L1 13L0 13L0 16L2 16L2 17L3 17L3 18L4 18L4 17L7 17L7 18L5 18L5 19L7 19L7 18L8 18L8 17L9 17L9 20L8 20L8 21L7 21L7 20L6 20L6 21L7 21L7 22L5 22L5 20L3 20L3 19L0 19L0 20L3 20L3 21L2 21L2 23L1 23L1 21L0 21L0 27L1 27L1 28L0 28L0 30L1 30L1 28L3 28L3 29L2 29L2 30L3 30L3 31L2 31L2 32L1 32L1 34L2 34L2 36L3 36L3 35L4 35L4 36L5 36L5 35L7 35L7 36L6 36L6 37L9 37L9 38L5 38L5 39L8 39L8 40L6 40L6 41L8 41L8 42L9 42L9 41L10 41L10 42L11 42L11 43L8 43L8 46L9 46L9 47L8 47L8 48L9 48L9 49L11 49L11 48L9 48L9 47L10 47L10 46L12 46L12 47L13 47L13 46L14 46L14 45L13 45L13 44L15 44L15 45L16 45L16 46L19 46L19 45L20 45L20 47L19 47L19 49L20 49L20 47L22 47L22 49L29 49L29 48L26 48L26 47L28 47L28 45L29 45L29 47L30 47L30 46L31 46L31 47L32 47L32 49L35 49L35 48L36 48L36 49L37 49L37 48L38 48L38 49L42 49L42 48L43 48L43 49L46 49L46 48L48 48L48 49L49 49L49 45L48 45L48 44L47 44L47 46L48 46L48 47L46 47L46 45L45 45L45 44L46 44L46 43L47 43L47 42L48 42L48 43L49 43L49 42L48 42L48 41L46 41L46 38L47 38L47 39L49 39L49 38L47 38L47 37L49 37L49 34L48 34L48 36L47 36L47 35L46 35L46 36L45 36L45 34L47 34L47 33L45 33L45 30L46 30L46 29L48 29L48 28L49 28L49 26L47 26L47 27L45 27L45 26L46 26L46 24L47 24L47 25L48 25L48 24L47 24L47 23L46 23L46 21L44 21L44 22L43 22L43 18L45 18L45 20L46 20L46 19L47 19L47 20L48 20L48 21L49 21L49 18L48 18L48 17L47 17L47 18L45 18L45 17L46 17L46 16L47 16L47 15L49 15L49 14L47 14L47 15L46 15L46 14L44 14L44 15L43 15L43 18L41 18L41 19L40 19L40 16L39 16L39 15L40 15L40 14L39 14L39 13L40 13L40 12L41 12L41 13L42 13L42 14L41 14L41 17L42 17L42 14L43 14L43 12L42 12L42 11L39 11L39 12L38 12L38 13L37 13L37 12L35 12L35 9L36 9L36 8L37 8L37 9L38 9L38 10L37 10L37 11L38 11L38 10L41 10L41 9L42 9L42 10L43 10L43 11L44 11L44 13L45 13L45 10L43 10L43 8L41 8L41 9L40 9L40 7L41 7L41 6L40 6L40 7L39 7L39 5L38 5L38 2L39 2L39 4L40 4L40 3L41 3L41 0L40 0L40 1L37 1L37 0L36 0L36 1L35 1L35 0L34 0L34 2L37 2L37 3L35 3L35 6L34 6L34 7L33 7L33 6L32 6L32 7L31 7L31 6L30 6L30 7L29 7L29 4L30 4L30 5L33 5L33 2L31 2L31 3L32 3L32 4L30 4L30 2L28 2L28 1L27 1L27 0L26 0L26 2L24 2L24 1L25 1L25 0L24 0L24 1L23 1L23 2L20 2L20 1L22 1L22 0L18 0L18 2L20 2L20 3L17 3L17 2L14 2L14 1L13 1L13 0L12 0L12 1L10 1L10 0ZM30 0L30 1L33 1L33 0ZM12 1L12 2L13 2L13 1ZM26 2L26 4L27 4L27 2ZM12 3L12 4L11 4L11 7L10 7L10 8L9 8L9 10L8 10L8 12L7 12L7 11L5 11L5 10L4 10L4 9L3 9L3 10L2 10L2 11L1 11L1 12L3 12L3 13L1 13L1 14L3 14L3 15L2 15L2 16L4 16L4 12L5 12L5 16L7 16L7 17L8 17L8 16L7 16L7 15L8 15L8 14L7 14L7 13L9 13L9 11L11 11L11 13L10 13L10 14L11 14L11 15L9 15L9 16L11 16L11 21L13 21L13 24L14 24L14 25L12 25L12 23L11 23L11 22L10 22L10 23L9 23L9 24L10 24L10 26L11 26L11 27L10 27L10 29L6 29L6 28L9 28L9 27L6 27L6 28L5 28L5 29L3 29L3 30L5 30L5 29L6 29L6 30L9 30L9 31L8 31L8 32L9 32L9 33L6 33L6 34L7 34L7 35L9 35L9 33L11 33L11 34L10 34L10 36L11 36L11 37L10 37L10 38L9 38L9 40L10 40L10 41L11 41L11 42L13 42L13 43L12 43L12 44L10 44L10 45L9 45L9 46L10 46L10 45L12 45L12 44L13 44L13 43L14 43L14 42L16 42L16 41L17 41L17 42L18 42L18 41L19 41L19 42L20 42L20 43L19 43L19 44L20 44L20 45L21 45L21 46L22 46L22 47L23 47L23 48L25 48L25 47L26 47L26 45L22 45L22 44L20 44L20 43L22 43L22 41L21 41L21 40L20 40L20 41L19 41L19 39L22 39L22 40L25 40L25 39L26 39L26 40L27 40L27 39L26 39L26 38L27 38L27 37L28 37L28 38L30 38L30 41L29 41L29 39L28 39L28 41L27 41L27 45L28 45L28 41L29 41L29 42L32 42L32 40L33 40L33 39L34 39L34 40L35 40L35 41L34 41L34 42L37 42L37 41L39 41L39 39L38 39L38 38L37 38L37 39L35 39L35 37L34 37L34 35L33 35L33 38L32 38L32 40L31 40L31 38L30 38L30 37L32 37L32 34L30 34L30 33L29 33L29 34L28 34L28 35L27 35L27 34L25 34L25 33L27 33L27 30L30 30L30 32L32 32L32 33L33 33L33 32L32 32L32 30L33 30L33 29L32 29L32 30L30 30L30 29L31 29L31 28L33 28L33 27L35 27L35 26L36 26L36 28L34 28L34 29L35 29L35 30L34 30L34 33L36 33L36 32L35 32L35 30L36 30L36 28L37 28L37 29L38 29L38 31L39 31L39 30L41 30L41 31L42 31L42 32L40 32L40 33L39 33L39 32L37 32L37 33L39 33L39 34L37 34L37 35L35 35L35 36L37 36L37 37L38 37L38 36L37 36L37 35L40 35L40 36L41 36L41 38L40 38L40 37L39 37L39 38L40 38L40 39L42 39L42 40L43 40L43 39L45 39L45 38L43 38L43 39L42 39L42 36L43 36L43 37L45 37L45 36L43 36L43 35L42 35L42 36L41 36L41 33L42 33L42 34L44 34L44 32L43 32L43 31L44 31L44 30L45 30L45 29L46 29L46 28L45 28L45 29L43 29L43 31L42 31L42 30L41 30L41 29L42 29L42 28L43 28L43 27L42 27L42 28L41 28L41 29L39 29L39 28L38 28L38 27L37 27L37 26L36 26L36 24L37 24L37 23L38 23L38 24L39 24L39 27L40 27L40 23L39 23L39 22L40 22L40 21L42 21L42 19L41 19L41 20L39 20L39 19L38 19L38 18L39 18L39 17L36 17L36 18L37 18L37 19L34 19L34 17L35 17L35 16L38 16L38 15L37 15L37 14L35 14L35 12L34 12L34 11L33 11L33 9L34 9L34 8L33 8L33 9L32 9L32 8L31 8L31 10L30 10L30 8L29 8L29 7L28 7L28 5L27 5L27 8L29 8L29 10L27 10L27 11L26 11L26 13L25 13L25 12L24 12L24 11L23 11L23 9L22 9L22 8L21 8L21 7L22 7L22 5L21 5L21 7L20 7L20 4L24 4L24 3L20 3L20 4L17 4L17 3ZM12 4L12 5L13 5L13 4ZM15 4L15 5L14 5L14 7L13 7L13 6L12 6L12 7L13 7L13 8L10 8L10 10L11 10L11 9L12 9L12 13L11 13L11 14L12 14L12 16L13 16L13 17L12 17L12 18L13 18L13 17L14 17L14 16L15 16L15 15L14 15L14 16L13 16L13 13L14 13L14 14L15 14L15 13L14 13L14 12L16 12L16 17L15 17L15 19L13 19L13 21L14 21L14 20L16 20L16 23L15 23L15 22L14 22L14 24L15 24L15 25L14 25L14 26L12 26L12 27L11 27L11 30L10 30L10 31L11 31L11 32L13 32L13 33L14 33L14 34L15 34L15 35L13 35L13 34L12 34L12 36L14 36L14 37L12 37L12 38L10 38L10 39L11 39L11 41L12 41L12 39L13 39L13 42L14 42L14 39L15 39L15 38L16 38L16 37L17 37L17 40L18 40L18 35L20 35L20 37L19 37L19 38L22 38L22 39L25 39L25 38L26 38L26 37L25 37L25 38L22 38L22 37L24 37L24 36L25 36L25 35L23 35L23 34L24 34L24 33L23 33L23 34L22 34L22 36L21 36L21 34L20 34L20 33L21 33L21 32L23 32L23 31L19 31L19 30L20 30L20 29L22 29L22 28L21 28L21 27L23 27L23 28L24 28L24 30L25 30L25 31L24 31L24 32L26 32L26 30L27 30L27 29L28 29L28 27L27 27L27 22L31 22L31 23L30 23L30 24L29 24L29 23L28 23L28 24L29 24L29 25L28 25L28 26L31 26L31 23L32 23L32 25L33 25L33 26L32 26L32 27L33 27L33 26L34 26L34 25L33 25L33 24L34 24L34 23L35 23L35 24L36 24L36 23L37 23L37 20L36 20L36 21L35 21L35 20L34 20L34 21L33 21L33 22L31 22L31 21L32 21L32 19L33 19L33 18L31 18L31 16L32 16L32 17L33 17L33 16L32 16L32 15L30 15L30 14L33 14L33 13L34 13L34 12L33 12L33 11L32 11L32 10L31 10L31 11L30 11L30 10L29 10L29 11L27 11L27 13L26 13L26 14L27 14L27 13L28 13L28 15L25 15L25 17L24 17L24 15L21 15L21 16L22 16L22 17L21 17L21 18L19 18L19 17L20 17L20 14L17 14L17 12L18 12L18 13L19 13L19 12L18 12L18 10L21 10L21 9L19 9L19 8L20 8L20 7L19 7L19 5L18 5L18 7L19 7L19 8L18 8L18 9L17 9L17 11L16 11L16 8L17 8L17 4ZM36 4L36 6L35 6L35 8L36 8L36 6L37 6L37 8L38 8L38 6L37 6L37 4ZM15 5L15 8L14 8L14 9L15 9L15 8L16 8L16 5ZM23 5L23 8L26 8L26 5ZM24 6L24 7L25 7L25 6ZM44 8L44 9L46 9L46 10L47 10L47 11L46 11L46 12L48 12L48 11L49 11L49 10L47 10L47 9L48 9L48 8L47 8L47 9L46 9L46 8ZM6 9L6 10L7 10L7 9ZM24 9L24 10L26 10L26 9ZM3 10L3 12L4 12L4 10ZM13 10L13 12L14 12L14 10ZM22 11L22 12L20 12L20 13L22 13L22 14L24 14L24 12L23 12L23 11ZM29 11L29 12L28 12L28 13L29 13L29 14L30 14L30 13L29 13L29 12L30 12L30 11ZM31 11L31 13L32 13L32 11ZM6 12L6 13L7 13L7 12ZM22 12L22 13L23 13L23 12ZM6 14L6 15L7 15L7 14ZM17 15L17 16L18 16L18 15ZM28 15L28 16L27 16L27 17L25 17L25 18L24 18L24 17L23 17L23 18L24 18L24 20L23 20L23 21L22 21L22 20L21 20L21 21L22 21L22 22L23 22L23 21L24 21L24 22L27 22L27 21L29 21L29 19L30 19L30 20L31 20L31 19L30 19L30 18L29 18L29 19L28 19L28 20L27 20L27 18L28 18L28 16L29 16L29 17L30 17L30 15ZM34 15L34 16L35 16L35 15ZM44 15L44 16L46 16L46 15ZM17 18L17 19L19 19L19 18ZM47 18L47 19L48 19L48 18ZM25 19L25 21L27 21L27 20L26 20L26 19ZM17 20L17 23L16 23L16 24L17 24L17 23L18 23L18 26L19 26L19 27L18 27L18 29L17 29L17 31L16 31L16 30L15 30L15 29L16 29L16 28L17 28L17 27L16 27L16 28L15 28L15 26L17 26L17 25L15 25L15 26L14 26L14 27L12 27L12 29L13 29L13 28L15 28L15 29L14 29L14 30L13 30L13 31L14 31L14 30L15 30L15 31L16 31L16 32L15 32L15 34L16 34L16 33L17 33L17 31L18 31L18 30L19 30L19 29L20 29L20 28L19 28L19 27L20 27L20 26L22 26L22 23L21 23L21 24L19 24L19 23L20 23L20 20ZM38 20L38 22L39 22L39 20ZM8 21L8 22L9 22L9 21ZM18 21L18 22L19 22L19 21ZM35 22L35 23L36 23L36 22ZM48 22L48 23L49 23L49 22ZM2 23L2 25L3 25L3 26L2 26L2 27L4 27L4 23ZM5 23L5 26L8 26L8 23ZM23 23L23 26L26 26L26 23ZM41 23L41 26L44 26L44 23ZM6 24L6 25L7 25L7 24ZM24 24L24 25L25 25L25 24ZM42 24L42 25L43 25L43 24ZM19 25L19 26L20 26L20 25ZM24 27L24 28L25 28L25 27ZM30 27L30 28L31 28L31 27ZM26 28L26 29L25 29L25 30L26 30L26 29L27 29L27 28ZM47 30L47 31L48 31L48 33L49 33L49 30ZM3 31L3 32L2 32L2 34L5 34L5 31ZM6 31L6 32L7 32L7 31ZM28 31L28 32L29 32L29 31ZM18 32L18 34L19 34L19 32ZM0 35L0 36L1 36L1 35ZM30 35L30 36L28 36L28 37L30 37L30 36L31 36L31 35ZM46 36L46 37L47 37L47 36ZM1 37L1 40L0 40L0 41L3 41L3 40L4 40L4 39L2 39L2 38L3 38L3 37ZM14 37L14 38L15 38L15 37ZM37 39L37 40L36 40L36 41L37 41L37 40L38 40L38 39ZM15 40L15 41L16 41L16 40ZM23 41L23 44L26 44L26 41ZM41 41L41 44L44 44L44 41ZM24 42L24 43L25 43L25 42ZM39 42L39 43L35 43L35 44L37 44L37 45L38 45L38 44L40 44L40 42ZM42 42L42 43L43 43L43 42ZM15 43L15 44L17 44L17 45L18 45L18 44L17 44L17 43ZM31 43L31 45L33 45L33 43ZM43 45L43 46L45 46L45 45ZM23 46L23 47L25 47L25 46ZM35 46L35 47L36 47L36 48L37 48L37 47L39 47L39 46L37 46L37 47L36 47L36 46ZM40 46L40 47L41 47L41 48L42 48L42 46ZM14 47L14 48L13 48L13 49L16 49L16 48L17 48L17 47L16 47L16 48L15 48L15 47ZM33 47L33 48L34 48L34 47ZM43 47L43 48L44 48L44 47ZM0 0L0 7L7 7L7 0ZM1 1L1 6L6 6L6 1ZM2 2L2 5L5 5L5 2ZM42 0L42 7L49 7L49 0ZM43 1L43 6L48 6L48 1ZM44 2L44 5L47 5L47 2ZM0 42L0 49L7 49L7 42ZM1 43L1 48L6 48L6 43ZM2 44L2 47L5 47L5 44Z" fill="#000000"/></g></g></svg>
