<?xml version="1.0" encoding="UTF-8"?>
<svg xmlns="http://www.w3.org/2000/svg" version="1.1" width="300" height="300" viewBox="0 0 300 300"><rect x="0" y="0" width="300" height="300" fill="#ffffff"/><g transform="scale(8.108)"><g transform="translate(0,0)"><path fill-rule="evenodd" d="M8 0L8 1L10 1L10 2L9 2L9 4L8 4L8 7L9 7L9 6L10 6L10 9L9 9L9 10L10 10L10 11L9 11L9 12L11 12L11 13L15 13L15 15L14 15L14 16L11 16L11 14L10 14L10 15L9 15L9 16L8 16L8 14L9 14L9 13L8 13L8 11L7 11L7 10L6 10L6 9L8 9L8 8L1 8L1 9L0 9L0 11L2 11L2 13L0 13L0 16L1 16L1 17L0 17L0 20L1 20L1 21L0 21L0 29L1 29L1 24L3 24L3 23L4 23L4 25L5 25L5 26L2 26L2 27L3 27L3 29L4 29L4 27L7 27L7 28L6 28L6 29L7 29L7 28L8 28L8 27L9 27L9 25L11 25L11 26L10 26L10 27L11 27L11 26L12 26L12 25L14 25L14 24L13 24L13 22L14 22L14 21L13 21L13 20L15 20L15 28L16 28L16 27L17 27L17 28L18 28L18 29L17 29L17 30L15 30L15 29L13 29L13 28L14 28L14 27L12 27L12 28L11 28L11 30L10 30L10 29L8 29L8 36L9 36L9 37L13 37L13 36L14 36L14 35L15 35L15 37L18 37L18 36L19 36L19 33L18 33L18 31L17 31L17 30L18 30L18 29L19 29L19 28L18 28L18 27L20 27L20 30L19 30L19 32L20 32L20 33L21 33L21 34L20 34L20 35L21 35L21 36L20 36L20 37L22 37L22 36L23 36L23 37L25 37L25 36L26 36L26 37L28 37L28 36L29 36L29 35L28 35L28 36L26 36L26 35L27 35L27 34L34 34L34 33L36 33L36 32L37 32L37 30L36 30L36 29L35 29L35 30L36 30L36 31L35 31L35 32L34 32L34 28L35 28L35 27L36 27L36 28L37 28L37 26L35 26L35 25L36 25L36 24L34 24L34 23L36 23L36 22L37 22L37 18L36 18L36 17L37 17L37 14L36 14L36 13L37 13L37 12L35 12L35 14L36 14L36 16L34 16L34 13L33 13L33 12L34 12L34 11L33 11L33 10L34 10L34 9L33 9L33 8L31 8L31 9L30 9L30 11L29 11L29 10L28 10L28 9L29 9L29 4L28 4L28 3L29 3L29 0L28 0L28 1L26 1L26 0L25 0L25 1L23 1L23 3L22 3L22 1L20 1L20 3L19 3L19 2L18 2L18 1L19 1L19 0L18 0L18 1L17 1L17 2L16 2L16 1L15 1L15 0L14 0L14 2L16 2L16 3L17 3L17 4L18 4L18 9L17 9L17 8L16 8L16 7L17 7L17 5L16 5L16 4L14 4L14 3L13 3L13 2L11 2L11 1L12 1L12 0L11 0L11 1L10 1L10 0ZM24 2L24 3L25 3L25 4L22 4L22 3L20 3L20 6L19 6L19 7L20 7L20 6L21 6L21 7L22 7L22 8L21 8L21 9L20 9L20 8L19 8L19 9L18 9L18 10L16 10L16 11L15 11L15 12L18 12L18 14L17 14L17 16L16 16L16 15L15 15L15 16L16 16L16 17L18 17L18 16L19 16L19 15L20 15L20 16L21 16L21 15L20 15L20 13L19 13L19 12L20 12L20 11L21 11L21 9L23 9L23 7L24 7L24 8L25 8L25 9L24 9L24 10L22 10L22 11L24 11L24 12L22 12L22 13L25 13L25 14L22 14L22 15L23 15L23 16L22 16L22 17L23 17L23 18L22 18L22 19L23 19L23 20L20 20L20 21L22 21L22 22L18 22L18 21L17 21L17 20L19 20L19 18L20 18L20 17L19 17L19 18L16 18L16 19L15 19L15 18L14 18L14 19L15 19L15 20L16 20L16 22L18 22L18 24L17 24L17 23L16 23L16 25L17 25L17 27L18 27L18 25L19 25L19 26L21 26L21 28L23 28L23 29L21 29L21 30L20 30L20 32L23 32L23 33L22 33L22 35L23 35L23 34L25 34L25 33L24 33L24 31L25 31L25 32L26 32L26 33L27 33L27 32L26 32L26 30L27 30L27 31L28 31L28 27L29 27L29 28L34 28L34 27L33 27L33 26L34 26L34 24L32 24L32 23L33 23L33 22L36 22L36 21L34 21L34 20L36 20L36 18L35 18L35 17L34 17L34 16L33 16L33 15L31 15L31 13L32 13L32 14L33 14L33 13L32 13L32 12L31 12L31 11L32 11L32 10L31 10L31 11L30 11L30 12L31 12L31 13L29 13L29 11L28 11L28 14L30 14L30 15L31 15L31 17L30 17L30 16L29 16L29 15L27 15L27 11L26 11L26 10L27 10L27 9L26 9L26 8L27 8L27 7L28 7L28 6L27 6L27 7L26 7L26 6L25 6L25 7L24 7L24 6L23 6L23 7L22 7L22 6L21 6L21 4L22 4L22 5L25 5L25 4L26 4L26 5L28 5L28 4L26 4L26 3L27 3L27 2L26 2L26 3L25 3L25 2ZM10 3L10 4L9 4L9 5L12 5L12 6L11 6L11 7L12 7L12 8L11 8L11 9L14 9L14 8L15 8L15 9L16 9L16 8L15 8L15 7L16 7L16 6L15 6L15 5L13 5L13 3L12 3L12 4L11 4L11 3ZM18 3L18 4L19 4L19 3ZM12 6L12 7L13 7L13 8L14 8L14 7L15 7L15 6L14 6L14 7L13 7L13 6ZM25 7L25 8L26 8L26 7ZM36 8L36 9L35 9L35 10L36 10L36 11L37 11L37 10L36 10L36 9L37 9L37 8ZM4 9L4 10L5 10L5 11L4 11L4 12L3 12L3 17L1 17L1 18L3 18L3 19L4 19L4 18L5 18L5 16L7 16L7 15L6 15L6 14L8 14L8 13L6 13L6 12L7 12L7 11L6 11L6 10L5 10L5 9ZM19 9L19 10L18 10L18 11L20 11L20 9ZM11 10L11 11L12 11L12 12L14 12L14 10ZM24 10L24 11L25 11L25 10ZM25 12L25 13L26 13L26 12ZM4 14L4 15L5 15L5 14ZM12 14L12 15L13 15L13 14ZM25 14L25 15L26 15L26 16L25 16L25 17L24 17L24 18L25 18L25 17L26 17L26 16L27 16L27 17L28 17L28 18L27 18L27 19L26 19L26 20L27 20L27 21L26 21L26 22L27 22L27 23L26 23L26 24L27 24L27 25L22 25L22 27L23 27L23 28L25 28L25 29L23 29L23 30L22 30L22 31L23 31L23 30L26 30L26 29L27 29L27 26L30 26L30 27L32 27L32 26L31 26L31 25L32 25L32 24L31 24L31 22L32 22L32 21L33 21L33 20L34 20L34 19L33 19L33 20L32 20L32 21L31 21L31 20L30 20L30 19L32 19L32 18L30 18L30 17L28 17L28 16L27 16L27 15L26 15L26 14ZM10 16L10 17L11 17L11 19L13 19L13 18L12 18L12 17L11 17L11 16ZM32 16L32 17L33 17L33 18L34 18L34 17L33 17L33 16ZM6 17L6 18L8 18L8 17ZM9 18L9 20L8 20L8 21L6 21L6 20L7 20L7 19L6 19L6 20L5 20L5 21L4 21L4 20L2 20L2 21L3 21L3 22L1 22L1 23L3 23L3 22L7 22L7 23L5 23L5 24L8 24L8 25L6 25L6 26L8 26L8 25L9 25L9 22L10 22L10 21L11 21L11 22L13 22L13 21L12 21L12 20L10 20L10 18ZM28 18L28 19L27 19L27 20L28 20L28 21L27 21L27 22L28 22L28 21L30 21L30 22L29 22L29 23L28 23L28 25L30 25L30 24L29 24L29 23L30 23L30 22L31 22L31 21L30 21L30 20L28 20L28 19L30 19L30 18ZM24 19L24 20L25 20L25 19ZM8 21L8 22L9 22L9 21ZM24 21L24 22L25 22L25 21ZM22 22L22 23L19 23L19 25L20 25L20 24L23 24L23 22ZM10 23L10 24L11 24L11 23ZM24 23L24 24L25 24L25 23ZM23 26L23 27L24 27L24 26ZM25 26L25 28L26 28L26 26ZM29 29L29 32L32 32L32 29ZM9 30L9 31L10 31L10 32L9 32L9 33L10 33L10 32L11 32L11 31L10 31L10 30ZM12 30L12 31L13 31L13 30ZM30 30L30 31L31 31L31 30ZM14 31L14 33L17 33L17 34L16 34L16 35L17 35L17 36L18 36L18 33L17 33L17 32L15 32L15 31ZM12 32L12 33L13 33L13 32ZM33 32L33 33L34 33L34 32ZM9 34L9 35L10 35L10 36L11 36L11 35L12 35L12 36L13 36L13 35L14 35L14 34L13 34L13 35L12 35L12 34L11 34L11 35L10 35L10 34ZM36 34L36 36L34 36L34 35L32 35L32 36L30 36L30 37L32 37L32 36L34 36L34 37L37 37L37 34ZM24 35L24 36L25 36L25 35ZM0 0L0 7L7 7L7 0ZM1 1L1 6L6 6L6 1ZM2 2L2 5L5 5L5 2ZM30 0L30 7L37 7L37 0ZM31 1L31 6L36 6L36 1ZM32 2L32 5L35 5L35 2ZM0 30L0 37L7 37L7 30ZM1 31L1 36L6 36L6 31ZM2 32L2 35L5 35L5 32Z" fill="#000000"/></g></g></svg>
