<?xml version="1.0" encoding="UTF-8"?>
<svg xmlns="http://www.w3.org/2000/svg" version="1.1" width="300" height="300" viewBox="0 0 300 300"><rect x="0" y="0" width="300" height="300" fill="#ffffff"/><g transform="scale(8.108)"><g transform="translate(0,0)"><path fill-rule="evenodd" d="M8 0L8 5L10 5L10 7L11 7L11 5L10 5L10 2L11 2L11 3L13 3L13 4L12 4L12 9L11 9L11 10L10 10L10 11L9 11L9 9L8 9L8 8L9 8L9 6L8 6L8 8L6 8L6 9L5 9L5 8L4 8L4 9L3 9L3 8L1 8L1 9L2 9L2 10L0 10L0 11L2 11L2 12L0 12L0 13L1 13L1 14L3 14L3 15L2 15L2 16L4 16L4 17L1 17L1 18L0 18L0 19L1 19L1 18L3 18L3 19L4 19L4 20L0 20L0 21L1 21L1 22L0 22L0 23L1 23L1 22L2 22L2 21L5 21L5 22L4 22L4 23L3 23L3 24L2 24L2 25L1 25L1 24L0 24L0 25L1 25L1 26L0 26L0 27L1 27L1 28L0 28L0 29L1 29L1 28L2 28L2 29L3 29L3 28L4 28L4 27L3 27L3 28L2 28L2 27L1 27L1 26L2 26L2 25L5 25L5 26L6 26L6 27L5 27L5 29L8 29L8 31L9 31L9 32L8 32L8 33L9 33L9 34L8 34L8 36L9 36L9 35L10 35L10 36L11 36L11 37L15 37L15 36L17 36L17 37L18 37L18 36L20 36L20 35L17 35L17 34L16 34L16 33L18 33L18 32L19 32L19 31L18 31L18 32L16 32L16 31L17 31L17 28L18 28L18 30L21 30L21 31L20 31L20 32L21 32L21 31L22 31L22 30L21 30L21 28L20 28L20 26L21 26L21 27L22 27L22 26L23 26L23 24L24 24L24 23L23 23L23 22L24 22L24 21L23 21L23 20L24 20L24 19L23 19L23 18L24 18L24 17L23 17L23 16L24 16L24 15L23 15L23 12L24 12L24 14L26 14L26 15L25 15L25 18L26 18L26 19L25 19L25 20L26 20L26 21L25 21L25 22L26 22L26 23L25 23L25 24L26 24L26 26L27 26L27 27L23 27L23 28L25 28L25 29L26 29L26 28L27 28L27 31L23 31L23 32L24 32L24 33L23 33L23 34L22 34L22 33L21 33L21 34L22 34L22 35L21 35L21 36L22 36L22 37L25 37L25 35L26 35L26 34L27 34L27 31L28 31L28 37L29 37L29 36L30 36L30 33L32 33L32 36L31 36L31 37L33 37L33 35L34 35L34 31L35 31L35 30L34 30L34 29L35 29L35 27L36 27L36 31L37 31L37 25L36 25L36 24L37 24L37 23L36 23L36 21L37 21L37 20L36 20L36 19L37 19L37 16L36 16L36 15L37 15L37 8L32 8L32 10L33 10L33 11L32 11L32 12L30 12L30 14L28 14L28 13L29 13L29 12L28 12L28 11L27 11L27 10L28 10L28 9L27 9L27 10L26 10L26 9L25 9L25 11L23 11L23 9L24 9L24 8L25 8L25 6L24 6L24 8L22 8L22 7L23 7L23 6L22 6L22 5L23 5L23 3L24 3L24 2L23 2L23 0L22 0L22 1L21 1L21 0L20 0L20 1L19 1L19 0L18 0L18 3L16 3L16 5L15 5L15 6L14 6L14 3L15 3L15 2L13 2L13 1L16 1L16 2L17 2L17 0L13 0L13 1L12 1L12 0L10 0L10 2L9 2L9 0ZM25 0L25 1L26 1L26 2L25 2L25 5L26 5L26 7L27 7L27 8L29 8L29 6L28 6L28 5L29 5L29 0L27 0L27 1L26 1L26 0ZM19 2L19 4L17 4L17 5L16 5L16 6L15 6L15 7L14 7L14 6L13 6L13 9L18 9L18 6L19 6L19 8L21 8L21 7L22 7L22 6L21 6L21 5L22 5L22 2ZM27 2L27 3L28 3L28 2ZM20 3L20 4L21 4L21 3ZM19 5L19 6L20 6L20 7L21 7L21 6L20 6L20 5ZM16 6L16 7L15 7L15 8L17 8L17 6ZM27 6L27 7L28 7L28 6ZM30 8L30 9L29 9L29 11L31 11L31 10L30 10L30 9L31 9L31 8ZM4 9L4 10L2 10L2 11L4 11L4 10L5 10L5 9ZM6 9L6 10L7 10L7 11L5 11L5 12L2 12L2 13L4 13L4 16L5 16L5 15L6 15L6 16L7 16L7 15L8 15L8 14L10 14L10 15L11 15L11 17L12 17L12 18L10 18L10 19L9 19L9 18L8 18L8 19L6 19L6 18L7 18L7 17L5 17L5 19L6 19L6 20L5 20L5 21L6 21L6 22L7 22L7 23L6 23L6 24L5 24L5 23L4 23L4 24L5 24L5 25L6 25L6 26L8 26L8 27L6 27L6 28L8 28L8 27L9 27L9 26L15 26L15 27L13 27L13 29L12 29L12 27L10 27L10 28L9 28L9 29L12 29L12 30L13 30L13 29L14 29L14 31L13 31L13 32L11 32L11 30L10 30L10 33L11 33L11 36L12 36L12 34L13 34L13 35L16 35L16 34L14 34L14 33L16 33L16 32L15 32L15 31L16 31L16 29L14 29L14 28L15 28L15 27L16 27L16 28L17 28L17 27L18 27L18 26L15 26L15 25L11 25L11 24L12 24L12 23L14 23L14 24L15 24L15 23L14 23L14 21L17 21L17 19L19 19L19 20L20 20L20 21L19 21L19 22L18 22L18 23L17 23L17 22L16 22L16 23L17 23L17 25L19 25L19 26L20 26L20 25L21 25L21 26L22 26L22 25L21 25L21 24L20 24L20 25L19 25L19 23L22 23L22 22L23 22L23 21L21 21L21 20L20 20L20 19L22 19L22 18L20 18L20 19L19 19L19 17L18 17L18 16L17 16L17 15L19 15L19 16L20 16L20 17L22 17L22 16L20 16L20 15L22 15L22 14L20 14L20 13L22 13L22 12L20 12L20 13L18 13L18 12L19 12L19 11L22 11L22 10L19 10L19 11L18 11L18 12L17 12L17 11L16 11L16 10L14 10L14 11L15 11L15 12L14 12L14 13L16 13L16 12L17 12L17 14L15 14L15 15L16 15L16 16L15 16L15 18L14 18L14 17L12 17L12 16L14 16L14 14L13 14L13 12L12 12L12 14L10 14L10 13L11 13L11 12L8 12L8 10L7 10L7 9ZM34 9L34 10L35 10L35 11L34 11L34 12L35 12L35 13L36 13L36 12L35 12L35 11L36 11L36 9ZM11 10L11 11L13 11L13 10ZM6 12L6 13L8 13L8 12ZM27 12L27 13L26 13L26 14L27 14L27 17L26 17L26 18L27 18L27 19L28 19L28 20L29 20L29 19L28 19L28 18L29 18L29 16L31 16L31 17L32 17L32 23L30 23L30 22L28 22L28 21L27 21L27 23L28 23L28 24L29 24L29 26L31 26L31 25L30 25L30 24L33 24L33 19L34 19L34 22L35 22L35 19L36 19L36 17L35 17L35 15L34 15L34 17L33 17L33 16L31 16L31 14L30 14L30 15L29 15L29 16L28 16L28 14L27 14L27 13L28 13L28 12ZM32 12L32 14L33 14L33 12ZM6 14L6 15L7 15L7 14ZM12 14L12 15L13 15L13 14ZM8 16L8 17L10 17L10 16ZM13 18L13 19L14 19L14 20L16 20L16 19L17 19L17 18L15 18L15 19L14 19L14 18ZM8 19L8 20L6 20L6 21L7 21L7 22L8 22L8 23L7 23L7 24L6 24L6 25L7 25L7 24L8 24L8 26L9 26L9 25L10 25L10 24L11 24L11 23L12 23L12 22L13 22L13 20L12 20L12 22L11 22L11 21L10 21L10 22L11 22L11 23L10 23L10 24L9 24L9 22L8 22L8 21L9 21L9 19ZM30 19L30 20L31 20L31 19ZM34 23L34 25L32 25L32 26L33 26L33 27L32 27L32 28L33 28L33 29L34 29L34 27L35 27L35 26L34 26L34 25L35 25L35 23ZM27 27L27 28L28 28L28 27ZM29 27L29 28L30 28L30 27ZM19 28L19 29L20 29L20 28ZM29 29L29 32L32 32L32 29ZM30 30L30 31L31 31L31 30ZM35 32L35 34L36 34L36 35L35 35L35 37L37 37L37 36L36 36L36 35L37 35L37 33L36 33L36 32ZM19 33L19 34L20 34L20 33ZM25 33L25 34L26 34L26 33ZM23 35L23 36L24 36L24 35ZM0 0L0 7L7 7L7 0ZM1 1L1 6L6 6L6 1ZM2 2L2 5L5 5L5 2ZM30 0L30 7L37 7L37 0ZM31 1L31 6L36 6L36 1ZM32 2L32 5L35 5L35 2ZM0 30L0 37L7 37L7 30ZM1 31L1 36L6 36L6 31ZM2 32L2 35L5 35L5 32Z" fill="#000000"/></g></g></svg>
