<?xml version="1.0" encoding="UTF-8"?>
<svg xmlns="http://www.w3.org/2000/svg" version="1.1" width="300" height="300" viewBox="0 0 300 300"><rect x="0" y="0" width="300" height="300" fill="#ffffff"/><g transform="scale(6.122)"><g transform="translate(0,0)"><path fill-rule="evenodd" d="M8 0L8 1L11 1L11 2L10 2L10 3L9 3L9 4L8 4L8 7L9 7L9 12L8 12L8 11L7 11L7 10L6 10L6 9L8 9L8 8L1 8L1 10L0 10L0 11L1 11L1 10L3 10L3 11L4 11L4 12L5 12L5 13L4 13L4 14L5 14L5 13L9 13L9 14L6 14L6 15L5 15L5 17L4 17L4 16L3 16L3 17L4 17L4 19L3 19L3 18L1 18L1 15L0 15L0 18L1 18L1 19L0 19L0 20L1 20L1 21L0 21L0 26L1 26L1 24L2 24L2 28L1 28L1 29L2 29L2 30L1 30L1 31L3 31L3 30L5 30L5 29L7 29L7 30L6 30L6 31L5 31L5 32L3 32L3 33L2 33L2 32L0 32L0 35L1 35L1 37L0 37L0 38L1 38L1 40L0 40L0 41L3 41L3 40L4 40L4 39L2 39L2 38L3 38L3 36L4 36L4 35L5 35L5 37L4 37L4 38L5 38L5 39L7 39L7 38L10 38L10 37L9 37L9 36L10 36L10 35L8 35L8 31L10 31L10 33L9 33L9 34L10 34L10 33L11 33L11 34L12 34L12 36L13 36L13 38L12 38L12 37L11 37L11 39L10 39L10 40L9 40L9 39L8 39L8 40L6 40L6 41L8 41L8 48L9 48L9 49L10 49L10 48L11 48L11 49L12 49L12 48L13 48L13 46L14 46L14 48L15 48L15 49L18 49L18 46L19 46L19 47L21 47L21 48L20 48L20 49L21 49L21 48L22 48L22 46L23 46L23 45L27 45L27 44L29 44L29 45L28 45L28 46L27 46L27 49L28 49L28 48L29 48L29 49L30 49L30 47L28 47L28 46L31 46L31 47L32 47L32 48L31 48L31 49L32 49L32 48L33 48L33 49L34 49L34 47L37 47L37 48L35 48L35 49L38 49L38 48L40 48L40 49L41 49L41 46L40 46L40 45L42 45L42 46L43 46L43 47L42 47L42 48L43 48L43 47L44 47L44 48L45 48L45 49L49 49L49 45L48 45L48 44L46 44L46 46L45 46L45 43L46 43L46 42L45 42L45 40L46 40L46 41L48 41L48 40L46 40L46 37L47 37L47 36L48 36L48 37L49 37L49 34L47 34L47 36L46 36L46 34L45 34L45 35L44 35L44 33L49 33L49 32L45 32L45 31L44 31L44 33L43 33L43 34L42 34L42 33L41 33L41 32L42 32L42 31L43 31L43 29L45 29L45 28L44 28L44 27L45 27L45 25L48 25L48 24L45 24L45 23L46 23L46 22L47 22L47 23L49 23L49 22L47 22L47 20L48 20L48 21L49 21L49 18L47 18L47 17L48 17L48 16L46 16L46 15L45 15L45 14L46 14L46 13L48 13L48 12L46 12L46 11L44 11L44 10L43 10L43 9L45 9L45 8L43 8L43 9L42 9L42 10L41 10L41 12L39 12L39 10L38 10L38 9L41 9L41 8L37 8L37 6L38 6L38 7L39 7L39 5L38 5L38 3L35 3L35 2L37 2L37 1L38 1L38 2L39 2L39 4L40 4L40 3L41 3L41 0L40 0L40 1L38 1L38 0L35 0L35 1L31 1L31 0L27 0L27 1L28 1L28 2L27 2L27 3L25 3L25 4L24 4L24 2L23 2L23 1L24 1L24 0L22 0L22 1L20 1L20 2L19 2L19 0L16 0L16 1L15 1L15 0ZM12 1L12 2L11 2L11 3L10 3L10 4L9 4L9 5L11 5L11 3L12 3L12 4L15 4L15 3L14 3L14 2L15 2L15 1ZM16 1L16 3L17 3L17 5L16 5L16 6L15 6L15 7L16 7L16 6L17 6L17 7L18 7L18 6L19 6L19 8L17 8L17 9L15 9L15 10L19 10L19 9L20 9L20 10L21 10L21 11L18 11L18 12L19 12L19 13L18 13L18 14L21 14L21 15L20 15L20 16L19 16L19 15L17 15L17 16L16 16L16 17L17 17L17 18L18 18L18 19L20 19L20 20L17 20L17 19L16 19L16 18L15 18L15 15L16 15L16 14L15 14L15 13L16 13L16 12L17 12L17 11L15 11L15 13L14 13L14 9L13 9L13 8L14 8L14 5L12 5L12 6L11 6L11 8L10 8L10 9L11 9L11 10L10 10L10 11L11 11L11 12L13 12L13 13L10 13L10 12L9 12L9 13L10 13L10 14L9 14L9 15L8 15L8 16L7 16L7 15L6 15L6 16L7 16L7 17L6 17L6 18L7 18L7 17L8 17L8 18L10 18L10 19L9 19L9 20L10 20L10 21L8 21L8 20L7 20L7 19L6 19L6 20L5 20L5 19L4 19L4 21L3 21L3 19L1 19L1 20L2 20L2 21L1 21L1 23L2 23L2 24L3 24L3 25L4 25L4 24L3 24L3 22L5 22L5 21L6 21L6 22L10 22L10 23L13 23L13 25L9 25L9 27L10 27L10 26L11 26L11 27L12 27L12 28L10 28L10 29L9 29L9 28L7 28L7 27L4 27L4 26L3 26L3 27L4 27L4 28L7 28L7 29L9 29L9 30L11 30L11 31L12 31L12 29L14 29L14 30L13 30L13 31L14 31L14 32L11 32L11 33L13 33L13 34L14 34L14 35L13 35L13 36L14 36L14 37L15 37L15 39L14 39L14 38L13 38L13 40L12 40L12 41L10 41L10 42L9 42L9 44L10 44L10 42L12 42L12 43L11 43L11 45L10 45L10 47L11 47L11 48L12 48L12 46L13 46L13 45L12 45L12 43L13 43L13 44L14 44L14 45L18 45L18 44L17 44L17 43L18 43L18 42L19 42L19 45L20 45L20 41L21 41L21 40L23 40L23 39L27 39L27 38L30 38L30 39L29 39L29 40L27 40L27 41L29 41L29 42L27 42L27 43L29 43L29 42L30 42L30 41L29 41L29 40L30 40L30 39L31 39L31 41L34 41L34 42L31 42L31 43L33 43L33 44L32 44L32 47L33 47L33 46L35 46L35 44L37 44L37 43L35 43L35 42L38 42L38 43L40 43L40 41L39 41L39 40L41 40L41 39L42 39L42 40L44 40L44 39L45 39L45 37L46 37L46 36L45 36L45 37L44 37L44 35L42 35L42 34L39 34L39 33L38 33L38 34L37 34L37 32L40 32L40 31L41 31L41 30L42 30L42 29L41 29L41 30L40 30L40 29L38 29L38 28L41 28L41 27L40 27L40 24L39 24L39 23L40 23L40 22L41 22L41 21L42 21L42 17L41 17L41 16L43 16L43 14L41 14L41 13L42 13L42 12L41 12L41 13L40 13L40 14L41 14L41 16L39 16L39 17L40 17L40 18L37 18L37 17L38 17L38 16L37 16L37 15L38 15L38 14L39 14L39 12L38 12L38 10L37 10L37 11L36 11L36 10L35 10L35 9L36 9L36 8L35 8L35 7L36 7L36 6L37 6L37 4L33 4L33 3L34 3L34 2L33 2L33 3L32 3L32 2L31 2L31 1L29 1L29 2L28 2L28 3L29 3L29 2L30 2L30 4L32 4L32 5L30 5L30 6L29 6L29 7L28 7L28 6L27 6L27 8L29 8L29 9L28 9L28 11L26 11L26 12L23 12L23 13L24 13L24 14L23 14L23 15L22 15L22 14L21 14L21 13L20 13L20 12L21 12L21 11L22 11L22 10L24 10L24 9L22 9L22 8L20 8L20 5L21 5L21 7L22 7L22 4L23 4L23 2L21 2L21 3L22 3L22 4L19 4L19 5L18 5L18 3L19 3L19 2L17 2L17 1ZM25 1L25 2L26 2L26 1ZM12 2L12 3L13 3L13 2ZM17 5L17 6L18 6L18 5ZM23 5L23 8L26 8L26 5ZM33 5L33 6L32 6L32 7L31 7L31 6L30 6L30 7L31 7L31 8L30 8L30 10L29 10L29 11L30 11L30 10L32 10L32 9L31 9L31 8L32 8L32 7L33 7L33 9L35 9L35 8L34 8L34 7L35 7L35 5ZM9 6L9 7L10 7L10 6ZM12 6L12 7L13 7L13 6ZM24 6L24 7L25 7L25 6ZM33 6L33 7L34 7L34 6ZM40 6L40 7L41 7L41 6ZM48 8L48 9L46 9L46 10L48 10L48 11L49 11L49 10L48 10L48 9L49 9L49 8ZM3 9L3 10L4 10L4 11L5 11L5 10L4 10L4 9ZM26 9L26 10L27 10L27 9ZM11 10L11 11L12 11L12 10ZM33 10L33 11L31 11L31 12L26 12L26 13L25 13L25 17L23 17L23 16L24 16L24 15L23 15L23 16L22 16L22 17L23 17L23 18L25 18L25 19L24 19L24 20L23 20L23 19L22 19L22 18L21 18L21 16L20 16L20 18L21 18L21 19L22 19L22 20L23 20L23 21L25 21L25 22L22 22L22 24L21 24L21 21L18 21L18 22L16 22L16 21L14 21L14 22L15 22L15 23L14 23L14 25L13 25L13 26L12 26L12 27L16 27L16 29L17 29L17 32L16 32L16 35L15 35L15 36L16 36L16 35L17 35L17 37L16 37L16 38L17 38L17 37L18 37L18 39L15 39L15 40L17 40L17 41L18 41L18 40L19 40L19 41L20 41L20 40L21 40L21 39L20 39L20 38L21 38L21 37L20 37L20 35L22 35L22 34L23 34L23 31L25 31L25 32L24 32L24 33L25 33L25 32L26 32L26 31L27 31L27 32L28 32L28 33L27 33L27 34L26 34L26 35L25 35L25 36L24 36L24 35L23 35L23 36L22 36L22 39L23 39L23 37L25 37L25 38L26 38L26 37L25 37L25 36L26 36L26 35L27 35L27 34L28 34L28 36L27 36L27 37L28 37L28 36L29 36L29 35L30 35L30 36L33 36L33 37L35 37L35 36L36 36L36 39L35 39L35 38L33 38L33 39L32 39L32 40L34 40L34 39L35 39L35 40L36 40L36 41L38 41L38 40L36 40L36 39L41 39L41 38L42 38L42 39L44 39L44 37L42 37L42 36L41 36L41 35L40 35L40 36L39 36L39 38L37 38L37 36L38 36L38 35L39 35L39 34L38 34L38 35L37 35L37 36L36 36L36 34L33 34L33 32L31 32L31 31L32 31L32 28L33 28L33 29L34 29L34 28L33 28L33 25L32 25L32 24L33 24L33 23L34 23L34 25L36 25L36 26L34 26L34 27L35 27L35 30L33 30L33 31L35 31L35 30L36 30L36 32L35 32L35 33L36 33L36 32L37 32L37 30L38 30L38 31L40 31L40 30L38 30L38 29L37 29L37 28L36 28L36 26L37 26L37 24L38 24L38 23L39 23L39 22L40 22L40 21L41 21L41 20L40 20L40 19L37 19L37 18L36 18L36 17L37 17L37 16L35 16L35 15L37 15L37 14L38 14L38 12L36 12L36 13L35 13L35 14L34 14L34 13L33 13L33 14L34 14L34 16L33 16L33 15L32 15L32 14L31 14L31 12L33 12L33 11L34 11L34 12L35 12L35 10ZM42 10L42 11L43 11L43 12L44 12L44 13L46 13L46 12L44 12L44 11L43 11L43 10ZM6 11L6 12L7 12L7 11ZM1 12L1 13L0 13L0 14L3 14L3 13L2 13L2 12ZM13 13L13 14L14 14L14 13ZM26 13L26 17L25 17L25 18L27 18L27 17L28 17L28 20L27 20L27 21L29 21L29 19L30 19L30 20L31 20L31 22L30 22L30 23L31 23L31 24L32 24L32 23L33 23L33 22L35 22L35 21L36 21L36 20L37 20L37 19L35 19L35 18L34 18L34 17L33 17L33 16L31 16L31 14L27 14L27 13ZM10 14L10 16L11 16L11 14ZM47 14L47 15L49 15L49 14ZM12 15L12 16L13 16L13 17L14 17L14 16L13 16L13 15ZM28 15L28 17L29 17L29 18L30 18L30 19L32 19L32 20L34 20L34 18L32 18L32 17L31 17L31 18L30 18L30 17L29 17L29 16L30 16L30 15ZM17 16L17 17L18 17L18 16ZM44 16L44 17L46 17L46 16ZM10 17L10 18L11 18L11 19L10 19L10 20L12 20L12 17ZM13 18L13 19L15 19L15 20L16 20L16 19L15 19L15 18ZM46 18L46 19L45 19L45 20L44 20L44 21L43 21L43 22L46 22L46 20L47 20L47 18ZM6 20L6 21L7 21L7 20ZM25 20L25 21L26 21L26 20ZM39 20L39 21L37 21L37 23L35 23L35 24L37 24L37 23L38 23L38 22L39 22L39 21L40 21L40 20ZM11 21L11 22L12 22L12 21ZM32 21L32 22L31 22L31 23L32 23L32 22L33 22L33 21ZM18 22L18 23L15 23L15 24L16 24L16 27L18 27L18 26L20 26L20 25L19 25L19 24L20 24L20 22ZM28 22L28 23L27 23L27 24L28 24L28 25L27 25L27 26L28 26L28 27L27 27L27 28L28 28L28 30L27 30L27 31L28 31L28 32L29 32L29 34L30 34L30 35L31 35L31 34L32 34L32 33L31 33L31 34L30 34L30 31L31 31L31 30L29 30L29 28L30 28L30 29L31 29L31 28L32 28L32 27L31 27L31 26L29 26L29 25L30 25L30 24L29 24L29 22ZM5 23L5 26L8 26L8 23ZM23 23L23 26L26 26L26 23ZM41 23L41 26L44 26L44 23ZM6 24L6 25L7 25L7 24ZM24 24L24 25L25 25L25 24ZM42 24L42 25L43 25L43 24ZM14 25L14 26L15 26L15 25ZM17 25L17 26L18 26L18 25ZM21 25L21 26L22 26L22 25ZM38 26L38 27L39 27L39 26ZM46 26L46 27L48 27L48 29L49 29L49 26ZM20 27L20 28L19 28L19 29L18 29L18 30L19 30L19 29L20 29L20 30L21 30L21 31L19 31L19 34L18 34L18 32L17 32L17 35L20 35L20 32L22 32L22 31L23 31L23 30L21 30L21 29L24 29L24 30L25 30L25 28L24 28L24 27L22 27L22 28L21 28L21 27ZM28 27L28 28L29 28L29 27ZM30 27L30 28L31 28L31 27ZM42 27L42 28L43 28L43 27ZM46 28L46 31L47 31L47 28ZM14 30L14 31L15 31L15 30ZM48 30L48 31L49 31L49 30ZM6 31L6 32L7 32L7 31ZM14 32L14 34L15 34L15 32ZM6 33L6 34L5 34L5 35L6 35L6 36L7 36L7 35L6 35L6 34L7 34L7 33ZM21 33L21 34L22 34L22 33ZM3 34L3 35L4 35L4 34ZM33 35L33 36L35 36L35 35ZM40 36L40 37L41 37L41 36ZM1 37L1 38L2 38L2 37ZM6 37L6 38L7 38L7 37ZM19 37L19 38L20 38L20 37ZM30 37L30 38L32 38L32 37ZM47 38L47 39L49 39L49 38ZM19 39L19 40L20 40L20 39ZM8 40L8 41L9 41L9 40ZM13 40L13 41L12 41L12 42L13 42L13 43L14 43L14 42L15 42L15 43L16 43L16 41L14 41L14 40ZM13 41L13 42L14 42L14 41ZM23 41L23 44L26 44L26 41ZM41 41L41 44L44 44L44 41ZM21 42L21 45L22 45L22 42ZM24 42L24 43L25 43L25 42ZM42 42L42 43L43 43L43 42ZM47 42L47 43L49 43L49 42ZM34 43L34 44L33 44L33 45L34 45L34 44L35 44L35 43ZM11 45L11 46L12 46L12 45ZM38 45L38 46L37 46L37 47L38 47L38 46L39 46L39 47L40 47L40 46L39 46L39 45ZM43 45L43 46L44 46L44 47L45 47L45 48L48 48L48 47L47 47L47 46L46 46L46 47L45 47L45 46L44 46L44 45ZM15 46L15 48L16 48L16 46ZM24 46L24 47L23 47L23 48L24 48L24 49L25 49L25 48L26 48L26 47L25 47L25 46ZM24 47L24 48L25 48L25 47ZM0 0L0 7L7 7L7 0ZM1 1L1 6L6 6L6 1ZM2 2L2 5L5 5L5 2ZM42 0L42 7L49 7L49 0ZM43 1L43 6L48 6L48 1ZM44 2L44 5L47 5L47 2ZM0 42L0 49L7 49L7 42ZM1 43L1 48L6 48L6 43ZM2 44L2 47L5 47L5 44Z" fill="#000000"/></g></g></svg>
