<?xml version="1.0" encoding="UTF-8"?>
<svg xmlns="http://www.w3.org/2000/svg" version="1.1" width="300" height="300" viewBox="0 0 300 300"><rect x="0" y="0" width="300" height="300" fill="#ffffff"/><g transform="scale(8.108)"><g transform="translate(0,0)"><path fill-rule="evenodd" d="M8 0L8 1L9 1L9 4L8 4L8 7L9 7L9 5L10 5L10 7L11 7L11 8L10 8L10 9L8 9L8 8L1 8L1 10L0 10L0 11L1 11L1 13L0 13L0 16L1 16L1 21L0 21L0 29L1 29L1 24L2 24L2 25L3 25L3 24L4 24L4 25L5 25L5 24L6 24L6 25L7 25L7 24L9 24L9 22L8 22L8 21L9 21L9 19L11 19L11 20L10 20L10 26L11 26L11 27L10 27L10 28L6 28L6 27L8 27L8 26L9 26L9 25L8 25L8 26L5 26L5 27L4 27L4 26L2 26L2 27L3 27L3 28L4 28L4 29L8 29L8 36L9 36L9 37L10 37L10 35L11 35L11 37L12 37L12 35L13 35L13 34L14 34L14 33L16 33L16 35L14 35L14 36L13 36L13 37L14 37L14 36L15 36L15 37L16 37L16 36L17 36L17 37L19 37L19 36L18 36L18 34L19 34L19 33L18 33L18 31L15 31L15 30L16 30L16 29L15 29L15 28L16 28L16 27L17 27L17 30L18 30L18 28L19 28L19 30L21 30L21 29L23 29L23 30L22 30L22 31L23 31L23 30L26 30L26 32L25 32L25 31L24 31L24 33L25 33L25 34L23 34L23 35L22 35L22 33L23 33L23 32L20 32L20 33L21 33L21 34L20 34L20 35L21 35L21 36L20 36L20 37L22 37L22 36L23 36L23 37L25 37L25 36L26 36L26 37L27 37L27 36L29 36L29 35L30 35L30 34L31 34L31 36L30 36L30 37L31 37L31 36L32 36L32 34L34 34L34 35L33 35L33 36L34 36L34 37L37 37L37 34L36 34L36 36L34 36L34 35L35 35L35 34L34 34L34 33L36 33L36 32L37 32L37 30L36 30L36 29L37 29L37 28L35 28L35 27L37 27L37 26L35 26L35 25L36 25L36 24L33 24L33 25L34 25L34 26L33 26L33 27L34 27L34 28L29 28L29 27L32 27L32 26L31 26L31 25L32 25L32 24L31 24L31 23L34 23L34 22L30 22L30 21L36 21L36 22L35 22L35 23L36 23L36 22L37 22L37 18L35 18L35 17L37 17L37 14L36 14L36 13L37 13L37 10L36 10L36 9L37 9L37 8L36 8L36 9L35 9L35 10L36 10L36 11L35 11L35 12L36 12L36 13L35 13L35 14L36 14L36 16L34 16L34 14L33 14L33 16L32 16L32 17L33 17L33 19L32 19L32 20L30 20L30 21L29 21L29 18L30 18L30 19L31 19L31 18L30 18L30 17L31 17L31 15L32 15L32 13L33 13L33 12L34 12L34 11L33 11L33 10L34 10L34 9L33 9L33 8L31 8L31 9L30 9L30 12L29 12L29 13L31 13L31 15L30 15L30 14L29 14L29 15L28 15L28 11L29 11L29 10L28 10L28 9L29 9L29 6L28 6L28 5L26 5L26 4L29 4L29 1L27 1L27 0L25 0L25 1L23 1L23 4L20 4L20 3L22 3L22 1L20 1L20 3L19 3L19 0L13 0L13 2L11 2L11 1L12 1L12 0L11 0L11 1L9 1L9 0ZM14 1L14 2L13 2L13 3L12 3L12 4L15 4L15 5L13 5L13 7L14 7L14 8L13 8L13 10L11 10L11 9L10 9L10 10L9 10L9 11L4 11L4 14L5 14L5 15L1 15L1 16L4 16L4 17L2 17L2 21L1 21L1 23L2 23L2 24L3 24L3 23L2 23L2 22L4 22L4 24L5 24L5 23L6 23L6 24L7 24L7 23L6 23L6 22L7 22L7 21L6 21L6 20L7 20L7 19L6 19L6 20L5 20L5 22L4 22L4 21L3 21L3 18L5 18L5 16L9 16L9 15L10 15L10 13L11 13L11 12L9 12L9 11L13 11L13 12L12 12L12 13L13 13L13 14L11 14L11 16L10 16L10 17L11 17L11 19L13 19L13 21L14 21L14 22L13 22L13 24L14 24L14 25L13 25L13 26L14 26L14 27L12 27L12 28L13 28L13 30L12 30L12 31L13 31L13 30L15 30L15 29L14 29L14 27L15 27L15 25L17 25L17 27L19 27L19 26L20 26L20 27L21 27L21 28L20 28L20 29L21 29L21 28L23 28L23 29L25 29L25 28L26 28L26 26L25 26L25 25L27 25L27 24L26 24L26 23L27 23L27 22L29 22L29 23L28 23L28 25L30 25L30 24L29 24L29 23L30 23L30 22L29 22L29 21L27 21L27 20L26 20L26 19L27 19L27 18L28 18L28 17L30 17L30 16L28 16L28 17L27 17L27 16L26 16L26 15L27 15L27 9L26 9L26 8L28 8L28 6L27 6L27 7L26 7L26 6L25 6L25 7L24 7L24 6L23 6L23 7L22 7L22 5L21 5L21 7L22 7L22 8L21 8L21 9L20 9L20 5L19 5L19 9L18 9L18 8L17 8L17 9L18 9L18 10L16 10L16 11L14 11L14 8L15 8L15 9L16 9L16 8L15 8L15 7L16 7L16 6L17 6L17 7L18 7L18 6L17 6L17 5L18 5L18 4L19 4L19 3L18 3L18 2L17 2L17 1ZM10 2L10 5L11 5L11 7L12 7L12 5L11 5L11 2ZM14 2L14 3L15 3L15 4L16 4L16 3L17 3L17 4L18 4L18 3L17 3L17 2ZM24 2L24 3L25 3L25 4L23 4L23 5L25 5L25 4L26 4L26 3L27 3L27 2L26 2L26 3L25 3L25 2ZM14 6L14 7L15 7L15 6ZM23 7L23 8L22 8L22 9L21 9L21 10L20 10L20 9L19 9L19 10L18 10L18 11L17 11L17 12L14 12L14 13L16 13L16 14L15 14L15 15L13 15L13 16L12 16L12 18L13 18L13 19L14 19L14 18L15 18L15 20L14 20L14 21L15 21L15 23L16 23L16 24L17 24L17 25L18 25L18 26L19 26L19 24L22 24L22 23L21 23L21 22L22 22L22 21L21 21L21 22L20 22L20 20L22 20L22 19L23 19L23 17L22 17L22 16L25 16L25 17L24 17L24 18L25 18L25 17L26 17L26 16L25 16L25 15L22 15L22 14L26 14L26 12L25 12L25 9L24 9L24 7ZM25 7L25 8L26 8L26 7ZM4 9L4 10L8 10L8 9ZM22 9L22 11L24 11L24 10L23 10L23 9ZM31 10L31 11L32 11L32 10ZM18 11L18 14L16 14L16 17L15 17L15 16L13 16L13 17L15 17L15 18L16 18L16 20L15 20L15 21L16 21L16 23L17 23L17 24L18 24L18 21L19 21L19 18L20 18L20 16L21 16L21 15L20 15L20 14L19 14L19 13L20 13L20 12L21 12L21 11ZM6 12L6 13L5 13L5 14L6 14L6 15L7 15L7 14L8 14L8 15L9 15L9 13L7 13L7 12ZM22 12L22 13L25 13L25 12ZM31 12L31 13L32 13L32 12ZM1 13L1 14L3 14L3 13ZM6 13L6 14L7 14L7 13ZM18 16L18 17L17 17L17 20L18 20L18 18L19 18L19 16ZM33 16L33 17L34 17L34 16ZM6 17L6 18L8 18L8 17ZM21 18L21 19L22 19L22 18ZM34 18L34 19L33 19L33 20L36 20L36 19L35 19L35 18ZM24 19L24 20L25 20L25 19ZM11 20L11 22L12 22L12 20ZM24 21L24 22L25 22L25 21ZM26 21L26 22L27 22L27 21ZM24 23L24 25L22 25L22 27L23 27L23 28L24 28L24 27L23 27L23 26L24 26L24 25L25 25L25 23ZM11 25L11 26L12 26L12 25ZM27 26L27 29L26 29L26 30L27 30L27 32L26 32L26 33L27 33L27 34L30 34L30 33L27 33L27 32L28 32L28 30L27 30L27 29L28 29L28 27L29 27L29 26ZM10 28L10 30L9 30L9 31L10 31L10 32L9 32L9 33L10 33L10 32L11 32L11 33L14 33L14 32L11 32L11 31L10 31L10 30L11 30L11 28ZM34 28L34 31L33 31L33 32L35 32L35 31L36 31L36 30L35 30L35 28ZM29 29L29 32L32 32L32 29ZM30 30L30 31L31 31L31 30ZM16 32L16 33L17 33L17 34L18 34L18 33L17 33L17 32ZM31 33L31 34L32 34L32 33ZM11 34L11 35L12 35L12 34ZM24 35L24 36L25 36L25 35ZM26 35L26 36L27 36L27 35ZM0 0L0 7L7 7L7 0ZM1 1L1 6L6 6L6 1ZM2 2L2 5L5 5L5 2ZM30 0L30 7L37 7L37 0ZM31 1L31 6L36 6L36 1ZM32 2L32 5L35 5L35 2ZM0 30L0 37L7 37L7 30ZM1 31L1 36L6 36L6 31ZM2 32L2 35L5 35L5 32Z" fill="#000000"/></g></g></svg>
