<?xml version="1.0" encoding="UTF-8"?>
<svg xmlns="http://www.w3.org/2000/svg" version="1.1" width="300" height="300" viewBox="0 0 300 300"><rect x="0" y="0" width="300" height="300" fill="#ffffff"/><g transform="scale(6.122)"><g transform="translate(0,0)"><path fill-rule="evenodd" d="M8 0L8 1L9 1L9 2L10 2L10 3L11 3L11 4L10 4L10 5L11 5L11 6L10 6L10 7L9 7L9 4L8 4L8 7L9 7L9 9L12 9L12 10L11 10L11 12L13 12L13 11L16 11L16 10L17 10L17 13L16 13L16 12L15 12L15 13L16 13L16 14L15 14L15 16L11 16L11 15L10 15L10 14L6 14L6 13L9 13L9 12L10 12L10 11L9 11L9 10L8 10L8 8L1 8L1 9L2 9L2 10L1 10L1 11L0 11L0 12L1 12L1 13L0 13L0 16L3 16L3 17L4 17L4 16L5 16L5 15L4 15L4 16L3 16L3 14L6 14L6 15L7 15L7 16L6 16L6 17L7 17L7 18L4 18L4 19L3 19L3 18L1 18L1 19L0 19L0 20L1 20L1 21L0 21L0 29L1 29L1 28L2 28L2 27L1 27L1 24L2 24L2 25L3 25L3 26L4 26L4 27L5 27L5 28L3 28L3 29L4 29L4 30L3 30L3 32L4 32L4 34L3 34L3 35L2 35L2 34L1 34L1 36L0 36L0 37L1 37L1 40L0 40L0 41L3 41L3 40L4 40L4 39L2 39L2 38L4 38L4 37L2 37L2 36L4 36L4 35L5 35L5 36L6 36L6 37L5 37L5 39L8 39L8 38L6 38L6 37L7 37L7 36L8 36L8 37L10 37L10 38L14 38L14 39L13 39L13 40L12 40L12 41L13 41L13 43L14 43L14 41L15 41L15 45L14 45L14 44L11 44L11 42L10 42L10 40L11 40L11 39L9 39L9 41L8 41L8 40L6 40L6 41L8 41L8 48L9 48L9 49L10 49L10 48L11 48L11 49L12 49L12 48L13 48L13 47L12 47L12 46L11 46L11 47L10 47L10 45L13 45L13 46L14 46L14 48L15 48L15 49L18 49L18 46L19 46L19 48L20 48L20 49L21 49L21 48L22 48L22 46L23 46L23 45L27 45L27 44L29 44L29 45L28 45L28 46L27 46L27 49L28 49L28 48L29 48L29 49L30 49L30 47L28 47L28 46L31 46L31 47L32 47L32 48L31 48L31 49L32 49L32 48L33 48L33 49L34 49L34 47L37 47L37 48L35 48L35 49L38 49L38 48L39 48L39 49L40 49L40 48L39 48L39 47L40 47L40 46L38 46L38 45L42 45L42 46L41 46L41 47L42 47L42 48L41 48L41 49L42 49L42 48L43 48L43 47L44 47L44 48L45 48L45 49L49 49L49 45L48 45L48 44L46 44L46 46L45 46L45 43L46 43L46 42L45 42L45 41L46 41L46 40L47 40L47 41L48 41L48 40L47 40L47 39L49 39L49 38L47 38L47 36L48 36L48 37L49 37L49 34L46 34L46 33L49 33L49 30L48 30L48 29L49 29L49 26L48 26L48 25L47 25L47 24L48 24L48 23L49 23L49 22L47 22L47 20L48 20L48 21L49 21L49 18L47 18L47 17L48 17L48 16L47 16L47 17L46 17L46 15L45 15L45 14L46 14L46 13L48 13L48 12L46 12L46 10L45 10L45 8L43 8L43 9L41 9L41 8L39 8L39 9L41 9L41 10L43 10L43 9L44 9L44 10L45 10L45 11L44 11L44 12L42 12L42 13L41 13L41 12L39 12L39 14L38 14L38 15L39 15L39 17L40 17L40 18L39 18L39 19L38 19L38 18L35 18L35 19L37 19L37 20L36 20L36 21L35 21L35 22L33 22L33 21L32 21L32 22L31 22L31 20L30 20L30 19L32 19L32 20L34 20L34 19L32 19L32 18L31 18L31 16L34 16L34 15L37 15L37 14L36 14L36 13L38 13L38 12L36 12L36 10L33 10L33 8L31 8L31 6L30 6L30 5L32 5L32 4L30 4L30 2L29 2L29 1L31 1L31 2L32 2L32 3L33 3L33 4L37 4L37 6L36 6L36 8L35 8L35 5L33 5L33 6L32 6L32 7L33 7L33 6L34 6L34 8L35 8L35 9L36 9L36 8L38 8L38 7L39 7L39 5L38 5L38 3L35 3L35 2L37 2L37 1L38 1L38 2L39 2L39 4L40 4L40 3L41 3L41 0L40 0L40 1L38 1L38 0L35 0L35 1L31 1L31 0L26 0L26 1L25 1L25 0L24 0L24 1L23 1L23 0L21 0L21 1L20 1L20 2L17 2L17 3L16 3L16 1L19 1L19 0L16 0L16 1L15 1L15 0ZM12 1L12 2L11 2L11 3L12 3L12 4L14 4L14 6L13 6L13 5L12 5L12 6L11 6L11 8L13 8L13 10L14 10L14 9L15 9L15 10L16 10L16 9L15 9L15 8L13 8L13 7L14 7L14 6L15 6L15 7L16 7L16 6L17 6L17 9L18 9L18 10L19 10L19 11L18 11L18 13L19 13L19 17L21 17L21 18L22 18L22 19L21 19L21 21L22 21L22 22L23 22L23 21L24 21L24 22L27 22L27 23L28 23L28 24L27 24L27 25L28 25L28 24L29 24L29 25L30 25L30 24L29 24L29 21L28 21L28 20L29 20L29 18L30 18L30 17L28 17L28 15L29 15L29 16L30 16L30 15L31 15L31 14L32 14L32 15L34 15L34 14L35 14L35 13L36 13L36 12L35 12L35 11L33 11L33 12L30 12L30 11L31 11L31 10L32 10L32 9L31 9L31 10L30 10L30 8L29 8L29 7L30 7L30 6L29 6L29 5L27 5L27 9L25 9L25 10L24 10L24 11L25 11L25 10L26 10L26 12L23 12L23 10L21 10L21 8L20 8L20 5L21 5L21 7L22 7L22 5L21 5L21 4L23 4L23 3L24 3L24 2L23 2L23 1L22 1L22 3L21 3L21 4L19 4L19 3L17 3L17 4L19 4L19 5L18 5L18 6L17 6L17 5L16 5L16 6L15 6L15 1L14 1L14 3L12 3L12 2L13 2L13 1ZM25 2L25 3L27 3L27 4L28 4L28 3L29 3L29 2L28 2L28 3L27 3L27 2ZM33 2L33 3L34 3L34 2ZM23 5L23 8L26 8L26 5ZM12 6L12 7L13 7L13 6ZM18 6L18 8L19 8L19 10L20 10L20 11L21 11L21 13L20 13L20 14L22 14L22 15L23 15L23 16L22 16L22 17L23 17L23 18L25 18L25 21L27 21L27 20L26 20L26 19L28 19L28 17L27 17L27 18L25 18L25 17L26 17L26 13L27 13L27 14L29 14L29 15L30 15L30 14L31 14L31 13L30 13L30 12L26 12L26 13L25 13L25 17L23 17L23 16L24 16L24 15L23 15L23 14L24 14L24 13L23 13L23 12L22 12L22 11L21 11L21 10L20 10L20 8L19 8L19 6ZM24 6L24 7L25 7L25 6ZM28 6L28 7L29 7L29 6ZM37 6L37 7L38 7L38 6ZM40 6L40 7L41 7L41 6ZM28 8L28 9L27 9L27 10L28 10L28 11L29 11L29 10L28 10L28 9L29 9L29 8ZM48 8L48 9L49 9L49 8ZM3 9L3 11L1 11L1 12L2 12L2 13L1 13L1 15L2 15L2 13L5 13L5 12L7 12L7 11L8 11L8 12L9 12L9 11L8 11L8 10L7 10L7 9L5 9L5 10L4 10L4 9ZM37 9L37 10L38 10L38 11L39 11L39 10L38 10L38 9ZM5 10L5 11L3 11L3 12L5 12L5 11L7 11L7 10ZM48 10L48 11L49 11L49 10ZM33 12L33 13L32 13L32 14L34 14L34 13L35 13L35 12ZM44 12L44 13L46 13L46 12ZM11 13L11 14L13 14L13 15L14 15L14 14L13 14L13 13ZM29 13L29 14L30 14L30 13ZM40 13L40 14L41 14L41 15L42 15L42 16L40 16L40 17L42 17L42 18L41 18L41 21L40 21L40 19L39 19L39 21L37 21L37 23L35 23L35 24L37 24L37 26L36 26L36 25L34 25L34 23L33 23L33 22L32 22L32 23L31 23L31 22L30 22L30 23L31 23L31 24L32 24L32 25L33 25L33 28L32 28L32 27L31 27L31 26L29 26L29 28L27 28L27 27L28 27L28 26L27 26L27 27L24 27L24 29L23 29L23 31L22 31L22 33L21 33L21 34L20 34L20 35L19 35L19 33L20 33L20 32L21 32L21 31L19 31L19 32L18 32L18 29L16 29L16 27L18 27L18 28L19 28L19 29L20 29L20 30L21 30L21 29L22 29L22 27L20 27L20 28L19 28L19 27L18 27L18 26L20 26L20 25L19 25L19 22L20 22L20 20L15 20L15 19L13 19L13 18L15 18L15 17L16 17L16 16L15 16L15 17L12 17L12 20L10 20L10 19L11 19L11 17L9 17L9 15L8 15L8 16L7 16L7 17L8 17L8 18L10 18L10 19L9 19L9 20L10 20L10 21L9 21L9 22L10 22L10 23L11 23L11 22L12 22L12 24L13 24L13 25L9 25L9 27L10 27L10 28L9 28L9 29L8 29L8 30L7 30L7 29L5 29L5 30L4 30L4 32L5 32L5 31L6 31L6 32L7 32L7 33L6 33L6 34L5 34L5 35L6 35L6 36L7 36L7 35L6 35L6 34L7 34L7 33L9 33L9 32L8 32L8 31L9 31L9 29L10 29L10 31L12 31L12 29L13 29L13 28L14 28L14 27L15 27L15 30L13 30L13 31L15 31L15 32L11 32L11 33L10 33L10 34L8 34L8 35L9 35L9 36L10 36L10 37L11 37L11 36L10 36L10 34L13 34L13 33L16 33L16 34L17 34L17 33L18 33L18 35L19 35L19 36L18 36L18 37L16 37L16 36L17 36L17 35L15 35L15 34L14 34L14 35L13 35L13 37L14 37L14 35L15 35L15 37L16 37L16 38L15 38L15 39L17 39L17 38L18 38L18 41L19 41L19 46L20 46L20 48L21 48L21 46L20 46L20 45L22 45L22 42L21 42L21 43L20 43L20 41L21 41L21 40L22 40L22 39L23 39L23 38L24 38L24 37L25 37L25 38L26 38L26 37L25 37L25 36L26 36L26 35L27 35L27 36L28 36L28 37L29 37L29 38L28 38L28 39L27 39L27 40L28 40L28 42L27 42L27 43L30 43L30 42L31 42L31 43L33 43L33 44L32 44L32 47L33 47L33 46L35 46L35 44L37 44L37 43L40 43L40 41L39 41L39 42L37 42L37 43L36 43L36 40L37 40L37 41L38 41L38 40L37 40L37 39L36 39L36 38L35 38L35 37L36 37L36 36L37 36L37 35L36 35L36 34L35 34L35 33L36 33L36 32L35 32L35 31L36 31L36 30L35 30L35 27L34 27L34 26L36 26L36 28L37 28L37 29L38 29L38 30L37 30L37 31L38 31L38 32L37 32L37 34L39 34L39 36L38 36L38 37L37 37L37 38L39 38L39 36L40 36L40 37L41 37L41 36L43 36L43 35L42 35L42 34L44 34L44 35L46 35L46 36L47 36L47 35L46 35L46 34L45 34L45 33L46 33L46 32L47 32L47 31L48 31L48 30L47 30L47 31L46 31L46 28L48 28L48 26L47 26L47 25L45 25L45 27L44 27L44 29L43 29L43 30L44 30L44 31L42 31L42 32L41 32L41 33L42 33L42 34L39 34L39 33L38 33L38 32L40 32L40 31L41 31L41 30L42 30L42 29L38 29L38 28L40 28L40 27L38 27L38 26L39 26L39 25L40 25L40 24L39 24L39 23L38 23L38 22L39 22L39 21L40 21L40 22L41 22L41 21L42 21L42 18L43 18L43 14L41 14L41 13ZM16 14L16 15L17 15L17 18L18 18L18 19L20 19L20 18L18 18L18 15L17 15L17 14ZM47 14L47 15L49 15L49 14ZM20 15L20 16L21 16L21 15ZM36 16L36 17L38 17L38 16ZM44 16L44 17L45 17L45 16ZM33 17L33 18L34 18L34 17ZM46 18L46 19L45 19L45 20L44 20L44 21L43 21L43 22L46 22L46 23L45 23L45 24L47 24L47 22L46 22L46 20L47 20L47 18ZM1 19L1 20L2 20L2 21L1 21L1 23L2 23L2 24L3 24L3 25L4 25L4 24L3 24L3 22L7 22L7 21L6 21L6 20L7 20L7 19L4 19L4 21L3 21L3 19ZM22 19L22 20L24 20L24 19ZM12 20L12 22L13 22L13 20ZM14 21L14 22L15 22L15 23L14 23L14 25L13 25L13 26L12 26L12 27L11 27L11 26L10 26L10 27L11 27L11 28L12 28L12 27L14 27L14 25L15 25L15 27L16 27L16 24L17 24L17 23L18 23L18 22L19 22L19 21L18 21L18 22L17 22L17 21ZM5 23L5 26L8 26L8 23ZM20 23L20 24L22 24L22 23ZM23 23L23 26L26 26L26 23ZM32 23L32 24L33 24L33 23ZM37 23L37 24L38 24L38 23ZM41 23L41 26L44 26L44 23ZM6 24L6 25L7 25L7 24ZM24 24L24 25L25 25L25 24ZM42 24L42 25L43 25L43 24ZM17 25L17 26L18 26L18 25ZM21 25L21 26L22 26L22 25ZM46 26L46 27L47 27L47 26ZM6 27L6 28L8 28L8 27ZM30 27L30 28L29 28L29 29L28 29L28 30L31 30L31 32L30 32L30 31L29 31L29 33L30 33L30 34L29 34L29 35L28 35L28 34L27 34L27 33L28 33L28 32L27 32L27 33L26 33L26 34L25 34L25 35L24 35L24 36L25 36L25 35L26 35L26 34L27 34L27 35L28 35L28 36L30 36L30 38L29 38L29 39L28 39L28 40L30 40L30 38L31 38L31 37L32 37L32 38L34 38L34 40L33 40L33 39L32 39L32 40L31 40L31 41L32 41L32 42L33 42L33 43L34 43L34 44L33 44L33 45L34 45L34 44L35 44L35 43L34 43L34 42L35 42L35 40L36 40L36 39L35 39L35 38L34 38L34 37L32 37L32 36L34 36L34 35L35 35L35 36L36 36L36 35L35 35L35 34L34 34L34 32L33 32L33 34L34 34L34 35L32 35L32 36L31 36L31 35L30 35L30 34L32 34L32 33L31 33L31 32L32 32L32 28L31 28L31 27ZM42 27L42 28L43 28L43 27ZM26 28L26 29L25 29L25 31L24 31L24 33L22 33L22 34L21 34L21 35L20 35L20 36L21 36L21 37L22 37L22 34L24 34L24 33L25 33L25 32L26 32L26 30L27 30L27 28ZM30 28L30 29L31 29L31 28ZM33 28L33 29L34 29L34 28ZM6 30L6 31L7 31L7 30ZM33 30L33 31L35 31L35 30ZM38 30L38 31L40 31L40 30ZM0 31L0 33L1 33L1 31ZM45 31L45 32L43 32L43 33L45 33L45 32L46 32L46 31ZM16 32L16 33L17 33L17 32ZM40 35L40 36L41 36L41 35ZM19 37L19 38L20 38L20 37ZM43 37L43 39L42 39L42 38L41 38L41 39L39 39L39 40L41 40L41 39L42 39L42 40L46 40L46 39L44 39L44 38L46 38L46 37ZM19 39L19 40L21 40L21 39ZM15 40L15 41L16 41L16 42L17 42L17 43L18 43L18 42L17 42L17 41L16 41L16 40ZM32 40L32 41L33 41L33 42L34 42L34 41L33 41L33 40ZM23 41L23 44L26 44L26 41ZM29 41L29 42L30 42L30 41ZM41 41L41 44L44 44L44 41ZM9 42L9 44L10 44L10 42ZM24 42L24 43L25 43L25 42ZM42 42L42 43L43 43L43 42ZM47 42L47 43L49 43L49 42ZM16 44L16 45L18 45L18 44ZM43 45L43 46L44 46L44 47L45 47L45 48L48 48L48 47L47 47L47 46L46 46L46 47L45 47L45 46L44 46L44 45ZM15 46L15 48L16 48L16 46ZM24 46L24 47L23 47L23 48L24 48L24 49L25 49L25 48L26 48L26 47L25 47L25 46ZM37 46L37 47L38 47L38 46ZM11 47L11 48L12 48L12 47ZM24 47L24 48L25 48L25 47ZM0 0L0 7L7 7L7 0ZM1 1L1 6L6 6L6 1ZM2 2L2 5L5 5L5 2ZM42 0L42 7L49 7L49 0ZM43 1L43 6L48 6L48 1ZM44 2L44 5L47 5L47 2ZM0 42L0 49L7 49L7 42ZM1 43L1 48L6 48L6 43ZM2 44L2 47L5 47L5 44Z" fill="#000000"/></g></g></svg>
