<?xml version="1.0" encoding="UTF-8"?>
<svg xmlns="http://www.w3.org/2000/svg" version="1.1" width="300" height="300" viewBox="0 0 300 300"><rect x="0" y="0" width="300" height="300" fill="#ffffff"/><g transform="scale(8.108)"><g transform="translate(0,0)"><path fill-rule="evenodd" d="M11 0L11 1L12 1L12 0ZM15 0L15 1L13 1L13 3L14 3L14 2L15 2L15 3L17 3L17 4L16 4L16 5L15 5L15 4L14 4L14 5L13 5L13 4L10 4L10 1L9 1L9 2L8 2L8 3L9 3L9 4L8 4L8 7L9 7L9 8L8 8L8 9L9 9L9 10L10 10L10 11L9 11L9 12L8 12L8 11L7 11L7 10L5 10L5 8L4 8L4 10L2 10L2 12L3 12L3 13L5 13L5 15L4 15L4 16L5 16L5 17L3 17L3 18L4 18L4 19L2 19L2 17L1 17L1 16L0 16L0 18L1 18L1 20L0 20L0 22L2 22L2 23L1 23L1 24L0 24L0 26L2 26L2 27L3 27L3 28L0 28L0 29L3 29L3 28L5 28L5 29L7 29L7 28L8 28L8 30L9 30L9 28L10 28L10 29L11 29L11 31L9 31L9 32L8 32L8 33L9 33L9 35L8 35L8 36L9 36L9 35L10 35L10 34L11 34L11 35L12 35L12 36L11 36L11 37L12 37L12 36L13 36L13 35L14 35L14 37L15 37L15 35L16 35L16 37L18 37L18 36L19 36L19 37L20 37L20 36L19 36L19 35L18 35L18 34L20 34L20 35L21 35L21 36L22 36L22 35L23 35L23 34L21 34L21 33L18 33L18 32L19 32L19 30L18 30L18 29L17 29L17 28L18 28L18 27L16 27L16 26L18 26L18 25L16 25L16 26L15 26L15 24L14 24L14 26L12 26L12 25L13 25L13 21L14 21L14 22L15 22L15 23L16 23L16 24L17 24L17 23L20 23L20 24L19 24L19 25L20 25L20 27L21 27L21 26L22 26L22 25L23 25L23 27L22 27L22 29L21 29L21 30L20 30L20 31L21 31L21 30L22 30L22 29L23 29L23 31L22 31L22 33L23 33L23 31L24 31L24 33L25 33L25 31L24 31L24 30L25 30L25 29L24 29L24 27L25 27L25 25L27 25L27 24L29 24L29 23L30 23L30 22L29 22L29 21L31 21L31 23L32 23L32 22L34 22L34 25L33 25L33 24L32 24L32 25L31 25L31 24L30 24L30 25L28 25L28 27L30 27L30 26L31 26L31 27L32 27L32 26L33 26L33 27L34 27L34 26L35 26L35 27L36 27L36 29L35 29L35 31L34 31L34 30L33 30L33 28L27 28L27 26L26 26L26 28L27 28L27 29L26 29L26 33L27 33L27 34L25 34L25 35L24 35L24 36L23 36L23 37L26 37L26 35L29 35L29 36L30 36L30 35L32 35L32 36L31 36L31 37L37 37L37 36L36 36L36 34L34 34L34 35L32 35L32 33L36 33L36 32L35 32L35 31L36 31L36 29L37 29L37 27L36 27L36 24L37 24L37 20L36 20L36 19L34 19L34 17L37 17L37 16L36 16L36 15L35 15L35 14L34 14L34 15L33 15L33 17L32 17L32 16L29 16L29 17L27 17L27 16L28 16L28 14L27 14L27 12L30 12L30 13L29 13L29 14L30 14L30 15L32 15L32 14L33 14L33 13L34 13L34 12L35 12L35 13L37 13L37 12L35 12L35 10L34 10L34 11L33 11L33 10L32 10L32 11L31 11L31 9L33 9L33 8L31 8L31 9L30 9L30 8L28 8L28 9L30 9L30 10L29 10L29 11L28 11L28 10L27 10L27 9L26 9L26 7L27 7L27 6L26 6L26 7L25 7L25 5L23 5L23 2L24 2L24 3L26 3L26 5L29 5L29 3L28 3L28 2L29 2L29 1L28 1L28 0L27 0L27 1L28 1L28 2L27 2L27 3L26 3L26 2L25 2L25 1L22 1L22 2L20 2L20 1L21 1L21 0L18 0L18 2L16 2L16 0ZM18 2L18 3L20 3L20 5L19 5L19 4L18 4L18 5L16 5L16 6L15 6L15 7L14 7L14 6L13 6L13 5L12 5L12 6L11 6L11 7L10 7L10 5L9 5L9 7L10 7L10 8L11 8L11 9L10 9L10 10L11 10L11 11L10 11L10 12L9 12L9 13L8 13L8 12L7 12L7 11L6 11L6 12L7 12L7 13L6 13L6 14L9 14L9 15L10 15L10 16L7 16L7 15L6 15L6 16L7 16L7 17L6 17L6 18L5 18L5 19L4 19L4 20L3 20L3 21L4 21L4 24L5 24L5 25L4 25L4 26L5 26L5 25L6 25L6 26L7 26L7 25L8 25L8 24L9 24L9 25L11 25L11 24L12 24L12 23L10 23L10 21L13 21L13 19L11 19L11 18L12 18L12 15L11 15L11 14L13 14L13 15L15 15L15 17L14 17L14 16L13 16L13 17L14 17L14 19L16 19L16 20L18 20L18 21L16 21L16 22L20 22L20 23L23 23L23 22L24 22L24 21L25 21L25 20L26 20L26 19L27 19L27 18L25 18L25 19L24 19L24 20L22 20L22 21L21 21L21 20L19 20L19 19L18 19L18 16L17 16L17 13L18 13L18 14L19 14L19 17L20 17L20 18L22 18L22 19L23 19L23 18L24 18L24 17L26 17L26 15L25 15L25 16L24 16L24 15L22 15L22 16L20 16L20 15L21 15L21 14L22 14L22 13L24 13L24 14L25 14L25 13L26 13L26 12L27 12L27 11L25 11L25 10L24 10L24 11L22 11L22 12L21 12L21 14L20 14L20 13L18 13L18 12L20 12L20 11L21 11L21 10L23 10L23 9L19 9L19 10L17 10L17 11L18 11L18 12L17 12L17 13L16 13L16 11L15 11L15 10L16 10L16 9L15 9L15 7L16 7L16 8L17 8L17 9L18 9L18 8L21 8L21 7L22 7L22 8L24 8L24 9L25 9L25 8L24 8L24 6L23 6L23 5L21 5L21 4L22 4L22 3L20 3L20 2ZM12 6L12 9L13 9L13 10L12 10L12 11L13 11L13 14L14 14L14 12L15 12L15 11L13 11L13 10L14 10L14 7L13 7L13 6ZM16 6L16 7L17 7L17 8L18 8L18 7L19 7L19 6L18 6L18 7L17 7L17 6ZM20 6L20 7L21 7L21 6ZM22 6L22 7L23 7L23 6ZM28 6L28 7L29 7L29 6ZM1 8L1 9L2 9L2 8ZM6 8L6 9L7 9L7 8ZM34 8L34 9L35 9L35 8ZM4 10L4 11L5 11L5 10ZM19 10L19 11L20 11L20 10ZM0 11L0 12L1 12L1 11ZM30 11L30 12L31 12L31 11ZM11 12L11 13L12 13L12 12ZM24 12L24 13L25 13L25 12ZM32 12L32 13L30 13L30 14L32 14L32 13L33 13L33 12ZM1 13L1 14L0 14L0 15L3 15L3 14L2 14L2 13ZM9 13L9 14L10 14L10 13ZM7 17L7 18L6 18L6 19L7 19L7 20L4 20L4 21L7 21L7 20L9 20L9 21L8 21L8 22L6 22L6 23L5 23L5 24L6 24L6 25L7 25L7 24L8 24L8 22L9 22L9 21L10 21L10 20L11 20L11 19L10 19L10 20L9 20L9 18L8 18L8 17ZM10 17L10 18L11 18L11 17ZM15 17L15 18L16 18L16 19L17 19L17 18L16 18L16 17ZM22 17L22 18L23 18L23 17ZM29 17L29 19L28 19L28 20L27 20L27 21L26 21L26 22L25 22L25 23L24 23L24 24L23 24L23 25L25 25L25 24L26 24L26 23L27 23L27 21L29 21L29 20L31 20L31 21L34 21L34 22L35 22L35 23L36 23L36 21L34 21L34 19L31 19L31 17ZM1 20L1 21L2 21L2 20ZM14 20L14 21L15 21L15 20ZM20 21L20 22L21 22L21 21ZM6 23L6 24L7 24L7 23ZM9 23L9 24L10 24L10 23ZM2 24L2 25L3 25L3 24ZM8 26L8 27L10 27L10 28L11 28L11 27L12 27L12 26ZM5 27L5 28L7 28L7 27ZM13 27L13 29L12 29L12 31L11 31L11 32L12 32L12 33L13 33L13 31L14 31L14 33L15 33L15 32L16 32L16 33L17 33L17 34L18 34L18 33L17 33L17 32L18 32L18 31L17 31L17 32L16 32L16 31L15 31L15 30L17 30L17 29L14 29L14 27ZM19 28L19 29L20 29L20 28ZM13 29L13 30L14 30L14 29ZM29 29L29 32L32 32L32 29ZM27 30L27 31L28 31L28 30ZM30 30L30 31L31 31L31 30ZM27 32L27 33L28 33L28 34L29 34L29 35L30 35L30 33L28 33L28 32ZM12 34L12 35L13 35L13 34ZM17 35L17 36L18 36L18 35ZM0 0L0 7L7 7L7 0ZM1 1L1 6L6 6L6 1ZM2 2L2 5L5 5L5 2ZM30 0L30 7L37 7L37 0ZM31 1L31 6L36 6L36 1ZM32 2L32 5L35 5L35 2ZM0 30L0 37L7 37L7 30ZM1 31L1 36L6 36L6 31ZM2 32L2 35L5 35L5 32Z" fill="#000000"/></g></g></svg>
