<?xml version="1.0" encoding="UTF-8"?>
<svg xmlns="http://www.w3.org/2000/svg" version="1.1" width="300" height="300" viewBox="0 0 300 300"><rect x="0" y="0" width="300" height="300" fill="#ffffff"/><g transform="scale(8.108)"><g transform="translate(0,0)"><path fill-rule="evenodd" d="M9 0L9 1L8 1L8 2L9 2L9 3L8 3L8 5L10 5L10 8L9 8L9 6L8 6L8 9L7 9L7 8L3 8L3 9L5 9L5 10L3 10L3 11L2 11L2 8L1 8L1 10L0 10L0 11L2 11L2 12L3 12L3 14L2 14L2 15L3 15L3 14L4 14L4 12L6 12L6 13L5 13L5 14L6 14L6 15L8 15L8 16L9 16L9 17L8 17L8 18L10 18L10 20L13 20L13 22L12 22L12 23L10 23L10 22L9 22L9 21L7 21L7 20L6 20L6 19L7 19L7 18L6 18L6 19L5 19L5 18L4 18L4 19L3 19L3 18L2 18L2 19L1 19L1 16L0 16L0 20L1 20L1 21L0 21L0 29L1 29L1 27L2 27L2 29L3 29L3 27L5 27L5 29L8 29L8 30L9 30L9 29L10 29L10 28L9 28L9 27L10 27L10 26L8 26L8 25L7 25L7 24L6 24L6 25L5 25L5 22L6 22L6 23L8 23L8 24L10 24L10 25L11 25L11 24L13 24L13 22L14 22L14 23L15 23L15 22L16 22L16 21L17 21L17 22L18 22L18 23L20 23L20 24L21 24L21 22L20 22L20 21L21 21L21 20L20 20L20 21L19 21L19 16L21 16L21 17L20 17L20 18L21 18L21 17L22 17L22 16L21 16L21 15L23 15L23 14L24 14L24 16L23 16L23 18L22 18L22 19L24 19L24 20L25 20L25 21L24 21L24 22L23 22L23 20L22 20L22 24L23 24L23 26L24 26L24 28L25 28L25 29L24 29L24 30L23 30L23 27L20 27L20 29L21 29L21 30L23 30L23 31L24 31L24 30L25 30L25 32L24 32L24 33L25 33L25 34L24 34L24 35L25 35L25 36L24 36L24 37L26 37L26 33L25 33L25 32L26 32L26 28L25 28L25 27L27 27L27 28L28 28L28 31L27 31L27 33L28 33L28 34L27 34L27 37L30 37L30 36L32 36L32 37L33 37L33 34L32 34L32 33L34 33L34 34L35 34L35 35L34 35L34 36L36 36L36 37L37 37L37 34L35 34L35 33L36 33L36 32L37 32L37 30L35 30L35 29L37 29L37 26L35 26L35 25L33 25L33 24L32 24L32 25L31 25L31 22L30 22L30 21L31 21L31 20L30 20L30 21L28 21L28 20L29 20L29 18L30 18L30 19L32 19L32 22L35 22L35 21L36 21L36 22L37 22L37 18L35 18L35 14L36 14L36 17L37 17L37 14L36 14L36 13L37 13L37 10L36 10L36 13L35 13L35 11L34 11L34 15L32 15L32 14L33 14L33 13L32 13L32 12L33 12L33 11L31 11L31 10L32 10L32 9L34 9L34 10L35 10L35 9L36 9L36 8L35 8L35 9L34 9L34 8L32 8L32 9L31 9L31 8L29 8L29 1L28 1L28 7L27 7L27 4L25 4L25 3L24 3L24 2L25 2L25 1L24 1L24 0L16 0L16 1L15 1L15 3L16 3L16 4L15 4L15 6L14 6L14 8L12 8L12 7L13 7L13 6L12 6L12 7L11 7L11 5L12 5L12 3L13 3L13 2L14 2L14 1L13 1L13 2L11 2L11 0ZM26 0L26 1L27 1L27 0ZM16 1L16 3L17 3L17 1ZM20 1L20 2L23 2L23 1ZM10 2L10 3L11 3L11 2ZM18 2L18 4L16 4L16 5L18 5L18 4L19 4L19 2ZM22 3L22 5L21 5L21 4L20 4L20 5L19 5L19 7L20 7L20 9L19 9L19 8L18 8L18 6L17 6L17 8L16 8L16 6L15 6L15 9L13 9L13 11L12 11L12 10L11 10L11 9L12 9L12 8L10 8L10 11L11 11L11 12L10 12L10 14L8 14L8 15L9 15L9 16L10 16L10 18L11 18L11 17L12 17L12 15L14 15L14 16L13 16L13 17L14 17L14 16L15 16L15 15L16 15L16 17L15 17L15 18L12 18L12 19L13 19L13 20L14 20L14 19L15 19L15 21L16 21L16 20L17 20L17 21L18 21L18 22L19 22L19 21L18 21L18 20L17 20L17 19L15 19L15 18L16 18L16 17L17 17L17 16L19 16L19 14L17 14L17 13L19 13L19 12L20 12L20 11L21 11L21 12L23 12L23 9L22 9L22 8L23 8L23 7L24 7L24 9L25 9L25 11L24 11L24 13L26 13L26 12L28 12L28 11L27 11L27 10L28 10L28 9L29 9L29 12L31 12L31 11L30 11L30 9L29 9L29 8L28 8L28 9L27 9L27 10L26 10L26 9L25 9L25 8L26 8L26 6L25 6L25 7L24 7L24 5L25 5L25 4L24 4L24 5L23 5L23 3ZM13 4L13 5L14 5L14 4ZM20 5L20 7L21 7L21 5ZM22 6L22 7L23 7L23 6ZM17 8L17 11L16 11L16 10L14 10L14 11L15 11L15 12L14 12L14 13L13 13L13 14L14 14L14 15L15 15L15 14L14 14L14 13L17 13L17 11L18 11L18 12L19 12L19 11L20 11L20 10L19 10L19 9L18 9L18 8ZM6 9L6 10L5 10L5 11L6 11L6 12L8 12L8 11L6 11L6 10L7 10L7 9ZM8 9L8 10L9 10L9 9ZM21 10L21 11L22 11L22 10ZM3 11L3 12L4 12L4 11ZM6 13L6 14L7 14L7 13ZM11 13L11 15L12 15L12 13ZM21 13L21 14L20 14L20 15L21 15L21 14L22 14L22 13ZM27 13L27 14L29 14L29 13ZM30 13L30 15L31 15L31 14L32 14L32 13ZM25 14L25 16L24 16L24 17L25 17L25 18L24 18L24 19L25 19L25 18L27 18L27 17L25 17L25 16L26 16L26 14ZM4 15L4 16L2 16L2 17L4 17L4 16L5 16L5 15ZM28 15L28 16L29 16L29 17L30 17L30 18L33 18L33 19L34 19L34 21L35 21L35 20L36 20L36 19L35 19L35 18L34 18L34 17L33 17L33 16L31 16L31 17L30 17L30 16L29 16L29 15ZM6 16L6 17L7 17L7 16ZM4 19L4 20L3 20L3 21L2 21L2 22L1 22L1 23L2 23L2 24L3 24L3 25L4 25L4 26L5 26L5 25L4 25L4 24L3 24L3 23L4 23L4 20L5 20L5 21L6 21L6 22L7 22L7 21L6 21L6 20L5 20L5 19ZM26 19L26 21L25 21L25 22L24 22L24 23L25 23L25 24L24 24L24 25L25 25L25 26L27 26L27 27L28 27L28 28L29 28L29 27L31 27L31 28L32 28L32 27L33 27L33 26L29 26L29 27L28 27L28 25L25 25L25 24L26 24L26 22L27 22L27 19ZM16 23L16 26L15 26L15 24L14 24L14 25L12 25L12 27L13 27L13 28L12 28L12 29L14 29L14 27L13 27L13 26L15 26L15 27L16 27L16 28L17 28L17 29L16 29L16 30L17 30L17 33L18 33L18 34L15 34L15 35L14 35L14 33L15 33L15 32L16 32L16 31L14 31L14 32L13 32L13 33L12 33L12 32L11 32L11 35L10 35L10 34L9 34L9 31L8 31L8 34L9 34L9 35L8 35L8 36L9 36L9 37L11 37L11 35L13 35L13 36L12 36L12 37L17 37L17 36L18 36L18 37L20 37L20 36L19 36L19 35L18 35L18 34L19 34L19 33L20 33L20 34L21 34L21 35L22 35L22 34L23 34L23 33L22 33L22 31L20 31L20 32L19 32L19 33L18 33L18 30L17 30L17 29L19 29L19 26L18 26L18 27L16 27L16 26L17 26L17 23ZM28 23L28 24L30 24L30 23ZM34 23L34 24L36 24L36 23ZM18 24L18 25L19 25L19 24ZM6 25L6 26L7 26L7 25ZM20 25L20 26L22 26L22 25ZM34 26L34 29L35 29L35 26ZM6 27L6 28L8 28L8 29L9 29L9 28L8 28L8 27ZM29 29L29 32L32 32L32 29ZM11 30L11 31L13 31L13 30ZM30 30L30 31L31 31L31 30ZM34 30L34 33L35 33L35 30ZM21 33L21 34L22 34L22 33ZM29 33L29 34L28 34L28 36L29 36L29 35L32 35L32 34L30 34L30 33ZM15 35L15 36L16 36L16 35ZM21 36L21 37L23 37L23 36ZM0 0L0 7L7 7L7 0ZM1 1L1 6L6 6L6 1ZM2 2L2 5L5 5L5 2ZM30 0L30 7L37 7L37 0ZM31 1L31 6L36 6L36 1ZM32 2L32 5L35 5L35 2ZM0 30L0 37L7 37L7 30ZM1 31L1 36L6 36L6 31ZM2 32L2 35L5 35L5 32Z" fill="#000000"/></g></g></svg>
