<?xml version="1.0" encoding="UTF-8"?>
<svg xmlns="http://www.w3.org/2000/svg" version="1.1" width="300" height="300" viewBox="0 0 300 300"><rect x="0" y="0" width="300" height="300" fill="#ffffff"/><g transform="scale(8.108)"><g transform="translate(0,0)"><path fill-rule="evenodd" d="M8 0L8 2L9 2L9 1L10 1L10 3L9 3L9 5L10 5L10 3L11 3L11 4L12 4L12 5L11 5L11 6L10 6L10 7L9 7L9 6L8 6L8 7L9 7L9 8L6 8L6 9L4 9L4 10L2 10L2 8L1 8L1 10L0 10L0 11L1 11L1 10L2 10L2 12L3 12L3 13L2 13L2 16L1 16L1 14L0 14L0 18L1 18L1 19L0 19L0 29L1 29L1 25L3 25L3 26L2 26L2 28L3 28L3 27L5 27L5 29L7 29L7 28L6 28L6 27L7 27L7 26L8 26L8 31L9 31L9 29L12 29L12 30L11 30L11 32L10 32L10 33L9 33L9 34L10 34L10 35L8 35L8 36L10 36L10 35L11 35L11 36L12 36L12 35L13 35L13 36L14 36L14 35L16 35L16 34L19 34L19 33L18 33L18 30L19 30L19 31L20 31L20 35L22 35L22 36L21 36L21 37L23 37L23 36L24 36L24 37L26 37L26 35L27 35L27 37L29 37L29 35L30 35L30 34L31 34L31 35L32 35L32 37L33 37L33 35L32 35L32 34L31 34L31 33L33 33L33 31L34 31L34 27L35 27L35 28L37 28L37 26L35 26L35 25L34 25L34 22L33 22L33 20L32 20L32 18L30 18L30 17L31 17L31 15L32 15L32 17L37 17L37 14L34 14L34 15L32 15L32 14L31 14L31 15L30 15L30 14L26 14L26 15L29 15L29 16L27 16L27 18L25 18L25 17L26 17L26 16L25 16L25 13L24 13L24 12L25 12L25 11L29 11L29 12L26 12L26 13L29 13L29 12L30 12L30 13L31 13L31 12L33 12L33 10L32 10L32 9L30 9L30 8L29 8L29 3L28 3L28 2L29 2L29 0L28 0L28 2L27 2L27 1L24 1L24 0L17 0L17 1L16 1L16 2L17 2L17 4L14 4L14 3L15 3L15 0L14 0L14 3L13 3L13 2L11 2L11 0ZM17 1L17 2L19 2L19 3L20 3L20 4L21 4L21 3L20 3L20 1ZM22 1L22 3L23 3L23 1ZM24 2L24 3L25 3L25 4L23 4L23 5L25 5L25 4L26 4L26 5L27 5L27 7L26 7L26 6L25 6L25 7L24 7L24 6L23 6L23 7L24 7L24 9L25 9L25 10L22 10L22 6L21 6L21 5L20 5L20 6L19 6L19 5L18 5L18 6L17 6L17 5L12 5L12 6L11 6L11 9L10 9L10 10L9 10L9 12L7 12L7 11L8 11L8 10L7 10L7 9L6 9L6 10L4 10L4 11L3 11L3 12L5 12L5 11L6 11L6 12L7 12L7 13L6 13L6 14L5 14L5 13L3 13L3 14L5 14L5 16L3 16L3 18L4 18L4 20L5 20L5 21L6 21L6 22L7 22L7 23L5 23L5 22L4 22L4 21L3 21L3 22L1 22L1 23L5 23L5 24L3 24L3 25L4 25L4 26L5 26L5 24L7 24L7 25L6 25L6 26L7 26L7 25L9 25L9 26L16 26L16 23L18 23L18 22L19 22L19 23L20 23L20 24L19 24L19 25L18 25L18 24L17 24L17 28L16 28L16 27L11 27L11 28L14 28L14 29L13 29L13 30L12 30L12 32L11 32L11 33L10 33L10 34L11 34L11 35L12 35L12 34L11 34L11 33L14 33L14 34L16 34L16 31L17 31L17 29L19 29L19 30L20 30L20 31L22 31L22 32L23 32L23 34L22 34L22 33L21 33L21 34L22 34L22 35L23 35L23 34L25 34L25 33L24 33L24 32L26 32L26 31L27 31L27 32L28 32L28 30L26 30L26 31L25 31L25 30L24 30L24 31L23 31L23 29L25 29L25 28L26 28L26 29L28 29L28 28L32 28L32 27L33 27L33 25L32 25L32 24L33 24L33 23L31 23L31 26L32 26L32 27L29 27L29 26L28 26L28 25L27 25L27 27L26 27L26 26L23 26L23 29L22 29L22 30L21 30L21 29L20 29L20 27L22 27L22 26L20 26L20 27L18 27L18 26L19 26L19 25L20 25L20 24L21 24L21 25L22 25L22 23L21 23L21 22L22 22L22 21L23 21L23 24L24 24L24 25L25 25L25 24L26 24L26 23L27 23L27 24L29 24L29 23L30 23L30 22L31 22L31 21L32 21L32 20L31 20L31 21L30 21L30 18L29 18L29 17L30 17L30 16L29 16L29 17L28 17L28 18L29 18L29 21L30 21L30 22L29 22L29 23L27 23L27 20L28 20L28 19L27 19L27 20L26 20L26 19L25 19L25 18L24 18L24 17L25 17L25 16L24 16L24 14L22 14L22 13L21 13L21 12L22 12L22 11L25 11L25 10L26 10L26 8L28 8L28 4L27 4L27 2L26 2L26 3L25 3L25 2ZM12 3L12 4L13 4L13 3ZM12 6L12 7L13 7L13 8L14 8L14 9L11 9L11 10L10 10L10 11L11 11L11 13L10 13L10 12L9 12L9 14L10 14L10 15L11 15L11 16L12 16L12 18L11 18L11 17L10 17L10 16L9 16L9 15L8 15L8 13L7 13L7 14L6 14L6 15L7 15L7 16L5 16L5 17L4 17L4 18L5 18L5 19L7 19L7 20L6 20L6 21L8 21L8 23L7 23L7 24L8 24L8 23L9 23L9 25L10 25L10 24L11 24L11 25L12 25L12 24L11 24L11 23L10 23L10 20L12 20L12 21L13 21L13 22L12 22L12 23L13 23L13 22L14 22L14 20L15 20L15 21L16 21L16 22L18 22L18 21L19 21L19 22L21 22L21 21L20 21L20 20L21 20L21 19L22 19L22 18L23 18L23 19L24 19L24 20L25 20L25 19L24 19L24 18L23 18L23 17L22 17L22 16L21 16L21 15L22 15L22 14L20 14L20 12L21 12L21 11L22 11L22 10L21 10L21 9L20 9L20 10L21 10L21 11L20 11L20 12L19 12L19 11L18 11L18 12L17 12L17 14L16 14L16 10L14 10L14 9L15 9L15 8L16 8L16 9L17 9L17 10L18 10L18 9L19 9L19 6L18 6L18 8L16 8L16 7L17 7L17 6L16 6L16 7L15 7L15 6L14 6L14 7L13 7L13 6ZM20 6L20 8L21 8L21 6ZM14 7L14 8L15 8L15 7ZM25 7L25 8L26 8L26 7ZM35 8L35 9L34 9L34 10L36 10L36 11L37 11L37 10L36 10L36 9L37 9L37 8ZM27 9L27 10L28 10L28 9ZM29 9L29 11L30 11L30 12L31 12L31 11L32 11L32 10L31 10L31 11L30 11L30 9ZM6 10L6 11L7 11L7 10ZM11 10L11 11L14 11L14 10ZM12 12L12 13L11 13L11 15L12 15L12 16L13 16L13 17L15 17L15 19L16 19L16 18L17 18L17 17L18 17L18 16L19 16L19 19L17 19L17 20L16 20L16 21L17 21L17 20L19 20L19 19L21 19L21 18L22 18L22 17L21 17L21 18L20 18L20 14L17 14L17 15L16 15L16 16L15 16L15 14L14 14L14 15L12 15L12 14L13 14L13 12ZM14 12L14 13L15 13L15 12ZM34 12L34 13L35 13L35 12ZM36 12L36 13L37 13L37 12ZM35 15L35 16L36 16L36 15ZM7 16L7 17L6 17L6 18L7 18L7 19L9 19L9 20L8 20L8 21L9 21L9 20L10 20L10 18L8 18L8 16ZM1 17L1 18L2 18L2 17ZM12 18L12 19L13 19L13 20L14 20L14 18ZM33 18L33 19L34 19L34 18ZM36 18L36 20L34 20L34 21L36 21L36 22L35 22L35 23L36 23L36 22L37 22L37 18ZM1 19L1 20L2 20L2 19ZM24 21L24 22L25 22L25 21ZM24 23L24 24L25 24L25 23ZM14 24L14 25L15 25L15 24ZM24 27L24 28L25 28L25 27ZM27 27L27 28L28 28L28 27ZM29 29L29 32L32 32L32 29ZM35 29L35 32L34 32L34 33L36 33L36 32L37 32L37 30L36 30L36 29ZM14 30L14 31L13 31L13 32L14 32L14 31L16 31L16 30ZM30 30L30 31L31 31L31 30ZM27 33L27 34L28 34L28 35L29 35L29 34L30 34L30 33L29 33L29 34L28 34L28 33ZM36 34L36 37L37 37L37 34ZM17 35L17 37L18 37L18 36L19 36L19 37L20 37L20 36L19 36L19 35ZM24 35L24 36L25 36L25 35ZM15 36L15 37L16 37L16 36ZM30 36L30 37L31 37L31 36ZM0 0L0 7L7 7L7 0ZM1 1L1 6L6 6L6 1ZM2 2L2 5L5 5L5 2ZM30 0L30 7L37 7L37 0ZM31 1L31 6L36 6L36 1ZM32 2L32 5L35 5L35 2ZM0 30L0 37L7 37L7 30ZM1 31L1 36L6 36L6 31ZM2 32L2 35L5 35L5 32Z" fill="#000000"/></g></g></svg>
