<?xml version="1.0" encoding="UTF-8"?>
<svg xmlns="http://www.w3.org/2000/svg" version="1.1" width="300" height="300" viewBox="0 0 300 300"><rect x="0" y="0" width="300" height="300" fill="#ffffff"/><g transform="scale(8.108)"><g transform="translate(0,0)"><path fill-rule="evenodd" d="M9 0L9 2L8 2L8 3L9 3L9 4L8 4L8 7L9 7L9 8L8 8L8 10L6 10L6 9L7 9L7 8L6 8L6 9L5 9L5 8L4 8L4 10L1 10L1 9L2 9L2 8L1 8L1 9L0 9L0 11L1 11L1 12L4 12L4 13L7 13L7 14L5 14L5 15L1 15L1 13L0 13L0 16L5 16L5 18L3 18L3 17L2 17L2 18L3 18L3 20L2 20L2 19L1 19L1 18L0 18L0 19L1 19L1 20L2 20L2 23L1 23L1 24L0 24L0 26L2 26L2 27L3 27L3 28L0 28L0 29L3 29L3 28L5 28L5 29L8 29L8 30L9 30L9 29L8 29L8 28L5 28L5 27L4 27L4 25L5 25L5 26L6 26L6 27L7 27L7 26L6 26L6 25L7 25L7 24L8 24L8 23L7 23L7 22L10 22L10 21L11 21L11 19L13 19L13 20L12 20L12 22L11 22L11 25L10 25L10 24L9 24L9 25L8 25L8 27L9 27L9 28L11 28L11 26L12 26L12 29L10 29L10 30L11 30L11 31L9 31L9 32L8 32L8 33L10 33L10 35L12 35L12 36L11 36L11 37L12 37L12 36L13 36L13 37L14 37L14 35L15 35L15 36L17 36L17 35L18 35L18 37L20 37L20 36L19 36L19 34L20 34L20 35L21 35L21 36L22 36L22 35L23 35L23 34L21 34L21 33L18 33L18 32L19 32L19 29L20 29L20 31L21 31L21 30L22 30L22 29L23 29L23 31L22 31L22 33L23 33L23 31L25 31L25 30L24 30L24 29L25 29L25 27L24 27L24 25L27 25L27 23L28 23L28 24L29 24L29 23L30 23L30 21L31 21L31 22L32 22L32 23L33 23L33 24L32 24L32 25L31 25L31 24L30 24L30 25L28 25L28 27L29 27L29 26L31 26L31 27L30 27L30 28L27 28L27 26L26 26L26 28L27 28L27 29L26 29L26 32L28 32L28 35L27 35L27 33L26 33L26 34L25 34L25 35L24 35L24 36L23 36L23 37L26 37L26 35L27 35L27 37L28 37L28 35L29 35L29 37L33 37L33 35L31 35L31 33L36 33L36 32L35 32L35 31L36 31L36 29L37 29L37 27L36 27L36 24L37 24L37 20L36 20L36 17L37 17L37 16L36 16L36 13L37 13L37 12L36 12L36 13L35 13L35 15L34 15L34 14L33 14L33 13L34 13L34 12L35 12L35 11L36 11L36 9L35 9L35 8L34 8L34 9L35 9L35 10L34 10L34 11L33 11L33 10L32 10L32 11L31 11L31 9L33 9L33 8L31 8L31 9L30 9L30 8L29 8L29 5L28 5L28 2L27 2L27 3L26 3L26 2L25 2L25 1L23 1L23 2L22 2L22 1L21 1L21 0L15 0L15 3L16 3L16 4L17 4L17 6L16 6L16 7L17 7L17 6L18 6L18 8L16 8L16 10L15 10L15 11L16 11L16 12L17 12L17 13L16 13L16 15L15 15L15 18L14 18L14 19L13 19L13 17L14 17L14 16L12 16L12 14L13 14L13 15L14 15L14 13L15 13L15 12L13 12L13 11L14 11L14 7L15 7L15 4L14 4L14 5L13 5L13 3L12 3L12 8L11 8L11 5L10 5L10 4L11 4L11 3L9 3L9 2L11 2L11 1L12 1L12 0L11 0L11 1L10 1L10 0ZM27 0L27 1L28 1L28 0ZM13 1L13 2L14 2L14 1ZM18 1L18 2L19 2L19 3L17 3L17 2L16 2L16 3L17 3L17 4L18 4L18 5L19 5L19 7L20 7L20 8L21 8L21 7L22 7L22 9L21 9L21 10L19 10L19 11L21 11L21 10L22 10L22 9L23 9L23 8L24 8L24 6L23 6L23 5L25 5L25 7L26 7L26 9L27 9L27 10L25 10L25 9L24 9L24 10L25 10L25 12L23 12L23 11L22 11L22 12L18 12L18 14L19 14L19 15L20 15L20 18L22 18L22 21L21 21L21 20L18 20L18 21L17 21L17 19L16 19L16 18L17 18L17 17L18 17L18 16L17 16L17 17L16 17L16 18L15 18L15 19L16 19L16 20L15 20L15 21L16 21L16 22L14 22L14 20L13 20L13 22L12 22L12 23L13 23L13 25L12 25L12 26L14 26L14 24L15 24L15 26L16 26L16 27L17 27L17 29L19 29L19 28L20 28L20 29L22 29L22 27L23 27L23 26L18 26L18 27L17 27L17 26L16 26L16 25L18 25L18 23L19 23L19 24L20 24L20 25L21 25L21 23L22 23L22 22L24 22L24 21L25 21L25 20L26 20L26 19L27 19L27 21L26 21L26 22L25 22L25 23L24 23L24 24L22 24L22 25L24 25L24 24L26 24L26 23L27 23L27 21L30 21L30 20L28 20L28 19L27 19L27 18L25 18L25 19L24 19L24 20L23 20L23 18L24 18L24 17L26 17L26 16L27 16L27 17L30 17L30 19L31 19L31 17L30 17L30 16L32 16L32 17L34 17L34 19L33 19L33 18L32 18L32 20L31 20L31 21L34 21L34 22L33 22L33 23L34 23L34 22L35 22L35 23L36 23L36 21L34 21L34 19L35 19L35 17L34 17L34 15L33 15L33 14L32 14L32 15L30 15L30 14L31 14L31 13L33 13L33 12L31 12L31 11L30 11L30 12L27 12L27 10L28 10L28 11L29 11L29 10L30 10L30 9L28 9L28 8L27 8L27 7L28 7L28 5L26 5L26 3L24 3L24 2L23 2L23 5L22 5L22 3L21 3L21 5L20 5L20 4L19 4L19 3L20 3L20 2L21 2L21 1L20 1L20 2L19 2L19 1ZM9 5L9 7L10 7L10 5ZM21 5L21 6L20 6L20 7L21 7L21 6L22 6L22 7L23 7L23 6L22 6L22 5ZM13 6L13 7L14 7L14 6ZM26 6L26 7L27 7L27 6ZM9 8L9 9L10 9L10 10L11 10L11 8ZM12 8L12 10L13 10L13 8ZM18 8L18 9L19 9L19 8ZM5 10L5 11L6 11L6 12L7 12L7 11L6 11L6 10ZM9 11L9 12L8 12L8 15L6 15L6 16L8 16L8 18L9 18L9 19L11 19L11 18L12 18L12 16L11 16L11 14L9 14L9 12L10 12L10 11ZM12 12L12 13L13 13L13 12ZM26 12L26 13L22 13L22 14L21 14L21 13L19 13L19 14L20 14L20 15L21 15L21 16L22 16L22 15L24 15L24 16L25 16L25 15L26 15L26 14L27 14L27 15L28 15L28 16L29 16L29 14L30 14L30 13L31 13L31 12L30 12L30 13L29 13L29 14L27 14L27 12ZM24 14L24 15L25 15L25 14ZM9 15L9 16L10 16L10 15ZM6 17L6 18L5 18L5 19L4 19L4 20L7 20L7 21L6 21L6 22L7 22L7 21L8 21L8 20L7 20L7 19L6 19L6 18L7 18L7 17ZM10 17L10 18L11 18L11 17ZM22 17L22 18L23 18L23 17ZM18 18L18 19L19 19L19 18ZM9 20L9 21L10 21L10 20ZM0 21L0 22L1 22L1 21ZM18 21L18 22L20 22L20 21ZM4 22L4 23L3 23L3 24L2 24L2 25L3 25L3 24L4 24L4 23L5 23L5 25L6 25L6 24L7 24L7 23L5 23L5 22ZM16 23L16 24L17 24L17 23ZM9 25L9 27L10 27L10 25ZM32 26L32 27L31 27L31 28L33 28L33 31L35 31L35 26L34 26L34 27L33 27L33 26ZM14 27L14 28L13 28L13 30L12 30L12 31L11 31L11 33L13 33L13 34L12 34L12 35L13 35L13 34L14 34L14 33L15 33L15 32L16 32L16 34L15 34L15 35L17 35L17 34L18 34L18 33L17 33L17 32L18 32L18 31L15 31L15 32L14 32L14 33L13 33L13 32L12 32L12 31L13 31L13 30L14 30L14 28L15 28L15 27ZM23 28L23 29L24 29L24 28ZM15 29L15 30L16 30L16 29ZM29 29L29 32L32 32L32 29ZM27 30L27 31L28 31L28 30ZM30 30L30 31L31 31L31 30ZM24 32L24 33L25 33L25 32ZM29 33L29 35L30 35L30 33ZM35 34L35 35L34 35L34 37L37 37L37 36L36 36L36 34ZM8 35L8 36L9 36L9 35ZM0 0L0 7L7 7L7 0ZM1 1L1 6L6 6L6 1ZM2 2L2 5L5 5L5 2ZM30 0L30 7L37 7L37 0ZM31 1L31 6L36 6L36 1ZM32 2L32 5L35 5L35 2ZM0 30L0 37L7 37L7 30ZM1 31L1 36L6 36L6 31ZM2 32L2 35L5 35L5 32Z" fill="#000000"/></g></g></svg>
