<?xml version="1.0" encoding="UTF-8"?>
<svg xmlns="http://www.w3.org/2000/svg" version="1.1" width="300" height="300" viewBox="0 0 300 300"><rect x="0" y="0" width="300" height="300" fill="#ffffff"/><g transform="scale(6.122)"><g transform="translate(0,0)"><path fill-rule="evenodd" d="M8 0L8 1L9 1L9 2L10 2L10 1L11 1L11 2L12 2L12 3L10 3L10 5L11 5L11 6L10 6L10 7L9 7L9 4L8 4L8 7L9 7L9 8L10 8L10 9L11 9L11 6L12 6L12 7L13 7L13 6L12 6L12 5L13 5L13 4L12 4L12 3L14 3L14 5L15 5L15 6L14 6L14 7L15 7L15 8L13 8L13 12L12 12L12 14L14 14L14 13L16 13L16 15L19 15L19 16L20 16L20 13L21 13L21 14L22 14L22 15L23 15L23 16L22 16L22 17L23 17L23 18L25 18L25 19L24 19L24 20L23 20L23 19L22 19L22 18L21 18L21 17L19 17L19 19L18 19L18 18L16 18L16 19L15 19L15 18L13 18L13 17L14 17L14 16L12 16L12 15L11 15L11 14L10 14L10 16L11 16L11 17L10 17L10 18L8 18L8 17L7 17L7 16L8 16L8 15L9 15L9 14L6 14L6 15L7 15L7 16L5 16L5 15L4 15L4 14L5 14L5 13L9 13L9 12L8 12L8 10L9 10L9 11L12 11L12 10L9 10L9 9L8 9L8 8L1 8L1 9L5 9L5 10L4 10L4 11L3 11L3 10L2 10L2 11L0 11L0 14L2 14L2 16L3 16L3 17L4 17L4 19L3 19L3 18L1 18L1 15L0 15L0 18L1 18L1 19L0 19L0 20L1 20L1 21L0 21L0 28L1 28L1 29L2 29L2 31L0 31L0 34L1 34L1 35L2 35L2 36L1 36L1 40L0 40L0 41L3 41L3 40L4 40L4 39L2 39L2 38L4 38L4 37L2 37L2 36L4 36L4 35L5 35L5 36L6 36L6 37L7 37L7 36L8 36L8 38L9 38L9 37L10 37L10 38L11 38L11 39L10 39L10 40L9 40L9 39L7 39L7 38L5 38L5 39L7 39L7 40L6 40L6 41L8 41L8 48L9 48L9 49L10 49L10 48L11 48L11 49L12 49L12 48L13 48L13 47L12 47L12 48L11 48L11 47L10 47L10 45L11 45L11 46L14 46L14 48L15 48L15 49L18 49L18 46L19 46L19 47L21 47L21 48L20 48L20 49L21 49L21 48L22 48L22 46L23 46L23 45L27 45L27 44L29 44L29 45L28 45L28 46L27 46L27 49L28 49L28 48L29 48L29 49L30 49L30 47L28 47L28 46L31 46L31 47L32 47L32 48L31 48L31 49L32 49L32 48L33 48L33 49L34 49L34 47L37 47L37 48L35 48L35 49L38 49L38 48L40 48L40 49L41 49L41 47L42 47L42 48L43 48L43 47L44 47L44 48L45 48L45 49L49 49L49 45L48 45L48 44L46 44L46 46L45 46L45 43L46 43L46 42L45 42L45 41L48 41L48 40L45 40L45 39L49 39L49 38L46 38L46 37L47 37L47 36L48 36L48 37L49 37L49 34L47 34L47 36L46 36L46 34L45 34L45 35L44 35L44 34L42 34L42 33L41 33L41 32L42 32L42 31L45 31L45 30L43 30L43 29L45 29L45 28L44 28L44 27L45 27L45 25L47 25L47 26L46 26L46 27L47 27L47 26L48 26L48 29L49 29L49 26L48 26L48 24L45 24L45 23L46 23L46 22L47 22L47 23L49 23L49 22L47 22L47 20L48 20L48 21L49 21L49 18L47 18L47 17L48 17L48 16L45 16L45 15L46 15L46 14L45 14L45 13L44 13L44 12L46 12L46 13L48 13L48 12L46 12L46 11L44 11L44 10L43 10L43 9L45 9L45 8L43 8L43 9L42 9L42 10L41 10L41 11L42 11L42 10L43 10L43 11L44 11L44 12L42 12L42 13L41 13L41 12L38 12L38 13L37 13L37 12L36 12L36 13L37 13L37 14L33 14L33 15L32 15L32 13L31 13L31 12L33 12L33 11L34 11L34 12L35 12L35 10L36 10L36 11L39 11L39 10L37 10L37 6L38 6L38 8L39 8L39 9L41 9L41 8L39 8L39 5L38 5L38 3L35 3L35 2L37 2L37 1L38 1L38 2L39 2L39 4L40 4L40 3L41 3L41 0L40 0L40 1L38 1L38 0L35 0L35 1L31 1L31 0L29 0L29 1L31 1L31 2L32 2L32 3L33 3L33 4L37 4L37 6L36 6L36 7L35 7L35 5L33 5L33 6L32 6L32 7L31 7L31 6L30 6L30 5L32 5L32 4L30 4L30 2L28 2L28 1L27 1L27 0L25 0L25 1L24 1L24 0L22 0L22 1L20 1L20 2L19 2L19 0L16 0L16 1L15 1L15 0ZM12 1L12 2L13 2L13 1ZM16 1L16 3L17 3L17 4L19 4L19 9L20 9L20 10L21 10L21 11L19 11L19 10L18 10L18 11L15 11L15 10L17 10L17 9L18 9L18 8L17 8L17 9L14 9L14 11L15 11L15 12L21 12L21 11L22 11L22 10L23 10L23 9L21 9L21 8L20 8L20 5L22 5L22 4L23 4L23 2L24 2L24 1L23 1L23 2L21 2L21 3L22 3L22 4L19 4L19 3L17 3L17 1ZM14 2L14 3L15 3L15 2ZM25 2L25 3L24 3L24 4L25 4L25 3L28 3L28 4L27 4L27 9L26 9L26 10L27 10L27 11L26 11L26 12L23 12L23 13L24 13L24 14L23 14L23 15L24 15L24 16L23 16L23 17L25 17L25 18L27 18L27 17L28 17L28 20L26 20L26 19L25 19L25 20L26 20L26 21L23 21L23 20L22 20L22 19L20 19L20 20L17 20L17 22L18 22L18 23L17 23L17 24L16 24L16 21L15 21L15 19L13 19L13 22L12 22L12 23L13 23L13 25L9 25L9 26L11 26L11 27L12 27L12 28L10 28L10 27L9 27L9 28L10 28L10 29L11 29L11 31L10 31L10 34L9 34L9 30L8 30L8 28L7 28L7 27L4 27L4 26L3 26L3 27L4 27L4 28L2 28L2 29L4 29L4 28L7 28L7 29L5 29L5 30L4 30L4 31L3 31L3 32L1 32L1 34L2 34L2 35L4 35L4 34L2 34L2 33L4 33L4 32L5 32L5 31L6 31L6 32L7 32L7 31L8 31L8 34L9 34L9 35L8 35L8 36L10 36L10 37L11 37L11 36L12 36L12 39L13 39L13 40L14 40L14 41L12 41L12 40L11 40L11 41L10 41L10 42L9 42L9 44L10 44L10 42L11 42L11 45L13 45L13 44L14 44L14 45L18 45L18 44L16 44L16 43L18 43L18 42L19 42L19 43L20 43L20 45L19 45L19 46L20 46L20 45L22 45L22 42L19 42L19 40L20 40L20 41L21 41L21 40L25 40L25 39L27 39L27 36L28 36L28 37L29 37L29 36L30 36L30 35L31 35L31 36L32 36L32 37L33 37L33 38L28 38L28 39L29 39L29 40L27 40L27 42L28 42L28 43L29 43L29 42L30 42L30 41L29 41L29 40L30 40L30 39L31 39L31 42L32 42L32 43L33 43L33 44L32 44L32 47L33 47L33 46L35 46L35 44L37 44L37 43L36 43L36 42L38 42L38 43L40 43L40 41L39 41L39 40L44 40L44 39L45 39L45 37L46 37L46 36L45 36L45 37L44 37L44 35L42 35L42 34L39 34L39 33L38 33L38 32L40 32L40 31L41 31L41 30L42 30L42 29L41 29L41 27L40 27L40 24L39 24L39 23L40 23L40 22L41 22L41 21L42 21L42 17L43 17L43 16L42 16L42 15L43 15L43 14L41 14L41 13L40 13L40 14L41 14L41 16L39 16L39 17L40 17L40 18L37 18L37 17L38 17L38 16L37 16L37 15L38 15L38 14L39 14L39 13L38 13L38 14L37 14L37 15L35 15L35 16L37 16L37 17L35 17L35 18L34 18L34 17L33 17L33 16L34 16L34 15L33 15L33 16L31 16L31 14L27 14L27 13L26 13L26 12L29 12L29 13L30 13L30 12L31 12L31 11L33 11L33 10L35 10L35 9L36 9L36 8L35 8L35 7L34 7L34 6L33 6L33 7L32 7L32 8L31 8L31 9L32 9L32 10L29 10L29 11L28 11L28 8L29 8L29 7L30 7L30 6L29 6L29 7L28 7L28 4L29 4L29 3L28 3L28 2ZM33 2L33 3L34 3L34 2ZM16 5L16 6L15 6L15 7L16 7L16 6L17 6L17 7L18 7L18 6L17 6L17 5ZM23 5L23 8L26 8L26 5ZM21 6L21 7L22 7L22 6ZM24 6L24 7L25 7L25 6ZM40 6L40 7L41 7L41 6ZM48 8L48 9L46 9L46 10L48 10L48 11L49 11L49 10L48 10L48 9L49 9L49 8ZM6 9L6 10L7 10L7 9ZM6 11L6 12L7 12L7 11ZM2 12L2 14L3 14L3 13L4 13L4 12ZM25 13L25 17L26 17L26 13ZM47 14L47 15L49 15L49 14ZM3 15L3 16L4 16L4 17L5 17L5 18L7 18L7 17L5 17L5 16L4 16L4 15ZM28 15L28 17L29 17L29 18L30 18L30 19L29 19L29 21L27 21L27 22L22 22L22 21L20 21L20 22L21 22L21 24L20 24L20 23L19 23L19 25L20 25L20 26L19 26L19 27L16 27L16 24L15 24L15 23L14 23L14 25L13 25L13 26L12 26L12 27L13 27L13 26L14 26L14 25L15 25L15 27L16 27L16 29L17 29L17 28L18 28L18 30L17 30L17 32L16 32L16 35L15 35L15 36L13 36L13 35L14 35L14 34L15 34L15 28L14 28L14 29L12 29L12 31L11 31L11 32L14 32L14 33L11 33L11 34L10 34L10 35L11 35L11 34L12 34L12 36L13 36L13 37L16 37L16 35L17 35L17 34L18 34L18 35L19 35L19 37L20 37L20 38L21 38L21 37L20 37L20 35L21 35L21 34L22 34L22 39L24 39L24 37L23 37L23 36L25 36L25 35L26 35L26 34L28 34L28 36L29 36L29 35L30 35L30 34L31 34L31 35L32 35L32 36L34 36L34 35L36 35L36 34L34 34L34 33L36 33L36 32L38 32L38 31L40 31L40 30L41 30L41 29L40 29L40 28L38 28L38 29L37 29L37 28L36 28L36 26L37 26L37 24L38 24L38 23L39 23L39 22L38 22L38 23L37 23L37 21L41 21L41 20L40 20L40 19L37 19L37 18L36 18L36 19L37 19L37 20L36 20L36 21L35 21L35 22L33 22L33 21L32 21L32 22L31 22L31 20L30 20L30 19L32 19L32 20L34 20L34 18L32 18L32 17L31 17L31 18L30 18L30 17L29 17L29 16L30 16L30 15ZM15 16L15 17L18 17L18 16ZM44 16L44 17L45 17L45 16ZM11 17L11 18L10 18L10 19L9 19L9 20L10 20L10 21L8 21L8 20L7 20L7 19L6 19L6 20L5 20L5 19L4 19L4 21L3 21L3 19L1 19L1 20L2 20L2 21L1 21L1 23L2 23L2 24L1 24L1 27L2 27L2 24L3 24L3 25L4 25L4 24L3 24L3 22L5 22L5 21L6 21L6 22L10 22L10 23L11 23L11 20L10 20L10 19L11 19L11 18L12 18L12 17ZM46 18L46 19L45 19L45 20L44 20L44 21L43 21L43 22L46 22L46 20L47 20L47 18ZM6 20L6 21L7 21L7 20ZM14 21L14 22L15 22L15 21ZM18 21L18 22L19 22L19 21ZM28 22L28 23L27 23L27 24L28 24L28 25L27 25L27 26L28 26L28 27L27 27L27 28L28 28L28 29L27 29L27 30L29 30L29 31L28 31L28 32L27 32L27 33L28 33L28 32L29 32L29 34L30 34L30 33L31 33L31 34L32 34L32 33L31 33L31 32L33 32L33 30L35 30L35 31L34 31L34 32L36 32L36 30L35 30L35 27L34 27L34 26L36 26L36 25L34 25L34 23L33 23L33 22L32 22L32 23L31 23L31 22L30 22L30 23L31 23L31 24L32 24L32 25L33 25L33 28L32 28L32 27L31 27L31 26L29 26L29 25L30 25L30 24L29 24L29 22ZM5 23L5 26L8 26L8 23ZM23 23L23 26L26 26L26 23ZM32 23L32 24L33 24L33 23ZM35 23L35 24L37 24L37 23ZM41 23L41 26L44 26L44 23ZM6 24L6 25L7 25L7 24ZM24 24L24 25L25 25L25 24ZM42 24L42 25L43 25L43 24ZM17 25L17 26L18 26L18 25ZM38 26L38 27L39 27L39 26ZM20 27L20 28L19 28L19 29L20 29L20 30L22 30L22 29L23 29L23 31L19 31L19 30L18 30L18 33L19 33L19 35L20 35L20 32L22 32L22 33L24 33L24 32L23 32L23 31L25 31L25 33L26 33L26 31L25 31L25 30L26 30L26 29L25 29L25 30L24 30L24 27ZM25 27L25 28L26 28L26 27ZM28 27L28 28L29 28L29 30L31 30L31 31L29 31L29 32L31 32L31 31L32 31L32 28L31 28L31 27L30 27L30 28L29 28L29 27ZM42 27L42 28L43 28L43 27ZM30 28L30 29L31 29L31 28ZM33 28L33 29L34 29L34 28ZM46 28L46 31L47 31L47 32L43 32L43 33L49 33L49 30L48 30L48 31L47 31L47 28ZM38 29L38 30L37 30L37 31L38 31L38 30L39 30L39 29ZM6 30L6 31L7 31L7 30ZM6 33L6 34L5 34L5 35L6 35L6 36L7 36L7 35L6 35L6 34L7 34L7 33ZM37 33L37 34L38 34L38 35L37 35L37 36L35 36L35 38L33 38L33 39L32 39L32 40L34 40L34 39L35 39L35 40L36 40L36 41L38 41L38 40L36 40L36 39L44 39L44 37L42 37L42 36L41 36L41 35L40 35L40 36L39 36L39 38L36 38L36 37L37 37L37 36L38 36L38 35L39 35L39 34L38 34L38 33ZM23 34L23 35L25 35L25 34ZM33 34L33 35L34 35L34 34ZM17 36L17 37L18 37L18 36ZM40 36L40 37L41 37L41 36ZM25 37L25 38L26 38L26 37ZM14 38L14 39L15 39L15 38ZM18 38L18 39L17 39L17 40L16 40L16 42L15 42L15 41L14 41L14 42L12 42L12 41L11 41L11 42L12 42L12 44L13 44L13 43L14 43L14 42L15 42L15 43L16 43L16 42L17 42L17 41L18 41L18 40L19 40L19 38ZM35 38L35 39L36 39L36 38ZM20 39L20 40L21 40L21 39ZM8 40L8 41L9 41L9 40ZM23 41L23 44L26 44L26 41ZM32 41L32 42L34 42L34 41ZM41 41L41 44L44 44L44 41ZM24 42L24 43L25 43L25 42ZM42 42L42 43L43 43L43 42ZM47 42L47 43L49 43L49 42ZM34 43L34 44L33 44L33 45L34 45L34 44L35 44L35 43ZM38 45L38 46L37 46L37 47L38 47L38 46L39 46L39 47L40 47L40 46L42 46L42 45L40 45L40 46L39 46L39 45ZM43 45L43 46L44 46L44 47L45 47L45 48L48 48L48 47L47 47L47 46L46 46L46 47L45 47L45 46L44 46L44 45ZM24 46L24 47L23 47L23 48L24 48L24 49L25 49L25 48L26 48L26 47L25 47L25 46ZM15 47L15 48L16 48L16 47ZM24 47L24 48L25 48L25 47ZM0 0L0 7L7 7L7 0ZM1 1L1 6L6 6L6 1ZM2 2L2 5L5 5L5 2ZM42 0L42 7L49 7L49 0ZM43 1L43 6L48 6L48 1ZM44 2L44 5L47 5L47 2ZM0 42L0 49L7 49L7 42ZM1 43L1 48L6 48L6 43ZM2 44L2 47L5 47L5 44Z" fill="#000000"/></g></g></svg>
