<?xml version="1.0" encoding="UTF-8"?>
<svg xmlns="http://www.w3.org/2000/svg" version="1.1" width="300" height="300" viewBox="0 0 300 300"><rect x="0" y="0" width="300" height="300" fill="#ffffff"/><g transform="scale(8.108)"><g transform="translate(0,0)"><path fill-rule="evenodd" d="M9 0L9 1L8 1L8 3L9 3L9 1L10 1L10 2L11 2L11 3L10 3L10 4L9 4L9 6L8 6L8 7L9 7L9 6L10 6L10 9L9 9L9 10L8 10L8 9L7 9L7 8L5 8L5 9L7 9L7 10L4 10L4 8L1 8L1 10L0 10L0 15L1 15L1 17L3 17L3 18L5 18L5 19L7 19L7 20L4 20L4 19L3 19L3 22L4 22L4 23L2 23L2 24L5 24L5 25L2 25L2 26L1 26L1 27L0 27L0 28L1 28L1 27L3 27L3 28L2 28L2 29L4 29L4 28L5 28L5 29L7 29L7 28L6 28L6 27L7 27L7 26L8 26L8 27L10 27L10 28L9 28L9 29L8 29L8 30L9 30L9 29L10 29L10 31L11 31L11 29L12 29L12 30L13 30L13 31L12 31L12 33L10 33L10 32L9 32L9 31L8 31L8 32L9 32L9 33L8 33L8 36L9 36L9 37L10 37L10 35L11 35L11 37L13 37L13 36L15 36L15 37L16 37L16 36L17 36L17 35L12 35L12 34L14 34L14 33L16 33L16 31L15 31L15 29L16 29L16 30L18 30L18 29L21 29L21 30L22 30L22 31L21 31L21 32L20 32L20 30L19 30L19 31L18 31L18 32L17 32L17 33L18 33L18 36L20 36L20 37L22 37L22 36L20 36L20 35L19 35L19 32L20 32L20 33L21 33L21 34L22 34L22 33L21 33L21 32L22 32L22 31L23 31L23 33L24 33L24 31L25 31L25 30L24 30L24 29L26 29L26 31L27 31L27 32L28 32L28 33L29 33L29 35L30 35L30 37L32 37L32 35L33 35L33 34L34 34L34 37L37 37L37 36L35 36L35 35L36 35L36 34L34 34L34 33L33 33L33 32L34 32L34 31L35 31L35 30L36 30L36 31L37 31L37 29L33 29L33 28L31 28L31 27L30 27L30 26L29 26L29 25L28 25L28 24L30 24L30 25L32 25L32 26L35 26L35 25L36 25L36 26L37 26L37 25L36 25L36 24L37 24L37 21L36 21L36 19L37 19L37 17L35 17L35 16L34 16L34 15L36 15L36 16L37 16L37 15L36 15L36 14L37 14L37 13L35 13L35 14L33 14L33 11L34 11L34 12L35 12L35 11L34 11L34 9L36 9L36 8L34 8L34 9L30 9L30 10L33 10L33 11L32 11L32 13L31 13L31 11L30 11L30 14L29 14L29 15L26 15L26 14L27 14L27 13L28 13L28 12L29 12L29 10L28 10L28 9L27 9L27 8L29 8L29 5L28 5L28 4L29 4L29 3L28 3L28 2L29 2L29 0L28 0L28 2L27 2L27 3L26 3L26 4L25 4L25 2L26 2L26 0L25 0L25 2L22 2L22 0L21 0L21 2L18 2L18 1L19 1L19 0L15 0L15 1L17 1L17 2L18 2L18 3L16 3L16 5L15 5L15 6L14 6L14 4L13 4L13 3L12 3L12 2L13 2L13 1L12 1L12 0L11 0L11 1L10 1L10 0ZM21 2L21 4L20 4L20 5L19 5L19 4L18 4L18 5L19 5L19 8L18 8L18 6L17 6L17 5L16 5L16 6L15 6L15 9L17 9L17 10L13 10L13 9L11 9L11 10L10 10L10 11L12 11L12 10L13 10L13 13L15 13L15 12L14 12L14 11L17 11L17 10L18 10L18 9L20 9L20 10L19 10L19 11L18 11L18 12L17 12L17 15L15 15L15 14L13 14L13 15L11 15L11 14L12 14L12 13L11 13L11 14L10 14L10 15L11 15L11 16L8 16L8 15L9 15L9 14L8 14L8 10L7 10L7 11L4 11L4 10L2 10L2 11L1 11L1 12L2 12L2 11L3 11L3 13L1 13L1 14L2 14L2 16L3 16L3 15L4 15L4 17L6 17L6 18L7 18L7 17L6 17L6 16L8 16L8 17L10 17L10 18L11 18L11 21L10 21L10 22L11 22L11 21L12 21L12 22L13 22L13 23L12 23L12 25L13 25L13 23L14 23L14 25L15 25L15 26L14 26L14 27L16 27L16 28L17 28L17 29L18 29L18 28L17 28L17 27L19 27L19 28L21 28L21 29L22 29L22 28L23 28L23 27L24 27L24 26L25 26L25 25L26 25L26 26L28 26L28 25L27 25L27 24L28 24L28 22L29 22L29 21L30 21L30 24L31 24L31 22L32 22L32 25L33 25L33 23L34 23L34 22L35 22L35 24L36 24L36 21L35 21L35 19L36 19L36 18L34 18L34 19L33 19L33 15L32 15L32 14L31 14L31 16L30 16L30 17L32 17L32 19L31 19L31 20L30 20L30 18L29 18L29 19L27 19L27 17L28 17L28 16L27 16L27 17L26 17L26 18L25 18L25 17L23 17L23 16L26 16L26 15L25 15L25 14L26 14L26 13L27 13L27 12L28 12L28 10L27 10L27 9L25 9L25 10L24 10L24 11L23 11L23 10L21 10L21 9L20 9L20 8L22 8L22 4L23 4L23 3L22 3L22 2ZM10 4L10 6L11 6L11 7L12 7L12 8L13 8L13 7L14 7L14 6L13 6L13 4L12 4L12 5L11 5L11 4ZM24 5L24 6L23 6L23 8L24 8L24 6L25 6L25 7L26 7L26 5ZM27 5L27 7L28 7L28 5ZM12 6L12 7L13 7L13 6ZM16 6L16 7L17 7L17 6ZM20 6L20 7L21 7L21 6ZM17 8L17 9L18 9L18 8ZM20 10L20 12L19 12L19 13L18 13L18 15L19 15L19 16L20 16L20 15L21 15L21 16L23 16L23 13L22 13L22 12L21 12L21 10ZM24 11L24 14L25 14L25 13L26 13L26 11ZM4 12L4 13L3 13L3 14L4 14L4 13L5 13L5 14L6 14L6 15L8 15L8 14L6 14L6 13L7 13L7 12L6 12L6 13L5 13L5 12ZM20 12L20 13L19 13L19 15L20 15L20 14L21 14L21 15L22 15L22 13L21 13L21 12ZM14 15L14 17L13 17L13 18L14 18L14 17L15 17L15 15ZM11 16L11 17L12 17L12 16ZM16 16L16 17L17 17L17 19L16 19L16 18L15 18L15 21L14 21L14 19L13 19L13 20L12 20L12 21L13 21L13 22L14 22L14 23L15 23L15 22L16 22L16 24L15 24L15 25L16 25L16 26L17 26L17 25L16 25L16 24L17 24L17 22L18 22L18 23L19 23L19 24L18 24L18 25L20 25L20 23L19 23L19 20L20 20L20 21L21 21L21 22L22 22L22 21L23 21L23 20L24 20L24 22L23 22L23 23L22 23L22 25L21 25L21 26L19 26L19 27L22 27L22 25L23 25L23 23L25 23L25 24L27 24L27 21L26 21L26 20L24 20L24 19L23 19L23 18L22 18L22 19L23 19L23 20L20 20L20 19L21 19L21 17L19 17L19 18L18 18L18 16ZM0 18L0 20L1 20L1 21L0 21L0 22L1 22L1 21L2 21L2 20L1 20L1 18ZM8 19L8 20L7 20L7 21L6 21L6 22L5 22L5 23L6 23L6 24L7 24L7 23L8 23L8 21L9 21L9 19ZM18 19L18 20L19 20L19 19ZM32 19L32 21L34 21L34 20L33 20L33 19ZM16 20L16 22L17 22L17 20ZM25 21L25 23L26 23L26 21ZM6 22L6 23L7 23L7 22ZM9 23L9 26L10 26L10 25L11 25L11 24L10 24L10 23ZM0 24L0 25L1 25L1 24ZM6 25L6 26L7 26L7 25ZM3 26L3 27L5 27L5 26ZM12 26L12 29L13 29L13 26ZM25 27L25 28L26 28L26 27ZM27 27L27 28L28 28L28 27ZM29 27L29 28L30 28L30 27ZM34 27L34 28L35 28L35 27ZM36 27L36 28L37 28L37 27ZM10 28L10 29L11 29L11 28ZM27 29L27 31L28 31L28 29ZM29 29L29 32L32 32L32 29ZM23 30L23 31L24 31L24 30ZM30 30L30 31L31 31L31 30ZM13 32L13 33L14 33L14 32ZM35 32L35 33L37 33L37 32ZM25 33L25 35L23 35L23 37L25 37L25 35L26 35L26 34L27 34L27 33ZM31 34L31 35L32 35L32 34ZM27 35L27 36L26 36L26 37L28 37L28 35ZM0 0L0 7L7 7L7 0ZM1 1L1 6L6 6L6 1ZM2 2L2 5L5 5L5 2ZM30 0L30 7L37 7L37 0ZM31 1L31 6L36 6L36 1ZM32 2L32 5L35 5L35 2ZM0 30L0 37L7 37L7 30ZM1 31L1 36L6 36L6 31ZM2 32L2 35L5 35L5 32Z" fill="#000000"/></g></g></svg>
