<?xml version="1.0" encoding="UTF-8"?>
<svg xmlns="http://www.w3.org/2000/svg" version="1.1" width="300" height="300" viewBox="0 0 300 300"><rect x="0" y="0" width="300" height="300" fill="#ffffff"/><g transform="scale(6.122)"><g transform="translate(0,0)"><path fill-rule="evenodd" d="M9 0L9 1L8 1L8 3L9 3L9 6L8 6L8 7L9 7L9 12L6 12L6 11L8 11L8 10L6 10L6 11L3 11L3 10L5 10L5 9L7 9L7 8L5 8L5 9L4 9L4 8L1 8L1 10L0 10L0 11L2 11L2 12L0 12L0 14L1 14L1 15L0 15L0 18L1 18L1 19L2 19L2 20L3 20L3 18L6 18L6 19L5 19L5 20L4 20L4 21L5 21L5 20L6 20L6 21L7 21L7 22L4 22L4 26L3 26L3 24L2 24L2 26L1 26L1 27L2 27L2 26L3 26L3 27L5 27L5 28L2 28L2 29L0 29L0 33L2 33L2 32L4 32L4 29L5 29L5 28L6 28L6 29L7 29L7 28L6 28L6 27L8 27L8 28L9 28L9 27L10 27L10 25L11 25L11 26L13 26L13 27L14 27L14 29L15 29L15 30L17 30L17 32L19 32L19 34L18 34L18 33L17 33L17 34L16 34L16 31L14 31L14 30L12 30L12 31L13 31L13 32L12 32L12 33L14 33L14 34L13 34L13 35L14 35L14 36L13 36L13 37L14 37L14 38L13 38L13 41L12 41L12 42L11 42L11 41L10 41L10 43L8 43L8 44L12 44L12 46L18 46L18 47L17 47L17 48L16 48L16 47L11 47L11 49L12 49L12 48L15 48L15 49L18 49L18 48L20 48L20 49L21 49L21 46L23 46L23 47L22 47L22 48L24 48L24 49L25 49L25 47L24 47L24 46L23 46L23 45L28 45L28 46L29 46L29 49L30 49L30 48L31 48L31 49L32 49L32 48L33 48L33 49L34 49L34 48L35 48L35 49L38 49L38 48L39 48L39 49L40 49L40 48L41 48L41 49L42 49L42 48L41 48L41 47L42 47L42 46L41 46L41 47L38 47L38 48L37 48L37 47L36 47L36 48L35 48L35 46L38 46L38 45L39 45L39 44L38 44L38 43L37 43L37 41L35 41L35 39L34 39L34 41L33 41L33 39L32 39L32 40L30 40L30 39L31 39L31 38L34 38L34 37L32 37L32 36L33 36L33 35L34 35L34 36L35 36L35 38L36 38L36 37L38 37L38 39L37 39L37 40L39 40L39 37L40 37L40 38L41 38L41 39L42 39L42 38L43 38L43 39L45 39L45 38L47 38L47 39L46 39L46 40L47 40L47 39L48 39L48 38L49 38L49 36L48 36L48 35L46 35L46 34L44 34L44 33L46 33L46 32L45 32L45 31L44 31L44 29L45 29L45 30L46 30L46 31L47 31L47 33L48 33L48 31L49 31L49 29L48 29L48 27L47 27L47 28L44 28L44 27L46 27L46 25L47 25L47 24L49 24L49 23L45 23L45 22L43 22L43 21L41 21L41 22L40 22L40 20L42 20L42 19L43 19L43 20L44 20L44 19L45 19L45 21L46 21L46 22L47 22L47 21L46 21L46 18L45 18L45 16L46 16L46 15L48 15L48 14L49 14L49 13L48 13L48 12L49 12L49 11L48 11L48 10L47 10L47 9L48 9L48 8L46 8L46 9L44 9L44 10L43 10L43 9L42 9L42 11L43 11L43 12L41 12L41 11L40 11L40 10L39 10L39 12L38 12L38 10L36 10L36 11L35 11L35 10L34 10L34 9L37 9L37 8L40 8L40 7L41 7L41 6L40 6L40 7L39 7L39 5L38 5L38 2L39 2L39 4L40 4L40 3L41 3L41 0L40 0L40 1L38 1L38 0L35 0L35 1L34 1L34 2L32 2L32 1L31 1L31 0L29 0L29 1L28 1L28 2L27 2L27 0L26 0L26 2L25 2L25 0L21 0L21 2L20 2L20 3L19 3L19 2L18 2L18 1L19 1L19 0L16 0L16 1L17 1L17 2L16 2L16 3L15 3L15 4L14 4L14 1L15 1L15 0ZM10 1L10 2L9 2L9 3L10 3L10 6L9 6L9 7L10 7L10 9L11 9L11 11L10 11L10 12L9 12L9 15L8 15L8 13L6 13L6 12L5 12L5 14L4 14L4 12L3 12L3 13L2 13L2 16L1 16L1 17L2 17L2 18L3 18L3 17L6 17L6 18L9 18L9 17L10 17L10 16L9 16L9 15L10 15L10 12L11 12L11 13L12 13L12 14L13 14L13 15L12 15L12 16L11 16L11 18L10 18L10 19L13 19L13 20L11 20L11 21L10 21L10 20L9 20L9 19L8 19L8 20L7 20L7 19L6 19L6 20L7 20L7 21L8 21L8 20L9 20L9 24L13 24L13 25L14 25L14 24L13 24L13 23L14 23L14 21L15 21L15 24L16 24L16 25L15 25L15 26L14 26L14 27L15 27L15 28L16 28L16 26L18 26L18 25L19 25L19 27L20 27L20 28L19 28L19 29L18 29L18 31L19 31L19 32L20 32L20 31L19 31L19 30L22 30L22 31L21 31L21 34L25 34L25 33L24 33L24 32L26 32L26 34L27 34L27 35L28 35L28 37L25 37L25 39L24 39L24 35L21 35L21 36L19 36L19 35L17 35L17 36L15 36L15 39L16 39L16 40L17 40L17 41L15 41L15 40L14 40L14 41L13 41L13 42L14 42L14 43L12 43L12 44L13 44L13 45L16 45L16 44L17 44L17 45L19 45L19 46L20 46L20 44L19 44L19 43L18 43L18 42L19 42L19 41L20 41L20 43L22 43L22 39L20 39L20 38L21 38L21 36L22 36L22 38L23 38L23 40L25 40L25 39L26 39L26 38L28 38L28 37L29 37L29 36L31 36L31 35L32 35L32 34L33 34L33 33L34 33L34 34L35 34L35 33L37 33L37 34L36 34L36 35L35 35L35 36L36 36L36 35L37 35L37 36L38 36L38 37L39 37L39 36L38 36L38 35L39 35L39 33L42 33L42 35L41 35L41 34L40 34L40 37L42 37L42 35L43 35L43 36L44 36L44 35L43 35L43 33L42 33L42 31L41 31L41 30L43 30L43 27L42 27L42 28L41 28L41 30L40 30L40 25L39 25L39 24L40 24L40 22L39 22L39 21L38 21L38 20L39 20L39 17L40 17L40 18L41 18L41 19L42 19L42 18L41 18L41 16L39 16L39 15L41 15L41 13L39 13L39 15L37 15L37 14L38 14L38 12L37 12L37 13L36 13L36 12L35 12L35 13L34 13L34 11L33 11L33 10L32 10L32 6L33 6L33 7L34 7L34 6L35 6L35 7L36 7L36 8L37 8L37 7L38 7L38 5L37 5L37 7L36 7L36 5L35 5L35 4L34 4L34 5L32 5L32 6L31 6L31 7L30 7L30 6L29 6L29 5L31 5L31 4L33 4L33 3L30 3L30 4L29 4L29 5L28 5L28 4L27 4L27 5L28 5L28 6L27 6L27 7L28 7L28 8L31 8L31 10L32 10L32 11L33 11L33 12L32 12L32 15L34 15L34 17L33 17L33 18L32 18L32 16L30 16L30 15L29 15L29 18L28 18L28 17L26 17L26 18L28 18L28 21L24 21L24 19L25 19L25 17L24 17L24 18L22 18L22 19L23 19L23 21L22 21L22 22L23 22L23 21L24 21L24 22L28 22L28 23L27 23L27 26L28 26L28 27L29 27L29 28L28 28L28 29L30 29L30 30L27 30L27 31L28 31L28 32L26 32L26 31L25 31L25 30L24 30L24 28L25 28L25 29L26 29L26 28L27 28L27 27L24 27L24 28L23 28L23 29L20 29L20 28L21 28L21 27L22 27L22 25L19 25L19 24L18 24L18 20L19 20L19 23L20 23L20 22L21 22L21 19L19 19L19 16L18 16L18 15L20 15L20 17L21 17L21 16L23 16L23 15L24 15L24 16L25 16L25 15L26 15L26 16L28 16L28 15L27 15L27 14L28 14L28 13L27 13L27 14L25 14L25 15L24 15L24 13L26 13L26 12L27 12L27 11L24 11L24 12L23 12L23 14L22 14L22 13L21 13L21 14L22 14L22 15L20 15L20 12L22 12L22 11L23 11L23 10L24 10L24 9L23 9L23 10L22 10L22 11L21 11L21 8L22 8L22 4L23 4L23 3L25 3L25 2L23 2L23 1L22 1L22 2L21 2L21 7L20 7L20 6L19 6L19 5L20 5L20 4L19 4L19 3L18 3L18 4L17 4L17 7L18 7L18 6L19 6L19 8L16 8L16 4L15 4L15 8L14 8L14 4L13 4L13 2L12 2L12 1ZM35 1L35 2L34 2L34 3L36 3L36 2L38 2L38 1ZM22 2L22 3L23 3L23 2ZM26 2L26 3L27 3L27 2ZM28 2L28 3L29 3L29 2ZM11 3L11 4L12 4L12 3ZM18 4L18 5L19 5L19 4ZM11 5L11 6L10 6L10 7L11 7L11 9L12 9L12 10L13 10L13 9L14 9L14 8L13 8L13 5ZM23 5L23 8L26 8L26 5ZM11 6L11 7L12 7L12 6ZM24 6L24 7L25 7L25 6ZM28 6L28 7L29 7L29 6ZM12 8L12 9L13 9L13 8ZM2 9L2 10L3 10L3 9ZM16 9L16 10L17 10L17 11L14 11L14 12L16 12L16 13L13 13L13 12L12 12L12 11L11 11L11 12L12 12L12 13L13 13L13 14L16 14L16 15L15 15L15 17L16 17L16 18L17 18L17 19L15 19L15 18L14 18L14 16L12 16L12 18L13 18L13 19L14 19L14 20L13 20L13 21L14 21L14 20L17 20L17 19L18 19L18 18L17 18L17 17L18 17L18 16L17 16L17 15L18 15L18 14L19 14L19 12L20 12L20 11L19 11L19 10L20 10L20 9L19 9L19 10L17 10L17 9ZM25 9L25 10L28 10L28 11L29 11L29 10L30 10L30 9ZM45 10L45 12L44 12L44 14L43 14L43 13L42 13L42 14L43 14L43 15L42 15L42 16L43 16L43 15L44 15L44 14L45 14L45 15L46 15L46 14L47 14L47 13L46 13L46 11L47 11L47 12L48 12L48 11L47 11L47 10ZM17 11L17 13L16 13L16 14L17 14L17 13L18 13L18 11ZM30 11L30 12L29 12L29 13L30 13L30 14L31 14L31 13L30 13L30 12L31 12L31 11ZM33 13L33 14L34 14L34 13ZM6 14L6 15L5 15L5 16L6 16L6 17L7 17L7 16L8 16L8 17L9 17L9 16L8 16L8 15L7 15L7 14ZM35 14L35 15L36 15L36 14ZM3 15L3 16L2 16L2 17L3 17L3 16L4 16L4 15ZM6 15L6 16L7 16L7 15ZM35 16L35 17L34 17L34 18L35 18L35 20L33 20L33 21L32 21L32 20L31 20L31 18L29 18L29 19L30 19L30 20L29 20L29 22L30 22L30 23L28 23L28 26L29 26L29 24L30 24L30 25L31 25L31 26L30 26L30 29L33 29L33 31L32 31L32 30L31 30L31 31L30 31L30 32L28 32L28 33L30 33L30 35L31 35L31 34L32 34L32 32L34 32L34 33L35 33L35 32L34 32L34 31L35 31L35 30L36 30L36 31L37 31L37 33L38 33L38 32L41 32L41 31L40 31L40 30L38 30L38 31L37 31L37 30L36 30L36 29L33 29L33 27L34 27L34 25L35 25L35 28L36 28L36 27L39 27L39 25L38 25L38 26L36 26L36 25L37 25L37 23L36 23L36 24L34 24L34 23L35 23L35 22L37 22L37 21L35 21L35 20L38 20L38 17L39 17L39 16L37 16L37 18L36 18L36 16ZM48 16L48 18L47 18L47 19L49 19L49 16ZM43 17L43 18L44 18L44 17ZM0 20L0 22L1 22L1 20ZM30 20L30 21L31 21L31 22L32 22L32 21L31 21L31 20ZM11 21L11 22L12 22L12 21ZM16 21L16 23L17 23L17 21ZM33 21L33 23L34 23L34 22L35 22L35 21ZM2 22L2 23L3 23L3 22ZM5 23L5 26L8 26L8 23ZM23 23L23 26L26 26L26 23ZM30 23L30 24L31 24L31 23ZM41 23L41 26L44 26L44 23ZM0 24L0 25L1 25L1 24ZM6 24L6 25L7 25L7 24ZM24 24L24 25L25 25L25 24ZM32 24L32 26L31 26L31 28L32 28L32 26L33 26L33 25L34 25L34 24ZM42 24L42 25L43 25L43 24ZM48 25L48 26L49 26L49 25ZM20 26L20 27L21 27L21 26ZM11 27L11 28L10 28L10 29L8 29L8 31L9 31L9 32L8 32L8 34L6 34L6 33L7 33L7 32L5 32L5 33L4 33L4 35L3 35L3 34L1 34L1 35L2 35L2 36L0 36L0 37L1 37L1 40L0 40L0 41L3 41L3 40L4 40L4 39L2 39L2 38L4 38L4 37L7 37L7 38L5 38L5 39L7 39L7 40L6 40L6 41L8 41L8 42L9 42L9 40L11 40L11 38L12 38L12 35L11 35L11 36L6 36L6 35L8 35L8 34L9 34L9 35L10 35L10 34L11 34L11 33L10 33L10 32L11 32L11 31L10 31L10 29L13 29L13 28L12 28L12 27ZM17 27L17 28L18 28L18 27ZM46 29L46 30L47 30L47 31L48 31L48 30L47 30L47 29ZM1 30L1 32L2 32L2 30ZM6 30L6 31L7 31L7 30ZM23 30L23 31L22 31L22 32L23 32L23 31L24 31L24 30ZM43 31L43 32L44 32L44 31ZM30 32L30 33L31 33L31 32ZM9 33L9 34L10 34L10 33ZM15 34L15 35L16 35L16 34ZM37 34L37 35L38 35L38 34ZM25 35L25 36L26 36L26 35ZM45 35L45 36L46 36L46 35ZM17 36L17 37L16 37L16 38L17 38L17 40L18 40L18 41L17 41L17 42L18 42L18 41L19 41L19 40L20 40L20 41L21 41L21 40L20 40L20 39L19 39L19 38L20 38L20 37L19 37L19 36ZM47 36L47 37L48 37L48 36ZM8 37L8 40L9 40L9 37ZM10 37L10 38L11 38L11 37ZM17 37L17 38L18 38L18 37ZM30 37L30 38L31 38L31 37ZM43 37L43 38L44 38L44 37ZM18 39L18 40L19 40L19 39ZM28 40L28 41L27 41L27 44L28 44L28 43L29 43L29 44L30 44L30 45L32 45L32 46L33 46L33 48L34 48L34 46L35 46L35 45L34 45L34 44L33 44L33 41L32 41L32 44L31 44L31 43L30 43L30 42L28 42L28 41L29 41L29 40ZM40 40L40 41L38 41L38 42L40 42L40 45L44 45L44 46L43 46L43 48L45 48L45 49L49 49L49 48L47 48L47 47L45 47L45 45L46 45L46 46L49 46L49 40L48 40L48 42L47 42L47 41L45 41L45 40ZM23 41L23 44L26 44L26 41ZM34 41L34 43L35 43L35 41ZM41 41L41 44L44 44L44 41ZM24 42L24 43L25 43L25 42ZM42 42L42 43L43 43L43 42ZM46 42L46 45L47 45L47 42ZM14 43L14 44L15 44L15 43ZM36 44L36 45L38 45L38 44ZM8 45L8 48L9 48L9 49L10 49L10 48L9 48L9 46L10 46L10 45ZM26 46L26 47L27 47L27 46ZM27 48L27 49L28 49L28 48ZM0 0L0 7L7 7L7 0ZM1 1L1 6L6 6L6 1ZM2 2L2 5L5 5L5 2ZM42 0L42 7L49 7L49 0ZM43 1L43 6L48 6L48 1ZM44 2L44 5L47 5L47 2ZM0 42L0 49L7 49L7 42ZM1 43L1 48L6 48L6 43ZM2 44L2 47L5 47L5 44Z" fill="#000000"/></g></g></svg>
