<?xml version="1.0" encoding="UTF-8"?>
<svg xmlns="http://www.w3.org/2000/svg" version="1.1" width="300" height="300" viewBox="0 0 300 300"><rect x="0" y="0" width="300" height="300" fill="#ffffff"/><g transform="scale(8.108)"><g transform="translate(0,0)"><path fill-rule="evenodd" d="M8 0L8 5L10 5L10 8L9 8L9 6L8 6L8 8L6 8L6 9L5 9L5 8L4 8L4 9L3 9L3 8L1 8L1 9L0 9L0 10L1 10L1 11L0 11L0 12L1 12L1 15L0 15L0 17L1 17L1 15L4 15L4 14L3 14L3 13L2 13L2 12L5 12L5 14L6 14L6 15L5 15L5 16L2 16L2 17L4 17L4 18L2 18L2 19L1 19L1 18L0 18L0 20L1 20L1 22L0 22L0 23L1 23L1 22L2 22L2 21L3 21L3 20L4 20L4 18L5 18L5 19L8 19L8 20L6 20L6 21L4 21L4 22L3 22L3 23L4 23L4 24L2 24L2 25L1 25L1 24L0 24L0 25L1 25L1 26L0 26L0 27L1 27L1 28L0 28L0 29L1 29L1 28L2 28L2 29L3 29L3 28L4 28L4 29L5 29L5 28L6 28L6 29L8 29L8 31L9 31L9 32L8 32L8 33L9 33L9 34L8 34L8 36L9 36L9 37L12 37L12 36L13 36L13 37L14 37L14 36L15 36L15 37L19 37L19 36L20 36L20 35L18 35L18 36L15 36L15 34L17 34L17 33L18 33L18 32L19 32L19 34L20 34L20 32L19 32L19 31L20 31L20 30L21 30L21 31L22 31L22 30L21 30L21 28L20 28L20 27L19 27L19 29L20 29L20 30L19 30L19 31L18 31L18 32L17 32L17 33L16 33L16 31L15 31L15 30L14 30L14 28L13 28L13 30L12 30L12 32L11 32L11 33L10 33L10 30L11 30L11 29L12 29L12 27L13 27L13 25L15 25L15 26L14 26L14 27L15 27L15 29L16 29L16 27L15 27L15 26L17 26L17 27L18 27L18 26L19 26L19 25L17 25L17 24L14 24L14 23L15 23L15 22L14 22L14 23L13 23L13 22L12 22L12 21L11 21L11 20L10 20L10 19L11 19L11 18L12 18L12 17L13 17L13 18L14 18L14 19L13 19L13 21L14 21L14 19L16 19L16 18L14 18L14 17L15 17L15 14L14 14L14 17L13 17L13 13L15 13L15 12L14 12L14 10L16 10L16 11L18 11L18 12L17 12L17 13L16 13L16 17L17 17L17 16L18 16L18 17L19 17L19 19L18 19L18 18L17 18L17 19L18 19L18 20L16 20L16 22L17 22L17 23L18 23L18 22L19 22L19 23L20 23L20 26L21 26L21 27L22 27L22 26L21 26L21 25L22 25L22 24L24 24L24 23L20 23L20 22L19 22L19 21L21 21L21 22L22 22L22 21L23 21L23 22L24 22L24 21L23 21L23 20L24 20L24 19L23 19L23 20L22 20L22 19L20 19L20 18L24 18L24 17L23 17L23 10L22 10L22 8L23 8L23 9L24 9L24 10L25 10L25 11L24 11L24 12L25 12L25 15L24 15L24 16L25 16L25 18L26 18L26 19L25 19L25 20L26 20L26 21L25 21L25 22L26 22L26 23L25 23L25 24L26 24L26 26L27 26L27 27L23 27L23 28L25 28L25 29L26 29L26 28L27 28L27 31L23 31L23 32L24 32L24 33L23 33L23 34L22 34L22 33L21 33L21 34L22 34L22 35L21 35L21 36L22 36L22 37L25 37L25 35L26 35L26 34L27 34L27 35L28 35L28 37L31 37L31 36L32 36L32 37L34 37L34 34L33 34L33 31L34 31L34 30L33 30L33 28L32 28L32 27L33 27L33 26L32 26L32 25L34 25L34 26L35 26L35 25L36 25L36 27L37 27L37 25L36 25L36 24L37 24L37 23L36 23L36 21L37 21L37 20L36 20L36 19L37 19L37 16L36 16L36 15L37 15L37 12L34 12L34 11L35 11L35 10L34 10L34 9L36 9L36 11L37 11L37 8L32 8L32 10L33 10L33 11L32 11L32 12L31 12L31 10L30 10L30 9L31 9L31 8L30 8L30 9L29 9L29 10L30 10L30 11L29 11L29 12L28 12L28 11L26 11L26 9L25 9L25 6L24 6L24 8L23 8L23 5L21 5L21 4L20 4L20 5L21 5L21 6L20 6L20 7L19 7L19 3L17 3L17 2L18 2L18 1L19 1L19 2L21 2L21 0L20 0L20 1L19 1L19 0L18 0L18 1L17 1L17 0L16 0L16 4L13 4L13 1L12 1L12 0L10 0L10 1L11 1L11 2L10 2L10 4L9 4L9 0ZM14 0L14 2L15 2L15 0ZM22 0L22 1L23 1L23 0ZM25 0L25 1L26 1L26 2L25 2L25 5L26 5L26 7L27 7L27 10L28 10L28 7L29 7L29 6L28 6L28 5L29 5L29 3L28 3L28 1L29 1L29 0L27 0L27 1L26 1L26 0ZM23 2L23 3L24 3L24 2ZM11 3L11 7L12 7L12 9L11 9L11 10L10 10L10 9L9 9L9 8L8 8L8 9L6 9L6 10L7 10L7 11L6 11L6 12L7 12L7 11L8 11L8 12L10 12L10 13L9 13L9 14L8 14L8 13L6 13L6 14L8 14L8 15L9 15L9 14L10 14L10 15L11 15L11 16L12 16L12 13L11 13L11 11L12 11L12 9L13 9L13 10L14 10L14 9L15 9L15 8L16 8L16 9L17 9L17 10L18 10L18 11L19 11L19 10L20 10L20 11L22 11L22 10L20 10L20 9L21 9L21 7L22 7L22 6L21 6L21 7L20 7L20 8L19 8L19 7L18 7L18 4L17 4L17 5L14 5L14 6L13 6L13 4L12 4L12 3ZM12 6L12 7L13 7L13 6ZM14 6L14 7L15 7L15 6ZM16 6L16 8L17 8L17 6ZM27 6L27 7L28 7L28 6ZM18 8L18 9L19 9L19 8ZM1 9L1 10L2 10L2 11L4 11L4 10L2 10L2 9ZM8 10L8 11L10 11L10 10ZM18 12L18 13L17 13L17 15L19 15L19 13L20 13L20 17L22 17L22 16L21 16L21 15L22 15L22 14L21 14L21 13L22 13L22 12L21 12L21 13L20 13L20 12ZM27 12L27 13L26 13L26 14L27 14L27 17L26 17L26 18L27 18L27 23L28 23L28 24L29 24L29 28L31 28L31 25L30 25L30 24L33 24L33 23L34 23L34 25L35 25L35 19L34 19L34 22L33 22L33 15L32 15L32 14L33 14L33 12L32 12L32 14L30 14L30 12L29 12L29 13L28 13L28 12ZM27 13L27 14L28 14L28 16L29 16L29 15L30 15L30 14L28 14L28 13ZM34 13L34 14L35 14L35 15L34 15L34 18L35 18L35 15L36 15L36 13ZM6 15L6 16L7 16L7 17L5 17L5 18L7 18L7 17L10 17L10 16L7 16L7 15ZM31 15L31 16L30 16L30 18L32 18L32 17L31 17L31 16L32 16L32 15ZM8 18L8 19L9 19L9 18ZM19 19L19 20L20 20L20 19ZM28 19L28 20L29 20L29 22L30 22L30 23L31 23L31 22L32 22L32 23L33 23L33 22L32 22L32 20L30 20L30 19ZM8 20L8 21L6 21L6 22L8 22L8 23L6 23L6 24L5 24L5 26L4 26L4 25L2 25L2 26L1 26L1 27L2 27L2 28L3 28L3 27L6 27L6 28L7 28L7 27L6 27L6 26L10 26L10 27L11 27L11 26L12 26L12 25L13 25L13 23L11 23L11 21L9 21L9 20ZM8 21L8 22L9 22L9 23L8 23L8 24L6 24L6 25L10 25L10 26L11 26L11 25L12 25L12 24L11 24L11 23L10 23L10 22L9 22L9 21ZM17 21L17 22L18 22L18 21ZM10 24L10 25L11 25L11 24ZM8 27L8 28L9 28L9 29L11 29L11 28L9 28L9 27ZM27 27L27 28L28 28L28 27ZM34 27L34 29L36 29L36 31L37 31L37 28L35 28L35 27ZM17 28L17 29L18 29L18 28ZM29 29L29 32L32 32L32 29ZM13 30L13 32L12 32L12 33L11 33L11 34L9 34L9 36L12 36L12 34L13 34L13 36L14 36L14 34L15 34L15 31L14 31L14 30ZM30 30L30 31L31 31L31 30ZM27 31L27 33L28 33L28 34L29 34L29 33L28 33L28 31ZM35 32L35 34L36 34L36 35L35 35L35 37L37 37L37 36L36 36L36 35L37 35L37 33L36 33L36 32ZM13 33L13 34L14 34L14 33ZM25 33L25 34L26 34L26 33ZM30 33L30 35L32 35L32 36L33 36L33 35L32 35L32 33ZM23 35L23 36L24 36L24 35ZM0 0L0 7L7 7L7 0ZM1 1L1 6L6 6L6 1ZM2 2L2 5L5 5L5 2ZM30 0L30 7L37 7L37 0ZM31 1L31 6L36 6L36 1ZM32 2L32 5L35 5L35 2ZM0 30L0 37L7 37L7 30ZM1 31L1 36L6 36L6 31ZM2 32L2 35L5 35L5 32Z" fill="#000000"/></g></g></svg>
