<?xml version="1.0" encoding="UTF-8"?>
<svg xmlns="http://www.w3.org/2000/svg" version="1.1" width="300" height="300" viewBox="0 0 300 300"><rect x="0" y="0" width="300" height="300" fill="#ffffff"/><g transform="scale(6.122)"><g transform="translate(0,0)"><path fill-rule="evenodd" d="M8 0L8 1L9 1L9 0ZM11 0L11 1L10 1L10 2L8 2L8 4L9 4L9 5L8 5L8 8L5 8L5 9L4 9L4 8L3 8L3 9L2 9L2 8L1 8L1 10L0 10L0 11L2 11L2 12L1 12L1 13L0 13L0 14L1 14L1 13L3 13L3 10L5 10L5 11L4 11L4 13L8 13L8 12L9 12L9 13L10 13L10 12L9 12L9 11L8 11L8 10L10 10L10 11L12 11L12 12L11 12L11 13L12 13L12 12L13 12L13 14L15 14L15 13L16 13L16 12L15 12L15 11L14 11L14 8L16 8L16 7L17 7L17 6L18 6L18 8L17 8L17 10L16 10L16 11L17 11L17 13L20 13L20 14L21 14L21 15L22 15L22 13L21 13L21 12L24 12L24 11L25 11L25 10L24 10L24 9L27 9L27 10L28 10L28 11L29 11L29 13L31 13L31 14L33 14L33 15L32 15L32 16L31 16L31 15L30 15L30 14L28 14L28 13L27 13L27 15L28 15L28 16L26 16L26 17L25 17L25 20L24 20L24 19L23 19L23 18L24 18L24 17L23 17L23 16L20 16L20 15L19 15L19 14L18 14L18 15L17 15L17 14L16 14L16 16L17 16L17 17L18 17L18 18L16 18L16 19L15 19L15 21L12 21L12 22L13 22L13 24L12 24L12 23L9 23L9 22L8 22L8 21L9 21L9 19L8 19L8 18L9 18L9 17L10 17L10 19L11 19L11 20L10 20L10 21L11 21L11 20L12 20L12 19L14 19L14 18L15 18L15 16L14 16L14 15L13 15L13 16L14 16L14 17L12 17L12 16L11 16L11 15L12 15L12 14L11 14L11 15L10 15L10 14L5 14L5 15L10 15L10 16L6 16L6 17L8 17L8 18L6 18L6 19L7 19L7 20L5 20L5 16L4 16L4 14L3 14L3 16L2 16L2 15L1 15L1 16L0 16L0 17L1 17L1 19L2 19L2 18L3 18L3 20L4 20L4 21L7 21L7 22L4 22L4 23L3 23L3 22L2 22L2 20L1 20L1 22L0 22L0 23L2 23L2 24L3 24L3 25L2 25L2 26L1 26L1 27L0 27L0 28L3 28L3 29L2 29L2 30L1 30L1 29L0 29L0 32L1 32L1 31L2 31L2 33L3 33L3 32L5 32L5 29L7 29L7 30L6 30L6 31L7 31L7 30L8 30L8 32L6 32L6 33L9 33L9 32L10 32L10 34L11 34L11 33L12 33L12 32L10 32L10 31L11 31L11 29L10 29L10 26L11 26L11 27L12 27L12 28L13 28L13 26L14 26L14 25L13 25L13 24L14 24L14 23L16 23L16 22L17 22L17 23L18 23L18 24L19 24L19 25L18 25L18 27L17 27L17 24L16 24L16 25L15 25L15 26L16 26L16 28L15 28L15 27L14 27L14 29L13 29L13 30L12 30L12 31L14 31L14 32L15 32L15 33L14 33L14 35L13 35L13 34L12 34L12 35L13 35L13 36L12 36L12 37L13 37L13 38L14 38L14 39L12 39L12 38L10 38L10 37L8 37L8 36L9 36L9 35L8 35L8 34L6 34L6 35L5 35L5 33L4 33L4 34L2 34L2 35L1 35L1 33L0 33L0 36L2 36L2 35L5 35L5 36L4 36L4 38L5 38L5 39L7 39L7 40L6 40L6 41L7 41L7 40L8 40L8 44L9 44L9 43L10 43L10 41L11 41L11 43L12 43L12 46L11 46L11 47L8 47L8 48L10 48L10 49L12 49L12 48L11 48L11 47L12 47L12 46L13 46L13 48L14 48L14 49L15 49L15 48L16 48L16 46L15 46L15 45L19 45L19 44L17 44L17 43L16 43L16 41L18 41L18 43L19 43L19 42L20 42L20 45L21 45L21 46L19 46L19 47L18 47L18 46L17 46L17 49L18 49L18 48L19 48L19 47L20 47L20 48L21 48L21 49L23 49L23 48L24 48L24 49L25 49L25 47L26 47L26 49L27 49L27 48L28 48L28 49L30 49L30 48L31 48L31 49L33 49L33 48L34 48L34 49L40 49L40 48L41 48L41 47L43 47L43 48L44 48L44 49L45 49L45 48L44 48L44 47L45 47L45 45L46 45L46 46L47 46L47 47L49 47L49 46L47 46L47 45L46 45L46 44L49 44L49 41L48 41L48 40L49 40L49 36L48 36L48 35L49 35L49 33L48 33L48 32L47 32L47 31L46 31L46 30L47 30L47 29L48 29L48 31L49 31L49 28L45 28L45 29L43 29L43 27L46 27L46 26L47 26L47 27L49 27L49 25L48 25L48 24L49 24L49 20L47 20L47 19L49 19L49 17L48 17L48 16L49 16L49 13L48 13L48 12L49 12L49 8L48 8L48 12L47 12L47 13L46 13L46 10L47 10L47 8L45 8L45 9L46 9L46 10L44 10L44 8L41 8L41 6L40 6L40 8L41 8L41 11L42 11L42 12L41 12L41 13L39 13L39 12L38 12L38 11L37 11L37 10L38 10L38 9L37 9L37 8L35 8L35 5L34 5L34 4L35 4L35 3L36 3L36 2L35 2L35 3L34 3L34 1L38 1L38 2L39 2L39 4L40 4L40 3L41 3L41 0L40 0L40 1L38 1L38 0L32 0L32 1L31 1L31 0L29 0L29 1L27 1L27 0L25 0L25 2L26 2L26 1L27 1L27 2L28 2L28 7L27 7L27 3L26 3L26 4L25 4L25 3L24 3L24 1L22 1L22 3L21 3L21 0L20 0L20 2L17 2L17 1L19 1L19 0L17 0L17 1L16 1L16 0L15 0L15 2L14 2L14 0ZM11 1L11 2L10 2L10 3L9 3L9 4L12 4L12 3L11 3L11 2L12 2L12 1ZM15 2L15 3L13 3L13 4L14 4L14 5L13 5L13 8L12 8L12 9L13 9L13 8L14 8L14 5L16 5L16 6L15 6L15 7L16 7L16 6L17 6L17 5L16 5L16 4L15 4L15 3L16 3L16 2ZM29 2L29 4L30 4L30 3L32 3L32 4L31 4L31 5L32 5L32 4L33 4L33 3L32 3L32 2ZM19 3L19 4L20 4L20 3ZM23 3L23 4L24 4L24 3ZM9 5L9 8L11 8L11 7L12 7L12 6L11 6L11 5ZM18 5L18 6L19 6L19 8L18 8L18 9L19 9L19 11L18 11L18 12L19 12L19 11L21 11L21 10L23 10L23 11L24 11L24 10L23 10L23 9L21 9L21 8L22 8L22 6L21 6L21 5L20 5L20 6L19 6L19 5ZM23 5L23 8L26 8L26 5ZM36 5L36 7L37 7L37 5ZM38 5L38 8L39 8L39 5ZM10 6L10 7L11 7L11 6ZM20 6L20 8L21 8L21 6ZM24 6L24 7L25 7L25 6ZM29 6L29 7L28 7L28 8L27 8L27 9L28 9L28 8L29 8L29 7L30 7L30 6ZM31 6L31 7L32 7L32 8L31 8L31 9L29 9L29 11L30 11L30 12L31 12L31 10L33 10L33 9L34 9L34 10L35 10L35 14L34 14L34 15L33 15L33 18L32 18L32 17L31 17L31 16L30 16L30 15L29 15L29 17L28 17L28 18L26 18L26 19L28 19L28 18L29 18L29 22L27 22L27 28L26 28L26 29L29 29L29 28L28 28L28 24L29 24L29 26L30 26L30 30L29 30L29 32L28 32L28 33L29 33L29 32L33 32L33 33L34 33L34 34L35 34L35 33L37 33L37 34L36 34L36 35L37 35L37 34L38 34L38 35L39 35L39 36L37 36L37 37L38 37L38 38L37 38L37 39L38 39L38 40L37 40L37 41L38 41L38 40L39 40L39 42L40 42L40 40L42 40L42 39L41 39L41 38L43 38L43 37L44 37L44 39L46 39L46 40L47 40L47 39L48 39L48 38L45 38L45 35L46 35L46 37L48 37L48 36L47 36L47 32L46 32L46 31L45 31L45 30L46 30L46 29L45 29L45 30L43 30L43 29L41 29L41 30L43 30L43 32L42 32L42 31L40 31L40 28L42 28L42 27L38 27L38 26L40 26L40 25L38 25L38 23L39 23L39 21L38 21L38 23L37 23L37 25L36 25L36 26L34 26L34 25L35 25L35 24L36 24L36 23L35 23L35 24L34 24L34 22L37 22L37 21L33 21L33 20L32 20L32 19L34 19L34 15L35 15L35 19L36 19L36 15L35 15L35 14L36 14L36 10L37 10L37 9L34 9L34 8L33 8L33 7L34 7L34 6L33 6L33 7L32 7L32 6ZM6 9L6 10L8 10L8 9ZM10 9L10 10L11 10L11 9ZM42 9L42 11L44 11L44 12L45 12L45 11L44 11L44 10L43 10L43 9ZM12 10L12 11L13 11L13 10ZM39 10L39 11L40 11L40 10ZM5 11L5 12L8 12L8 11ZM26 11L26 12L27 12L27 11ZM32 11L32 12L34 12L34 11ZM14 12L14 13L15 13L15 12ZM24 13L24 14L23 14L23 15L24 15L24 16L25 16L25 15L26 15L26 13ZM38 13L38 14L37 14L37 16L38 16L38 17L37 17L37 19L38 19L38 18L39 18L39 16L38 16L38 14L39 14L39 15L41 15L41 16L40 16L40 18L41 18L41 19L42 19L42 20L43 20L43 19L42 19L42 18L44 18L44 19L45 19L45 20L44 20L44 22L45 22L45 26L46 26L46 25L47 25L47 26L48 26L48 25L47 25L47 24L48 24L48 23L47 23L47 22L46 22L46 21L47 21L47 20L46 20L46 18L45 18L45 17L44 17L44 15L43 15L43 13L41 13L41 14L39 14L39 13ZM45 13L45 15L46 15L46 16L47 16L47 15L48 15L48 14L46 14L46 13ZM24 14L24 15L25 15L25 14ZM41 14L41 15L42 15L42 14ZM3 16L3 18L4 18L4 16ZM10 16L10 17L11 17L11 16ZM18 16L18 17L19 17L19 18L18 18L18 19L16 19L16 21L17 21L17 20L18 20L18 23L19 23L19 24L20 24L20 25L19 25L19 26L20 26L20 25L21 25L21 24L20 24L20 23L22 23L22 22L21 22L21 20L23 20L23 21L24 21L24 20L23 20L23 19L22 19L22 18L23 18L23 17L21 17L21 18L20 18L20 16ZM29 17L29 18L30 18L30 21L31 21L31 22L32 22L32 23L31 23L31 24L30 24L30 22L29 22L29 24L30 24L30 25L31 25L31 28L32 28L32 30L31 30L31 31L33 31L33 27L34 27L34 26L33 26L33 25L34 25L34 24L32 24L32 23L33 23L33 21L31 21L31 19L32 19L32 18L31 18L31 17ZM47 17L47 18L48 18L48 17ZM19 18L19 21L20 21L20 18ZM7 20L7 21L8 21L8 20ZM25 20L25 22L26 22L26 21L27 21L27 20ZM40 20L40 22L43 22L43 21L41 21L41 20ZM45 20L45 21L46 21L46 20ZM19 22L19 23L20 23L20 22ZM5 23L5 26L8 26L8 23ZM23 23L23 26L26 26L26 23ZM41 23L41 26L44 26L44 23ZM0 24L0 25L1 25L1 24ZM6 24L6 25L7 25L7 24ZM9 24L9 26L10 26L10 25L11 25L11 24ZM24 24L24 25L25 25L25 24ZM42 24L42 25L43 25L43 24ZM21 26L21 27L18 27L18 28L17 28L17 29L15 29L15 30L14 30L14 31L15 31L15 32L16 32L16 33L15 33L15 34L16 34L16 33L18 33L18 36L17 36L17 35L16 35L16 36L15 36L15 35L14 35L14 36L15 36L15 37L14 37L14 38L15 38L15 39L14 39L14 40L13 40L13 41L14 41L14 42L15 42L15 41L16 41L16 40L18 40L18 41L20 41L20 42L21 42L21 41L22 41L22 40L23 40L23 37L24 37L24 36L22 36L22 33L23 33L23 35L24 35L24 32L22 32L22 31L21 31L21 30L20 30L20 29L18 29L18 28L21 28L21 27L22 27L22 26ZM4 27L4 28L5 28L5 27ZM6 27L6 28L7 28L7 29L8 29L8 27ZM24 27L24 28L23 28L23 29L22 29L22 30L23 30L23 31L24 31L24 30L25 30L25 31L26 31L26 30L25 30L25 27ZM36 27L36 28L35 28L35 30L36 30L36 31L34 31L34 33L35 33L35 32L36 32L36 31L37 31L37 30L36 30L36 29L38 29L38 30L39 30L39 29L38 29L38 27ZM9 29L9 30L10 30L10 29ZM2 30L2 31L4 31L4 30ZM15 30L15 31L16 31L16 32L17 32L17 30ZM18 30L18 32L19 32L19 31L20 31L20 30ZM20 32L20 33L19 33L19 35L20 35L20 37L19 37L19 36L18 36L18 37L19 37L19 38L16 38L16 37L17 37L17 36L16 36L16 37L15 37L15 38L16 38L16 39L15 39L15 40L14 40L14 41L15 41L15 40L16 40L16 39L19 39L19 40L20 40L20 41L21 41L21 40L20 40L20 39L22 39L22 38L20 38L20 37L22 37L22 36L21 36L21 35L20 35L20 34L21 34L21 33L22 33L22 32ZM25 32L25 34L26 34L26 32ZM41 32L41 33L39 33L39 35L40 35L40 37L39 37L39 38L38 38L38 39L39 39L39 38L40 38L40 37L42 37L42 36L44 36L44 35L45 35L45 34L44 34L44 33L45 33L45 32L43 32L43 33L42 33L42 32ZM30 33L30 35L29 35L29 36L31 36L31 35L32 35L32 36L33 36L33 37L34 37L34 36L33 36L33 34L31 34L31 33ZM41 33L41 34L40 34L40 35L41 35L41 36L42 36L42 33ZM6 35L6 36L5 36L5 37L6 37L6 38L7 38L7 37L6 37L6 36L8 36L8 35ZM25 35L25 37L26 37L26 38L24 38L24 39L25 39L25 40L26 40L26 39L27 39L27 41L28 41L28 42L27 42L27 43L28 43L28 44L29 44L29 46L28 46L28 45L26 45L26 46L27 46L27 47L32 47L32 48L33 48L33 47L34 47L34 48L36 48L36 47L34 47L34 46L38 46L38 47L37 47L37 48L39 48L39 45L40 45L40 46L41 46L41 45L40 45L40 44L39 44L39 45L36 45L36 44L35 44L35 43L33 43L33 44L32 44L32 45L30 45L30 44L31 44L31 43L32 43L32 42L33 42L33 41L29 41L29 40L28 40L28 39L27 39L27 38L28 38L28 37L26 37L26 35ZM35 36L35 37L36 37L36 36ZM2 37L2 38L1 38L1 40L0 40L0 41L3 41L3 40L4 40L4 39L2 39L2 38L3 38L3 37ZM30 37L30 38L29 38L29 39L30 39L30 40L31 40L31 39L33 39L33 38L32 38L32 37ZM8 38L8 39L9 39L9 41L10 41L10 39L9 39L9 38ZM34 38L34 42L36 42L36 38ZM11 39L11 40L12 40L12 39ZM23 41L23 44L26 44L26 41ZM41 41L41 44L44 44L44 41ZM45 41L45 44L46 44L46 42L48 42L48 41ZM24 42L24 43L25 43L25 42ZM29 42L29 43L31 43L31 42ZM42 42L42 43L43 43L43 42ZM13 43L13 44L14 44L14 45L13 45L13 46L14 46L14 48L15 48L15 46L14 46L14 45L15 45L15 44L16 44L16 43ZM21 43L21 44L22 44L22 43ZM34 44L34 45L35 45L35 44ZM8 45L8 46L10 46L10 45ZM42 45L42 46L43 46L43 47L44 47L44 46L43 46L43 45ZM21 46L21 47L22 47L22 48L23 48L23 47L24 47L24 46ZM32 46L32 47L33 47L33 46ZM47 48L47 49L49 49L49 48ZM0 0L0 7L7 7L7 0ZM1 1L1 6L6 6L6 1ZM2 2L2 5L5 5L5 2ZM42 0L42 7L49 7L49 0ZM43 1L43 6L48 6L48 1ZM44 2L44 5L47 5L47 2ZM0 42L0 49L7 49L7 42ZM1 43L1 48L6 48L6 43ZM2 44L2 47L5 47L5 44Z" fill="#000000"/></g></g></svg>
