<?xml version="1.0" encoding="UTF-8"?>
<svg xmlns="http://www.w3.org/2000/svg" version="1.1" width="300" height="300" viewBox="0 0 300 300"><rect x="0" y="0" width="300" height="300" fill="#ffffff"/><g transform="scale(8.108)"><g transform="translate(0,0)"><path fill-rule="evenodd" d="M8 0L8 1L9 1L9 0ZM11 0L11 1L10 1L10 3L9 3L9 4L8 4L8 7L9 7L9 8L10 8L10 9L8 9L8 8L1 8L1 9L0 9L0 15L1 15L1 14L3 14L3 15L5 15L5 14L3 14L3 13L5 13L5 12L6 12L6 13L7 13L7 14L6 14L6 15L7 15L7 14L8 14L8 13L9 13L9 11L12 11L12 12L10 12L10 15L9 15L9 16L8 16L8 18L6 18L6 17L7 17L7 16L5 16L5 18L3 18L3 19L2 19L2 18L1 18L1 16L0 16L0 18L1 18L1 19L0 19L0 29L1 29L1 24L2 24L2 23L3 23L3 24L4 24L4 25L5 25L5 26L2 26L2 27L3 27L3 29L4 29L4 27L5 27L5 29L8 29L8 36L9 36L9 37L10 37L10 36L11 36L11 37L12 37L12 35L13 35L13 34L15 34L15 35L14 35L14 36L13 36L13 37L18 37L18 36L17 36L17 35L18 35L18 34L19 34L19 33L18 33L18 31L17 31L17 33L18 33L18 34L17 34L17 35L16 35L16 32L15 32L15 31L16 31L16 30L19 30L19 31L20 31L20 33L21 33L21 34L20 34L20 35L21 35L21 36L20 36L20 37L22 37L22 36L23 36L23 37L25 37L25 36L26 36L26 37L28 37L28 36L29 36L29 37L32 37L32 36L34 36L34 37L37 37L37 34L36 34L36 36L34 36L34 33L36 33L36 32L37 32L37 30L36 30L36 29L35 29L35 30L34 30L34 28L35 28L35 26L36 26L36 28L37 28L37 26L36 26L36 24L34 24L34 23L36 23L36 22L37 22L37 18L36 18L36 17L37 17L37 14L35 14L35 13L37 13L37 12L35 12L35 13L33 13L33 12L34 12L34 11L33 11L33 10L34 10L34 9L33 9L33 8L31 8L31 9L30 9L30 10L32 10L32 11L29 11L29 10L28 10L28 9L29 9L29 8L28 8L28 7L29 7L29 5L26 5L26 4L29 4L29 0L28 0L28 1L26 1L26 0L25 0L25 1L23 1L23 2L22 2L22 0L21 0L21 1L20 1L20 3L19 3L19 4L18 4L18 1L19 1L19 0L17 0L17 4L16 4L16 5L17 5L17 6L16 6L16 7L17 7L17 8L16 8L16 9L15 9L15 8L14 8L14 7L15 7L15 6L14 6L14 7L13 7L13 6L12 6L12 5L15 5L15 4L14 4L14 3L16 3L16 2L14 2L14 1L13 1L13 2L11 2L11 1L12 1L12 0ZM24 2L24 3L25 3L25 4L23 4L23 3L20 3L20 4L23 4L23 5L25 5L25 4L26 4L26 3L28 3L28 2L26 2L26 3L25 3L25 2ZM10 3L10 4L9 4L9 7L10 7L10 8L12 8L12 10L13 10L13 12L12 12L12 14L13 14L13 15L14 15L14 17L17 17L17 18L14 18L14 20L16 20L16 24L15 24L15 22L13 22L13 20L11 20L11 19L13 19L13 18L12 18L12 16L10 16L10 17L9 17L9 18L10 18L10 17L11 17L11 19L10 19L10 20L9 20L9 21L5 21L5 19L4 19L4 22L5 22L5 23L4 23L4 24L5 24L5 25L6 25L6 26L5 26L5 27L6 27L6 28L7 28L7 27L8 27L8 29L10 29L10 30L9 30L9 31L10 31L10 32L9 32L9 33L10 33L10 32L11 32L11 31L12 31L12 29L11 29L11 27L12 27L12 28L13 28L13 27L15 27L15 25L19 25L19 26L17 26L17 27L16 27L16 28L15 28L15 29L16 29L16 28L17 28L17 29L19 29L19 30L20 30L20 31L21 31L21 32L23 32L23 33L22 33L22 35L23 35L23 34L25 34L25 33L24 33L24 32L26 32L26 33L27 33L27 34L28 34L28 35L26 35L26 36L28 36L28 35L29 35L29 36L30 36L30 35L33 35L33 34L30 34L30 33L27 33L27 32L26 32L26 30L25 30L25 29L24 29L24 27L25 27L25 28L26 28L26 29L27 29L27 31L28 31L28 27L29 27L29 26L27 26L27 28L26 28L26 26L23 26L23 27L22 27L22 25L30 25L30 24L29 24L29 23L30 23L30 22L32 22L32 25L31 25L31 26L32 26L32 27L30 27L30 28L34 28L34 27L33 27L33 26L34 26L34 24L33 24L33 21L34 21L34 22L36 22L36 21L34 21L34 20L36 20L36 18L35 18L35 17L34 17L34 16L36 16L36 15L35 15L35 14L34 14L34 16L33 16L33 15L31 15L31 13L32 13L32 14L33 14L33 13L32 13L32 12L31 12L31 13L30 13L30 12L29 12L29 11L28 11L28 14L29 14L29 13L30 13L30 15L31 15L31 17L27 17L27 16L29 16L29 15L24 15L24 14L22 14L22 15L24 15L24 16L22 16L22 17L23 17L23 18L21 18L21 19L22 19L22 20L20 20L20 21L19 21L19 20L18 20L18 21L19 21L19 22L18 22L18 23L17 23L17 20L16 20L16 19L17 19L17 18L18 18L18 16L19 16L19 13L21 13L21 11L20 11L20 10L21 10L21 9L23 9L23 7L24 7L24 9L25 9L25 10L22 10L22 11L23 11L23 12L22 12L22 13L23 13L23 12L24 12L24 13L25 13L25 14L27 14L27 12L26 12L26 11L25 11L25 10L27 10L27 9L26 9L26 8L27 8L27 7L28 7L28 6L27 6L27 7L26 7L26 6L25 6L25 7L24 7L24 6L23 6L23 7L22 7L22 6L21 6L21 5L20 5L20 6L19 6L19 5L18 5L18 4L17 4L17 5L18 5L18 6L17 6L17 7L18 7L18 8L20 8L20 6L21 6L21 7L22 7L22 8L21 8L21 9L19 9L19 12L17 12L17 11L18 11L18 9L17 9L17 10L16 10L16 11L15 11L15 12L14 12L14 8L12 8L12 6L11 6L11 5L12 5L12 4L11 4L11 3ZM10 6L10 7L11 7L11 6ZM18 6L18 7L19 7L19 6ZM25 7L25 8L26 8L26 7ZM36 8L36 9L35 9L35 10L36 10L36 11L37 11L37 10L36 10L36 9L37 9L37 8ZM4 9L4 12L5 12L5 11L6 11L6 12L8 12L8 11L9 11L9 10L8 10L8 9ZM10 9L10 10L11 10L11 9ZM1 10L1 13L2 13L2 10ZM6 10L6 11L8 11L8 10ZM24 11L24 12L25 12L25 13L26 13L26 12L25 12L25 11ZM15 12L15 13L14 13L14 15L15 15L15 16L17 16L17 15L15 15L15 14L18 14L18 13L17 13L17 12ZM2 16L2 17L3 17L3 16ZM25 16L25 17L24 17L24 18L25 18L25 17L26 17L26 16ZM32 16L32 17L33 17L33 16ZM19 17L19 18L20 18L20 17ZM27 18L27 19L26 19L26 20L27 20L27 21L26 21L26 22L27 22L27 23L26 23L26 24L28 24L28 23L29 23L29 22L30 22L30 21L33 21L33 20L34 20L34 19L35 19L35 18L33 18L33 19L32 19L32 20L31 20L31 18ZM6 19L6 20L7 20L7 19ZM24 19L24 20L25 20L25 19ZM27 19L27 20L28 20L28 19ZM2 20L2 22L1 22L1 23L2 23L2 22L3 22L3 20ZM29 20L29 21L27 21L27 22L29 22L29 21L30 21L30 20ZM10 21L10 22L11 22L11 23L13 23L13 22L12 22L12 21ZM20 21L20 22L19 22L19 25L21 25L21 24L22 24L22 22L21 22L21 21ZM24 21L24 22L25 22L25 21ZM6 22L6 23L5 23L5 24L6 24L6 25L7 25L7 26L6 26L6 27L7 27L7 26L8 26L8 27L9 27L9 24L10 24L10 23L9 23L9 22L8 22L8 23L9 23L9 24L6 24L6 23L7 23L7 22ZM20 22L20 23L21 23L21 22ZM24 23L24 24L25 24L25 23ZM11 24L11 25L10 25L10 27L11 27L11 26L14 26L14 24L13 24L13 25L12 25L12 24ZM19 26L19 27L18 27L18 28L20 28L20 29L23 29L23 30L22 30L22 31L23 31L23 30L24 30L24 31L25 31L25 30L24 30L24 29L23 29L23 28L21 28L21 26ZM13 29L13 30L14 30L14 29ZM29 29L29 32L32 32L32 29ZM10 30L10 31L11 31L11 30ZM30 30L30 31L31 31L31 30ZM35 30L35 31L33 31L33 32L35 32L35 31L36 31L36 30ZM13 31L13 32L12 32L12 33L15 33L15 32L14 32L14 31ZM10 34L10 35L9 35L9 36L10 36L10 35L12 35L12 34ZM29 34L29 35L30 35L30 34ZM15 35L15 36L16 36L16 35ZM24 35L24 36L25 36L25 35ZM0 0L0 7L7 7L7 0ZM1 1L1 6L6 6L6 1ZM2 2L2 5L5 5L5 2ZM30 0L30 7L37 7L37 0ZM31 1L31 6L36 6L36 1ZM32 2L32 5L35 5L35 2ZM0 30L0 37L7 37L7 30ZM1 31L1 36L6 36L6 31ZM2 32L2 35L5 35L5 32Z" fill="#000000"/></g></g></svg>
