<?xml version="1.0" encoding="UTF-8"?>
<svg xmlns="http://www.w3.org/2000/svg" version="1.1" width="300" height="300" viewBox="0 0 300 300"><rect x="0" y="0" width="300" height="300" fill="#ffffff"/><g transform="scale(6.122)"><g transform="translate(0,0)"><path fill-rule="evenodd" d="M8 0L8 1L11 1L11 2L10 2L10 4L11 4L11 5L9 5L9 4L8 4L8 7L9 7L9 9L8 9L8 8L1 8L1 10L0 10L0 13L1 13L1 14L2 14L2 16L3 16L3 17L4 17L4 18L5 18L5 20L6 20L6 21L5 21L5 22L3 22L3 24L2 24L2 23L1 23L1 21L2 21L2 20L1 20L1 19L3 19L3 21L4 21L4 19L3 19L3 18L1 18L1 15L0 15L0 18L1 18L1 19L0 19L0 20L1 20L1 21L0 21L0 30L1 30L1 31L2 31L2 33L4 33L4 35L2 35L2 34L1 34L1 32L0 32L0 34L1 34L1 35L0 35L0 36L1 36L1 37L2 37L2 36L3 36L3 38L4 38L4 37L5 37L5 36L6 36L6 37L8 37L8 35L9 35L9 31L8 31L8 32L6 32L6 31L7 31L7 30L6 30L6 31L5 31L5 32L4 32L4 31L3 31L3 30L5 30L5 29L7 29L7 28L9 28L9 29L8 29L8 30L11 30L11 29L10 29L10 28L12 28L12 27L13 27L13 29L12 29L12 31L10 31L10 33L11 33L11 34L12 34L12 36L11 36L11 39L10 39L10 40L9 40L9 38L10 38L10 36L9 36L9 38L8 38L8 39L7 39L7 38L5 38L5 39L7 39L7 40L6 40L6 41L8 41L8 48L9 48L9 49L10 49L10 48L11 48L11 49L12 49L12 48L13 48L13 47L12 47L12 45L11 45L11 44L13 44L13 46L14 46L14 48L15 48L15 49L18 49L18 46L19 46L19 47L21 47L21 48L20 48L20 49L21 49L21 48L22 48L22 46L23 46L23 45L27 45L27 44L29 44L29 45L28 45L28 46L27 46L27 49L28 49L28 48L29 48L29 49L30 49L30 47L28 47L28 46L31 46L31 47L32 47L32 48L31 48L31 49L32 49L32 48L33 48L33 49L34 49L34 47L37 47L37 48L35 48L35 49L38 49L38 48L40 48L40 49L41 49L41 46L40 46L40 45L42 45L42 46L43 46L43 47L42 47L42 48L43 48L43 47L44 47L44 48L45 48L45 49L49 49L49 45L48 45L48 44L46 44L46 46L45 46L45 43L46 43L46 42L45 42L45 40L46 40L46 41L48 41L48 40L46 40L46 39L44 39L44 37L45 37L45 38L46 38L46 37L47 37L47 36L48 36L48 37L49 37L49 34L47 34L47 36L44 36L44 37L42 37L42 36L41 36L41 35L40 35L40 36L39 36L39 38L34 38L34 36L36 36L36 37L37 37L37 36L36 36L36 34L33 34L33 32L34 32L34 31L35 31L35 30L36 30L36 32L35 32L35 33L36 33L36 32L37 32L37 34L38 34L38 35L39 35L39 34L42 34L42 35L44 35L44 33L47 33L47 32L49 32L49 30L48 30L48 31L47 31L47 28L48 28L48 29L49 29L49 28L48 28L48 27L49 27L49 26L46 26L46 27L47 27L47 28L46 28L46 31L47 31L47 32L44 32L44 31L45 31L45 30L43 30L43 29L45 29L45 28L44 28L44 27L45 27L45 25L48 25L48 24L45 24L45 23L46 23L46 22L47 22L47 23L49 23L49 22L47 22L47 20L48 20L48 21L49 21L49 18L47 18L47 17L48 17L48 16L46 16L46 15L45 15L45 14L46 14L46 13L48 13L48 12L46 12L46 11L44 11L44 10L43 10L43 9L45 9L45 8L43 8L43 9L42 9L42 10L41 10L41 12L38 12L38 13L39 13L39 14L37 14L37 12L36 12L36 14L37 14L37 16L36 16L36 15L35 15L35 14L34 14L34 13L32 13L32 12L33 12L33 11L32 11L32 12L31 12L31 11L30 11L30 12L26 12L26 11L27 11L27 10L28 10L28 8L29 8L29 10L32 10L32 9L30 9L30 8L32 8L32 7L33 7L33 10L34 10L34 12L35 12L35 10L36 10L36 11L37 11L37 10L38 10L38 11L39 11L39 10L38 10L38 9L41 9L41 8L38 8L38 7L39 7L39 5L38 5L38 3L35 3L35 2L37 2L37 1L38 1L38 2L39 2L39 4L40 4L40 3L41 3L41 0L40 0L40 1L38 1L38 0L35 0L35 1L31 1L31 0L27 0L27 2L28 2L28 1L31 1L31 2L32 2L32 3L33 3L33 4L37 4L37 6L36 6L36 7L35 7L35 5L33 5L33 6L32 6L32 7L31 7L31 6L30 6L30 5L32 5L32 4L30 4L30 2L29 2L29 4L28 4L28 3L25 3L25 2L24 2L24 1L26 1L26 0L23 0L23 2L24 2L24 3L25 3L25 4L23 4L23 3L21 3L21 2L22 2L22 1L20 1L20 2L19 2L19 0L16 0L16 1L15 1L15 0ZM12 1L12 2L11 2L11 3L12 3L12 4L15 4L15 3L12 3L12 2L15 2L15 1ZM16 1L16 3L17 3L17 4L18 4L18 5L16 5L16 6L15 6L15 7L14 7L14 5L12 5L12 6L11 6L11 7L10 7L10 6L9 6L9 7L10 7L10 9L11 9L11 10L8 10L8 9L6 9L6 10L8 10L8 12L9 12L9 13L6 13L6 14L4 14L4 16L5 16L5 15L6 15L6 16L7 16L7 17L6 17L6 18L7 18L7 17L8 17L8 18L10 18L10 19L9 19L9 20L10 20L10 21L8 21L8 20L7 20L7 19L6 19L6 20L7 20L7 21L6 21L6 22L10 22L10 23L11 23L11 24L12 24L12 23L11 23L11 22L12 22L12 21L13 21L13 25L9 25L9 28L10 28L10 26L11 26L11 27L12 27L12 26L13 26L13 27L14 27L14 29L15 29L15 30L14 30L14 31L13 31L13 32L11 32L11 33L14 33L14 32L15 32L15 34L14 34L14 35L16 35L16 36L17 36L17 35L18 35L18 36L19 36L19 37L21 37L21 38L19 38L19 40L18 40L18 41L17 41L17 42L16 42L16 39L14 39L14 38L13 38L13 40L14 40L14 41L10 41L10 42L9 42L9 44L10 44L10 42L12 42L12 43L13 43L13 44L14 44L14 45L15 45L15 46L16 46L16 47L17 47L17 45L18 45L18 44L16 44L16 43L18 43L18 42L19 42L19 44L21 44L21 45L22 45L22 42L21 42L21 41L20 41L20 42L19 42L19 40L23 40L23 39L24 39L24 40L25 40L25 39L27 39L27 40L28 40L28 41L27 41L27 42L28 42L28 43L29 43L29 42L30 42L30 41L29 41L29 40L30 40L30 39L31 39L31 42L32 42L32 43L33 43L33 44L32 44L32 47L33 47L33 46L35 46L35 44L37 44L37 43L35 43L35 42L38 42L38 43L40 43L40 41L39 41L39 40L41 40L41 39L42 39L42 40L44 40L44 39L42 39L42 38L41 38L41 39L34 39L34 38L32 38L32 37L33 37L33 36L32 36L32 35L31 35L31 34L32 34L32 33L31 33L31 34L29 34L29 35L31 35L31 36L30 36L30 37L29 37L29 36L25 36L25 35L26 35L26 34L27 34L27 35L28 35L28 34L27 34L27 33L28 33L28 32L29 32L29 33L30 33L30 32L29 32L29 31L31 31L31 32L33 32L33 30L35 30L35 27L34 27L34 26L36 26L36 28L37 28L37 29L38 29L38 30L37 30L37 31L38 31L38 34L39 34L39 32L40 32L40 31L41 31L41 30L42 30L42 29L41 29L41 28L40 28L40 27L38 27L38 26L40 26L40 24L39 24L39 23L40 23L40 22L41 22L41 21L42 21L42 16L43 16L43 14L42 14L42 13L43 13L43 12L44 12L44 13L46 13L46 12L44 12L44 11L43 11L43 10L42 10L42 11L43 11L43 12L41 12L41 13L40 13L40 14L42 14L42 15L41 15L41 16L39 16L39 17L40 17L40 18L37 18L37 17L38 17L38 16L37 16L37 17L36 17L36 16L35 16L35 17L36 17L36 18L34 18L34 17L33 17L33 16L34 16L34 14L30 14L30 13L29 13L29 14L27 14L27 13L26 13L26 12L23 12L23 13L24 13L24 14L23 14L23 15L22 15L22 14L21 14L21 13L20 13L20 12L21 12L21 11L22 11L22 10L23 10L23 11L24 11L24 10L25 10L25 9L24 9L24 10L23 10L23 9L22 9L22 8L20 8L20 5L21 5L21 7L22 7L22 5L21 5L21 4L18 4L18 3L17 3L17 1ZM33 2L33 3L34 3L34 2ZM27 4L27 7L28 7L28 6L29 6L29 7L30 7L30 6L29 6L29 5L28 5L28 4ZM23 5L23 8L26 8L26 5ZM12 6L12 7L13 7L13 8L14 8L14 7L13 7L13 6ZM16 6L16 7L15 7L15 9L17 9L17 10L14 10L14 9L13 9L13 12L12 12L12 13L11 13L11 14L10 14L10 13L9 13L9 14L6 14L6 15L7 15L7 16L8 16L8 15L9 15L9 14L10 14L10 16L11 16L11 15L12 15L12 17L10 17L10 18L12 18L12 19L10 19L10 20L11 20L11 21L12 21L12 19L16 19L16 21L14 21L14 22L16 22L16 21L17 21L17 20L19 20L19 21L18 21L18 22L17 22L17 23L16 23L16 24L15 24L15 23L14 23L14 25L13 25L13 26L14 26L14 25L15 25L15 27L16 27L16 29L17 29L17 28L18 28L18 30L17 30L17 31L18 31L18 32L16 32L16 35L17 35L17 33L18 33L18 34L19 34L19 33L18 33L18 32L19 32L19 31L23 31L23 30L20 30L20 29L19 29L19 28L20 28L20 27L24 27L24 29L25 29L25 28L26 28L26 27L27 27L27 28L29 28L29 29L28 29L28 30L27 30L27 32L26 32L26 33L25 33L25 34L23 34L23 36L22 36L22 39L23 39L23 36L24 36L24 35L25 35L25 34L26 34L26 33L27 33L27 32L28 32L28 30L31 30L31 31L32 31L32 28L33 28L33 29L34 29L34 28L33 28L33 25L32 25L32 24L33 24L33 23L34 23L34 25L36 25L36 26L37 26L37 24L38 24L38 23L39 23L39 22L38 22L38 23L37 23L37 21L41 21L41 20L40 20L40 19L37 19L37 18L36 18L36 19L37 19L37 20L36 20L36 21L35 21L35 22L33 22L33 21L32 21L32 22L31 22L31 20L30 20L30 19L32 19L32 20L34 20L34 18L32 18L32 17L31 17L31 18L30 18L30 17L29 17L29 16L30 16L30 14L29 14L29 15L28 15L28 17L27 17L27 18L25 18L25 17L26 17L26 13L25 13L25 17L23 17L23 16L24 16L24 15L23 15L23 16L22 16L22 17L23 17L23 18L25 18L25 19L24 19L24 20L23 20L23 19L22 19L22 18L21 18L21 19L18 19L18 18L17 18L17 17L18 17L18 16L16 16L16 15L19 15L19 14L18 14L18 12L19 12L19 11L21 11L21 10L20 10L20 9L17 9L17 6ZM18 6L18 8L19 8L19 6ZM24 6L24 7L25 7L25 6ZM33 6L33 7L34 7L34 8L35 8L35 9L34 9L34 10L35 10L35 9L36 9L36 8L35 8L35 7L34 7L34 6ZM37 6L37 7L38 7L38 6ZM40 6L40 7L41 7L41 6ZM37 8L37 9L38 9L38 8ZM48 8L48 9L46 9L46 10L48 10L48 11L49 11L49 10L48 10L48 9L49 9L49 8ZM2 9L2 10L1 10L1 13L5 13L5 12L7 12L7 11L5 11L5 10L3 10L3 9ZM26 9L26 10L27 10L27 9ZM11 10L11 11L10 11L10 12L11 12L11 11L12 11L12 10ZM17 10L17 11L15 11L15 12L14 12L14 13L15 13L15 14L13 14L13 13L12 13L12 14L13 14L13 16L14 16L14 17L13 17L13 18L16 18L16 16L15 16L15 14L17 14L17 11L18 11L18 10ZM2 11L2 12L4 12L4 11ZM15 12L15 13L16 13L16 12ZM47 14L47 15L49 15L49 14ZM31 15L31 16L33 16L33 15ZM19 16L19 18L20 18L20 17L21 17L21 16ZM44 16L44 17L46 17L46 16ZM28 17L28 20L27 20L27 21L29 21L29 19L30 19L30 18L29 18L29 17ZM46 18L46 19L45 19L45 20L44 20L44 21L43 21L43 22L46 22L46 20L47 20L47 18ZM21 19L21 20L20 20L20 21L19 21L19 22L18 22L18 23L17 23L17 24L16 24L16 27L18 27L18 26L20 26L20 25L19 25L19 22L20 22L20 24L21 24L21 25L22 25L22 24L21 24L21 23L22 23L22 21L23 21L23 22L26 22L26 21L23 21L23 20L22 20L22 19ZM25 19L25 20L26 20L26 19ZM28 22L28 23L27 23L27 24L28 24L28 25L27 25L27 26L28 26L28 27L29 27L29 28L30 28L30 29L31 29L31 28L32 28L32 27L31 27L31 26L29 26L29 25L30 25L30 24L29 24L29 22ZM30 22L30 23L31 23L31 24L32 24L32 23L33 23L33 22L32 22L32 23L31 23L31 22ZM5 23L5 26L8 26L8 23ZM23 23L23 26L26 26L26 23ZM35 23L35 24L37 24L37 23ZM41 23L41 26L44 26L44 23ZM1 24L1 27L2 27L2 24ZM3 24L3 25L4 25L4 24ZM6 24L6 25L7 25L7 24ZM24 24L24 25L25 25L25 24ZM42 24L42 25L43 25L43 24ZM17 25L17 26L18 26L18 25ZM3 26L3 27L4 27L4 28L7 28L7 27L4 27L4 26ZM30 27L30 28L31 28L31 27ZM42 27L42 28L43 28L43 27ZM1 28L1 30L3 30L3 29L2 29L2 28ZM21 28L21 29L22 29L22 28ZM38 28L38 29L39 29L39 30L38 30L38 31L40 31L40 28ZM18 30L18 31L19 31L19 30ZM24 30L24 32L25 32L25 30ZM42 31L42 32L41 32L41 33L42 33L42 34L43 34L43 33L44 33L44 32L43 32L43 31ZM20 32L20 35L19 35L19 36L20 36L20 35L22 35L22 34L21 34L21 32ZM22 32L22 33L23 33L23 32ZM6 33L6 34L5 34L5 35L4 35L4 36L5 36L5 35L6 35L6 36L7 36L7 35L8 35L8 34L7 34L7 33ZM6 34L6 35L7 35L7 34ZM45 34L45 35L46 35L46 34ZM1 35L1 36L2 36L2 35ZM14 36L14 37L15 37L15 38L17 38L17 39L18 39L18 38L17 38L17 37L15 37L15 36ZM31 36L31 37L30 37L30 38L29 38L29 39L28 39L28 40L29 40L29 39L30 39L30 38L31 38L31 39L32 39L32 40L34 40L34 39L32 39L32 38L31 38L31 37L32 37L32 36ZM40 36L40 37L41 37L41 36ZM25 37L25 38L24 38L24 39L25 39L25 38L26 38L26 37ZM27 37L27 38L28 38L28 37ZM1 38L1 40L0 40L0 41L3 41L3 40L4 40L4 39L2 39L2 38ZM47 38L47 39L49 39L49 38ZM8 40L8 41L9 41L9 40ZM35 40L35 41L38 41L38 40ZM14 41L14 42L13 42L13 43L14 43L14 42L15 42L15 43L16 43L16 42L15 42L15 41ZM23 41L23 44L26 44L26 41ZM33 41L33 42L34 42L34 41ZM41 41L41 44L44 44L44 41ZM24 42L24 43L25 43L25 42ZM42 42L42 43L43 43L43 42ZM47 42L47 43L49 43L49 42ZM34 43L34 44L33 44L33 45L34 45L34 44L35 44L35 43ZM10 45L10 47L11 47L11 45ZM19 45L19 46L20 46L20 45ZM38 45L38 46L37 46L37 47L38 47L38 46L39 46L39 47L40 47L40 46L39 46L39 45ZM43 45L43 46L44 46L44 47L45 47L45 48L48 48L48 47L47 47L47 46L46 46L46 47L45 47L45 46L44 46L44 45ZM24 46L24 47L23 47L23 48L24 48L24 49L25 49L25 48L26 48L26 47L25 47L25 46ZM24 47L24 48L25 48L25 47ZM0 0L0 7L7 7L7 0ZM1 1L1 6L6 6L6 1ZM2 2L2 5L5 5L5 2ZM42 0L42 7L49 7L49 0ZM43 1L43 6L48 6L48 1ZM44 2L44 5L47 5L47 2ZM0 42L0 49L7 49L7 42ZM1 43L1 48L6 48L6 43ZM2 44L2 47L5 47L5 44Z" fill="#000000"/></g></g></svg>
