<?xml version="1.0" encoding="UTF-8"?>
<svg xmlns="http://www.w3.org/2000/svg" version="1.1" width="300" height="300" viewBox="0 0 300 300"><rect x="0" y="0" width="300" height="300" fill="#ffffff"/><g transform="scale(8.108)"><g transform="translate(0,0)"><path fill-rule="evenodd" d="M8 0L8 1L9 1L9 0ZM10 0L10 2L12 2L12 3L13 3L13 4L14 4L14 5L12 5L12 4L11 4L11 3L10 3L10 5L8 5L8 8L5 8L5 9L4 9L4 8L3 8L3 9L2 9L2 8L1 8L1 9L2 9L2 10L4 10L4 11L3 11L3 13L2 13L2 11L1 11L1 10L0 10L0 11L1 11L1 12L0 12L0 13L2 13L2 14L1 14L1 15L0 15L0 17L1 17L1 15L2 15L2 14L3 14L3 15L4 15L4 14L5 14L5 17L2 17L2 18L3 18L3 20L2 20L2 19L0 19L0 20L1 20L1 21L3 21L3 22L4 22L4 23L3 23L3 24L2 24L2 25L4 25L4 23L5 23L5 25L7 25L7 26L6 26L6 27L7 27L7 28L6 28L6 29L7 29L7 28L9 28L9 27L10 27L10 26L11 26L11 27L12 27L12 29L11 29L11 28L10 28L10 29L8 29L8 32L9 32L9 33L8 33L8 34L9 34L9 35L8 35L8 36L9 36L9 37L10 37L10 35L11 35L11 37L12 37L12 36L14 36L14 37L18 37L18 36L17 36L17 35L19 35L19 36L22 36L22 37L25 37L25 33L27 33L27 31L28 31L28 33L29 33L29 35L26 35L26 36L27 36L27 37L33 37L33 28L32 28L32 26L30 26L30 27L31 27L31 28L29 28L29 26L28 26L28 25L29 25L29 24L30 24L30 25L34 25L34 23L36 23L36 24L35 24L35 25L36 25L36 26L35 26L35 27L34 27L34 28L35 28L35 27L36 27L36 29L35 29L35 30L36 30L36 31L37 31L37 25L36 25L36 24L37 24L37 23L36 23L36 21L37 21L37 20L36 20L36 19L37 19L37 16L36 16L36 15L37 15L37 12L36 12L36 11L37 11L37 8L36 8L36 11L35 11L35 12L34 12L34 9L35 9L35 8L33 8L33 9L32 9L32 8L29 8L29 6L28 6L28 4L29 4L29 2L28 2L28 0L25 0L25 4L26 4L26 5L27 5L27 6L26 6L26 7L25 7L25 6L24 6L24 5L23 5L23 4L22 4L22 7L21 7L21 6L20 6L20 5L19 5L19 0L18 0L18 1L16 1L16 2L17 2L17 6L16 6L16 7L15 7L15 3L14 3L14 1L15 1L15 0L14 0L14 1L12 1L12 0ZM20 0L20 3L21 3L21 0ZM22 0L22 1L23 1L23 0ZM8 2L8 4L9 4L9 2ZM26 2L26 3L27 3L27 2ZM11 5L11 8L9 8L9 10L10 10L10 11L9 11L9 13L6 13L6 14L8 14L8 15L9 15L9 14L10 14L10 15L11 15L11 13L10 13L10 11L11 11L11 12L12 12L12 14L13 14L13 15L12 15L12 16L8 16L8 19L9 19L9 17L11 17L11 18L10 18L10 19L11 19L11 20L12 20L12 22L11 22L11 21L9 21L9 20L8 20L8 21L6 21L6 20L7 20L7 19L6 19L6 18L7 18L7 17L6 17L6 18L5 18L5 19L4 19L4 21L5 21L5 23L6 23L6 24L7 24L7 25L12 25L12 24L13 24L13 22L14 22L14 21L13 21L13 18L15 18L15 19L16 19L16 20L15 20L15 21L16 21L16 22L15 22L15 25L14 25L14 26L13 26L13 28L14 28L14 27L16 27L16 29L12 29L12 30L13 30L13 32L12 32L12 33L11 33L11 32L10 32L10 33L9 33L9 34L10 34L10 33L11 33L11 35L12 35L12 34L13 34L13 33L14 33L14 34L15 34L15 32L14 32L14 30L15 30L15 31L17 31L17 33L16 33L16 35L17 35L17 34L19 34L19 32L18 32L18 31L21 31L21 33L20 33L20 35L23 35L23 32L22 32L22 31L24 31L24 32L26 32L26 31L27 31L27 30L26 30L26 29L27 29L27 28L28 28L28 27L27 27L27 28L23 28L23 26L24 26L24 27L26 27L26 26L24 26L24 24L25 24L25 25L26 25L26 24L27 24L27 25L28 25L28 24L29 24L29 23L30 23L30 24L32 24L32 22L35 22L35 21L36 21L36 20L34 20L34 19L33 19L33 18L32 18L32 19L30 19L30 20L28 20L28 19L29 19L29 18L28 18L28 17L30 17L30 16L32 16L32 17L34 17L34 18L35 18L35 19L36 19L36 18L35 18L35 17L34 17L34 16L35 16L35 14L36 14L36 13L35 13L35 14L34 14L34 13L33 13L33 10L32 10L32 9L30 9L30 10L29 10L29 8L27 8L27 7L28 7L28 6L27 6L27 7L26 7L26 8L24 8L24 6L23 6L23 10L21 10L21 11L20 11L20 10L19 10L19 11L20 11L20 12L19 12L19 13L18 13L18 12L17 12L17 10L15 10L15 13L13 13L13 12L12 12L12 11L14 11L14 8L15 8L15 9L18 9L18 8L19 8L19 9L20 9L20 6L19 6L19 5L18 5L18 6L17 6L17 8L15 8L15 7L14 7L14 6L13 6L13 7L14 7L14 8L13 8L13 10L12 10L12 5ZM9 6L9 7L10 7L10 6ZM18 6L18 7L19 7L19 6ZM26 8L26 9L25 9L25 13L27 13L27 14L22 14L22 13L23 13L23 11L21 11L21 12L22 12L22 13L21 13L21 14L22 14L22 15L20 15L20 16L23 16L23 17L21 17L21 19L20 19L20 17L19 17L19 15L18 15L18 14L17 14L17 15L15 15L15 14L14 14L14 17L17 17L17 18L16 18L16 19L17 19L17 20L16 20L16 21L17 21L17 20L19 20L19 21L18 21L18 22L17 22L17 23L18 23L18 24L19 24L19 25L20 25L20 26L19 26L19 27L18 27L18 26L17 26L17 27L18 27L18 29L16 29L16 30L18 30L18 29L21 29L21 28L19 28L19 27L20 27L20 26L21 26L21 27L22 27L22 26L23 26L23 25L22 25L22 24L23 24L23 23L21 23L21 22L20 22L20 20L21 20L21 21L23 21L23 22L24 22L24 19L23 19L23 17L24 17L24 15L25 15L25 16L26 16L26 17L25 17L25 18L26 18L26 20L27 20L27 16L28 16L28 15L27 15L27 14L31 14L31 15L32 15L32 13L31 13L31 12L28 12L28 11L29 11L29 10L28 10L28 9L27 9L27 8ZM5 9L5 11L6 11L6 12L8 12L8 9ZM26 9L26 11L28 11L28 10L27 10L27 9ZM6 10L6 11L7 11L7 10ZM30 10L30 11L32 11L32 10ZM27 12L27 13L28 13L28 12ZM6 15L6 16L7 16L7 15ZM26 15L26 16L27 16L27 15ZM12 16L12 17L13 17L13 16ZM17 16L17 17L18 17L18 19L19 19L19 17L18 17L18 16ZM22 19L22 20L23 20L23 19ZM30 20L30 21L29 21L29 22L28 22L28 23L27 23L27 21L25 21L25 24L26 24L26 23L27 23L27 24L28 24L28 23L29 23L29 22L30 22L30 23L31 23L31 22L32 22L32 21L33 21L33 20ZM8 21L8 22L9 22L9 23L7 23L7 22L6 22L6 23L7 23L7 24L11 24L11 22L9 22L9 21ZM0 22L0 23L2 23L2 22ZM18 22L18 23L19 23L19 22ZM0 24L0 25L1 25L1 24ZM16 24L16 25L15 25L15 26L16 26L16 25L17 25L17 24ZM20 24L20 25L21 25L21 26L22 26L22 25L21 25L21 24ZM0 26L0 27L1 27L1 28L0 28L0 29L5 29L5 26L4 26L4 27L3 27L3 26L2 26L2 27L1 27L1 26ZM2 27L2 28L3 28L3 27ZM22 28L22 29L23 29L23 30L24 30L24 29L23 29L23 28ZM29 29L29 32L32 32L32 29ZM10 30L10 31L11 31L11 30ZM21 30L21 31L22 31L22 30ZM30 30L30 31L31 31L31 30ZM34 31L34 32L35 32L35 31ZM21 33L21 34L22 34L22 33ZM30 33L30 35L29 35L29 36L30 36L30 35L31 35L31 36L32 36L32 34L31 34L31 33ZM35 33L35 34L34 34L34 35L35 35L35 34L36 34L36 35L37 35L37 33ZM14 35L14 36L15 36L15 35ZM35 36L35 37L37 37L37 36ZM0 0L0 7L7 7L7 0ZM1 1L1 6L6 6L6 1ZM2 2L2 5L5 5L5 2ZM30 0L30 7L37 7L37 0ZM31 1L31 6L36 6L36 1ZM32 2L32 5L35 5L35 2ZM0 30L0 37L7 37L7 30ZM1 31L1 36L6 36L6 31ZM2 32L2 35L5 35L5 32Z" fill="#000000"/></g></g></svg>
