<?xml version="1.0" encoding="UTF-8"?>
<svg xmlns="http://www.w3.org/2000/svg" version="1.1" width="300" height="300" viewBox="0 0 300 300"><rect x="0" y="0" width="300" height="300" fill="#ffffff"/><g transform="scale(8.108)"><g transform="translate(0,0)"><path fill-rule="evenodd" d="M11 0L11 1L9 1L9 2L8 2L8 3L9 3L9 4L8 4L8 7L9 7L9 8L8 8L8 9L7 9L7 8L6 8L6 9L7 9L7 10L6 10L6 11L7 11L7 12L4 12L4 10L5 10L5 8L4 8L4 10L2 10L2 11L1 11L1 12L0 12L0 13L2 13L2 14L0 14L0 16L2 16L2 17L1 17L1 18L0 18L0 22L3 22L3 24L2 24L2 23L1 23L1 24L0 24L0 26L2 26L2 27L3 27L3 28L0 28L0 29L3 29L3 28L4 28L4 27L7 27L7 26L5 26L5 25L4 25L4 24L6 24L6 25L8 25L8 28L9 28L9 29L8 29L8 30L9 30L9 29L11 29L11 26L10 26L10 27L9 27L9 24L10 24L10 22L11 22L11 23L12 23L12 22L11 22L11 20L10 20L10 19L13 19L13 16L14 16L14 15L15 15L15 14L16 14L16 13L15 13L15 11L16 11L16 12L17 12L17 11L18 11L18 13L17 13L17 15L16 15L16 17L14 17L14 19L15 19L15 24L14 24L14 25L13 25L13 24L12 24L12 25L13 25L13 26L12 26L12 27L13 27L13 28L12 28L12 30L11 30L11 31L9 31L9 32L8 32L8 33L10 33L10 37L13 37L13 35L12 35L12 34L14 34L14 33L15 33L15 32L16 32L16 31L18 31L18 32L17 32L17 33L16 33L16 35L15 35L15 36L16 36L16 37L20 37L20 36L19 36L19 34L20 34L20 35L21 35L21 36L22 36L22 35L23 35L23 34L21 34L21 33L18 33L18 32L20 32L20 31L21 31L21 30L22 30L22 29L23 29L23 31L22 31L22 33L23 33L23 31L24 31L24 33L25 33L25 31L24 31L24 29L25 29L25 27L24 27L24 26L25 26L25 25L27 25L27 23L28 23L28 21L29 21L29 23L30 23L30 21L31 21L31 22L33 22L33 21L36 21L36 23L34 23L34 25L33 25L33 24L32 24L32 23L31 23L31 24L30 24L30 25L28 25L28 27L29 27L29 28L27 28L27 26L26 26L26 29L27 29L27 30L26 30L26 32L28 32L28 33L26 33L26 34L25 34L25 35L24 35L24 36L23 36L23 37L26 37L26 35L27 35L27 37L28 37L28 35L29 35L29 37L33 37L33 35L31 35L31 33L36 33L36 32L35 32L35 31L36 31L36 29L37 29L37 27L35 27L35 31L34 31L34 29L33 29L33 28L30 28L30 27L32 27L32 26L33 26L33 27L34 27L34 26L35 26L35 25L36 25L36 24L37 24L37 20L36 20L36 19L34 19L34 17L37 17L37 16L36 16L36 13L37 13L37 11L36 11L36 13L35 13L35 14L34 14L34 15L33 15L33 17L32 17L32 15L31 15L31 14L33 14L33 13L34 13L34 12L35 12L35 10L34 10L34 11L33 11L33 10L32 10L32 11L31 11L31 12L30 12L30 13L29 13L29 14L27 14L27 12L29 12L29 11L28 11L28 10L27 10L27 9L26 9L26 7L27 7L27 8L28 8L28 9L30 9L30 10L31 10L31 9L33 9L33 8L31 8L31 9L30 9L30 8L28 8L28 7L29 7L29 6L28 6L28 7L27 7L27 6L26 6L26 7L25 7L25 5L23 5L23 3L22 3L22 2L24 2L24 3L26 3L26 5L28 5L28 3L29 3L29 1L28 1L28 0L27 0L27 1L28 1L28 3L26 3L26 2L25 2L25 1L22 1L22 2L20 2L20 1L21 1L21 0L17 0L17 1L19 1L19 2L18 2L18 3L15 3L15 2L16 2L16 0L15 0L15 2L14 2L14 1L13 1L13 2L14 2L14 3L15 3L15 4L16 4L16 5L13 5L13 6L12 6L12 7L11 7L11 3L9 3L9 2L11 2L11 1L12 1L12 0ZM19 2L19 3L18 3L18 4L19 4L19 3L20 3L20 2ZM12 3L12 4L13 4L13 3ZM21 3L21 4L20 4L20 5L19 5L19 9L20 9L20 10L19 10L19 12L20 12L20 13L18 13L18 14L19 14L19 16L20 16L20 18L22 18L22 21L21 21L21 22L20 22L20 23L21 23L21 22L24 22L24 21L25 21L25 20L26 20L26 19L27 19L27 21L26 21L26 22L25 22L25 23L24 23L24 24L22 24L22 25L25 25L25 24L26 24L26 23L27 23L27 21L28 21L28 20L29 20L29 21L30 21L30 20L31 20L31 21L33 21L33 19L31 19L31 17L28 17L28 18L30 18L30 19L27 19L27 18L25 18L25 19L24 19L24 20L23 20L23 18L24 18L24 17L26 17L26 15L24 15L24 16L23 16L23 15L22 15L22 16L20 16L20 15L21 15L21 14L22 14L22 13L23 13L23 11L22 11L22 12L20 12L20 11L21 11L21 10L22 10L22 9L23 9L23 8L24 8L24 6L23 6L23 8L22 8L22 9L20 9L20 8L21 8L21 7L22 7L22 3ZM9 5L9 7L10 7L10 8L9 8L9 9L8 9L8 11L9 11L9 12L10 12L10 11L11 11L11 9L12 9L12 8L13 8L13 7L14 7L14 9L13 9L13 10L12 10L12 11L15 11L15 10L16 10L16 9L15 9L15 7L16 7L16 8L17 8L17 7L18 7L18 6L17 6L17 5L16 5L16 6L15 6L15 7L14 7L14 6L13 6L13 7L12 7L12 8L11 8L11 7L10 7L10 5ZM16 6L16 7L17 7L17 6ZM20 6L20 7L21 7L21 6ZM1 8L1 9L2 9L2 8ZM34 8L34 9L35 9L35 8ZM17 9L17 10L18 10L18 9ZM24 9L24 10L25 10L25 11L24 11L24 12L25 12L25 13L24 13L24 14L25 14L25 13L26 13L26 12L27 12L27 11L26 11L26 10L25 10L25 9ZM9 10L9 11L10 11L10 10ZM2 12L2 13L4 13L4 15L3 15L3 14L2 14L2 16L3 16L3 17L2 17L2 18L3 18L3 20L2 20L2 21L3 21L3 20L4 20L4 22L8 22L8 20L7 20L7 19L6 19L6 18L7 18L7 17L8 17L8 18L9 18L9 19L10 19L10 17L11 17L11 18L12 18L12 17L11 17L11 15L12 15L12 16L13 16L13 14L15 14L15 13L14 13L14 12L13 12L13 14L11 14L11 13L10 13L10 14L9 14L9 15L6 15L6 16L7 16L7 17L6 17L6 18L4 18L4 17L5 17L5 16L4 16L4 15L5 15L5 14L8 14L8 13L4 13L4 12ZM31 12L31 13L30 13L30 14L29 14L29 16L31 16L31 15L30 15L30 14L31 14L31 13L33 13L33 12ZM9 15L9 16L10 16L10 15ZM17 16L17 18L15 18L15 19L17 19L17 18L18 18L18 19L19 19L19 18L18 18L18 16ZM22 17L22 18L23 18L23 17ZM4 19L4 20L5 20L5 21L7 21L7 20L5 20L5 19ZM9 20L9 22L10 22L10 20ZM18 20L18 21L17 21L17 22L16 22L16 24L15 24L15 26L14 26L14 28L13 28L13 30L12 30L12 31L13 31L13 32L11 32L11 33L13 33L13 32L15 32L15 31L13 31L13 30L14 30L14 28L15 28L15 26L16 26L16 27L17 27L17 28L19 28L19 29L18 29L18 30L21 30L21 29L22 29L22 27L23 27L23 29L24 29L24 27L23 27L23 26L21 26L21 24L18 24L18 23L19 23L19 21L20 21L20 20ZM17 22L17 23L18 23L18 22ZM6 23L6 24L8 24L8 23ZM17 24L17 25L16 25L16 26L17 26L17 27L18 27L18 26L19 26L19 27L20 27L20 25L18 25L18 24ZM31 24L31 25L32 25L32 24ZM17 25L17 26L18 26L18 25ZM6 28L6 29L7 29L7 28ZM16 29L16 30L17 30L17 29ZM29 29L29 32L32 32L32 29ZM27 30L27 31L28 31L28 30ZM30 30L30 31L31 31L31 30ZM17 33L17 36L18 36L18 33ZM28 33L28 34L29 34L29 35L30 35L30 36L31 36L31 35L30 35L30 33ZM34 34L34 37L37 37L37 36L36 36L36 34ZM8 35L8 36L9 36L9 35ZM11 35L11 36L12 36L12 35ZM0 0L0 7L7 7L7 0ZM1 1L1 6L6 6L6 1ZM2 2L2 5L5 5L5 2ZM30 0L30 7L37 7L37 0ZM31 1L31 6L36 6L36 1ZM32 2L32 5L35 5L35 2ZM0 30L0 37L7 37L7 30ZM1 31L1 36L6 36L6 31ZM2 32L2 35L5 35L5 32Z" fill="#000000"/></g></g></svg>
