<?xml version="1.0" encoding="UTF-8"?>
<svg xmlns="http://www.w3.org/2000/svg" version="1.1" width="300" height="300" viewBox="0 0 300 300"><rect x="0" y="0" width="300" height="300" fill="#ffffff"/><g transform="scale(6.122)"><g transform="translate(0,0)"><path fill-rule="evenodd" d="M8 0L8 1L9 1L9 2L12 2L12 3L10 3L10 4L8 4L8 7L9 7L9 5L10 5L10 4L11 4L11 6L10 6L10 7L11 7L11 6L12 6L12 7L13 7L13 6L12 6L12 5L13 5L13 4L12 4L12 3L13 3L13 2L14 2L14 1L15 1L15 5L14 5L14 10L15 10L15 11L13 11L13 12L11 12L11 13L13 13L13 14L16 14L16 15L15 15L15 17L18 17L18 16L16 16L16 15L19 15L19 19L18 19L18 18L16 18L16 20L19 20L19 21L18 21L18 22L17 22L17 23L18 23L18 22L19 22L19 23L20 23L20 24L19 24L19 25L20 25L20 26L19 26L19 28L17 28L17 27L16 27L16 24L15 24L15 23L16 23L16 21L14 21L14 22L15 22L15 23L14 23L14 25L13 25L13 24L11 24L11 23L12 23L12 22L13 22L13 20L12 20L12 19L10 19L10 18L13 18L13 19L15 19L15 18L13 18L13 17L14 17L14 16L13 16L13 15L12 15L12 16L11 16L11 14L10 14L10 12L8 12L8 11L9 11L9 10L10 10L10 11L12 11L12 10L10 10L10 9L11 9L11 8L10 8L10 9L8 9L8 8L1 8L1 9L0 9L0 10L2 10L2 11L0 11L0 12L2 12L2 11L3 11L3 10L4 10L4 11L5 11L5 9L7 9L7 10L6 10L6 11L7 11L7 12L5 12L5 13L4 13L4 12L3 12L3 13L4 13L4 15L2 15L2 16L3 16L3 17L4 17L4 18L6 18L6 19L5 19L5 20L6 20L6 21L5 21L5 22L3 22L3 24L2 24L2 23L1 23L1 21L2 21L2 20L1 20L1 19L3 19L3 21L4 21L4 19L3 19L3 18L1 18L1 15L0 15L0 18L1 18L1 19L0 19L0 20L1 20L1 21L0 21L0 26L1 26L1 24L2 24L2 27L0 27L0 28L1 28L1 30L0 30L0 31L1 31L1 32L3 32L3 31L4 31L4 30L5 30L5 29L7 29L7 30L6 30L6 31L5 31L5 32L4 32L4 34L3 34L3 33L0 33L0 34L1 34L1 35L2 35L2 36L0 36L0 38L1 38L1 40L0 40L0 41L3 41L3 40L4 40L4 39L2 39L2 37L3 37L3 36L4 36L4 35L5 35L5 36L6 36L6 37L8 37L8 40L6 40L6 41L8 41L8 48L9 48L9 49L10 49L10 48L11 48L11 49L12 49L12 48L13 48L13 47L10 47L10 45L12 45L12 46L14 46L14 48L15 48L15 49L18 49L18 46L20 46L20 45L21 45L21 47L20 47L20 49L21 49L21 48L22 48L22 46L23 46L23 45L27 45L27 44L29 44L29 45L28 45L28 46L27 46L27 49L28 49L28 48L29 48L29 49L30 49L30 47L28 47L28 46L31 46L31 47L32 47L32 48L31 48L31 49L32 49L32 48L33 48L33 49L34 49L34 47L37 47L37 48L35 48L35 49L38 49L38 48L40 48L40 49L41 49L41 46L40 46L40 45L44 45L44 46L42 46L42 48L43 48L43 47L44 47L44 48L45 48L45 49L49 49L49 45L48 45L48 44L46 44L46 46L45 46L45 43L46 43L46 42L45 42L45 41L48 41L48 40L45 40L45 39L44 39L44 37L45 37L45 38L46 38L46 37L47 37L47 36L48 36L48 37L49 37L49 34L47 34L47 36L44 36L44 37L42 37L42 36L41 36L41 35L40 35L40 36L39 36L39 38L37 38L37 36L38 36L38 35L39 35L39 34L42 34L42 35L43 35L43 34L42 34L42 33L41 33L41 32L42 32L42 31L43 31L43 33L47 33L47 32L48 32L48 33L49 33L49 30L48 30L48 31L47 31L47 28L49 28L49 26L46 26L46 27L47 27L47 28L46 28L46 31L47 31L47 32L44 32L44 29L45 29L45 28L44 28L44 27L45 27L45 25L48 25L48 24L45 24L45 23L46 23L46 22L47 22L47 23L49 23L49 22L47 22L47 20L48 20L48 21L49 21L49 18L47 18L47 17L48 17L48 16L45 16L45 15L49 15L49 14L46 14L46 13L48 13L48 12L46 12L46 11L44 11L44 10L43 10L43 9L45 9L45 8L43 8L43 9L42 9L42 10L41 10L41 11L42 11L42 10L43 10L43 11L44 11L44 12L42 12L42 14L40 14L40 13L41 13L41 12L39 12L39 14L36 14L36 13L38 13L38 12L36 12L36 13L35 13L35 14L34 14L34 13L32 13L32 12L33 12L33 11L34 11L34 12L35 12L35 10L36 10L36 11L39 11L39 10L37 10L37 9L41 9L41 8L38 8L38 7L39 7L39 5L38 5L38 3L35 3L35 2L37 2L37 1L38 1L38 2L39 2L39 4L40 4L40 3L41 3L41 0L40 0L40 1L38 1L38 0L35 0L35 1L31 1L31 0L27 0L27 1L26 1L26 2L29 2L29 3L25 3L25 2L24 2L24 1L25 1L25 0L23 0L23 1L22 1L22 3L21 3L21 1L20 1L20 2L19 2L19 0L16 0L16 1L15 1L15 0ZM12 1L12 2L13 2L13 1ZM16 1L16 3L18 3L18 2L17 2L17 1ZM29 1L29 2L30 2L30 4L32 4L32 5L30 5L30 6L29 6L29 7L30 7L30 6L31 6L31 7L32 7L32 8L30 8L30 9L29 9L29 8L28 8L28 4L27 4L27 9L26 9L26 10L27 10L27 11L26 11L26 12L23 12L23 13L24 13L24 14L23 14L23 15L22 15L22 14L21 14L21 16L20 16L20 19L21 19L21 21L19 21L19 22L21 22L21 21L22 21L22 22L25 22L25 21L23 21L23 20L24 20L24 19L25 19L25 20L26 20L26 21L29 21L29 19L30 19L30 20L31 20L31 22L30 22L30 23L31 23L31 24L32 24L32 25L33 25L33 28L32 28L32 27L31 27L31 26L29 26L29 25L30 25L30 24L29 24L29 22L28 22L28 23L27 23L27 24L28 24L28 25L27 25L27 26L28 26L28 27L27 27L27 28L28 28L28 30L27 30L27 29L26 29L26 27L25 27L25 30L24 30L24 31L23 31L23 32L22 32L22 31L18 31L18 29L16 29L16 27L15 27L15 25L14 25L14 28L15 28L15 29L14 29L14 31L13 31L13 32L11 32L11 31L12 31L12 29L13 29L13 27L12 27L12 26L13 26L13 25L9 25L9 26L10 26L10 27L9 27L9 28L7 28L7 27L4 27L4 26L3 26L3 27L4 27L4 28L7 28L7 29L8 29L8 30L7 30L7 31L6 31L6 32L8 32L8 30L9 30L9 29L10 29L10 27L12 27L12 28L11 28L11 31L10 31L10 32L11 32L11 33L10 33L10 34L9 34L9 36L8 36L8 37L9 37L9 40L8 40L8 41L9 41L9 40L10 40L10 39L11 39L11 41L10 41L10 42L9 42L9 44L10 44L10 42L12 42L12 43L11 43L11 44L14 44L14 45L15 45L15 43L16 43L16 41L17 41L17 43L18 43L18 42L19 42L19 41L21 41L21 40L23 40L23 39L29 39L29 40L27 40L27 41L29 41L29 42L28 42L28 43L29 43L29 42L30 42L30 41L29 41L29 40L30 40L30 39L31 39L31 43L33 43L33 44L32 44L32 47L33 47L33 46L35 46L35 44L37 44L37 43L35 43L35 42L36 42L36 41L35 41L35 40L38 40L38 41L37 41L37 42L38 42L38 43L40 43L40 41L39 41L39 40L41 40L41 39L42 39L42 40L44 40L44 39L42 39L42 38L41 38L41 39L36 39L36 38L35 38L35 37L36 37L36 36L37 36L37 34L39 34L39 33L38 33L38 32L40 32L40 31L41 31L41 30L42 30L42 29L41 29L41 27L40 27L40 24L39 24L39 23L40 23L40 22L41 22L41 21L42 21L42 17L43 17L43 16L39 16L39 17L40 17L40 18L37 18L37 19L36 19L36 18L34 18L34 17L33 17L33 16L34 16L34 14L32 14L32 13L31 13L31 12L32 12L32 11L33 11L33 10L35 10L35 9L36 9L36 8L35 8L35 7L36 7L36 6L37 6L37 7L38 7L38 6L37 6L37 4L33 4L33 3L34 3L34 2L33 2L33 3L32 3L32 2L31 2L31 1ZM23 2L23 3L22 3L22 4L25 4L25 3L24 3L24 2ZM18 4L18 5L16 5L16 6L15 6L15 7L16 7L16 6L17 6L17 8L18 8L18 10L17 10L17 9L15 9L15 10L17 10L17 11L15 11L15 12L16 12L16 13L17 13L17 14L18 14L18 13L19 13L19 12L21 12L21 11L22 11L22 10L23 10L23 11L25 11L25 10L24 10L24 9L21 9L21 8L20 8L20 5L21 5L21 4ZM18 5L18 8L19 8L19 5ZM23 5L23 8L26 8L26 5ZM33 5L33 6L32 6L32 7L33 7L33 9L35 9L35 8L34 8L34 7L35 7L35 5ZM21 6L21 7L22 7L22 6ZM24 6L24 7L25 7L25 6ZM33 6L33 7L34 7L34 6ZM40 6L40 7L41 7L41 6ZM48 8L48 9L46 9L46 10L48 10L48 11L49 11L49 10L48 10L48 9L49 9L49 8ZM19 9L19 10L18 10L18 11L17 11L17 13L18 13L18 12L19 12L19 11L21 11L21 10L20 10L20 9ZM27 9L27 10L29 10L29 12L26 12L26 13L25 13L25 17L23 17L23 16L24 16L24 15L23 15L23 16L22 16L22 17L23 17L23 18L25 18L25 19L26 19L26 20L28 20L28 17L29 17L29 18L30 18L30 19L32 19L32 20L34 20L34 18L32 18L32 17L31 17L31 18L30 18L30 17L29 17L29 16L30 16L30 14L31 14L31 13L30 13L30 14L29 14L29 12L31 12L31 11L30 11L30 10L32 10L32 9L30 9L30 10L29 10L29 9ZM44 12L44 13L46 13L46 12ZM0 13L0 14L2 14L2 13ZM6 13L6 14L9 14L9 15L8 15L8 16L7 16L7 15L6 15L6 16L5 16L5 17L6 17L6 18L7 18L7 17L8 17L8 18L10 18L10 17L11 17L11 16L10 16L10 14L9 14L9 13ZM26 13L26 17L25 17L25 18L27 18L27 17L28 17L28 15L29 15L29 14L27 14L27 13ZM19 14L19 15L20 15L20 14ZM42 14L42 15L43 15L43 14ZM31 15L31 16L33 16L33 15ZM36 15L36 16L35 16L35 17L36 17L36 16L37 16L37 17L38 17L38 16L37 16L37 15ZM6 16L6 17L7 17L7 16ZM44 16L44 17L45 17L45 16ZM21 18L21 19L22 19L22 20L23 20L23 19L22 19L22 18ZM46 18L46 19L45 19L45 20L44 20L44 21L43 21L43 22L46 22L46 20L47 20L47 18ZM6 19L6 20L7 20L7 21L6 21L6 22L10 22L10 23L11 23L11 22L12 22L12 21L11 21L11 20L10 20L10 19L9 19L9 20L10 20L10 21L8 21L8 20L7 20L7 19ZM37 19L37 20L36 20L36 21L35 21L35 22L33 22L33 21L32 21L32 22L31 22L31 23L32 23L32 24L33 24L33 23L34 23L34 25L36 25L36 26L34 26L34 27L35 27L35 30L33 30L33 31L35 31L35 30L36 30L36 32L35 32L35 33L36 33L36 32L38 32L38 31L40 31L40 30L38 30L38 29L40 29L40 28L38 28L38 29L37 29L37 28L36 28L36 26L37 26L37 24L38 24L38 23L39 23L39 22L38 22L38 23L37 23L37 21L41 21L41 20L40 20L40 19ZM32 22L32 23L33 23L33 22ZM5 23L5 26L8 26L8 23ZM23 23L23 26L26 26L26 23ZM35 23L35 24L37 24L37 23ZM41 23L41 26L44 26L44 23ZM3 24L3 25L4 25L4 24ZM6 24L6 25L7 25L7 24ZM24 24L24 25L25 25L25 24ZM42 24L42 25L43 25L43 24ZM17 25L17 26L18 26L18 25ZM21 25L21 27L20 27L20 28L19 28L19 29L20 29L20 30L22 30L22 29L24 29L24 27L23 27L23 28L22 28L22 25ZM38 26L38 27L39 27L39 26ZM28 27L28 28L29 28L29 30L31 30L31 31L29 31L29 32L28 32L28 31L27 31L27 30L26 30L26 31L24 31L24 32L23 32L23 33L22 33L22 32L20 32L20 35L18 35L18 33L19 33L19 32L16 32L16 35L15 35L15 33L11 33L11 34L12 34L12 37L11 37L11 36L10 36L10 38L11 38L11 39L12 39L12 37L13 37L13 38L14 38L14 39L15 39L15 38L16 38L16 37L19 37L19 38L18 38L18 39L17 39L17 41L18 41L18 40L19 40L19 38L20 38L20 39L21 39L21 36L20 36L20 35L22 35L22 39L23 39L23 38L26 38L26 37L23 37L23 36L24 36L24 34L25 34L25 36L27 36L27 37L28 37L28 38L29 38L29 39L30 39L30 38L31 38L31 39L32 39L32 40L34 40L34 39L35 39L35 38L34 38L34 37L32 37L32 38L31 38L31 36L34 36L34 35L35 35L35 36L36 36L36 34L34 34L34 33L33 33L33 32L31 32L31 31L32 31L32 28L31 28L31 27L30 27L30 28L29 28L29 27ZM42 27L42 28L43 28L43 29L44 29L44 28L43 28L43 27ZM21 28L21 29L22 29L22 28ZM30 28L30 29L31 29L31 28ZM33 28L33 29L34 29L34 28ZM2 29L2 30L4 30L4 29ZM37 30L37 31L38 31L38 30ZM26 31L26 35L27 35L27 36L28 36L28 37L29 37L29 38L30 38L30 36L31 36L31 34L32 34L32 33L31 33L31 32L30 32L30 33L29 33L29 34L30 34L30 35L29 35L29 36L28 36L28 34L27 34L27 33L28 33L28 32L27 32L27 31ZM6 33L6 34L5 34L5 35L6 35L6 36L7 36L7 35L6 35L6 34L8 34L8 33ZM30 33L30 34L31 34L31 33ZM2 34L2 35L3 35L3 34ZM13 34L13 35L14 35L14 34ZM33 34L33 35L34 35L34 34ZM44 34L44 35L46 35L46 34ZM16 35L16 36L18 36L18 35ZM13 36L13 37L14 37L14 38L15 38L15 36ZM40 36L40 37L41 37L41 36ZM4 37L4 38L5 38L5 39L7 39L7 38L5 38L5 37ZM32 38L32 39L34 39L34 38ZM47 38L47 39L49 39L49 38ZM12 40L12 42L13 42L13 43L14 43L14 42L15 42L15 41L14 41L14 40ZM13 41L13 42L14 42L14 41ZM23 41L23 44L26 44L26 41ZM32 41L32 42L34 42L34 41ZM41 41L41 44L44 44L44 41ZM20 42L20 43L19 43L19 44L20 44L20 43L21 43L21 45L22 45L22 42ZM24 42L24 43L25 43L25 42ZM42 42L42 43L43 43L43 42ZM47 42L47 43L49 43L49 42ZM34 43L34 44L33 44L33 45L34 45L34 44L35 44L35 43ZM16 44L16 45L18 45L18 44ZM38 45L38 46L37 46L37 47L38 47L38 46L39 46L39 47L40 47L40 46L39 46L39 45ZM24 46L24 47L23 47L23 48L24 48L24 49L25 49L25 48L26 48L26 47L25 47L25 46ZM44 46L44 47L45 47L45 48L48 48L48 47L47 47L47 46L46 46L46 47L45 47L45 46ZM15 47L15 48L17 48L17 47ZM24 47L24 48L25 48L25 47ZM0 0L0 7L7 7L7 0ZM1 1L1 6L6 6L6 1ZM2 2L2 5L5 5L5 2ZM42 0L42 7L49 7L49 0ZM43 1L43 6L48 6L48 1ZM44 2L44 5L47 5L47 2ZM0 42L0 49L7 49L7 42ZM1 43L1 48L6 48L6 43ZM2 44L2 47L5 47L5 44Z" fill="#000000"/></g></g></svg>
