<?xml version="1.0" encoding="UTF-8"?>
<svg xmlns="http://www.w3.org/2000/svg" version="1.1" width="300" height="300" viewBox="0 0 300 300"><rect x="0" y="0" width="300" height="300" fill="#ffffff"/><g transform="scale(6.122)"><g transform="translate(0,0)"><path fill-rule="evenodd" d="M8 0L8 1L11 1L11 2L9 2L9 3L11 3L11 5L10 5L10 4L8 4L8 7L9 7L9 8L10 8L10 9L9 9L9 11L11 11L11 12L13 12L13 10L14 10L14 13L15 13L15 11L16 11L16 10L17 10L17 9L19 9L19 10L20 10L20 11L21 11L21 12L19 12L19 13L20 13L20 14L17 14L17 15L18 15L18 18L17 18L17 16L13 16L13 17L11 17L11 15L10 15L10 14L5 14L5 13L10 13L10 12L8 12L8 11L7 11L7 10L8 10L8 8L1 8L1 9L3 9L3 10L1 10L1 13L2 13L2 12L3 12L3 14L4 14L4 15L7 15L7 16L6 16L6 17L7 17L7 18L6 18L6 19L7 19L7 20L6 20L6 21L7 21L7 22L3 22L3 24L2 24L2 23L1 23L1 21L2 21L2 20L1 20L1 19L3 19L3 21L4 21L4 19L5 19L5 16L3 16L3 17L4 17L4 19L3 19L3 18L1 18L1 19L0 19L0 20L1 20L1 21L0 21L0 26L1 26L1 24L2 24L2 25L3 25L3 26L4 26L4 27L5 27L5 28L3 28L3 29L1 29L1 28L2 28L2 27L0 27L0 29L1 29L1 31L0 31L0 36L1 36L1 37L0 37L0 38L1 38L1 40L0 40L0 41L3 41L3 40L4 40L4 39L2 39L2 35L3 35L3 37L4 37L4 38L5 38L5 39L7 39L7 40L6 40L6 41L8 41L8 48L9 48L9 49L10 49L10 48L11 48L11 49L12 49L12 47L10 47L10 45L11 45L11 43L12 43L12 44L13 44L13 46L14 46L14 48L15 48L15 49L18 49L18 46L20 46L20 47L19 47L19 48L20 48L20 49L21 49L21 48L22 48L22 46L23 46L23 45L27 45L27 44L29 44L29 45L28 45L28 46L27 46L27 49L28 49L28 48L29 48L29 49L30 49L30 47L28 47L28 46L31 46L31 47L32 47L32 48L31 48L31 49L32 49L32 48L33 48L33 49L34 49L34 47L37 47L37 48L35 48L35 49L38 49L38 48L39 48L39 49L40 49L40 48L39 48L39 47L40 47L40 46L38 46L38 45L42 45L42 46L41 46L41 48L43 48L43 47L44 47L44 48L45 48L45 49L49 49L49 45L48 45L48 44L46 44L46 46L45 46L45 43L46 43L46 42L45 42L45 41L46 41L46 40L47 40L47 41L48 41L48 40L47 40L47 39L49 39L49 38L47 38L47 36L48 36L48 37L49 37L49 34L45 34L45 35L44 35L44 33L45 33L45 32L46 32L46 33L47 33L47 32L46 32L46 31L49 31L49 30L47 30L47 28L46 28L46 31L45 31L45 32L44 32L44 33L43 33L43 34L42 34L42 33L41 33L41 32L42 32L42 31L44 31L44 30L43 30L43 29L44 29L44 27L45 27L45 25L47 25L47 26L46 26L46 27L47 27L47 26L48 26L48 28L49 28L49 26L48 26L48 25L47 25L47 24L48 24L48 23L49 23L49 22L47 22L47 20L48 20L48 21L49 21L49 18L47 18L47 17L48 17L48 16L47 16L47 17L46 17L46 15L45 15L45 14L47 14L47 15L49 15L49 14L47 14L47 13L48 13L48 12L45 12L45 11L47 11L47 10L45 10L45 11L44 11L44 12L43 12L43 11L42 11L42 10L44 10L44 9L45 9L45 8L43 8L43 9L42 9L42 10L41 10L41 11L42 11L42 12L43 12L43 13L42 13L42 14L40 14L40 13L41 13L41 12L39 12L39 14L38 14L38 15L39 15L39 17L40 17L40 18L39 18L39 19L38 19L38 18L36 18L36 19L37 19L37 20L36 20L36 21L35 21L35 22L33 22L33 21L32 21L32 22L31 22L31 20L30 20L30 19L31 19L31 16L34 16L34 15L37 15L37 13L38 13L38 11L39 11L39 10L37 10L37 12L36 12L36 10L34 10L34 9L33 9L33 8L30 8L30 10L31 10L31 11L30 11L30 14L29 14L29 12L26 12L26 10L25 10L25 9L27 9L27 11L29 11L29 10L28 10L28 9L29 9L29 6L30 6L30 7L31 7L31 6L30 6L30 5L32 5L32 4L30 4L30 2L28 2L28 3L29 3L29 6L28 6L28 5L27 5L27 3L25 3L25 2L24 2L24 1L25 1L25 0L24 0L24 1L23 1L23 0L21 0L21 1L20 1L20 2L19 2L19 0L16 0L16 1L15 1L15 0ZM26 0L26 1L28 1L28 0ZM29 0L29 1L31 1L31 2L32 2L32 3L33 3L33 4L37 4L37 6L36 6L36 8L35 8L35 5L33 5L33 6L32 6L32 7L33 7L33 6L34 6L34 8L35 8L35 9L36 9L36 8L37 8L37 6L38 6L38 7L39 7L39 5L38 5L38 3L35 3L35 2L37 2L37 1L38 1L38 2L39 2L39 4L40 4L40 3L41 3L41 0L40 0L40 1L38 1L38 0L35 0L35 1L31 1L31 0ZM12 1L12 2L11 2L11 3L12 3L12 4L13 4L13 3L14 3L14 1ZM16 1L16 3L18 3L18 4L19 4L19 5L18 5L18 6L17 6L17 5L16 5L16 6L15 6L15 7L16 7L16 6L17 6L17 7L18 7L18 8L20 8L20 10L21 10L21 11L22 11L22 12L23 12L23 13L24 13L24 14L23 14L23 15L22 15L22 14L20 14L20 15L21 15L21 17L19 17L19 18L18 18L18 19L19 19L19 20L17 20L17 18L15 18L15 17L13 17L13 18L11 18L11 17L9 17L9 15L8 15L8 16L7 16L7 17L8 17L8 18L10 18L10 19L9 19L9 20L10 20L10 21L9 21L9 22L10 22L10 23L12 23L12 24L13 24L13 25L9 25L9 26L10 26L10 27L9 27L9 29L10 29L10 30L11 30L11 31L8 31L8 27L6 27L6 28L7 28L7 29L5 29L5 30L3 30L3 32L2 32L2 33L1 33L1 35L2 35L2 34L3 34L3 35L4 35L4 36L5 36L5 35L6 35L6 36L7 36L7 35L9 35L9 37L6 37L6 38L7 38L7 39L8 39L8 38L9 38L9 39L14 39L14 37L17 37L17 38L18 38L18 41L19 41L19 40L20 40L20 41L21 41L21 40L22 40L22 39L23 39L23 40L25 40L25 39L23 39L23 38L24 38L24 36L22 36L22 37L21 37L21 36L20 36L20 35L22 35L22 34L20 34L20 35L19 35L19 33L20 33L20 32L21 32L21 33L24 33L24 34L23 34L23 35L25 35L25 36L28 36L28 37L30 37L30 35L34 35L34 36L31 36L31 37L32 37L32 39L33 39L33 40L31 40L31 38L28 38L28 39L30 39L30 40L27 40L27 41L28 41L28 42L27 42L27 43L30 43L30 42L31 42L31 43L32 43L32 42L34 42L34 43L33 43L33 44L32 44L32 47L33 47L33 46L35 46L35 44L37 44L37 43L40 43L40 41L39 41L39 42L37 42L37 43L35 43L35 42L34 42L34 41L33 41L33 40L34 40L34 38L39 38L39 36L40 36L40 37L41 37L41 36L43 36L43 35L42 35L42 34L39 34L39 33L37 33L37 34L39 34L39 36L38 36L38 37L36 37L36 36L37 36L37 35L36 35L36 34L35 34L35 33L36 33L36 32L35 32L35 31L36 31L36 30L35 30L35 27L34 27L34 26L36 26L36 28L37 28L37 29L38 29L38 30L37 30L37 31L38 31L38 32L40 32L40 31L41 31L41 30L42 30L42 29L40 29L40 31L38 31L38 30L39 30L39 29L38 29L38 28L41 28L41 27L40 27L40 26L39 26L39 25L40 25L40 24L39 24L39 23L40 23L40 22L41 22L41 21L42 21L42 18L43 18L43 14L42 14L42 16L40 16L40 17L42 17L42 18L41 18L41 21L37 21L37 23L35 23L35 24L37 24L37 26L36 26L36 25L34 25L34 23L33 23L33 22L32 22L32 23L31 23L31 22L30 22L30 23L31 23L31 24L32 24L32 25L33 25L33 28L32 28L32 27L31 27L31 26L29 26L29 28L28 28L28 26L27 26L27 27L24 27L24 28L23 28L23 27L20 27L20 28L18 28L18 27L19 27L19 26L20 26L20 25L19 25L19 22L18 22L18 21L19 21L19 20L20 20L20 22L23 22L23 21L24 21L24 22L25 22L25 21L26 21L26 19L25 19L25 18L27 18L27 17L28 17L28 19L27 19L27 23L28 23L28 24L27 24L27 25L28 25L28 24L29 24L29 25L30 25L30 24L29 24L29 21L28 21L28 20L29 20L29 18L30 18L30 17L28 17L28 15L29 15L29 16L30 16L30 15L32 15L32 14L33 14L33 15L34 15L34 14L35 14L35 13L36 13L36 12L35 12L35 11L34 11L34 10L33 10L33 11L34 11L34 12L31 12L31 13L32 13L32 14L30 14L30 15L29 15L29 14L27 14L27 13L26 13L26 12L23 12L23 10L21 10L21 9L22 9L22 6L21 6L21 8L20 8L20 5L21 5L21 4L19 4L19 2L17 2L17 1ZM12 2L12 3L13 3L13 2ZM21 2L21 3L22 3L22 2ZM23 2L23 3L24 3L24 4L25 4L25 3L24 3L24 2ZM33 2L33 3L34 3L34 2ZM14 4L14 5L15 5L15 4ZM12 5L12 6L11 6L11 7L10 7L10 6L9 6L9 7L10 7L10 8L14 8L14 6L13 6L13 5ZM23 5L23 8L26 8L26 5ZM12 6L12 7L13 7L13 6ZM18 6L18 7L19 7L19 6ZM24 6L24 7L25 7L25 6ZM27 6L27 7L28 7L28 6ZM40 6L40 7L41 7L41 6ZM39 8L39 9L41 9L41 8ZM48 8L48 9L49 9L49 8ZM4 9L4 11L3 11L3 12L4 12L4 13L5 13L5 12L7 12L7 11L6 11L6 10L7 10L7 9ZM10 9L10 10L12 10L12 9ZM14 9L14 10L16 10L16 9ZM31 9L31 10L32 10L32 9ZM24 10L24 11L25 11L25 10ZM48 10L48 11L49 11L49 10ZM17 11L17 12L16 12L16 13L17 13L17 12L18 12L18 11ZM44 12L44 13L45 13L45 12ZM25 13L25 17L23 17L23 16L24 16L24 15L23 15L23 16L22 16L22 17L23 17L23 18L25 18L25 17L26 17L26 13ZM33 13L33 14L34 14L34 13ZM0 14L0 16L2 16L2 15L1 15L1 14ZM13 14L13 15L14 15L14 14ZM36 16L36 17L38 17L38 16ZM44 16L44 17L45 17L45 16ZM33 17L33 18L32 18L32 20L34 20L34 19L33 19L33 18L34 18L34 17ZM13 18L13 19L15 19L15 20L16 20L16 19L15 19L15 18ZM19 18L19 19L20 19L20 20L21 20L21 19L22 19L22 20L24 20L24 19L22 19L22 18L21 18L21 19L20 19L20 18ZM46 18L46 19L45 19L45 20L44 20L44 21L43 21L43 22L46 22L46 23L45 23L45 24L47 24L47 22L46 22L46 20L47 20L47 18ZM10 19L10 20L11 20L11 22L12 22L12 20L11 20L11 19ZM39 19L39 20L40 20L40 19ZM14 21L14 22L15 22L15 23L14 23L14 25L13 25L13 26L12 26L12 27L10 27L10 28L12 28L12 27L13 27L13 29L12 29L12 31L11 31L11 32L10 32L10 33L9 33L9 32L8 32L8 31L7 31L7 30L6 30L6 31L5 31L5 32L3 32L3 34L4 34L4 35L5 35L5 34L6 34L6 35L7 35L7 34L6 34L6 33L8 33L8 34L11 34L11 36L10 36L10 37L9 37L9 38L10 38L10 37L13 37L13 36L14 36L14 35L13 35L13 34L11 34L11 32L13 32L13 33L14 33L14 34L15 34L15 35L17 35L17 34L16 34L16 33L19 33L19 32L18 32L18 31L21 31L21 30L22 30L22 31L24 31L24 32L27 32L27 33L28 33L28 32L27 32L27 31L28 31L28 30L31 30L31 32L30 32L30 31L29 31L29 33L30 33L30 34L29 34L29 35L28 35L28 34L25 34L25 35L28 35L28 36L29 36L29 35L30 35L30 34L32 34L32 33L31 33L31 32L32 32L32 28L31 28L31 27L30 27L30 28L29 28L29 29L28 29L28 28L27 28L27 29L28 29L28 30L25 30L25 28L24 28L24 29L22 29L22 28L21 28L21 30L20 30L20 29L19 29L19 30L18 30L18 28L17 28L17 27L18 27L18 25L17 25L17 27L16 27L16 24L15 24L15 23L16 23L16 22L17 22L17 23L18 23L18 22L17 22L17 21L16 21L16 22L15 22L15 21ZM38 22L38 23L37 23L37 24L38 24L38 23L39 23L39 22ZM5 23L5 26L8 26L8 23ZM21 23L21 24L22 24L22 23ZM23 23L23 26L26 26L26 23ZM32 23L32 24L33 24L33 23ZM41 23L41 26L44 26L44 23ZM3 24L3 25L4 25L4 24ZM6 24L6 25L7 25L7 24ZM24 24L24 25L25 25L25 24ZM42 24L42 25L43 25L43 24ZM14 25L14 26L15 26L15 25ZM38 26L38 27L39 27L39 26ZM14 27L14 29L13 29L13 30L14 30L14 29L15 29L15 32L14 32L14 31L13 31L13 32L14 32L14 33L16 33L16 32L17 32L17 29L16 29L16 27ZM42 27L42 28L43 28L43 27ZM30 28L30 29L31 29L31 28ZM33 28L33 29L34 29L34 28ZM24 30L24 31L25 31L25 30ZM33 30L33 32L34 32L34 31L35 31L35 30ZM6 31L6 32L7 32L7 31ZM48 32L48 33L49 33L49 32ZM33 33L33 34L34 34L34 35L35 35L35 36L36 36L36 35L35 35L35 34L34 34L34 33ZM18 35L18 38L19 38L19 39L21 39L21 37L20 37L20 38L19 38L19 35ZM40 35L40 36L41 36L41 35ZM46 35L46 36L47 36L47 35ZM25 37L25 38L26 38L26 37ZM33 37L33 38L34 38L34 37ZM42 37L42 38L41 38L41 39L39 39L39 40L41 40L41 39L42 39L42 40L44 40L44 39L45 39L45 40L46 40L46 39L45 39L45 38L46 38L46 37ZM15 38L15 39L16 39L16 38ZM42 38L42 39L44 39L44 38ZM35 39L35 40L37 40L37 41L38 41L38 40L37 40L37 39ZM8 40L8 41L9 41L9 40ZM10 40L10 42L9 42L9 44L10 44L10 42L12 42L12 41L13 41L13 40L12 40L12 41L11 41L11 40ZM16 40L16 41L14 41L14 43L13 43L13 44L14 44L14 45L15 45L15 47L16 47L16 48L17 48L17 46L16 46L16 43L18 43L18 42L17 42L17 40ZM23 41L23 44L26 44L26 41ZM29 41L29 42L30 42L30 41ZM41 41L41 44L44 44L44 41ZM15 42L15 43L16 43L16 42ZM21 42L21 43L20 43L20 45L22 45L22 42ZM24 42L24 43L25 43L25 42ZM42 42L42 43L43 43L43 42ZM47 42L47 43L49 43L49 42ZM34 43L34 44L33 44L33 45L34 45L34 44L35 44L35 43ZM17 44L17 45L18 45L18 44ZM43 45L43 46L42 46L42 47L43 47L43 46L44 46L44 47L45 47L45 48L48 48L48 47L47 47L47 46L46 46L46 47L45 47L45 46L44 46L44 45ZM24 46L24 47L23 47L23 48L24 48L24 49L25 49L25 48L26 48L26 47L25 47L25 46ZM37 46L37 47L38 47L38 46ZM24 47L24 48L25 48L25 47ZM0 0L0 7L7 7L7 0ZM1 1L1 6L6 6L6 1ZM2 2L2 5L5 5L5 2ZM42 0L42 7L49 7L49 0ZM43 1L43 6L48 6L48 1ZM44 2L44 5L47 5L47 2ZM0 42L0 49L7 49L7 42ZM1 43L1 48L6 48L6 43ZM2 44L2 47L5 47L5 44Z" fill="#000000"/></g></g></svg>
