<?xml version="1.0" encoding="UTF-8"?>
<svg xmlns="http://www.w3.org/2000/svg" version="1.1" width="300" height="300" viewBox="0 0 300 300"><rect x="0" y="0" width="300" height="300" fill="#ffffff"/><g transform="scale(8.108)"><g transform="translate(0,0)"><path fill-rule="evenodd" d="M8 0L8 5L10 5L10 7L11 7L11 10L12 10L12 11L11 11L11 13L10 13L10 14L9 14L9 12L8 12L8 10L9 10L9 11L10 11L10 10L9 10L9 9L10 9L10 8L9 8L9 6L8 6L8 8L6 8L6 9L8 9L8 10L6 10L6 11L7 11L7 12L6 12L6 13L5 13L5 11L1 11L1 13L0 13L0 17L1 17L1 16L3 16L3 17L2 17L2 18L0 18L0 19L4 19L4 17L7 17L7 18L5 18L5 19L8 19L8 20L4 20L4 22L3 22L3 23L4 23L4 24L2 24L2 25L1 25L1 24L0 24L0 25L1 25L1 26L0 26L0 27L1 27L1 28L0 28L0 29L1 29L1 28L2 28L2 29L3 29L3 28L4 28L4 29L5 29L5 28L4 28L4 27L3 27L3 28L2 28L2 27L1 27L1 26L2 26L2 25L4 25L4 24L5 24L5 27L7 27L7 28L6 28L6 29L8 29L8 31L9 31L9 32L8 32L8 33L10 33L10 34L11 34L11 33L12 33L12 31L13 31L13 33L14 33L14 34L16 34L16 35L14 35L14 36L13 36L13 34L12 34L12 36L11 36L11 37L15 37L15 36L16 36L16 35L18 35L18 37L19 37L19 36L20 36L20 35L18 35L18 32L19 32L19 34L20 34L20 32L21 32L21 31L22 31L22 30L21 30L21 31L20 31L20 30L19 30L19 31L18 31L18 32L17 32L17 29L18 29L18 28L19 28L19 29L21 29L21 27L22 27L22 26L23 26L23 24L24 24L24 23L23 23L23 22L24 22L24 21L23 21L23 20L24 20L24 19L23 19L23 20L22 20L22 19L20 19L20 18L24 18L24 17L23 17L23 12L25 12L25 18L26 18L26 19L25 19L25 20L26 20L26 21L25 21L25 22L26 22L26 23L25 23L25 24L26 24L26 26L27 26L27 27L23 27L23 28L25 28L25 29L26 29L26 30L27 30L27 31L24 31L24 33L23 33L23 34L22 34L22 33L21 33L21 34L22 34L22 35L21 35L21 36L22 36L22 37L25 37L25 35L26 35L26 34L25 34L25 33L26 33L26 32L27 32L27 31L28 31L28 33L27 33L27 37L31 37L31 36L30 36L30 33L31 33L31 35L32 35L32 37L33 37L33 34L34 34L34 31L35 31L35 30L33 30L33 28L32 28L32 27L33 27L33 26L32 26L32 25L34 25L34 26L35 26L35 25L36 25L36 27L37 27L37 25L36 25L36 24L37 24L37 23L36 23L36 21L37 21L37 20L36 20L36 19L37 19L37 16L36 16L36 15L37 15L37 8L32 8L32 10L33 10L33 11L32 11L32 12L30 12L30 14L29 14L29 15L30 15L30 14L31 14L31 16L28 16L28 18L29 18L29 19L27 19L27 18L26 18L26 17L27 17L27 16L26 16L26 15L27 15L27 14L28 14L28 13L29 13L29 12L28 12L28 11L27 11L27 10L28 10L28 9L27 9L27 10L26 10L26 9L25 9L25 6L24 6L24 8L23 8L23 6L22 6L22 7L21 7L21 3L20 3L20 7L21 7L21 9L20 9L20 8L19 8L19 2L21 2L21 0L20 0L20 1L19 1L19 0L18 0L18 1L16 1L16 2L15 2L15 3L14 3L14 2L13 2L13 1L14 1L14 0L13 0L13 1L12 1L12 0ZM22 0L22 1L23 1L23 0ZM25 0L25 1L26 1L26 2L25 2L25 5L26 5L26 7L27 7L27 8L28 8L28 7L29 7L29 6L28 6L28 5L29 5L29 0L27 0L27 1L26 1L26 0ZM9 1L9 4L10 4L10 5L11 5L11 4L13 4L13 3L11 3L11 2L10 2L10 1ZM17 2L17 3L15 3L15 4L17 4L17 5L14 5L14 6L13 6L13 5L12 5L12 6L11 6L11 7L12 7L12 10L14 10L14 9L17 9L17 10L20 10L20 11L22 11L22 10L23 10L23 11L25 11L25 10L24 10L24 9L23 9L23 8L22 8L22 10L20 10L20 9L17 9L17 8L18 8L18 4L17 4L17 3L18 3L18 2ZM23 2L23 3L22 3L22 5L23 5L23 3L24 3L24 2ZM27 2L27 3L28 3L28 2ZM10 3L10 4L11 4L11 3ZM12 6L12 7L13 7L13 6ZM14 6L14 7L15 7L15 6ZM16 6L16 7L17 7L17 6ZM27 6L27 7L28 7L28 6ZM1 8L1 9L0 9L0 10L1 10L1 9L2 9L2 10L5 10L5 8L4 8L4 9L3 9L3 8ZM8 8L8 9L9 9L9 8ZM30 8L30 9L29 9L29 10L30 10L30 9L31 9L31 8ZM34 9L34 10L35 10L35 11L34 11L34 12L35 12L35 11L36 11L36 9ZM15 10L15 12L14 12L14 11L12 11L12 12L14 12L14 13L11 13L11 14L10 14L10 15L11 15L11 14L13 14L13 17L12 17L12 18L11 18L11 19L10 19L10 16L8 16L8 15L9 15L9 14L7 14L7 13L6 13L6 14L5 14L5 13L3 13L3 12L2 12L2 13L1 13L1 14L3 14L3 15L4 15L4 16L5 16L5 15L6 15L6 16L7 16L7 17L9 17L9 18L8 18L8 19L9 19L9 20L8 20L8 22L7 22L7 21L5 21L5 22L4 22L4 23L5 23L5 22L7 22L7 23L6 23L6 24L7 24L7 25L6 25L6 26L7 26L7 27L8 27L8 29L9 29L9 27L8 27L8 24L9 24L9 26L11 26L11 28L12 28L12 29L13 29L13 31L15 31L15 32L14 32L14 33L17 33L17 32L16 32L16 31L15 31L15 29L14 29L14 28L15 28L15 27L16 27L16 28L18 28L18 27L21 27L21 26L22 26L22 25L21 25L21 24L20 24L20 26L19 26L19 25L17 25L17 26L15 26L15 25L13 25L13 26L14 26L14 28L13 28L13 27L12 27L12 26L11 26L11 25L10 25L10 24L9 24L9 21L10 21L10 22L11 22L11 23L12 23L12 24L13 24L13 23L14 23L14 24L19 24L19 23L14 23L14 21L12 21L12 20L16 20L16 22L17 22L17 21L18 21L18 22L19 22L19 20L20 20L20 19L19 19L19 20L17 20L17 19L18 19L18 18L19 18L19 17L18 17L18 16L17 16L17 15L19 15L19 14L18 14L18 13L17 13L17 11L16 11L16 10ZM18 11L18 12L19 12L19 11ZM26 11L26 12L27 12L27 13L26 13L26 14L27 14L27 13L28 13L28 12L27 12L27 11ZM21 12L21 13L22 13L22 12ZM32 12L32 14L33 14L33 12ZM15 13L15 14L14 14L14 15L15 15L15 17L14 17L14 18L13 18L13 19L14 19L14 18L15 18L15 19L17 19L17 18L16 18L16 13ZM34 13L34 15L32 15L32 16L31 16L31 17L32 17L32 18L31 18L31 19L29 19L29 20L27 20L27 25L28 25L28 22L29 22L29 27L30 27L30 28L31 28L31 27L30 27L30 26L31 26L31 25L30 25L30 24L31 24L31 23L30 23L30 20L32 20L32 22L33 22L33 21L34 21L34 22L35 22L35 19L32 19L32 18L33 18L33 17L35 17L35 15L36 15L36 13ZM6 14L6 15L7 15L7 14ZM21 14L21 15L22 15L22 14ZM20 16L20 17L22 17L22 16ZM1 20L1 21L2 21L2 20ZM10 20L10 21L11 21L11 22L12 22L12 21L11 21L11 20ZM20 21L20 23L21 23L21 21ZM22 21L22 22L23 22L23 21ZM0 22L0 23L1 23L1 22ZM22 23L22 24L23 24L23 23ZM32 23L32 24L33 24L33 23ZM34 23L34 25L35 25L35 23ZM27 27L27 28L28 28L28 27ZM34 27L34 29L36 29L36 31L37 31L37 28L35 28L35 27ZM29 29L29 32L32 32L32 29ZM10 30L10 33L11 33L11 30ZM30 30L30 31L31 31L31 30ZM19 31L19 32L20 32L20 31ZM35 32L35 34L36 34L36 35L35 35L35 37L37 37L37 36L36 36L36 35L37 35L37 33L36 33L36 32ZM28 33L28 34L29 34L29 33ZM8 34L8 36L9 36L9 37L10 37L10 35L9 35L9 34ZM23 35L23 36L24 36L24 35ZM0 0L0 7L7 7L7 0ZM1 1L1 6L6 6L6 1ZM2 2L2 5L5 5L5 2ZM30 0L30 7L37 7L37 0ZM31 1L31 6L36 6L36 1ZM32 2L32 5L35 5L35 2ZM0 30L0 37L7 37L7 30ZM1 31L1 36L6 36L6 31ZM2 32L2 35L5 35L5 32Z" fill="#000000"/></g></g></svg>
