<?xml version="1.0" encoding="UTF-8"?>
<svg xmlns="http://www.w3.org/2000/svg" version="1.1" width="300" height="300" viewBox="0 0 300 300"><rect x="0" y="0" width="300" height="300" fill="#ffffff"/><g transform="scale(8.108)"><g transform="translate(0,0)"><path fill-rule="evenodd" d="M9 0L9 1L8 1L8 2L9 2L9 3L8 3L8 5L9 5L9 6L8 6L8 9L7 9L7 8L3 8L3 9L7 9L7 10L5 10L5 11L4 11L4 10L3 10L3 11L2 11L2 8L1 8L1 13L0 13L0 14L1 14L1 15L2 15L2 19L1 19L1 18L0 18L0 19L1 19L1 20L0 20L0 29L1 29L1 27L2 27L2 29L5 29L5 26L6 26L6 27L7 27L7 28L6 28L6 29L8 29L8 30L9 30L9 29L8 29L8 28L10 28L10 30L11 30L11 31L12 31L12 32L11 32L11 34L10 34L10 35L8 35L8 36L9 36L9 37L11 37L11 36L10 36L10 35L13 35L13 34L14 34L14 35L15 35L15 34L16 34L16 33L18 33L18 35L19 35L19 33L18 33L18 30L19 30L19 31L20 31L20 30L19 30L19 29L21 29L21 30L23 30L23 32L24 32L24 33L25 33L25 34L24 34L24 35L25 35L25 36L24 36L24 37L26 37L26 33L25 33L25 32L26 32L26 30L27 30L27 28L28 28L28 31L27 31L27 33L29 33L29 36L28 36L28 35L27 35L27 37L30 37L30 36L32 36L32 37L34 37L34 36L36 36L36 37L37 37L37 34L35 34L35 35L33 35L33 34L32 34L32 33L34 33L34 31L35 31L35 33L36 33L36 32L37 32L37 30L35 30L35 29L36 29L36 28L37 28L37 26L35 26L35 25L33 25L33 24L32 24L32 23L34 23L34 24L36 24L36 23L35 23L35 21L36 21L36 22L37 22L37 18L35 18L35 14L36 14L36 17L37 17L37 14L36 14L36 13L37 13L37 12L36 12L36 11L37 11L37 10L36 10L36 8L35 8L35 9L34 9L34 8L32 8L32 9L31 9L31 8L29 8L29 6L28 6L28 8L27 8L27 4L25 4L25 3L24 3L24 2L25 2L25 1L24 1L24 0L14 0L14 1L13 1L13 2L9 2L9 1L11 1L11 0ZM28 0L28 1L29 1L29 0ZM15 1L15 2L16 2L16 3L18 3L18 2L19 2L19 1L18 1L18 2L17 2L17 1ZM20 1L20 2L22 2L22 1ZM27 2L27 3L28 3L28 2ZM9 3L9 5L10 5L10 6L9 6L9 9L8 9L8 10L9 10L9 11L6 11L6 12L10 12L10 13L11 13L11 12L14 12L14 15L13 15L13 17L15 17L15 19L16 19L16 20L17 20L17 18L18 18L18 22L17 22L17 21L15 21L15 23L14 23L14 22L13 22L13 20L11 20L11 19L10 19L10 18L11 18L11 14L9 14L9 13L6 13L6 14L5 14L5 13L4 13L4 11L3 11L3 12L2 12L2 14L4 14L4 15L5 15L5 16L3 16L3 20L4 20L4 21L5 21L5 22L7 22L7 23L6 23L6 24L7 24L7 25L6 25L6 26L7 26L7 25L8 25L8 27L10 27L10 28L11 28L11 29L12 29L12 31L13 31L13 32L12 32L12 33L14 33L14 34L15 34L15 33L16 33L16 32L15 32L15 33L14 33L14 31L15 31L15 30L14 30L14 31L13 31L13 29L12 29L12 28L15 28L15 29L16 29L16 27L17 27L17 30L18 30L18 29L19 29L19 28L20 28L20 27L24 27L24 28L27 28L27 27L28 27L28 28L32 28L32 27L33 27L33 26L31 26L31 27L28 27L28 25L24 25L24 26L18 26L18 24L19 24L19 25L20 25L20 24L19 24L19 23L21 23L21 25L22 25L22 24L23 24L23 23L21 23L21 22L22 22L22 20L23 20L23 22L24 22L24 23L25 23L25 24L26 24L26 22L27 22L27 19L26 19L26 21L25 21L25 20L24 20L24 19L25 19L25 18L27 18L27 17L25 17L25 16L29 16L29 17L30 17L30 18L29 18L29 21L28 21L28 22L29 22L29 21L30 21L30 22L31 22L31 23L32 23L32 19L31 19L31 21L30 21L30 18L34 18L34 17L33 17L33 16L32 16L32 15L31 15L31 13L34 13L34 14L33 14L33 15L34 15L34 14L35 14L35 13L34 13L34 11L35 11L35 10L34 10L34 9L32 9L32 10L31 10L31 11L33 11L33 12L31 12L31 13L30 13L30 15L31 15L31 17L30 17L30 16L29 16L29 13L27 13L27 14L25 14L25 13L26 13L26 9L25 9L25 8L26 8L26 6L25 6L25 7L24 7L24 5L25 5L25 4L24 4L24 5L23 5L23 7L24 7L24 9L25 9L25 11L23 11L23 9L22 9L22 5L21 5L21 4L19 4L19 5L20 5L20 6L19 6L19 7L18 7L18 5L15 5L15 3L14 3L14 5L13 5L13 4L11 4L11 3ZM10 4L10 5L11 5L11 6L10 6L10 9L11 9L11 10L12 10L12 11L14 11L14 12L15 12L15 13L16 13L16 12L17 12L17 14L20 14L20 15L23 15L23 14L24 14L24 13L25 13L25 12L19 12L19 11L18 11L18 10L17 10L17 11L16 11L16 10L13 10L13 9L16 9L16 8L15 8L15 6L14 6L14 8L12 8L12 7L13 7L13 5L11 5L11 4ZM11 6L11 7L12 7L12 6ZM16 6L16 7L17 7L17 6ZM20 6L20 7L19 7L19 8L18 8L18 9L19 9L19 10L20 10L20 11L22 11L22 10L21 10L21 9L19 9L19 8L21 8L21 6ZM11 8L11 9L12 9L12 8ZM28 8L28 9L27 9L27 10L28 10L28 9L29 9L29 10L30 10L30 9L29 9L29 8ZM17 11L17 12L18 12L18 13L19 13L19 12L18 12L18 11ZM27 11L27 12L28 12L28 11ZM29 11L29 12L30 12L30 11ZM12 13L12 14L13 14L13 13ZM20 13L20 14L22 14L22 13ZM6 14L6 15L8 15L8 16L6 16L6 17L8 17L8 18L10 18L10 16L9 16L9 14ZM15 14L15 15L14 15L14 16L17 16L17 17L18 17L18 18L19 18L19 16L17 16L17 15L16 15L16 14ZM27 14L27 15L28 15L28 14ZM8 16L8 17L9 17L9 16ZM21 16L21 17L20 17L20 18L21 18L21 19L22 19L22 18L21 18L21 17L22 17L22 16ZM23 16L23 19L24 19L24 18L25 18L25 17L24 17L24 16ZM4 18L4 19L7 19L7 18ZM12 18L12 19L14 19L14 18ZM33 19L33 21L35 21L35 20L36 20L36 19ZM1 20L1 23L2 23L2 24L3 24L3 25L4 25L4 26L5 26L5 23L3 23L3 22L2 22L2 20ZM5 20L5 21L7 21L7 22L8 22L8 23L10 23L10 25L11 25L11 24L12 24L12 25L13 25L13 24L12 24L12 23L13 23L13 22L12 22L12 23L11 23L11 22L10 22L10 21L11 21L11 20L8 20L8 21L7 21L7 20ZM20 20L20 22L21 22L21 20ZM8 21L8 22L9 22L9 21ZM24 21L24 22L25 22L25 21ZM18 22L18 23L19 23L19 22ZM16 23L16 26L15 26L15 24L14 24L14 26L13 26L13 27L14 27L14 26L15 26L15 27L16 27L16 26L17 26L17 23ZM27 23L27 24L30 24L30 23ZM8 24L8 25L9 25L9 24ZM31 24L31 25L32 25L32 24ZM11 26L11 28L12 28L12 26ZM25 26L25 27L27 27L27 26ZM34 26L34 29L33 29L33 31L34 31L34 29L35 29L35 26ZM3 27L3 28L4 28L4 27ZM18 27L18 28L19 28L19 27ZM23 29L23 30L24 30L24 32L25 32L25 29ZM29 29L29 32L32 32L32 29ZM30 30L30 31L31 31L31 30ZM8 31L8 34L9 34L9 31ZM21 31L21 32L20 32L20 34L21 34L21 35L22 35L22 34L23 34L23 33L22 33L22 31ZM21 33L21 34L22 34L22 33ZM30 34L30 35L32 35L32 34ZM16 35L16 37L18 37L18 36L17 36L17 35ZM12 36L12 37L13 37L13 36ZM14 36L14 37L15 37L15 36ZM19 36L19 37L20 37L20 36ZM21 36L21 37L23 37L23 36ZM0 0L0 7L7 7L7 0ZM1 1L1 6L6 6L6 1ZM2 2L2 5L5 5L5 2ZM30 0L30 7L37 7L37 0ZM31 1L31 6L36 6L36 1ZM32 2L32 5L35 5L35 2ZM0 30L0 37L7 37L7 30ZM1 31L1 36L6 36L6 31ZM2 32L2 35L5 35L5 32Z" fill="#000000"/></g></g></svg>
