<?xml version="1.0" encoding="UTF-8"?>
<svg xmlns="http://www.w3.org/2000/svg" version="1.1" width="300" height="300" viewBox="0 0 300 300"><rect x="0" y="0" width="300" height="300" fill="#ffffff"/><g transform="scale(8.108)"><g transform="translate(0,0)"><path fill-rule="evenodd" d="M8 0L8 1L9 1L9 2L10 2L10 3L11 3L11 6L10 6L10 4L8 4L8 7L9 7L9 6L10 6L10 7L11 7L11 9L10 9L10 8L9 8L9 9L8 9L8 8L1 8L1 10L0 10L0 11L2 11L2 12L0 12L0 13L2 13L2 15L3 15L3 17L4 17L4 15L5 15L5 14L6 14L6 15L7 15L7 14L8 14L8 15L9 15L9 16L8 16L8 18L6 18L6 17L7 17L7 16L5 16L5 18L4 18L4 19L5 19L5 18L6 18L6 19L7 19L7 20L3 20L3 22L2 22L2 21L1 21L1 20L2 20L2 19L3 19L3 18L2 18L2 17L1 17L1 19L0 19L0 29L1 29L1 24L4 24L4 26L2 26L2 27L3 27L3 28L4 28L4 27L5 27L5 28L6 28L6 29L8 29L8 36L11 36L11 37L12 37L12 35L13 35L13 37L14 37L14 34L16 34L16 35L15 35L15 36L16 36L16 37L17 37L17 36L18 36L18 37L19 37L19 36L18 36L18 35L19 35L19 33L18 33L18 31L17 31L17 30L18 30L18 29L19 29L19 30L21 30L21 29L23 29L23 30L22 30L22 31L23 31L23 30L24 30L24 32L21 32L21 31L19 31L19 32L20 32L20 33L21 33L21 34L20 34L20 35L21 35L21 36L20 36L20 37L22 37L22 36L23 36L23 37L25 37L25 36L26 36L26 37L28 37L28 36L29 36L29 37L32 37L32 35L31 35L31 36L29 36L29 35L30 35L30 34L34 34L34 35L33 35L33 36L34 36L34 37L37 37L37 34L36 34L36 36L34 36L34 35L35 35L35 34L34 34L34 33L36 33L36 32L37 32L37 30L36 30L36 29L35 29L35 30L34 30L34 28L35 28L35 26L36 26L36 28L37 28L37 26L36 26L36 24L34 24L34 23L36 23L36 22L37 22L37 18L36 18L36 17L37 17L37 14L36 14L36 13L35 13L35 14L34 14L34 13L33 13L33 12L34 12L34 11L33 11L33 10L34 10L34 9L33 9L33 8L31 8L31 9L30 9L30 10L28 10L28 9L29 9L29 8L28 8L28 7L29 7L29 6L28 6L28 5L26 5L26 4L29 4L29 3L26 3L26 2L29 2L29 1L27 1L27 0L25 0L25 1L22 1L22 0L21 0L21 1L20 1L20 3L19 3L19 2L18 2L18 3L19 3L19 4L21 4L21 3L22 3L22 4L25 4L25 5L23 5L23 6L22 6L22 5L21 5L21 6L20 6L20 5L19 5L19 6L18 6L18 4L16 4L16 3L17 3L17 2L15 2L15 1L16 1L16 0L14 0L14 2L10 2L10 1L9 1L9 0ZM11 0L11 1L12 1L12 0ZM17 0L17 1L19 1L19 0ZM21 1L21 2L22 2L22 3L23 3L23 2L22 2L22 1ZM14 2L14 4L15 4L15 5L13 5L13 4L12 4L12 5L13 5L13 7L12 7L12 6L11 6L11 7L12 7L12 8L13 8L13 9L11 9L11 13L9 13L9 12L10 12L10 11L8 11L8 9L4 9L4 10L7 10L7 11L4 11L4 13L3 13L3 14L5 14L5 12L7 12L7 13L6 13L6 14L7 14L7 13L8 13L8 14L9 14L9 15L10 15L10 14L12 14L12 15L11 15L11 16L10 16L10 17L9 17L9 18L10 18L10 20L9 20L9 22L8 22L8 21L6 21L6 22L5 22L5 23L4 23L4 24L5 24L5 25L6 25L6 26L5 26L5 27L6 27L6 28L9 28L9 26L8 26L8 23L9 23L9 24L10 24L10 25L12 25L12 24L11 24L11 23L13 23L13 24L14 24L14 26L12 26L12 27L11 27L11 26L10 26L10 27L11 27L11 28L15 28L15 29L14 29L14 30L12 30L12 31L10 31L10 30L11 30L11 29L10 29L10 30L9 30L9 31L10 31L10 32L9 32L9 35L10 35L10 32L12 32L12 33L13 33L13 34L14 34L14 33L16 33L16 34L17 34L17 31L16 31L16 30L17 30L17 29L16 29L16 28L17 28L17 27L16 27L16 28L15 28L15 27L14 27L14 26L15 26L15 25L17 25L17 24L15 24L15 23L18 23L18 22L19 22L19 23L20 23L20 26L21 26L21 27L19 27L19 26L18 26L18 27L19 27L19 28L23 28L23 29L24 29L24 30L25 30L25 32L26 32L26 30L25 30L25 29L24 29L24 28L26 28L26 29L27 29L27 31L28 31L28 27L29 27L29 28L30 28L30 27L31 27L31 28L34 28L34 27L33 27L33 26L34 26L34 24L32 24L32 23L33 23L33 22L36 22L36 21L30 21L30 20L29 20L29 21L27 21L27 20L28 20L28 19L31 19L31 18L33 18L33 19L32 19L32 20L36 20L36 18L33 18L33 17L34 17L34 16L36 16L36 14L35 14L35 15L34 15L34 16L33 16L33 15L31 15L31 14L33 14L33 13L30 13L30 12L29 12L29 11L28 11L28 14L29 14L29 13L30 13L30 15L31 15L31 17L30 17L30 16L29 16L29 15L28 15L28 16L26 16L26 15L27 15L27 12L26 12L26 11L27 11L27 9L28 9L28 8L27 8L27 7L28 7L28 6L27 6L27 7L26 7L26 6L25 6L25 7L24 7L24 6L23 6L23 7L24 7L24 9L25 9L25 10L22 10L22 11L23 11L23 12L22 12L22 13L23 13L23 12L24 12L24 11L25 11L25 12L26 12L26 13L24 13L24 14L22 14L22 15L24 15L24 14L26 14L26 15L25 15L25 16L22 16L22 17L23 17L23 19L22 19L22 18L21 18L21 19L22 19L22 20L20 20L20 21L18 21L18 20L19 20L19 18L20 18L20 14L21 14L21 11L20 11L20 10L19 10L19 7L20 7L20 6L19 6L19 7L18 7L18 6L17 6L17 7L18 7L18 9L17 9L17 10L16 10L16 11L14 11L14 10L13 10L13 9L14 9L14 8L15 8L15 9L16 9L16 8L15 8L15 7L16 7L16 6L15 6L15 5L16 5L16 4L15 4L15 2ZM24 2L24 3L25 3L25 4L26 4L26 3L25 3L25 2ZM14 6L14 7L13 7L13 8L14 8L14 7L15 7L15 6ZM21 6L21 7L22 7L22 6ZM25 7L25 8L26 8L26 9L27 9L27 8L26 8L26 7ZM20 8L20 9L23 9L23 8ZM36 8L36 9L37 9L37 8ZM12 10L12 12L13 12L13 10ZM17 10L17 12L18 12L18 13L16 13L16 12L15 12L15 13L12 13L12 14L13 14L13 15L15 15L15 16L16 16L16 19L17 19L17 20L16 20L16 21L13 21L13 22L16 22L16 21L17 21L17 22L18 22L18 21L17 21L17 20L18 20L18 18L19 18L19 16L18 16L18 17L17 17L17 14L18 14L18 13L19 13L19 10ZM31 10L31 11L32 11L32 10ZM35 10L35 11L36 11L36 12L37 12L37 10ZM0 14L0 15L1 15L1 14ZM11 16L11 17L10 17L10 18L11 18L11 17L12 17L12 18L13 18L13 16ZM25 16L25 17L24 17L24 18L25 18L25 17L26 17L26 16ZM28 16L28 17L29 17L29 18L30 18L30 17L29 17L29 16ZM32 16L32 17L33 17L33 16ZM27 18L27 19L26 19L26 20L27 20L27 19L28 19L28 18ZM11 19L11 20L10 20L10 21L11 21L11 20L13 20L13 19ZM14 19L14 20L15 20L15 19ZM24 19L24 20L25 20L25 19ZM20 21L20 23L21 23L21 24L22 24L22 22L21 22L21 21ZM24 21L24 22L25 22L25 21ZM26 21L26 22L27 22L27 23L26 23L26 24L27 24L27 25L22 25L22 27L23 27L23 26L26 26L26 28L27 28L27 26L31 26L31 27L32 27L32 26L31 26L31 25L32 25L32 24L31 24L31 22L30 22L30 21L29 21L29 22L27 22L27 21ZM1 22L1 23L2 23L2 22ZM6 22L6 23L8 23L8 22ZM10 22L10 23L11 23L11 22ZM29 22L29 23L27 23L27 24L28 24L28 25L30 25L30 24L29 24L29 23L30 23L30 22ZM24 23L24 24L25 24L25 23ZM6 24L6 25L7 25L7 24ZM18 24L18 25L19 25L19 24ZM6 26L6 27L8 27L8 26ZM15 29L15 30L16 30L16 29ZM29 29L29 32L32 32L32 29ZM30 30L30 31L31 31L31 30ZM33 30L33 31L34 31L34 32L33 32L33 33L34 33L34 32L35 32L35 31L36 31L36 30L35 30L35 31L34 31L34 30ZM15 31L15 32L16 32L16 31ZM13 32L13 33L14 33L14 32ZM22 33L22 35L23 35L23 34L25 34L25 33ZM26 33L26 34L27 34L27 35L26 35L26 36L28 36L28 35L29 35L29 34L30 34L30 33ZM11 34L11 35L12 35L12 34ZM24 35L24 36L25 36L25 35ZM0 0L0 7L7 7L7 0ZM1 1L1 6L6 6L6 1ZM2 2L2 5L5 5L5 2ZM30 0L30 7L37 7L37 0ZM31 1L31 6L36 6L36 1ZM32 2L32 5L35 5L35 2ZM0 30L0 37L7 37L7 30ZM1 31L1 36L6 36L6 31ZM2 32L2 35L5 35L5 32Z" fill="#000000"/></g></g></svg>
