<?xml version="1.0" encoding="UTF-8"?>
<svg xmlns="http://www.w3.org/2000/svg" version="1.1" width="300" height="300" viewBox="0 0 300 300"><rect x="0" y="0" width="300" height="300" fill="#ffffff"/><g transform="scale(8.108)"><g transform="translate(0,0)"><path fill-rule="evenodd" d="M8 0L8 5L9 5L9 6L8 6L8 8L6 8L6 9L8 9L8 10L4 10L4 9L5 9L5 8L4 8L4 9L3 9L3 8L1 8L1 9L2 9L2 10L4 10L4 11L2 11L2 12L4 12L4 11L7 11L7 12L6 12L6 13L5 13L5 14L6 14L6 15L5 15L5 16L4 16L4 14L2 14L2 15L1 15L1 16L0 16L0 17L1 17L1 19L0 19L0 21L1 21L1 22L0 22L0 23L1 23L1 22L2 22L2 24L3 24L3 25L4 25L4 27L3 27L3 28L2 28L2 27L1 27L1 26L2 26L2 25L1 25L1 24L0 24L0 25L1 25L1 26L0 26L0 27L1 27L1 28L0 28L0 29L1 29L1 28L2 28L2 29L3 29L3 28L4 28L4 29L7 29L7 28L8 28L8 31L9 31L9 32L8 32L8 33L10 33L10 34L8 34L8 36L9 36L9 37L10 37L10 36L9 36L9 35L10 35L10 34L11 34L11 33L12 33L12 32L13 32L13 30L14 30L14 32L15 32L15 33L14 33L14 34L12 34L12 36L11 36L11 37L12 37L12 36L13 36L13 37L14 37L14 36L15 36L15 37L18 37L18 36L20 36L20 35L18 35L18 32L19 32L19 34L20 34L20 32L21 32L21 31L22 31L22 30L21 30L21 27L22 27L22 26L23 26L23 24L24 24L24 23L20 23L20 20L21 20L21 22L22 22L22 21L23 21L23 22L24 22L24 21L23 21L23 20L24 20L24 19L23 19L23 20L22 20L22 19L20 19L20 18L24 18L24 17L23 17L23 16L25 16L25 18L26 18L26 19L25 19L25 20L26 20L26 21L25 21L25 22L26 22L26 23L25 23L25 24L26 24L26 26L27 26L27 27L23 27L23 28L25 28L25 29L26 29L26 30L27 30L27 31L25 31L25 30L24 30L24 31L25 31L25 32L24 32L24 33L23 33L23 34L22 34L22 33L21 33L21 34L22 34L22 35L21 35L21 36L22 36L22 37L25 37L25 35L26 35L26 34L27 34L27 37L29 37L29 36L30 36L30 35L29 35L29 33L32 33L32 35L33 35L33 30L34 30L34 31L35 31L35 28L36 28L36 31L37 31L37 28L36 28L36 27L37 27L37 25L36 25L36 24L37 24L37 23L36 23L36 21L37 21L37 20L36 20L36 19L37 19L37 16L36 16L36 15L37 15L37 8L32 8L32 10L33 10L33 11L32 11L32 12L30 12L30 14L28 14L28 13L29 13L29 12L28 12L28 11L27 11L27 12L26 12L26 9L25 9L25 12L24 12L24 11L23 11L23 10L22 10L22 7L23 7L23 6L22 6L22 5L23 5L23 3L24 3L24 2L23 2L23 0L22 0L22 1L21 1L21 0L20 0L20 1L19 1L19 0L16 0L16 2L15 2L15 1L14 1L14 2L13 2L13 1L12 1L12 0ZM25 0L25 1L26 1L26 2L25 2L25 5L26 5L26 7L27 7L27 8L29 8L29 5L28 5L28 3L29 3L29 0L27 0L27 1L26 1L26 0ZM9 1L9 3L10 3L10 4L9 4L9 5L10 5L10 6L9 6L9 8L8 8L8 9L9 9L9 8L11 8L11 9L10 9L10 10L9 10L9 11L8 11L8 14L7 14L7 13L6 13L6 14L7 14L7 15L6 15L6 16L7 16L7 17L5 17L5 18L3 18L3 19L4 19L4 21L2 21L2 22L3 22L3 23L4 23L4 21L5 21L5 22L7 22L7 23L6 23L6 24L7 24L7 25L6 25L6 26L7 26L7 25L8 25L8 26L9 26L9 27L8 27L8 28L9 28L9 27L10 27L10 25L12 25L12 24L11 24L11 23L14 23L14 24L15 24L15 25L13 25L13 28L11 28L11 29L10 29L10 33L11 33L11 29L12 29L12 30L13 30L13 28L14 28L14 26L15 26L15 27L16 27L16 28L20 28L20 27L19 27L19 26L22 26L22 25L21 25L21 24L20 24L20 25L19 25L19 22L18 22L18 21L17 21L17 22L16 22L16 21L15 21L15 20L13 20L13 19L18 19L18 20L20 20L20 19L19 19L19 17L18 17L18 16L17 16L17 15L19 15L19 16L20 16L20 17L22 17L22 16L21 16L21 15L22 15L22 14L20 14L20 15L19 15L19 14L18 14L18 13L17 13L17 12L18 12L18 10L19 10L19 11L20 11L20 13L22 13L22 12L21 12L21 11L22 11L22 10L20 10L20 8L21 8L21 7L22 7L22 6L21 6L21 7L20 7L20 5L22 5L22 3L23 3L23 2L19 2L19 3L18 3L18 1L17 1L17 3L18 3L18 4L17 4L17 5L16 5L16 6L15 6L15 2L14 2L14 3L13 3L13 4L14 4L14 6L13 6L13 5L12 5L12 3L10 3L10 2L11 2L11 1ZM10 4L10 5L11 5L11 6L10 6L10 7L11 7L11 8L12 8L12 9L13 9L13 8L12 8L12 7L13 7L13 6L12 6L12 5L11 5L11 4ZM18 4L18 5L20 5L20 4ZM11 6L11 7L12 7L12 6ZM14 6L14 7L15 7L15 8L18 8L18 7L19 7L19 8L20 8L20 7L19 7L19 6L18 6L18 7L17 7L17 6L16 6L16 7L15 7L15 6ZM24 6L24 8L23 8L23 9L24 9L24 8L25 8L25 6ZM27 6L27 7L28 7L28 6ZM30 8L30 9L29 9L29 11L31 11L31 10L30 10L30 9L31 9L31 8ZM14 9L14 10L13 10L13 11L11 11L11 10L10 10L10 11L9 11L9 13L10 13L10 12L12 12L12 13L11 13L11 14L12 14L12 13L13 13L13 12L15 12L15 11L14 11L14 10L16 10L16 11L17 11L17 10L18 10L18 9ZM27 9L27 10L28 10L28 9ZM34 9L34 10L35 10L35 11L34 11L34 12L35 12L35 13L34 13L34 18L35 18L35 19L33 19L33 15L32 15L32 16L31 16L31 14L30 14L30 15L28 15L28 14L27 14L27 13L28 13L28 12L27 12L27 13L26 13L26 14L27 14L27 17L26 17L26 18L27 18L27 25L28 25L28 24L29 24L29 26L31 26L31 25L30 25L30 24L33 24L33 23L32 23L32 22L33 22L33 21L35 21L35 19L36 19L36 17L35 17L35 15L36 15L36 9ZM32 12L32 14L33 14L33 12ZM14 13L14 14L13 14L13 15L10 15L10 14L9 14L9 15L8 15L8 16L10 16L10 17L7 17L7 18L5 18L5 20L6 20L6 21L8 21L8 24L9 24L9 25L10 25L10 24L9 24L9 23L11 23L11 22L13 22L13 20L12 20L12 21L11 21L11 22L10 22L10 21L8 21L8 20L11 20L11 18L12 18L12 17L13 17L13 15L14 15L14 16L15 16L15 13ZM23 13L23 15L24 15L24 13ZM16 14L16 15L17 15L17 14ZM3 16L3 17L4 17L4 16ZM11 16L11 17L12 17L12 16ZM16 16L16 18L18 18L18 17L17 17L17 16ZM29 16L29 18L28 18L28 19L31 19L31 18L32 18L32 17L31 17L31 16ZM14 17L14 18L15 18L15 17ZM8 18L8 19L6 19L6 20L8 20L8 19L10 19L10 18ZM29 20L29 22L28 22L28 23L29 23L29 22L30 22L30 23L31 23L31 20ZM14 22L14 23L15 23L15 24L16 24L16 25L15 25L15 26L17 26L17 27L18 27L18 26L19 26L19 25L18 25L18 26L17 26L17 24L18 24L18 23L17 23L17 24L16 24L16 23L15 23L15 22ZM34 23L34 25L32 25L32 26L33 26L33 27L32 27L32 28L33 28L33 29L34 29L34 27L35 27L35 26L34 26L34 25L35 25L35 23ZM11 26L11 27L12 27L12 26ZM6 27L6 28L7 28L7 27ZM27 27L27 28L28 28L28 27ZM30 27L30 28L31 28L31 27ZM15 29L15 31L16 31L16 32L18 32L18 31L20 31L20 29L17 29L17 31L16 31L16 29ZM27 29L27 30L28 30L28 29ZM29 29L29 32L32 32L32 29ZM30 30L30 31L31 31L31 30ZM27 32L27 33L28 33L28 32ZM35 32L35 34L34 34L34 35L35 35L35 37L37 37L37 36L36 36L36 35L37 35L37 33L36 33L36 32ZM15 33L15 34L16 34L16 36L17 36L17 33ZM25 33L25 34L26 34L26 33ZM35 34L35 35L36 35L36 34ZM13 35L13 36L14 36L14 35ZM23 35L23 36L24 36L24 35ZM31 36L31 37L33 37L33 36ZM0 0L0 7L7 7L7 0ZM1 1L1 6L6 6L6 1ZM2 2L2 5L5 5L5 2ZM30 0L30 7L37 7L37 0ZM31 1L31 6L36 6L36 1ZM32 2L32 5L35 5L35 2ZM0 30L0 37L7 37L7 30ZM1 31L1 36L6 36L6 31ZM2 32L2 35L5 35L5 32Z" fill="#000000"/></g></g></svg>
