<?xml version="1.0" encoding="UTF-8"?>
<svg xmlns="http://www.w3.org/2000/svg" version="1.1" width="300" height="300" viewBox="0 0 300 300"><rect x="0" y="0" width="300" height="300" fill="#ffffff"/><g transform="scale(6.122)"><g transform="translate(0,0)"><path fill-rule="evenodd" d="M8 0L8 1L10 1L10 4L8 4L8 7L9 7L9 6L10 6L10 7L11 7L11 6L12 6L12 7L13 7L13 8L14 8L14 7L15 7L15 9L18 9L18 8L19 8L19 4L22 4L22 9L23 9L23 10L22 10L22 11L21 11L21 10L20 10L20 9L19 9L19 10L14 10L14 9L13 9L13 10L14 10L14 11L18 11L18 12L19 12L19 14L17 14L17 15L15 15L15 16L17 16L17 17L15 17L15 18L13 18L13 19L12 19L12 18L11 18L11 17L10 17L10 18L8 18L8 17L7 17L7 16L8 16L8 15L9 15L9 14L6 14L6 15L5 15L5 16L3 16L3 14L5 14L5 13L10 13L10 12L8 12L8 8L1 8L1 9L0 9L0 10L2 10L2 9L7 9L7 10L6 10L6 11L5 11L5 10L3 10L3 13L1 13L1 12L2 12L2 11L1 11L1 12L0 12L0 13L1 13L1 14L2 14L2 16L3 16L3 17L7 17L7 18L6 18L6 19L5 19L5 20L6 20L6 21L5 21L5 22L3 22L3 24L2 24L2 23L1 23L1 21L2 21L2 20L1 20L1 19L3 19L3 21L4 21L4 19L3 19L3 18L1 18L1 15L0 15L0 18L1 18L1 19L0 19L0 20L1 20L1 21L0 21L0 27L2 27L2 28L0 28L0 31L1 31L1 32L3 32L3 33L4 33L4 34L0 34L0 36L4 36L4 35L5 35L5 36L6 36L6 37L7 37L7 38L5 38L5 39L8 39L8 40L6 40L6 41L8 41L8 48L9 48L9 49L10 49L10 48L11 48L11 49L12 49L12 47L10 47L10 45L11 45L11 44L13 44L13 46L14 46L14 48L15 48L15 49L18 49L18 46L19 46L19 47L20 47L20 49L21 49L21 48L22 48L22 46L23 46L23 45L27 45L27 44L29 44L29 45L28 45L28 46L27 46L27 49L28 49L28 48L29 48L29 49L30 49L30 47L28 47L28 46L31 46L31 47L32 47L32 48L31 48L31 49L32 49L32 48L33 48L33 49L34 49L34 47L37 47L37 48L35 48L35 49L38 49L38 48L40 48L40 49L41 49L41 47L42 47L42 48L43 48L43 47L44 47L44 48L45 48L45 49L49 49L49 45L48 45L48 44L46 44L46 46L45 46L45 43L46 43L46 42L45 42L45 41L48 41L48 40L45 40L45 39L44 39L44 37L45 37L45 38L47 38L47 39L49 39L49 38L47 38L47 36L48 36L48 37L49 37L49 34L47 34L47 36L44 36L44 34L42 34L42 33L41 33L41 32L42 32L42 31L43 31L43 33L47 33L47 32L44 32L44 31L43 31L43 30L44 30L44 29L45 29L45 28L44 28L44 27L45 27L45 25L47 25L47 26L46 26L46 27L47 27L47 26L48 26L48 28L46 28L46 31L47 31L47 29L49 29L49 26L48 26L48 24L45 24L45 23L46 23L46 22L47 22L47 23L49 23L49 22L47 22L47 20L48 20L48 21L49 21L49 18L47 18L47 17L48 17L48 16L46 16L46 15L45 15L45 14L47 14L47 15L49 15L49 14L47 14L47 13L48 13L48 12L46 12L46 11L44 11L44 10L43 10L43 9L45 9L45 8L43 8L43 9L42 9L42 10L41 10L41 12L39 12L39 10L37 10L37 6L38 6L38 7L39 7L39 5L38 5L38 3L35 3L35 2L37 2L37 1L38 1L38 2L39 2L39 4L40 4L40 3L41 3L41 0L40 0L40 1L38 1L38 0L35 0L35 1L31 1L31 0L27 0L27 1L26 1L26 2L27 2L27 3L25 3L25 2L23 2L23 4L22 4L22 3L21 3L21 1L22 1L22 0L21 0L21 1L20 1L20 2L19 2L19 4L18 4L18 2L17 2L17 3L16 3L16 1L19 1L19 0L16 0L16 1L15 1L15 0ZM23 0L23 1L24 1L24 0ZM12 1L12 2L11 2L11 3L12 3L12 4L13 4L13 3L14 3L14 4L15 4L15 1ZM27 1L27 2L28 2L28 4L27 4L27 9L26 9L26 10L27 10L27 9L29 9L29 10L28 10L28 11L26 11L26 12L23 12L23 13L24 13L24 14L23 14L23 15L22 15L22 14L19 14L19 15L17 15L17 16L18 16L18 17L17 17L17 18L18 18L18 19L20 19L20 20L21 20L21 21L19 21L19 20L16 20L16 18L15 18L15 19L13 19L13 20L12 20L12 23L13 23L13 25L9 25L9 26L11 26L11 27L10 27L10 28L8 28L8 29L5 29L5 30L4 30L4 28L7 28L7 27L4 27L4 26L3 26L3 27L4 27L4 28L2 28L2 29L1 29L1 30L2 30L2 31L3 31L3 32L5 32L5 31L6 31L6 32L7 32L7 31L6 31L6 30L9 30L9 31L8 31L8 32L9 32L9 31L10 31L10 32L11 32L11 33L15 33L15 35L16 35L16 36L15 36L15 38L17 38L17 39L16 39L16 40L17 40L17 39L18 39L18 37L19 37L19 38L20 38L20 39L21 39L21 40L20 40L20 41L19 41L19 40L18 40L18 41L15 41L15 39L14 39L14 38L13 38L13 40L14 40L14 41L12 41L12 42L14 42L14 43L13 43L13 44L14 44L14 45L15 45L15 44L16 44L16 46L15 46L15 47L17 47L17 45L18 45L18 44L17 44L17 43L18 43L18 42L21 42L21 43L20 43L20 44L19 44L19 45L22 45L22 42L21 42L21 40L23 40L23 39L22 39L22 35L23 35L23 36L25 36L25 37L24 37L24 39L27 39L27 40L28 40L28 41L27 41L27 42L28 42L28 43L29 43L29 42L30 42L30 41L29 41L29 40L30 40L30 39L31 39L31 41L34 41L34 42L31 42L31 43L33 43L33 44L32 44L32 47L33 47L33 46L35 46L35 44L37 44L37 42L38 42L38 43L40 43L40 41L39 41L39 40L41 40L41 39L42 39L42 40L44 40L44 39L42 39L42 38L41 38L41 39L36 39L36 40L35 40L35 39L34 39L34 38L39 38L39 36L40 36L40 37L41 37L41 36L42 36L42 37L44 37L44 36L43 36L43 35L42 35L42 34L39 34L39 32L40 32L40 31L41 31L41 30L42 30L42 29L41 29L41 27L40 27L40 24L39 24L39 23L40 23L40 22L41 22L41 21L42 21L42 17L41 17L41 16L42 16L42 15L43 15L43 14L42 14L42 13L40 13L40 14L42 14L42 15L41 15L41 16L39 16L39 17L40 17L40 18L37 18L37 19L35 19L35 18L36 18L36 16L37 16L37 17L38 17L38 16L37 16L37 15L36 15L36 16L35 16L35 18L34 18L34 17L33 17L33 16L34 16L34 14L35 14L35 13L36 13L36 14L39 14L39 12L38 12L38 11L36 11L36 10L35 10L35 9L36 9L36 8L35 8L35 7L36 7L36 6L37 6L37 4L33 4L33 3L34 3L34 2L33 2L33 3L32 3L32 2L31 2L31 1ZM12 2L12 3L13 3L13 2ZM29 2L29 4L28 4L28 7L29 7L29 9L30 9L30 10L29 10L29 11L30 11L30 12L31 12L31 13L30 13L30 14L29 14L29 12L26 12L26 13L25 13L25 17L23 17L23 16L24 16L24 15L23 15L23 16L22 16L22 17L23 17L23 18L25 18L25 19L24 19L24 20L23 20L23 19L22 19L22 18L21 18L21 15L20 15L20 17L19 17L19 18L20 18L20 19L22 19L22 20L23 20L23 21L25 21L25 22L22 22L22 21L21 21L21 22L22 22L22 24L19 24L19 25L20 25L20 26L19 26L19 28L20 28L20 27L21 27L21 28L22 28L22 30L24 30L24 31L23 31L23 32L20 32L20 35L19 35L19 36L20 36L20 38L21 38L21 36L20 36L20 35L21 35L21 33L22 33L22 34L23 34L23 35L24 35L24 34L23 34L23 32L25 32L25 33L27 33L27 34L28 34L28 36L27 36L27 37L28 37L28 36L29 36L29 38L31 38L31 37L30 37L30 36L33 36L33 34L34 34L34 35L35 35L35 36L36 36L36 37L37 37L37 36L38 36L38 35L39 35L39 34L37 34L37 36L36 36L36 34L34 34L34 33L36 33L36 32L38 32L38 31L40 31L40 30L38 30L38 29L40 29L40 28L38 28L38 29L37 29L37 28L36 28L36 26L37 26L37 24L38 24L38 23L39 23L39 22L40 22L40 21L41 21L41 20L40 20L40 19L37 19L37 20L36 20L36 21L35 21L35 22L33 22L33 21L32 21L32 22L31 22L31 20L30 20L30 19L32 19L32 20L34 20L34 18L32 18L32 17L31 17L31 18L30 18L30 17L29 17L29 16L30 16L30 14L31 14L31 16L33 16L33 15L32 15L32 14L34 14L34 13L32 13L32 12L33 12L33 11L32 11L32 12L31 12L31 11L30 11L30 10L32 10L32 9L31 9L31 8L32 8L32 7L33 7L33 10L34 10L34 12L35 12L35 10L34 10L34 7L35 7L35 5L33 5L33 6L32 6L32 7L31 7L31 6L30 6L30 5L32 5L32 4L30 4L30 2ZM24 3L24 4L25 4L25 3ZM10 5L10 6L11 6L11 5ZM12 5L12 6L13 6L13 7L14 7L14 6L15 6L15 7L16 7L16 6L17 6L17 8L18 8L18 5L16 5L16 6L15 6L15 5ZM20 5L20 8L21 8L21 5ZM23 5L23 8L26 8L26 5ZM24 6L24 7L25 7L25 6ZM29 6L29 7L30 7L30 6ZM33 6L33 7L34 7L34 6ZM40 6L40 7L41 7L41 6ZM9 8L9 9L10 9L10 11L12 11L12 10L11 10L11 9L10 9L10 8ZM38 8L38 9L41 9L41 8ZM48 8L48 9L46 9L46 10L48 10L48 11L49 11L49 10L48 10L48 9L49 9L49 8ZM42 10L42 11L43 11L43 12L44 12L44 13L46 13L46 12L44 12L44 11L43 11L43 10ZM6 11L6 12L7 12L7 11ZM19 11L19 12L20 12L20 13L21 13L21 11ZM11 12L11 13L12 13L12 14L14 14L14 13L15 13L15 14L16 14L16 13L17 13L17 12ZM36 12L36 13L38 13L38 12ZM26 13L26 17L25 17L25 18L27 18L27 17L28 17L28 20L27 20L27 19L25 19L25 20L26 20L26 21L29 21L29 19L30 19L30 18L29 18L29 17L28 17L28 15L29 15L29 14L27 14L27 13ZM10 14L10 16L11 16L11 14ZM6 15L6 16L7 16L7 15ZM12 15L12 16L13 16L13 17L14 17L14 16L13 16L13 15ZM44 16L44 17L46 17L46 16ZM10 18L10 19L9 19L9 20L10 20L10 21L8 21L8 20L7 20L7 19L6 19L6 20L7 20L7 21L6 21L6 22L10 22L10 23L11 23L11 20L10 20L10 19L11 19L11 18ZM46 18L46 19L45 19L45 20L44 20L44 21L43 21L43 22L46 22L46 20L47 20L47 18ZM39 20L39 21L37 21L37 23L35 23L35 24L37 24L37 23L38 23L38 22L39 22L39 21L40 21L40 20ZM14 21L14 22L17 22L17 23L18 23L18 22L19 22L19 21L18 21L18 22L17 22L17 21ZM28 22L28 23L27 23L27 24L28 24L28 25L27 25L27 26L28 26L28 27L29 27L29 28L27 28L27 27L25 27L25 28L24 28L24 27L23 27L23 28L24 28L24 30L25 30L25 28L27 28L27 29L28 29L28 32L27 32L27 33L28 33L28 32L29 32L29 31L31 31L31 32L30 32L30 33L31 33L31 34L29 34L29 35L31 35L31 34L32 34L32 33L31 33L31 32L36 32L36 30L35 30L35 27L34 27L34 26L36 26L36 25L34 25L34 23L33 23L33 22L32 22L32 23L31 23L31 22L30 22L30 23L31 23L31 24L32 24L32 25L33 25L33 28L32 28L32 27L31 27L31 26L29 26L29 25L30 25L30 24L29 24L29 22ZM5 23L5 26L8 26L8 23ZM14 23L14 25L13 25L13 26L12 26L12 27L11 27L11 28L10 28L10 29L9 29L9 30L10 30L10 31L11 31L11 32L13 32L13 31L14 31L14 29L12 29L12 31L11 31L11 30L10 30L10 29L11 29L11 28L12 28L12 27L13 27L13 28L15 28L15 27L16 27L16 29L17 29L17 28L18 28L18 25L17 25L17 27L16 27L16 24L15 24L15 23ZM23 23L23 26L26 26L26 23ZM32 23L32 24L33 24L33 23ZM41 23L41 26L44 26L44 23ZM1 24L1 26L2 26L2 24ZM3 24L3 25L4 25L4 24ZM6 24L6 25L7 25L7 24ZM24 24L24 25L25 25L25 24ZM42 24L42 25L43 25L43 24ZM14 25L14 27L15 27L15 25ZM21 26L21 27L22 27L22 26ZM38 26L38 27L39 27L39 26ZM30 27L30 28L29 28L29 30L31 30L31 31L32 31L32 28L31 28L31 27ZM42 27L42 28L43 28L43 29L44 29L44 28L43 28L43 27ZM30 28L30 29L31 29L31 28ZM33 28L33 29L34 29L34 28ZM2 29L2 30L3 30L3 29ZM19 29L19 31L21 31L21 30L20 30L20 29ZM17 30L17 32L16 32L16 35L17 35L17 34L18 34L18 33L17 33L17 32L18 32L18 30ZM33 30L33 31L35 31L35 30ZM37 30L37 31L38 31L38 30ZM48 30L48 33L49 33L49 30ZM25 31L25 32L26 32L26 31ZM6 33L6 34L5 34L5 35L6 35L6 36L7 36L7 37L8 37L8 38L9 38L9 40L8 40L8 41L9 41L9 40L10 40L10 39L12 39L12 38L9 38L9 37L10 37L10 36L7 36L7 35L6 35L6 34L7 34L7 33ZM8 33L8 35L9 35L9 33ZM11 34L11 37L14 37L14 36L12 36L12 34ZM25 34L25 35L26 35L26 34ZM45 34L45 35L46 35L46 34ZM40 35L40 36L41 36L41 35ZM17 36L17 37L18 37L18 36ZM0 37L0 38L1 38L1 40L0 40L0 41L3 41L3 40L4 40L4 39L2 39L2 38L1 38L1 37ZM3 37L3 38L4 38L4 37ZM25 37L25 38L26 38L26 37ZM32 37L32 38L34 38L34 37ZM28 39L28 40L29 40L29 39ZM32 39L32 40L34 40L34 39ZM36 40L36 41L35 41L35 42L37 42L37 41L38 41L38 40ZM10 41L10 42L9 42L9 44L10 44L10 42L11 42L11 41ZM14 41L14 42L15 42L15 43L17 43L17 42L15 42L15 41ZM23 41L23 44L26 44L26 41ZM41 41L41 44L44 44L44 41ZM24 42L24 43L25 43L25 42ZM42 42L42 43L43 43L43 42ZM47 42L47 43L49 43L49 42ZM34 43L34 44L33 44L33 45L34 45L34 44L35 44L35 43ZM38 45L38 46L37 46L37 47L38 47L38 46L39 46L39 47L40 47L40 46L42 46L42 47L43 47L43 46L44 46L44 47L45 47L45 48L48 48L48 47L47 47L47 46L46 46L46 47L45 47L45 46L44 46L44 45L43 45L43 46L42 46L42 45L40 45L40 46L39 46L39 45ZM20 46L20 47L21 47L21 46ZM24 46L24 47L23 47L23 48L24 48L24 49L25 49L25 48L26 48L26 47L25 47L25 46ZM24 47L24 48L25 48L25 47ZM0 0L0 7L7 7L7 0ZM1 1L1 6L6 6L6 1ZM2 2L2 5L5 5L5 2ZM42 0L42 7L49 7L49 0ZM43 1L43 6L48 6L48 1ZM44 2L44 5L47 5L47 2ZM0 42L0 49L7 49L7 42ZM1 43L1 48L6 48L6 43ZM2 44L2 47L5 47L5 44Z" fill="#000000"/></g></g></svg>
