<?xml version="1.0" encoding="UTF-8"?>
<svg xmlns="http://www.w3.org/2000/svg" version="1.1" width="300" height="300" viewBox="0 0 300 300"><rect x="0" y="0" width="300" height="300" fill="#ffffff"/><g transform="scale(6.122)"><g transform="translate(0,0)"><path fill-rule="evenodd" d="M8 0L8 1L11 1L11 2L9 2L9 4L8 4L8 7L9 7L9 5L10 5L10 7L11 7L11 6L12 6L12 7L13 7L13 6L14 6L14 7L15 7L15 8L14 8L14 9L13 9L13 10L14 10L14 12L15 12L15 11L18 11L18 10L19 10L19 11L21 11L21 12L20 12L20 13L19 13L19 14L18 14L18 12L17 12L17 13L16 13L16 16L15 16L15 17L16 17L16 18L17 18L17 19L15 19L15 18L13 18L13 17L14 17L14 16L13 16L13 15L11 15L11 14L10 14L10 11L12 11L12 10L10 10L10 11L9 11L9 9L10 9L10 8L9 8L9 9L8 9L8 8L1 8L1 9L0 9L0 14L2 14L2 15L3 15L3 17L4 17L4 18L6 18L6 19L5 19L5 20L6 20L6 21L5 21L5 22L3 22L3 24L2 24L2 23L1 23L1 21L2 21L2 20L1 20L1 19L3 19L3 21L4 21L4 19L3 19L3 18L1 18L1 15L0 15L0 18L1 18L1 19L0 19L0 20L1 20L1 21L0 21L0 26L1 26L1 27L2 27L2 28L1 28L1 29L0 29L0 30L1 30L1 32L2 32L2 34L0 34L0 37L1 37L1 35L2 35L2 36L3 36L3 37L2 37L2 38L1 38L1 40L0 40L0 41L3 41L3 40L4 40L4 39L2 39L2 38L4 38L4 37L5 37L5 39L8 39L8 40L6 40L6 41L8 41L8 48L9 48L9 49L10 49L10 48L11 48L11 49L12 49L12 48L13 48L13 46L14 46L14 48L15 48L15 49L18 49L18 46L20 46L20 43L21 43L21 42L22 42L22 45L21 45L21 48L20 48L20 47L19 47L19 48L20 48L20 49L21 49L21 48L22 48L22 46L23 46L23 45L27 45L27 44L29 44L29 45L28 45L28 46L27 46L27 49L28 49L28 48L29 48L29 49L30 49L30 47L28 47L28 46L31 46L31 47L32 47L32 48L31 48L31 49L32 49L32 48L33 48L33 49L34 49L34 47L37 47L37 48L35 48L35 49L38 49L38 48L40 48L40 49L41 49L41 46L40 46L40 45L42 45L42 46L43 46L43 47L42 47L42 48L43 48L43 47L44 47L44 48L45 48L45 49L49 49L49 45L48 45L48 44L46 44L46 46L45 46L45 43L46 43L46 42L45 42L45 40L46 40L46 41L48 41L48 40L46 40L46 39L44 39L44 37L45 37L45 36L46 36L46 37L47 37L47 36L48 36L48 37L49 37L49 34L47 34L47 36L46 36L46 34L44 34L44 35L43 35L43 34L42 34L42 33L41 33L41 32L42 32L42 31L45 31L45 30L44 30L44 29L45 29L45 28L44 28L44 27L45 27L45 25L48 25L48 24L45 24L45 23L46 23L46 22L47 22L47 23L49 23L49 22L47 22L47 20L48 20L48 21L49 21L49 18L47 18L47 17L48 17L48 16L45 16L45 15L46 15L46 14L45 14L45 13L44 13L44 12L46 12L46 13L48 13L48 12L46 12L46 11L44 11L44 10L43 10L43 9L45 9L45 8L43 8L43 9L42 9L42 10L41 10L41 11L42 11L42 12L39 12L39 10L37 10L37 9L38 9L38 7L39 7L39 5L38 5L38 3L35 3L35 2L37 2L37 1L38 1L38 2L39 2L39 4L40 4L40 3L41 3L41 0L40 0L40 1L38 1L38 0L35 0L35 1L31 1L31 0L29 0L29 1L31 1L31 2L32 2L32 3L33 3L33 4L37 4L37 6L36 6L36 7L35 7L35 5L33 5L33 6L32 6L32 7L31 7L31 6L30 6L30 5L32 5L32 4L30 4L30 2L28 2L28 1L27 1L27 0L26 0L26 1L25 1L25 2L24 2L24 1L23 1L23 0L21 0L21 1L20 1L20 2L19 2L19 0L16 0L16 1L15 1L15 0ZM12 1L12 2L11 2L11 3L10 3L10 4L11 4L11 3L12 3L12 4L13 4L13 5L12 5L12 6L13 6L13 5L14 5L14 6L15 6L15 7L16 7L16 6L17 6L17 9L15 9L15 10L17 10L17 9L18 9L18 8L19 8L19 9L20 9L20 10L21 10L21 11L22 11L22 10L23 10L23 9L22 9L22 6L21 6L21 8L20 8L20 5L21 5L21 4L25 4L25 3L28 3L28 5L27 5L27 7L28 7L28 9L26 9L26 10L28 10L28 9L29 9L29 10L30 10L30 11L33 11L33 12L31 12L31 13L34 13L34 14L30 14L30 13L29 13L29 14L27 14L27 13L26 13L26 12L29 12L29 11L26 11L26 12L23 12L23 13L24 13L24 14L23 14L23 15L22 15L22 14L21 14L21 13L20 13L20 14L19 14L19 15L17 15L17 16L16 16L16 17L17 17L17 18L18 18L18 19L19 19L19 20L16 20L16 21L15 21L15 19L12 19L12 20L10 20L10 19L11 19L11 18L10 18L10 17L12 17L12 16L10 16L10 14L9 14L9 13L6 13L6 12L7 12L7 11L8 11L8 12L9 12L9 11L8 11L8 10L7 10L7 9L2 9L2 10L1 10L1 11L3 11L3 13L4 13L4 14L3 14L3 15L6 15L6 16L5 16L5 17L6 17L6 18L7 18L7 17L8 17L8 18L10 18L10 19L9 19L9 20L10 20L10 21L8 21L8 20L7 20L7 19L6 19L6 20L7 20L7 21L6 21L6 22L10 22L10 23L11 23L11 24L12 24L12 22L13 22L13 25L9 25L9 28L10 28L10 29L11 29L11 31L12 31L12 29L13 29L13 31L15 31L15 32L11 32L11 33L8 33L8 32L10 32L10 31L8 31L8 32L7 32L7 31L6 31L6 30L8 30L8 29L5 29L5 30L3 30L3 28L2 28L2 32L3 32L3 33L4 33L4 32L5 32L5 31L6 31L6 32L7 32L7 33L6 33L6 34L5 34L5 35L3 35L3 36L5 36L5 35L6 35L6 36L7 36L7 37L6 37L6 38L7 38L7 37L8 37L8 39L9 39L9 40L8 40L8 41L9 41L9 40L10 40L10 39L11 39L11 41L10 41L10 42L9 42L9 44L10 44L10 42L12 42L12 44L14 44L14 45L15 45L15 48L17 48L17 46L16 46L16 45L18 45L18 44L17 44L17 43L18 43L18 42L19 42L19 41L20 41L20 42L21 42L21 41L20 41L20 40L23 40L23 39L24 39L24 40L25 40L25 39L27 39L27 40L28 40L28 41L29 41L29 42L28 42L28 43L29 43L29 42L30 42L30 41L29 41L29 40L30 40L30 39L31 39L31 41L32 41L32 42L31 42L31 43L33 43L33 44L32 44L32 47L33 47L33 46L35 46L35 44L37 44L37 43L35 43L35 42L38 42L38 43L40 43L40 41L39 41L39 40L41 40L41 39L42 39L42 40L44 40L44 39L42 39L42 38L41 38L41 39L38 39L38 38L39 38L39 36L40 36L40 37L41 37L41 36L42 36L42 37L44 37L44 36L45 36L45 35L44 35L44 36L43 36L43 35L42 35L42 34L39 34L39 32L40 32L40 31L41 31L41 30L42 30L42 29L40 29L40 31L39 31L39 32L38 32L38 30L39 30L39 29L38 29L38 28L41 28L41 27L40 27L40 24L39 24L39 23L40 23L40 22L41 22L41 21L42 21L42 17L43 17L43 16L42 16L42 15L43 15L43 14L41 14L41 13L40 13L40 14L41 14L41 16L39 16L39 17L40 17L40 18L37 18L37 17L38 17L38 16L37 16L37 15L38 15L38 14L39 14L39 12L38 12L38 11L36 11L36 10L35 10L35 9L36 9L36 8L35 8L35 7L34 7L34 6L33 6L33 7L32 7L32 8L29 8L29 7L30 7L30 6L29 6L29 3L28 3L28 2L25 2L25 3L24 3L24 2L23 2L23 1L22 1L22 3L21 3L21 4L19 4L19 2L17 2L17 1L16 1L16 3L17 3L17 5L16 5L16 6L15 6L15 5L14 5L14 4L15 4L15 3L14 3L14 2L13 2L13 1ZM12 2L12 3L13 3L13 4L14 4L14 3L13 3L13 2ZM33 2L33 3L34 3L34 2ZM17 5L17 6L18 6L18 7L19 7L19 5ZM23 5L23 8L26 8L26 5ZM24 6L24 7L25 7L25 6ZM28 6L28 7L29 7L29 6ZM37 6L37 7L38 7L38 6ZM40 6L40 7L41 7L41 6ZM33 8L33 10L34 10L34 12L35 12L35 10L34 10L34 9L35 9L35 8ZM39 8L39 9L41 9L41 8ZM48 8L48 9L46 9L46 10L48 10L48 11L49 11L49 10L48 10L48 9L49 9L49 8ZM30 9L30 10L32 10L32 9ZM3 10L3 11L4 11L4 10ZM5 10L5 11L7 11L7 10ZM42 10L42 11L43 11L43 12L42 12L42 13L43 13L43 12L44 12L44 11L43 11L43 10ZM1 12L1 13L2 13L2 12ZM4 12L4 13L5 13L5 12ZM36 12L36 13L35 13L35 14L34 14L34 16L33 16L33 15L31 15L31 16L33 16L33 17L34 17L34 18L32 18L32 17L31 17L31 18L30 18L30 17L29 17L29 16L30 16L30 14L29 14L29 15L28 15L28 17L27 17L27 18L25 18L25 17L26 17L26 13L25 13L25 17L23 17L23 16L24 16L24 15L23 15L23 16L22 16L22 17L23 17L23 18L25 18L25 19L24 19L24 20L23 20L23 19L22 19L22 18L20 18L20 20L19 20L19 21L18 21L18 22L17 22L17 21L16 21L16 22L17 22L17 23L18 23L18 22L19 22L19 25L20 25L20 26L19 26L19 27L18 27L18 29L17 29L17 27L16 27L16 24L15 24L15 23L14 23L14 25L13 25L13 26L12 26L12 27L11 27L11 28L12 28L12 27L13 27L13 29L14 29L14 27L16 27L16 29L17 29L17 30L18 30L18 31L21 31L21 32L20 32L20 35L19 35L19 38L18 38L18 39L16 39L16 38L17 38L17 36L18 36L18 34L17 34L17 32L16 32L16 35L15 35L15 33L11 33L11 34L9 34L9 35L8 35L8 34L6 34L6 35L8 35L8 36L9 36L9 37L10 37L10 38L11 38L11 39L12 39L12 37L14 37L14 39L16 39L16 40L15 40L15 41L14 41L14 40L12 40L12 41L14 41L14 42L13 42L13 43L14 43L14 42L15 42L15 44L16 44L16 43L17 43L17 41L18 41L18 40L19 40L19 38L20 38L20 39L21 39L21 38L20 38L20 37L21 37L21 36L20 36L20 35L21 35L21 32L22 32L22 30L23 30L23 28L22 28L22 27L24 27L24 33L23 33L23 34L24 34L24 33L25 33L25 32L26 32L26 31L27 31L27 32L28 32L28 33L26 33L26 34L28 34L28 36L27 36L27 35L25 35L25 36L27 36L27 37L28 37L28 36L29 36L29 38L31 38L31 37L32 37L32 38L33 38L33 39L32 39L32 40L34 40L34 39L35 39L35 40L36 40L36 41L38 41L38 40L36 40L36 39L37 39L37 38L38 38L38 35L39 35L39 34L37 34L37 36L36 36L36 34L34 34L34 32L28 32L28 28L29 28L29 30L31 30L31 31L32 31L32 28L33 28L33 29L34 29L34 28L33 28L33 25L32 25L32 24L33 24L33 23L34 23L34 25L36 25L36 26L34 26L34 27L35 27L35 30L33 30L33 31L35 31L35 30L36 30L36 32L35 32L35 33L36 33L36 32L37 32L37 30L38 30L38 29L37 29L37 28L36 28L36 26L37 26L37 24L38 24L38 23L39 23L39 22L40 22L40 21L41 21L41 20L40 20L40 19L37 19L37 18L35 18L35 16L36 16L36 17L37 17L37 16L36 16L36 15L37 15L37 14L38 14L38 13L37 13L37 12ZM12 13L12 14L14 14L14 13ZM36 13L36 14L35 14L35 15L36 15L36 14L37 14L37 13ZM6 14L6 15L7 15L7 16L6 16L6 17L7 17L7 16L8 16L8 15L9 15L9 14ZM47 14L47 15L49 15L49 14ZM19 15L19 17L20 17L20 16L21 16L21 15ZM17 16L17 17L18 17L18 16ZM44 16L44 17L45 17L45 16ZM28 17L28 20L27 20L27 21L26 21L26 22L27 22L27 21L29 21L29 19L30 19L30 20L31 20L31 22L30 22L30 23L31 23L31 24L32 24L32 23L33 23L33 22L35 22L35 21L36 21L36 20L37 20L37 19L35 19L35 18L34 18L34 20L32 20L32 19L30 19L30 18L29 18L29 17ZM46 18L46 19L45 19L45 20L44 20L44 21L43 21L43 22L46 22L46 20L47 20L47 18ZM21 19L21 21L23 21L23 22L25 22L25 21L23 21L23 20L22 20L22 19ZM12 20L12 21L11 21L11 22L12 22L12 21L13 21L13 20ZM39 20L39 21L37 21L37 23L35 23L35 24L37 24L37 23L38 23L38 22L39 22L39 21L40 21L40 20ZM14 21L14 22L15 22L15 21ZM32 21L32 22L31 22L31 23L32 23L32 22L33 22L33 21ZM20 22L20 24L21 24L21 22ZM28 22L28 23L27 23L27 24L28 24L28 25L27 25L27 26L28 26L28 27L25 27L25 28L28 28L28 27L29 27L29 28L30 28L30 29L31 29L31 28L32 28L32 27L31 27L31 26L29 26L29 25L30 25L30 24L29 24L29 22ZM5 23L5 26L8 26L8 23ZM23 23L23 26L26 26L26 23ZM41 23L41 26L44 26L44 23ZM1 24L1 26L2 26L2 24ZM3 24L3 25L4 25L4 24ZM6 24L6 25L7 25L7 24ZM24 24L24 25L25 25L25 24ZM42 24L42 25L43 25L43 24ZM14 25L14 26L15 26L15 25ZM17 25L17 26L18 26L18 25ZM3 26L3 27L4 27L4 28L7 28L7 27L4 27L4 26ZM21 26L21 27L20 27L20 28L19 28L19 29L20 29L20 30L22 30L22 28L21 28L21 27L22 27L22 26ZM38 26L38 27L39 27L39 26ZM46 26L46 27L49 27L49 26ZM30 27L30 28L31 28L31 27ZM42 27L42 28L43 28L43 29L44 29L44 28L43 28L43 27ZM46 28L46 31L47 31L47 32L43 32L43 33L47 33L47 32L49 32L49 30L48 30L48 31L47 31L47 28ZM48 28L48 29L49 29L49 28ZM25 30L25 31L26 31L26 30ZM18 32L18 33L19 33L19 32ZM29 33L29 34L30 34L30 35L29 35L29 36L30 36L30 35L31 35L31 36L32 36L32 37L33 37L33 38L35 38L35 39L36 39L36 38L37 38L37 37L36 37L36 36L35 36L35 35L34 35L34 34L33 34L33 35L34 35L34 37L33 37L33 36L32 36L32 35L31 35L31 34L32 34L32 33L31 33L31 34L30 34L30 33ZM11 34L11 36L12 36L12 34ZM13 34L13 36L14 36L14 34ZM16 35L16 36L17 36L17 35ZM22 35L22 39L23 39L23 38L24 38L24 37L23 37L23 35ZM40 35L40 36L41 36L41 35ZM15 37L15 38L16 38L16 37ZM25 37L25 38L26 38L26 37ZM27 38L27 39L28 39L28 40L29 40L29 39L28 39L28 38ZM47 38L47 39L49 39L49 38ZM23 41L23 44L26 44L26 41ZM33 41L33 42L34 42L34 41ZM41 41L41 44L44 44L44 41ZM24 42L24 43L25 43L25 42ZM42 42L42 43L43 43L43 42ZM47 42L47 43L49 43L49 42ZM34 43L34 44L33 44L33 45L34 45L34 44L35 44L35 43ZM10 45L10 47L11 47L11 46L12 46L12 45ZM38 45L38 46L37 46L37 47L38 47L38 46L39 46L39 47L40 47L40 46L39 46L39 45ZM43 45L43 46L44 46L44 47L45 47L45 48L48 48L48 47L47 47L47 46L46 46L46 47L45 47L45 46L44 46L44 45ZM24 46L24 47L23 47L23 48L24 48L24 49L25 49L25 48L26 48L26 47L25 47L25 46ZM24 47L24 48L25 48L25 47ZM0 0L0 7L7 7L7 0ZM1 1L1 6L6 6L6 1ZM2 2L2 5L5 5L5 2ZM42 0L42 7L49 7L49 0ZM43 1L43 6L48 6L48 1ZM44 2L44 5L47 5L47 2ZM0 42L0 49L7 49L7 42ZM1 43L1 48L6 48L6 43ZM2 44L2 47L5 47L5 44Z" fill="#000000"/></g></g></svg>
