<?xml version="1.0" encoding="UTF-8"?>
<svg xmlns="http://www.w3.org/2000/svg" version="1.1" width="300" height="300" viewBox="0 0 300 300"><rect x="0" y="0" width="300" height="300" fill="#ffffff"/><g transform="scale(8.108)"><g transform="translate(0,0)"><path fill-rule="evenodd" d="M9 0L9 1L8 1L8 3L10 3L10 4L13 4L13 6L12 6L12 5L11 5L11 6L10 6L10 5L9 5L9 6L8 6L8 7L9 7L9 6L10 6L10 10L8 10L8 9L7 9L7 8L5 8L5 9L4 9L4 8L1 8L1 10L0 10L0 11L1 11L1 10L4 10L4 11L5 11L5 9L7 9L7 10L6 10L6 11L9 11L9 12L8 12L8 14L6 14L6 13L7 13L7 12L6 12L6 13L5 13L5 14L6 14L6 15L8 15L8 14L9 14L9 16L11 16L11 17L12 17L12 14L11 14L11 12L12 12L12 9L13 9L13 10L20 10L20 11L18 11L18 12L20 12L20 13L22 13L22 15L21 15L21 16L23 16L23 17L25 17L25 18L26 18L26 17L27 17L27 20L28 20L28 22L29 22L29 23L28 23L28 24L30 24L30 25L32 25L32 26L35 26L35 27L34 27L34 28L35 28L35 29L34 29L34 30L33 30L33 28L29 28L29 27L30 27L30 26L29 26L29 25L28 25L28 26L26 26L26 25L25 25L25 27L23 27L23 28L22 28L22 29L21 29L21 30L22 30L22 31L20 31L20 32L19 32L19 31L18 31L18 32L17 32L17 30L18 30L18 29L19 29L19 27L22 27L22 26L23 26L23 25L21 25L21 26L20 26L20 25L19 25L19 23L20 23L20 24L21 24L21 23L22 23L22 21L23 21L23 20L24 20L24 22L23 22L23 23L25 23L25 24L27 24L27 21L26 21L26 20L24 20L24 19L23 19L23 18L22 18L22 20L21 20L21 21L20 21L20 22L18 22L18 20L16 20L16 21L17 21L17 22L16 22L16 23L17 23L17 22L18 22L18 25L16 25L16 26L17 26L17 28L18 28L18 29L16 29L16 27L14 27L14 26L15 26L15 25L14 25L14 23L15 23L15 21L14 21L14 20L15 20L15 19L14 19L14 20L12 20L12 21L13 21L13 22L14 22L14 23L13 23L13 24L12 24L12 22L9 22L9 20L11 20L11 18L10 18L10 19L9 19L9 17L8 17L8 16L6 16L6 17L5 17L5 19L4 19L4 17L2 17L2 16L4 16L4 14L3 14L3 11L2 11L2 14L3 14L3 15L2 15L2 16L1 16L1 15L0 15L0 17L1 17L1 18L0 18L0 19L1 19L1 20L2 20L2 21L0 21L0 22L2 22L2 23L3 23L3 24L4 24L4 25L2 25L2 26L1 26L1 27L0 27L0 28L1 28L1 27L3 27L3 28L2 28L2 29L3 29L3 28L5 28L5 27L7 27L7 28L6 28L6 29L8 29L8 30L9 30L9 29L10 29L10 31L11 31L11 30L14 30L14 28L15 28L15 31L14 31L14 33L13 33L13 32L11 32L11 33L10 33L10 32L9 32L9 31L8 31L8 32L9 32L9 33L8 33L8 36L9 36L9 37L12 37L12 36L13 36L13 37L16 37L16 36L15 36L15 35L18 35L18 34L19 34L19 33L21 33L21 34L22 34L22 33L21 33L21 32L22 32L22 31L23 31L23 32L24 32L24 31L23 31L23 30L24 30L24 29L26 29L26 28L27 28L27 30L26 30L26 31L27 31L27 30L28 30L28 33L30 33L30 35L31 35L31 34L32 34L32 36L31 36L31 37L32 37L32 36L33 36L33 37L37 37L37 36L35 36L35 35L36 35L36 34L35 34L35 35L34 35L34 34L33 34L33 33L34 33L34 32L33 32L33 31L34 31L34 30L36 30L36 31L37 31L37 27L36 27L36 26L37 26L37 25L36 25L36 24L37 24L37 21L36 21L36 19L37 19L37 17L36 17L36 18L35 18L35 16L34 16L34 15L33 15L33 14L34 14L34 13L33 13L33 11L34 11L34 12L35 12L35 13L36 13L36 14L37 14L37 12L35 12L35 11L36 11L36 8L34 8L34 9L30 9L30 10L33 10L33 11L32 11L32 12L31 12L31 11L29 11L29 10L28 10L28 9L27 9L27 8L29 8L29 4L27 4L27 3L26 3L26 4L25 4L25 2L26 2L26 1L27 1L27 0L25 0L25 2L23 2L23 4L22 4L22 5L20 5L20 7L19 7L19 6L18 6L18 7L17 7L17 5L19 5L19 4L20 4L20 3L21 3L21 2L19 2L19 0L18 0L18 1L17 1L17 0L14 0L14 1L15 1L15 3L14 3L14 2L13 2L13 1L12 1L12 0L11 0L11 3L10 3L10 0ZM16 1L16 2L17 2L17 3L15 3L15 4L17 4L17 3L18 3L18 2L17 2L17 1ZM12 2L12 3L13 3L13 4L14 4L14 3L13 3L13 2ZM28 2L28 3L29 3L29 2ZM14 5L14 6L13 6L13 7L14 7L14 6L15 6L15 8L16 8L16 9L17 9L17 7L16 7L16 6L15 6L15 5ZM24 5L24 6L23 6L23 7L22 7L22 6L21 6L21 7L20 7L20 10L21 10L21 11L20 11L20 12L22 12L22 13L23 13L23 16L24 16L24 15L25 15L25 16L26 16L26 15L25 15L25 14L26 14L26 13L27 13L27 15L28 15L28 16L29 16L29 18L28 18L28 20L29 20L29 18L30 18L30 17L32 17L32 18L31 18L31 19L32 19L32 18L33 18L33 15L32 15L32 16L29 16L29 15L28 15L28 14L30 14L30 12L28 12L28 10L27 10L27 9L25 9L25 8L24 8L24 6L25 6L25 7L26 7L26 5ZM27 5L27 7L28 7L28 5ZM11 6L11 8L12 8L12 6ZM18 8L18 9L19 9L19 8ZM21 8L21 10L22 10L22 8ZM23 8L23 11L24 11L24 8ZM34 9L34 11L35 11L35 9ZM10 10L10 12L9 12L9 13L10 13L10 12L11 12L11 10ZM25 10L25 13L26 13L26 11L27 11L27 10ZM14 11L14 13L15 13L15 15L16 15L16 16L17 16L17 17L18 17L18 16L17 16L17 14L16 14L16 12L17 12L17 11ZM0 12L0 13L1 13L1 12ZM23 12L23 13L24 13L24 12ZM27 12L27 13L28 13L28 12ZM31 13L31 14L32 14L32 13ZM10 14L10 15L11 15L11 14ZM13 14L13 15L14 15L14 14ZM18 14L18 15L20 15L20 14ZM36 15L36 16L37 16L37 15ZM19 16L19 18L16 18L16 17L15 17L15 18L16 18L16 19L19 19L19 20L20 20L20 19L21 19L21 17L20 17L20 16ZM6 17L6 18L7 18L7 17ZM1 18L1 19L2 19L2 18ZM34 18L34 20L33 20L33 21L32 21L32 20L30 20L30 21L29 21L29 22L30 22L30 24L31 24L31 22L33 22L33 24L32 24L32 25L34 25L34 22L35 22L35 24L36 24L36 21L35 21L35 18ZM3 19L3 20L4 20L4 21L5 21L5 20L7 20L7 21L6 21L6 22L4 22L4 23L5 23L5 25L6 25L6 26L7 26L7 27L8 27L8 28L10 28L10 27L11 27L11 26L12 26L12 25L11 25L11 23L10 23L10 27L9 27L9 26L8 26L8 25L6 25L6 24L8 24L8 20L9 20L9 19L8 19L8 20L7 20L7 19L5 19L5 20L4 20L4 19ZM2 21L2 22L3 22L3 21ZM25 21L25 23L26 23L26 21ZM6 22L6 23L7 23L7 22ZM0 24L0 25L1 25L1 24ZM13 25L13 26L14 26L14 25ZM18 25L18 27L19 27L19 25ZM3 26L3 27L5 27L5 26ZM13 27L13 28L14 28L14 27ZM25 27L25 28L26 28L26 27ZM27 27L27 28L28 28L28 27ZM35 27L35 28L36 28L36 27ZM11 28L11 29L12 29L12 28ZM29 29L29 32L32 32L32 29ZM30 30L30 31L31 31L31 30ZM15 31L15 32L16 32L16 31ZM26 32L26 33L25 33L25 35L23 35L23 37L25 37L25 35L26 35L26 33L27 33L27 32ZM35 32L35 33L37 33L37 32ZM17 33L17 34L18 34L18 33ZM9 34L9 35L10 35L10 34ZM12 34L12 35L13 35L13 36L14 36L14 35L13 35L13 34ZM27 34L27 36L26 36L26 37L28 37L28 34ZM19 35L19 36L20 36L20 37L22 37L22 36L20 36L20 35ZM17 36L17 37L18 37L18 36ZM0 0L0 7L7 7L7 0ZM1 1L1 6L6 6L6 1ZM2 2L2 5L5 5L5 2ZM30 0L30 7L37 7L37 0ZM31 1L31 6L36 6L36 1ZM32 2L32 5L35 5L35 2ZM0 30L0 37L7 37L7 30ZM1 31L1 36L6 36L6 31ZM2 32L2 35L5 35L5 32Z" fill="#000000"/></g></g></svg>
