<?xml version="1.0" encoding="UTF-8"?>
<svg xmlns="http://www.w3.org/2000/svg" version="1.1" width="300" height="300" viewBox="0 0 300 300"><rect x="0" y="0" width="300" height="300" fill="#ffffff"/><g transform="scale(6.122)"><g transform="translate(0,0)"><path fill-rule="evenodd" d="M8 0L8 1L9 1L9 2L10 2L10 3L9 3L9 4L8 4L8 7L9 7L9 5L10 5L10 8L11 8L11 6L12 6L12 7L13 7L13 8L15 8L15 9L17 9L17 10L13 10L13 11L17 11L17 13L16 13L16 12L14 12L14 13L15 13L15 14L16 14L16 16L17 16L17 17L18 17L18 16L17 16L17 15L19 15L19 13L20 13L20 12L19 12L19 11L21 11L21 14L22 14L22 15L23 15L23 16L22 16L22 17L23 17L23 18L25 18L25 19L24 19L24 20L23 20L23 19L22 19L22 18L21 18L21 17L20 17L20 16L21 16L21 15L20 15L20 16L19 16L19 17L20 17L20 18L19 18L19 19L18 19L18 18L13 18L13 19L16 19L16 21L17 21L17 20L19 20L19 21L18 21L18 22L15 22L15 21L14 21L14 22L15 22L15 23L14 23L14 25L13 25L13 24L11 24L11 23L12 23L12 21L13 21L13 20L12 20L12 21L11 21L11 23L10 23L10 22L6 22L6 21L7 21L7 20L8 20L8 21L10 21L10 20L11 20L11 19L12 19L12 18L11 18L11 17L14 17L14 16L13 16L13 15L12 15L12 14L13 14L13 12L12 12L12 14L11 14L11 13L10 13L10 12L8 12L8 10L9 10L9 11L12 11L12 10L10 10L10 9L8 9L8 8L1 8L1 9L2 9L2 11L0 11L0 14L1 14L1 13L2 13L2 12L3 12L3 14L2 14L2 15L3 15L3 14L6 14L6 15L7 15L7 16L5 16L5 15L4 15L4 16L3 16L3 17L7 17L7 18L5 18L5 20L6 20L6 21L5 21L5 22L3 22L3 24L2 24L2 23L1 23L1 21L2 21L2 20L1 20L1 19L3 19L3 21L4 21L4 19L3 19L3 18L1 18L1 15L0 15L0 18L1 18L1 19L0 19L0 20L1 20L1 21L0 21L0 26L1 26L1 27L0 27L0 28L1 28L1 30L0 30L0 31L2 31L2 32L0 32L0 35L2 35L2 36L3 36L3 38L5 38L5 39L8 39L8 40L6 40L6 41L8 41L8 48L9 48L9 49L10 49L10 48L11 48L11 49L12 49L12 48L11 48L11 47L12 47L12 46L11 46L11 47L10 47L10 45L12 45L12 44L11 44L11 43L14 43L14 42L15 42L15 43L16 43L16 44L15 44L15 45L14 45L14 44L13 44L13 46L14 46L14 48L15 48L15 49L18 49L18 46L19 46L19 44L21 44L21 42L22 42L22 45L21 45L21 47L19 47L19 48L20 48L20 49L21 49L21 48L22 48L22 46L23 46L23 45L27 45L27 44L29 44L29 45L28 45L28 46L27 46L27 49L28 49L28 48L29 48L29 49L30 49L30 47L28 47L28 46L31 46L31 47L32 47L32 48L31 48L31 49L32 49L32 48L33 48L33 49L34 49L34 47L37 47L37 48L35 48L35 49L38 49L38 48L40 48L40 49L41 49L41 47L42 47L42 48L43 48L43 47L44 47L44 48L45 48L45 49L49 49L49 45L48 45L48 44L46 44L46 46L45 46L45 43L46 43L46 42L45 42L45 40L46 40L46 41L48 41L48 40L46 40L46 39L44 39L44 37L47 37L47 36L48 36L48 37L49 37L49 34L47 34L47 36L44 36L44 37L42 37L42 36L41 36L41 35L40 35L40 36L39 36L39 38L37 38L37 37L38 37L38 35L39 35L39 34L42 34L42 35L43 35L43 34L42 34L42 33L41 33L41 32L42 32L42 31L43 31L43 29L45 29L45 28L44 28L44 27L45 27L45 25L48 25L48 24L45 24L45 23L46 23L46 22L47 22L47 23L49 23L49 22L47 22L47 20L48 20L48 21L49 21L49 18L47 18L47 17L48 17L48 16L46 16L46 15L49 15L49 14L46 14L46 13L48 13L48 12L46 12L46 11L44 11L44 10L43 10L43 9L45 9L45 8L43 8L43 9L42 9L42 10L41 10L41 12L39 12L39 10L37 10L37 6L38 6L38 8L39 8L39 9L41 9L41 8L39 8L39 5L38 5L38 3L35 3L35 2L37 2L37 1L38 1L38 2L39 2L39 4L40 4L40 3L41 3L41 0L40 0L40 1L38 1L38 0L35 0L35 1L31 1L31 0L22 0L22 2L23 2L23 4L21 4L21 1L20 1L20 2L19 2L19 4L21 4L21 5L20 5L20 8L22 8L22 9L25 9L25 11L24 11L24 10L22 10L22 11L21 11L21 10L20 10L20 9L19 9L19 6L18 6L18 5L17 5L17 3L18 3L18 2L17 2L17 3L16 3L16 1L19 1L19 0L16 0L16 1L15 1L15 0ZM12 1L12 2L11 2L11 3L10 3L10 4L11 4L11 3L12 3L12 4L13 4L13 5L12 5L12 6L13 6L13 7L14 7L14 6L13 6L13 5L15 5L15 4L14 4L14 3L15 3L15 1ZM23 1L23 2L24 2L24 4L25 4L25 3L27 3L27 8L28 8L28 9L26 9L26 10L28 10L28 11L26 11L26 12L23 12L23 13L24 13L24 14L23 14L23 15L24 15L24 16L23 16L23 17L25 17L25 18L27 18L27 17L28 17L28 20L27 20L27 19L26 19L26 20L25 20L25 21L23 21L23 20L22 20L22 19L21 19L21 18L20 18L20 22L21 22L21 23L20 23L20 24L21 24L21 26L22 26L22 21L23 21L23 22L26 22L26 20L27 20L27 21L29 21L29 19L30 19L30 20L31 20L31 22L30 22L30 23L31 23L31 24L32 24L32 25L33 25L33 28L32 28L32 27L31 27L31 26L29 26L29 25L30 25L30 24L29 24L29 22L28 22L28 23L27 23L27 24L28 24L28 25L27 25L27 26L28 26L28 27L29 27L29 28L27 28L27 29L29 29L29 28L30 28L30 29L31 29L31 28L32 28L32 31L31 31L31 30L28 30L28 32L27 32L27 33L26 33L26 32L25 32L25 31L27 31L27 30L25 30L25 28L26 28L26 27L25 27L25 28L24 28L24 27L22 27L22 28L21 28L21 27L20 27L20 28L19 28L19 29L18 29L18 30L19 30L19 29L20 29L20 30L21 30L21 29L22 29L22 32L21 32L21 31L19 31L19 33L18 33L18 34L17 34L17 35L16 35L16 32L17 32L17 29L16 29L16 27L17 27L17 28L18 28L18 27L17 27L17 25L18 25L18 26L20 26L20 25L19 25L19 22L18 22L18 23L17 23L17 24L16 24L16 23L15 23L15 24L16 24L16 27L15 27L15 31L14 31L14 32L10 32L10 31L12 31L12 29L13 29L13 30L14 30L14 28L13 28L13 27L14 27L14 26L15 26L15 25L14 25L14 26L13 26L13 25L9 25L9 28L11 28L11 30L10 30L10 29L8 29L8 28L7 28L7 27L4 27L4 26L3 26L3 27L4 27L4 28L2 28L2 29L4 29L4 28L7 28L7 29L5 29L5 30L4 30L4 32L5 32L5 31L6 31L6 32L8 32L8 31L6 31L6 30L9 30L9 33L8 33L8 34L7 34L7 33L6 33L6 34L5 34L5 35L4 35L4 36L5 36L5 37L6 37L6 38L7 38L7 37L6 37L6 36L7 36L7 35L8 35L8 37L9 37L9 38L8 38L8 39L9 39L9 40L8 40L8 41L9 41L9 40L10 40L10 39L11 39L11 41L10 41L10 42L9 42L9 44L10 44L10 42L14 42L14 41L15 41L15 39L14 39L14 37L15 37L15 38L16 38L16 39L18 39L18 35L20 35L20 36L19 36L19 38L20 38L20 39L19 39L19 40L18 40L18 41L16 41L16 43L18 43L18 42L20 42L20 41L21 41L21 40L23 40L23 39L22 39L22 35L23 35L23 37L26 37L26 38L25 38L25 39L24 39L24 40L25 40L25 39L27 39L27 40L28 40L28 42L27 42L27 43L29 43L29 42L30 42L30 41L29 41L29 40L30 40L30 39L31 39L31 42L32 42L32 43L33 43L33 44L32 44L32 47L33 47L33 46L35 46L35 44L37 44L37 43L36 43L36 42L35 42L35 40L38 40L38 41L37 41L37 42L38 42L38 43L40 43L40 41L39 41L39 40L41 40L41 39L42 39L42 40L44 40L44 39L42 39L42 38L41 38L41 39L37 39L37 38L35 38L35 37L36 37L36 36L37 36L37 35L38 35L38 34L39 34L39 32L40 32L40 31L41 31L41 30L42 30L42 29L41 29L41 27L40 27L40 24L39 24L39 23L40 23L40 22L41 22L41 21L42 21L42 17L43 17L43 16L42 16L42 15L43 15L43 14L42 14L42 12L41 12L41 13L40 13L40 14L42 14L42 15L41 15L41 16L39 16L39 17L40 17L40 18L37 18L37 19L36 19L36 18L34 18L34 17L33 17L33 16L34 16L34 15L33 15L33 14L35 14L35 13L36 13L36 12L38 12L38 14L37 14L37 15L36 15L36 16L35 16L35 17L36 17L36 16L37 16L37 17L38 17L38 16L37 16L37 15L38 15L38 14L39 14L39 12L38 12L38 11L36 11L36 10L35 10L35 9L36 9L36 8L35 8L35 7L36 7L36 6L37 6L37 4L33 4L33 3L34 3L34 2L33 2L33 3L32 3L32 2L31 2L31 1L28 1L28 3L27 3L27 2L26 2L26 1L25 1L25 2L24 2L24 1ZM12 2L12 3L14 3L14 2ZM29 2L29 3L28 3L28 5L29 5L29 6L28 6L28 8L29 8L29 6L30 6L30 9L29 9L29 10L32 10L32 9L31 9L31 8L32 8L32 7L33 7L33 8L34 8L34 9L33 9L33 10L34 10L34 12L35 12L35 10L34 10L34 9L35 9L35 8L34 8L34 7L35 7L35 5L33 5L33 6L32 6L32 7L31 7L31 6L30 6L30 5L32 5L32 4L30 4L30 2ZM16 5L16 6L15 6L15 7L16 7L16 6L17 6L17 8L18 8L18 6L17 6L17 5ZM23 5L23 8L26 8L26 5ZM21 6L21 7L22 7L22 6ZM24 6L24 7L25 7L25 6ZM33 6L33 7L34 7L34 6ZM40 6L40 7L41 7L41 6ZM48 8L48 9L46 9L46 10L48 10L48 11L49 11L49 10L48 10L48 9L49 9L49 8ZM5 9L5 10L8 10L8 9ZM17 10L17 11L18 11L18 10ZM42 10L42 11L43 11L43 12L44 12L44 13L46 13L46 12L44 12L44 11L43 11L43 10ZM4 11L4 13L6 13L6 14L9 14L9 15L8 15L8 16L7 16L7 17L8 17L8 18L10 18L10 19L9 19L9 20L10 20L10 19L11 19L11 18L10 18L10 17L11 17L11 16L10 16L10 14L9 14L9 13L6 13L6 12L7 12L7 11ZM29 11L29 12L26 12L26 13L25 13L25 17L26 17L26 13L27 13L27 14L32 14L32 13L31 13L31 12L33 12L33 11ZM18 12L18 13L17 13L17 14L18 14L18 13L19 13L19 12ZM45 14L45 15L46 15L46 14ZM28 15L28 17L29 17L29 18L30 18L30 19L32 19L32 20L34 20L34 18L32 18L32 17L31 17L31 18L30 18L30 17L29 17L29 16L30 16L30 15ZM31 15L31 16L33 16L33 15ZM44 16L44 17L46 17L46 16ZM46 18L46 19L45 19L45 20L44 20L44 21L43 21L43 22L46 22L46 20L47 20L47 18ZM6 19L6 20L7 20L7 19ZM37 19L37 20L36 20L36 21L35 21L35 22L33 22L33 21L32 21L32 22L31 22L31 23L32 23L32 24L33 24L33 23L34 23L34 25L36 25L36 26L34 26L34 27L35 27L35 30L33 30L33 32L31 32L31 31L30 31L30 32L28 32L28 33L27 33L27 34L28 34L28 35L26 35L26 36L34 36L34 35L35 35L35 36L36 36L36 34L33 34L33 33L34 33L34 32L35 32L35 33L36 33L36 32L38 32L38 31L40 31L40 28L38 28L38 29L37 29L37 28L36 28L36 26L37 26L37 24L38 24L38 23L39 23L39 22L40 22L40 21L41 21L41 20L40 20L40 19ZM39 20L39 21L37 21L37 23L35 23L35 24L37 24L37 23L38 23L38 22L39 22L39 21L40 21L40 20ZM32 22L32 23L33 23L33 22ZM5 23L5 26L8 26L8 23ZM23 23L23 26L26 26L26 23ZM41 23L41 26L44 26L44 23ZM1 24L1 26L2 26L2 24ZM3 24L3 25L4 25L4 24ZM6 24L6 25L7 25L7 24ZM24 24L24 25L25 25L25 24ZM42 24L42 25L43 25L43 24ZM12 26L12 27L11 27L11 28L12 28L12 27L13 27L13 26ZM38 26L38 27L39 27L39 26ZM46 26L46 27L48 27L48 28L46 28L46 31L47 31L47 32L45 32L45 31L44 31L44 32L43 32L43 33L47 33L47 32L49 32L49 30L48 30L48 31L47 31L47 29L49 29L49 26ZM30 27L30 28L31 28L31 27ZM42 27L42 28L43 28L43 27ZM23 28L23 29L24 29L24 28ZM33 28L33 29L34 29L34 28ZM38 29L38 30L37 30L37 31L38 31L38 30L39 30L39 29ZM2 30L2 31L3 31L3 30ZM24 30L24 31L23 31L23 32L22 32L22 33L24 33L24 31L25 31L25 30ZM35 30L35 32L36 32L36 30ZM2 32L2 33L1 33L1 34L3 34L3 32ZM14 32L14 34L13 34L13 33L10 33L10 35L9 35L9 37L10 37L10 38L11 38L11 39L12 39L12 36L13 36L13 35L15 35L15 36L16 36L16 35L15 35L15 32ZM20 32L20 35L22 35L22 34L21 34L21 32ZM30 32L30 33L29 33L29 34L30 34L30 35L31 35L31 34L32 34L32 33L31 33L31 32ZM25 33L25 34L23 34L23 35L25 35L25 34L26 34L26 33ZM30 33L30 34L31 34L31 33ZM37 33L37 34L38 34L38 33ZM6 34L6 35L5 35L5 36L6 36L6 35L7 35L7 34ZM11 34L11 36L12 36L12 34ZM44 34L44 35L46 35L46 34ZM40 36L40 37L41 37L41 36ZM16 37L16 38L17 38L17 37ZM20 37L20 38L21 38L21 37ZM27 37L27 39L28 39L28 40L29 40L29 39L28 39L28 38L31 38L31 39L32 39L32 40L34 40L34 39L35 39L35 38L33 38L33 39L32 39L32 38L31 38L31 37ZM1 38L1 40L0 40L0 41L3 41L3 40L4 40L4 39L2 39L2 38ZM47 38L47 39L49 39L49 38ZM20 39L20 40L19 40L19 41L20 41L20 40L21 40L21 39ZM13 40L13 41L14 41L14 40ZM23 41L23 44L26 44L26 41ZM32 41L32 42L34 42L34 41ZM41 41L41 44L44 44L44 41ZM24 42L24 43L25 43L25 42ZM42 42L42 43L43 43L43 42ZM47 42L47 43L49 43L49 42ZM34 43L34 44L33 44L33 45L34 45L34 44L35 44L35 43ZM17 44L17 45L18 45L18 44ZM15 45L15 47L16 47L16 48L17 48L17 47L16 47L16 45ZM38 45L38 46L37 46L37 47L38 47L38 46L39 46L39 47L40 47L40 46L41 46L41 45L40 45L40 46L39 46L39 45ZM43 45L43 46L42 46L42 47L43 47L43 46L44 46L44 47L45 47L45 48L48 48L48 47L47 47L47 46L46 46L46 47L45 47L45 46L44 46L44 45ZM24 46L24 47L23 47L23 48L24 48L24 49L25 49L25 48L26 48L26 47L25 47L25 46ZM24 47L24 48L25 48L25 47ZM0 0L0 7L7 7L7 0ZM1 1L1 6L6 6L6 1ZM2 2L2 5L5 5L5 2ZM42 0L42 7L49 7L49 0ZM43 1L43 6L48 6L48 1ZM44 2L44 5L47 5L47 2ZM0 42L0 49L7 49L7 42ZM1 43L1 48L6 48L6 43ZM2 44L2 47L5 47L5 44Z" fill="#000000"/></g></g></svg>
