<?xml version="1.0" encoding="UTF-8"?>
<svg xmlns="http://www.w3.org/2000/svg" version="1.1" width="300" height="300" viewBox="0 0 300 300"><rect x="0" y="0" width="300" height="300" fill="#ffffff"/><g transform="scale(8.108)"><g transform="translate(0,0)"><path fill-rule="evenodd" d="M8 0L8 1L9 1L9 4L8 4L8 7L9 7L9 9L8 9L8 8L1 8L1 9L0 9L0 10L2 10L2 13L1 13L1 15L0 15L0 16L1 16L1 18L6 18L6 19L4 19L4 20L6 20L6 21L9 21L9 20L10 20L10 21L11 21L11 22L10 22L10 26L9 26L9 25L8 25L8 23L9 23L9 22L8 22L8 23L7 23L7 22L6 22L6 23L5 23L5 21L4 21L4 23L5 23L5 24L6 24L6 25L4 25L4 26L2 26L2 27L3 27L3 29L7 29L7 28L8 28L8 27L10 27L10 29L8 29L8 36L10 36L10 35L11 35L11 37L13 37L13 36L12 36L12 35L14 35L14 37L17 37L17 36L15 36L15 33L18 33L18 34L17 34L17 35L18 35L18 36L19 36L19 33L21 33L21 34L20 34L20 35L21 35L21 36L20 36L20 37L22 37L22 36L23 36L23 37L25 37L25 36L26 36L26 37L28 37L28 36L29 36L29 37L31 37L31 36L34 36L34 37L37 37L37 34L36 34L36 36L34 36L34 34L35 34L35 33L36 33L36 32L37 32L37 30L36 30L36 29L37 29L37 26L36 26L36 24L34 24L34 22L35 22L35 23L36 23L36 22L37 22L37 18L32 18L32 19L31 19L31 18L30 18L30 19L31 19L31 20L30 20L30 21L29 21L29 20L28 20L28 18L27 18L27 19L26 19L26 20L28 20L28 21L29 21L29 22L30 22L30 23L28 23L28 22L27 22L27 21L26 21L26 22L27 22L27 23L26 23L26 24L27 24L27 25L22 25L22 27L23 27L23 28L19 28L19 27L17 27L17 25L18 25L18 26L19 26L19 25L20 25L20 27L21 27L21 25L20 25L20 24L23 24L23 22L22 22L22 21L21 21L21 22L20 22L20 20L23 20L23 17L22 17L22 16L24 16L24 15L26 15L26 16L25 16L25 17L24 17L24 18L25 18L25 17L26 17L26 16L27 16L27 17L31 17L31 16L32 16L32 17L33 17L33 16L34 16L34 17L37 17L37 14L36 14L36 13L37 13L37 12L36 12L36 13L35 13L35 14L31 14L31 15L30 15L30 14L29 14L29 16L28 16L28 11L29 11L29 13L33 13L33 12L34 12L34 11L33 11L33 10L34 10L34 9L33 9L33 8L31 8L31 9L30 9L30 11L29 11L29 10L28 10L28 9L29 9L29 8L28 8L28 7L29 7L29 5L26 5L26 4L29 4L29 2L28 2L28 1L27 1L27 0L25 0L25 1L23 1L23 4L20 4L20 3L22 3L22 2L21 2L21 1L22 1L22 0L21 0L21 1L20 1L20 3L19 3L19 2L18 2L18 1L19 1L19 0L15 0L15 1L14 1L14 2L10 2L10 0ZM11 0L11 1L12 1L12 0ZM16 1L16 2L14 2L14 3L17 3L17 1ZM24 2L24 3L25 3L25 4L23 4L23 5L22 5L22 6L21 6L21 5L20 5L20 4L17 4L17 7L16 7L16 4L15 4L15 5L12 5L12 4L13 4L13 3L12 3L12 4L10 4L10 6L9 6L9 7L10 7L10 6L11 6L11 7L12 7L12 8L13 8L13 9L11 9L11 8L10 8L10 10L12 10L12 11L11 11L11 12L10 12L10 11L9 11L9 10L8 10L8 9L5 9L5 11L4 11L4 12L5 12L5 13L4 13L4 14L3 14L3 13L2 13L2 15L1 15L1 16L2 16L2 17L3 17L3 16L2 16L2 15L4 15L4 17L5 17L5 16L7 16L7 17L6 17L6 18L8 18L8 16L7 16L7 15L6 15L6 14L7 14L7 13L9 13L9 14L8 14L8 15L10 15L10 14L11 14L11 13L12 13L12 12L14 12L14 13L13 13L13 14L12 14L12 15L11 15L11 16L10 16L10 17L9 17L9 18L10 18L10 17L11 17L11 19L10 19L10 20L11 20L11 21L13 21L13 20L11 20L11 19L14 19L14 21L15 21L15 20L17 20L17 21L16 21L16 23L15 23L15 22L13 22L13 23L12 23L12 22L11 22L11 23L12 23L12 24L11 24L11 25L12 25L12 24L14 24L14 25L13 25L13 26L12 26L12 28L11 28L11 29L10 29L10 30L9 30L9 31L10 31L10 32L9 32L9 35L10 35L10 32L12 32L12 33L13 33L13 34L14 34L14 32L17 32L17 31L18 31L18 33L19 33L19 28L18 28L18 30L17 30L17 29L16 29L16 28L17 28L17 27L16 27L16 28L15 28L15 25L17 25L17 22L18 22L18 21L19 21L19 19L18 19L18 20L17 20L17 19L14 19L14 17L16 17L16 18L17 18L17 17L18 17L18 16L21 16L21 15L20 15L20 14L21 14L21 13L20 13L20 10L21 10L21 9L23 9L23 7L24 7L24 9L25 9L25 12L22 12L22 13L25 13L25 14L26 14L26 15L27 15L27 12L26 12L26 11L27 11L27 9L26 9L26 8L27 8L27 7L28 7L28 6L27 6L27 7L26 7L26 6L25 6L25 7L24 7L24 6L23 6L23 5L25 5L25 4L26 4L26 3L28 3L28 2L26 2L26 3L25 3L25 2ZM18 5L18 7L17 7L17 8L16 8L16 7L15 7L15 6L14 6L14 7L13 7L13 6L12 6L12 7L13 7L13 8L14 8L14 10L13 10L13 11L14 11L14 12L15 12L15 15L16 15L16 12L15 12L15 11L16 11L16 10L20 10L20 9L21 9L21 8L22 8L22 7L23 7L23 6L22 6L22 7L21 7L21 6L20 6L20 5ZM19 6L19 9L20 9L20 8L21 8L21 7L20 7L20 6ZM14 7L14 8L15 8L15 9L16 9L16 8L15 8L15 7ZM25 7L25 8L26 8L26 7ZM17 8L17 9L18 9L18 8ZM36 8L36 9L35 9L35 10L36 10L36 11L37 11L37 10L36 10L36 9L37 9L37 8ZM6 10L6 11L7 11L7 12L6 12L6 13L7 13L7 12L8 12L8 11L7 11L7 10ZM22 10L22 11L24 11L24 10ZM31 10L31 11L30 11L30 12L31 12L31 11L32 11L32 10ZM17 11L17 12L18 12L18 11ZM9 12L9 13L10 13L10 12ZM25 12L25 13L26 13L26 12ZM17 13L17 14L20 14L20 13ZM4 14L4 15L5 15L5 14ZM22 14L22 15L24 15L24 14ZM35 14L35 15L34 15L34 16L36 16L36 14ZM12 15L12 18L13 18L13 15ZM32 15L32 16L33 16L33 15ZM16 16L16 17L17 17L17 16ZM19 17L19 18L20 18L20 17ZM0 19L0 29L1 29L1 24L2 24L2 25L3 25L3 24L2 24L2 23L1 23L1 21L2 21L2 22L3 22L3 19ZM6 19L6 20L7 20L7 19ZM24 19L24 20L25 20L25 19ZM32 19L32 20L31 20L31 21L30 21L30 22L31 22L31 23L32 23L32 25L31 25L31 26L32 26L32 27L30 27L30 26L27 26L27 28L26 28L26 26L25 26L25 28L26 28L26 29L27 29L27 31L28 31L28 27L29 27L29 28L34 28L34 29L33 29L33 30L34 30L34 32L33 32L33 33L34 33L34 32L35 32L35 31L36 31L36 30L35 30L35 28L34 28L34 27L33 27L33 26L34 26L34 24L33 24L33 21L34 21L34 20L36 20L36 19L34 19L34 20L33 20L33 19ZM32 20L32 21L31 21L31 22L32 22L32 21L33 21L33 20ZM24 21L24 22L25 22L25 21ZM35 21L35 22L36 22L36 21ZM6 23L6 24L7 24L7 23ZM19 23L19 24L18 24L18 25L19 25L19 24L20 24L20 23ZM24 23L24 24L25 24L25 23ZM28 24L28 25L30 25L30 24ZM6 25L6 26L8 26L8 25ZM10 26L10 27L11 27L11 26ZM13 26L13 27L14 27L14 26ZM23 26L23 27L24 27L24 26ZM35 26L35 27L36 27L36 26ZM4 27L4 28L7 28L7 27ZM13 28L13 29L15 29L15 28ZM23 28L23 29L20 29L20 30L21 30L21 32L23 32L23 33L22 33L22 35L23 35L23 34L25 34L25 33L24 33L24 32L23 32L23 31L25 31L25 32L26 32L26 33L27 33L27 32L26 32L26 30L25 30L25 29L24 29L24 28ZM11 29L11 30L10 30L10 31L11 31L11 30L12 30L12 29ZM23 29L23 30L22 30L22 31L23 31L23 30L24 30L24 29ZM29 29L29 32L32 32L32 29ZM13 30L13 31L12 31L12 32L14 32L14 30ZM15 30L15 31L16 31L16 30ZM30 30L30 31L31 31L31 30ZM28 33L28 35L26 35L26 36L28 36L28 35L29 35L29 36L30 36L30 35L33 35L33 34L29 34L29 33ZM11 34L11 35L12 35L12 34ZM24 35L24 36L25 36L25 35ZM0 0L0 7L7 7L7 0ZM1 1L1 6L6 6L6 1ZM2 2L2 5L5 5L5 2ZM30 0L30 7L37 7L37 0ZM31 1L31 6L36 6L36 1ZM32 2L32 5L35 5L35 2ZM0 30L0 37L7 37L7 30ZM1 31L1 36L6 36L6 31ZM2 32L2 35L5 35L5 32Z" fill="#000000"/></g></g></svg>
