<?xml version="1.0" encoding="UTF-8"?>
<svg xmlns="http://www.w3.org/2000/svg" version="1.1" width="300" height="300" viewBox="0 0 300 300"><rect x="0" y="0" width="300" height="300" fill="#ffffff"/><g transform="scale(8.108)"><g transform="translate(0,0)"><path fill-rule="evenodd" d="M8 0L8 1L9 1L9 2L8 2L8 4L9 4L9 3L10 3L10 2L12 2L12 3L13 3L13 4L15 4L15 3L16 3L16 4L17 4L17 3L18 3L18 4L19 4L19 5L16 5L16 8L14 8L14 7L15 7L15 5L12 5L12 7L11 7L11 5L10 5L10 8L9 8L9 5L8 5L8 8L5 8L5 9L8 9L8 10L6 10L6 11L5 11L5 12L6 12L6 13L7 13L7 12L8 12L8 13L9 13L9 12L10 12L10 14L9 14L9 16L11 16L11 17L9 17L9 18L10 18L10 19L11 19L11 17L13 17L13 15L12 15L12 14L11 14L11 12L12 12L12 11L14 11L14 13L15 13L15 14L14 14L14 15L15 15L15 14L16 14L16 13L17 13L17 12L16 12L16 13L15 13L15 10L19 10L19 11L18 11L18 12L19 12L19 14L20 14L20 12L22 12L22 13L21 13L21 14L22 14L22 15L20 15L20 16L19 16L19 15L18 15L18 14L17 14L17 16L18 16L18 17L17 17L17 18L15 18L15 17L16 17L16 16L15 16L15 17L14 17L14 19L13 19L13 21L12 21L12 20L9 20L9 19L8 19L8 17L7 17L7 16L8 16L8 15L7 15L7 14L5 14L5 13L4 13L4 11L3 11L3 13L2 13L2 11L1 11L1 9L2 9L2 10L4 10L4 8L3 8L3 9L2 9L2 8L1 8L1 9L0 9L0 12L1 12L1 13L0 13L0 18L1 18L1 20L0 20L0 21L1 21L1 22L0 22L0 23L2 23L2 22L4 22L4 21L5 21L5 22L6 22L6 23L7 23L7 22L8 22L8 24L6 24L6 25L8 25L8 26L6 26L6 27L7 27L7 28L4 28L4 27L3 27L3 26L2 26L2 27L1 27L1 26L0 26L0 27L1 27L1 28L0 28L0 29L7 29L7 28L8 28L8 32L9 32L9 33L8 33L8 34L9 34L9 35L8 35L8 36L10 36L10 37L14 37L14 35L15 35L15 37L16 37L16 34L18 34L18 33L17 33L17 31L16 31L16 32L15 32L15 30L14 30L14 32L13 32L13 30L12 30L12 31L10 31L10 30L11 30L11 29L14 29L14 28L15 28L15 29L17 29L17 30L18 30L18 28L20 28L20 29L19 29L19 30L20 30L20 32L19 32L19 31L18 31L18 32L19 32L19 36L18 36L18 37L19 37L19 36L22 36L22 37L25 37L25 33L26 33L26 34L27 34L27 35L26 35L26 36L27 36L27 35L28 35L28 37L34 37L34 35L33 35L33 34L34 34L34 32L35 32L35 31L33 31L33 28L32 28L32 26L30 26L30 27L29 27L29 26L28 26L28 25L29 25L29 24L30 24L30 25L33 25L33 23L36 23L36 24L35 24L35 25L36 25L36 26L35 26L35 27L34 27L34 28L36 28L36 29L35 29L35 30L36 30L36 31L37 31L37 25L36 25L36 24L37 24L37 23L36 23L36 21L37 21L37 20L36 20L36 19L37 19L37 16L36 16L36 15L37 15L37 12L36 12L36 14L35 14L35 12L34 12L34 9L35 9L35 8L33 8L33 9L32 9L32 8L29 8L29 5L28 5L28 4L29 4L29 0L27 0L27 1L26 1L26 0L25 0L25 4L26 4L26 5L27 5L27 6L26 6L26 7L25 7L25 6L24 6L24 5L23 5L23 6L22 6L22 7L21 7L21 4L19 4L19 0L16 0L16 1L17 1L17 3L16 3L16 2L15 2L15 3L14 3L14 1L15 1L15 0L14 0L14 1L12 1L12 0ZM20 0L20 3L21 3L21 0ZM22 0L22 4L23 4L23 0ZM26 2L26 3L27 3L27 2ZM13 6L13 7L14 7L14 6ZM17 6L17 7L18 7L18 6ZM19 6L19 7L20 7L20 6ZM23 6L23 10L21 10L21 8L18 8L18 9L20 9L20 10L21 10L21 11L23 11L23 13L22 13L22 14L24 14L24 15L23 15L23 16L20 16L20 19L24 19L24 22L23 22L23 21L21 21L21 20L20 20L20 21L21 21L21 22L20 22L20 24L21 24L21 23L23 23L23 25L20 25L20 28L21 28L21 29L20 29L20 30L22 30L22 31L21 31L21 33L20 33L20 35L23 35L23 32L26 32L26 33L28 33L28 32L26 32L26 31L27 31L27 30L28 30L28 29L27 29L27 28L28 28L28 27L27 27L27 28L23 28L23 26L24 26L24 24L25 24L25 25L26 25L26 24L27 24L27 23L28 23L28 24L29 24L29 23L30 23L30 24L31 24L31 23L30 23L30 21L29 21L29 20L30 20L30 18L29 18L29 20L26 20L26 18L25 18L25 17L26 17L26 16L27 16L27 19L28 19L28 17L30 17L30 16L32 16L32 17L33 17L33 18L35 18L35 19L36 19L36 18L35 18L35 17L34 17L34 16L35 16L35 15L33 15L33 10L32 10L32 9L30 9L30 10L29 10L29 8L28 8L28 6L27 6L27 7L26 7L26 8L25 8L25 10L24 10L24 6ZM10 8L10 10L11 10L11 11L10 11L10 12L11 12L11 11L12 11L12 10L14 10L14 8ZM16 8L16 9L17 9L17 8ZM26 8L26 9L27 9L27 10L25 10L25 11L24 11L24 14L26 14L26 13L27 13L27 14L31 14L31 15L32 15L32 13L31 13L31 11L32 11L32 10L30 10L30 12L28 12L28 11L29 11L29 10L28 10L28 9L27 9L27 8ZM36 8L36 11L37 11L37 8ZM11 9L11 10L12 10L12 9ZM8 10L8 11L9 11L9 10ZM27 10L27 11L26 11L26 12L27 12L27 13L28 13L28 12L27 12L27 11L28 11L28 10ZM6 11L6 12L7 12L7 11ZM1 13L1 16L2 16L2 13ZM3 13L3 15L4 15L4 16L3 16L3 17L1 17L1 18L3 18L3 21L4 21L4 18L5 18L5 14L4 14L4 13ZM10 14L10 15L11 15L11 16L12 16L12 15L11 15L11 14ZM6 15L6 16L7 16L7 15ZM25 15L25 16L26 16L26 15ZM27 15L27 16L28 16L28 15ZM6 17L6 18L7 18L7 17ZM18 17L18 19L16 19L16 22L15 22L15 19L14 19L14 21L13 21L13 22L12 22L12 21L9 21L9 20L8 20L8 22L9 22L9 23L10 23L10 22L11 22L11 24L10 24L10 25L11 25L11 24L12 24L12 25L13 25L13 26L15 26L15 27L16 27L16 28L18 28L18 27L17 27L17 26L19 26L19 24L18 24L18 25L16 25L16 24L17 24L17 23L18 23L18 22L17 22L17 20L18 20L18 19L19 19L19 17ZM21 17L21 18L23 18L23 17ZM31 18L31 22L32 22L32 23L33 23L33 21L32 21L32 18ZM5 19L5 20L7 20L7 19ZM34 20L34 22L35 22L35 21L36 21L36 20ZM6 21L6 22L7 22L7 21ZM25 21L25 24L26 24L26 23L27 23L27 21ZM13 22L13 25L15 25L15 26L16 26L16 25L15 25L15 24L16 24L16 23L17 23L17 22L16 22L16 23L15 23L15 22ZM28 22L28 23L29 23L29 22ZM3 23L3 25L5 25L5 23ZM0 24L0 25L1 25L1 24ZM8 26L8 28L10 28L10 26ZM21 26L21 27L22 27L22 26ZM25 26L25 27L26 27L26 26ZM2 27L2 28L3 28L3 27ZM11 27L11 28L14 28L14 27ZM30 27L30 28L31 28L31 27ZM22 28L22 29L23 29L23 30L24 30L24 31L25 31L25 30L24 30L24 29L23 29L23 28ZM26 29L26 30L27 30L27 29ZM29 29L29 32L32 32L32 29ZM30 30L30 31L31 31L31 30ZM22 31L22 32L23 32L23 31ZM10 32L10 33L11 33L11 34L10 34L10 36L11 36L11 35L12 35L12 34L13 34L13 32ZM14 33L14 34L15 34L15 33ZM21 33L21 34L22 34L22 33ZM30 33L30 35L29 35L29 34L28 34L28 35L29 35L29 36L30 36L30 35L31 35L31 34L32 34L32 33ZM35 33L35 34L36 34L36 35L37 35L37 33ZM32 35L32 36L33 36L33 35ZM35 36L35 37L37 37L37 36ZM0 0L0 7L7 7L7 0ZM1 1L1 6L6 6L6 1ZM2 2L2 5L5 5L5 2ZM30 0L30 7L37 7L37 0ZM31 1L31 6L36 6L36 1ZM32 2L32 5L35 5L35 2ZM0 30L0 37L7 37L7 30ZM1 31L1 36L6 36L6 31ZM2 32L2 35L5 35L5 32Z" fill="#000000"/></g></g></svg>
