<?xml version="1.0" encoding="UTF-8"?>
<svg xmlns="http://www.w3.org/2000/svg" version="1.1" width="300" height="300" viewBox="0 0 300 300"><rect x="0" y="0" width="300" height="300" fill="#ffffff"/><g transform="scale(8.108)"><g transform="translate(0,0)"><path fill-rule="evenodd" d="M8 0L8 2L9 2L9 4L12 4L12 3L13 3L13 5L12 5L12 7L11 7L11 5L9 5L9 6L8 6L8 7L9 7L9 8L6 8L6 9L8 9L8 10L6 10L6 11L7 11L7 12L4 12L4 13L7 13L7 14L6 14L6 15L8 15L8 14L10 14L10 15L11 15L11 14L12 14L12 18L11 18L11 17L10 17L10 16L8 16L8 18L9 18L9 19L7 19L7 18L6 18L6 17L7 17L7 16L5 16L5 14L3 14L3 13L2 13L2 14L3 14L3 15L2 15L2 16L0 16L0 19L1 19L1 20L0 20L0 29L1 29L1 25L2 25L2 24L4 24L4 23L5 23L5 25L3 25L3 26L2 26L2 28L3 28L3 29L4 29L4 28L3 28L3 27L4 27L4 26L5 26L5 25L7 25L7 26L6 26L6 27L5 27L5 29L7 29L7 28L9 28L9 29L8 29L8 31L9 31L9 29L11 29L11 32L10 32L10 33L9 33L9 35L8 35L8 36L10 36L10 37L11 37L11 36L12 36L12 35L13 35L13 33L11 33L11 32L12 32L12 30L13 30L13 31L14 31L14 30L13 30L13 29L15 29L15 28L13 28L13 27L14 27L14 26L13 26L13 27L11 27L11 28L9 28L9 27L10 27L10 26L12 26L12 25L13 25L13 24L11 24L11 23L13 23L13 22L15 22L15 21L16 21L16 22L17 22L17 23L18 23L18 24L16 24L16 23L15 23L15 24L14 24L14 25L15 25L15 24L16 24L16 26L15 26L15 27L16 27L16 28L17 28L17 29L16 29L16 31L15 31L15 32L14 32L14 35L15 35L15 36L14 36L14 37L16 37L16 36L17 36L17 37L20 37L20 36L19 36L19 35L18 35L18 34L19 34L19 33L18 33L18 30L19 30L19 29L20 29L20 35L22 35L22 36L21 36L21 37L23 37L23 36L24 36L24 37L26 37L26 35L27 35L27 37L33 37L33 36L32 36L32 34L31 34L31 33L34 33L34 34L33 34L33 35L35 35L35 33L36 33L36 32L37 32L37 30L36 30L36 29L37 29L37 28L36 28L36 27L37 27L37 26L36 26L36 25L33 25L33 24L32 24L32 23L31 23L31 22L30 22L30 21L32 21L32 22L33 22L33 23L36 23L36 22L37 22L37 18L36 18L36 17L37 17L37 14L34 14L34 17L33 17L33 15L32 15L32 14L31 14L31 15L30 15L30 13L31 13L31 12L33 12L33 10L32 10L32 9L30 9L30 8L26 8L26 7L27 7L27 5L26 5L26 4L25 4L25 3L26 3L26 2L27 2L27 4L28 4L28 5L29 5L29 3L28 3L28 2L27 2L27 1L24 1L24 0L17 0L17 1L16 1L16 3L15 3L15 0L13 0L13 2L11 2L11 0L10 0L10 1L9 1L9 0ZM28 0L28 1L29 1L29 0ZM18 1L18 2L19 2L19 3L16 3L16 4L17 4L17 5L15 5L15 4L14 4L14 5L13 5L13 7L12 7L12 9L14 9L14 10L13 10L13 11L12 11L12 10L11 10L11 9L10 9L10 8L9 8L9 10L8 10L8 13L10 13L10 11L12 11L12 14L13 14L13 16L14 16L14 17L13 17L13 18L12 18L12 19L13 19L13 20L15 20L15 19L13 19L13 18L16 18L16 19L21 19L21 20L20 20L20 21L23 21L23 22L22 22L22 23L21 23L21 25L20 25L20 26L19 26L19 28L20 28L20 29L21 29L21 27L22 27L22 26L21 26L21 25L22 25L22 23L23 23L23 24L24 24L24 25L25 25L25 24L26 24L26 23L27 23L27 20L28 20L28 19L30 19L30 20L29 20L29 21L30 21L30 20L33 20L33 21L34 21L34 20L36 20L36 19L35 19L35 17L34 17L34 19L30 19L30 18L33 18L33 17L32 17L32 15L31 15L31 17L30 17L30 16L29 16L29 15L25 15L25 14L29 14L29 13L26 13L26 11L27 11L27 12L30 12L30 11L32 11L32 10L30 10L30 9L29 9L29 11L27 11L27 10L28 10L28 9L27 9L27 10L26 10L26 8L25 8L25 7L26 7L26 6L25 6L25 7L24 7L24 6L23 6L23 7L22 7L22 6L21 6L21 5L20 5L20 4L21 4L21 3L20 3L20 1ZM21 1L21 2L22 2L22 1ZM13 2L13 3L14 3L14 2ZM24 2L24 3L25 3L25 2ZM19 3L19 4L18 4L18 5L19 5L19 6L18 6L18 7L17 7L17 6L16 6L16 7L15 7L15 6L14 6L14 7L13 7L13 8L14 8L14 9L15 9L15 8L16 8L16 9L19 9L19 10L17 10L17 12L18 12L18 13L16 13L16 10L14 10L14 11L13 11L13 14L15 14L15 15L16 15L16 17L17 17L17 18L19 18L19 16L20 16L20 18L21 18L21 17L22 17L22 20L23 20L23 19L24 19L24 20L25 20L25 19L26 19L26 20L27 20L27 19L28 19L28 17L29 17L29 18L30 18L30 17L29 17L29 16L27 16L27 18L25 18L25 17L26 17L26 16L25 16L25 15L24 15L24 16L25 16L25 17L24 17L24 18L23 18L23 17L22 17L22 16L21 16L21 15L22 15L22 14L25 14L25 13L24 13L24 12L25 12L25 10L24 10L24 9L25 9L25 8L24 8L24 7L23 7L23 10L24 10L24 12L23 12L23 11L22 11L22 10L21 10L21 9L19 9L19 8L18 8L18 7L19 7L19 6L20 6L20 7L21 7L21 6L20 6L20 5L19 5L19 4L20 4L20 3ZM23 4L23 5L25 5L25 4ZM9 6L9 7L10 7L10 6ZM28 6L28 7L29 7L29 6ZM14 7L14 8L15 8L15 7ZM1 8L1 9L0 9L0 11L1 11L1 10L2 10L2 12L3 12L3 11L5 11L5 9L4 9L4 10L2 10L2 8ZM35 8L35 9L34 9L34 10L35 10L35 12L34 12L34 13L36 13L36 12L37 12L37 10L35 10L35 9L37 9L37 8ZM9 10L9 11L10 11L10 10ZM20 10L20 11L21 11L21 12L22 12L22 11L21 11L21 10ZM14 11L14 12L15 12L15 11ZM18 11L18 12L19 12L19 11ZM0 13L0 14L1 14L1 13ZM15 13L15 14L16 14L16 15L17 15L17 17L18 17L18 16L19 16L19 15L20 15L20 13L18 13L18 14L16 14L16 13ZM21 13L21 14L22 14L22 13ZM35 15L35 16L36 16L36 15ZM2 16L2 18L1 18L1 19L2 19L2 18L3 18L3 17L4 17L4 19L3 19L3 20L1 20L1 21L4 21L4 22L1 22L1 23L4 23L4 22L5 22L5 21L6 21L6 22L7 22L7 23L6 23L6 24L9 24L9 26L7 26L7 27L6 27L6 28L7 28L7 27L9 27L9 26L10 26L10 24L9 24L9 23L10 23L10 22L9 22L9 21L12 21L12 22L13 22L13 21L12 21L12 20L11 20L11 19L9 19L9 20L8 20L8 21L6 21L6 20L7 20L7 19L6 19L6 18L5 18L5 16ZM9 17L9 18L10 18L10 17ZM24 18L24 19L25 19L25 18ZM4 19L4 21L5 21L5 20L6 20L6 19ZM16 20L16 21L17 21L17 22L18 22L18 23L19 23L19 24L18 24L18 25L19 25L19 24L20 24L20 23L19 23L19 20ZM24 21L24 22L25 22L25 21ZM35 21L35 22L36 22L36 21ZM8 22L8 23L9 23L9 22ZM29 22L29 23L30 23L30 22ZM24 23L24 24L25 24L25 23ZM31 24L31 26L32 26L32 27L30 27L30 26L28 26L28 25L27 25L27 27L26 27L26 26L23 26L23 29L22 29L22 30L21 30L21 31L22 31L22 32L23 32L23 34L22 34L22 33L21 33L21 34L22 34L22 35L23 35L23 34L25 34L25 33L24 33L24 32L26 32L26 34L28 34L28 35L29 35L29 36L31 36L31 34L30 34L30 33L27 33L27 32L26 32L26 31L28 31L28 28L29 28L29 27L30 27L30 28L32 28L32 27L33 27L33 25L32 25L32 24ZM20 26L20 27L21 27L21 26ZM35 26L35 27L34 27L34 29L33 29L33 30L35 30L35 29L36 29L36 28L35 28L35 27L36 27L36 26ZM24 27L24 28L25 28L25 29L23 29L23 32L24 32L24 30L25 30L25 31L26 31L26 30L27 30L27 29L26 29L26 28L25 28L25 27ZM27 27L27 28L28 28L28 27ZM11 28L11 29L12 29L12 28ZM29 29L29 32L32 32L32 29ZM30 30L30 31L31 31L31 30ZM16 31L16 32L15 32L15 34L16 34L16 35L17 35L17 34L16 34L16 33L17 33L17 31ZM34 31L34 32L35 32L35 31ZM10 33L10 35L12 35L12 34L11 34L11 33ZM29 34L29 35L30 35L30 34ZM36 34L36 37L37 37L37 34ZM24 35L24 36L25 36L25 35ZM0 0L0 7L7 7L7 0ZM1 1L1 6L6 6L6 1ZM2 2L2 5L5 5L5 2ZM30 0L30 7L37 7L37 0ZM31 1L31 6L36 6L36 1ZM32 2L32 5L35 5L35 2ZM0 30L0 37L7 37L7 30ZM1 31L1 36L6 36L6 31ZM2 32L2 35L5 35L5 32Z" fill="#000000"/></g></g></svg>
