<?xml version="1.0" encoding="UTF-8"?>
<svg xmlns="http://www.w3.org/2000/svg" version="1.1" width="300" height="300" viewBox="0 0 300 300"><rect x="0" y="0" width="300" height="300" fill="#ffffff"/><g transform="scale(8.108)"><g transform="translate(0,0)"><path fill-rule="evenodd" d="M9 0L9 2L8 2L8 3L9 3L9 2L10 2L10 4L11 4L11 1L12 1L12 0L11 0L11 1L10 1L10 0ZM16 0L16 1L13 1L13 2L14 2L14 3L18 3L18 2L20 2L20 3L19 3L19 4L20 4L20 3L23 3L23 2L24 2L24 3L26 3L26 5L29 5L29 2L27 2L27 3L26 3L26 2L25 2L25 1L23 1L23 2L20 2L20 1L22 1L22 0ZM27 0L27 1L28 1L28 0ZM16 1L16 2L17 2L17 1ZM12 3L12 4L13 4L13 3ZM27 3L27 4L28 4L28 3ZM8 4L8 7L9 7L9 8L8 8L8 10L9 10L9 8L10 8L10 9L11 9L11 11L13 11L13 9L14 9L14 7L15 7L15 9L16 9L16 10L15 10L15 11L14 11L14 12L12 12L12 13L13 13L13 14L12 14L12 15L14 15L14 14L15 14L15 16L11 16L11 17L9 17L9 18L8 18L8 16L6 16L6 15L7 15L7 14L5 14L5 15L3 15L3 16L5 16L5 17L3 17L3 19L4 19L4 20L2 20L2 18L1 18L1 15L0 15L0 19L1 19L1 20L0 20L0 22L1 22L1 20L2 20L2 22L4 22L4 20L5 20L5 23L4 23L4 24L3 24L3 23L1 23L1 24L0 24L0 26L2 26L2 27L3 27L3 28L0 28L0 29L4 29L4 28L5 28L5 27L7 27L7 28L6 28L6 29L7 29L7 28L8 28L8 30L9 30L9 28L10 28L10 25L11 25L11 23L12 23L12 24L13 24L13 23L12 23L12 21L13 21L13 20L14 20L14 22L16 22L16 23L17 23L17 22L19 22L19 24L18 24L18 25L16 25L16 24L14 24L14 25L13 25L13 26L14 26L14 27L13 27L13 28L14 28L14 27L15 27L15 29L14 29L14 31L12 31L12 32L14 32L14 33L11 33L11 31L9 31L9 32L8 32L8 33L9 33L9 35L8 35L8 36L9 36L9 37L10 37L10 36L11 36L11 37L12 37L12 36L13 36L13 37L20 37L20 36L19 36L19 35L17 35L17 33L18 33L18 34L20 34L20 35L21 35L21 36L22 36L22 35L23 35L23 34L21 34L21 33L20 33L20 31L21 31L21 30L22 30L22 29L23 29L23 31L22 31L22 33L25 33L25 32L24 32L24 31L25 31L25 29L23 29L23 27L24 27L24 26L25 26L25 25L27 25L27 23L28 23L28 24L29 24L29 23L30 23L30 22L29 22L29 21L31 21L31 22L32 22L32 23L33 23L33 24L32 24L32 25L31 25L31 24L30 24L30 25L28 25L28 27L29 27L29 28L27 28L27 26L26 26L26 29L28 29L28 34L27 34L27 33L26 33L26 34L25 34L25 35L24 35L24 36L23 36L23 37L26 37L26 35L29 35L29 36L30 36L30 37L31 37L31 35L32 35L32 33L36 33L36 32L35 32L35 31L36 31L36 29L37 29L37 28L36 28L36 29L35 29L35 30L34 30L34 29L33 29L33 28L31 28L31 27L32 27L32 26L33 26L33 27L34 27L34 26L35 26L35 25L36 25L36 24L37 24L37 20L36 20L36 19L32 19L32 18L33 18L33 17L37 17L37 16L36 16L36 15L33 15L33 13L34 13L34 12L35 12L35 11L36 11L36 13L37 13L37 11L36 11L36 9L35 9L35 8L34 8L34 9L35 9L35 10L34 10L34 11L33 11L33 10L32 10L32 11L31 11L31 9L33 9L33 8L31 8L31 9L30 9L30 8L28 8L28 7L29 7L29 6L28 6L28 7L27 7L27 6L26 6L26 7L25 7L25 5L21 5L21 6L20 6L20 5L19 5L19 6L18 6L18 7L17 7L17 5L18 5L18 4L16 4L16 7L15 7L15 4L14 4L14 5L13 5L13 6L12 6L12 5L10 5L10 7L9 7L9 4ZM11 6L11 7L10 7L10 8L11 8L11 9L13 9L13 8L12 8L12 6ZM13 6L13 7L14 7L14 6ZM19 6L19 8L18 8L18 9L17 9L17 12L18 12L18 11L19 11L19 10L18 10L18 9L19 9L19 8L21 8L21 7L22 7L22 6L21 6L21 7L20 7L20 6ZM23 6L23 8L24 8L24 6ZM26 7L26 9L27 9L27 10L25 10L25 9L24 9L24 10L25 10L25 11L24 11L24 12L23 12L23 11L22 11L22 12L21 12L21 10L23 10L23 9L21 9L21 10L20 10L20 12L21 12L21 14L22 14L22 13L26 13L26 11L27 11L27 10L28 10L28 11L29 11L29 12L27 12L27 14L29 14L29 15L28 15L28 16L27 16L27 17L28 17L28 18L29 18L29 19L31 19L31 21L33 21L33 20L32 20L32 19L31 19L31 17L30 17L30 16L32 16L32 17L33 17L33 15L30 15L30 14L31 14L31 13L33 13L33 12L31 12L31 11L29 11L29 10L30 10L30 9L28 9L28 8L27 8L27 7ZM1 8L1 9L2 9L2 8ZM4 8L4 9L5 9L5 10L6 10L6 11L7 11L7 10L6 10L6 9L7 9L7 8L6 8L6 9L5 9L5 8ZM1 10L1 11L2 11L2 12L4 12L4 13L8 13L8 15L9 15L9 16L10 16L10 15L9 15L9 14L11 14L11 12L10 12L10 11L8 11L8 12L4 12L4 10ZM15 11L15 12L14 12L14 13L15 13L15 14L16 14L16 15L17 15L17 13L16 13L16 11ZM0 12L0 13L1 13L1 12ZM8 12L8 13L9 13L9 12ZM30 12L30 13L29 13L29 14L30 14L30 13L31 13L31 12ZM18 13L18 14L19 14L19 15L20 15L20 18L21 18L21 19L23 19L23 18L24 18L24 17L26 17L26 15L25 15L25 14L24 14L24 15L25 15L25 16L23 16L23 15L22 15L22 16L21 16L21 15L20 15L20 14L19 14L19 13ZM15 16L15 17L14 17L14 18L16 18L16 17L17 17L17 19L15 19L15 21L16 21L16 22L17 22L17 21L20 21L20 22L21 22L21 23L23 23L23 22L24 22L24 21L25 21L25 20L26 20L26 19L27 19L27 18L25 18L25 19L24 19L24 20L22 20L22 21L20 21L20 20L17 20L17 19L19 19L19 18L18 18L18 16ZM28 16L28 17L29 17L29 18L30 18L30 17L29 17L29 16ZM6 17L6 18L4 18L4 19L5 19L5 20L7 20L7 21L6 21L6 22L7 22L7 21L8 21L8 22L10 22L10 23L11 23L11 22L10 22L10 21L12 21L12 20L13 20L13 19L11 19L11 18L12 18L12 17L11 17L11 18L10 18L10 19L9 19L9 20L7 20L7 19L6 19L6 18L7 18L7 17ZM22 17L22 18L23 18L23 17ZM9 20L9 21L10 21L10 20ZM28 20L28 21L29 21L29 20ZM26 21L26 22L25 22L25 23L24 23L24 24L23 24L23 25L22 25L22 26L21 26L21 27L20 27L20 25L21 25L21 24L20 24L20 25L19 25L19 26L18 26L18 27L17 27L17 26L16 26L16 25L15 25L15 26L16 26L16 27L17 27L17 29L15 29L15 30L16 30L16 32L15 32L15 33L17 33L17 32L18 32L18 33L19 33L19 32L18 32L18 31L17 31L17 29L18 29L18 30L19 30L19 31L20 31L20 29L22 29L22 27L23 27L23 25L25 25L25 24L26 24L26 23L27 23L27 21ZM34 21L34 22L33 22L33 23L34 23L34 22L35 22L35 23L36 23L36 21ZM28 22L28 23L29 23L29 22ZM5 23L5 24L7 24L7 23ZM9 24L9 25L6 25L6 26L7 26L7 27L8 27L8 28L9 28L9 27L8 27L8 26L9 26L9 25L10 25L10 24ZM4 25L4 27L5 27L5 25ZM29 26L29 27L31 27L31 26ZM18 27L18 29L20 29L20 28L19 28L19 27ZM10 29L10 30L11 30L11 29ZM12 29L12 30L13 30L13 29ZM29 29L29 32L32 32L32 29ZM26 30L26 32L27 32L27 30ZM30 30L30 31L31 31L31 30ZM33 30L33 31L34 31L34 30ZM29 33L29 35L30 35L30 33ZM12 34L12 35L11 35L11 36L12 36L12 35L14 35L14 36L16 36L16 35L15 35L15 34ZM33 34L33 36L32 36L32 37L37 37L37 36L36 36L36 34ZM0 0L0 7L7 7L7 0ZM1 1L1 6L6 6L6 1ZM2 2L2 5L5 5L5 2ZM30 0L30 7L37 7L37 0ZM31 1L31 6L36 6L36 1ZM32 2L32 5L35 5L35 2ZM0 30L0 37L7 37L7 30ZM1 31L1 36L6 36L6 31ZM2 32L2 35L5 35L5 32Z" fill="#000000"/></g></g></svg>
