<?xml version="1.0" encoding="UTF-8"?>
<svg xmlns="http://www.w3.org/2000/svg" version="1.1" width="300" height="300" viewBox="0 0 300 300"><rect x="0" y="0" width="300" height="300" fill="#ffffff"/><g transform="scale(8.108)"><g transform="translate(0,0)"><path fill-rule="evenodd" d="M11 0L11 1L12 1L12 0ZM13 0L13 2L15 2L15 3L16 3L16 4L17 4L17 3L16 3L16 2L18 2L18 1L19 1L19 2L20 2L20 3L19 3L19 5L18 5L18 7L17 7L17 5L16 5L16 7L15 7L15 4L14 4L14 3L12 3L12 5L11 5L11 4L10 4L10 3L11 3L11 2L10 2L10 3L9 3L9 2L8 2L8 3L9 3L9 4L8 4L8 7L9 7L9 4L10 4L10 5L11 5L11 6L10 6L10 7L11 7L11 6L12 6L12 7L13 7L13 8L12 8L12 9L14 9L14 7L15 7L15 9L16 9L16 10L14 10L14 11L13 11L13 10L11 10L11 9L10 9L10 10L11 10L11 11L9 11L9 8L8 8L8 9L7 9L7 8L6 8L6 9L5 9L5 8L4 8L4 9L5 9L5 10L6 10L6 11L7 11L7 10L8 10L8 12L5 12L5 11L4 11L4 10L2 10L2 11L1 11L1 9L2 9L2 8L1 8L1 9L0 9L0 11L1 11L1 12L0 12L0 14L1 14L1 15L2 15L2 16L1 16L1 18L0 18L0 19L1 19L1 20L0 20L0 22L1 22L1 20L2 20L2 19L4 19L4 21L3 21L3 23L1 23L1 24L0 24L0 26L2 26L2 27L3 27L3 28L0 28L0 29L3 29L3 28L6 28L6 29L7 29L7 28L8 28L8 30L9 30L9 29L10 29L10 28L9 28L9 27L10 27L10 26L11 26L11 29L12 29L12 28L13 28L13 27L12 27L12 26L13 26L13 24L12 24L12 23L13 23L13 22L11 22L11 21L10 21L10 19L9 19L9 18L11 18L11 19L13 19L13 17L14 17L14 18L15 18L15 19L14 19L14 21L15 21L15 22L18 22L18 23L15 23L15 24L14 24L14 26L15 26L15 28L14 28L14 32L13 32L13 31L12 31L12 32L13 32L13 33L11 33L11 31L9 31L9 32L8 32L8 33L9 33L9 35L8 35L8 36L9 36L9 37L13 37L13 36L15 36L15 35L16 35L16 36L17 36L17 37L20 37L20 36L17 36L17 34L16 34L16 33L18 33L18 34L20 34L20 35L21 35L21 36L22 36L22 35L23 35L23 34L21 34L21 33L20 33L20 31L19 31L19 30L22 30L22 29L23 29L23 31L22 31L22 33L23 33L23 32L24 32L24 33L25 33L25 32L24 32L24 29L25 29L25 27L24 27L24 26L25 26L25 25L27 25L27 24L28 24L28 23L30 23L30 22L29 22L29 21L32 21L32 22L33 22L33 21L36 21L36 23L35 23L35 22L34 22L34 23L33 23L33 24L32 24L32 25L31 25L31 24L30 24L30 25L28 25L28 27L30 27L30 26L31 26L31 27L32 27L32 26L33 26L33 27L34 27L34 26L35 26L35 27L36 27L36 24L37 24L37 20L36 20L36 17L37 17L37 16L36 16L36 15L34 15L34 17L32 17L32 15L33 15L33 14L34 14L34 12L35 12L35 10L34 10L34 11L33 11L33 10L32 10L32 11L31 11L31 12L30 12L30 13L29 13L29 14L30 14L30 15L31 15L31 16L30 16L30 17L29 17L29 15L28 15L28 14L27 14L27 12L29 12L29 11L30 11L30 10L31 10L31 9L33 9L33 8L31 8L31 9L30 9L30 8L28 8L28 7L29 7L29 6L28 6L28 7L27 7L27 6L26 6L26 7L25 7L25 5L23 5L23 3L22 3L22 2L20 2L20 1L21 1L21 0L15 0L15 1L14 1L14 0ZM27 0L27 1L28 1L28 2L27 2L27 3L26 3L26 2L25 2L25 1L23 1L23 2L24 2L24 3L26 3L26 5L28 5L28 2L29 2L29 1L28 1L28 0ZM20 3L20 4L21 4L21 7L22 7L22 8L24 8L24 9L25 9L25 8L24 8L24 6L23 6L23 7L22 7L22 3ZM13 4L13 5L14 5L14 4ZM13 6L13 7L14 7L14 6ZM19 6L19 7L20 7L20 6ZM16 7L16 8L17 8L17 7ZM26 7L26 9L27 9L27 10L28 10L28 11L29 11L29 10L30 10L30 9L28 9L28 8L27 8L27 7ZM18 8L18 10L17 10L17 12L18 12L18 13L19 13L19 15L20 15L20 16L19 16L19 17L20 17L20 18L21 18L21 19L22 19L22 21L21 21L21 20L18 20L18 19L19 19L19 18L18 18L18 19L16 19L16 20L15 20L15 21L19 21L19 22L20 22L20 23L22 23L22 22L24 22L24 21L25 21L25 20L26 20L26 19L27 19L27 18L25 18L25 19L24 19L24 20L23 20L23 19L22 19L22 17L23 17L23 18L24 18L24 17L26 17L26 14L25 14L25 13L26 13L26 12L27 12L27 11L25 11L25 13L24 13L24 11L22 11L22 12L21 12L21 10L23 10L23 9L21 9L21 8L20 8L20 9L19 9L19 8ZM34 8L34 9L35 9L35 8ZM6 9L6 10L7 10L7 9ZM12 11L12 12L11 12L11 13L13 13L13 14L14 14L14 15L15 15L15 14L14 14L14 13L16 13L16 11L14 11L14 13L13 13L13 11ZM36 11L36 13L37 13L37 11ZM1 12L1 14L2 14L2 15L5 15L5 14L8 14L8 15L10 15L10 16L7 16L7 15L6 15L6 16L7 16L7 17L6 17L6 18L7 18L7 17L8 17L8 18L9 18L9 17L11 17L11 18L12 18L12 17L11 17L11 15L12 15L12 16L13 16L13 15L12 15L12 14L9 14L9 13L10 13L10 12L9 12L9 13L5 13L5 12ZM31 12L31 13L30 13L30 14L31 14L31 15L32 15L32 14L31 14L31 13L33 13L33 12ZM20 13L20 14L21 14L21 16L22 16L22 15L24 15L24 13L22 13L22 14L21 14L21 13ZM2 16L2 18L1 18L1 19L2 19L2 18L5 18L5 16ZM15 16L15 17L16 17L16 18L17 18L17 17L18 17L18 16ZM27 16L27 17L28 17L28 18L29 18L29 20L27 20L27 21L26 21L26 22L25 22L25 23L24 23L24 24L22 24L22 25L25 25L25 24L26 24L26 23L27 23L27 21L29 21L29 20L30 20L30 19L31 19L31 20L32 20L32 21L33 21L33 19L34 19L34 18L35 18L35 17L34 17L34 18L33 18L33 19L31 19L31 17L30 17L30 18L29 18L29 17L28 17L28 16ZM5 19L5 20L7 20L7 21L6 21L6 22L5 22L5 21L4 21L4 23L5 23L5 24L4 24L4 25L5 25L5 27L6 27L6 28L7 28L7 27L8 27L8 26L7 26L7 25L9 25L9 26L10 26L10 23L11 23L11 22L10 22L10 23L9 23L9 22L8 22L8 21L9 21L9 20L7 20L7 19ZM6 22L6 23L7 23L7 24L6 24L6 25L7 25L7 24L8 24L8 23L7 23L7 22ZM18 23L18 24L16 24L16 25L15 25L15 26L16 26L16 27L18 27L18 30L19 30L19 29L20 29L20 28L21 28L21 29L22 29L22 27L23 27L23 29L24 29L24 27L23 27L23 26L21 26L21 27L19 27L19 26L20 26L20 25L18 25L18 24L19 24L19 23ZM11 24L11 25L12 25L12 24ZM16 25L16 26L17 26L17 25ZM6 26L6 27L7 27L7 26ZM26 26L26 29L27 29L27 30L26 30L26 32L28 32L28 33L29 33L29 34L28 34L28 35L29 35L29 36L30 36L30 37L37 37L37 36L36 36L36 34L35 34L35 35L32 35L32 33L33 33L33 34L34 34L34 33L36 33L36 32L35 32L35 31L36 31L36 29L35 29L35 31L34 31L34 30L33 30L33 28L27 28L27 26ZM16 29L16 30L15 30L15 31L16 31L16 30L17 30L17 29ZM29 29L29 32L32 32L32 29ZM27 30L27 31L28 31L28 30ZM30 30L30 31L31 31L31 30ZM17 31L17 32L18 32L18 33L19 33L19 32L18 32L18 31ZM14 33L14 34L12 34L12 35L11 35L11 34L10 34L10 35L9 35L9 36L12 36L12 35L14 35L14 34L15 34L15 33ZM26 33L26 34L25 34L25 35L24 35L24 36L23 36L23 37L26 37L26 35L27 35L27 33ZM31 35L31 36L32 36L32 35ZM0 0L0 7L7 7L7 0ZM1 1L1 6L6 6L6 1ZM2 2L2 5L5 5L5 2ZM30 0L30 7L37 7L37 0ZM31 1L31 6L36 6L36 1ZM32 2L32 5L35 5L35 2ZM0 30L0 37L7 37L7 30ZM1 31L1 36L6 36L6 31ZM2 32L2 35L5 35L5 32Z" fill="#000000"/></g></g></svg>
