<?xml version="1.0" encoding="UTF-8"?>
<svg xmlns="http://www.w3.org/2000/svg" version="1.1" width="300" height="300" viewBox="0 0 300 300"><rect x="0" y="0" width="300" height="300" fill="#ffffff"/><g transform="scale(8.108)"><g transform="translate(0,0)"><path fill-rule="evenodd" d="M8 0L8 1L9 1L9 0ZM11 0L11 1L10 1L10 3L9 3L9 4L8 4L8 7L9 7L9 8L11 8L11 9L10 9L10 11L11 11L11 13L10 13L10 15L9 15L9 11L8 11L8 12L6 12L6 13L5 13L5 12L4 12L4 11L7 11L7 10L9 10L9 9L8 9L8 8L1 8L1 11L2 11L2 12L1 12L1 13L0 13L0 15L1 15L1 16L3 16L3 15L5 15L5 14L6 14L6 15L7 15L7 16L5 16L5 18L4 18L4 20L3 20L3 18L2 18L2 17L0 17L0 29L1 29L1 24L2 24L2 25L3 25L3 24L4 24L4 23L5 23L5 22L4 22L4 21L7 21L7 22L6 22L6 23L7 23L7 24L6 24L6 25L7 25L7 24L9 24L9 22L11 22L11 23L12 23L12 24L10 24L10 25L9 25L9 28L6 28L6 27L8 27L8 26L6 26L6 27L4 27L4 26L5 26L5 25L4 25L4 26L2 26L2 27L3 27L3 29L4 29L4 28L5 28L5 29L8 29L8 36L9 36L9 37L10 37L10 36L11 36L11 37L16 37L16 35L18 35L18 36L19 36L19 35L18 35L18 34L19 34L19 33L21 33L21 34L20 34L20 35L21 35L21 36L20 36L20 37L22 37L22 36L23 36L23 37L25 37L25 36L26 36L26 37L28 37L28 36L29 36L29 37L31 37L31 35L32 35L32 36L34 36L34 37L37 37L37 34L36 34L36 36L34 36L34 35L35 35L35 34L34 34L34 33L36 33L36 32L37 32L37 30L36 30L36 29L37 29L37 28L36 28L36 27L37 27L37 26L36 26L36 24L33 24L33 25L34 25L34 26L33 26L33 27L34 27L34 28L29 28L29 27L28 27L28 29L26 29L26 28L27 28L27 26L30 26L30 27L32 27L32 26L31 26L31 25L32 25L32 23L33 23L33 22L34 22L34 21L36 21L36 22L35 22L35 23L36 23L36 22L37 22L37 18L36 18L36 17L37 17L37 14L36 14L36 13L37 13L37 10L35 10L35 12L36 12L36 13L35 13L35 14L34 14L34 15L35 15L35 14L36 14L36 16L32 16L32 13L33 13L33 12L34 12L34 11L33 11L33 10L34 10L34 9L33 9L33 8L31 8L31 9L30 9L30 10L28 10L28 9L29 9L29 8L26 8L26 7L27 7L27 6L28 6L28 7L29 7L29 5L26 5L26 4L29 4L29 2L28 2L28 1L27 1L27 0L25 0L25 1L22 1L22 0L21 0L21 1L20 1L20 3L19 3L19 0L18 0L18 1L17 1L17 0L13 0L13 2L11 2L11 1L12 1L12 0ZM14 1L14 5L12 5L12 6L11 6L11 4L10 4L10 5L9 5L9 7L10 7L10 6L11 6L11 8L12 8L12 9L11 9L11 10L13 10L13 9L14 9L14 8L15 8L15 7L16 7L16 8L17 8L17 9L19 9L19 11L18 11L18 12L17 12L17 10L16 10L16 11L12 11L12 13L13 13L13 12L14 12L14 13L15 13L15 12L17 12L17 13L16 13L16 14L15 14L15 16L17 16L17 17L18 17L18 16L19 16L19 14L21 14L21 13L19 13L19 11L20 11L20 12L21 12L21 11L20 11L20 9L23 9L23 7L24 7L24 9L26 9L26 10L22 10L22 11L24 11L24 12L22 12L22 13L25 13L25 15L24 15L24 14L22 14L22 15L23 15L23 16L22 16L22 17L23 17L23 18L21 18L21 19L23 19L23 20L21 20L21 21L20 21L20 22L19 22L19 20L18 20L18 22L17 22L17 21L14 21L14 22L13 22L13 20L10 20L10 21L12 21L12 22L13 22L13 24L12 24L12 25L10 25L10 28L9 28L9 29L11 29L11 30L12 30L12 29L14 29L14 30L13 30L13 32L11 32L11 31L10 31L10 30L9 30L9 31L10 31L10 32L9 32L9 33L10 33L10 32L11 32L11 33L13 33L13 35L12 35L12 34L9 34L9 35L12 35L12 36L13 36L13 35L14 35L14 36L15 36L15 35L16 35L16 34L17 34L17 33L16 33L16 32L17 32L17 31L18 31L18 33L19 33L19 30L21 30L21 32L23 32L23 33L22 33L22 35L23 35L23 34L25 34L25 33L24 33L24 32L26 32L26 30L25 30L25 29L24 29L24 28L23 28L23 27L24 27L24 26L23 26L23 27L22 27L22 25L27 25L27 24L28 24L28 25L30 25L30 24L28 24L28 23L30 23L30 22L31 22L31 23L32 23L32 22L33 22L33 21L27 21L27 20L26 20L26 19L27 19L27 18L29 18L29 19L28 19L28 20L32 20L32 19L33 19L33 20L36 20L36 18L35 18L35 17L34 17L34 18L33 18L33 17L32 17L32 16L31 16L31 17L27 17L27 15L26 15L26 14L27 14L27 12L26 12L26 11L27 11L27 9L26 9L26 8L25 8L25 7L26 7L26 6L25 6L25 7L24 7L24 6L23 6L23 7L22 7L22 5L21 5L21 7L20 7L20 6L19 6L19 7L20 7L20 9L19 9L19 8L17 8L17 7L18 7L18 5L20 5L20 4L23 4L23 5L25 5L25 4L26 4L26 3L28 3L28 2L26 2L26 3L25 3L25 2L24 2L24 3L25 3L25 4L23 4L23 2L22 2L22 3L20 3L20 4L18 4L18 3L16 3L16 1ZM12 3L12 4L13 4L13 3ZM15 3L15 4L16 4L16 3ZM15 5L15 6L14 6L14 7L13 7L13 6L12 6L12 7L13 7L13 8L14 8L14 7L15 7L15 6L16 6L16 7L17 7L17 5ZM21 7L21 8L22 8L22 7ZM36 8L36 9L37 9L37 8ZM5 9L5 10L7 10L7 9ZM31 10L31 11L28 11L28 15L29 15L29 13L30 13L30 15L31 15L31 13L32 13L32 12L31 12L31 11L32 11L32 10ZM25 12L25 13L26 13L26 12ZM30 12L30 13L31 13L31 12ZM1 13L1 15L2 15L2 13ZM3 13L3 14L5 14L5 13ZM6 13L6 14L7 14L7 13ZM17 13L17 14L16 14L16 15L17 15L17 14L18 14L18 13ZM12 14L12 16L10 16L10 17L9 17L9 18L10 18L10 17L11 17L11 19L13 19L13 18L14 18L14 17L13 17L13 18L12 18L12 16L14 16L14 15L13 15L13 14ZM8 15L8 16L9 16L9 15ZM20 15L20 16L21 16L21 15ZM25 16L25 17L24 17L24 18L25 18L25 17L26 17L26 16ZM6 17L6 18L5 18L5 20L7 20L7 19L6 19L6 18L8 18L8 17ZM15 17L15 18L16 18L16 19L14 19L14 20L17 20L17 18L16 18L16 17ZM19 17L19 18L18 18L18 19L19 19L19 18L20 18L20 17ZM30 18L30 19L31 19L31 18ZM1 19L1 20L2 20L2 19ZM24 19L24 20L25 20L25 19ZM8 20L8 22L9 22L9 20ZM1 21L1 23L2 23L2 24L3 24L3 23L4 23L4 22L3 22L3 23L2 23L2 21ZM21 21L21 22L20 22L20 23L21 23L21 24L20 24L20 25L16 25L16 24L15 24L15 26L12 26L12 27L11 27L11 28L12 28L12 27L13 27L13 28L14 28L14 27L15 27L15 28L16 28L16 31L14 31L14 32L16 32L16 31L17 31L17 30L19 30L19 29L18 29L18 27L17 27L17 26L20 26L20 27L19 27L19 28L21 28L21 29L23 29L23 30L22 30L22 31L23 31L23 32L24 32L24 31L25 31L25 30L24 30L24 29L23 29L23 28L21 28L21 26L20 26L20 25L21 25L21 24L23 24L23 22L22 22L22 21ZM24 21L24 22L25 22L25 21ZM26 21L26 22L27 22L27 23L26 23L26 24L27 24L27 23L28 23L28 22L27 22L27 21ZM15 22L15 23L16 23L16 22ZM18 22L18 24L19 24L19 22ZM24 23L24 24L25 24L25 23ZM13 24L13 25L14 25L14 24ZM25 26L25 28L26 28L26 26ZM35 26L35 27L36 27L36 26ZM16 27L16 28L17 28L17 27ZM34 28L34 29L33 29L33 30L35 30L35 31L33 31L33 32L35 32L35 31L36 31L36 30L35 30L35 29L36 29L36 28ZM29 29L29 32L32 32L32 29ZM23 30L23 31L24 31L24 30ZM27 30L27 32L28 32L28 30ZM30 30L30 31L31 31L31 30ZM15 33L15 34L16 34L16 33ZM26 33L26 34L28 34L28 35L26 35L26 36L28 36L28 35L29 35L29 36L30 36L30 35L31 35L31 34L32 34L32 35L34 35L34 34L32 34L32 33L31 33L31 34L29 34L29 33ZM24 35L24 36L25 36L25 35ZM0 0L0 7L7 7L7 0ZM1 1L1 6L6 6L6 1ZM2 2L2 5L5 5L5 2ZM30 0L30 7L37 7L37 0ZM31 1L31 6L36 6L36 1ZM32 2L32 5L35 5L35 2ZM0 30L0 37L7 37L7 30ZM1 31L1 36L6 36L6 31ZM2 32L2 35L5 35L5 32Z" fill="#000000"/></g></g></svg>
