<?xml version="1.0" encoding="UTF-8"?>
<svg xmlns="http://www.w3.org/2000/svg" version="1.1" width="300" height="300" viewBox="0 0 300 300"><rect x="0" y="0" width="300" height="300" fill="#ffffff"/><g transform="scale(8.108)"><g transform="translate(0,0)"><path fill-rule="evenodd" d="M11 0L11 1L10 1L10 3L9 3L9 2L8 2L8 3L9 3L9 4L8 4L8 7L9 7L9 5L13 5L13 6L12 6L12 7L13 7L13 8L8 8L8 12L4 12L4 10L2 10L2 12L4 12L4 13L3 13L3 14L2 14L2 13L1 13L1 9L2 9L2 8L1 8L1 9L0 9L0 13L1 13L1 14L0 14L0 15L4 15L4 16L5 16L5 17L4 17L4 18L3 18L3 16L0 16L0 18L1 18L1 17L2 17L2 20L4 20L4 22L5 22L5 25L4 25L4 23L3 23L3 21L2 21L2 23L1 23L1 24L0 24L0 26L2 26L2 27L3 27L3 28L0 28L0 29L3 29L3 28L5 28L5 27L7 27L7 26L6 26L6 25L7 25L7 24L6 24L6 23L8 23L8 24L9 24L9 25L10 25L10 26L9 26L9 27L11 27L11 28L6 28L6 29L8 29L8 30L9 30L9 29L11 29L11 31L9 31L9 32L8 32L8 33L10 33L10 35L8 35L8 36L9 36L9 37L10 37L10 35L12 35L12 36L11 36L11 37L13 37L13 35L15 35L15 36L14 36L14 37L15 37L15 36L17 36L17 35L18 35L18 34L20 34L20 35L21 35L21 36L22 36L22 35L23 35L23 34L21 34L21 33L18 33L18 32L19 32L19 31L21 31L21 30L22 30L22 29L23 29L23 31L22 31L22 33L23 33L23 32L24 32L24 33L25 33L25 31L24 31L24 30L25 30L25 29L23 29L23 27L24 27L24 28L25 28L25 27L24 27L24 26L25 26L25 25L27 25L27 24L28 24L28 23L30 23L30 21L31 21L31 23L32 23L32 25L31 25L31 24L30 24L30 25L28 25L28 27L30 27L30 26L31 26L31 27L32 27L32 26L33 26L33 27L34 27L34 26L35 26L35 25L36 25L36 24L37 24L37 20L36 20L36 17L37 17L37 16L36 16L36 15L34 15L34 14L33 14L33 13L34 13L34 12L35 12L35 13L37 13L37 11L36 11L36 9L35 9L35 8L34 8L34 9L35 9L35 10L34 10L34 11L33 11L33 10L32 10L32 11L31 11L31 12L30 12L30 11L28 11L28 10L27 10L27 9L30 9L30 10L31 10L31 9L33 9L33 8L31 8L31 9L30 9L30 8L29 8L29 6L28 6L28 7L27 7L27 6L26 6L26 7L25 7L25 5L23 5L23 2L24 2L24 3L26 3L26 5L28 5L28 2L27 2L27 3L26 3L26 2L25 2L25 1L21 1L21 0L15 0L15 1L16 1L16 2L14 2L14 5L13 5L13 4L11 4L11 1L12 1L12 0ZM13 0L13 1L14 1L14 0ZM27 0L27 1L28 1L28 0ZM18 1L18 2L19 2L19 3L17 3L17 2L16 2L16 3L17 3L17 7L18 7L18 9L17 9L17 11L18 11L18 12L16 12L16 11L15 11L15 10L16 10L16 5L15 5L15 7L14 7L14 6L13 6L13 7L14 7L14 9L12 9L12 10L14 10L14 11L15 11L15 12L13 12L13 13L12 13L12 15L11 15L11 9L9 9L9 12L8 12L8 13L6 13L6 14L7 14L7 15L6 15L6 16L8 16L8 18L9 18L9 17L11 17L11 18L10 18L10 19L9 19L9 21L10 21L10 22L8 22L8 23L12 23L12 22L11 22L11 21L12 21L12 20L13 20L13 26L14 26L14 24L15 24L15 23L16 23L16 22L15 22L15 21L14 21L14 20L13 20L13 19L14 19L14 18L17 18L17 17L18 17L18 16L17 16L17 17L16 17L16 15L17 15L17 13L18 13L18 14L19 14L19 17L20 17L20 18L21 18L21 17L23 17L23 18L24 18L24 17L26 17L26 16L27 16L27 17L28 17L28 20L27 20L27 21L26 21L26 22L25 22L25 23L24 23L24 24L22 24L22 25L25 25L25 24L26 24L26 23L27 23L27 21L28 21L28 22L29 22L29 21L30 21L30 19L32 19L32 20L31 20L31 21L34 21L34 22L32 22L32 23L34 23L34 22L35 22L35 23L36 23L36 21L34 21L34 18L35 18L35 17L34 17L34 15L33 15L33 14L31 14L31 13L33 13L33 12L31 12L31 13L29 13L29 12L27 12L27 14L26 14L26 11L25 11L25 13L24 13L24 11L22 11L22 12L20 12L20 13L21 13L21 14L19 14L19 13L18 13L18 12L19 12L19 11L18 11L18 10L20 10L20 11L21 11L21 10L23 10L23 9L21 9L21 7L22 7L22 8L24 8L24 6L23 6L23 7L22 7L22 3L21 3L21 4L19 4L19 3L20 3L20 2L21 2L21 1L20 1L20 2L19 2L19 1ZM20 5L20 7L21 7L21 5ZM10 6L10 7L11 7L11 6ZM18 6L18 7L19 7L19 6ZM26 7L26 9L27 9L27 7ZM4 8L4 9L5 9L5 10L6 10L6 11L7 11L7 10L6 10L6 9L7 9L7 8L6 8L6 9L5 9L5 8ZM19 8L19 9L20 9L20 10L21 10L21 9L20 9L20 8ZM24 9L24 10L25 10L25 9ZM9 12L9 14L10 14L10 12ZM4 13L4 15L5 15L5 13ZM15 13L15 14L16 14L16 13ZM22 13L22 14L21 14L21 16L22 16L22 15L23 15L23 17L24 17L24 15L25 15L25 14L24 14L24 13ZM27 14L27 16L28 16L28 17L31 17L31 18L32 18L32 19L33 19L33 17L32 17L32 15L31 15L31 14L30 14L30 15L31 15L31 16L28 16L28 15L29 15L29 14ZM9 15L9 16L10 16L10 15ZM12 15L12 18L11 18L11 19L10 19L10 21L11 21L11 19L13 19L13 18L14 18L14 17L13 17L13 15ZM14 15L14 16L15 16L15 15ZM6 17L6 18L7 18L7 17ZM18 18L18 19L17 19L17 20L18 20L18 21L17 21L17 22L18 22L18 24L20 24L20 26L16 26L16 25L17 25L17 24L16 24L16 25L15 25L15 26L16 26L16 27L17 27L17 29L15 29L15 28L14 28L14 27L13 27L13 29L12 29L12 28L11 28L11 29L12 29L12 30L13 30L13 32L12 32L12 33L13 33L13 34L12 34L12 35L13 35L13 34L14 34L14 33L15 33L15 35L17 35L17 34L16 34L16 33L17 33L17 32L18 32L18 31L17 31L17 29L18 29L18 30L19 30L19 29L18 29L18 28L20 28L20 26L21 26L21 29L22 29L22 27L23 27L23 26L21 26L21 24L20 24L20 23L21 23L21 22L22 22L22 23L23 23L23 22L24 22L24 21L25 21L25 20L26 20L26 19L27 19L27 18L25 18L25 19L24 19L24 20L23 20L23 19L22 19L22 21L21 21L21 20L19 20L19 18ZM29 18L29 19L30 19L30 18ZM0 19L0 20L1 20L1 19ZM4 19L4 20L5 20L5 22L7 22L7 21L8 21L8 20L7 20L7 19ZM6 20L6 21L7 21L7 20ZM28 20L28 21L29 21L29 20ZM0 21L0 22L1 22L1 21ZM19 21L19 23L20 23L20 21ZM10 24L10 25L11 25L11 27L12 27L12 24ZM4 26L4 27L5 27L5 26ZM26 26L26 29L28 29L28 33L29 33L29 37L31 37L31 36L32 36L32 37L37 37L37 36L36 36L36 34L34 34L34 35L33 35L33 36L32 36L32 33L36 33L36 32L35 32L35 31L36 31L36 29L37 29L37 27L36 27L36 29L35 29L35 31L33 31L33 28L27 28L27 26ZM13 29L13 30L14 30L14 29ZM29 29L29 32L32 32L32 29ZM15 30L15 31L14 31L14 32L16 32L16 30ZM26 30L26 33L27 33L27 30ZM30 30L30 31L31 31L31 30ZM25 34L25 35L24 35L24 36L23 36L23 37L26 37L26 35L27 35L27 37L28 37L28 34ZM30 35L30 36L31 36L31 35ZM18 36L18 37L20 37L20 36ZM0 0L0 7L7 7L7 0ZM1 1L1 6L6 6L6 1ZM2 2L2 5L5 5L5 2ZM30 0L30 7L37 7L37 0ZM31 1L31 6L36 6L36 1ZM32 2L32 5L35 5L35 2ZM0 30L0 37L7 37L7 30ZM1 31L1 36L6 36L6 31ZM2 32L2 35L5 35L5 32Z" fill="#000000"/></g></g></svg>
