<?xml version="1.0" encoding="UTF-8"?>
<svg xmlns="http://www.w3.org/2000/svg" version="1.1" width="300" height="300" viewBox="0 0 300 300"><rect x="0" y="0" width="300" height="300" fill="#ffffff"/><g transform="scale(8.108)"><g transform="translate(0,0)"><path fill-rule="evenodd" d="M9 0L9 1L8 1L8 2L10 2L10 4L9 4L9 3L8 3L8 5L10 5L10 4L12 4L12 7L11 7L11 6L10 6L10 7L11 7L11 8L9 8L9 6L8 6L8 9L7 9L7 8L3 8L3 9L5 9L5 11L4 11L4 10L3 10L3 11L2 11L2 12L1 12L1 13L0 13L0 19L1 19L1 20L0 20L0 29L1 29L1 27L2 27L2 29L7 29L7 28L6 28L6 27L7 27L7 26L8 26L8 28L9 28L9 29L8 29L8 30L9 30L9 29L10 29L10 30L11 30L11 31L13 31L13 30L12 30L12 27L11 27L11 29L10 29L10 26L15 26L15 27L14 27L14 28L15 28L15 27L16 27L16 29L15 29L15 30L14 30L14 31L17 31L17 34L18 34L18 35L16 35L16 32L14 32L14 33L11 33L11 35L13 35L13 36L12 36L12 37L13 37L13 36L15 36L15 37L16 37L16 36L17 36L17 37L20 37L20 36L19 36L19 33L20 33L20 34L21 34L21 35L22 35L22 34L23 34L23 33L22 33L22 31L21 31L21 30L23 30L23 31L24 31L24 33L25 33L25 34L24 34L24 35L25 35L25 36L24 36L24 37L26 37L26 34L27 34L27 37L29 37L29 36L30 36L30 37L32 37L32 36L31 36L31 35L33 35L33 34L35 34L35 35L34 35L34 36L36 36L36 37L37 37L37 34L35 34L35 33L36 33L36 32L37 32L37 30L35 30L35 29L37 29L37 28L36 28L36 27L37 27L37 26L35 26L35 25L33 25L33 24L32 24L32 25L31 25L31 23L32 23L32 22L33 22L33 21L34 21L34 24L36 24L36 23L35 23L35 21L36 21L36 22L37 22L37 18L35 18L35 15L36 15L36 17L37 17L37 14L35 14L35 12L36 12L36 13L37 13L37 12L36 12L36 11L37 11L37 10L36 10L36 8L35 8L35 9L34 9L34 8L32 8L32 9L31 9L31 8L29 8L29 5L28 5L28 7L27 7L27 4L25 4L25 3L24 3L24 2L25 2L25 1L24 1L24 0L17 0L17 1L16 1L16 2L19 2L19 3L18 3L18 4L19 4L19 5L20 5L20 7L19 7L19 6L18 6L18 5L15 5L15 6L14 6L14 8L12 8L12 7L13 7L13 5L14 5L14 4L15 4L15 1L13 1L13 2L10 2L10 1L11 1L11 0ZM26 0L26 1L27 1L27 0ZM20 1L20 2L22 2L22 3L23 3L23 2L22 2L22 1ZM28 1L28 2L27 2L27 3L29 3L29 1ZM13 2L13 3L12 3L12 4L13 4L13 3L14 3L14 2ZM20 3L20 5L21 5L21 8L19 8L19 7L18 7L18 6L17 6L17 7L16 7L16 6L15 6L15 7L16 7L16 9L13 9L13 10L12 10L12 11L11 11L11 9L9 9L9 11L8 11L8 12L7 12L7 11L6 11L6 12L5 12L5 13L4 13L4 14L2 14L2 13L3 13L3 12L4 12L4 11L3 11L3 12L2 12L2 13L1 13L1 14L2 14L2 15L5 15L5 16L3 16L3 17L1 17L1 18L3 18L3 19L2 19L2 20L1 20L1 21L2 21L2 22L1 22L1 23L4 23L4 24L2 24L2 25L4 25L4 24L7 24L7 25L5 25L5 26L7 26L7 25L8 25L8 23L9 23L9 24L10 24L10 25L9 25L9 26L10 26L10 25L14 25L14 24L15 24L15 26L16 26L16 27L17 27L17 26L20 26L20 25L19 25L19 24L21 24L21 25L22 25L22 23L23 23L23 22L24 22L24 23L25 23L25 24L24 24L24 25L25 25L25 26L27 26L27 27L24 27L24 26L21 26L21 27L20 27L20 29L18 29L18 28L17 28L17 30L18 30L18 33L19 33L19 32L21 32L21 31L20 31L20 29L21 29L21 27L24 27L24 28L26 28L26 32L25 32L25 33L26 33L26 32L28 32L28 30L27 30L27 29L28 29L28 28L32 28L32 27L33 27L33 26L31 26L31 27L30 27L30 26L29 26L29 27L28 27L28 23L29 23L29 24L30 24L30 23L29 23L29 21L30 21L30 22L32 22L32 20L33 20L33 19L32 19L32 18L34 18L34 21L35 21L35 20L36 20L36 19L35 19L35 18L34 18L34 17L33 17L33 16L31 16L31 17L30 17L30 16L29 16L29 14L30 14L30 15L31 15L31 13L33 13L33 15L34 15L34 11L35 11L35 10L34 10L34 9L32 9L32 10L31 10L31 11L33 11L33 12L31 12L31 13L30 13L30 12L29 12L29 13L27 13L27 14L28 14L28 19L26 19L26 21L25 21L25 20L24 20L24 19L25 19L25 18L27 18L27 17L25 17L25 16L27 16L27 15L25 15L25 14L23 14L23 15L21 15L21 16L20 16L20 17L19 17L19 18L17 18L17 19L16 19L16 20L15 20L15 18L14 18L14 17L16 17L16 16L19 16L19 14L22 14L22 13L20 13L20 12L24 12L24 13L26 13L26 11L27 11L27 12L28 12L28 11L27 11L27 10L28 10L28 9L29 9L29 10L30 10L30 9L29 9L29 8L28 8L28 9L27 9L27 10L26 10L26 9L24 9L24 11L23 11L23 9L22 9L22 5L21 5L21 3ZM24 4L24 5L23 5L23 7L24 7L24 8L26 8L26 6L25 6L25 7L24 7L24 5L25 5L25 4ZM17 7L17 8L18 8L18 9L19 9L19 10L17 10L17 11L16 11L16 10L13 10L13 11L12 11L12 12L14 12L14 11L15 11L15 15L14 15L14 14L13 14L13 13L12 13L12 14L11 14L11 15L12 15L12 14L13 14L13 16L11 16L11 20L10 20L10 16L9 16L9 14L10 14L10 13L11 13L11 11L10 11L10 12L8 12L8 14L6 14L6 15L7 15L7 16L6 16L6 17L8 17L8 18L9 18L9 20L8 20L8 21L9 21L9 20L10 20L10 21L11 21L11 20L13 20L13 21L12 21L12 22L11 22L11 24L13 24L13 23L12 23L12 22L14 22L14 23L16 23L16 22L17 22L17 24L16 24L16 26L17 26L17 25L18 25L18 24L19 24L19 23L20 23L20 22L19 22L19 21L18 21L18 20L17 20L17 21L16 21L16 22L14 22L14 20L13 20L13 19L14 19L14 18L13 18L13 16L16 16L16 14L18 14L18 13L19 13L19 10L20 10L20 11L22 11L22 10L20 10L20 9L19 9L19 8L18 8L18 7ZM1 8L1 9L0 9L0 10L2 10L2 8ZM6 9L6 10L7 10L7 9ZM25 10L25 11L24 11L24 12L25 12L25 11L26 11L26 10ZM6 12L6 13L7 13L7 12ZM17 12L17 13L18 13L18 12ZM23 15L23 18L22 18L22 22L21 22L21 23L22 23L22 22L23 22L23 19L24 19L24 18L25 18L25 17L24 17L24 16L25 16L25 15ZM8 16L8 17L9 17L9 16ZM21 16L21 17L20 17L20 18L21 18L21 17L22 17L22 16ZM3 17L3 18L4 18L4 17ZM29 17L29 18L30 18L30 19L29 19L29 20L28 20L28 21L27 21L27 22L26 22L26 24L25 24L25 25L27 25L27 23L28 23L28 21L29 21L29 20L30 20L30 21L31 21L31 20L32 20L32 19L31 19L31 18L30 18L30 17ZM6 18L6 19L7 19L7 18ZM12 18L12 19L13 19L13 18ZM2 20L2 21L3 21L3 20ZM5 20L5 21L7 21L7 20ZM20 20L20 21L21 21L21 20ZM17 21L17 22L18 22L18 21ZM24 21L24 22L25 22L25 21ZM5 22L5 23L7 23L7 22ZM34 26L34 29L33 29L33 31L34 31L34 33L35 33L35 30L34 30L34 29L35 29L35 26ZM3 27L3 28L4 28L4 27ZM27 27L27 28L28 28L28 27ZM23 29L23 30L24 30L24 31L25 31L25 29ZM29 29L29 32L32 32L32 29ZM30 30L30 31L31 31L31 30ZM8 31L8 34L9 34L9 35L8 35L8 36L9 36L9 37L10 37L10 36L9 36L9 35L10 35L10 34L9 34L9 31ZM14 33L14 35L15 35L15 36L16 36L16 35L15 35L15 33ZM21 33L21 34L22 34L22 33ZM29 33L29 34L28 34L28 36L29 36L29 35L31 35L31 34L33 34L33 33L31 33L31 34L30 34L30 33ZM21 36L21 37L23 37L23 36ZM0 0L0 7L7 7L7 0ZM1 1L1 6L6 6L6 1ZM2 2L2 5L5 5L5 2ZM30 0L30 7L37 7L37 0ZM31 1L31 6L36 6L36 1ZM32 2L32 5L35 5L35 2ZM0 30L0 37L7 37L7 30ZM1 31L1 36L6 36L6 31ZM2 32L2 35L5 35L5 32Z" fill="#000000"/></g></g></svg>
