<?xml version="1.0" encoding="UTF-8"?>
<svg xmlns="http://www.w3.org/2000/svg" version="1.1" width="300" height="300" viewBox="0 0 300 300"><rect x="0" y="0" width="300" height="300" fill="#ffffff"/><g transform="scale(6.122)"><g transform="translate(0,0)"><path fill-rule="evenodd" d="M8 0L8 1L10 1L10 2L9 2L9 3L11 3L11 4L8 4L8 7L9 7L9 5L10 5L10 8L11 8L11 9L12 9L12 10L10 10L10 12L8 12L8 11L9 11L9 10L5 10L5 11L7 11L7 12L6 12L6 13L5 13L5 14L4 14L4 15L5 15L5 16L6 16L6 17L5 17L5 18L4 18L4 19L3 19L3 18L1 18L1 19L0 19L0 20L1 20L1 21L0 21L0 26L1 26L1 24L2 24L2 25L3 25L3 26L4 26L4 27L5 27L5 28L4 28L4 30L5 30L5 29L7 29L7 30L6 30L6 31L5 31L5 32L4 32L4 34L3 34L3 35L2 35L2 34L1 34L1 33L2 33L2 32L3 32L3 31L0 31L0 32L1 32L1 33L0 33L0 37L2 37L2 36L3 36L3 38L4 38L4 37L5 37L5 39L7 39L7 40L6 40L6 41L8 41L8 48L9 48L9 49L10 49L10 48L11 48L11 49L12 49L12 48L11 48L11 47L10 47L10 45L11 45L11 43L12 43L12 42L13 42L13 43L14 43L14 41L15 41L15 40L16 40L16 38L15 38L15 37L16 37L16 36L15 36L15 37L14 37L14 34L11 34L11 33L10 33L10 32L13 32L13 33L15 33L15 35L17 35L17 36L18 36L18 35L20 35L20 38L19 38L19 39L21 39L21 37L22 37L22 35L23 35L23 36L24 36L24 37L26 37L26 38L24 38L24 39L22 39L22 40L21 40L21 41L20 41L20 42L19 42L19 41L18 41L18 37L17 37L17 42L18 42L18 43L17 43L17 44L18 44L18 45L17 45L17 46L16 46L16 47L15 47L15 45L16 45L16 42L15 42L15 45L14 45L14 44L13 44L13 45L12 45L12 46L14 46L14 48L15 48L15 49L18 49L18 46L19 46L19 47L21 47L21 48L20 48L20 49L21 49L21 48L22 48L22 46L23 46L23 45L27 45L27 44L29 44L29 45L28 45L28 46L27 46L27 49L28 49L28 48L29 48L29 49L30 49L30 47L28 47L28 46L31 46L31 47L32 47L32 48L31 48L31 49L32 49L32 48L33 48L33 49L34 49L34 47L37 47L37 48L35 48L35 49L38 49L38 48L39 48L39 49L40 49L40 48L39 48L39 47L40 47L40 46L38 46L38 45L42 45L42 46L41 46L41 47L42 47L42 48L41 48L41 49L42 49L42 48L43 48L43 47L44 47L44 48L45 48L45 49L49 49L49 45L48 45L48 44L46 44L46 46L45 46L45 43L46 43L46 42L45 42L45 41L46 41L46 40L47 40L47 41L48 41L48 40L47 40L47 39L49 39L49 38L47 38L47 36L48 36L48 37L49 37L49 34L45 34L45 35L44 35L44 34L42 34L42 33L41 33L41 32L42 32L42 31L44 31L44 30L43 30L43 29L44 29L44 27L45 27L45 25L47 25L47 26L46 26L46 27L47 27L47 28L46 28L46 31L45 31L45 32L43 32L43 33L45 33L45 32L46 32L46 33L47 33L47 32L46 32L46 31L47 31L47 30L48 30L48 31L49 31L49 30L48 30L48 29L49 29L49 26L48 26L48 25L47 25L47 24L48 24L48 23L49 23L49 22L47 22L47 20L48 20L48 21L49 21L49 18L47 18L47 17L48 17L48 16L47 16L47 17L46 17L46 15L49 15L49 14L46 14L46 13L48 13L48 12L46 12L46 11L47 11L47 10L46 10L46 9L45 9L45 8L43 8L43 9L41 9L41 8L39 8L39 9L41 9L41 10L44 10L44 9L45 9L45 11L44 11L44 12L39 12L39 10L37 10L37 11L38 11L38 12L39 12L39 14L38 14L38 15L39 15L39 17L40 17L40 18L39 18L39 19L38 19L38 18L36 18L36 17L38 17L38 16L36 16L36 17L35 17L35 18L36 18L36 19L37 19L37 20L36 20L36 21L35 21L35 22L33 22L33 21L32 21L32 22L31 22L31 20L30 20L30 19L32 19L32 20L34 20L34 19L32 19L32 18L34 18L34 17L32 17L32 18L31 18L31 16L34 16L34 15L37 15L37 12L33 12L33 10L34 10L34 11L36 11L36 10L34 10L34 9L33 9L33 8L30 8L30 10L31 10L31 11L30 11L30 13L29 13L29 12L26 12L26 10L25 10L25 9L28 9L28 10L27 10L27 11L29 11L29 9L28 9L28 8L29 8L29 6L30 6L30 7L31 7L31 6L30 6L30 5L32 5L32 4L30 4L30 2L29 2L29 5L27 5L27 4L28 4L28 1L31 1L31 2L32 2L32 3L33 3L33 4L37 4L37 6L36 6L36 8L35 8L35 5L33 5L33 6L32 6L32 7L33 7L33 6L34 6L34 8L35 8L35 9L36 9L36 8L37 8L37 9L38 9L38 8L37 8L37 6L38 6L38 7L39 7L39 5L38 5L38 3L35 3L35 2L37 2L37 1L38 1L38 2L39 2L39 4L40 4L40 3L41 3L41 0L40 0L40 1L38 1L38 0L35 0L35 1L31 1L31 0L25 0L25 2L27 2L27 3L24 3L24 0L23 0L23 2L22 2L22 1L20 1L20 2L19 2L19 0L16 0L16 1L15 1L15 0ZM12 1L12 2L11 2L11 3L12 3L12 4L13 4L13 5L12 5L12 6L11 6L11 8L14 8L14 6L15 6L15 7L16 7L16 6L17 6L17 9L18 9L18 10L19 10L19 11L18 11L18 14L19 14L19 12L20 12L20 13L21 13L21 11L22 11L22 12L23 12L23 13L24 13L24 14L23 14L23 15L22 15L22 14L20 14L20 16L21 16L21 17L20 17L20 18L18 18L18 15L17 15L17 14L15 14L15 13L17 13L17 10L16 10L16 9L13 9L13 10L14 10L14 12L15 12L15 13L14 13L14 15L11 15L11 14L12 14L12 13L13 13L13 12L12 12L12 13L11 13L11 14L10 14L10 15L11 15L11 17L9 17L9 15L8 15L8 16L7 16L7 15L6 15L6 14L9 14L9 13L6 13L6 14L5 14L5 15L6 15L6 16L7 16L7 17L6 17L6 18L7 18L7 17L8 17L8 18L10 18L10 19L9 19L9 20L10 20L10 21L9 21L9 22L10 22L10 23L11 23L11 24L13 24L13 25L9 25L9 29L8 29L8 30L9 30L9 31L12 31L12 29L14 29L14 30L15 30L15 33L16 33L16 34L17 34L17 35L18 35L18 34L19 34L19 33L20 33L20 32L21 32L21 31L19 31L19 29L20 29L20 30L21 30L21 27L20 27L20 28L18 28L18 31L17 31L17 29L16 29L16 27L19 27L19 26L20 26L20 25L19 25L19 22L20 22L20 23L22 23L22 22L21 22L21 21L24 21L24 22L25 22L25 21L27 21L27 23L28 23L28 24L27 24L27 25L28 25L28 24L29 24L29 25L30 25L30 24L29 24L29 21L28 21L28 20L29 20L29 18L30 18L30 17L28 17L28 15L29 15L29 16L30 16L30 15L31 15L31 14L27 14L27 13L26 13L26 12L23 12L23 10L21 10L21 8L20 8L20 5L21 5L21 7L22 7L22 4L23 4L23 3L22 3L22 2L21 2L21 3L22 3L22 4L19 4L19 3L17 3L17 2L18 2L18 1L16 1L16 3L17 3L17 5L16 5L16 6L15 6L15 5L14 5L14 3L15 3L15 2L14 2L14 3L12 3L12 2L13 2L13 1ZM33 2L33 3L34 3L34 2ZM13 5L13 6L12 6L12 7L13 7L13 6L14 6L14 5ZM17 5L17 6L18 6L18 7L19 7L19 6L18 6L18 5ZM23 5L23 8L26 8L26 5ZM24 6L24 7L25 7L25 6ZM27 6L27 7L28 7L28 6ZM40 6L40 7L41 7L41 6ZM1 8L1 9L0 9L0 10L1 10L1 12L4 12L4 9L8 9L8 8ZM18 8L18 9L19 9L19 10L20 10L20 11L21 11L21 10L20 10L20 8ZM48 8L48 9L49 9L49 8ZM1 9L1 10L2 10L2 11L3 11L3 9ZM31 9L31 10L32 10L32 9ZM15 10L15 11L16 11L16 10ZM48 10L48 11L49 11L49 10ZM31 12L31 13L32 13L32 15L34 15L34 14L36 14L36 13L34 13L34 14L33 14L33 12ZM44 12L44 13L46 13L46 12ZM1 13L1 14L0 14L0 16L2 16L2 15L3 15L3 14L2 14L2 13ZM25 13L25 17L23 17L23 16L24 16L24 15L23 15L23 16L22 16L22 17L23 17L23 18L25 18L25 19L28 19L28 17L27 17L27 18L25 18L25 17L26 17L26 13ZM40 13L40 14L41 14L41 15L42 15L42 16L40 16L40 17L42 17L42 18L41 18L41 21L40 21L40 19L39 19L39 21L37 21L37 23L35 23L35 24L37 24L37 26L36 26L36 25L34 25L34 23L33 23L33 22L32 22L32 23L31 23L31 22L30 22L30 23L31 23L31 24L32 24L32 25L33 25L33 28L32 28L32 27L31 27L31 26L29 26L29 28L28 28L28 26L27 26L27 28L26 28L26 29L25 29L25 27L24 27L24 28L23 28L23 27L22 27L22 30L23 30L23 29L24 29L24 30L27 30L27 28L28 28L28 31L26 31L26 32L22 32L22 34L20 34L20 35L22 35L22 34L24 34L24 33L26 33L26 34L25 34L25 36L28 36L28 37L27 37L27 38L30 38L30 40L28 40L28 39L27 39L27 40L28 40L28 42L27 42L27 43L30 43L30 42L31 42L31 41L32 41L32 43L33 43L33 44L32 44L32 47L33 47L33 46L35 46L35 44L37 44L37 43L40 43L40 41L39 41L39 42L37 42L37 43L35 43L35 42L36 42L36 40L37 40L37 41L38 41L38 40L37 40L37 39L38 39L38 38L39 38L39 36L40 36L40 37L41 37L41 39L39 39L39 40L41 40L41 39L42 39L42 40L43 40L43 39L42 39L42 38L46 38L46 37L42 37L42 36L43 36L43 35L42 35L42 34L39 34L39 32L40 32L40 31L41 31L41 30L42 30L42 29L41 29L41 28L40 28L40 27L38 27L38 26L40 26L40 25L39 25L39 23L40 23L40 22L41 22L41 21L42 21L42 18L43 18L43 14L41 14L41 13ZM1 14L1 15L2 15L2 14ZM45 14L45 15L46 15L46 14ZM3 16L3 17L4 17L4 16ZM13 16L13 17L12 17L12 18L13 18L13 19L12 19L12 20L13 20L13 19L15 19L15 18L16 18L16 19L17 19L17 20L15 20L15 21L14 21L14 22L15 22L15 21L17 21L17 20L19 20L19 21L18 21L18 22L16 22L16 23L14 23L14 25L13 25L13 26L12 26L12 27L10 27L10 29L11 29L11 28L12 28L12 27L13 27L13 28L15 28L15 27L16 27L16 24L17 24L17 23L18 23L18 22L19 22L19 21L20 21L20 20L21 20L21 19L22 19L22 20L24 20L24 19L22 19L22 18L20 18L20 20L19 20L19 19L18 19L18 18L16 18L16 17L17 17L17 16ZM44 16L44 17L45 17L45 16ZM13 17L13 18L15 18L15 17ZM46 18L46 19L45 19L45 20L44 20L44 21L43 21L43 22L46 22L46 23L45 23L45 24L47 24L47 22L46 22L46 20L47 20L47 18ZM1 19L1 20L2 20L2 21L1 21L1 23L2 23L2 24L3 24L3 25L4 25L4 24L3 24L3 22L7 22L7 21L6 21L6 20L7 20L7 19L4 19L4 21L3 21L3 19ZM10 19L10 20L11 20L11 19ZM11 21L11 23L13 23L13 21ZM39 21L39 22L38 22L38 23L37 23L37 24L38 24L38 23L39 23L39 22L40 22L40 21ZM5 23L5 26L8 26L8 23ZM23 23L23 26L26 26L26 23ZM32 23L32 24L33 24L33 23ZM41 23L41 26L44 26L44 23ZM6 24L6 25L7 25L7 24ZM24 24L24 25L25 25L25 24ZM42 24L42 25L43 25L43 24ZM14 25L14 26L15 26L15 25ZM17 25L17 26L18 26L18 25ZM21 25L21 26L22 26L22 25ZM34 26L34 27L35 27L35 30L33 30L33 32L34 32L34 33L35 33L35 34L33 34L33 35L30 35L30 34L32 34L32 33L31 33L31 32L32 32L32 28L31 28L31 27L30 27L30 28L29 28L29 30L31 30L31 32L30 32L30 31L29 31L29 33L30 33L30 34L29 34L29 35L28 35L28 34L26 34L26 35L28 35L28 36L30 36L30 38L31 38L31 40L33 40L33 41L34 41L34 42L33 42L33 43L34 43L34 44L33 44L33 45L34 45L34 44L35 44L35 43L34 43L34 42L35 42L35 40L36 40L36 39L37 39L37 38L38 38L38 36L39 36L39 34L37 34L37 33L38 33L38 32L39 32L39 31L40 31L40 30L38 30L38 29L40 29L40 28L38 28L38 29L37 29L37 28L36 28L36 26ZM47 26L47 27L48 27L48 26ZM0 27L0 28L1 28L1 29L2 29L2 30L3 30L3 29L2 29L2 27ZM6 27L6 28L8 28L8 27ZM42 27L42 28L43 28L43 27ZM30 28L30 29L31 29L31 28ZM33 28L33 29L34 29L34 28ZM35 30L35 31L34 31L34 32L35 32L35 33L36 33L36 32L35 32L35 31L36 31L36 30ZM37 30L37 32L38 32L38 30ZM6 31L6 32L7 32L7 33L6 33L6 34L5 34L5 35L3 35L3 36L5 36L5 37L6 37L6 38L7 38L7 39L8 39L8 41L9 41L9 39L11 39L11 40L10 40L10 42L9 42L9 44L10 44L10 42L11 42L11 41L13 41L13 39L14 39L14 37L13 37L13 39L12 39L12 36L11 36L11 37L10 37L10 35L11 35L11 34L9 34L9 37L8 37L8 34L7 34L7 33L9 33L9 32L7 32L7 31ZM16 32L16 33L19 33L19 32ZM27 32L27 33L28 33L28 32ZM48 32L48 33L49 33L49 32ZM6 34L6 35L5 35L5 36L6 36L6 37L7 37L7 38L8 38L8 37L7 37L7 36L6 36L6 35L7 35L7 34ZM35 34L35 35L33 35L33 36L31 36L31 38L32 38L32 39L33 39L33 40L34 40L34 39L33 39L33 38L35 38L35 36L37 36L37 35L36 35L36 34ZM40 35L40 36L41 36L41 35ZM46 35L46 36L47 36L47 35ZM33 36L33 37L32 37L32 38L33 38L33 37L34 37L34 36ZM9 37L9 38L10 38L10 37ZM1 38L1 40L0 40L0 41L3 41L3 40L4 40L4 39L2 39L2 38ZM24 39L24 40L25 40L25 39ZM44 39L44 40L46 40L46 39ZM23 41L23 44L26 44L26 41ZM29 41L29 42L30 42L30 41ZM41 41L41 44L44 44L44 41ZM20 42L20 44L19 44L19 45L20 45L20 46L21 46L21 45L22 45L22 42ZM24 42L24 43L25 43L25 42ZM42 42L42 43L43 43L43 42ZM47 42L47 43L49 43L49 42ZM20 44L20 45L21 45L21 44ZM43 45L43 46L44 46L44 47L45 47L45 48L48 48L48 47L47 47L47 46L46 46L46 47L45 47L45 46L44 46L44 45ZM24 46L24 47L23 47L23 48L24 48L24 49L25 49L25 48L26 48L26 47L25 47L25 46ZM37 46L37 47L38 47L38 46ZM24 47L24 48L25 48L25 47ZM0 0L0 7L7 7L7 0ZM1 1L1 6L6 6L6 1ZM2 2L2 5L5 5L5 2ZM42 0L42 7L49 7L49 0ZM43 1L43 6L48 6L48 1ZM44 2L44 5L47 5L47 2ZM0 42L0 49L7 49L7 42ZM1 43L1 48L6 48L6 43ZM2 44L2 47L5 47L5 44Z" fill="#000000"/></g></g></svg>
