<?xml version="1.0" encoding="UTF-8"?>
<svg xmlns="http://www.w3.org/2000/svg" version="1.1" width="300" height="300" viewBox="0 0 300 300"><rect x="0" y="0" width="300" height="300" fill="#ffffff"/><g transform="scale(8.108)"><g transform="translate(0,0)"><path fill-rule="evenodd" d="M8 0L8 1L9 1L9 2L8 2L8 4L9 4L9 5L8 5L8 8L5 8L5 9L4 9L4 8L3 8L3 9L2 9L2 8L1 8L1 9L2 9L2 10L5 10L5 11L3 11L3 12L4 12L4 13L1 13L1 14L0 14L0 15L1 15L1 16L0 16L0 17L1 17L1 18L0 18L0 19L1 19L1 22L0 22L0 23L3 23L3 24L2 24L2 25L5 25L5 26L4 26L4 27L3 27L3 26L2 26L2 27L1 27L1 26L0 26L0 27L1 27L1 28L0 28L0 29L5 29L5 26L6 26L6 27L8 27L8 32L9 32L9 33L8 33L8 34L9 34L9 35L8 35L8 36L9 36L9 37L12 37L12 36L14 36L14 37L15 37L15 35L14 35L14 34L15 34L15 32L13 32L13 34L12 34L12 35L11 35L11 36L10 36L10 34L11 34L11 33L12 33L12 31L14 31L14 30L12 30L12 29L11 29L11 30L12 30L12 31L10 31L10 28L12 28L12 27L13 27L13 28L14 28L14 27L13 27L13 26L14 26L14 25L15 25L15 26L16 26L16 25L17 25L17 26L18 26L18 27L17 27L17 28L16 28L16 27L15 27L15 29L17 29L17 30L20 30L20 31L18 31L18 32L19 32L19 36L22 36L22 37L25 37L25 33L26 33L26 34L27 34L27 35L26 35L26 36L27 36L27 35L28 35L28 37L29 37L29 35L30 35L30 37L31 37L31 36L32 36L32 37L34 37L34 35L35 35L35 34L36 34L36 35L37 35L37 33L35 33L35 34L33 34L33 33L34 33L34 32L35 32L35 30L36 30L36 31L37 31L37 29L35 29L35 30L34 30L34 29L33 29L33 28L32 28L32 26L28 26L28 25L29 25L29 24L30 24L30 25L34 25L34 23L32 23L32 21L33 21L33 22L35 22L35 23L36 23L36 24L35 24L35 25L36 25L36 26L35 26L35 27L34 27L34 28L35 28L35 27L37 27L37 25L36 25L36 24L37 24L37 23L36 23L36 21L37 21L37 20L36 20L36 19L37 19L37 16L36 16L36 15L37 15L37 8L36 8L36 14L35 14L35 12L34 12L34 9L35 9L35 8L33 8L33 9L32 9L32 8L29 8L29 10L28 10L28 9L27 9L27 8L26 8L26 7L27 7L27 6L28 6L28 7L29 7L29 6L28 6L28 4L29 4L29 0L27 0L27 1L26 1L26 0L25 0L25 4L26 4L26 5L27 5L27 6L26 6L26 7L25 7L25 6L24 6L24 5L23 5L23 4L22 4L22 5L21 5L21 6L20 6L20 7L19 7L19 6L18 6L18 10L17 10L17 9L15 9L15 8L14 8L14 7L15 7L15 5L18 5L18 4L17 4L17 3L18 3L18 2L19 2L19 0L18 0L18 2L17 2L17 0L16 0L16 1L15 1L15 0L13 0L13 1L12 1L12 0L10 0L10 1L9 1L9 0ZM20 0L20 3L21 3L21 2L22 2L22 1L23 1L23 0L22 0L22 1L21 1L21 0ZM13 1L13 2L14 2L14 1ZM9 2L9 4L10 4L10 6L9 6L9 7L10 7L10 9L9 9L9 10L8 10L8 11L9 11L9 13L6 13L6 12L7 12L7 11L5 11L5 13L6 13L6 14L8 14L8 15L6 15L6 16L8 16L8 19L9 19L9 18L10 18L10 17L11 17L11 20L12 20L12 21L11 21L11 24L12 24L12 25L10 25L10 20L9 20L9 21L8 21L8 22L7 22L7 21L2 21L2 22L3 22L3 23L5 23L5 25L6 25L6 26L7 26L7 25L6 25L6 24L8 24L8 22L9 22L9 25L8 25L8 26L10 26L10 27L9 27L9 28L10 28L10 27L11 27L11 26L13 26L13 22L15 22L15 21L16 21L16 20L17 20L17 22L16 22L16 24L15 24L15 25L16 25L16 24L17 24L17 25L18 25L18 26L20 26L20 28L19 28L19 27L18 27L18 28L17 28L17 29L18 29L18 28L19 28L19 29L20 29L20 28L21 28L21 30L22 30L22 31L20 31L20 32L21 32L21 33L20 33L20 35L23 35L23 32L26 32L26 33L28 33L28 31L27 31L27 30L26 30L26 29L27 29L27 28L28 28L28 27L27 27L27 28L25 28L25 27L26 27L26 26L24 26L24 24L25 24L25 25L26 25L26 24L27 24L27 25L28 25L28 24L29 24L29 23L30 23L30 24L32 24L32 23L30 23L30 21L29 21L29 22L28 22L28 20L26 20L26 18L25 18L25 17L26 17L26 16L25 16L25 15L27 15L27 19L29 19L29 20L33 20L33 19L32 19L32 18L31 18L31 19L30 19L30 18L29 18L29 17L30 17L30 16L32 16L32 17L33 17L33 15L34 15L34 16L35 16L35 14L34 14L34 13L33 13L33 10L32 10L32 9L30 9L30 10L29 10L29 11L28 11L28 10L27 10L27 9L26 9L26 8L24 8L24 6L23 6L23 5L22 5L22 6L21 6L21 7L20 7L20 8L19 8L19 9L20 9L20 8L21 8L21 7L22 7L22 6L23 6L23 10L20 10L20 11L23 11L23 13L22 13L22 12L19 12L19 10L18 10L18 11L17 11L17 10L13 10L13 9L14 9L14 8L13 8L13 7L14 7L14 6L13 6L13 7L12 7L12 4L13 4L13 5L15 5L15 4L16 4L16 3L17 3L17 2L15 2L15 4L14 4L14 3L12 3L12 2L11 2L11 3L10 3L10 2ZM26 2L26 3L28 3L28 2ZM19 4L19 5L20 5L20 4ZM10 6L10 7L11 7L11 9L10 9L10 10L11 10L11 11L10 11L10 12L11 12L11 13L10 13L10 14L9 14L9 15L8 15L8 16L11 16L11 15L10 15L10 14L12 14L12 15L13 15L13 14L14 14L14 16L15 16L15 14L16 14L16 13L15 13L15 12L14 12L14 11L13 11L13 10L12 10L12 7L11 7L11 6ZM16 6L16 8L17 8L17 6ZM6 9L6 10L7 10L7 9ZM25 9L25 12L24 12L24 14L22 14L22 13L20 13L20 14L19 14L19 13L18 13L18 14L17 14L17 16L18 16L18 17L15 17L15 19L14 19L14 17L13 17L13 16L12 16L12 17L13 17L13 19L14 19L14 20L13 20L13 21L15 21L15 20L16 20L16 18L18 18L18 17L19 17L19 20L18 20L18 19L17 19L17 20L18 20L18 21L20 21L20 23L21 23L21 25L23 25L23 22L24 22L24 19L23 19L23 17L24 17L24 15L25 15L25 13L27 13L27 14L28 14L28 17L29 17L29 12L30 12L30 14L31 14L31 15L32 15L32 14L31 14L31 13L32 13L32 12L30 12L30 11L29 11L29 12L28 12L28 11L26 11L26 9ZM31 10L31 11L32 11L32 10ZM0 11L0 12L1 12L1 11ZM27 12L27 13L28 13L28 12ZM1 14L1 15L4 15L4 16L2 16L2 17L5 17L5 14ZM18 14L18 15L19 15L19 16L20 16L20 19L22 19L22 20L23 20L23 19L22 19L22 18L21 18L21 17L23 17L23 16L21 16L21 15L22 15L22 14L21 14L21 15L19 15L19 14ZM6 17L6 18L3 18L3 19L2 19L2 20L5 20L5 19L6 19L6 20L7 20L7 19L6 19L6 18L7 18L7 17ZM35 18L35 19L36 19L36 18ZM20 20L20 21L21 21L21 20ZM34 20L34 21L36 21L36 20ZM22 21L22 22L21 22L21 23L22 23L22 22L23 22L23 21ZM25 21L25 24L26 24L26 23L27 23L27 21ZM6 22L6 23L7 23L7 22ZM17 22L17 23L18 23L18 24L19 24L19 25L20 25L20 24L19 24L19 22ZM0 24L0 25L1 25L1 24ZM21 26L21 27L22 27L22 26ZM23 26L23 28L22 28L22 29L23 29L23 30L24 30L24 26ZM2 27L2 28L3 28L3 27ZM30 27L30 28L31 28L31 27ZM6 28L6 29L7 29L7 28ZM29 29L29 32L32 32L32 29ZM30 30L30 31L31 31L31 30ZM16 31L16 32L17 32L17 31ZM22 31L22 32L23 32L23 31ZM26 31L26 32L27 32L27 31ZM10 32L10 33L9 33L9 34L10 34L10 33L11 33L11 32ZM21 33L21 34L22 34L22 33ZM30 33L30 35L32 35L32 36L33 36L33 35L32 35L32 34L31 34L31 33ZM16 34L16 35L17 35L17 36L18 36L18 34ZM28 34L28 35L29 35L29 34ZM35 36L35 37L37 37L37 36ZM0 0L0 7L7 7L7 0ZM1 1L1 6L6 6L6 1ZM2 2L2 5L5 5L5 2ZM30 0L30 7L37 7L37 0ZM31 1L31 6L36 6L36 1ZM32 2L32 5L35 5L35 2ZM0 30L0 37L7 37L7 30ZM1 31L1 36L6 36L6 31ZM2 32L2 35L5 35L5 32Z" fill="#000000"/></g></g></svg>
