<?xml version="1.0" encoding="UTF-8"?>
<svg xmlns="http://www.w3.org/2000/svg" version="1.1" width="300" height="300" viewBox="0 0 300 300"><rect x="0" y="0" width="300" height="300" fill="#ffffff"/><g transform="scale(8.108)"><g transform="translate(0,0)"><path fill-rule="evenodd" d="M8 0L8 1L10 1L10 3L9 3L9 2L8 2L8 4L10 4L10 8L9 8L9 5L8 5L8 8L5 8L5 9L10 9L10 8L12 8L12 9L13 9L13 8L14 8L14 10L13 10L13 12L9 12L9 11L11 11L11 10L9 10L9 11L8 11L8 10L4 10L4 8L3 8L3 9L2 9L2 8L1 8L1 9L2 9L2 10L1 10L1 12L2 12L2 10L4 10L4 11L3 11L3 12L4 12L4 11L8 11L8 12L9 12L9 13L11 13L11 15L10 15L10 14L9 14L9 16L11 16L11 17L9 17L9 19L8 19L8 13L7 13L7 12L6 12L6 13L4 13L4 14L3 14L3 13L1 13L1 14L0 14L0 15L4 15L4 14L5 14L5 17L4 17L4 18L5 18L5 19L4 19L4 20L5 20L5 19L7 19L7 20L6 20L6 21L5 21L5 22L4 22L4 23L2 23L2 22L3 22L3 21L1 21L1 20L3 20L3 16L2 16L2 18L0 18L0 19L1 19L1 20L0 20L0 21L1 21L1 22L0 22L0 23L2 23L2 25L4 25L4 26L5 26L5 27L3 27L3 26L2 26L2 27L1 27L1 26L0 26L0 27L1 27L1 28L0 28L0 29L7 29L7 28L8 28L8 32L9 32L9 33L8 33L8 34L9 34L9 35L8 35L8 36L9 36L9 37L12 37L12 36L14 36L14 37L18 37L18 36L22 36L22 37L25 37L25 33L26 33L26 34L29 34L29 35L28 35L28 37L29 37L29 35L30 35L30 37L34 37L34 35L35 35L35 34L36 34L36 35L37 35L37 33L35 33L35 34L33 34L33 33L34 33L34 32L35 32L35 30L36 30L36 31L37 31L37 28L36 28L36 27L37 27L37 25L36 25L36 24L37 24L37 23L36 23L36 21L37 21L37 20L36 20L36 19L37 19L37 16L36 16L36 15L37 15L37 8L36 8L36 9L35 9L35 8L33 8L33 9L32 9L32 8L29 8L29 10L28 10L28 9L27 9L27 8L28 8L28 7L29 7L29 5L28 5L28 4L29 4L29 2L28 2L28 1L29 1L29 0L27 0L27 1L26 1L26 0L25 0L25 4L26 4L26 5L27 5L27 6L26 6L26 7L25 7L25 6L24 6L24 5L23 5L23 4L22 4L22 5L21 5L21 6L20 6L20 5L19 5L19 6L18 6L18 4L17 4L17 5L15 5L15 1L14 1L14 0L13 0L13 1L12 1L12 0ZM16 0L16 1L19 1L19 0ZM20 0L20 4L21 4L21 2L22 2L22 3L23 3L23 0ZM11 2L11 3L10 3L10 4L12 4L12 5L14 5L14 3L12 3L12 2ZM17 2L17 3L18 3L18 2ZM26 2L26 3L27 3L27 4L28 4L28 2ZM22 5L22 6L21 6L21 7L20 7L20 6L19 6L19 7L18 7L18 6L17 6L17 7L16 7L16 6L15 6L15 7L14 7L14 6L13 6L13 7L12 7L12 6L11 6L11 7L12 7L12 8L13 8L13 7L14 7L14 8L15 8L15 9L17 9L17 10L14 10L14 13L13 13L13 14L12 14L12 15L11 15L11 16L12 16L12 15L14 15L14 17L11 17L11 19L9 19L9 20L8 20L8 21L11 21L11 22L12 22L12 24L10 24L10 22L7 22L7 21L6 21L6 22L7 22L7 23L6 23L6 24L7 24L7 25L5 25L5 24L4 24L4 25L5 25L5 26L7 26L7 27L5 27L5 28L7 28L7 27L8 27L8 28L9 28L9 27L10 27L10 28L13 28L13 27L12 27L12 26L11 26L11 25L12 25L12 24L13 24L13 22L14 22L14 21L15 21L15 22L16 22L16 23L15 23L15 25L14 25L14 26L15 26L15 27L14 27L14 28L15 28L15 27L16 27L16 28L17 28L17 29L18 29L18 26L19 26L19 27L20 27L20 25L21 25L21 26L22 26L22 27L21 27L21 29L20 29L20 28L19 28L19 30L15 30L15 29L14 29L14 31L17 31L17 35L16 35L16 36L17 36L17 35L18 35L18 34L19 34L19 33L20 33L20 35L23 35L23 32L26 32L26 33L28 33L28 32L26 32L26 31L27 31L27 30L28 30L28 29L27 29L27 28L28 28L28 27L27 27L27 28L25 28L25 30L23 30L23 29L24 29L24 27L23 27L23 26L25 26L25 27L26 27L26 26L25 26L25 25L26 25L26 24L27 24L27 25L28 25L28 26L29 26L29 28L30 28L30 26L32 26L32 28L33 28L33 29L34 29L34 30L33 30L33 31L34 31L34 30L35 30L35 28L34 28L34 27L36 27L36 26L35 26L35 24L36 24L36 23L35 23L35 21L36 21L36 20L34 20L34 21L32 21L32 23L30 23L30 22L28 22L28 20L29 20L29 21L30 21L30 20L32 20L32 19L30 19L30 18L29 18L29 17L30 17L30 16L31 16L31 14L33 14L33 10L32 10L32 9L30 9L30 10L32 10L32 11L31 11L31 12L32 12L32 13L31 13L31 14L30 14L30 11L28 11L28 10L27 10L27 9L26 9L26 8L27 8L27 7L28 7L28 6L27 6L27 7L26 7L26 8L24 8L24 6L23 6L23 5ZM22 6L22 7L21 7L21 8L20 8L20 7L19 7L19 8L18 8L18 9L21 9L21 10L19 10L19 11L17 11L17 12L16 12L16 13L17 13L17 12L19 12L19 11L21 11L21 12L22 12L22 13L21 13L21 14L20 14L20 16L19 16L19 15L18 15L18 14L19 14L19 13L18 13L18 14L15 14L15 13L14 13L14 15L17 15L17 16L16 16L16 17L14 17L14 20L15 20L15 21L16 21L16 20L17 20L17 22L18 22L18 23L20 23L20 24L21 24L21 25L22 25L22 26L23 26L23 25L22 25L22 21L23 21L23 22L24 22L24 19L23 19L23 17L21 17L21 18L22 18L22 19L20 19L20 16L26 16L26 17L25 17L25 18L26 18L26 20L27 20L27 16L26 16L26 15L27 15L27 14L29 14L29 12L28 12L28 11L27 11L27 12L26 12L26 11L25 11L25 10L26 10L26 9L25 9L25 10L24 10L24 12L25 12L25 13L27 13L27 14L26 14L26 15L24 15L24 14L22 14L22 13L23 13L23 11L21 11L21 10L22 10L22 8L23 8L23 6ZM34 9L34 12L35 12L35 14L34 14L34 16L35 16L35 14L36 14L36 11L35 11L35 9ZM27 12L27 13L28 13L28 12ZM6 13L6 14L7 14L7 13ZM21 14L21 15L22 15L22 14ZM6 15L6 16L7 16L7 15ZM32 15L32 17L33 17L33 18L35 18L35 19L36 19L36 18L35 18L35 17L33 17L33 15ZM0 16L0 17L1 17L1 16ZM17 16L17 19L18 19L18 20L19 20L19 17L18 17L18 16ZM28 16L28 17L29 17L29 16ZM6 17L6 18L7 18L7 17ZM15 18L15 19L16 19L16 18ZM11 20L11 21L12 21L12 22L13 22L13 21L12 21L12 20ZM18 21L18 22L21 22L21 21ZM25 21L25 24L26 24L26 23L27 23L27 24L28 24L28 25L29 25L29 24L30 24L30 25L33 25L33 23L34 23L34 22L33 22L33 23L32 23L32 24L30 24L30 23L29 23L29 24L28 24L28 23L27 23L27 21ZM16 23L16 25L15 25L15 26L16 26L16 25L19 25L19 24L17 24L17 23ZM0 24L0 25L1 25L1 24ZM7 25L7 26L8 26L8 27L9 27L9 25ZM2 27L2 28L3 28L3 27ZM22 28L22 29L23 29L23 28ZM10 29L10 31L12 31L12 30L13 30L13 29L12 29L12 30L11 30L11 29ZM26 29L26 30L27 30L27 29ZM29 29L29 32L32 32L32 29ZM20 30L20 31L18 31L18 32L20 32L20 33L21 33L21 34L22 34L22 33L21 33L21 31L22 31L22 32L23 32L23 31L22 31L22 30ZM30 30L30 31L31 31L31 30ZM10 32L10 33L9 33L9 34L10 34L10 33L11 33L11 35L12 35L12 34L14 34L14 35L15 35L15 33L13 33L13 32L12 32L12 33L11 33L11 32ZM30 33L30 35L32 35L32 34L31 34L31 33ZM9 35L9 36L10 36L10 35ZM26 35L26 36L27 36L27 35ZM35 36L35 37L37 37L37 36ZM0 0L0 7L7 7L7 0ZM1 1L1 6L6 6L6 1ZM2 2L2 5L5 5L5 2ZM30 0L30 7L37 7L37 0ZM31 1L31 6L36 6L36 1ZM32 2L32 5L35 5L35 2ZM0 30L0 37L7 37L7 30ZM1 31L1 36L6 36L6 31ZM2 32L2 35L5 35L5 32Z" fill="#000000"/></g></g></svg>
