<?xml version="1.0" encoding="UTF-8"?>
<svg xmlns="http://www.w3.org/2000/svg" version="1.1" width="300" height="300" viewBox="0 0 300 300"><rect x="0" y="0" width="300" height="300" fill="#ffffff"/><g transform="scale(8.108)"><g transform="translate(0,0)"><path fill-rule="evenodd" d="M8 0L8 1L10 1L10 3L9 3L9 2L8 2L8 4L9 4L9 5L8 5L8 8L5 8L5 10L4 10L4 8L3 8L3 9L2 9L2 8L1 8L1 9L2 9L2 10L4 10L4 11L3 11L3 12L4 12L4 14L3 14L3 13L1 13L1 12L0 12L0 14L1 14L1 16L3 16L3 17L4 17L4 14L5 14L5 18L6 18L6 19L7 19L7 20L3 20L3 19L4 19L4 18L2 18L2 19L1 19L1 17L0 17L0 19L1 19L1 20L0 20L0 21L1 21L1 20L2 20L2 21L3 21L3 22L0 22L0 23L4 23L4 24L2 24L2 25L4 25L4 26L5 26L5 25L7 25L7 26L6 26L6 27L5 27L5 28L6 28L6 29L8 29L8 32L9 32L9 33L8 33L8 34L9 34L9 33L10 33L10 34L11 34L11 33L10 33L10 32L13 32L13 34L12 34L12 35L11 35L11 37L13 37L13 34L14 34L14 37L15 37L15 35L17 35L17 37L18 37L18 36L22 36L22 37L25 37L25 33L26 33L26 34L27 34L27 35L26 35L26 36L27 36L27 35L28 35L28 37L34 37L34 34L33 34L33 33L34 33L34 32L35 32L35 31L33 31L33 30L34 30L34 29L33 29L33 28L32 28L32 26L28 26L28 25L29 25L29 24L30 24L30 25L34 25L34 23L36 23L36 24L35 24L35 25L36 25L36 26L35 26L35 27L34 27L34 28L35 28L35 27L37 27L37 25L36 25L36 24L37 24L37 23L36 23L36 21L37 21L37 20L36 20L36 19L37 19L37 16L36 16L36 15L37 15L37 12L36 12L36 14L35 14L35 12L34 12L34 9L35 9L35 11L37 11L37 8L36 8L36 9L35 9L35 8L33 8L33 9L32 9L32 8L29 8L29 5L28 5L28 4L29 4L29 2L28 2L28 0L25 0L25 4L26 4L26 5L27 5L27 6L26 6L26 7L25 7L25 6L24 6L24 5L23 5L23 6L22 6L22 5L21 5L21 2L22 2L22 4L23 4L23 0L20 0L20 7L21 7L21 8L19 8L19 9L21 9L21 10L20 10L20 12L19 12L19 13L18 13L18 11L19 11L19 10L18 10L18 8L17 8L17 5L12 5L12 4L10 4L10 3L11 3L11 2L12 2L12 3L13 3L13 1L12 1L12 0ZM16 0L16 1L14 1L14 2L15 2L15 3L14 3L14 4L15 4L15 3L16 3L16 4L18 4L18 7L19 7L19 4L18 4L18 3L19 3L19 0L18 0L18 1L17 1L17 0ZM16 1L16 2L17 2L17 1ZM26 2L26 3L27 3L27 2ZM9 5L9 7L10 7L10 6L11 6L11 7L12 7L12 6L11 6L11 5ZM13 6L13 7L14 7L14 8L12 8L12 9L11 9L11 8L9 8L9 9L6 9L6 10L5 10L5 11L4 11L4 12L5 12L5 14L7 14L7 15L6 15L6 16L8 16L8 19L9 19L9 20L10 20L10 22L9 22L9 21L8 21L8 23L11 23L11 25L9 25L9 27L8 27L8 29L9 29L9 28L10 28L10 29L12 29L12 30L10 30L10 31L13 31L13 30L14 30L14 28L15 28L15 27L16 27L16 29L15 29L15 31L14 31L14 32L15 32L15 33L14 33L14 34L16 34L16 33L17 33L17 35L19 35L19 32L21 32L21 33L20 33L20 35L23 35L23 33L24 33L24 32L26 32L26 33L28 33L28 31L27 31L27 29L26 29L26 28L24 28L24 27L26 27L26 26L25 26L25 25L26 25L26 24L27 24L27 25L28 25L28 24L29 24L29 23L30 23L30 24L32 24L32 23L33 23L33 21L34 21L34 22L35 22L35 21L36 21L36 20L34 20L34 18L35 18L35 19L36 19L36 18L35 18L35 17L34 17L34 16L35 16L35 14L33 14L33 10L32 10L32 9L30 9L30 10L32 10L32 11L30 11L30 12L29 12L29 11L28 11L28 10L29 10L29 8L28 8L28 10L27 10L27 9L26 9L26 8L27 8L27 7L28 7L28 6L27 6L27 7L26 7L26 8L25 8L25 9L26 9L26 10L25 10L25 11L24 11L24 6L23 6L23 7L22 7L22 6L21 6L21 7L22 7L22 10L21 10L21 11L23 11L23 13L22 13L22 12L21 12L21 13L22 13L22 14L21 14L21 15L20 15L20 16L19 16L19 17L18 17L18 16L17 16L17 17L15 17L15 13L17 13L17 14L16 14L16 15L17 15L17 14L18 14L18 15L19 15L19 14L18 14L18 13L17 13L17 11L18 11L18 10L14 10L14 11L13 11L13 12L14 12L14 11L15 11L15 13L14 13L14 16L13 16L13 13L12 13L12 11L10 11L10 12L8 12L8 13L6 13L6 12L7 12L7 11L6 11L6 10L8 10L8 11L9 11L9 10L10 10L10 9L11 9L11 10L12 10L12 9L14 9L14 8L15 8L15 9L17 9L17 8L15 8L15 7L16 7L16 6L15 6L15 7L14 7L14 6ZM25 11L25 13L27 13L27 14L28 14L28 17L29 17L29 18L31 18L31 19L32 19L32 21L33 21L33 18L34 18L34 17L32 17L32 15L31 15L31 16L30 16L30 17L29 17L29 12L28 12L28 11L27 11L27 12L26 12L26 11ZM27 12L27 13L28 13L28 12ZM30 12L30 14L31 14L31 13L32 13L32 12ZM10 13L10 14L8 14L8 15L9 15L9 16L11 16L11 17L9 17L9 19L10 19L10 18L11 18L11 17L13 17L13 21L12 21L12 20L11 20L11 21L12 21L12 22L11 22L11 23L12 23L12 22L13 22L13 24L12 24L12 25L11 25L11 26L12 26L12 25L15 25L15 26L16 26L16 25L18 25L18 26L17 26L17 27L18 27L18 28L19 28L19 27L18 27L18 26L19 26L19 24L20 24L20 25L23 25L23 24L22 24L22 23L23 23L23 22L24 22L24 19L23 19L23 17L21 17L21 19L20 19L20 17L19 17L19 20L16 20L16 21L17 21L17 23L16 23L16 22L13 22L13 21L14 21L14 20L15 20L15 19L14 19L14 18L15 18L15 17L13 17L13 16L11 16L11 15L10 15L10 14L12 14L12 13ZM2 14L2 15L3 15L3 14ZM22 14L22 15L21 15L21 16L23 16L23 15L24 15L24 16L26 16L26 17L25 17L25 18L26 18L26 20L27 20L27 21L25 21L25 24L26 24L26 23L27 23L27 24L28 24L28 23L29 23L29 22L28 22L28 23L27 23L27 21L28 21L28 20L29 20L29 21L30 21L30 23L31 23L31 20L29 20L29 19L27 19L27 15L26 15L26 14ZM6 17L6 18L7 18L7 17ZM17 17L17 19L18 19L18 17ZM22 19L22 20L23 20L23 19ZM20 20L20 22L19 22L19 21L18 21L18 23L17 23L17 24L19 24L19 23L21 23L21 20ZM6 21L6 22L4 22L4 23L5 23L5 24L4 24L4 25L5 25L5 24L7 24L7 23L6 23L6 22L7 22L7 21ZM22 21L22 22L23 22L23 21ZM15 23L15 25L16 25L16 23ZM0 24L0 25L1 25L1 24ZM0 26L0 27L1 27L1 28L0 28L0 29L3 29L3 28L4 28L4 27L3 27L3 26L2 26L2 27L1 27L1 26ZM13 26L13 27L12 27L12 29L13 29L13 28L14 28L14 26ZM20 26L20 27L22 27L22 26ZM23 26L23 27L24 27L24 26ZM2 27L2 28L3 28L3 27ZM6 27L6 28L7 28L7 27ZM10 27L10 28L11 28L11 27ZM27 27L27 28L28 28L28 27ZM29 27L29 28L31 28L31 27ZM22 28L22 29L23 29L23 30L24 30L24 31L22 31L22 30L21 30L21 29L20 29L20 31L22 31L22 32L24 32L24 31L25 31L25 30L24 30L24 29L23 29L23 28ZM16 29L16 31L17 31L17 30L18 30L18 29ZM29 29L29 32L32 32L32 29ZM35 29L35 30L36 30L36 31L37 31L37 29ZM30 30L30 31L31 31L31 30ZM18 31L18 32L19 32L19 31ZM26 31L26 32L27 32L27 31ZM21 33L21 34L22 34L22 33ZM29 33L29 34L28 34L28 35L29 35L29 36L30 36L30 35L31 35L31 36L32 36L32 35L31 35L31 34L32 34L32 33ZM35 33L35 34L36 34L36 35L37 35L37 33ZM8 35L8 36L9 36L9 37L10 37L10 35ZM35 36L35 37L37 37L37 36ZM0 0L0 7L7 7L7 0ZM1 1L1 6L6 6L6 1ZM2 2L2 5L5 5L5 2ZM30 0L30 7L37 7L37 0ZM31 1L31 6L36 6L36 1ZM32 2L32 5L35 5L35 2ZM0 30L0 37L7 37L7 30ZM1 31L1 36L6 36L6 31ZM2 32L2 35L5 35L5 32Z" fill="#000000"/></g></g></svg>
