<?xml version="1.0" encoding="UTF-8"?>
<svg xmlns="http://www.w3.org/2000/svg" version="1.1" width="300" height="300" viewBox="0 0 300 300"><rect x="0" y="0" width="300" height="300" fill="#ffffff"/><g transform="scale(8.108)"><g transform="translate(0,0)"><path fill-rule="evenodd" d="M9 0L9 1L8 1L8 3L9 3L9 1L10 1L10 0ZM11 0L11 2L10 2L10 3L11 3L11 4L10 4L10 5L9 5L9 6L8 6L8 7L9 7L9 8L10 8L10 7L11 7L11 8L12 8L12 9L14 9L14 12L13 12L13 10L11 10L11 12L13 12L13 13L9 13L9 12L10 12L10 10L8 10L8 9L7 9L7 8L5 8L5 10L6 10L6 11L7 11L7 12L5 12L5 11L4 11L4 12L3 12L3 11L2 11L2 12L1 12L1 11L0 11L0 12L1 12L1 13L0 13L0 14L1 14L1 16L0 16L0 20L1 20L1 18L2 18L2 20L3 20L3 19L4 19L4 18L5 18L5 19L7 19L7 20L5 20L5 21L7 21L7 22L5 22L5 23L4 23L4 22L3 22L3 21L0 21L0 22L2 22L2 23L3 23L3 24L2 24L2 26L1 26L1 27L0 27L0 28L1 28L1 27L3 27L3 28L2 28L2 29L3 29L3 28L6 28L6 29L8 29L8 30L9 30L9 28L10 28L10 27L11 27L11 28L12 28L12 29L13 29L13 28L12 28L12 27L11 27L11 26L13 26L13 25L14 25L14 27L15 27L15 29L16 29L16 30L15 30L15 32L14 32L14 33L13 33L13 31L12 31L12 32L11 32L11 33L10 33L10 32L9 32L9 31L8 31L8 32L9 32L9 33L8 33L8 36L9 36L9 37L10 37L10 36L11 36L11 37L13 37L13 35L12 35L12 34L14 34L14 35L16 35L16 36L18 36L18 37L19 37L19 36L20 36L20 37L22 37L22 36L20 36L20 35L19 35L19 36L18 36L18 34L19 34L19 33L21 33L21 34L22 34L22 33L21 33L21 32L22 32L22 31L23 31L23 32L25 32L25 30L24 30L24 29L26 29L26 31L27 31L27 30L28 30L28 34L29 34L29 35L31 35L31 36L29 36L29 37L32 37L32 35L33 35L33 37L37 37L37 36L35 36L35 35L36 35L36 34L34 34L34 35L33 35L33 33L34 33L34 32L33 32L33 28L29 28L29 25L28 25L28 23L27 23L27 21L28 21L28 22L29 22L29 24L30 24L30 25L32 25L32 26L35 26L35 25L36 25L36 26L37 26L37 25L36 25L36 24L37 24L37 21L36 21L36 19L37 19L37 17L35 17L35 16L34 16L34 14L33 14L33 11L34 11L34 12L35 12L35 13L36 13L36 14L37 14L37 11L36 11L36 8L34 8L34 9L30 9L30 10L28 10L28 9L27 9L27 8L29 8L29 5L28 5L28 4L29 4L29 3L28 3L28 2L27 2L27 3L26 3L26 4L25 4L25 2L26 2L26 1L27 1L27 0L25 0L25 2L23 2L23 4L22 4L22 5L20 5L20 3L21 3L21 2L22 2L22 0L21 0L21 2L19 2L19 3L18 3L18 1L19 1L19 0L17 0L17 3L18 3L18 4L17 4L17 5L16 5L16 3L15 3L15 2L16 2L16 1L15 1L15 0L14 0L14 1L12 1L12 0ZM14 1L14 2L12 2L12 3L14 3L14 4L15 4L15 3L14 3L14 2L15 2L15 1ZM18 4L18 5L19 5L19 4ZM12 5L12 6L11 6L11 7L12 7L12 6L13 6L13 7L14 7L14 6L15 6L15 9L17 9L17 8L19 8L19 7L20 7L20 9L21 9L21 8L22 8L22 6L21 6L21 7L20 7L20 6L19 6L19 7L18 7L18 6L17 6L17 8L16 8L16 6L15 6L15 5L14 5L14 6L13 6L13 5ZM24 5L24 6L23 6L23 8L24 8L24 11L23 11L23 10L20 10L20 11L21 11L21 12L18 12L18 11L17 11L17 10L15 10L15 11L17 11L17 13L15 13L15 14L16 14L16 15L15 15L15 16L12 16L12 17L11 17L11 16L9 16L9 15L6 15L6 14L9 14L9 13L8 13L8 12L7 12L7 13L1 13L1 14L2 14L2 15L3 15L3 14L4 14L4 16L1 16L1 17L3 17L3 18L4 18L4 17L6 17L6 18L7 18L7 17L10 17L10 18L9 18L9 19L8 19L8 20L7 20L7 21L8 21L8 20L9 20L9 23L8 23L8 22L7 22L7 23L6 23L6 24L5 24L5 25L4 25L4 24L3 24L3 25L4 25L4 26L3 26L3 27L6 27L6 28L7 28L7 27L10 27L10 26L11 26L11 25L10 25L10 24L11 24L11 23L12 23L12 20L13 20L13 21L14 21L14 22L13 22L13 23L14 23L14 25L15 25L15 27L16 27L16 28L18 28L18 30L16 30L16 31L17 31L17 32L16 32L16 33L14 33L14 34L17 34L17 32L18 32L18 31L19 31L19 30L20 30L20 28L21 28L21 29L22 29L22 28L23 28L23 27L25 27L25 28L26 28L26 27L25 27L25 25L26 25L26 26L28 26L28 25L27 25L27 24L25 24L25 23L26 23L26 21L27 21L27 20L29 20L29 19L27 19L27 17L28 17L28 18L30 18L30 17L32 17L32 19L30 19L30 21L29 21L29 22L30 22L30 24L31 24L31 20L32 20L32 19L34 19L34 20L33 20L33 21L32 21L32 25L34 25L34 23L35 23L35 24L36 24L36 21L35 21L35 19L36 19L36 18L34 18L34 17L33 17L33 14L31 14L31 15L32 15L32 16L29 16L29 15L28 15L28 14L30 14L30 12L31 12L31 13L32 13L32 11L33 11L33 10L30 10L30 12L28 12L28 10L27 10L27 9L25 9L25 8L24 8L24 6L25 6L25 7L26 7L26 5ZM27 5L27 7L28 7L28 5ZM9 6L9 7L10 7L10 6ZM1 8L1 9L0 9L0 10L4 10L4 8ZM6 9L6 10L7 10L7 11L8 11L8 10L7 10L7 9ZM18 9L18 10L19 10L19 9ZM34 9L34 11L35 11L35 9ZM25 10L25 13L26 13L26 14L24 14L24 16L23 16L23 13L22 13L22 12L21 12L21 13L22 13L22 15L21 15L21 14L20 14L20 15L19 15L19 14L18 14L18 15L19 15L19 19L18 19L18 18L17 18L17 17L18 17L18 16L17 16L17 17L16 17L16 18L17 18L17 19L15 19L15 20L16 20L16 21L15 21L15 22L14 22L14 23L15 23L15 25L16 25L16 26L17 26L17 27L18 27L18 28L19 28L19 27L20 27L20 26L21 26L21 27L22 27L22 25L23 25L23 23L25 23L25 21L26 21L26 20L24 20L24 19L23 19L23 20L21 20L21 23L19 23L19 21L18 21L18 23L19 23L19 24L18 24L18 26L17 26L17 25L16 25L16 23L15 23L15 22L17 22L17 19L18 19L18 20L20 20L20 19L22 19L22 18L21 18L21 17L20 17L20 16L23 16L23 17L25 17L25 18L26 18L26 17L27 17L27 16L25 16L25 15L26 15L26 14L27 14L27 13L28 13L28 12L27 12L27 13L26 13L26 11L27 11L27 10ZM13 13L13 14L12 14L12 15L13 15L13 14L14 14L14 13ZM10 14L10 15L11 15L11 14ZM36 15L36 16L37 16L37 15ZM6 16L6 17L7 17L7 16ZM13 17L13 19L14 19L14 17ZM10 18L10 19L9 19L9 20L10 20L10 19L11 19L11 18ZM23 20L23 21L22 21L22 22L24 22L24 20ZM10 21L10 23L11 23L11 21ZM33 21L33 22L34 22L34 21ZM7 23L7 24L6 24L6 25L7 25L7 26L6 26L6 27L7 27L7 26L9 26L9 25L8 25L8 23ZM21 23L21 24L20 24L20 25L19 25L19 26L18 26L18 27L19 27L19 26L20 26L20 25L22 25L22 23ZM0 24L0 25L1 25L1 24ZM27 27L27 28L28 28L28 27ZM34 27L34 28L35 28L35 29L34 29L34 30L36 30L36 31L37 31L37 29L36 29L36 27ZM10 29L10 31L11 31L11 29ZM29 29L29 32L32 32L32 29ZM21 30L21 31L22 31L22 30ZM23 30L23 31L24 31L24 30ZM30 30L30 31L31 31L31 30ZM35 32L35 33L37 33L37 32ZM9 33L9 34L10 34L10 33ZM25 33L25 35L23 35L23 37L25 37L25 35L26 35L26 34L27 34L27 33ZM31 34L31 35L32 35L32 34ZM9 35L9 36L10 36L10 35ZM27 35L27 36L26 36L26 37L28 37L28 35ZM14 36L14 37L15 37L15 36ZM0 0L0 7L7 7L7 0ZM1 1L1 6L6 6L6 1ZM2 2L2 5L5 5L5 2ZM30 0L30 7L37 7L37 0ZM31 1L31 6L36 6L36 1ZM32 2L32 5L35 5L35 2ZM0 30L0 37L7 37L7 30ZM1 31L1 36L6 36L6 31ZM2 32L2 35L5 35L5 32Z" fill="#000000"/></g></g></svg>
