<?xml version="1.0" encoding="UTF-8"?>
<svg xmlns="http://www.w3.org/2000/svg" version="1.1" width="300" height="300" viewBox="0 0 300 300"><rect x="0" y="0" width="300" height="300" fill="#ffffff"/><g transform="scale(8.108)"><g transform="translate(0,0)"><path fill-rule="evenodd" d="M8 0L8 1L9 1L9 2L10 2L10 3L9 3L9 4L8 4L8 7L9 7L9 4L10 4L10 5L11 5L11 4L12 4L12 7L11 7L11 6L10 6L10 8L12 8L12 9L11 9L11 10L12 10L12 9L13 9L13 10L15 10L15 11L16 11L16 10L18 10L18 11L17 11L17 13L16 13L16 12L15 12L15 13L16 13L16 14L14 14L14 15L13 15L13 13L14 13L14 12L13 12L13 11L9 11L9 10L8 10L8 8L1 8L1 9L0 9L0 10L1 10L1 11L0 11L0 14L2 14L2 13L3 13L3 12L4 12L4 13L5 13L5 14L3 14L3 15L2 15L2 16L1 16L1 15L0 15L0 19L1 19L1 20L2 20L2 19L1 19L1 17L2 17L2 18L3 18L3 19L4 19L4 20L3 20L3 21L2 21L2 23L1 23L1 21L0 21L0 29L1 29L1 24L2 24L2 25L3 25L3 24L4 24L4 20L5 20L5 22L6 22L6 23L7 23L7 24L5 24L5 25L4 25L4 26L2 26L2 27L3 27L3 28L4 28L4 29L7 29L7 28L8 28L8 27L7 27L7 26L9 26L9 27L10 27L10 25L9 25L9 24L8 24L8 23L9 23L9 22L11 22L11 20L13 20L13 19L11 19L11 20L10 20L10 19L9 19L9 17L10 17L10 18L11 18L11 17L10 17L10 16L11 16L11 14L12 14L12 18L15 18L15 21L16 21L16 22L18 22L18 25L19 25L19 26L18 26L18 28L17 28L17 30L16 30L16 29L15 29L15 30L16 30L16 31L15 31L15 32L14 32L14 30L13 30L13 29L8 29L8 36L9 36L9 37L12 37L12 35L14 35L14 33L15 33L15 35L17 35L17 36L18 36L18 37L19 37L19 36L18 36L18 35L17 35L17 33L18 33L18 34L19 34L19 33L18 33L18 31L17 31L17 30L18 30L18 28L20 28L20 26L21 26L21 25L19 25L19 21L20 21L20 22L21 22L21 24L22 24L22 25L23 25L23 26L22 26L22 27L23 27L23 28L21 28L21 29L20 29L20 30L19 30L19 31L21 31L21 29L23 29L23 30L22 30L22 31L23 31L23 30L24 30L24 32L20 32L20 33L21 33L21 34L20 34L20 35L21 35L21 36L20 36L20 37L22 37L22 36L23 36L23 37L25 37L25 36L26 36L26 37L27 37L27 36L29 36L29 37L31 37L31 36L32 36L32 35L30 35L30 36L29 36L29 35L27 35L27 33L28 33L28 34L33 34L33 35L34 35L34 34L33 34L33 33L36 33L36 32L37 32L37 30L36 30L36 29L37 29L37 28L35 28L35 26L36 26L36 27L37 27L37 26L36 26L36 24L33 24L33 25L34 25L34 26L33 26L33 27L34 27L34 28L31 28L31 27L32 27L32 26L31 26L31 25L32 25L32 23L33 23L33 22L32 22L32 23L31 23L31 22L30 22L30 21L36 21L36 22L35 22L35 23L36 23L36 22L37 22L37 18L36 18L36 17L37 17L37 14L34 14L34 13L33 13L33 12L34 12L34 11L33 11L33 10L34 10L34 9L33 9L33 8L31 8L31 9L30 9L30 12L29 12L29 13L31 13L31 14L32 14L32 13L33 13L33 15L36 15L36 16L32 16L32 15L30 15L30 14L28 14L28 11L29 11L29 10L28 10L28 9L29 9L29 8L26 8L26 7L27 7L27 6L28 6L28 7L29 7L29 4L28 4L28 3L26 3L26 2L28 2L28 1L29 1L29 0L28 0L28 1L26 1L26 0L25 0L25 1L22 1L22 0L21 0L21 1L20 1L20 3L19 3L19 0L15 0L15 1L14 1L14 2L15 2L15 1L18 1L18 2L17 2L17 3L15 3L15 4L13 4L13 2L10 2L10 1L9 1L9 0ZM11 0L11 1L12 1L12 0ZM24 2L24 3L25 3L25 4L23 4L23 3L21 3L21 4L20 4L20 5L21 5L21 4L23 4L23 5L22 5L22 6L21 6L21 7L20 7L20 6L19 6L19 4L18 4L18 3L17 3L17 5L16 5L16 4L15 4L15 5L13 5L13 7L14 7L14 8L13 8L13 9L14 9L14 8L15 8L15 7L16 7L16 8L17 8L17 7L18 7L18 6L19 6L19 8L20 8L20 9L22 9L22 11L23 11L23 12L22 12L22 13L24 13L24 14L22 14L22 15L24 15L24 14L26 14L26 15L25 15L25 16L22 16L22 17L21 17L21 18L22 18L22 20L21 20L21 21L22 21L22 22L23 22L23 23L22 23L22 24L23 24L23 25L27 25L27 24L26 24L26 23L27 23L27 22L28 22L28 21L30 21L30 20L31 20L31 19L32 19L32 20L36 20L36 18L35 18L35 17L34 17L34 18L35 18L35 19L33 19L33 17L32 17L32 16L31 16L31 17L29 17L29 15L27 15L27 11L25 11L25 10L27 10L27 9L26 9L26 8L25 8L25 7L26 7L26 6L25 6L25 7L24 7L24 6L23 6L23 5L25 5L25 4L26 4L26 5L28 5L28 4L26 4L26 3L25 3L25 2ZM10 3L10 4L11 4L11 3ZM15 5L15 6L14 6L14 7L15 7L15 6L16 6L16 7L17 7L17 6L18 6L18 5L17 5L17 6L16 6L16 5ZM22 6L22 7L21 7L21 8L22 8L22 9L23 9L23 10L25 10L25 9L24 9L24 7L23 7L23 6ZM22 7L22 8L23 8L23 7ZM36 8L36 9L35 9L35 10L36 10L36 12L35 12L35 13L37 13L37 10L36 10L36 9L37 9L37 8ZM6 9L6 10L7 10L7 11L5 11L5 12L7 12L7 11L8 11L8 10L7 10L7 9ZM18 9L18 10L19 10L19 11L18 11L18 12L20 12L20 11L21 11L21 10L19 10L19 9ZM31 10L31 11L32 11L32 10ZM1 11L1 13L2 13L2 11ZM24 11L24 13L26 13L26 12L25 12L25 11ZM9 12L9 13L8 13L8 14L7 14L7 13L6 13L6 14L5 14L5 15L4 15L4 17L5 17L5 16L7 16L7 15L8 15L8 16L9 16L9 15L10 15L10 12ZM31 12L31 13L32 13L32 12ZM19 13L19 14L16 14L16 16L15 16L15 15L14 15L14 16L15 16L15 17L18 17L18 16L20 16L20 13ZM6 14L6 15L7 15L7 14ZM8 14L8 15L9 15L9 14ZM26 15L26 16L25 16L25 17L24 17L24 18L25 18L25 17L26 17L26 16L27 16L27 17L28 17L28 18L27 18L27 19L26 19L26 20L27 20L27 21L26 21L26 22L27 22L27 21L28 21L28 19L29 19L29 17L28 17L28 16L27 16L27 15ZM6 17L6 18L8 18L8 17ZM19 17L19 18L20 18L20 17ZM22 17L22 18L23 18L23 17ZM4 18L4 19L5 19L5 18ZM16 18L16 19L17 19L17 20L16 20L16 21L18 21L18 20L19 20L19 19L17 19L17 18ZM30 18L30 19L31 19L31 18ZM6 19L6 20L7 20L7 19ZM24 19L24 20L25 20L25 19ZM8 20L8 21L6 21L6 22L9 22L9 20ZM12 21L12 22L14 22L14 21ZM24 21L24 22L25 22L25 21ZM29 22L29 23L28 23L28 25L30 25L30 24L29 24L29 23L30 23L30 22ZM10 23L10 24L12 24L12 25L11 25L11 28L12 28L12 27L13 27L13 28L16 28L16 27L17 27L17 25L15 25L15 27L13 27L13 25L14 25L14 24L12 24L12 23ZM16 23L16 24L17 24L17 23ZM24 23L24 24L25 24L25 23ZM6 25L6 26L5 26L5 27L6 27L6 28L7 28L7 27L6 27L6 26L7 26L7 25ZM23 26L23 27L24 27L24 26ZM25 26L25 28L23 28L23 29L25 29L25 28L26 28L26 29L27 29L27 31L28 31L28 27L29 27L29 26L27 26L27 28L26 28L26 26ZM34 28L34 30L33 30L33 32L35 32L35 31L36 31L36 30L35 30L35 28ZM29 29L29 32L32 32L32 29ZM9 30L9 31L10 31L10 32L9 32L9 33L10 33L10 32L12 32L12 33L14 33L14 32L12 32L12 30L11 30L11 31L10 31L10 30ZM25 30L25 32L26 32L26 33L27 33L27 32L26 32L26 30ZM30 30L30 31L31 31L31 30ZM16 31L16 33L17 33L17 31ZM22 33L22 35L23 35L23 34L25 34L25 33ZM9 34L9 35L10 35L10 36L11 36L11 35L12 35L12 34ZM36 34L36 36L33 36L33 37L37 37L37 34ZM24 35L24 36L25 36L25 35ZM26 35L26 36L27 36L27 35ZM14 36L14 37L16 37L16 36ZM0 0L0 7L7 7L7 0ZM1 1L1 6L6 6L6 1ZM2 2L2 5L5 5L5 2ZM30 0L30 7L37 7L37 0ZM31 1L31 6L36 6L36 1ZM32 2L32 5L35 5L35 2ZM0 30L0 37L7 37L7 30ZM1 31L1 36L6 36L6 31ZM2 32L2 35L5 35L5 32Z" fill="#000000"/></g></g></svg>
