<?xml version="1.0" encoding="UTF-8"?>
<svg xmlns="http://www.w3.org/2000/svg" version="1.1" width="300" height="300" viewBox="0 0 300 300"><rect x="0" y="0" width="300" height="300" fill="#ffffff"/><g transform="scale(8.108)"><g transform="translate(0,0)"><path fill-rule="evenodd" d="M11 0L11 2L10 2L10 1L8 1L8 3L9 3L9 4L11 4L11 5L9 5L9 6L8 6L8 7L9 7L9 10L8 10L8 9L7 9L7 8L5 8L5 10L4 10L4 8L1 8L1 10L4 10L4 11L5 11L5 12L4 12L4 13L7 13L7 14L6 14L6 15L7 15L7 16L6 16L6 17L4 17L4 16L3 16L3 14L2 14L2 13L3 13L3 11L2 11L2 12L1 12L1 11L0 11L0 14L1 14L1 15L0 15L0 18L1 18L1 19L0 19L0 20L1 20L1 21L0 21L0 22L2 22L2 21L3 21L3 23L2 23L2 24L4 24L4 25L2 25L2 26L1 26L1 27L0 27L0 28L1 28L1 27L3 27L3 28L2 28L2 29L4 29L4 27L7 27L7 26L4 26L4 25L5 25L5 23L7 23L7 24L6 24L6 25L7 25L7 24L8 24L8 23L11 23L11 24L10 24L10 25L12 25L12 21L11 21L11 20L10 20L10 17L8 17L8 14L9 14L9 16L11 16L11 17L12 17L12 16L13 16L13 17L14 17L14 19L19 19L19 20L20 20L20 21L21 21L21 23L22 23L22 25L21 25L21 26L20 26L20 25L19 25L19 23L20 23L20 22L19 22L19 21L17 21L17 22L16 22L16 23L15 23L15 21L16 21L16 20L15 20L15 21L14 21L14 20L13 20L13 22L14 22L14 23L13 23L13 26L11 26L11 27L10 27L10 26L9 26L9 25L8 25L8 27L9 27L9 28L6 28L6 29L8 29L8 30L9 30L9 28L10 28L10 29L12 29L12 28L13 28L13 27L15 27L15 28L14 28L14 30L10 30L10 31L13 31L13 32L11 32L11 33L10 33L10 32L9 32L9 31L8 31L8 32L9 32L9 33L8 33L8 36L9 36L9 37L10 37L10 34L11 34L11 37L15 37L15 36L13 36L13 35L14 35L14 33L13 33L13 32L15 32L15 31L14 31L14 30L16 30L16 29L17 29L17 30L18 30L18 29L19 29L19 31L18 31L18 32L16 32L16 33L17 33L17 34L15 34L15 35L17 35L17 34L18 34L18 37L19 37L19 36L20 36L20 37L22 37L22 36L20 36L20 35L19 35L19 31L20 31L20 28L21 28L21 27L22 27L22 25L23 25L23 23L25 23L25 24L27 24L27 25L28 25L28 26L26 26L26 25L25 25L25 26L24 26L24 27L23 27L23 28L22 28L22 29L21 29L21 30L22 30L22 31L21 31L21 32L20 32L20 33L21 33L21 34L22 34L22 33L21 33L21 32L22 32L22 31L23 31L23 32L24 32L24 31L25 31L25 30L24 30L24 29L26 29L26 31L27 31L27 32L26 32L26 33L25 33L25 35L23 35L23 37L25 37L25 35L26 35L26 33L27 33L27 32L28 32L28 33L30 33L30 35L33 35L33 34L34 34L34 37L37 37L37 36L35 36L35 35L36 35L36 34L34 34L34 32L33 32L33 28L31 28L31 27L30 27L30 26L29 26L29 25L28 25L28 24L27 24L27 21L26 21L26 20L24 20L24 19L23 19L23 18L22 18L22 19L23 19L23 20L20 20L20 19L21 19L21 17L20 17L20 16L19 16L19 18L16 18L16 16L15 16L15 15L17 15L17 13L18 13L18 12L19 12L19 13L20 13L20 14L21 14L21 13L22 13L22 15L21 15L21 16L23 16L23 17L25 17L25 18L26 18L26 17L27 17L27 19L29 19L29 20L28 20L28 23L29 23L29 24L30 24L30 25L32 25L32 26L35 26L35 27L34 27L34 28L35 28L35 27L36 27L36 28L37 28L37 27L36 27L36 26L37 26L37 25L36 25L36 24L37 24L37 21L36 21L36 19L37 19L37 17L35 17L35 16L34 16L34 15L35 15L35 13L34 13L34 14L33 14L33 11L34 11L34 12L36 12L36 14L37 14L37 11L36 11L36 8L34 8L34 9L30 9L30 10L33 10L33 11L32 11L32 12L31 12L31 11L29 11L29 10L28 10L28 9L27 9L27 8L29 8L29 4L28 4L28 3L29 3L29 2L28 2L28 3L26 3L26 4L25 4L25 2L26 2L26 0L25 0L25 2L23 2L23 1L22 1L22 0L21 0L21 1L22 1L22 2L23 2L23 4L22 4L22 5L21 5L21 4L20 4L20 3L21 3L21 2L19 2L19 0L17 0L17 1L18 1L18 3L15 3L15 4L12 4L12 2L13 2L13 3L14 3L14 2L16 2L16 1L12 1L12 0ZM28 0L28 1L29 1L29 0ZM15 4L15 5L14 5L14 6L13 6L13 7L12 7L12 5L11 5L11 7L10 7L10 6L9 6L9 7L10 7L10 10L11 10L11 12L9 12L9 11L6 11L6 10L7 10L7 9L6 9L6 10L5 10L5 11L6 11L6 12L7 12L7 13L10 13L10 15L11 15L11 16L12 16L12 14L11 14L11 12L12 12L12 10L14 10L14 11L17 11L17 12L16 12L16 13L15 13L15 12L14 12L14 13L13 13L13 14L14 14L14 15L15 15L15 14L16 14L16 13L17 13L17 12L18 12L18 11L19 11L19 12L20 12L20 11L21 11L21 12L22 12L22 13L23 13L23 15L24 15L24 14L26 14L26 13L27 13L27 15L25 15L25 16L27 16L27 17L28 17L28 16L27 16L27 15L28 15L28 14L30 14L30 12L28 12L28 10L27 10L27 9L25 9L25 8L24 8L24 6L25 6L25 7L26 7L26 5L24 5L24 6L23 6L23 5L22 5L22 6L21 6L21 5L20 5L20 4L19 4L19 5L17 5L17 8L16 8L16 6L15 6L15 5L16 5L16 4ZM19 5L19 6L18 6L18 8L19 8L19 9L18 9L18 10L19 10L19 9L20 9L20 7L21 7L21 6L20 6L20 5ZM27 5L27 7L28 7L28 5ZM14 6L14 7L13 7L13 9L14 9L14 10L17 10L17 9L16 9L16 8L15 8L15 6ZM19 6L19 7L20 7L20 6ZM22 6L22 7L23 7L23 6ZM11 8L11 10L12 10L12 8ZM21 8L21 10L23 10L23 11L25 11L25 13L26 13L26 11L27 11L27 10L24 10L24 8ZM34 9L34 11L35 11L35 9ZM27 12L27 13L28 13L28 12ZM31 13L31 14L32 14L32 13ZM18 14L18 15L19 15L19 14ZM31 15L31 16L29 16L29 19L30 19L30 21L29 21L29 22L30 22L30 24L32 24L32 25L33 25L33 23L34 23L34 22L35 22L35 24L36 24L36 21L35 21L35 19L36 19L36 18L35 18L35 19L34 19L34 20L33 20L33 15ZM36 15L36 16L37 16L37 15ZM1 16L1 17L2 17L2 19L1 19L1 20L2 20L2 19L3 19L3 21L4 21L4 23L5 23L5 21L6 21L6 22L7 22L7 23L8 23L8 22L7 22L7 21L8 21L8 20L9 20L9 19L8 19L8 20L7 20L7 19L6 19L6 18L7 18L7 17L6 17L6 18L5 18L5 19L3 19L3 18L4 18L4 17L3 17L3 16ZM14 16L14 17L15 17L15 16ZM17 16L17 17L18 17L18 16ZM30 17L30 18L32 18L32 17ZM4 20L4 21L5 21L5 20ZM6 20L6 21L7 21L7 20ZM23 20L23 21L22 21L22 23L23 23L23 22L24 22L24 20ZM32 20L32 21L33 21L33 20ZM10 21L10 22L11 22L11 21ZM25 21L25 23L26 23L26 21ZM17 22L17 23L16 23L16 25L15 25L15 23L14 23L14 25L15 25L15 27L16 27L16 28L17 28L17 29L18 29L18 28L20 28L20 27L19 27L19 25L18 25L18 22ZM31 22L31 23L32 23L32 22ZM0 24L0 25L1 25L1 24ZM16 25L16 26L18 26L18 25ZM3 26L3 27L4 27L4 26ZM11 27L11 28L12 28L12 27ZM25 27L25 28L26 28L26 27ZM27 27L27 28L28 28L28 27ZM27 29L27 31L28 31L28 29ZM29 29L29 32L32 32L32 29ZM34 29L34 31L35 31L35 30L36 30L36 31L37 31L37 29ZM23 30L23 31L24 31L24 30ZM30 30L30 31L31 31L31 30ZM35 32L35 33L37 33L37 32ZM9 33L9 34L10 34L10 33ZM31 33L31 34L32 34L32 33ZM12 34L12 35L13 35L13 34ZM27 35L27 36L26 36L26 37L28 37L28 35ZM16 36L16 37L17 37L17 36ZM0 0L0 7L7 7L7 0ZM1 1L1 6L6 6L6 1ZM2 2L2 5L5 5L5 2ZM30 0L30 7L37 7L37 0ZM31 1L31 6L36 6L36 1ZM32 2L32 5L35 5L35 2ZM0 30L0 37L7 37L7 30ZM1 31L1 36L6 36L6 31ZM2 32L2 35L5 35L5 32Z" fill="#000000"/></g></g></svg>
