<?xml version="1.0" encoding="UTF-8"?>
<svg xmlns="http://www.w3.org/2000/svg" version="1.1" width="300" height="300" viewBox="0 0 300 300"><rect x="0" y="0" width="300" height="300" fill="#ffffff"/><g transform="scale(6.122)"><g transform="translate(0,0)"><path fill-rule="evenodd" d="M8 0L8 1L10 1L10 2L12 2L12 3L11 3L11 5L9 5L9 4L10 4L10 3L9 3L9 4L8 4L8 7L9 7L9 10L10 10L10 11L12 11L12 10L10 10L10 9L11 9L11 6L12 6L12 7L13 7L13 6L14 6L14 8L13 8L13 9L14 9L14 11L13 11L13 12L12 12L12 13L10 13L10 12L8 12L8 11L7 11L7 10L8 10L8 8L1 8L1 9L0 9L0 10L3 10L3 12L2 12L2 11L1 11L1 12L0 12L0 13L1 13L1 12L2 12L2 14L3 14L3 15L2 15L2 16L3 16L3 17L4 17L4 19L3 19L3 18L1 18L1 15L0 15L0 18L1 18L1 19L0 19L0 20L1 20L1 21L0 21L0 27L1 27L1 24L2 24L2 29L1 29L1 28L0 28L0 31L1 31L1 33L3 33L3 34L2 34L2 35L0 35L0 37L1 37L1 40L0 40L0 41L3 41L3 40L4 40L4 39L2 39L2 38L3 38L3 37L4 37L4 38L5 38L5 39L7 39L7 40L6 40L6 41L8 41L8 48L9 48L9 49L10 49L10 48L11 48L11 49L12 49L12 48L13 48L13 47L10 47L10 45L12 45L12 44L11 44L11 42L10 42L10 41L11 41L11 39L10 39L10 40L9 40L9 39L7 39L7 38L5 38L5 36L6 36L6 37L8 37L8 36L9 36L9 37L10 37L10 36L9 36L9 35L11 35L11 34L12 34L12 36L11 36L11 37L12 37L12 36L13 36L13 38L12 38L12 39L13 39L13 38L14 38L14 39L15 39L15 40L17 40L17 41L14 41L14 40L12 40L12 41L14 41L14 42L12 42L12 43L14 43L14 42L16 42L16 44L15 44L15 45L14 45L14 44L13 44L13 46L14 46L14 48L15 48L15 49L18 49L18 46L19 46L19 47L21 47L21 48L20 48L20 49L21 49L21 48L22 48L22 46L23 46L23 45L27 45L27 44L29 44L29 45L28 45L28 46L27 46L27 49L28 49L28 48L29 48L29 49L30 49L30 47L28 47L28 46L31 46L31 47L32 47L32 48L31 48L31 49L32 49L32 48L33 48L33 49L34 49L34 47L37 47L37 48L35 48L35 49L38 49L38 48L40 48L40 49L41 49L41 47L42 47L42 48L43 48L43 47L44 47L44 48L45 48L45 49L49 49L49 45L48 45L48 44L46 44L46 46L45 46L45 43L46 43L46 42L45 42L45 40L46 40L46 41L48 41L48 40L46 40L46 39L49 39L49 38L46 38L46 39L44 39L44 37L45 37L45 36L46 36L46 37L47 37L47 36L48 36L48 37L49 37L49 34L47 34L47 36L46 36L46 34L42 34L42 33L41 33L41 32L42 32L42 31L43 31L43 29L45 29L45 28L44 28L44 27L45 27L45 25L48 25L48 24L45 24L45 23L46 23L46 22L47 22L47 23L49 23L49 22L47 22L47 20L48 20L48 21L49 21L49 18L47 18L47 17L48 17L48 16L46 16L46 15L45 15L45 14L46 14L46 13L48 13L48 12L46 12L46 11L44 11L44 10L43 10L43 9L45 9L45 8L43 8L43 9L42 9L42 10L41 10L41 11L42 11L42 14L40 14L40 13L41 13L41 12L39 12L39 10L37 10L37 6L38 6L38 7L39 7L39 5L38 5L38 3L35 3L35 2L37 2L37 1L38 1L38 2L39 2L39 4L40 4L40 3L41 3L41 0L40 0L40 1L38 1L38 0L35 0L35 1L31 1L31 0L28 0L28 1L27 1L27 0L26 0L26 1L27 1L27 3L24 3L24 2L23 2L23 4L21 4L21 3L22 3L22 2L21 2L21 1L22 1L22 0L21 0L21 1L20 1L20 2L19 2L19 0L16 0L16 1L15 1L15 0ZM23 0L23 1L24 1L24 0ZM12 1L12 2L14 2L14 1ZM16 1L16 3L17 3L17 4L19 4L19 8L18 8L18 6L17 6L17 5L16 5L16 6L15 6L15 5L14 5L14 4L15 4L15 3L14 3L14 4L13 4L13 3L12 3L12 4L13 4L13 5L12 5L12 6L13 6L13 5L14 5L14 6L15 6L15 7L16 7L16 6L17 6L17 8L18 8L18 10L17 10L17 9L15 9L15 10L17 10L17 11L14 11L14 13L13 13L13 15L12 15L12 14L11 14L11 16L10 16L10 13L5 13L5 10L4 10L4 9L3 9L3 10L4 10L4 13L3 13L3 14L9 14L9 15L8 15L8 16L7 16L7 15L6 15L6 16L7 16L7 17L6 17L6 18L5 18L5 19L4 19L4 21L3 21L3 19L1 19L1 20L2 20L2 21L1 21L1 23L2 23L2 24L3 24L3 25L4 25L4 24L3 24L3 22L5 22L5 21L6 21L6 22L10 22L10 23L11 23L11 20L13 20L13 22L12 22L12 24L13 24L13 25L9 25L9 26L10 26L10 29L11 29L11 31L12 31L12 29L13 29L13 31L14 31L14 30L15 30L15 33L13 33L13 32L11 32L11 33L13 33L13 35L16 35L16 36L17 36L17 35L18 35L18 36L19 36L19 37L20 37L20 39L19 39L19 40L18 40L18 41L17 41L17 43L18 43L18 42L19 42L19 43L20 43L20 42L21 42L21 44L19 44L19 46L20 46L20 45L22 45L22 42L21 42L21 41L20 41L20 40L23 40L23 39L24 39L24 40L25 40L25 39L27 39L27 40L28 40L28 41L27 41L27 42L28 42L28 43L29 43L29 42L30 42L30 41L29 41L29 40L30 40L30 39L31 39L31 43L33 43L33 44L32 44L32 47L33 47L33 46L35 46L35 44L37 44L37 43L35 43L35 42L38 42L38 43L40 43L40 41L39 41L39 40L41 40L41 39L42 39L42 40L44 40L44 39L42 39L42 38L41 38L41 39L38 39L38 38L39 38L39 37L38 37L38 38L37 38L37 37L36 37L36 36L40 36L40 37L41 37L41 36L42 36L42 37L44 37L44 36L45 36L45 35L44 35L44 36L43 36L43 35L42 35L42 34L39 34L39 32L40 32L40 31L41 31L41 30L42 30L42 29L41 29L41 28L40 28L40 27L38 27L38 26L40 26L40 24L39 24L39 23L40 23L40 22L41 22L41 21L42 21L42 17L43 17L43 16L42 16L42 15L43 15L43 14L42 14L42 15L41 15L41 16L39 16L39 17L40 17L40 18L37 18L37 17L38 17L38 16L37 16L37 15L38 15L38 14L39 14L39 12L38 12L38 11L36 11L36 10L35 10L35 9L36 9L36 8L35 8L35 7L36 7L36 6L37 6L37 4L33 4L33 3L34 3L34 2L33 2L33 3L32 3L32 2L31 2L31 1L28 1L28 3L29 3L29 2L30 2L30 4L32 4L32 5L30 5L30 6L29 6L29 7L28 7L28 5L27 5L27 7L28 7L28 8L30 8L30 6L31 6L31 7L32 7L32 8L31 8L31 9L32 9L32 10L29 10L29 11L26 11L26 12L23 12L23 13L24 13L24 14L23 14L23 15L22 15L22 14L21 14L21 13L19 13L19 12L21 12L21 11L22 11L22 10L23 10L23 11L24 11L24 10L23 10L23 9L22 9L22 5L21 5L21 4L19 4L19 3L17 3L17 2L18 2L18 1ZM20 5L20 8L21 8L21 5ZM23 5L23 8L26 8L26 5ZM33 5L33 6L32 6L32 7L33 7L33 6L34 6L34 7L35 7L35 5ZM9 6L9 7L10 7L10 6ZM24 6L24 7L25 7L25 6ZM40 6L40 7L41 7L41 6ZM33 8L33 10L34 10L34 12L35 12L35 10L34 10L34 8ZM38 8L38 9L41 9L41 8ZM48 8L48 9L46 9L46 10L48 10L48 11L49 11L49 10L48 10L48 9L49 9L49 8ZM6 9L6 10L7 10L7 9ZM19 9L19 11L21 11L21 10L20 10L20 9ZM26 9L26 10L28 10L28 9ZM42 10L42 11L43 11L43 12L44 12L44 13L46 13L46 12L44 12L44 11L43 11L43 10ZM6 11L6 12L7 12L7 11ZM17 11L17 12L18 12L18 11ZM29 11L29 12L26 12L26 13L25 13L25 17L23 17L23 16L24 16L24 15L23 15L23 16L22 16L22 17L23 17L23 18L25 18L25 19L24 19L24 20L23 20L23 19L22 19L22 18L21 18L21 14L20 14L20 15L19 15L19 14L18 14L18 13L17 13L17 14L16 14L16 13L14 13L14 14L16 14L16 15L15 15L15 16L16 16L16 15L19 15L19 17L20 17L20 18L19 18L19 19L18 19L18 18L17 18L17 20L19 20L19 19L20 19L20 18L21 18L21 19L22 19L22 20L23 20L23 21L22 21L22 23L20 23L20 24L19 24L19 25L20 25L20 26L18 26L18 25L17 25L17 27L16 27L16 24L17 24L17 23L18 23L18 22L20 22L20 21L21 21L21 20L20 20L20 21L18 21L18 22L17 22L17 21L16 21L16 22L15 22L15 21L14 21L14 22L15 22L15 23L14 23L14 25L13 25L13 26L12 26L12 27L11 27L11 28L12 28L12 27L13 27L13 29L14 29L14 28L15 28L15 27L16 27L16 29L17 29L17 32L16 32L16 35L17 35L17 33L18 33L18 35L19 35L19 36L20 36L20 37L21 37L21 36L20 36L20 35L21 35L21 32L20 32L20 35L19 35L19 31L21 31L21 30L22 30L22 32L23 32L23 31L24 31L24 34L23 34L23 33L22 33L22 39L23 39L23 36L24 36L24 39L25 39L25 38L26 38L26 37L25 37L25 36L26 36L26 35L27 35L27 36L29 36L29 37L27 37L27 38L29 38L29 39L28 39L28 40L29 40L29 39L30 39L30 38L33 38L33 39L32 39L32 40L34 40L34 39L35 39L35 40L36 40L36 41L38 41L38 40L36 40L36 39L37 39L37 38L36 38L36 37L35 37L35 36L36 36L36 34L34 34L34 31L35 31L35 30L36 30L36 32L35 32L35 33L36 33L36 32L38 32L38 31L40 31L40 30L41 30L41 29L40 29L40 28L38 28L38 29L37 29L37 28L36 28L36 26L37 26L37 24L38 24L38 23L39 23L39 22L40 22L40 21L41 21L41 20L40 20L40 19L37 19L37 18L36 18L36 17L37 17L37 16L35 16L35 14L38 14L38 13L37 13L37 12L36 12L36 13L35 13L35 14L34 14L34 13L32 13L32 12L33 12L33 11L32 11L32 12L31 12L31 11ZM29 12L29 14L27 14L27 13L26 13L26 17L25 17L25 18L27 18L27 17L28 17L28 20L27 20L27 19L25 19L25 21L23 21L23 22L27 22L27 21L29 21L29 19L30 19L30 20L31 20L31 22L30 22L30 23L31 23L31 24L32 24L32 25L33 25L33 28L32 28L32 27L31 27L31 26L29 26L29 25L30 25L30 24L29 24L29 22L28 22L28 23L27 23L27 24L28 24L28 25L27 25L27 26L28 26L28 27L26 27L26 28L24 28L24 27L22 27L22 28L21 28L21 27L20 27L20 28L19 28L19 27L18 27L18 28L17 28L17 29L20 29L20 30L21 30L21 29L22 29L22 30L23 30L23 29L24 29L24 30L26 30L26 29L27 29L27 28L28 28L28 29L29 29L29 28L30 28L30 29L31 29L31 28L32 28L32 31L31 31L31 30L28 30L28 32L27 32L27 31L25 31L25 34L24 34L24 36L25 36L25 35L26 35L26 34L27 34L27 35L28 35L28 34L27 34L27 33L28 33L28 32L29 32L29 34L30 34L30 35L29 35L29 36L30 36L30 37L29 37L29 38L30 38L30 37L31 37L31 36L32 36L32 37L33 37L33 38L35 38L35 39L36 39L36 38L35 38L35 37L33 37L33 36L35 36L35 35L34 35L34 34L33 34L33 36L32 36L32 35L31 35L31 34L32 34L32 33L31 33L31 32L33 32L33 30L35 30L35 27L34 27L34 26L36 26L36 25L34 25L34 23L33 23L33 22L35 22L35 21L36 21L36 20L37 20L37 19L36 19L36 18L34 18L34 17L33 17L33 16L34 16L34 14L32 14L32 13L31 13L31 12ZM30 13L30 14L29 14L29 15L28 15L28 17L29 17L29 18L30 18L30 19L32 19L32 20L34 20L34 18L32 18L32 17L31 17L31 18L30 18L30 17L29 17L29 16L30 16L30 14L31 14L31 13ZM47 14L47 15L49 15L49 14ZM4 15L4 16L5 16L5 15ZM31 15L31 16L33 16L33 15ZM11 16L11 17L10 17L10 18L8 18L8 17L7 17L7 18L6 18L6 19L5 19L5 20L6 20L6 21L7 21L7 20L8 20L8 21L10 21L10 20L11 20L11 19L10 19L10 18L11 18L11 17L14 17L14 16ZM17 16L17 17L18 17L18 16ZM44 16L44 17L46 17L46 16ZM15 17L15 18L13 18L13 19L15 19L15 20L16 20L16 17ZM46 18L46 19L45 19L45 20L44 20L44 21L43 21L43 22L46 22L46 20L47 20L47 18ZM6 19L6 20L7 20L7 19ZM9 19L9 20L10 20L10 19ZM39 20L39 21L37 21L37 23L35 23L35 24L37 24L37 23L38 23L38 22L39 22L39 21L40 21L40 20ZM32 21L32 22L31 22L31 23L32 23L32 24L33 24L33 23L32 23L32 22L33 22L33 21ZM16 22L16 23L15 23L15 24L16 24L16 23L17 23L17 22ZM5 23L5 26L8 26L8 23ZM23 23L23 26L26 26L26 23ZM41 23L41 26L44 26L44 23ZM6 24L6 25L7 25L7 24ZM21 24L21 25L22 25L22 24ZM24 24L24 25L25 25L25 24ZM42 24L42 25L43 25L43 24ZM14 25L14 26L15 26L15 25ZM3 26L3 27L4 27L4 28L3 28L3 29L4 29L4 28L7 28L7 27L4 27L4 26ZM46 26L46 27L48 27L48 29L49 29L49 26ZM28 27L28 28L29 28L29 27ZM30 27L30 28L31 28L31 27ZM42 27L42 28L43 28L43 27ZM8 28L8 29L5 29L5 30L3 30L3 33L4 33L4 32L5 32L5 31L6 31L6 32L7 32L7 31L8 31L8 29L9 29L9 28ZM22 28L22 29L23 29L23 28ZM33 28L33 29L34 29L34 28ZM46 28L46 31L47 31L47 28ZM38 29L38 30L37 30L37 31L38 31L38 30L40 30L40 29ZM6 30L6 31L7 31L7 30ZM44 30L44 31L45 31L45 30ZM48 30L48 31L49 31L49 30ZM9 31L9 32L8 32L8 33L6 33L6 34L5 34L5 35L4 35L4 34L3 34L3 35L4 35L4 36L5 36L5 35L6 35L6 36L7 36L7 35L6 35L6 34L8 34L8 33L9 33L9 34L10 34L10 31ZM30 31L30 32L31 32L31 31ZM26 32L26 33L27 33L27 32ZM43 32L43 33L49 33L49 32ZM30 33L30 34L31 34L31 33ZM37 34L37 35L39 35L39 34ZM30 35L30 36L31 36L31 35ZM40 35L40 36L41 36L41 35ZM14 37L14 38L15 38L15 37ZM16 38L16 39L18 39L18 38ZM8 40L8 41L9 41L9 40ZM19 41L19 42L20 42L20 41ZM23 41L23 44L26 44L26 41ZM28 41L28 42L29 42L29 41ZM32 41L32 42L34 42L34 41ZM41 41L41 44L44 44L44 41ZM9 42L9 44L10 44L10 42ZM24 42L24 43L25 43L25 42ZM42 42L42 43L43 43L43 42ZM47 42L47 43L49 43L49 42ZM34 43L34 44L33 44L33 45L34 45L34 44L35 44L35 43ZM17 44L17 45L15 45L15 46L17 46L17 45L18 45L18 44ZM38 45L38 46L37 46L37 47L38 47L38 46L39 46L39 47L40 47L40 46L41 46L41 45L40 45L40 46L39 46L39 45ZM43 45L43 46L42 46L42 47L43 47L43 46L44 46L44 47L45 47L45 48L48 48L48 47L47 47L47 46L46 46L46 47L45 47L45 46L44 46L44 45ZM24 46L24 47L23 47L23 48L24 48L24 49L25 49L25 48L26 48L26 47L25 47L25 46ZM24 47L24 48L25 48L25 47ZM0 0L0 7L7 7L7 0ZM1 1L1 6L6 6L6 1ZM2 2L2 5L5 5L5 2ZM42 0L42 7L49 7L49 0ZM43 1L43 6L48 6L48 1ZM44 2L44 5L47 5L47 2ZM0 42L0 49L7 49L7 42ZM1 43L1 48L6 48L6 43ZM2 44L2 47L5 47L5 44Z" fill="#000000"/></g></g></svg>
