<?xml version="1.0" encoding="UTF-8"?>
<svg xmlns="http://www.w3.org/2000/svg" version="1.1" width="300" height="300" viewBox="0 0 300 300"><rect x="0" y="0" width="300" height="300" fill="#ffffff"/><g transform="scale(6.122)"><g transform="translate(0,0)"><path fill-rule="evenodd" d="M8 0L8 1L9 1L9 3L10 3L10 1L11 1L11 2L12 2L12 3L11 3L11 6L10 6L10 5L9 5L9 4L8 4L8 7L9 7L9 8L10 8L10 9L12 9L12 10L8 10L8 11L7 11L7 10L5 10L5 11L3 11L3 13L2 13L2 12L1 12L1 13L2 13L2 15L1 15L1 14L0 14L0 16L3 16L3 17L4 17L4 19L3 19L3 18L1 18L1 19L0 19L0 20L1 20L1 21L0 21L0 26L1 26L1 27L0 27L0 31L2 31L2 32L3 32L3 33L4 33L4 34L2 34L2 33L1 33L1 32L0 32L0 36L1 36L1 37L0 37L0 38L1 38L1 40L0 40L0 41L3 41L3 40L4 40L4 39L2 39L2 38L3 38L3 37L4 37L4 38L5 38L5 39L8 39L8 40L6 40L6 41L8 41L8 48L9 48L9 49L10 49L10 48L11 48L11 49L12 49L12 47L13 47L13 46L14 46L14 48L15 48L15 49L18 49L18 46L19 46L19 48L20 48L20 49L21 49L21 48L22 48L22 46L23 46L23 45L27 45L27 44L29 44L29 45L28 45L28 46L27 46L27 49L28 49L28 48L29 48L29 49L30 49L30 47L28 47L28 46L31 46L31 47L32 47L32 48L31 48L31 49L32 49L32 48L33 48L33 49L34 49L34 47L37 47L37 48L35 48L35 49L38 49L38 48L39 48L39 49L40 49L40 48L39 48L39 47L40 47L40 46L38 46L38 45L42 45L42 46L41 46L41 47L42 47L42 48L41 48L41 49L42 49L42 48L43 48L43 47L44 47L44 48L45 48L45 49L49 49L49 45L48 45L48 44L46 44L46 46L45 46L45 43L46 43L46 42L45 42L45 41L46 41L46 40L47 40L47 41L48 41L48 40L47 40L47 39L49 39L49 38L47 38L47 36L48 36L48 37L49 37L49 34L46 34L46 33L47 33L47 32L48 32L48 33L49 33L49 32L48 32L48 31L49 31L49 30L47 30L47 28L48 28L48 29L49 29L49 26L48 26L48 25L47 25L47 24L48 24L48 23L49 23L49 22L47 22L47 20L48 20L48 21L49 21L49 18L47 18L47 17L48 17L48 16L47 16L47 17L46 17L46 14L45 14L45 13L44 13L44 12L46 12L46 13L48 13L48 12L46 12L46 10L45 10L45 11L44 11L44 10L43 10L43 9L45 9L45 8L43 8L43 9L41 9L41 8L39 8L39 9L41 9L41 10L43 10L43 11L44 11L44 12L42 12L42 14L40 14L40 13L41 13L41 12L38 12L38 11L39 11L39 10L37 10L37 12L36 12L36 10L33 10L33 8L31 8L31 6L30 6L30 5L32 5L32 4L30 4L30 2L29 2L29 1L31 1L31 2L32 2L32 3L33 3L33 4L37 4L37 6L36 6L36 8L35 8L35 5L33 5L33 6L32 6L32 7L33 7L33 6L34 6L34 8L35 8L35 9L36 9L36 8L37 8L37 9L38 9L38 8L37 8L37 6L38 6L38 7L39 7L39 5L38 5L38 3L35 3L35 2L37 2L37 1L38 1L38 2L39 2L39 4L40 4L40 3L41 3L41 0L40 0L40 1L38 1L38 0L35 0L35 1L31 1L31 0L29 0L29 1L28 1L28 0L25 0L25 2L26 2L26 1L27 1L27 3L24 3L24 0L23 0L23 2L22 2L22 1L20 1L20 2L19 2L19 3L18 3L18 2L17 2L17 3L16 3L16 1L19 1L19 0L16 0L16 1L15 1L15 0ZM12 1L12 2L13 2L13 1ZM14 1L14 4L15 4L15 1ZM28 2L28 3L27 3L27 5L28 5L28 6L27 6L27 8L28 8L28 6L29 6L29 7L30 7L30 6L29 6L29 4L28 4L28 3L29 3L29 2ZM33 2L33 3L34 3L34 2ZM12 3L12 4L13 4L13 3ZM17 3L17 5L16 5L16 6L15 6L15 7L16 7L16 6L17 6L17 7L18 7L18 6L17 6L17 5L18 5L18 3ZM21 3L21 4L19 4L19 8L18 8L18 10L16 10L16 9L15 9L15 8L14 8L14 6L13 6L13 5L12 5L12 6L11 6L11 8L14 8L14 10L13 10L13 11L14 11L14 13L13 13L13 12L11 12L11 11L8 11L8 12L9 12L9 13L6 13L6 12L7 12L7 11L5 11L5 12L4 12L4 13L3 13L3 15L4 15L4 17L5 17L5 19L4 19L4 21L3 21L3 19L1 19L1 20L2 20L2 21L1 21L1 23L2 23L2 24L1 24L1 26L2 26L2 28L1 28L1 30L2 30L2 31L3 31L3 30L4 30L4 32L5 32L5 31L6 31L6 32L7 32L7 33L6 33L6 34L5 34L5 35L3 35L3 36L4 36L4 37L5 37L5 35L6 35L6 36L7 36L7 37L6 37L6 38L8 38L8 39L12 39L12 42L13 42L13 39L14 39L14 37L15 37L15 36L17 36L17 38L15 38L15 39L16 39L16 42L17 42L17 43L16 43L16 44L17 44L17 45L16 45L16 46L17 46L17 45L18 45L18 44L17 44L17 43L18 43L18 42L17 42L17 38L18 38L18 41L19 41L19 40L20 40L20 39L21 39L21 40L22 40L22 39L23 39L23 40L25 40L25 38L26 38L26 37L25 37L25 36L22 36L22 37L21 37L21 36L20 36L20 35L23 35L23 34L20 34L20 35L19 35L19 36L20 36L20 37L21 37L21 38L20 38L20 39L19 39L19 38L18 38L18 36L17 36L17 35L15 35L15 34L13 34L13 33L14 33L14 32L15 32L15 33L16 33L16 34L18 34L18 32L17 32L17 29L18 29L18 28L19 28L19 29L20 29L20 30L21 30L21 31L19 31L19 30L18 30L18 31L19 31L19 33L20 33L20 32L21 32L21 33L22 33L22 32L21 32L21 31L22 31L22 30L24 30L24 29L23 29L23 28L22 28L22 27L20 27L20 28L19 28L19 27L18 27L18 26L20 26L20 25L19 25L19 24L22 24L22 21L24 21L24 22L25 22L25 21L26 21L26 22L27 22L27 23L28 23L28 24L27 24L27 25L28 25L28 24L29 24L29 25L30 25L30 24L29 24L29 21L28 21L28 20L29 20L29 18L30 18L30 17L28 17L28 15L29 15L29 16L30 16L30 15L31 15L31 14L27 14L27 13L26 13L26 12L29 12L29 13L30 13L30 12L29 12L29 11L31 11L31 12L32 12L32 13L34 13L34 14L32 14L32 15L34 15L34 16L31 16L31 17L32 17L32 19L30 19L30 20L31 20L31 22L30 22L30 23L31 23L31 24L32 24L32 25L33 25L33 28L32 28L32 27L31 27L31 26L29 26L29 28L27 28L27 29L26 29L26 31L27 31L27 32L26 32L26 33L24 33L24 32L25 32L25 31L23 31L23 33L24 33L24 34L25 34L25 35L26 35L26 33L27 33L27 34L28 34L28 35L27 35L27 36L28 36L28 37L29 37L29 38L28 38L28 39L29 39L29 38L30 38L30 40L27 40L27 41L28 41L28 42L27 42L27 43L30 43L30 42L32 42L32 43L33 43L33 44L32 44L32 47L33 47L33 46L35 46L35 44L37 44L37 43L40 43L40 41L39 41L39 42L37 42L37 43L35 43L35 42L34 42L34 41L33 41L33 40L34 40L34 39L33 39L33 38L35 38L35 37L36 37L36 38L39 38L39 36L40 36L40 37L41 37L41 39L39 39L39 40L41 40L41 39L42 39L42 40L46 40L46 39L42 39L42 38L43 38L43 37L44 37L44 38L46 38L46 37L44 37L44 36L43 36L43 35L42 35L42 34L44 34L44 35L45 35L45 33L46 33L46 32L47 32L47 31L46 31L46 28L47 28L47 27L48 27L48 26L47 26L47 25L45 25L45 27L44 27L44 29L43 29L43 30L44 30L44 31L42 31L42 32L41 32L41 33L42 33L42 34L39 34L39 33L38 33L38 34L37 34L37 35L36 35L36 34L35 34L35 33L36 33L36 32L35 32L35 31L36 31L36 30L35 30L35 27L34 27L34 26L36 26L36 28L37 28L37 29L38 29L38 30L37 30L37 32L40 32L40 31L41 31L41 30L42 30L42 29L41 29L41 30L40 30L40 29L38 29L38 28L41 28L41 27L40 27L40 26L39 26L39 25L40 25L40 24L39 24L39 23L38 23L38 22L39 22L39 21L40 21L40 22L41 22L41 21L42 21L42 18L43 18L43 14L42 14L42 16L40 16L40 17L39 17L39 15L38 15L38 14L39 14L39 13L36 13L36 12L35 12L35 11L34 11L34 12L32 12L32 11L31 11L31 10L32 10L32 9L31 9L31 10L30 10L30 8L29 8L29 10L28 10L28 9L25 9L25 10L26 10L26 12L23 12L23 10L24 10L24 9L23 9L23 10L21 10L21 8L20 8L20 5L21 5L21 7L22 7L22 3ZM23 5L23 8L26 8L26 5ZM9 6L9 7L10 7L10 6ZM12 6L12 7L13 7L13 6ZM24 6L24 7L25 7L25 6ZM40 6L40 7L41 7L41 6ZM1 8L1 9L2 9L2 10L0 10L0 11L2 11L2 10L4 10L4 9L8 9L8 8ZM19 8L19 10L20 10L20 11L21 11L21 14L22 14L22 15L23 15L23 16L22 16L22 17L23 17L23 18L25 18L25 19L26 19L26 20L27 20L27 19L28 19L28 17L27 17L27 18L25 18L25 17L26 17L26 13L25 13L25 17L23 17L23 16L24 16L24 15L23 15L23 14L24 14L24 13L23 13L23 12L22 12L22 11L21 11L21 10L20 10L20 8ZM48 8L48 9L49 9L49 8ZM14 10L14 11L16 11L16 10ZM27 10L27 11L28 11L28 10ZM48 10L48 11L49 11L49 10ZM10 12L10 13L11 13L11 12ZM15 12L15 13L14 13L14 14L11 14L11 15L10 15L10 14L6 14L6 15L7 15L7 16L5 16L5 17L7 17L7 18L6 18L6 19L7 19L7 20L6 20L6 21L7 21L7 22L3 22L3 24L2 24L2 25L3 25L3 26L4 26L4 27L5 27L5 28L4 28L4 30L5 30L5 29L7 29L7 30L6 30L6 31L7 31L7 32L8 32L8 33L7 33L7 34L6 34L6 35L7 35L7 36L8 36L8 35L9 35L9 38L11 38L11 37L14 37L14 36L13 36L13 34L11 34L11 35L9 35L9 32L10 32L10 31L9 31L9 32L8 32L8 31L7 31L7 30L10 30L10 29L11 29L11 28L12 28L12 27L13 27L13 29L12 29L12 31L11 31L11 32L13 32L13 31L15 31L15 27L16 27L16 29L17 29L17 27L16 27L16 24L17 24L17 23L18 23L18 22L19 22L19 23L21 23L21 21L20 21L20 20L19 20L19 19L22 19L22 20L24 20L24 19L22 19L22 18L21 18L21 15L19 15L19 14L20 14L20 12L17 12L17 13L19 13L19 14L16 14L16 12ZM34 12L34 13L35 13L35 12ZM4 13L4 14L5 14L5 13ZM14 14L14 15L11 15L11 16L15 16L15 15L16 15L16 17L12 17L12 18L16 18L16 17L17 17L17 18L18 18L18 19L19 19L19 18L18 18L18 15L16 15L16 14ZM34 14L34 15L37 15L37 14ZM47 14L47 15L49 15L49 14ZM8 15L8 16L7 16L7 17L8 17L8 18L10 18L10 19L9 19L9 20L10 20L10 21L9 21L9 22L10 22L10 23L11 23L11 24L13 24L13 25L9 25L9 26L10 26L10 28L9 28L9 29L10 29L10 28L11 28L11 27L12 27L12 26L13 26L13 27L15 27L15 25L14 25L14 23L15 23L15 22L14 22L14 21L16 21L16 23L17 23L17 22L18 22L18 21L19 21L19 20L17 20L17 19L16 19L16 20L15 20L15 19L13 19L13 20L10 20L10 19L11 19L11 17L9 17L9 15ZM36 16L36 17L35 17L35 18L36 18L36 19L37 19L37 20L36 20L36 21L35 21L35 22L33 22L33 21L32 21L32 22L31 22L31 23L32 23L32 24L33 24L33 23L34 23L34 25L36 25L36 26L37 26L37 24L38 24L38 23L37 23L37 21L39 21L39 19L40 19L40 21L41 21L41 18L42 18L42 17L40 17L40 18L39 18L39 19L38 19L38 18L37 18L37 17L38 17L38 16ZM44 16L44 17L45 17L45 16ZM33 17L33 18L34 18L34 17ZM46 18L46 19L45 19L45 20L44 20L44 21L43 21L43 22L46 22L46 23L45 23L45 24L47 24L47 22L46 22L46 20L47 20L47 18ZM32 19L32 20L34 20L34 19ZM16 20L16 21L17 21L17 20ZM11 21L11 22L12 22L12 23L13 23L13 21ZM32 22L32 23L33 23L33 22ZM5 23L5 26L8 26L8 23ZM23 23L23 26L26 26L26 23ZM35 23L35 24L37 24L37 23ZM41 23L41 26L44 26L44 23ZM3 24L3 25L4 25L4 24ZM6 24L6 25L7 25L7 24ZM24 24L24 25L25 25L25 24ZM42 24L42 25L43 25L43 24ZM13 25L13 26L14 26L14 25ZM17 25L17 26L18 26L18 25ZM21 25L21 26L22 26L22 25ZM27 26L27 27L28 27L28 26ZM38 26L38 27L39 27L39 26ZM46 26L46 27L47 27L47 26ZM6 27L6 28L7 28L7 29L8 29L8 27ZM24 27L24 28L25 28L25 27ZM30 27L30 28L29 28L29 29L27 29L27 30L31 30L31 32L30 32L30 31L29 31L29 33L30 33L30 34L29 34L29 35L28 35L28 36L29 36L29 37L30 37L30 38L33 38L33 37L31 37L31 36L33 36L33 35L30 35L30 34L32 34L32 33L31 33L31 32L32 32L32 28L31 28L31 27ZM42 27L42 28L43 28L43 27ZM2 28L2 30L3 30L3 28ZM21 28L21 30L22 30L22 28ZM30 28L30 29L31 29L31 28ZM33 28L33 29L34 29L34 28ZM13 29L13 30L14 30L14 29ZM33 30L33 32L34 32L34 31L35 31L35 30ZM38 30L38 31L40 31L40 30ZM45 31L45 32L43 32L43 33L45 33L45 32L46 32L46 31ZM16 32L16 33L17 33L17 32ZM27 32L27 33L28 33L28 32ZM33 33L33 34L34 34L34 35L35 35L35 36L36 36L36 37L38 37L38 36L39 36L39 34L38 34L38 35L37 35L37 36L36 36L36 35L35 35L35 34L34 34L34 33ZM1 34L1 36L2 36L2 34ZM40 35L40 36L41 36L41 35ZM46 35L46 36L47 36L47 35ZM42 36L42 37L43 37L43 36ZM23 37L23 39L24 39L24 38L25 38L25 37ZM12 38L12 39L13 39L13 38ZM31 39L31 40L33 40L33 39ZM36 39L36 40L35 40L35 41L36 41L36 40L37 40L37 41L38 41L38 40L37 40L37 39ZM8 40L8 41L9 41L9 40ZM10 40L10 42L9 42L9 44L10 44L10 42L11 42L11 40ZM14 41L14 43L12 43L12 45L13 45L13 44L14 44L14 45L15 45L15 41ZM23 41L23 44L26 44L26 41ZM29 41L29 42L30 42L30 41ZM41 41L41 44L44 44L44 41ZM21 42L21 43L20 43L20 44L19 44L19 45L20 45L20 46L21 46L21 45L22 45L22 42ZM24 42L24 43L25 43L25 42ZM33 42L33 43L34 43L34 44L33 44L33 45L34 45L34 44L35 44L35 43L34 43L34 42ZM42 42L42 43L43 43L43 42ZM47 42L47 43L49 43L49 42ZM20 44L20 45L21 45L21 44ZM10 45L10 47L11 47L11 45ZM43 45L43 46L42 46L42 47L43 47L43 46L44 46L44 47L45 47L45 48L48 48L48 47L47 47L47 46L46 46L46 47L45 47L45 46L44 46L44 45ZM24 46L24 47L23 47L23 48L24 48L24 49L25 49L25 48L26 48L26 47L25 47L25 46ZM37 46L37 47L38 47L38 46ZM16 47L16 48L17 48L17 47ZM24 47L24 48L25 48L25 47ZM0 0L0 7L7 7L7 0ZM1 1L1 6L6 6L6 1ZM2 2L2 5L5 5L5 2ZM42 0L42 7L49 7L49 0ZM43 1L43 6L48 6L48 1ZM44 2L44 5L47 5L47 2ZM0 42L0 49L7 49L7 42ZM1 43L1 48L6 48L6 43ZM2 44L2 47L5 47L5 44Z" fill="#000000"/></g></g></svg>
