<?xml version="1.0" encoding="UTF-8"?>
<svg xmlns="http://www.w3.org/2000/svg" version="1.1" width="300" height="300" viewBox="0 0 300 300"><rect x="0" y="0" width="300" height="300" fill="#ffffff"/><g transform="scale(7.317)"><g transform="translate(0,0)"><path fill-rule="evenodd" d="M10 0L10 1L9 1L9 2L8 2L8 3L9 3L9 4L8 4L8 7L9 7L9 4L10 4L10 5L11 5L11 0ZM12 0L12 3L13 3L13 5L12 5L12 8L11 8L11 6L10 6L10 8L8 8L8 9L7 9L7 8L6 8L6 9L7 9L7 10L5 10L5 8L4 8L4 10L2 10L2 8L1 8L1 10L0 10L0 12L4 12L4 13L1 13L1 14L0 14L0 15L1 15L1 16L3 16L3 17L2 17L2 18L4 18L4 20L3 20L3 21L2 21L2 19L0 19L0 20L1 20L1 22L0 22L0 23L1 23L1 24L0 24L0 25L1 25L1 26L0 26L0 28L1 28L1 29L0 29L0 30L1 30L1 29L2 29L2 30L4 30L4 31L2 31L2 32L0 32L0 33L8 33L8 34L10 34L10 35L11 35L11 32L12 32L12 34L14 34L14 35L16 35L16 34L15 34L15 33L18 33L18 36L19 36L19 37L16 37L16 36L14 36L14 37L12 37L12 38L11 38L11 39L12 39L12 38L13 38L13 39L14 39L14 41L15 41L15 39L16 39L16 40L17 40L17 41L18 41L18 40L17 40L17 39L18 39L18 38L19 38L19 39L20 39L20 41L21 41L21 40L23 40L23 41L24 41L24 39L25 39L25 38L26 38L26 37L27 37L27 39L26 39L26 41L31 41L31 40L30 40L30 39L31 39L31 38L32 38L32 37L35 37L35 38L36 38L36 37L37 37L37 38L38 38L38 39L37 39L37 40L36 40L36 39L34 39L34 38L33 38L33 39L32 39L32 41L33 41L33 39L34 39L34 41L38 41L38 39L39 39L39 41L40 41L40 40L41 40L41 38L40 38L40 39L39 39L39 37L37 37L37 35L39 35L39 36L40 36L40 37L41 37L41 33L40 33L40 32L41 32L41 29L40 29L40 28L41 28L41 25L40 25L40 23L41 23L41 21L40 21L40 23L39 23L39 25L38 25L38 26L39 26L39 29L36 29L36 28L35 28L35 25L36 25L36 26L37 26L37 25L36 25L36 23L34 23L34 24L33 24L33 22L37 22L37 23L38 23L38 22L37 22L37 21L38 21L38 19L39 19L39 20L41 20L41 13L36 13L36 14L35 14L35 13L32 13L32 12L31 12L31 11L30 11L30 9L32 9L32 11L34 11L34 12L36 12L36 10L38 10L38 9L39 9L39 8L38 8L38 9L37 9L37 8L35 8L35 9L34 9L34 8L33 8L33 9L32 9L32 7L33 7L33 5L29 5L29 4L28 4L28 2L27 2L27 1L28 1L28 0L27 0L27 1L26 1L26 0L24 0L24 1L25 1L25 2L24 2L24 3L22 3L22 2L23 2L23 0L20 0L20 1L19 1L19 0L18 0L18 1L13 1L13 0ZM30 0L30 1L29 1L29 3L31 3L31 4L32 4L32 3L31 3L31 2L33 2L33 1L31 1L31 0ZM18 1L18 2L16 2L16 3L15 3L15 2L14 2L14 6L13 6L13 7L14 7L14 6L15 6L15 8L16 8L16 9L19 9L19 8L20 8L20 5L21 5L21 10L19 10L19 12L20 12L20 13L19 13L19 14L20 14L20 13L21 13L21 14L24 14L24 13L26 13L26 12L29 12L29 11L27 11L27 10L26 10L26 11L25 11L25 12L23 12L23 11L22 11L22 10L25 10L25 9L26 9L26 8L27 8L27 9L28 9L28 10L29 10L29 9L28 9L28 8L27 8L27 7L28 7L28 5L27 5L27 7L26 7L26 6L25 6L25 7L24 7L24 5L25 5L25 4L27 4L27 3L26 3L26 2L25 2L25 3L24 3L24 4L23 4L23 5L21 5L21 4L22 4L22 3L20 3L20 2L19 2L19 1ZM21 1L21 2L22 2L22 1ZM18 2L18 5L16 5L16 4L15 4L15 6L16 6L16 7L17 7L17 8L19 8L19 5L20 5L20 4L19 4L19 2ZM17 6L17 7L18 7L18 6ZM22 6L22 8L23 8L23 9L24 9L24 7L23 7L23 6ZM29 6L29 7L30 7L30 8L31 8L31 7L32 7L32 6L31 6L31 7L30 7L30 6ZM9 9L9 11L8 11L8 10L7 10L7 11L5 11L5 10L4 10L4 11L5 11L5 12L7 12L7 13L4 13L4 14L3 14L3 15L4 15L4 14L7 14L7 13L10 13L10 15L6 15L6 16L8 16L8 17L9 17L9 16L11 16L11 17L10 17L10 18L7 18L7 17L5 17L5 16L4 16L4 17L5 17L5 18L7 18L7 19L6 19L6 20L4 20L4 21L3 21L3 23L4 23L4 25L5 25L5 23L6 23L6 24L7 24L7 23L9 23L9 24L10 24L10 23L11 23L11 25L9 25L9 26L10 26L10 28L9 28L9 29L5 29L5 27L6 27L6 28L8 28L8 27L6 27L6 26L7 26L7 25L6 25L6 26L5 26L5 27L1 27L1 28L4 28L4 29L5 29L5 31L4 31L4 32L5 32L5 31L6 31L6 32L7 32L7 31L9 31L9 32L8 32L8 33L10 33L10 31L12 31L12 32L13 32L13 31L14 31L14 30L13 30L13 29L14 29L14 28L15 28L15 27L14 27L14 25L15 25L15 26L16 26L16 27L17 27L17 28L18 28L18 30L17 30L17 29L15 29L15 30L16 30L16 32L17 32L17 31L19 31L19 30L20 30L20 32L19 32L19 34L20 34L20 35L19 35L19 36L23 36L23 37L22 37L22 38L21 38L21 39L23 39L23 37L25 37L25 36L26 36L26 35L27 35L27 34L24 34L24 35L22 35L22 33L21 33L21 27L23 27L23 28L25 28L25 29L23 29L23 32L24 32L24 33L29 33L29 35L28 35L28 36L27 36L27 37L28 37L28 39L30 39L30 38L29 38L29 35L30 35L30 37L31 37L31 35L30 35L30 34L31 34L31 33L29 33L29 32L28 32L28 31L27 31L27 32L26 32L26 30L27 30L27 29L28 29L28 30L29 30L29 29L28 29L28 28L27 28L27 29L26 29L26 27L25 27L25 26L27 26L27 25L26 25L26 24L27 24L27 23L25 23L25 22L26 22L26 21L28 21L28 19L26 19L26 21L25 21L25 18L26 18L26 14L25 14L25 15L24 15L24 16L22 16L22 15L20 15L20 16L19 16L19 17L18 17L18 19L17 19L17 22L16 22L16 21L15 21L15 20L16 20L16 18L17 18L17 16L18 16L18 10L17 10L17 11L16 11L16 12L15 12L15 11L14 11L14 10L11 10L11 9ZM33 9L33 10L34 10L34 9ZM35 9L35 10L36 10L36 9ZM40 9L40 10L39 10L39 12L40 12L40 11L41 11L41 9ZM7 11L7 12L8 12L8 11ZM10 11L10 13L11 13L11 14L13 14L13 13L14 13L14 11L12 11L12 13L11 13L11 11ZM21 11L21 13L23 13L23 12L22 12L22 11ZM37 11L37 12L38 12L38 11ZM30 12L30 13L28 13L28 14L29 14L29 15L30 15L30 16L32 16L32 17L31 17L31 19L32 19L32 21L29 21L29 22L28 22L28 26L29 26L29 27L30 27L30 30L31 30L31 32L36 32L36 30L34 30L34 29L35 29L35 28L34 28L34 25L35 25L35 24L34 24L34 25L33 25L33 24L32 24L32 22L33 22L33 20L34 20L34 21L37 21L37 19L38 19L38 18L36 18L36 17L40 17L40 16L39 16L39 14L37 14L37 15L35 15L35 14L34 14L34 16L33 16L33 15L32 15L32 13L31 13L31 12ZM15 13L15 14L17 14L17 13ZM30 13L30 14L31 14L31 13ZM11 15L11 16L13 16L13 17L12 17L12 19L11 19L11 18L10 18L10 20L9 20L9 19L7 19L7 20L6 20L6 21L7 21L7 22L6 22L6 23L7 23L7 22L9 22L9 23L10 23L10 21L11 21L11 23L12 23L12 21L13 21L13 22L15 22L15 21L14 21L14 20L12 20L12 19L13 19L13 18L16 18L16 16L17 16L17 15L16 15L16 16L15 16L15 15ZM20 16L20 17L21 17L21 16ZM28 16L28 17L29 17L29 18L30 18L30 17L29 17L29 16ZM35 16L35 17L34 17L34 18L35 18L35 20L36 20L36 18L35 18L35 17L36 17L36 16ZM0 17L0 18L1 18L1 17ZM23 17L23 18L22 18L22 19L21 19L21 18L19 18L19 19L18 19L18 21L19 21L19 22L17 22L17 23L13 23L13 24L12 24L12 25L13 25L13 24L17 24L17 25L18 25L18 24L17 24L17 23L19 23L19 24L20 24L20 25L19 25L19 26L18 26L18 27L19 27L19 26L23 26L23 27L24 27L24 26L25 26L25 25L24 25L24 22L25 22L25 21L22 21L22 19L24 19L24 18L25 18L25 17ZM32 17L32 18L33 18L33 17ZM19 19L19 20L20 20L20 22L19 22L19 23L20 23L20 24L21 24L21 25L23 25L23 22L21 22L21 19ZM8 20L8 21L9 21L9 20ZM20 22L20 23L21 23L21 22ZM30 22L30 23L29 23L29 25L30 25L30 27L31 27L31 28L32 28L32 29L34 29L34 28L33 28L33 25L32 25L32 24L31 24L31 22ZM2 24L2 25L3 25L3 24ZM31 25L31 27L32 27L32 25ZM12 26L12 29L9 29L9 30L12 30L12 29L13 29L13 28L14 28L14 27L13 27L13 26ZM37 27L37 28L38 28L38 27ZM19 28L19 29L20 29L20 28ZM6 30L6 31L7 31L7 30ZM32 30L32 31L33 31L33 30ZM37 30L37 32L38 32L38 33L39 33L39 32L40 32L40 31L39 31L39 30ZM24 31L24 32L25 32L25 31ZM14 32L14 33L15 33L15 32ZM20 33L20 34L21 34L21 33ZM33 33L33 36L36 36L36 33ZM34 34L34 35L35 35L35 34ZM12 35L12 36L13 36L13 35ZM8 36L8 37L9 37L9 39L8 39L8 40L9 40L9 39L10 39L10 36ZM14 37L14 39L15 39L15 37ZM11 40L11 41L13 41L13 40ZM0 0L0 7L7 7L7 0ZM1 1L1 6L6 6L6 1ZM2 2L2 5L5 5L5 2ZM34 0L34 7L41 7L41 0ZM35 1L35 6L40 6L40 1ZM36 2L36 5L39 5L39 2ZM0 34L0 41L7 41L7 34ZM1 35L1 40L6 40L6 35ZM2 36L2 39L5 39L5 36Z" fill="#000000"/></g></g></svg>
