<?xml version="1.0" encoding="UTF-8"?>
<svg xmlns="http://www.w3.org/2000/svg" version="1.1" width="300" height="300" viewBox="0 0 300 300"><rect x="0" y="0" width="300" height="300" fill="#ffffff"/><g transform="scale(8.108)"><g transform="translate(0,0)"><path fill-rule="evenodd" d="M11 0L11 1L10 1L10 2L11 2L11 3L10 3L10 4L9 4L9 5L11 5L11 6L10 6L10 7L9 7L9 6L8 6L8 7L9 7L9 10L6 10L6 9L7 9L7 8L5 8L5 10L4 10L4 8L1 8L1 10L0 10L0 11L1 11L1 12L0 12L0 13L1 13L1 12L2 12L2 14L1 14L1 16L2 16L2 14L3 14L3 15L4 15L4 14L3 14L3 11L2 11L2 10L4 10L4 11L5 11L5 14L6 14L6 15L7 15L7 16L6 16L6 17L3 17L3 18L2 18L2 17L0 17L0 22L2 22L2 23L4 23L4 25L3 25L3 24L2 24L2 26L1 26L1 27L0 27L0 28L1 28L1 27L3 27L3 28L2 28L2 29L8 29L8 30L9 30L9 29L10 29L10 31L11 31L11 33L10 33L10 32L9 32L9 31L8 31L8 32L9 32L9 33L8 33L8 36L9 36L9 35L10 35L10 36L11 36L11 37L14 37L14 36L15 36L15 37L19 37L19 36L20 36L20 37L22 37L22 36L20 36L20 35L19 35L19 36L18 36L18 34L19 34L19 33L21 33L21 34L22 34L22 33L21 33L21 32L22 32L22 31L23 31L23 30L24 30L24 29L26 29L26 28L27 28L27 29L28 29L28 31L27 31L27 30L26 30L26 31L27 31L27 32L28 32L28 33L25 33L25 35L23 35L23 37L25 37L25 35L26 35L26 34L29 34L29 33L30 33L30 35L31 35L31 36L32 36L32 37L33 37L33 36L32 36L32 35L33 35L33 33L34 33L34 32L33 32L33 28L31 28L31 27L29 27L29 25L28 25L28 24L30 24L30 25L32 25L32 26L35 26L35 25L36 25L36 26L37 26L37 25L36 25L36 24L37 24L37 21L36 21L36 19L37 19L37 17L36 17L36 18L35 18L35 16L34 16L34 15L36 15L36 16L37 16L37 15L36 15L36 14L37 14L37 13L35 13L35 14L34 14L34 13L33 13L33 11L34 11L34 12L35 12L35 11L36 11L36 8L34 8L34 9L30 9L30 10L28 10L28 9L27 9L27 8L29 8L29 5L28 5L28 4L29 4L29 3L26 3L26 4L25 4L25 2L26 2L26 0L25 0L25 2L23 2L23 1L22 1L22 0L21 0L21 2L19 2L19 0L18 0L18 2L17 2L17 1L16 1L16 0L15 0L15 1L14 1L14 2L13 2L13 1L12 1L12 0ZM28 0L28 1L29 1L29 0ZM8 1L8 3L9 3L9 1ZM12 2L12 4L11 4L11 5L13 5L13 4L14 4L14 6L13 6L13 7L14 7L14 6L15 6L15 9L17 9L17 10L15 10L15 11L17 11L17 12L19 12L19 15L18 15L18 13L17 13L17 15L16 15L16 13L15 13L15 12L13 12L13 11L14 11L14 10L12 10L12 9L11 9L11 11L9 11L9 13L12 13L12 14L13 14L13 15L11 15L11 14L10 14L10 15L11 15L11 16L8 16L8 17L10 17L10 19L8 19L8 20L7 20L7 19L3 19L3 20L2 20L2 18L1 18L1 20L2 20L2 22L3 22L3 20L7 20L7 21L6 21L6 22L7 22L7 23L5 23L5 25L6 25L6 26L5 26L5 28L7 28L7 27L6 27L6 26L7 26L7 25L6 25L6 24L8 24L8 26L9 26L9 27L10 27L10 28L11 28L11 30L12 30L12 32L13 32L13 34L12 34L12 35L14 35L14 34L15 34L15 32L16 32L16 34L17 34L17 32L18 32L18 31L19 31L19 32L21 32L21 31L22 31L22 30L21 30L21 29L22 29L22 28L23 28L23 27L25 27L25 28L26 28L26 27L25 27L25 26L24 26L24 24L25 24L25 25L26 25L26 26L28 26L28 25L27 25L27 24L28 24L28 23L29 23L29 22L30 22L30 24L31 24L31 23L32 23L32 22L33 22L33 24L32 24L32 25L34 25L34 22L35 22L35 24L36 24L36 21L35 21L35 18L34 18L34 20L33 20L33 15L31 15L31 16L29 16L29 12L30 12L30 11L31 11L31 13L32 13L32 11L33 11L33 10L30 10L30 11L29 11L29 12L28 12L28 10L27 10L27 9L25 9L25 8L24 8L24 6L25 6L25 7L26 7L26 5L24 5L24 6L23 6L23 5L22 5L22 4L23 4L23 3L22 3L22 2L21 2L21 7L20 7L20 4L19 4L19 3L17 3L17 2L15 2L15 3L13 3L13 2ZM16 3L16 4L15 4L15 5L16 5L16 7L17 7L17 6L18 6L18 7L19 7L19 5L18 5L18 4L17 4L17 3ZM16 4L16 5L17 5L17 4ZM27 5L27 7L28 7L28 5ZM11 6L11 7L10 7L10 8L12 8L12 6ZM22 6L22 7L23 7L23 6ZM18 8L18 10L19 10L19 12L21 12L21 13L22 13L22 15L20 15L20 16L19 16L19 18L18 18L18 19L19 19L19 20L18 20L18 21L17 21L17 17L18 17L18 16L17 16L17 17L16 17L16 18L15 18L15 17L14 17L14 16L13 16L13 18L15 18L15 19L16 19L16 20L15 20L15 22L14 22L14 19L13 19L13 20L12 20L12 21L10 21L10 20L11 20L11 19L10 19L10 20L9 20L9 21L7 21L7 22L8 22L8 24L10 24L10 23L9 23L9 21L10 21L10 22L12 22L12 21L13 21L13 22L14 22L14 23L12 23L12 24L11 24L11 25L14 25L14 26L13 26L13 27L14 27L14 26L15 26L15 25L16 25L16 26L17 26L17 28L16 28L16 27L15 27L15 28L14 28L14 29L13 29L13 28L12 28L12 30L13 30L13 31L14 31L14 32L15 32L15 31L14 31L14 30L15 30L15 29L17 29L17 30L16 30L16 31L17 31L17 30L18 30L18 29L17 29L17 28L19 28L19 29L20 29L20 28L21 28L21 27L22 27L22 26L23 26L23 25L21 25L21 24L20 24L20 23L21 23L21 22L22 22L22 21L23 21L23 20L24 20L24 22L23 22L23 23L22 23L22 24L23 24L23 23L25 23L25 24L27 24L27 21L26 21L26 20L24 20L24 19L23 19L23 18L21 18L21 17L20 17L20 16L23 16L23 17L25 17L25 18L26 18L26 17L27 17L27 20L28 20L28 19L29 19L29 16L28 16L28 17L27 17L27 15L26 15L26 14L27 14L27 13L28 13L28 12L27 12L27 13L26 13L26 10L25 10L25 11L24 11L24 8ZM34 9L34 11L35 11L35 9ZM20 10L20 11L21 11L21 12L22 12L22 13L23 13L23 16L26 16L26 15L24 15L24 14L26 14L26 13L25 13L25 12L23 12L23 10ZM6 11L6 12L8 12L8 11ZM11 11L11 12L12 12L12 11ZM6 13L6 14L7 14L7 13ZM14 13L14 15L15 15L15 16L16 16L16 15L15 15L15 13ZM6 17L6 18L7 18L7 17ZM30 17L30 19L31 19L31 18L32 18L32 17ZM20 19L20 20L19 20L19 21L20 21L20 22L21 22L21 20L23 20L23 19ZM29 20L29 21L30 21L30 20ZM31 20L31 22L32 22L32 21L33 21L33 20ZM25 21L25 23L26 23L26 21ZM17 22L17 24L16 24L16 23L14 23L14 25L15 25L15 24L16 24L16 25L20 25L20 26L19 26L19 27L21 27L21 25L20 25L20 24L19 24L19 22ZM0 24L0 25L1 25L1 24ZM3 26L3 27L4 27L4 26ZM10 26L10 27L12 27L12 26ZM27 27L27 28L28 28L28 27ZM34 27L34 28L35 28L35 30L36 30L36 31L37 31L37 27ZM8 28L8 29L9 29L9 28ZM29 29L29 32L32 32L32 29ZM19 30L19 31L20 31L20 30ZM30 30L30 31L31 31L31 30ZM35 32L35 33L37 33L37 32ZM9 33L9 34L10 34L10 33ZM31 33L31 34L32 34L32 33ZM34 34L34 37L37 37L37 36L35 36L35 35L36 35L36 34ZM15 35L15 36L17 36L17 35ZM26 36L26 37L27 37L27 36ZM0 0L0 7L7 7L7 0ZM1 1L1 6L6 6L6 1ZM2 2L2 5L5 5L5 2ZM30 0L30 7L37 7L37 0ZM31 1L31 6L36 6L36 1ZM32 2L32 5L35 5L35 2ZM0 30L0 37L7 37L7 30ZM1 31L1 36L6 36L6 31ZM2 32L2 35L5 35L5 32Z" fill="#000000"/></g></g></svg>
