<?xml version="1.0" encoding="UTF-8"?>
<svg xmlns="http://www.w3.org/2000/svg" version="1.1" width="300" height="300" viewBox="0 0 300 300"><rect x="0" y="0" width="300" height="300" fill="#ffffff"/><g transform="scale(8.108)"><g transform="translate(0,0)"><path fill-rule="evenodd" d="M10 0L10 1L8 1L8 2L9 2L9 3L8 3L8 5L10 5L10 7L9 7L9 6L8 6L8 9L9 9L9 8L10 8L10 9L11 9L11 8L12 8L12 11L13 11L13 12L12 12L12 14L13 14L13 12L14 12L14 11L15 11L15 13L14 13L14 15L13 15L13 16L12 16L12 15L11 15L11 18L10 18L10 19L9 19L9 20L8 20L8 21L7 21L7 20L4 20L4 22L6 22L6 23L3 23L3 21L2 21L2 23L1 23L1 20L0 20L0 29L1 29L1 27L2 27L2 29L4 29L4 28L6 28L6 29L7 29L7 28L8 28L8 30L9 30L9 28L11 28L11 30L12 30L12 32L11 32L11 34L9 34L9 31L8 31L8 34L9 34L9 35L8 35L8 36L9 36L9 37L11 37L11 36L10 36L10 35L13 35L13 37L14 37L14 36L15 36L15 33L16 33L16 35L17 35L17 36L16 36L16 37L17 37L17 36L19 36L19 37L20 37L20 36L19 36L19 33L20 33L20 34L21 34L21 35L22 35L22 34L23 34L23 33L22 33L22 31L20 31L20 29L21 29L21 30L23 30L23 31L24 31L24 33L25 33L25 34L24 34L24 35L25 35L25 36L24 36L24 37L26 37L26 33L25 33L25 32L26 32L26 30L27 30L27 28L28 28L28 31L27 31L27 34L28 34L28 33L30 33L30 34L31 34L31 35L32 35L32 37L34 37L34 36L36 36L36 37L37 37L37 34L35 34L35 35L33 35L33 34L31 34L31 33L33 33L33 29L34 29L34 31L35 31L35 33L36 33L36 32L37 32L37 30L35 30L35 29L36 29L36 28L37 28L37 26L36 26L36 25L33 25L33 24L32 24L32 23L34 23L34 24L36 24L36 23L34 23L34 22L35 22L35 21L36 21L36 22L37 22L37 18L36 18L36 17L37 17L37 14L35 14L35 15L33 15L33 13L31 13L31 12L33 12L33 11L31 11L31 10L32 10L32 9L34 9L34 10L35 10L35 11L34 11L34 13L35 13L35 12L36 12L36 13L37 13L37 12L36 12L36 11L37 11L37 10L36 10L36 8L35 8L35 9L34 9L34 8L32 8L32 9L31 9L31 8L29 8L29 9L28 9L28 7L29 7L29 5L28 5L28 7L27 7L27 4L28 4L28 3L29 3L29 0L28 0L28 2L27 2L27 4L25 4L25 3L24 3L24 2L25 2L25 1L24 1L24 0L18 0L18 2L17 2L17 1L16 1L16 0L15 0L15 2L14 2L14 1L13 1L13 2L11 2L11 0ZM20 1L20 2L21 2L21 1ZM22 1L22 2L23 2L23 1ZM10 2L10 5L13 5L13 7L12 7L12 6L11 6L11 7L10 7L10 8L11 8L11 7L12 7L12 8L14 8L14 6L15 6L15 9L14 9L14 10L16 10L16 11L17 11L17 12L16 12L16 13L17 13L17 12L18 12L18 14L15 14L15 15L14 15L14 16L13 16L13 17L14 17L14 19L13 19L13 18L12 18L12 19L13 19L13 20L11 20L11 19L10 19L10 22L11 22L11 21L13 21L13 20L14 20L14 21L16 21L16 22L15 22L15 23L14 23L14 22L12 22L12 24L11 24L11 23L9 23L9 25L6 25L6 26L4 26L4 27L3 27L3 28L4 28L4 27L6 27L6 28L7 28L7 27L6 27L6 26L9 26L9 27L8 27L8 28L9 28L9 27L10 27L10 26L13 26L13 28L14 28L14 29L16 29L16 30L14 30L14 31L16 31L16 33L17 33L17 31L16 31L16 30L18 30L18 33L19 33L19 32L20 32L20 31L19 31L19 30L18 30L18 28L19 28L19 29L20 29L20 28L21 28L21 27L25 27L25 28L27 28L27 27L28 27L28 28L29 28L29 27L28 27L28 23L29 23L29 24L30 24L30 23L29 23L29 21L30 21L30 22L31 22L31 23L32 23L32 22L31 22L31 21L30 21L30 20L32 20L32 19L33 19L33 21L35 21L35 20L36 20L36 18L34 18L34 17L33 17L33 16L31 16L31 17L29 17L29 18L28 18L28 19L26 19L26 21L25 21L25 20L24 20L24 19L25 19L25 18L27 18L27 17L25 17L25 16L26 16L26 15L27 15L27 16L29 16L29 14L30 14L30 15L31 15L31 13L30 13L30 12L31 12L31 11L30 11L30 9L29 9L29 11L30 11L30 12L29 12L29 13L27 13L27 14L25 14L25 13L26 13L26 11L23 11L23 9L22 9L22 6L23 6L23 7L24 7L24 9L25 9L25 10L26 10L26 9L25 9L25 8L26 8L26 6L25 6L25 7L24 7L24 5L25 5L25 4L24 4L24 5L23 5L23 3L22 3L22 5L21 5L21 7L20 7L20 4L21 4L21 3L20 3L20 4L19 4L19 3L17 3L17 2L16 2L16 3L13 3L13 4L11 4L11 2ZM16 3L16 4L15 4L15 6L16 6L16 7L17 7L17 6L16 6L16 5L18 5L18 8L17 8L17 9L21 9L21 8L20 8L20 7L19 7L19 5L18 5L18 4L17 4L17 3ZM13 4L13 5L14 5L14 4ZM1 8L1 11L0 11L0 12L1 12L1 11L2 11L2 12L3 12L3 11L4 11L4 12L5 12L5 14L6 14L6 15L7 15L7 16L6 16L6 17L7 17L7 16L8 16L8 15L9 15L9 14L11 14L11 13L8 13L8 14L6 14L6 13L7 13L7 12L5 12L5 11L7 11L7 10L6 10L6 9L7 9L7 8L3 8L3 9L4 9L4 10L3 10L3 11L2 11L2 8ZM27 9L27 10L28 10L28 9ZM9 10L9 12L10 12L10 11L11 11L11 10ZM18 10L18 12L21 12L21 13L20 13L20 14L19 14L19 15L20 15L20 16L17 16L17 15L16 15L16 16L14 16L14 17L15 17L15 19L17 19L17 20L16 20L16 21L17 21L17 20L18 20L18 19L17 19L17 18L19 18L19 17L20 17L20 18L21 18L21 17L22 17L22 16L21 16L21 15L23 15L23 14L24 14L24 13L25 13L25 12L21 12L21 11L22 11L22 10L21 10L21 11L19 11L19 10ZM27 11L27 12L28 12L28 11ZM1 13L1 14L0 14L0 16L1 16L1 14L4 14L4 13ZM21 13L21 14L22 14L22 13ZM27 14L27 15L28 15L28 14ZM2 15L2 16L3 16L3 15ZM4 15L4 16L5 16L5 15ZM35 15L35 17L36 17L36 15ZM9 16L9 17L8 17L8 18L9 18L9 17L10 17L10 16ZM20 16L20 17L21 17L21 16ZM23 16L23 18L22 18L22 19L24 19L24 18L25 18L25 17L24 17L24 16ZM0 17L0 18L1 18L1 19L2 19L2 20L3 20L3 19L2 19L2 18L3 18L3 17L2 17L2 18L1 18L1 17ZM4 17L4 18L5 18L5 19L7 19L7 18L5 18L5 17ZM30 18L30 19L28 19L28 20L27 20L27 22L26 22L26 24L25 24L25 23L24 23L24 22L25 22L25 21L24 21L24 22L23 22L23 20L22 20L22 21L21 21L21 20L20 20L20 22L19 22L19 23L20 23L20 25L18 25L18 24L17 24L17 23L18 23L18 22L17 22L17 23L16 23L16 24L14 24L14 25L13 25L13 26L15 26L15 27L16 27L16 29L17 29L17 28L18 28L18 27L16 27L16 26L19 26L19 27L21 27L21 26L25 26L25 27L27 27L27 26L25 26L25 25L27 25L27 23L28 23L28 21L29 21L29 20L30 20L30 19L32 19L32 18ZM33 18L33 19L34 19L34 18ZM6 21L6 22L7 22L7 23L6 23L6 24L8 24L8 22L7 22L7 21ZM22 22L22 23L21 23L21 25L22 25L22 24L23 24L23 22ZM3 24L3 25L5 25L5 24ZM24 24L24 25L25 25L25 24ZM31 24L31 25L32 25L32 24ZM9 25L9 26L10 26L10 25ZM15 25L15 26L16 26L16 25ZM31 26L31 28L32 28L32 27L33 27L33 26ZM34 26L34 29L35 29L35 27L36 27L36 26ZM11 27L11 28L12 28L12 27ZM12 29L12 30L13 30L13 29ZM23 29L23 30L25 30L25 29ZM29 29L29 32L32 32L32 29ZM30 30L30 31L31 31L31 30ZM12 32L12 33L15 33L15 32ZM21 33L21 34L22 34L22 33ZM13 34L13 35L14 35L14 34ZM17 34L17 35L18 35L18 34ZM29 35L29 36L28 36L28 37L29 37L29 36L30 36L30 37L31 37L31 36L30 36L30 35ZM21 36L21 37L23 37L23 36ZM0 0L0 7L7 7L7 0ZM1 1L1 6L6 6L6 1ZM2 2L2 5L5 5L5 2ZM30 0L30 7L37 7L37 0ZM31 1L31 6L36 6L36 1ZM32 2L32 5L35 5L35 2ZM0 30L0 37L7 37L7 30ZM1 31L1 36L6 36L6 31ZM2 32L2 35L5 35L5 32Z" fill="#000000"/></g></g></svg>
