<?xml version="1.0" encoding="UTF-8"?>
<svg xmlns="http://www.w3.org/2000/svg" version="1.1" width="300" height="300" viewBox="0 0 300 300"><rect x="0" y="0" width="300" height="300" fill="#ffffff"/><g transform="scale(8.108)"><g transform="translate(0,0)"><path fill-rule="evenodd" d="M9 0L9 1L8 1L8 3L11 3L11 6L10 6L10 4L9 4L9 6L8 6L8 7L9 7L9 8L10 8L10 7L11 7L11 8L13 8L13 10L10 10L10 9L9 9L9 10L8 10L8 11L7 11L7 10L5 10L5 9L7 9L7 8L5 8L5 9L4 9L4 8L1 8L1 10L0 10L0 11L2 11L2 13L1 13L1 12L0 12L0 15L1 15L1 17L2 17L2 18L3 18L3 20L2 20L2 19L1 19L1 18L0 18L0 20L2 20L2 21L4 21L4 20L5 20L5 19L7 19L7 20L6 20L6 21L5 21L5 23L3 23L3 22L2 22L2 26L1 26L1 27L0 27L0 28L1 28L1 27L3 27L3 28L2 28L2 29L4 29L4 27L3 27L3 26L6 26L6 27L7 27L7 28L6 28L6 29L8 29L8 30L9 30L9 29L11 29L11 27L12 27L12 30L10 30L10 31L13 31L13 32L12 32L12 33L10 33L10 32L9 32L9 31L8 31L8 32L9 32L9 33L8 33L8 36L9 36L9 37L16 37L16 35L15 35L15 34L16 34L16 33L17 33L17 34L18 34L18 35L19 35L19 36L20 36L20 37L22 37L22 36L20 36L20 35L19 35L19 33L21 33L21 34L22 34L22 33L21 33L21 32L22 32L22 31L23 31L23 32L25 32L25 29L26 29L26 31L27 31L27 32L26 32L26 33L25 33L25 35L23 35L23 37L25 37L25 35L26 35L26 33L27 33L27 36L26 36L26 37L28 37L28 34L29 34L29 33L30 33L30 37L32 37L32 36L31 36L31 34L32 34L32 35L34 35L34 37L37 37L37 36L35 36L35 35L36 35L36 34L33 34L33 33L34 33L34 32L33 32L33 31L35 31L35 30L36 30L36 31L37 31L37 29L36 29L36 28L37 28L37 27L36 27L36 26L37 26L37 25L36 25L36 24L37 24L37 21L36 21L36 19L37 19L37 17L35 17L35 16L34 16L34 18L33 18L33 19L32 19L32 21L34 21L34 20L33 20L33 19L35 19L35 21L36 21L36 24L35 24L35 22L34 22L34 25L32 25L32 23L33 23L33 22L32 22L32 23L31 23L31 24L30 24L30 22L28 22L28 24L30 24L30 25L32 25L32 26L35 26L35 27L34 27L34 28L35 28L35 29L34 29L34 30L33 30L33 28L31 28L31 27L30 27L30 26L29 26L29 25L28 25L28 26L26 26L26 25L25 25L25 26L24 26L24 27L23 27L23 28L22 28L22 29L21 29L21 27L22 27L22 25L23 25L23 23L25 23L25 24L27 24L27 21L28 21L28 20L27 20L27 21L26 21L26 20L24 20L24 19L23 19L23 18L21 18L21 17L19 17L19 18L18 18L18 16L17 16L17 15L15 15L15 14L14 14L14 13L13 13L13 12L15 12L15 13L16 13L16 14L17 14L17 13L18 13L18 12L19 12L19 13L20 13L20 12L21 12L21 13L22 13L22 15L21 15L21 16L23 16L23 17L25 17L25 18L26 18L26 17L27 17L27 19L29 19L29 18L30 18L30 19L31 19L31 18L32 18L32 17L30 17L30 16L32 16L32 15L31 15L31 14L33 14L33 15L34 15L34 13L33 13L33 11L34 11L34 12L36 12L36 14L37 14L37 11L34 11L34 9L36 9L36 8L34 8L34 9L30 9L30 10L33 10L33 11L32 11L32 13L31 13L31 11L29 11L29 10L28 10L28 8L27 8L27 5L28 5L28 4L29 4L29 3L28 3L28 2L27 2L27 3L26 3L26 4L25 4L25 2L26 2L26 1L27 1L27 0L25 0L25 2L22 2L22 3L23 3L23 4L22 4L22 5L23 5L23 6L22 6L22 8L21 8L21 9L20 9L20 7L21 7L21 5L18 5L18 4L17 4L17 3L19 3L19 4L21 4L21 2L19 2L19 0L18 0L18 2L17 2L17 3L16 3L16 1L15 1L15 0L13 0L13 1L12 1L12 0L11 0L11 1L10 1L10 0ZM21 0L21 1L22 1L22 0ZM13 1L13 2L12 2L12 6L11 6L11 7L12 7L12 6L13 6L13 7L14 7L14 6L15 6L15 7L16 7L16 8L15 8L15 9L17 9L17 10L13 10L13 11L11 11L11 12L13 12L13 11L17 11L17 12L16 12L16 13L17 13L17 12L18 12L18 10L19 10L19 9L17 9L17 7L18 7L18 6L17 6L17 5L16 5L16 3L15 3L15 4L14 4L14 6L13 6L13 3L14 3L14 2L15 2L15 1ZM15 5L15 6L16 6L16 7L17 7L17 6L16 6L16 5ZM24 5L24 6L23 6L23 8L22 8L22 10L20 10L20 11L19 11L19 12L20 12L20 11L21 11L21 12L22 12L22 13L23 13L23 15L24 15L24 14L26 14L26 15L25 15L25 16L27 16L27 17L28 17L28 18L29 18L29 15L28 15L28 14L30 14L30 12L28 12L28 10L27 10L27 9L25 9L25 8L24 8L24 6L25 6L25 7L26 7L26 5ZM9 6L9 7L10 7L10 6ZM19 6L19 7L20 7L20 6ZM28 6L28 7L29 7L29 6ZM23 8L23 11L25 11L25 13L26 13L26 14L27 14L27 13L28 13L28 12L27 12L27 13L26 13L26 11L25 11L25 10L24 10L24 8ZM2 10L2 11L3 11L3 12L4 12L4 19L5 19L5 17L6 17L6 18L7 18L7 17L10 17L10 18L11 18L11 21L10 21L10 22L9 22L9 23L10 23L10 22L11 22L11 24L9 24L9 25L8 25L8 26L7 26L7 25L6 25L6 24L8 24L8 22L7 22L7 21L8 21L8 20L10 20L10 19L8 19L8 20L7 20L7 21L6 21L6 22L7 22L7 23L6 23L6 24L5 24L5 25L6 25L6 26L7 26L7 27L8 27L8 29L9 29L9 28L10 28L10 25L11 25L11 24L13 24L13 23L14 23L14 25L13 25L13 27L14 27L14 29L13 29L13 30L14 30L14 32L16 32L16 31L15 31L15 30L17 30L17 32L18 32L18 31L19 31L19 32L20 32L20 30L21 30L21 31L22 31L22 30L21 30L21 29L20 29L20 27L19 27L19 26L21 26L21 25L22 25L22 23L19 23L19 21L20 21L20 22L21 22L21 21L20 21L20 20L22 20L22 19L20 19L20 20L19 20L19 19L18 19L18 20L17 20L17 16L14 16L14 14L13 14L13 13L11 13L11 14L10 14L10 15L11 15L11 16L7 16L7 15L6 15L6 14L8 14L8 13L5 13L5 12L4 12L4 11L5 11L5 10ZM6 11L6 12L7 12L7 11ZM8 11L8 12L9 12L9 11ZM23 12L23 13L24 13L24 12ZM1 14L1 15L2 15L2 16L3 16L3 14ZM11 14L11 15L12 15L12 16L11 16L11 17L12 17L12 16L13 16L13 14ZM18 14L18 15L19 15L19 14ZM36 15L36 16L37 16L37 15ZM6 16L6 17L7 17L7 16ZM14 17L14 18L15 18L15 17ZM35 18L35 19L36 19L36 18ZM13 19L13 20L14 20L14 21L11 21L11 22L12 22L12 23L13 23L13 22L14 22L14 23L15 23L15 24L16 24L16 23L17 23L17 24L18 24L18 21L19 21L19 20L18 20L18 21L16 21L16 22L14 22L14 21L15 21L15 20L16 20L16 19L15 19L15 20L14 20L14 19ZM23 20L23 21L22 21L22 22L24 22L24 20ZM29 20L29 21L30 21L30 20ZM0 21L0 22L1 22L1 21ZM25 21L25 23L26 23L26 21ZM0 24L0 25L1 25L1 24ZM3 24L3 25L4 25L4 24ZM20 24L20 25L21 25L21 24ZM14 25L14 26L15 26L15 25ZM16 25L16 26L17 26L17 27L18 27L18 29L17 29L17 30L19 30L19 27L18 27L18 26L19 26L19 25L18 25L18 26L17 26L17 25ZM8 26L8 27L9 27L9 26ZM15 27L15 29L16 29L16 27ZM25 27L25 28L24 28L24 29L25 29L25 28L26 28L26 27ZM27 27L27 28L28 28L28 27ZM27 29L27 31L28 31L28 29ZM29 29L29 32L32 32L32 29ZM23 30L23 31L24 31L24 30ZM30 30L30 31L31 31L31 30ZM27 32L27 33L28 33L28 32ZM35 32L35 33L37 33L37 32ZM9 33L9 34L10 34L10 33ZM13 33L13 34L12 34L12 35L13 35L13 34L14 34L14 33ZM14 35L14 36L15 36L15 35ZM0 0L0 7L7 7L7 0ZM1 1L1 6L6 6L6 1ZM2 2L2 5L5 5L5 2ZM30 0L30 7L37 7L37 0ZM31 1L31 6L36 6L36 1ZM32 2L32 5L35 5L35 2ZM0 30L0 37L7 37L7 30ZM1 31L1 36L6 36L6 31ZM2 32L2 35L5 35L5 32Z" fill="#000000"/></g></g></svg>
