<?xml version="1.0" encoding="UTF-8"?>
<svg xmlns="http://www.w3.org/2000/svg" version="1.1" width="300" height="300" viewBox="0 0 300 300"><rect x="0" y="0" width="300" height="300" fill="#ffffff"/><g transform="scale(8.108)"><g transform="translate(0,0)"><path fill-rule="evenodd" d="M8 0L8 1L9 1L9 0ZM11 0L11 1L10 1L10 2L9 2L9 4L8 4L8 7L9 7L9 4L10 4L10 5L11 5L11 6L10 6L10 7L11 7L11 9L8 9L8 8L1 8L1 10L2 10L2 11L0 11L0 12L2 12L2 13L1 13L1 14L0 14L0 15L2 15L2 16L4 16L4 15L5 15L5 14L4 14L4 13L7 13L7 12L8 12L8 10L10 10L10 11L9 11L9 12L10 12L10 15L9 15L9 13L8 13L8 15L9 15L9 16L5 16L5 17L4 17L4 18L6 18L6 19L7 19L7 20L6 20L6 21L7 21L7 22L5 22L5 19L2 19L2 18L1 18L1 16L0 16L0 19L1 19L1 20L0 20L0 29L1 29L1 24L2 24L2 25L3 25L3 24L4 24L4 26L2 26L2 27L3 27L3 29L4 29L4 28L6 28L6 29L7 29L7 28L6 28L6 27L8 27L8 28L10 28L10 27L12 27L12 28L13 28L13 27L15 27L15 28L14 28L14 29L13 29L13 30L10 30L10 29L8 29L8 36L9 36L9 37L10 37L10 36L11 36L11 37L13 37L13 36L12 36L12 35L14 35L14 34L15 34L15 36L16 36L16 37L19 37L19 36L18 36L18 34L19 34L19 33L18 33L18 31L16 31L16 30L18 30L18 29L19 29L19 32L20 32L20 33L21 33L21 34L20 34L20 35L21 35L21 36L20 36L20 37L22 37L22 36L23 36L23 37L25 37L25 36L26 36L26 37L28 37L28 36L29 36L29 34L34 34L34 35L30 35L30 36L31 36L31 37L32 37L32 36L34 36L34 37L37 37L37 34L36 34L36 36L34 36L34 35L35 35L35 34L34 34L34 33L36 33L36 32L37 32L37 30L36 30L36 29L37 29L37 26L36 26L36 24L34 24L34 23L36 23L36 22L37 22L37 18L36 18L36 17L37 17L37 14L36 14L36 13L37 13L37 10L36 10L36 9L37 9L37 8L36 8L36 9L35 9L35 10L36 10L36 12L35 12L35 13L33 13L33 12L34 12L34 11L33 11L33 10L34 10L34 9L33 9L33 8L31 8L31 9L30 9L30 10L32 10L32 11L29 11L29 10L28 10L28 9L29 9L29 8L26 8L26 7L27 7L27 6L28 6L28 7L29 7L29 4L28 4L28 3L29 3L29 1L27 1L27 0L25 0L25 1L23 1L23 2L21 2L21 1L22 1L22 0L21 0L21 1L20 1L20 3L19 3L19 4L21 4L21 6L20 6L20 5L18 5L18 7L17 7L17 5L16 5L16 7L15 7L15 6L14 6L14 7L13 7L13 6L12 6L12 5L15 5L15 4L12 4L12 3L14 3L14 1L13 1L13 2L11 2L11 1L12 1L12 0ZM16 0L16 1L15 1L15 3L16 3L16 1L19 1L19 0ZM24 2L24 3L25 3L25 4L22 4L22 3L21 3L21 4L22 4L22 6L21 6L21 7L22 7L22 8L21 8L21 9L18 9L18 8L20 8L20 6L19 6L19 7L18 7L18 8L17 8L17 7L16 7L16 8L17 8L17 10L16 10L16 11L15 11L15 10L12 10L12 11L10 11L10 12L11 12L11 14L13 14L13 11L14 11L14 12L16 12L16 13L17 13L17 12L18 12L18 13L21 13L21 11L19 11L19 12L18 12L18 11L17 11L17 10L21 10L21 9L22 9L22 11L23 11L23 12L22 12L22 13L25 13L25 14L22 14L22 15L25 15L25 16L22 16L22 17L23 17L23 20L21 20L21 21L22 21L22 22L21 22L21 23L20 23L20 24L19 24L19 22L20 22L20 21L19 21L19 19L18 19L18 16L19 16L19 18L20 18L20 14L17 14L17 15L16 15L16 14L15 14L15 13L14 13L14 14L15 14L15 15L16 15L16 17L17 17L17 19L16 19L16 18L15 18L15 19L16 19L16 21L15 21L15 20L14 20L14 22L13 22L13 20L10 20L10 22L9 22L9 21L8 21L8 22L7 22L7 23L6 23L6 24L5 24L5 23L4 23L4 24L5 24L5 25L6 25L6 26L7 26L7 25L8 25L8 27L9 27L9 26L11 26L11 24L14 24L14 25L13 25L13 26L12 26L12 27L13 27L13 26L15 26L15 25L17 25L17 27L16 27L16 28L15 28L15 30L16 30L16 29L17 29L17 28L18 28L18 25L20 25L20 24L21 24L21 26L19 26L19 28L20 28L20 27L21 27L21 28L23 28L23 29L20 29L20 31L21 31L21 32L23 32L23 33L22 33L22 35L23 35L23 34L25 34L25 33L24 33L24 32L26 32L26 30L25 30L25 29L24 29L24 28L26 28L26 29L27 29L27 31L28 31L28 27L30 27L30 28L34 28L34 29L33 29L33 31L34 31L34 32L33 32L33 33L34 33L34 32L35 32L35 31L36 31L36 30L35 30L35 28L34 28L34 27L33 27L33 26L34 26L34 24L33 24L33 23L32 23L32 22L33 22L33 21L34 21L34 22L36 22L36 21L34 21L34 20L36 20L36 18L35 18L35 17L34 17L34 16L36 16L36 14L33 14L33 13L29 13L29 11L28 11L28 14L30 14L30 15L31 15L31 17L28 17L28 16L29 16L29 15L28 15L28 16L27 16L27 9L26 9L26 8L25 8L25 7L26 7L26 6L25 6L25 7L24 7L24 6L23 6L23 5L25 5L25 4L26 4L26 5L28 5L28 4L26 4L26 3L27 3L27 2L26 2L26 3L25 3L25 2ZM10 3L10 4L11 4L11 5L12 5L12 4L11 4L11 3ZM11 6L11 7L12 7L12 9L14 9L14 8L15 8L15 7L14 7L14 8L13 8L13 7L12 7L12 6ZM22 6L22 7L23 7L23 8L22 8L22 9L23 9L23 10L25 10L25 11L26 11L26 10L25 10L25 9L24 9L24 7L23 7L23 6ZM5 9L5 10L4 10L4 12L3 12L3 13L4 13L4 12L7 12L7 11L5 11L5 10L7 10L7 9ZM25 12L25 13L26 13L26 12ZM2 14L2 15L3 15L3 14ZM6 14L6 15L7 15L7 14ZM32 14L32 15L33 15L33 16L32 16L32 17L33 17L33 16L34 16L34 15L33 15L33 14ZM12 15L12 16L13 16L13 18L12 18L12 17L11 17L11 16L10 16L10 17L11 17L11 19L13 19L13 18L14 18L14 16L13 16L13 15ZM25 16L25 17L24 17L24 18L25 18L25 17L26 17L26 16ZM6 17L6 18L8 18L8 17ZM9 18L9 19L10 19L10 18ZM27 18L27 19L26 19L26 20L27 20L27 21L26 21L26 22L27 22L27 23L26 23L26 24L27 24L27 25L25 25L25 23L24 23L24 25L23 25L23 24L22 24L22 23L23 23L23 22L22 22L22 23L21 23L21 24L22 24L22 25L23 25L23 26L22 26L22 27L23 27L23 28L24 28L24 27L25 27L25 26L26 26L26 28L27 28L27 26L30 26L30 27L32 27L32 26L31 26L31 25L32 25L32 24L31 24L31 22L30 22L30 21L33 21L33 20L34 20L34 18L29 18L29 20L30 20L30 21L28 21L28 20L27 20L27 19L28 19L28 18ZM24 19L24 20L25 20L25 19ZM30 19L30 20L31 20L31 19ZM32 19L32 20L33 20L33 19ZM3 20L3 21L4 21L4 20ZM1 21L1 23L2 23L2 24L3 24L3 22L2 22L2 21ZM24 21L24 22L25 22L25 21ZM27 21L27 22L28 22L28 21ZM8 22L8 23L9 23L9 22ZM15 22L15 23L16 23L16 24L17 24L17 22ZM29 22L29 23L28 23L28 25L30 25L30 24L29 24L29 23L30 23L30 22ZM6 24L6 25L7 25L7 24ZM9 24L9 25L10 25L10 24ZM24 25L24 26L23 26L23 27L24 27L24 26L25 26L25 25ZM4 26L4 27L5 27L5 26ZM35 26L35 27L36 27L36 26ZM23 29L23 30L22 30L22 31L23 31L23 32L24 32L24 31L23 31L23 30L24 30L24 29ZM29 29L29 32L32 32L32 29ZM9 30L9 31L10 31L10 32L9 32L9 33L10 33L10 32L11 32L11 33L13 33L13 34L14 34L14 33L15 33L15 34L18 34L18 33L15 33L15 32L11 32L11 31L10 31L10 30ZM13 30L13 31L14 31L14 30ZM30 30L30 31L31 31L31 30ZM34 30L34 31L35 31L35 30ZM26 33L26 34L27 34L27 33ZM28 33L28 34L29 34L29 33ZM9 34L9 36L10 36L10 34ZM11 34L11 35L12 35L12 34ZM16 35L16 36L17 36L17 35ZM24 35L24 36L25 36L25 35ZM26 35L26 36L28 36L28 35ZM0 0L0 7L7 7L7 0ZM1 1L1 6L6 6L6 1ZM2 2L2 5L5 5L5 2ZM30 0L30 7L37 7L37 0ZM31 1L31 6L36 6L36 1ZM32 2L32 5L35 5L35 2ZM0 30L0 37L7 37L7 30ZM1 31L1 36L6 36L6 31ZM2 32L2 35L5 35L5 32Z" fill="#000000"/></g></g></svg>
