<?xml version="1.0" encoding="UTF-8"?>
<svg xmlns="http://www.w3.org/2000/svg" version="1.1" width="300" height="300" viewBox="0 0 300 300"><rect x="0" y="0" width="300" height="300" fill="#ffffff"/><g transform="scale(8.108)"><g transform="translate(0,0)"><path fill-rule="evenodd" d="M11 0L11 3L10 3L10 4L9 4L9 5L10 5L10 4L12 4L12 7L13 7L13 8L11 8L11 6L10 6L10 9L9 9L9 10L6 10L6 11L4 11L4 12L3 12L3 11L2 11L2 10L5 10L5 9L7 9L7 8L5 8L5 9L4 9L4 8L1 8L1 11L0 11L0 12L1 12L1 14L2 14L2 16L1 16L1 17L0 17L0 18L3 18L3 17L4 17L4 19L0 19L0 22L1 22L1 20L2 20L2 22L3 22L3 24L2 24L2 26L1 26L1 27L0 27L0 28L1 28L1 27L3 27L3 28L2 28L2 29L3 29L3 28L4 28L4 27L3 27L3 26L5 26L5 27L7 27L7 26L8 26L8 27L10 27L10 25L11 25L11 24L13 24L13 25L12 25L12 26L11 26L11 27L12 27L12 26L15 26L15 25L14 25L14 23L16 23L16 24L17 24L17 25L16 25L16 26L17 26L17 27L18 27L18 26L19 26L19 27L20 27L20 28L18 28L18 29L17 29L17 28L16 28L16 27L13 27L13 28L10 28L10 31L11 31L11 29L12 29L12 30L13 30L13 28L15 28L15 29L14 29L14 31L13 31L13 32L11 32L11 33L10 33L10 32L9 32L9 31L8 31L8 32L9 32L9 33L8 33L8 36L9 36L9 37L10 37L10 36L9 36L9 34L10 34L10 35L11 35L11 37L14 37L14 35L12 35L12 34L14 34L14 33L13 33L13 32L17 32L17 33L16 33L16 34L15 34L15 35L16 35L16 34L18 34L18 36L16 36L16 37L19 37L19 36L20 36L20 37L22 37L22 36L20 36L20 35L19 35L19 33L21 33L21 34L22 34L22 33L21 33L21 32L22 32L22 31L23 31L23 33L24 33L24 31L23 31L23 30L25 30L25 29L26 29L26 31L27 31L27 30L28 30L28 33L25 33L25 35L23 35L23 37L25 37L25 35L26 35L26 34L28 34L28 33L29 33L29 35L31 35L31 36L29 36L29 37L32 37L32 36L33 36L33 37L37 37L37 36L35 36L35 35L36 35L36 34L35 34L35 33L37 33L37 32L35 32L35 33L34 33L34 32L33 32L33 28L31 28L31 26L30 26L30 27L29 27L29 25L28 25L28 23L27 23L27 21L26 21L26 20L24 20L24 19L22 19L22 20L21 20L21 23L22 23L22 25L20 25L20 22L19 22L19 20L20 20L20 19L21 19L21 17L20 17L20 14L21 14L21 13L22 13L22 15L21 15L21 16L23 16L23 17L25 17L25 18L26 18L26 17L27 17L27 19L31 19L31 20L32 20L32 21L33 21L33 22L32 22L32 23L31 23L31 24L30 24L30 21L29 21L29 20L28 20L28 22L29 22L29 24L30 24L30 25L32 25L32 26L35 26L35 27L34 27L34 28L35 28L35 27L36 27L36 28L37 28L37 27L36 27L36 26L37 26L37 25L36 25L36 24L37 24L37 21L36 21L36 19L37 19L37 17L36 17L36 18L35 18L35 16L34 16L34 17L33 17L33 18L35 18L35 21L36 21L36 24L35 24L35 22L34 22L34 20L33 20L33 19L32 19L32 17L30 17L30 18L28 18L28 17L27 17L27 16L25 16L25 15L23 15L23 13L22 13L22 12L21 12L21 13L20 13L20 8L21 8L21 10L23 10L23 12L25 12L25 13L26 13L26 14L27 14L27 13L28 13L28 12L30 12L30 14L29 14L29 15L28 15L28 16L31 16L31 15L35 15L35 14L33 14L33 11L34 11L34 12L35 12L35 11L36 11L36 14L37 14L37 11L36 11L36 8L34 8L34 9L30 9L30 10L28 10L28 9L27 9L27 5L29 5L29 4L28 4L28 3L29 3L29 2L27 2L27 3L26 3L26 4L25 4L25 2L26 2L26 1L27 1L27 0L25 0L25 2L22 2L22 0L21 0L21 2L19 2L19 0L17 0L17 1L16 1L16 2L15 2L15 4L13 4L13 3L14 3L14 2L13 2L13 1L12 1L12 0ZM8 1L8 3L9 3L9 2L10 2L10 1ZM17 1L17 2L18 2L18 3L17 3L17 4L15 4L15 5L14 5L14 6L13 6L13 7L14 7L14 6L15 6L15 9L18 9L18 8L20 8L20 5L23 5L23 4L22 4L22 2L21 2L21 3L20 3L20 5L18 5L18 3L19 3L19 2L18 2L18 1ZM12 2L12 3L13 3L13 2ZM15 5L15 6L16 6L16 8L17 8L17 6L16 6L16 5ZM24 5L24 6L23 6L23 8L24 8L24 11L26 11L26 13L27 13L27 12L28 12L28 10L27 10L27 9L25 9L25 8L24 8L24 6L25 6L25 7L26 7L26 5ZM8 6L8 7L9 7L9 6ZM18 6L18 7L19 7L19 6ZM21 6L21 8L22 8L22 6ZM28 6L28 7L29 7L29 6ZM10 9L10 10L11 10L11 11L12 11L12 10L13 10L13 13L12 13L12 12L9 12L9 11L8 11L8 12L7 12L7 11L6 11L6 12L4 12L4 13L2 13L2 14L4 14L4 15L3 15L3 16L2 16L2 17L3 17L3 16L4 16L4 17L6 17L6 18L7 18L7 17L6 17L6 16L8 16L8 17L10 17L10 18L9 18L9 19L8 19L8 20L7 20L7 19L6 19L6 20L5 20L5 19L4 19L4 20L5 20L5 22L4 22L4 21L3 21L3 22L4 22L4 23L5 23L5 24L3 24L3 25L5 25L5 26L7 26L7 25L6 25L6 24L7 24L7 23L8 23L8 24L9 24L9 23L10 23L10 24L11 24L11 23L12 23L12 22L11 22L11 21L12 21L12 20L15 20L15 18L16 18L16 16L15 16L15 17L14 17L14 14L15 14L15 15L16 15L16 14L17 14L17 16L18 16L18 17L17 17L17 19L16 19L16 21L15 21L15 22L16 22L16 23L17 23L17 24L18 24L18 25L19 25L19 22L16 22L16 21L18 21L18 20L19 20L19 19L18 19L18 18L19 18L19 15L18 15L18 13L19 13L19 10L14 10L14 9ZM34 9L34 11L35 11L35 9ZM30 10L30 12L32 12L32 11L33 11L33 10ZM14 11L14 12L15 12L15 13L16 13L16 12L18 12L18 11ZM6 12L6 13L7 13L7 14L6 14L6 15L8 15L8 16L11 16L11 17L12 17L12 16L11 16L11 15L13 15L13 14L12 14L12 13L9 13L9 12L8 12L8 13L7 13L7 12ZM8 13L8 15L9 15L9 13ZM31 13L31 14L32 14L32 13ZM10 14L10 15L11 15L11 14ZM36 15L36 16L37 16L37 15ZM13 17L13 19L14 19L14 17ZM9 19L9 20L8 20L8 21L9 21L9 22L8 22L8 23L9 23L9 22L10 22L10 20L11 20L11 19ZM6 20L6 21L7 21L7 20ZM23 20L23 21L22 21L22 23L23 23L23 25L22 25L22 27L21 27L21 26L20 26L20 27L21 27L21 28L20 28L20 29L18 29L18 30L17 30L17 29L16 29L16 30L17 30L17 32L18 32L18 31L19 31L19 32L21 32L21 31L22 31L22 30L21 30L21 29L22 29L22 28L24 28L24 29L25 29L25 28L26 28L26 27L25 27L25 28L24 28L24 26L25 26L25 25L26 25L26 26L28 26L28 25L27 25L27 24L25 24L25 23L26 23L26 21L25 21L25 23L23 23L23 22L24 22L24 20ZM5 22L5 23L7 23L7 22ZM13 22L13 23L14 23L14 22ZM33 22L33 23L32 23L32 25L34 25L34 22ZM0 24L0 25L1 25L1 24ZM27 27L27 28L28 28L28 27ZM5 28L5 29L7 29L7 28ZM8 28L8 30L9 30L9 28ZM29 29L29 32L32 32L32 29ZM34 29L34 30L36 30L36 31L37 31L37 29ZM30 30L30 31L31 31L31 30ZM31 33L31 34L32 34L32 33ZM33 34L33 35L35 35L35 34ZM27 35L27 36L26 36L26 37L28 37L28 35ZM0 0L0 7L7 7L7 0ZM1 1L1 6L6 6L6 1ZM2 2L2 5L5 5L5 2ZM30 0L30 7L37 7L37 0ZM31 1L31 6L36 6L36 1ZM32 2L32 5L35 5L35 2ZM0 30L0 37L7 37L7 30ZM1 31L1 36L6 36L6 31ZM2 32L2 35L5 35L5 32Z" fill="#000000"/></g></g></svg>
