<?xml version="1.0" encoding="UTF-8"?>
<svg xmlns="http://www.w3.org/2000/svg" version="1.1" width="300" height="300" viewBox="0 0 300 300"><rect x="0" y="0" width="300" height="300" fill="#ffffff"/><g transform="scale(8.108)"><g transform="translate(0,0)"><path fill-rule="evenodd" d="M8 0L8 1L10 1L10 2L9 2L9 4L8 4L8 7L9 7L9 4L10 4L10 2L11 2L11 4L12 4L12 5L10 5L10 9L9 9L9 10L8 10L8 8L1 8L1 9L0 9L0 11L1 11L1 12L0 12L0 14L1 14L1 15L0 15L0 16L1 16L1 15L3 15L3 18L1 18L1 17L0 17L0 18L1 18L1 19L2 19L2 20L1 20L1 21L0 21L0 29L1 29L1 24L2 24L2 23L1 23L1 21L2 21L2 22L3 22L3 24L4 24L4 25L5 25L5 24L6 24L6 25L7 25L7 24L8 24L8 25L9 25L9 26L2 26L2 27L3 27L3 28L4 28L4 29L7 29L7 28L5 28L5 27L9 27L9 28L8 28L8 36L9 36L9 35L10 35L10 36L11 36L11 37L13 37L13 36L14 36L14 37L15 37L15 35L14 35L14 34L13 34L13 33L15 33L15 32L16 32L16 33L17 33L17 34L16 34L16 35L17 35L17 37L18 37L18 34L19 34L19 33L21 33L21 34L20 34L20 35L21 35L21 36L20 36L20 37L22 37L22 36L23 36L23 37L25 37L25 36L26 36L26 37L28 37L28 36L29 36L29 35L30 35L30 36L34 36L34 37L37 37L37 34L36 34L36 36L34 36L34 35L35 35L35 34L33 34L33 33L36 33L36 32L37 32L37 30L36 30L36 29L37 29L37 26L35 26L35 25L36 25L36 24L34 24L34 23L33 23L33 22L34 22L34 21L36 21L36 22L35 22L35 23L36 23L36 22L37 22L37 18L36 18L36 17L37 17L37 14L36 14L36 13L37 13L37 12L36 12L36 11L37 11L37 10L36 10L36 9L37 9L37 8L36 8L36 9L35 9L35 10L36 10L36 11L35 11L35 12L36 12L36 13L33 13L33 12L34 12L34 11L33 11L33 10L34 10L34 9L33 9L33 8L31 8L31 9L30 9L30 10L32 10L32 11L29 11L29 10L28 10L28 9L29 9L29 4L28 4L28 3L26 3L26 2L29 2L29 0L28 0L28 1L26 1L26 0L25 0L25 1L22 1L22 0L21 0L21 1L20 1L20 3L19 3L19 2L18 2L18 1L19 1L19 0L16 0L16 1L17 1L17 2L11 2L11 1L12 1L12 0L11 0L11 1L10 1L10 0ZM13 0L13 1L14 1L14 0ZM22 2L22 3L21 3L21 5L22 5L22 6L21 6L21 7L20 7L20 6L19 6L19 7L20 7L20 8L17 8L17 7L18 7L18 6L17 6L17 7L16 7L16 5L17 5L17 4L18 4L18 5L19 5L19 3L17 3L17 4L16 4L16 3L13 3L13 4L14 4L14 5L13 5L13 7L12 7L12 6L11 6L11 7L12 7L12 8L11 8L11 10L12 10L12 11L11 11L11 12L10 12L10 10L9 10L9 11L5 11L5 10L7 10L7 9L4 9L4 11L5 11L5 12L3 12L3 13L2 13L2 12L1 12L1 14L3 14L3 13L4 13L4 14L5 14L5 15L4 15L4 18L3 18L3 20L2 20L2 21L5 21L5 20L7 20L7 19L4 19L4 18L5 18L5 16L7 16L7 17L6 17L6 18L8 18L8 16L9 16L9 15L10 15L10 13L11 13L11 12L12 12L12 14L11 14L11 15L13 15L13 18L12 18L12 17L11 17L11 16L10 16L10 17L9 17L9 20L10 20L10 21L11 21L11 22L9 22L9 21L6 21L6 22L9 22L9 23L12 23L12 22L13 22L13 24L12 24L12 25L13 25L13 26L11 26L11 24L10 24L10 26L11 26L11 27L10 27L10 28L9 28L9 29L10 29L10 30L9 30L9 31L10 31L10 32L9 32L9 34L10 34L10 35L12 35L12 36L13 36L13 35L12 35L12 34L10 34L10 32L11 32L11 33L13 33L13 30L14 30L14 31L16 31L16 32L17 32L17 31L18 31L18 33L19 33L19 32L20 32L20 30L21 30L21 32L23 32L23 33L22 33L22 35L23 35L23 34L25 34L25 33L24 33L24 30L23 30L23 29L25 29L25 28L26 28L26 29L27 29L27 31L28 31L28 27L29 27L29 26L27 26L27 28L26 28L26 26L25 26L25 28L23 28L23 27L24 27L24 26L23 26L23 27L22 27L22 25L27 25L27 24L26 24L26 23L27 23L27 22L28 22L28 23L30 23L30 22L31 22L31 24L32 24L32 25L31 25L31 26L32 26L32 27L30 27L30 28L34 28L34 30L35 30L35 31L33 31L33 32L35 32L35 31L36 31L36 30L35 30L35 29L36 29L36 27L35 27L35 28L34 28L34 27L33 27L33 26L34 26L34 24L33 24L33 23L32 23L32 22L33 22L33 21L30 21L30 18L31 18L31 20L36 20L36 18L35 18L35 17L34 17L34 16L36 16L36 14L34 14L34 16L33 16L33 17L32 17L32 15L33 15L33 13L30 13L30 12L29 12L29 11L28 11L28 14L29 14L29 13L30 13L30 15L31 15L31 17L27 17L27 16L26 16L26 15L27 15L27 12L26 12L26 11L27 11L27 9L26 9L26 8L27 8L27 7L28 7L28 6L27 6L27 7L26 7L26 6L25 6L25 7L24 7L24 6L23 6L23 5L25 5L25 4L26 4L26 5L28 5L28 4L26 4L26 3L25 3L25 2L24 2L24 3L25 3L25 4L23 4L23 2ZM22 4L22 5L23 5L23 4ZM14 6L14 7L13 7L13 8L12 8L12 10L13 10L13 11L12 11L12 12L13 12L13 11L16 11L16 10L17 10L17 8L16 8L16 7L15 7L15 6ZM22 6L22 7L21 7L21 8L20 8L20 9L21 9L21 10L20 10L20 12L19 12L19 11L17 11L17 12L15 12L15 13L13 13L13 14L15 14L15 13L17 13L17 14L16 14L16 15L17 15L17 14L18 14L18 13L17 13L17 12L19 12L19 14L20 14L20 15L19 15L19 16L18 16L18 19L17 19L17 16L16 16L16 17L15 17L15 16L14 16L14 20L15 20L15 21L13 21L13 22L15 22L15 27L14 27L14 26L13 26L13 28L11 28L11 29L12 29L12 30L13 30L13 28L16 28L16 27L17 27L17 29L16 29L16 31L17 31L17 30L20 30L20 29L23 29L23 28L21 28L21 26L20 26L20 28L19 28L19 29L18 29L18 27L19 27L19 25L21 25L21 24L22 24L22 23L21 23L21 24L20 24L20 23L19 23L19 22L17 22L17 23L16 23L16 21L17 21L17 20L18 20L18 21L20 21L20 22L22 22L22 21L21 21L21 20L23 20L23 19L22 19L22 18L23 18L23 17L24 17L24 18L25 18L25 17L26 17L26 16L25 16L25 15L26 15L26 14L25 14L25 13L26 13L26 12L25 12L25 13L22 13L22 12L24 12L24 11L26 11L26 10L25 10L25 9L24 9L24 7L23 7L23 6ZM14 7L14 8L13 8L13 9L14 9L14 8L15 8L15 9L16 9L16 8L15 8L15 7ZM22 7L22 8L21 8L21 9L22 9L22 11L24 11L24 10L23 10L23 9L22 9L22 8L23 8L23 7ZM25 7L25 8L26 8L26 7ZM18 9L18 10L19 10L19 9ZM6 12L6 13L7 13L7 12ZM8 12L8 13L10 13L10 12ZM6 14L6 15L7 15L7 16L8 16L8 15L9 15L9 14L8 14L8 15L7 15L7 14ZM22 14L22 15L23 15L23 16L22 16L22 17L21 17L21 18L22 18L22 17L23 17L23 16L24 16L24 17L25 17L25 16L24 16L24 15L25 15L25 14ZM20 15L20 16L21 16L21 15ZM28 15L28 16L29 16L29 15ZM10 17L10 18L11 18L11 17ZM19 17L19 18L20 18L20 17ZM27 18L27 19L26 19L26 20L27 20L27 21L26 21L26 22L27 22L27 21L28 21L28 22L30 22L30 21L28 21L28 19L29 19L29 18ZM33 18L33 19L34 19L34 18ZM11 19L11 20L13 20L13 19ZM15 19L15 20L16 20L16 19ZM18 19L18 20L19 20L19 19ZM24 19L24 20L25 20L25 19ZM24 21L24 22L25 22L25 21ZM4 22L4 24L5 24L5 22ZM6 23L6 24L7 24L7 23ZM18 23L18 25L17 25L17 24L16 24L16 25L17 25L17 27L18 27L18 25L19 25L19 23ZM24 23L24 24L25 24L25 23ZM13 24L13 25L14 25L14 24ZM28 24L28 25L30 25L30 24ZM29 29L29 32L32 32L32 29ZM10 30L10 31L11 31L11 30ZM22 30L22 31L23 31L23 30ZM25 30L25 32L26 32L26 30ZM30 30L30 31L31 31L31 30ZM26 33L26 34L27 34L27 35L26 35L26 36L28 36L28 35L29 35L29 34L30 34L30 35L33 35L33 34L30 34L30 33ZM24 35L24 36L25 36L25 35ZM0 0L0 7L7 7L7 0ZM1 1L1 6L6 6L6 1ZM2 2L2 5L5 5L5 2ZM30 0L30 7L37 7L37 0ZM31 1L31 6L36 6L36 1ZM32 2L32 5L35 5L35 2ZM0 30L0 37L7 37L7 30ZM1 31L1 36L6 36L6 31ZM2 32L2 35L5 35L5 32Z" fill="#000000"/></g></g></svg>
