<?xml version="1.0" encoding="UTF-8"?>
<svg xmlns="http://www.w3.org/2000/svg" version="1.1" width="300" height="300" viewBox="0 0 300 300"><rect x="0" y="0" width="300" height="300" fill="#ffffff"/><g transform="scale(8.108)"><g transform="translate(0,0)"><path fill-rule="evenodd" d="M8 0L8 1L9 1L9 2L8 2L8 4L9 4L9 5L8 5L8 8L5 8L5 9L4 9L4 8L3 8L3 9L2 9L2 8L1 8L1 9L2 9L2 10L1 10L1 11L2 11L2 10L4 10L4 11L3 11L3 13L2 13L2 12L1 12L1 14L2 14L2 15L0 15L0 20L1 20L1 19L2 19L2 20L3 20L3 21L2 21L2 22L0 22L0 23L4 23L4 24L3 24L3 25L4 25L4 27L3 27L3 26L2 26L2 27L1 27L1 26L0 26L0 27L1 27L1 28L0 28L0 29L7 29L7 28L8 28L8 26L10 26L10 27L9 27L9 29L8 29L8 32L9 32L9 33L8 33L8 34L9 34L9 35L8 35L8 36L9 36L9 37L12 37L12 36L17 36L17 35L18 35L18 37L19 37L19 36L22 36L22 37L25 37L25 33L26 33L26 34L27 34L27 35L26 35L26 36L27 36L27 37L29 37L29 35L28 35L28 33L31 33L31 34L32 34L32 36L31 36L31 35L30 35L30 37L33 37L33 33L34 33L34 32L35 32L35 30L36 30L36 31L37 31L37 29L35 29L35 30L34 30L34 29L33 29L33 28L32 28L32 26L28 26L28 25L29 25L29 24L30 24L30 25L34 25L34 23L36 23L36 24L35 24L35 25L36 25L36 26L35 26L35 27L34 27L34 28L35 28L35 27L37 27L37 25L36 25L36 24L37 24L37 23L36 23L36 21L37 21L37 20L36 20L36 19L37 19L37 16L36 16L36 15L37 15L37 8L36 8L36 9L35 9L35 8L33 8L33 9L32 9L32 8L29 8L29 5L28 5L28 4L29 4L29 3L28 3L28 2L29 2L29 1L28 1L28 0L25 0L25 4L26 4L26 5L27 5L27 6L26 6L26 7L25 7L25 6L24 6L24 5L21 5L21 6L20 6L20 8L21 8L21 10L22 10L22 7L23 7L23 6L24 6L24 8L26 8L26 9L25 9L25 10L24 10L24 12L25 12L25 13L27 13L27 14L26 14L26 15L25 15L25 16L26 16L26 17L25 17L25 18L26 18L26 20L27 20L27 14L29 14L29 12L28 12L28 11L29 11L29 10L30 10L30 9L32 9L32 10L31 10L31 11L32 11L32 10L33 10L33 13L34 13L34 14L33 14L33 17L32 17L32 16L30 16L30 17L28 17L28 20L29 20L29 21L30 21L30 23L29 23L29 22L28 22L28 23L27 23L27 21L25 21L25 24L24 24L24 26L23 26L23 27L24 27L24 28L26 28L26 29L27 29L27 31L26 31L26 32L23 32L23 31L22 31L22 30L21 30L21 31L20 31L20 29L21 29L21 27L22 27L22 26L21 26L21 25L23 25L23 22L24 22L24 19L23 19L23 17L24 17L24 14L22 14L22 13L23 13L23 11L20 11L20 10L19 10L19 8L17 8L17 6L16 6L16 5L17 5L17 4L18 4L18 2L17 2L17 3L16 3L16 2L15 2L15 1L19 1L19 0L15 0L15 1L14 1L14 2L15 2L15 3L14 3L14 5L13 5L13 1L12 1L12 0ZM20 0L20 3L21 3L21 2L22 2L22 4L23 4L23 2L22 2L22 1L23 1L23 0L22 0L22 1L21 1L21 0ZM9 2L9 4L11 4L11 5L12 5L12 6L11 6L11 7L10 7L10 6L9 6L9 7L10 7L10 9L12 9L12 11L15 11L15 13L13 13L13 12L10 12L10 11L9 11L9 9L8 9L8 10L7 10L7 9L5 9L5 11L4 11L4 12L5 12L5 11L6 11L6 12L8 12L8 13L6 13L6 14L7 14L7 15L6 15L6 16L7 16L7 17L6 17L6 18L7 18L7 17L8 17L8 19L9 19L9 20L8 20L8 21L5 21L5 20L4 20L4 21L5 21L5 22L4 22L4 23L5 23L5 22L7 22L7 23L6 23L6 24L5 24L5 28L7 28L7 27L6 27L6 26L8 26L8 21L10 21L10 17L11 17L11 20L13 20L13 19L15 19L15 18L16 18L16 20L15 20L15 22L16 22L16 24L17 24L17 22L18 22L18 23L19 23L19 24L18 24L18 25L16 25L16 26L15 26L15 25L14 25L14 26L15 26L15 27L13 27L13 28L15 28L15 27L16 27L16 28L17 28L17 29L18 29L18 27L20 27L20 26L18 26L18 25L20 25L20 23L22 23L22 22L23 22L23 21L22 21L22 22L21 22L21 21L17 21L17 20L19 20L19 19L18 19L18 18L19 18L19 17L18 17L18 16L17 16L17 14L18 14L18 15L19 15L19 16L20 16L20 19L22 19L22 20L23 20L23 19L22 19L22 18L21 18L21 17L23 17L23 16L21 16L21 15L22 15L22 14L21 14L21 13L22 13L22 12L20 12L20 11L19 11L19 12L20 12L20 13L17 13L17 14L15 14L15 13L16 13L16 12L17 12L17 11L18 11L18 9L17 9L17 8L15 8L15 7L16 7L16 6L15 6L15 7L14 7L14 6L13 6L13 5L12 5L12 2L11 2L11 3L10 3L10 2ZM26 2L26 3L27 3L27 2ZM15 3L15 5L16 5L16 3ZM12 6L12 7L11 7L11 8L12 8L12 7L13 7L13 8L14 8L14 9L13 9L13 10L17 10L17 9L15 9L15 8L14 8L14 7L13 7L13 6ZM18 6L18 7L19 7L19 6ZM21 6L21 7L22 7L22 6ZM27 6L27 7L26 7L26 8L27 8L27 7L28 7L28 6ZM28 8L28 10L27 10L27 9L26 9L26 12L27 12L27 13L28 13L28 12L27 12L27 11L28 11L28 10L29 10L29 8ZM34 9L34 12L35 12L35 13L36 13L36 11L35 11L35 9ZM6 10L6 11L7 11L7 10ZM9 12L9 13L8 13L8 14L9 14L9 15L7 15L7 16L12 16L12 17L13 17L13 18L14 18L14 16L12 16L12 15L15 15L15 16L16 16L16 15L15 15L15 14L13 14L13 13L12 13L12 14L11 14L11 13L10 13L10 12ZM30 12L30 14L31 14L31 15L32 15L32 14L31 14L31 13L32 13L32 12ZM3 13L3 14L4 14L4 17L3 17L3 18L2 18L2 19L4 19L4 18L5 18L5 14L4 14L4 13ZM9 13L9 14L10 14L10 15L11 15L11 14L10 14L10 13ZM20 14L20 15L21 15L21 14ZM35 14L35 15L34 15L34 16L35 16L35 15L36 15L36 14ZM2 15L2 16L3 16L3 15ZM34 17L34 18L35 18L35 19L36 19L36 18L35 18L35 17ZM32 18L32 19L29 19L29 20L33 20L33 18ZM6 19L6 20L7 20L7 19ZM34 20L34 21L32 21L32 22L33 22L33 23L34 23L34 22L35 22L35 21L36 21L36 20ZM13 21L13 22L14 22L14 21ZM16 21L16 22L17 22L17 21ZM9 22L9 24L10 24L10 26L12 26L12 25L13 25L13 23L12 23L12 22L11 22L11 23L10 23L10 22ZM19 22L19 23L20 23L20 22ZM11 23L11 25L12 25L12 23ZM26 23L26 24L25 24L25 25L26 25L26 24L27 24L27 25L28 25L28 24L29 24L29 23L28 23L28 24L27 24L27 23ZM30 23L30 24L31 24L31 23ZM0 24L0 25L1 25L1 24ZM6 24L6 25L7 25L7 24ZM25 26L25 27L26 27L26 26ZM2 27L2 28L3 28L3 27ZM10 27L10 29L11 29L11 27ZM27 27L27 28L28 28L28 27ZM30 27L30 28L31 28L31 27ZM22 28L22 29L23 29L23 30L24 30L24 31L25 31L25 30L24 30L24 29L23 29L23 28ZM12 29L12 30L10 30L10 31L12 31L12 33L11 33L11 32L10 32L10 33L9 33L9 34L10 34L10 35L9 35L9 36L11 36L11 35L12 35L12 34L13 34L13 35L15 35L15 34L13 34L13 31L12 31L12 30L13 30L13 29ZM14 29L14 33L15 33L15 31L16 31L16 32L17 32L17 33L18 33L18 34L19 34L19 33L20 33L20 35L23 35L23 32L22 32L22 31L21 31L21 33L20 33L20 32L18 32L18 31L19 31L19 30L15 30L15 29ZM29 29L29 32L32 32L32 29ZM30 30L30 31L31 31L31 30ZM27 31L27 32L26 32L26 33L28 33L28 31ZM10 33L10 34L11 34L11 33ZM21 33L21 34L22 34L22 33ZM35 33L35 34L34 34L34 35L35 35L35 34L36 34L36 35L37 35L37 33ZM35 36L35 37L37 37L37 36ZM0 0L0 7L7 7L7 0ZM1 1L1 6L6 6L6 1ZM2 2L2 5L5 5L5 2ZM30 0L30 7L37 7L37 0ZM31 1L31 6L36 6L36 1ZM32 2L32 5L35 5L35 2ZM0 30L0 37L7 37L7 30ZM1 31L1 36L6 36L6 31ZM2 32L2 35L5 35L5 32Z" fill="#000000"/></g></g></svg>
