<?xml version="1.0" encoding="UTF-8"?>
<svg xmlns="http://www.w3.org/2000/svg" version="1.1" width="300" height="300" viewBox="0 0 300 300"><rect x="0" y="0" width="300" height="300" fill="#ffffff"/><g transform="scale(6.122)"><g transform="translate(0,0)"><path fill-rule="evenodd" d="M9 0L9 1L8 1L8 2L9 2L9 3L8 3L8 5L9 5L9 3L10 3L10 7L11 7L11 4L12 4L12 5L13 5L13 6L12 6L12 7L13 7L13 8L11 8L11 9L12 9L12 13L13 13L13 14L14 14L14 12L15 12L15 15L14 15L14 16L12 16L12 14L10 14L10 12L11 12L11 10L9 10L9 9L10 9L10 8L9 8L9 6L8 6L8 9L7 9L7 8L3 8L3 10L1 10L1 9L2 9L2 8L1 8L1 9L0 9L0 13L1 13L1 14L0 14L0 16L2 16L2 17L3 17L3 18L4 18L4 19L5 19L5 18L6 18L6 19L7 19L7 18L8 18L8 17L9 17L9 20L8 20L8 21L7 21L7 20L6 20L6 21L7 21L7 22L5 22L5 20L3 20L3 19L0 19L0 20L3 20L3 21L2 21L2 23L1 23L1 21L0 21L0 28L4 28L4 29L2 29L2 30L1 30L1 32L2 32L2 33L3 33L3 34L2 34L2 36L5 36L5 37L3 37L3 38L5 38L5 39L7 39L7 40L6 40L6 41L8 41L8 42L9 42L9 41L10 41L10 42L11 42L11 43L8 43L8 46L9 46L9 47L8 47L8 48L9 48L9 49L11 49L11 48L9 48L9 47L10 47L10 46L12 46L12 48L13 48L13 49L16 49L16 48L17 48L17 46L19 46L19 49L20 49L20 48L21 48L21 47L22 47L22 49L29 49L29 48L26 48L26 47L28 47L28 45L29 45L29 47L30 47L30 46L31 46L31 47L32 47L32 49L35 49L35 48L36 48L36 49L37 49L37 48L38 48L38 49L42 49L42 48L43 48L43 49L46 49L46 48L48 48L48 49L49 49L49 45L48 45L48 44L47 44L47 46L48 46L48 47L46 47L46 45L45 45L45 44L46 44L46 43L47 43L47 42L48 42L48 43L49 43L49 42L48 42L48 41L46 41L46 38L47 38L47 39L49 39L49 38L47 38L47 37L49 37L49 34L48 34L48 36L47 36L47 35L46 35L46 34L47 34L47 33L49 33L49 30L47 30L47 31L48 31L48 32L47 32L47 33L45 33L45 30L46 30L46 29L47 29L47 28L48 28L48 29L49 29L49 28L48 28L48 27L49 27L49 26L48 26L48 24L47 24L47 23L46 23L46 21L44 21L44 22L43 22L43 18L45 18L45 20L46 20L46 19L47 19L47 20L48 20L48 21L49 21L49 18L48 18L48 17L47 17L47 18L45 18L45 17L46 17L46 16L47 16L47 15L49 15L49 14L47 14L47 15L46 15L46 16L44 16L44 15L45 15L45 14L46 14L46 12L48 12L48 11L49 11L49 10L47 10L47 9L48 9L48 8L47 8L47 9L46 9L46 8L44 8L44 9L46 9L46 11L45 11L45 10L44 10L44 13L45 13L45 14L44 14L44 15L43 15L43 18L41 18L41 19L40 19L40 16L39 16L39 15L40 15L40 14L39 14L39 13L40 13L40 12L42 12L42 14L41 14L41 17L42 17L42 14L43 14L43 11L39 11L39 13L37 13L37 12L38 12L38 11L37 11L37 12L35 12L35 9L36 9L36 8L37 8L37 6L38 6L38 8L39 8L39 9L37 9L37 10L41 10L41 9L42 9L42 10L43 10L43 8L41 8L41 9L40 9L40 7L41 7L41 6L40 6L40 7L39 7L39 5L38 5L38 2L39 2L39 4L40 4L40 3L41 3L41 0L40 0L40 1L37 1L37 0L36 0L36 1L35 1L35 0L34 0L34 2L37 2L37 3L35 3L35 6L34 6L34 7L33 7L33 6L32 6L32 7L31 7L31 6L30 6L30 7L29 7L29 4L30 4L30 5L33 5L33 2L31 2L31 3L32 3L32 4L30 4L30 2L28 2L28 3L27 3L27 4L26 4L26 0L25 0L25 1L24 1L24 0L22 0L22 1L23 1L23 2L22 2L22 3L23 3L23 4L20 4L20 3L21 3L21 2L20 2L20 1L21 1L21 0L18 0L18 1L17 1L17 2L15 2L15 3L14 3L14 2L12 2L12 1L13 1L13 0L12 0L12 1L11 1L11 2L12 2L12 3L10 3L10 0ZM30 0L30 1L33 1L33 0ZM18 1L18 2L17 2L17 3L15 3L15 4L17 4L17 3L18 3L18 2L19 2L19 3L20 3L20 2L19 2L19 1ZM23 2L23 3L24 3L24 4L25 4L25 2ZM12 3L12 4L13 4L13 5L14 5L14 3ZM28 3L28 4L27 4L27 8L28 8L28 9L29 9L29 10L27 10L27 11L26 11L26 13L25 13L25 12L24 12L24 11L25 11L25 10L26 10L26 9L24 9L24 11L23 11L23 9L22 9L22 5L21 5L21 7L20 7L20 4L19 4L19 5L18 5L18 6L17 6L17 7L18 7L18 8L16 8L16 5L15 5L15 7L14 7L14 6L13 6L13 7L14 7L14 8L13 8L13 10L14 10L14 8L16 8L16 11L17 11L17 12L16 12L16 13L17 13L17 12L18 12L18 14L19 14L19 12L20 12L20 14L21 14L21 15L20 15L20 16L21 16L21 17L22 17L22 16L21 16L21 15L24 15L24 17L23 17L23 18L24 18L24 20L23 20L23 21L22 21L22 20L21 20L21 19L20 19L20 17L19 17L19 18L16 18L16 16L18 16L18 15L17 15L17 14L16 14L16 16L14 16L14 17L11 17L11 18L12 18L12 19L15 19L15 20L14 20L14 21L13 21L13 20L11 20L11 22L10 22L10 23L9 23L9 24L10 24L10 26L11 26L11 27L12 27L12 29L13 29L13 32L11 32L11 33L10 33L10 32L9 32L9 35L8 35L8 34L7 34L7 33L8 33L8 32L7 32L7 31L8 31L8 30L9 30L9 31L11 31L11 28L9 28L9 27L6 27L6 28L5 28L5 29L4 29L4 30L2 30L2 31L3 31L3 33L4 33L4 34L3 34L3 35L4 35L4 34L5 34L5 31L4 31L4 30L5 30L5 29L6 29L6 30L7 30L7 31L6 31L6 32L7 32L7 33L6 33L6 34L7 34L7 35L5 35L5 36L7 36L7 35L8 35L8 40L10 40L10 41L12 41L12 40L13 40L13 39L12 39L12 38L13 38L13 37L16 37L16 38L15 38L15 39L14 39L14 42L12 42L12 43L11 43L11 44L10 44L10 45L9 45L9 46L10 46L10 45L11 45L11 44L13 44L13 45L12 45L12 46L13 46L13 48L14 48L14 47L15 47L15 46L17 46L17 45L18 45L18 44L17 44L17 42L18 42L18 41L19 41L19 39L20 39L20 40L21 40L21 39L22 39L22 40L25 40L25 39L26 39L26 40L27 40L27 39L28 39L28 41L27 41L27 45L28 45L28 41L29 41L29 42L31 42L31 41L32 41L32 40L33 40L33 39L34 39L34 40L35 40L35 41L34 41L34 42L35 42L35 44L37 44L37 45L38 45L38 44L40 44L40 42L39 42L39 43L36 43L36 42L35 42L35 41L36 41L36 40L37 40L37 41L39 41L39 39L38 39L38 38L37 38L37 37L38 37L38 36L37 36L37 35L36 35L36 36L34 36L34 35L33 35L33 37L32 37L32 34L30 34L30 33L29 33L29 34L28 34L28 36L29 36L29 35L31 35L31 36L30 36L30 37L28 37L28 38L27 38L27 35L25 35L25 34L27 34L27 29L26 29L26 30L24 30L24 29L23 29L23 28L21 28L21 29L20 29L20 28L19 28L19 29L18 29L18 28L17 28L17 27L16 27L16 28L15 28L15 26L17 26L17 25L15 25L15 24L16 24L16 23L18 23L18 27L20 27L20 26L21 26L21 27L22 27L22 26L21 26L21 25L22 25L22 24L20 24L20 22L18 22L18 21L19 21L19 20L20 20L20 21L21 21L21 22L23 22L23 21L24 21L24 22L25 22L25 19L26 19L26 21L29 21L29 19L30 19L30 20L31 20L31 19L30 19L30 18L29 18L29 19L28 19L28 20L27 20L27 18L28 18L28 16L29 16L29 17L30 17L30 15L31 15L31 16L33 16L33 19L32 19L32 21L31 21L31 22L27 22L27 27L28 27L28 29L29 29L29 30L30 30L30 32L32 32L32 33L36 33L36 32L35 32L35 30L36 30L36 28L37 28L37 29L38 29L38 31L37 31L37 32L38 32L38 33L37 33L37 34L38 34L38 35L40 35L40 36L41 36L41 33L42 33L42 34L43 34L43 31L44 31L44 30L45 30L45 29L46 29L46 28L45 28L45 29L43 29L43 31L42 31L42 30L41 30L41 29L42 29L42 28L43 28L43 27L42 27L42 28L40 28L40 30L41 30L41 31L42 31L42 32L40 32L40 33L39 33L39 32L38 32L38 31L39 31L39 28L38 28L38 27L37 27L37 26L36 26L36 24L37 24L37 23L38 23L38 24L39 24L39 23L40 23L40 21L42 21L42 19L41 19L41 20L39 20L39 19L38 19L38 18L39 18L39 17L37 17L37 19L36 19L36 18L35 18L35 19L34 19L34 17L35 17L35 16L38 16L38 15L36 15L36 14L35 14L35 13L34 13L34 15L33 15L33 13L32 13L32 14L29 14L29 15L28 15L28 13L29 13L29 12L28 12L28 13L27 13L27 11L29 11L29 10L30 10L30 11L31 11L31 10L32 10L32 11L33 11L33 12L34 12L34 8L33 8L33 9L32 9L32 8L31 8L31 10L30 10L30 9L29 9L29 8L28 8L28 4L29 4L29 3ZM36 4L36 6L35 6L35 8L36 8L36 6L37 6L37 4ZM23 5L23 8L26 8L26 5ZM18 6L18 7L19 7L19 8L20 8L20 7L19 7L19 6ZM24 6L24 7L25 7L25 6ZM5 9L5 10L7 10L7 9ZM17 9L17 10L18 10L18 11L19 11L19 10L21 10L21 9L19 9L19 10L18 10L18 9ZM3 10L3 11L1 11L1 12L2 12L2 13L4 13L4 14L2 14L2 15L4 15L4 14L5 14L5 16L4 16L4 18L5 18L5 16L7 16L7 17L6 17L6 18L7 18L7 17L8 17L8 16L7 16L7 15L8 15L8 14L7 14L7 13L9 13L9 10L8 10L8 12L7 12L7 11L4 11L4 10ZM3 11L3 12L4 12L4 11ZM22 11L22 12L21 12L21 13L22 13L22 14L24 14L24 12L23 12L23 11ZM6 12L6 13L5 13L5 14L6 14L6 15L7 15L7 14L6 14L6 13L7 13L7 12ZM22 12L22 13L23 13L23 12ZM30 12L30 13L31 13L31 12ZM26 13L26 14L27 14L27 13ZM9 15L9 16L11 16L11 15ZM25 15L25 17L24 17L24 18L25 18L25 17L27 17L27 16L28 16L28 15ZM34 15L34 16L35 16L35 15ZM31 17L31 18L32 18L32 17ZM15 18L15 19L16 19L16 18ZM47 18L47 19L48 19L48 18ZM17 19L17 20L15 20L15 21L17 21L17 20L19 20L19 19ZM34 20L34 21L33 21L33 22L31 22L31 23L30 23L30 24L29 24L29 23L28 23L28 24L29 24L29 25L28 25L28 26L31 26L31 23L32 23L32 25L33 25L33 26L32 26L32 27L33 27L33 28L31 28L31 27L30 27L30 28L31 28L31 29L30 29L30 30L32 30L32 32L34 32L34 30L35 30L35 29L34 29L34 28L36 28L36 26L35 26L35 27L33 27L33 26L34 26L34 25L33 25L33 24L34 24L34 23L35 23L35 24L36 24L36 23L37 23L37 20L36 20L36 21L35 21L35 20ZM38 20L38 22L39 22L39 20ZM8 21L8 22L9 22L9 21ZM11 22L11 23L13 23L13 22ZM14 22L14 24L12 24L12 25L14 25L14 26L15 26L15 25L14 25L14 24L15 24L15 23L16 23L16 22ZM35 22L35 23L36 23L36 22ZM48 22L48 23L49 23L49 22ZM2 23L2 25L3 25L3 26L2 26L2 27L4 27L4 23ZM5 23L5 26L8 26L8 23ZM23 23L23 26L26 26L26 23ZM41 23L41 26L44 26L44 23ZM6 24L6 25L7 25L7 24ZM24 24L24 25L25 25L25 24ZM42 24L42 25L43 25L43 24ZM46 24L46 26L45 26L45 27L48 27L48 26L47 26L47 24ZM19 25L19 26L20 26L20 25ZM39 25L39 27L40 27L40 25ZM12 26L12 27L13 27L13 28L14 28L14 27L13 27L13 26ZM24 27L24 28L26 28L26 27ZM6 28L6 29L7 29L7 30L8 30L8 28ZM16 28L16 29L14 29L14 36L18 36L18 35L17 35L17 34L18 34L18 33L19 33L19 35L20 35L20 36L21 36L21 38L22 38L22 39L25 39L25 38L26 38L26 39L27 39L27 38L26 38L26 37L25 37L25 36L24 36L24 34L23 34L23 35L22 35L22 36L21 36L21 34L22 34L22 33L23 33L23 32L22 32L22 33L21 33L21 31L19 31L19 30L20 30L20 29L19 29L19 30L18 30L18 33L16 33L16 34L15 34L15 32L16 32L16 31L17 31L17 28ZM32 29L32 30L33 30L33 29ZM15 30L15 31L16 31L16 30ZM22 30L22 31L23 31L23 30ZM25 31L25 32L26 32L26 31ZM28 31L28 32L29 32L29 31ZM0 33L0 36L1 36L1 33ZM20 33L20 34L21 34L21 33ZM38 33L38 34L39 34L39 33ZM12 34L12 36L11 36L11 37L9 37L9 38L10 38L10 39L11 39L11 40L12 40L12 39L11 39L11 37L12 37L12 36L13 36L13 34ZM9 35L9 36L10 36L10 35ZM42 35L42 37L41 37L41 38L40 38L40 37L39 37L39 38L40 38L40 39L42 39L42 40L43 40L43 39L44 39L44 37L45 37L45 36L46 36L46 37L47 37L47 36L46 36L46 35L45 35L45 36L44 36L44 37L43 37L43 35ZM23 36L23 37L22 37L22 38L24 38L24 36ZM36 36L36 37L37 37L37 36ZM1 37L1 40L0 40L0 41L3 41L3 40L4 40L4 39L2 39L2 37ZM5 37L5 38L7 38L7 37ZM18 37L18 38L17 38L17 39L16 39L16 41L15 41L15 42L14 42L14 43L13 43L13 44L15 44L15 45L17 45L17 44L15 44L15 43L16 43L16 41L17 41L17 40L18 40L18 38L20 38L20 37ZM30 37L30 38L28 38L28 39L29 39L29 41L30 41L30 38L31 38L31 40L32 40L32 37ZM42 37L42 39L43 39L43 37ZM35 38L35 39L37 39L37 40L38 40L38 39L37 39L37 38ZM20 41L20 42L19 42L19 46L22 46L22 47L23 47L23 48L25 48L25 47L26 47L26 45L22 45L22 44L21 44L21 45L20 45L20 42L21 42L21 43L22 43L22 41ZM23 41L23 44L26 44L26 41ZM41 41L41 44L44 44L44 41ZM24 42L24 43L25 43L25 42ZM42 42L42 43L43 43L43 42ZM31 43L31 45L33 45L33 43ZM13 45L13 46L14 46L14 45ZM43 45L43 46L42 46L42 47L41 47L41 46L40 46L40 47L41 47L41 48L42 48L42 47L43 47L43 48L44 48L44 47L43 47L43 46L45 46L45 45ZM23 46L23 47L25 47L25 46ZM35 46L35 47L36 47L36 48L37 48L37 47L39 47L39 46L37 46L37 47L36 47L36 46ZM33 47L33 48L34 48L34 47ZM0 0L0 7L7 7L7 0ZM1 1L1 6L6 6L6 1ZM2 2L2 5L5 5L5 2ZM42 0L42 7L49 7L49 0ZM43 1L43 6L48 6L48 1ZM44 2L44 5L47 5L47 2ZM0 42L0 49L7 49L7 42ZM1 43L1 48L6 48L6 43ZM2 44L2 47L5 47L5 44Z" fill="#000000"/></g></g></svg>
