<?xml version="1.0" encoding="UTF-8"?>
<svg xmlns="http://www.w3.org/2000/svg" version="1.1" width="300" height="300" viewBox="0 0 300 300"><rect x="0" y="0" width="300" height="300" fill="#ffffff"/><g transform="scale(8.108)"><g transform="translate(0,0)"><path fill-rule="evenodd" d="M8 0L8 1L9 1L9 4L8 4L8 7L9 7L9 5L10 5L10 8L9 8L9 9L8 9L8 8L1 8L1 10L0 10L0 12L1 12L1 13L0 13L0 14L2 14L2 15L0 15L0 16L1 16L1 17L2 17L2 18L0 18L0 29L1 29L1 24L5 24L5 25L4 25L4 26L2 26L2 27L3 27L3 29L8 29L8 36L9 36L9 35L10 35L10 36L11 36L11 37L13 37L13 36L14 36L14 35L13 35L13 33L12 33L12 32L14 32L14 34L15 34L15 36L16 36L16 37L17 37L17 35L18 35L18 34L19 34L19 33L18 33L18 31L17 31L17 30L19 30L19 29L20 29L20 30L21 30L21 29L23 29L23 30L22 30L22 31L23 31L23 30L24 30L24 32L21 32L21 31L19 31L19 32L20 32L20 33L21 33L21 34L20 34L20 35L21 35L21 36L20 36L20 37L22 37L22 36L23 36L23 37L25 37L25 36L26 36L26 37L28 37L28 36L29 36L29 35L30 35L30 34L31 34L31 35L32 35L32 36L33 36L33 37L37 37L37 34L36 34L36 36L33 36L33 35L35 35L35 34L33 34L33 32L34 32L34 33L36 33L36 32L37 32L37 30L36 30L36 29L37 29L37 26L36 26L36 24L34 24L34 23L33 23L33 24L34 24L34 26L33 26L33 27L34 27L34 28L29 28L29 27L32 27L32 26L31 26L31 25L32 25L32 24L31 24L31 22L32 22L32 21L33 21L33 22L35 22L35 23L36 23L36 22L37 22L37 18L30 18L30 17L31 17L31 16L32 16L32 17L37 17L37 14L34 14L34 13L33 13L33 12L34 12L34 11L33 11L33 10L34 10L34 9L33 9L33 8L31 8L31 9L30 9L30 10L28 10L28 9L29 9L29 6L28 6L28 5L29 5L29 4L28 4L28 3L26 3L26 2L28 2L28 1L29 1L29 0L28 0L28 1L26 1L26 0L25 0L25 1L22 1L22 0L21 0L21 1L20 1L20 3L19 3L19 2L16 2L16 3L19 3L19 4L20 4L20 3L23 3L23 4L22 4L22 5L21 5L21 6L20 6L20 5L18 5L18 8L16 8L16 7L17 7L17 6L16 6L16 5L15 5L15 6L14 6L14 7L13 7L13 5L14 5L14 4L15 4L15 3L13 3L13 2L15 2L15 1L17 1L17 0L15 0L15 1L14 1L14 0L13 0L13 2L11 2L11 1L12 1L12 0L11 0L11 1L9 1L9 0ZM18 0L18 1L19 1L19 0ZM10 2L10 5L11 5L11 7L12 7L12 10L13 10L13 11L11 11L11 12L12 12L12 14L11 14L11 15L12 15L12 16L16 16L16 17L17 17L17 18L18 18L18 19L16 19L16 18L14 18L14 19L16 19L16 20L15 20L15 21L16 21L16 20L17 20L17 21L18 21L18 23L19 23L19 25L17 25L17 23L16 23L16 22L13 22L13 24L14 24L14 27L15 27L15 23L16 23L16 25L17 25L17 27L16 27L16 28L13 28L13 25L12 25L12 26L11 26L11 24L10 24L10 23L11 23L11 22L12 22L12 20L11 20L11 22L10 22L10 21L9 21L9 22L8 22L8 21L6 21L6 20L7 20L7 19L6 19L6 18L8 18L8 17L6 17L6 18L5 18L5 16L7 16L7 15L6 15L6 14L8 14L8 15L10 15L10 13L6 13L6 14L5 14L5 12L7 12L7 11L8 11L8 9L6 9L6 10L5 10L5 9L4 9L4 10L5 10L5 12L4 12L4 13L2 13L2 14L3 14L3 16L2 16L2 17L3 17L3 18L2 18L2 19L1 19L1 20L2 20L2 19L4 19L4 18L5 18L5 20L3 20L3 22L1 22L1 23L3 23L3 22L5 22L5 23L6 23L6 24L8 24L8 26L7 26L7 25L6 25L6 26L7 26L7 27L5 27L5 28L8 28L8 27L10 27L10 26L11 26L11 28L12 28L12 29L11 29L11 30L14 30L14 29L16 29L16 30L15 30L15 31L14 31L14 32L15 32L15 31L16 31L16 30L17 30L17 29L19 29L19 25L21 25L21 26L20 26L20 28L23 28L23 29L25 29L25 28L26 28L26 29L27 29L27 31L28 31L28 27L29 27L29 26L27 26L27 28L26 28L26 26L23 26L23 25L27 25L27 24L26 24L26 23L27 23L27 22L28 22L28 23L30 23L30 22L31 22L31 21L32 21L32 20L36 20L36 19L30 19L30 18L28 18L28 17L30 17L30 16L29 16L29 14L30 14L30 15L31 15L31 13L32 13L32 16L36 16L36 15L33 15L33 13L32 13L32 12L31 12L31 11L32 11L32 10L31 10L31 11L28 11L28 16L27 16L27 12L26 12L26 10L27 10L27 9L26 9L26 8L27 8L27 7L28 7L28 6L27 6L27 7L26 7L26 6L25 6L25 7L24 7L24 6L23 6L23 5L25 5L25 4L26 4L26 5L28 5L28 4L26 4L26 3L25 3L25 2L24 2L24 3L25 3L25 4L23 4L23 5L22 5L22 6L21 6L21 7L20 7L20 6L19 6L19 7L20 7L20 9L19 9L19 8L18 8L18 9L17 9L17 10L16 10L16 11L15 11L15 10L14 10L14 8L15 8L15 7L16 7L16 6L15 6L15 7L14 7L14 8L13 8L13 7L12 7L12 5L13 5L13 3L12 3L12 4L11 4L11 2ZM22 6L22 7L21 7L21 8L22 8L22 9L21 9L21 10L19 10L19 9L18 9L18 10L17 10L17 11L19 11L19 16L18 16L18 18L19 18L19 20L18 20L18 21L21 21L21 24L22 24L22 25L23 25L23 24L22 24L22 23L23 23L23 22L22 22L22 21L21 21L21 20L22 20L22 19L23 19L23 17L24 17L24 18L25 18L25 17L26 17L26 16L25 16L25 15L26 15L26 14L25 14L25 13L26 13L26 12L25 12L25 11L24 11L24 12L23 12L23 11L22 11L22 9L23 9L23 10L25 10L25 9L24 9L24 7L23 7L23 6ZM22 7L22 8L23 8L23 7ZM25 7L25 8L26 8L26 7ZM36 8L36 9L35 9L35 10L36 10L36 13L37 13L37 10L36 10L36 9L37 9L37 8ZM9 9L9 10L10 10L10 9ZM1 10L1 12L2 12L2 10ZM6 10L6 11L7 11L7 10ZM9 11L9 12L10 12L10 11ZM14 11L14 12L13 12L13 13L16 13L16 12L15 12L15 11ZM17 12L17 14L16 14L16 16L17 16L17 14L18 14L18 12ZM20 12L20 16L21 16L21 12ZM22 12L22 13L23 13L23 12ZM24 12L24 13L25 13L25 12ZM29 12L29 13L31 13L31 12ZM4 14L4 15L5 15L5 14ZM12 14L12 15L13 15L13 14ZM22 14L22 15L23 15L23 16L22 16L22 17L23 17L23 16L24 16L24 17L25 17L25 16L24 16L24 15L25 15L25 14ZM10 16L10 17L11 17L11 19L13 19L13 18L12 18L12 17L11 17L11 16ZM19 17L19 18L20 18L20 17ZM9 18L9 19L10 19L10 18ZM21 18L21 19L22 19L22 18ZM27 18L27 19L26 19L26 20L27 20L27 21L26 21L26 22L27 22L27 21L29 21L29 22L30 22L30 21L31 21L31 20L30 20L30 19L29 19L29 20L27 20L27 19L28 19L28 18ZM24 19L24 20L25 20L25 19ZM13 20L13 21L14 21L14 20ZM29 20L29 21L30 21L30 20ZM24 21L24 22L25 22L25 21ZM35 21L35 22L36 22L36 21ZM6 22L6 23L8 23L8 22ZM9 22L9 23L10 23L10 22ZM19 22L19 23L20 23L20 22ZM24 23L24 24L25 24L25 23ZM28 24L28 25L30 25L30 24ZM22 26L22 27L23 27L23 26ZM35 26L35 27L36 27L36 26ZM9 28L9 29L10 29L10 28ZM34 28L34 29L33 29L33 31L34 31L34 32L35 32L35 31L36 31L36 30L35 30L35 29L36 29L36 28ZM29 29L29 32L32 32L32 29ZM9 30L9 31L10 31L10 32L9 32L9 33L10 33L10 32L12 32L12 31L10 31L10 30ZM25 30L25 32L26 32L26 30ZM30 30L30 31L31 31L31 30ZM15 33L15 34L16 34L16 33ZM17 33L17 34L18 34L18 33ZM22 33L22 35L23 35L23 34L25 34L25 33ZM26 33L26 34L27 34L27 35L26 35L26 36L28 36L28 35L29 35L29 34L30 34L30 33L29 33L29 34L27 34L27 33ZM31 33L31 34L32 34L32 35L33 35L33 34L32 34L32 33ZM11 34L11 35L12 35L12 36L13 36L13 35L12 35L12 34ZM24 35L24 36L25 36L25 35ZM18 36L18 37L19 37L19 36ZM30 36L30 37L31 37L31 36ZM0 0L0 7L7 7L7 0ZM1 1L1 6L6 6L6 1ZM2 2L2 5L5 5L5 2ZM30 0L30 7L37 7L37 0ZM31 1L31 6L36 6L36 1ZM32 2L32 5L35 5L35 2ZM0 30L0 37L7 37L7 30ZM1 31L1 36L6 36L6 31ZM2 32L2 35L5 35L5 32Z" fill="#000000"/></g></g></svg>
