<?xml version="1.0" encoding="UTF-8"?>
<svg xmlns="http://www.w3.org/2000/svg" version="1.1" width="300" height="300" viewBox="0 0 300 300"><rect x="0" y="0" width="300" height="300" fill="#ffffff"/><g transform="scale(6.122)"><g transform="translate(0,0)"><path fill-rule="evenodd" d="M9 0L9 1L8 1L8 3L9 3L9 5L10 5L10 7L11 7L11 8L12 8L12 9L13 9L13 10L12 10L12 12L14 12L14 11L13 11L13 10L15 10L15 8L14 8L14 9L13 9L13 5L14 5L14 7L15 7L15 5L14 5L14 4L16 4L16 8L17 8L17 6L18 6L18 8L19 8L19 12L20 12L20 8L19 8L19 6L20 6L20 7L21 7L21 9L25 9L25 10L24 10L24 11L23 11L23 10L21 10L21 11L23 11L23 12L21 12L21 13L19 13L19 16L18 16L18 18L14 18L14 17L17 17L17 15L18 15L18 14L17 14L17 13L18 13L18 12L17 12L17 10L18 10L18 9L17 9L17 10L16 10L16 11L15 11L15 12L16 12L16 13L15 13L15 15L16 15L16 16L11 16L11 15L10 15L10 14L13 14L13 15L14 15L14 13L11 13L11 12L6 12L6 13L5 13L5 12L3 12L3 13L2 13L2 11L7 11L7 10L8 10L8 9L7 9L7 8L5 8L5 10L4 10L4 8L1 8L1 9L0 9L0 11L1 11L1 13L2 13L2 14L0 14L0 16L1 16L1 15L2 15L2 17L1 17L1 19L2 19L2 20L3 20L3 18L4 18L4 19L5 19L5 18L6 18L6 19L7 19L7 20L6 20L6 21L5 21L5 20L4 20L4 21L5 21L5 22L4 22L4 26L2 26L2 27L1 27L1 26L0 26L0 27L1 27L1 28L0 28L0 29L1 29L1 28L4 28L4 29L5 29L5 28L4 28L4 27L7 27L7 28L6 28L6 29L7 29L7 28L10 28L10 27L11 27L11 29L14 29L14 28L12 28L12 27L11 27L11 26L13 26L13 27L15 27L15 25L16 25L16 24L17 24L17 23L16 23L16 22L17 22L17 21L16 21L16 22L15 22L15 21L14 21L14 20L17 20L17 19L18 19L18 18L19 18L19 16L20 16L20 17L21 17L21 19L20 19L20 20L18 20L18 24L19 24L19 25L18 25L18 26L19 26L19 25L21 25L21 26L20 26L20 27L19 27L19 28L20 28L20 29L22 29L22 30L19 30L19 31L18 31L18 32L17 32L17 33L16 33L16 31L15 31L15 30L17 30L17 29L18 29L18 27L17 27L17 26L16 26L16 28L15 28L15 30L12 30L12 31L13 31L13 32L12 32L12 33L11 33L11 30L10 30L10 34L11 34L11 35L12 35L12 34L13 34L13 36L14 36L14 37L12 37L12 36L11 36L11 37L10 37L10 35L7 35L7 34L8 34L8 33L7 33L7 32L5 32L5 33L4 33L4 31L3 31L3 32L2 32L2 30L3 30L3 29L2 29L2 30L0 30L0 33L1 33L1 34L3 34L3 33L4 33L4 36L3 36L3 35L2 35L2 36L1 36L1 35L0 35L0 36L1 36L1 40L0 40L0 41L3 41L3 40L4 40L4 39L2 39L2 38L3 38L3 37L4 37L4 38L5 38L5 39L8 39L8 40L6 40L6 41L8 41L8 42L9 42L9 39L10 39L10 43L8 43L8 44L11 44L11 47L12 47L12 48L11 48L11 49L12 49L12 48L15 48L15 49L18 49L18 48L20 48L20 49L21 49L21 47L20 47L20 46L23 46L23 47L22 47L22 48L24 48L24 49L25 49L25 47L24 47L24 46L23 46L23 45L28 45L28 46L29 46L29 49L30 49L30 48L31 48L31 49L32 49L32 48L33 48L33 49L34 49L34 48L35 48L35 49L38 49L38 48L39 48L39 47L41 47L41 46L40 46L40 45L42 45L42 47L43 47L43 48L45 48L45 49L49 49L49 48L47 48L47 47L45 47L45 45L46 45L46 46L49 46L49 40L48 40L48 42L47 42L47 40L46 40L46 39L48 39L48 38L49 38L49 36L48 36L48 35L45 35L45 36L44 36L44 37L43 37L43 38L45 38L45 39L44 39L44 40L40 40L40 41L39 41L39 40L37 40L37 43L33 43L33 44L34 44L34 45L35 45L35 46L34 46L34 48L33 48L33 46L32 46L32 45L30 45L30 44L29 44L29 43L31 43L31 44L32 44L32 41L34 41L34 42L36 42L36 41L34 41L34 38L33 38L33 39L32 39L32 38L30 38L30 40L31 40L31 39L32 39L32 41L31 41L31 42L29 42L29 41L28 41L28 40L29 40L29 37L28 37L28 38L27 38L27 37L25 37L25 36L27 36L27 35L29 35L29 36L30 36L30 37L31 37L31 36L30 36L30 35L32 35L32 36L33 36L33 35L35 35L35 36L36 36L36 37L35 37L35 38L36 38L36 37L38 37L38 39L39 39L39 37L40 37L40 38L41 38L41 39L42 39L42 38L41 38L41 37L42 37L42 36L43 36L43 35L42 35L42 33L43 33L43 34L44 34L44 33L45 33L45 32L46 32L46 31L47 31L47 33L48 33L48 32L49 32L49 27L47 27L47 28L45 28L45 30L44 30L44 27L46 27L46 25L48 25L48 26L49 26L49 25L48 25L48 24L49 24L49 23L48 23L48 24L47 24L47 23L45 23L45 22L43 22L43 21L41 21L41 22L40 22L40 20L38 20L38 19L37 19L37 17L36 17L36 18L35 18L35 20L33 20L33 21L32 21L32 20L31 20L31 19L34 19L34 17L35 17L35 15L36 15L36 14L37 14L37 16L39 16L39 17L38 17L38 18L39 18L39 17L40 17L40 18L41 18L41 17L42 17L42 16L43 16L43 17L44 17L44 18L42 18L42 19L41 19L41 20L42 20L42 19L43 19L43 20L44 20L44 19L45 19L45 21L46 21L46 22L47 22L47 21L46 21L46 18L45 18L45 15L46 15L46 13L47 13L47 15L48 15L48 14L49 14L49 13L48 13L48 12L49 12L49 11L48 11L48 8L46 8L46 10L43 10L43 9L42 9L42 11L43 11L43 14L42 14L42 13L41 13L41 11L40 11L40 10L39 10L39 11L38 11L38 10L37 10L37 9L35 9L35 8L33 8L33 6L32 6L32 5L34 5L34 4L35 4L35 5L36 5L36 7L37 7L37 8L40 8L40 7L41 7L41 6L40 6L40 7L39 7L39 5L38 5L38 2L39 2L39 4L40 4L40 3L41 3L41 0L40 0L40 1L38 1L38 0L35 0L35 1L34 1L34 2L32 2L32 1L31 1L31 0L29 0L29 1L28 1L28 0L26 0L26 1L28 1L28 2L29 2L29 3L26 3L26 2L25 2L25 3L24 3L24 0L22 0L22 1L23 1L23 2L20 2L20 3L18 3L18 2L19 2L19 0L16 0L16 1L18 1L18 2L16 2L16 3L15 3L15 2L14 2L14 1L15 1L15 0ZM11 1L11 3L12 3L12 4L11 4L11 5L13 5L13 3L14 3L14 2L12 2L12 1ZM35 1L35 2L34 2L34 3L36 3L36 2L38 2L38 1ZM9 2L9 3L10 3L10 2ZM21 3L21 7L22 7L22 4L24 4L24 3ZM30 3L30 4L27 4L27 5L31 5L31 4L33 4L33 3ZM17 4L17 5L20 5L20 4ZM23 5L23 8L26 8L26 5ZM37 5L37 7L38 7L38 5ZM8 6L8 7L9 7L9 6ZM11 6L11 7L12 7L12 6ZM24 6L24 7L25 7L25 6ZM27 6L27 7L28 7L28 6ZM29 6L29 8L31 8L31 7L32 7L32 6L31 6L31 7L30 7L30 6ZM34 6L34 7L35 7L35 6ZM32 8L32 10L31 10L31 11L30 11L30 9L29 9L29 10L28 10L28 9L26 9L26 11L24 11L24 12L23 12L23 14L22 14L22 13L21 13L21 14L20 14L20 16L23 16L23 15L24 15L24 16L25 16L25 15L26 15L26 16L28 16L28 15L27 15L27 14L28 14L28 13L27 13L27 14L25 14L25 15L24 15L24 13L26 13L26 12L27 12L27 10L28 10L28 11L29 11L29 12L31 12L31 13L29 13L29 15L30 15L30 16L31 16L31 18L33 18L33 17L34 17L34 15L35 15L35 14L36 14L36 11L37 11L37 10L36 10L36 11L34 11L34 12L32 12L32 10L33 10L33 8ZM1 9L1 11L2 11L2 10L3 10L3 9ZM6 9L6 10L7 10L7 9ZM9 9L9 11L11 11L11 9ZM34 9L34 10L35 10L35 9ZM46 10L46 11L45 11L45 12L44 12L44 14L43 14L43 15L44 15L44 14L45 14L45 13L46 13L46 11L47 11L47 12L48 12L48 11L47 11L47 10ZM38 12L38 13L39 13L39 15L41 15L41 13L39 13L39 12ZM6 13L6 14L7 14L7 15L5 15L5 14L2 14L2 15L4 15L4 16L3 16L3 17L2 17L2 18L3 18L3 17L4 17L4 18L5 18L5 16L7 16L7 17L6 17L6 18L9 18L9 17L8 17L8 16L10 16L10 19L11 19L11 20L12 20L12 21L13 21L13 22L12 22L12 23L11 23L11 21L10 21L10 20L9 20L9 19L8 19L8 20L9 20L9 21L6 21L6 22L9 22L9 24L12 24L12 23L14 23L14 21L13 21L13 20L14 20L14 19L13 19L13 17L11 17L11 16L10 16L10 15L8 15L8 13ZM32 13L32 14L30 14L30 15L31 15L31 16L32 16L32 17L33 17L33 15L34 15L34 14L33 14L33 13ZM21 14L21 15L22 15L22 14ZM7 15L7 16L8 16L8 15ZM40 16L40 17L41 17L41 16ZM46 16L46 17L47 17L47 16ZM48 16L48 18L47 18L47 19L49 19L49 16ZM24 17L24 18L22 18L22 19L24 19L24 21L21 21L21 20L20 20L20 21L21 21L21 22L20 22L20 23L19 23L19 24L20 24L20 23L21 23L21 25L22 25L22 22L26 22L26 21L25 21L25 20L26 20L26 19L25 19L25 17ZM26 17L26 18L28 18L28 19L27 19L27 20L30 20L30 21L31 21L31 22L32 22L32 21L31 21L31 20L30 20L30 18L28 18L28 17ZM12 19L12 20L13 20L13 19ZM0 20L0 22L1 22L1 20ZM35 20L35 21L33 21L33 23L34 23L34 24L32 24L32 26L31 26L31 25L30 25L30 24L31 24L31 23L30 23L30 22L27 22L27 23L30 23L30 24L28 24L28 26L27 26L27 29L23 29L23 28L24 28L24 27L22 27L22 29L23 29L23 31L21 31L21 32L23 32L23 33L22 33L22 34L23 34L23 35L24 35L24 36L23 36L23 38L22 38L22 39L21 39L21 37L22 37L22 36L21 36L21 34L20 34L20 33L19 33L19 32L20 32L20 31L19 31L19 32L18 32L18 34L17 34L17 36L16 36L16 35L14 35L14 36L15 36L15 38L16 38L16 37L17 37L17 36L21 36L21 37L20 37L20 39L21 39L21 40L20 40L20 41L19 41L19 43L18 43L18 40L17 40L17 42L16 42L16 40L15 40L15 39L13 39L13 40L11 40L11 43L13 43L13 45L15 45L15 46L13 46L13 47L15 47L15 46L16 46L16 45L19 45L19 46L20 46L20 45L21 45L21 43L22 43L22 40L23 40L23 39L24 39L24 38L25 38L25 37L24 37L24 36L25 36L25 35L26 35L26 34L27 34L27 32L28 32L28 33L29 33L29 35L30 35L30 33L31 33L31 34L32 34L32 35L33 35L33 34L32 34L32 31L33 31L33 32L35 32L35 31L36 31L36 32L38 32L38 33L34 33L34 34L35 34L35 35L36 35L36 34L38 34L38 36L39 36L39 33L42 33L42 31L41 31L41 30L43 30L43 31L44 31L44 30L43 30L43 27L42 27L42 28L40 28L40 26L39 26L39 27L36 27L36 28L35 28L35 25L34 25L34 24L36 24L36 23L37 23L37 25L36 25L36 26L38 26L38 25L40 25L40 23L39 23L39 21L38 21L38 20ZM35 21L35 22L34 22L34 23L35 23L35 22L37 22L37 21ZM2 22L2 23L3 23L3 22ZM5 23L5 26L8 26L8 23ZM15 23L15 24L16 24L16 23ZM23 23L23 26L26 26L26 23ZM41 23L41 26L44 26L44 23ZM0 24L0 25L1 25L1 24ZM2 24L2 25L3 25L3 24ZM6 24L6 25L7 25L7 24ZM13 24L13 25L14 25L14 24ZM24 24L24 25L25 25L25 24ZM42 24L42 25L43 25L43 24ZM10 25L10 26L11 26L11 25ZM33 25L33 26L32 26L32 28L31 28L31 26L30 26L30 29L29 29L29 30L30 30L30 29L33 29L33 31L35 31L35 30L36 30L36 31L37 31L37 30L36 30L36 29L33 29L33 27L34 27L34 25ZM28 26L28 28L29 28L29 26ZM20 27L20 28L21 28L21 27ZM25 27L25 28L26 28L26 27ZM8 29L8 32L9 32L9 29ZM46 29L46 30L45 30L45 31L46 31L46 30L47 30L47 31L48 31L48 29ZM6 30L6 31L7 31L7 30ZM24 30L24 33L26 33L26 31L25 31L25 30ZM27 30L27 31L28 31L28 30ZM31 30L31 31L32 31L32 30ZM38 30L38 31L39 31L39 32L41 32L41 31L40 31L40 30ZM14 31L14 32L15 32L15 31ZM29 31L29 32L30 32L30 31ZM1 32L1 33L2 33L2 32ZM6 33L6 34L7 34L7 33ZM13 33L13 34L16 34L16 33ZM18 34L18 35L19 35L19 34ZM40 34L40 37L41 37L41 36L42 36L42 35L41 35L41 34ZM6 35L6 36L4 36L4 37L6 37L6 38L9 38L9 36L7 36L7 35ZM2 36L2 37L3 37L3 36ZM6 36L6 37L7 37L7 36ZM47 36L47 37L45 37L45 38L47 38L47 37L48 37L48 36ZM11 37L11 38L12 38L12 37ZM18 37L18 38L17 38L17 39L19 39L19 37ZM26 38L26 39L27 39L27 38ZM13 40L13 43L14 43L14 44L15 44L15 43L16 43L16 44L17 44L17 43L16 43L16 42L15 42L15 40ZM20 41L20 42L21 42L21 41ZM23 41L23 44L26 44L26 41ZM38 41L38 44L36 44L36 45L38 45L38 46L35 46L35 48L36 48L36 47L37 47L37 48L38 48L38 47L39 47L39 45L40 45L40 42L39 42L39 41ZM41 41L41 44L44 44L44 41ZM14 42L14 43L15 43L15 42ZM24 42L24 43L25 43L25 42ZM42 42L42 43L43 43L43 42ZM46 42L46 45L47 45L47 42ZM27 43L27 44L28 44L28 43ZM19 44L19 45L20 45L20 44ZM38 44L38 45L39 45L39 44ZM8 45L8 48L9 48L9 49L10 49L10 48L9 48L9 46L10 46L10 45ZM43 45L43 46L44 46L44 45ZM17 46L17 47L18 47L18 46ZM26 46L26 47L27 47L27 46ZM27 48L27 49L28 49L28 48ZM40 48L40 49L41 49L41 48ZM0 0L0 7L7 7L7 0ZM1 1L1 6L6 6L6 1ZM2 2L2 5L5 5L5 2ZM42 0L42 7L49 7L49 0ZM43 1L43 6L48 6L48 1ZM44 2L44 5L47 5L47 2ZM0 42L0 49L7 49L7 42ZM1 43L1 48L6 48L6 43ZM2 44L2 47L5 47L5 44Z" fill="#000000"/></g></g></svg>
