<?xml version="1.0" encoding="UTF-8"?>
<svg xmlns="http://www.w3.org/2000/svg" version="1.1" width="300" height="300" viewBox="0 0 300 300"><rect x="0" y="0" width="300" height="300" fill="#ffffff"/><g transform="scale(6.122)"><g transform="translate(0,0)"><path fill-rule="evenodd" d="M9 0L9 1L8 1L8 2L9 2L9 3L8 3L8 5L9 5L9 6L8 6L8 9L7 9L7 8L3 8L3 9L2 9L2 8L1 8L1 9L2 9L2 12L4 12L4 11L5 11L5 12L6 12L6 13L7 13L7 14L6 14L6 15L7 15L7 16L5 16L5 19L7 19L7 18L8 18L8 17L9 17L9 20L8 20L8 21L7 21L7 20L6 20L6 21L7 21L7 22L5 22L5 20L3 20L3 19L0 19L0 20L3 20L3 21L2 21L2 23L1 23L1 21L0 21L0 26L3 26L3 25L2 25L2 23L4 23L4 27L0 27L0 30L1 30L1 32L0 32L0 34L1 34L1 33L3 33L3 34L4 34L4 37L3 37L3 35L1 35L1 36L0 36L0 38L1 38L1 40L0 40L0 41L3 41L3 40L4 40L4 39L2 39L2 38L5 38L5 39L8 39L8 40L6 40L6 41L8 41L8 42L9 42L9 41L10 41L10 42L12 42L12 43L8 43L8 46L9 46L9 47L8 47L8 48L9 48L9 49L11 49L11 48L12 48L12 46L14 46L14 45L13 45L13 44L16 44L16 46L15 46L15 47L14 47L14 48L13 48L13 49L16 49L16 47L17 47L17 46L19 46L19 47L20 47L20 45L19 45L19 43L20 43L20 44L22 44L22 45L26 45L26 47L25 47L25 46L23 46L23 47L22 47L22 46L21 46L21 47L22 47L22 49L29 49L29 48L26 48L26 47L28 47L28 45L29 45L29 47L30 47L30 46L31 46L31 47L32 47L32 49L35 49L35 48L36 48L36 49L37 49L37 48L38 48L38 49L41 49L41 48L43 48L43 49L46 49L46 48L48 48L48 49L49 49L49 45L48 45L48 44L47 44L47 46L48 46L48 47L46 47L46 45L45 45L45 44L46 44L46 43L47 43L47 42L48 42L48 43L49 43L49 42L48 42L48 41L46 41L46 38L47 38L47 39L49 39L49 38L47 38L47 37L49 37L49 34L48 34L48 36L47 36L47 35L46 35L46 36L45 36L45 34L47 34L47 33L49 33L49 30L48 30L48 29L49 29L49 26L47 26L47 27L45 27L45 26L46 26L46 24L47 24L47 25L48 25L48 24L47 24L47 23L46 23L46 21L44 21L44 22L43 22L43 18L45 18L45 20L46 20L46 19L47 19L47 20L48 20L48 21L49 21L49 18L48 18L48 17L47 17L47 18L45 18L45 17L46 17L46 16L47 16L47 15L49 15L49 14L46 14L46 13L45 13L45 10L47 10L47 11L46 11L46 12L48 12L48 11L49 11L49 10L47 10L47 9L48 9L48 8L47 8L47 9L46 9L46 8L44 8L44 9L45 9L45 10L44 10L44 13L45 13L45 14L44 14L44 15L43 15L43 18L41 18L41 19L40 19L40 16L39 16L39 15L40 15L40 14L39 14L39 13L40 13L40 12L41 12L41 13L42 13L42 14L41 14L41 17L42 17L42 14L43 14L43 12L42 12L42 11L39 11L39 12L38 12L38 10L41 10L41 9L42 9L42 10L43 10L43 8L41 8L41 9L40 9L40 7L41 7L41 6L40 6L40 7L39 7L39 5L38 5L38 2L39 2L39 4L40 4L40 3L41 3L41 0L40 0L40 1L37 1L37 0L36 0L36 1L35 1L35 0L34 0L34 2L37 2L37 3L35 3L35 6L34 6L34 7L33 7L33 6L32 6L32 7L31 7L31 6L30 6L30 7L29 7L29 5L28 5L28 4L26 4L26 0L25 0L25 4L24 4L24 3L23 3L23 4L22 4L22 3L21 3L21 2L24 2L24 0L22 0L22 1L21 1L21 0L18 0L18 1L17 1L17 2L15 2L15 1L14 1L14 2L12 2L12 1L13 1L13 0L12 0L12 1L11 1L11 2L12 2L12 3L10 3L10 0ZM27 0L27 1L28 1L28 3L29 3L29 4L30 4L30 5L33 5L33 2L31 2L31 3L32 3L32 4L30 4L30 2L29 2L29 1L28 1L28 0ZM30 0L30 1L33 1L33 0ZM18 1L18 3L15 3L15 4L17 4L17 7L18 7L18 8L16 8L16 5L14 5L14 4L13 4L13 3L12 3L12 4L11 4L11 7L10 7L10 6L9 6L9 9L8 9L8 10L7 10L7 9L5 9L5 11L6 11L6 12L7 12L7 13L9 13L9 12L11 12L11 13L10 13L10 14L11 14L11 15L9 15L9 16L11 16L11 15L12 15L12 18L11 18L11 22L10 22L10 23L9 23L9 24L10 24L10 26L9 26L9 27L6 27L6 28L5 28L5 29L3 29L3 28L1 28L1 30L2 30L2 31L3 31L3 33L4 33L4 34L5 34L5 31L3 31L3 30L5 30L5 29L6 29L6 30L7 30L7 29L10 29L10 32L7 32L7 31L6 31L6 32L7 32L7 33L6 33L6 34L8 34L8 35L5 35L5 36L7 36L7 37L6 37L6 38L7 38L7 37L8 37L8 38L9 38L9 40L10 40L10 41L12 41L12 40L13 40L13 39L12 39L12 38L14 38L14 37L15 37L15 38L16 38L16 39L17 39L17 37L16 37L16 36L15 36L15 35L14 35L14 37L12 37L12 34L14 34L14 32L15 32L15 34L16 34L16 33L17 33L17 31L21 31L21 33L20 33L20 34L21 34L21 36L20 36L20 35L19 35L19 33L18 33L18 35L17 35L17 36L18 36L18 35L19 35L19 37L18 37L18 40L17 40L17 41L15 41L15 39L14 39L14 42L13 42L13 43L14 43L14 42L16 42L16 44L17 44L17 45L18 45L18 44L17 44L17 42L18 42L18 41L20 41L20 43L22 43L22 41L20 41L20 38L21 38L21 39L22 39L22 40L25 40L25 39L26 39L26 40L27 40L27 45L28 45L28 41L29 41L29 42L33 42L33 41L32 41L32 40L33 40L33 39L34 39L34 40L35 40L35 41L34 41L34 42L35 42L35 44L37 44L37 45L38 45L38 44L40 44L40 42L39 42L39 43L36 43L36 42L37 42L37 41L39 41L39 39L38 39L38 40L37 40L37 39L36 39L36 38L35 38L35 37L34 37L34 31L35 31L35 30L36 30L36 28L37 28L37 29L38 29L38 31L39 31L39 30L40 30L40 29L42 29L42 28L43 28L43 27L42 27L42 28L40 28L40 29L39 29L39 28L38 28L38 27L37 27L37 26L36 26L36 24L37 24L37 23L38 23L38 24L39 24L39 23L40 23L40 22L38 22L38 20L39 20L39 19L38 19L38 18L39 18L39 17L36 17L36 18L35 18L35 19L34 19L34 17L35 17L35 16L38 16L38 15L36 15L36 13L32 13L32 11L34 11L34 8L33 8L33 9L32 9L32 8L30 8L30 9L29 9L29 7L28 7L28 5L27 5L27 7L28 7L28 8L27 8L27 9L29 9L29 10L30 10L30 11L29 11L29 12L28 12L28 13L27 13L27 11L26 11L26 13L25 13L25 12L24 12L24 10L23 10L23 9L22 9L22 6L21 6L21 7L20 7L20 4L21 4L21 3L20 3L20 2L21 2L21 1L20 1L20 2L19 2L19 1ZM19 3L19 4L18 4L18 5L19 5L19 4L20 4L20 3ZM12 4L12 5L13 5L13 4ZM36 4L36 6L35 6L35 8L36 8L36 9L35 9L35 12L37 12L37 10L38 10L38 6L37 6L37 4ZM23 5L23 8L26 8L26 5ZM12 6L12 7L13 7L13 6ZM14 6L14 8L11 8L11 9L9 9L9 10L8 10L8 11L7 11L7 10L6 10L6 11L7 11L7 12L8 12L8 11L9 11L9 10L11 10L11 9L12 9L12 12L13 12L13 13L14 13L14 14L15 14L15 15L14 15L14 16L13 16L13 17L14 17L14 16L15 16L15 17L16 17L16 15L18 15L18 16L17 16L17 18L16 18L16 20L22 20L22 21L21 21L21 22L20 22L20 24L21 24L21 23L22 23L22 25L21 25L21 26L20 26L20 25L19 25L19 26L18 26L18 23L17 23L17 22L16 22L16 21L15 21L15 22L14 22L14 24L13 24L13 23L11 23L11 24L12 24L12 25L14 25L14 26L12 26L12 27L11 27L11 26L10 26L10 27L9 27L9 28L10 28L10 27L11 27L11 32L10 32L10 33L9 33L9 35L8 35L8 37L9 37L9 36L10 36L10 39L11 39L11 40L12 40L12 39L11 39L11 36L10 36L10 33L11 33L11 32L13 32L13 31L15 31L15 32L16 32L16 31L17 31L17 30L20 30L20 29L21 29L21 31L22 31L22 33L21 33L21 34L24 34L24 35L27 35L27 38L26 38L26 37L25 37L25 36L23 36L23 35L22 35L22 36L21 36L21 38L22 38L22 39L23 39L23 38L22 38L22 37L24 37L24 38L26 38L26 39L29 39L29 41L30 41L30 38L31 38L31 40L32 40L32 38L31 38L31 37L33 37L33 33L32 33L32 32L33 32L33 31L34 31L34 30L35 30L35 29L34 29L34 28L36 28L36 26L35 26L35 27L33 27L33 26L34 26L34 25L33 25L33 24L34 24L34 23L35 23L35 24L36 24L36 23L37 23L37 20L36 20L36 21L35 21L35 20L34 20L34 21L33 21L33 22L31 22L31 21L32 21L32 19L33 19L33 16L32 16L32 15L30 15L30 14L31 14L31 11L32 11L32 10L31 10L31 9L30 9L30 10L31 10L31 11L30 11L30 12L29 12L29 13L28 13L28 15L25 15L25 17L24 17L24 15L21 15L21 13L22 13L22 14L24 14L24 12L23 12L23 11L22 11L22 12L20 12L20 13L17 13L17 12L19 12L19 11L16 11L16 8L15 8L15 6ZM18 6L18 7L19 7L19 8L20 8L20 7L19 7L19 6ZM24 6L24 7L25 7L25 6ZM36 6L36 8L37 8L37 6ZM14 8L14 10L13 10L13 12L14 12L14 13L16 13L16 12L15 12L15 11L14 11L14 10L15 10L15 8ZM3 9L3 11L4 11L4 9ZM17 9L17 10L18 10L18 9ZM19 9L19 10L21 10L21 9ZM25 9L25 10L26 10L26 9ZM0 11L0 13L1 13L1 14L0 14L0 16L2 16L2 17L3 17L3 18L4 18L4 13L1 13L1 11ZM22 12L22 13L23 13L23 12ZM11 13L11 14L12 14L12 15L13 15L13 14L12 14L12 13ZM26 13L26 14L27 14L27 13ZM29 13L29 14L30 14L30 13ZM2 14L2 16L3 16L3 14ZM7 14L7 15L8 15L8 14ZM19 14L19 15L20 15L20 14ZM45 14L45 15L44 15L44 16L46 16L46 14ZM28 15L28 16L27 16L27 17L25 17L25 18L24 18L24 17L23 17L23 18L24 18L24 20L23 20L23 21L24 21L24 22L25 22L25 21L26 21L26 20L27 20L27 21L29 21L29 19L30 19L30 20L31 20L31 19L30 19L30 18L29 18L29 19L28 19L28 20L27 20L27 18L28 18L28 16L29 16L29 17L30 17L30 15ZM34 15L34 16L35 16L35 15ZM7 16L7 17L6 17L6 18L7 18L7 17L8 17L8 16ZM21 16L21 17L19 17L19 18L17 18L17 19L19 19L19 18L21 18L21 17L22 17L22 16ZM31 16L31 18L32 18L32 16ZM12 18L12 19L13 19L13 20L12 20L12 21L14 21L14 20L15 20L15 19L13 19L13 18ZM36 18L36 19L37 19L37 18ZM47 18L47 19L48 19L48 18ZM25 19L25 20L26 20L26 19ZM41 19L41 20L40 20L40 21L42 21L42 19ZM8 21L8 22L9 22L9 21ZM18 21L18 22L19 22L19 21ZM15 22L15 23L16 23L16 22ZM27 22L27 29L25 29L25 27L24 27L24 28L22 28L22 27L21 27L21 28L22 28L22 29L23 29L23 30L22 30L22 31L24 31L24 32L23 32L23 33L24 33L24 32L25 32L25 30L27 30L27 29L29 29L29 30L30 30L30 32L32 32L32 30L33 30L33 29L32 29L32 30L30 30L30 29L31 29L31 28L33 28L33 27L32 27L32 26L33 26L33 25L32 25L32 23L31 23L31 22ZM35 22L35 23L36 23L36 22ZM48 22L48 23L49 23L49 22ZM5 23L5 26L8 26L8 23ZM23 23L23 26L26 26L26 23ZM28 23L28 24L29 24L29 25L28 25L28 26L31 26L31 23L30 23L30 24L29 24L29 23ZM41 23L41 26L44 26L44 23ZM6 24L6 25L7 25L7 24ZM14 24L14 25L15 25L15 26L17 26L17 25L15 25L15 24ZM24 24L24 25L25 25L25 24ZM42 24L42 25L43 25L43 24ZM39 25L39 27L40 27L40 25ZM19 26L19 27L16 27L16 28L15 28L15 27L12 27L12 29L13 29L13 28L14 28L14 29L16 29L16 28L17 28L17 29L18 29L18 28L19 28L19 29L20 29L20 28L19 28L19 27L20 27L20 26ZM30 27L30 28L31 28L31 27ZM47 27L47 29L46 29L46 28L45 28L45 29L43 29L43 31L42 31L42 30L41 30L41 31L42 31L42 32L40 32L40 33L39 33L39 34L37 34L37 35L35 35L35 36L37 36L37 38L38 38L38 36L37 36L37 35L40 35L40 36L41 36L41 33L42 33L42 34L44 34L44 32L43 32L43 31L44 31L44 30L45 30L45 31L46 31L46 33L47 33L47 31L48 31L48 30L47 30L47 29L48 29L48 27ZM6 28L6 29L7 29L7 28ZM2 29L2 30L3 30L3 29ZM45 29L45 30L46 30L46 29ZM15 30L15 31L16 31L16 30ZM26 31L26 32L27 32L27 31ZM28 31L28 32L29 32L29 31ZM35 32L35 33L36 33L36 32ZM37 32L37 33L38 33L38 32ZM25 33L25 34L27 34L27 33ZM29 33L29 34L28 34L28 36L30 36L30 37L28 37L28 38L30 38L30 37L31 37L31 36L30 36L30 35L32 35L32 34L30 34L30 33ZM42 35L42 37L43 37L43 39L42 39L42 38L40 38L40 37L39 37L39 38L40 38L40 39L42 39L42 40L44 40L44 39L45 39L45 38L44 38L44 37L45 37L45 36L44 36L44 37L43 37L43 35ZM1 36L1 38L2 38L2 36ZM46 36L46 37L47 37L47 36ZM19 37L19 38L20 38L20 37ZM36 40L36 41L35 41L35 42L36 42L36 41L37 41L37 40ZM23 41L23 44L26 44L26 41ZM41 41L41 44L44 44L44 41ZM24 42L24 43L25 43L25 42ZM42 42L42 43L43 43L43 42ZM31 43L31 45L33 45L33 43ZM10 44L10 45L9 45L9 46L10 46L10 47L9 47L9 48L11 48L11 46L10 46L10 45L11 45L11 44ZM43 45L43 46L40 46L40 47L43 47L43 48L44 48L44 47L43 47L43 46L45 46L45 45ZM35 46L35 47L36 47L36 48L37 48L37 47L39 47L39 46L37 46L37 47L36 47L36 46ZM23 47L23 48L25 48L25 47ZM33 47L33 48L34 48L34 47ZM19 48L19 49L20 49L20 48ZM0 0L0 7L7 7L7 0ZM1 1L1 6L6 6L6 1ZM2 2L2 5L5 5L5 2ZM42 0L42 7L49 7L49 0ZM43 1L43 6L48 6L48 1ZM44 2L44 5L47 5L47 2ZM0 42L0 49L7 49L7 42ZM1 43L1 48L6 48L6 43ZM2 44L2 47L5 47L5 44Z" fill="#000000"/></g></g></svg>
