<?xml version="1.0" encoding="UTF-8"?>
<svg xmlns="http://www.w3.org/2000/svg" version="1.1" width="300" height="300" viewBox="0 0 300 300"><rect x="0" y="0" width="300" height="300" fill="#ffffff"/><g transform="scale(6.122)"><g transform="translate(0,0)"><path fill-rule="evenodd" d="M8 0L8 1L11 1L11 2L10 2L10 4L8 4L8 7L9 7L9 5L10 5L10 7L11 7L11 6L12 6L12 7L13 7L13 9L14 9L14 11L13 11L13 12L11 12L11 11L12 11L12 10L9 10L9 11L10 11L10 12L8 12L8 10L6 10L6 9L8 9L8 8L1 8L1 10L0 10L0 11L2 11L2 12L0 12L0 14L1 14L1 13L3 13L3 10L4 10L4 9L5 9L5 10L6 10L6 11L7 11L7 12L6 12L6 13L5 13L5 11L4 11L4 16L3 16L3 14L2 14L2 16L3 16L3 17L4 17L4 19L3 19L3 18L1 18L1 15L0 15L0 18L1 18L1 19L0 19L0 20L1 20L1 21L0 21L0 26L1 26L1 24L2 24L2 27L1 27L1 28L2 28L2 31L3 31L3 32L2 32L2 33L0 33L0 36L1 36L1 37L0 37L0 38L1 38L1 40L0 40L0 41L3 41L3 40L4 40L4 39L2 39L2 38L3 38L3 37L5 37L5 39L7 39L7 40L6 40L6 41L8 41L8 48L9 48L9 49L10 49L10 48L11 48L11 49L12 49L12 47L10 47L10 45L12 45L12 46L14 46L14 48L15 48L15 49L18 49L18 46L19 46L19 48L20 48L20 49L21 49L21 48L22 48L22 46L23 46L23 45L27 45L27 44L29 44L29 45L28 45L28 46L27 46L27 49L28 49L28 48L29 48L29 49L30 49L30 47L28 47L28 46L31 46L31 47L32 47L32 48L31 48L31 49L32 49L32 48L33 48L33 49L34 49L34 47L37 47L37 48L35 48L35 49L38 49L38 48L40 48L40 49L41 49L41 47L42 47L42 48L43 48L43 47L44 47L44 48L45 48L45 49L49 49L49 45L48 45L48 44L46 44L46 46L45 46L45 43L46 43L46 42L45 42L45 41L48 41L48 40L45 40L45 39L44 39L44 37L45 37L45 38L47 38L47 39L49 39L49 38L47 38L47 36L48 36L48 37L49 37L49 34L47 34L47 36L46 36L46 34L44 34L44 33L49 33L49 30L48 30L48 31L47 31L47 29L49 29L49 26L46 26L46 27L47 27L47 28L46 28L46 31L47 31L47 32L44 32L44 33L43 33L43 34L42 34L42 33L41 33L41 32L42 32L42 31L43 31L43 29L45 29L45 28L44 28L44 27L45 27L45 25L48 25L48 24L45 24L45 23L46 23L46 22L47 22L47 23L49 23L49 22L47 22L47 20L48 20L48 21L49 21L49 18L47 18L47 17L48 17L48 16L46 16L46 15L49 15L49 14L46 14L46 13L48 13L48 12L46 12L46 11L44 11L44 10L43 10L43 9L45 9L45 8L43 8L43 9L42 9L42 10L41 10L41 12L39 12L39 14L34 14L34 13L33 13L33 14L34 14L34 16L33 16L33 15L31 15L31 16L33 16L33 17L34 17L34 18L32 18L32 17L31 17L31 18L30 18L30 17L29 17L29 16L30 16L30 14L32 14L32 12L33 12L33 11L32 11L32 12L31 12L31 11L29 11L29 10L32 10L32 9L31 9L31 8L32 8L32 7L33 7L33 8L34 8L34 7L35 7L35 8L36 8L36 9L35 9L35 10L34 10L34 9L33 9L33 10L34 10L34 12L35 12L35 10L36 10L36 11L39 11L39 10L37 10L37 9L41 9L41 8L38 8L38 7L39 7L39 5L38 5L38 3L35 3L35 2L37 2L37 1L38 1L38 2L39 2L39 4L40 4L40 3L41 3L41 0L40 0L40 1L38 1L38 0L35 0L35 1L31 1L31 0L28 0L28 1L27 1L27 0L26 0L26 1L27 1L27 3L24 3L24 2L23 2L23 1L20 1L20 2L18 2L18 3L16 3L16 1L19 1L19 0L16 0L16 1L15 1L15 0ZM24 0L24 1L25 1L25 0ZM12 1L12 2L11 2L11 3L12 3L12 4L14 4L14 5L12 5L12 6L13 6L13 7L14 7L14 5L15 5L15 1L14 1L14 2L13 2L13 1ZM28 1L28 2L30 2L30 4L32 4L32 5L30 5L30 6L29 6L29 5L27 5L27 8L28 8L28 6L29 6L29 8L31 8L31 7L32 7L32 6L33 6L33 7L34 7L34 6L33 6L33 5L35 5L35 7L36 7L36 6L37 6L37 7L38 7L38 6L37 6L37 4L33 4L33 3L34 3L34 2L33 2L33 3L32 3L32 2L31 2L31 1ZM12 2L12 3L13 3L13 2ZM21 3L21 4L19 4L19 7L18 7L18 5L16 5L16 6L15 6L15 7L16 7L16 6L17 6L17 8L18 8L18 9L15 9L15 10L17 10L17 11L14 11L14 12L13 12L13 13L12 13L12 14L13 14L13 15L11 15L11 16L10 16L10 14L9 14L9 13L6 13L6 14L5 14L5 15L6 15L6 16L5 16L5 19L4 19L4 21L3 21L3 19L1 19L1 20L2 20L2 21L1 21L1 23L2 23L2 24L3 24L3 25L4 25L4 24L3 24L3 22L5 22L5 21L6 21L6 22L10 22L10 23L11 23L11 20L10 20L10 19L11 19L11 18L10 18L10 17L11 17L11 16L12 16L12 17L13 17L13 18L16 18L16 19L13 19L13 20L12 20L12 21L13 21L13 23L12 23L12 24L13 24L13 25L9 25L9 27L10 27L10 26L11 26L11 27L12 27L12 28L10 28L10 30L9 30L9 28L7 28L7 27L4 27L4 26L3 26L3 27L4 27L4 28L3 28L3 29L4 29L4 28L7 28L7 29L5 29L5 30L4 30L4 32L5 32L5 31L6 31L6 32L7 32L7 31L8 31L8 32L10 32L10 33L13 33L13 36L14 36L14 33L15 33L15 35L16 35L16 37L15 37L15 39L14 39L14 37L12 37L12 34L11 34L11 35L10 35L10 34L8 34L8 37L9 37L9 36L11 36L11 38L7 38L7 37L6 37L6 38L7 38L7 39L8 39L8 41L9 41L9 40L10 40L10 39L11 39L11 38L13 38L13 40L11 40L11 41L10 41L10 42L9 42L9 44L10 44L10 42L11 42L11 43L12 43L12 45L13 45L13 44L14 44L14 45L15 45L15 46L16 46L16 45L15 45L15 44L17 44L17 45L18 45L18 44L17 44L17 43L18 43L18 42L19 42L19 46L20 46L20 48L21 48L21 46L20 46L20 44L21 44L21 45L22 45L22 42L20 42L20 41L19 41L19 40L20 40L20 39L21 39L21 40L23 40L23 39L22 39L22 35L23 35L23 36L25 36L25 37L23 37L23 38L24 38L24 40L25 40L25 39L27 39L27 40L28 40L28 41L27 41L27 43L29 43L29 42L30 42L30 41L29 41L29 40L30 40L30 39L31 39L31 41L34 41L34 42L31 42L31 43L33 43L33 44L32 44L32 47L33 47L33 46L35 46L35 44L37 44L37 43L36 43L36 42L38 42L38 43L40 43L40 41L39 41L39 40L41 40L41 39L42 39L42 40L44 40L44 39L42 39L42 38L41 38L41 39L36 39L36 40L35 40L35 39L34 39L34 38L35 38L35 37L34 37L34 38L32 38L32 37L33 37L33 36L32 36L32 35L31 35L31 34L32 34L32 33L31 33L31 32L33 32L33 33L34 33L34 34L33 34L33 35L34 35L34 36L40 36L40 37L41 37L41 36L42 36L42 37L44 37L44 36L45 36L45 37L46 37L46 36L45 36L45 35L44 35L44 34L43 34L43 35L42 35L42 34L39 34L39 32L40 32L40 31L41 31L41 30L42 30L42 29L41 29L41 27L40 27L40 24L39 24L39 23L40 23L40 22L41 22L41 21L42 21L42 17L43 17L43 16L39 16L39 17L40 17L40 18L37 18L37 19L36 19L36 17L35 17L35 18L34 18L34 20L32 20L32 19L30 19L30 18L29 18L29 17L28 17L28 15L29 15L29 14L30 14L30 13L31 13L31 12L29 12L29 11L26 11L26 12L23 12L23 13L24 13L24 14L23 14L23 15L22 15L22 14L20 14L20 13L19 13L19 12L21 12L21 11L22 11L22 10L24 10L24 11L25 11L25 10L24 10L24 9L21 9L21 8L22 8L22 6L21 6L21 8L20 8L20 5L21 5L21 4L22 4L22 3ZM23 3L23 4L24 4L24 3ZM27 3L27 4L28 4L28 3ZM10 4L10 5L11 5L11 4ZM23 5L23 8L26 8L26 5ZM24 6L24 7L25 7L25 6ZM30 6L30 7L31 7L31 6ZM40 6L40 7L41 7L41 6ZM9 8L9 9L11 9L11 8ZM48 8L48 9L46 9L46 10L48 10L48 11L49 11L49 10L48 10L48 9L49 9L49 8ZM19 9L19 10L18 10L18 11L17 11L17 12L19 12L19 11L21 11L21 10L20 10L20 9ZM26 9L26 10L29 10L29 9ZM42 10L42 11L43 11L43 12L44 12L44 13L46 13L46 12L44 12L44 11L43 11L43 10ZM10 12L10 13L11 13L11 12ZM26 12L26 13L25 13L25 17L23 17L23 16L24 16L24 15L23 15L23 16L22 16L22 17L23 17L23 18L25 18L25 19L24 19L24 20L23 20L23 19L22 19L22 18L21 18L21 15L20 15L20 14L18 14L18 13L16 13L16 14L17 14L17 15L19 15L19 18L20 18L20 19L22 19L22 20L23 20L23 21L25 21L25 22L22 22L22 21L21 21L21 20L20 20L20 21L21 21L21 23L19 23L19 25L20 25L20 26L19 26L19 28L20 28L20 27L21 27L21 23L22 23L22 27L24 27L24 28L25 28L25 27L27 27L27 28L26 28L26 29L24 29L24 30L22 30L22 28L21 28L21 30L20 30L20 29L18 29L18 28L17 28L17 27L18 27L18 25L17 25L17 27L16 27L16 24L15 24L15 23L16 23L16 22L15 22L15 21L14 21L14 22L15 22L15 23L14 23L14 25L13 25L13 26L12 26L12 27L13 27L13 26L14 26L14 28L15 28L15 27L16 27L16 29L17 29L17 30L19 30L19 31L18 31L18 32L16 32L16 35L17 35L17 36L19 36L19 38L18 38L18 37L16 37L16 39L15 39L15 40L16 40L16 39L17 39L17 41L14 41L14 40L13 40L13 41L14 41L14 42L12 42L12 43L14 43L14 42L17 42L17 41L18 41L18 40L19 40L19 39L20 39L20 38L21 38L21 37L20 37L20 35L22 35L22 33L23 33L23 35L25 35L25 34L24 34L24 32L22 32L22 31L24 31L24 30L26 30L26 29L27 29L27 30L31 30L31 31L30 31L30 32L28 32L28 31L25 31L25 32L28 32L28 33L26 33L26 34L28 34L28 36L27 36L27 37L28 37L28 38L27 38L27 39L28 39L28 40L29 40L29 39L30 39L30 38L31 38L31 37L32 37L32 36L31 36L31 35L30 35L30 34L31 34L31 33L30 33L30 32L31 32L31 31L32 31L32 28L33 28L33 29L34 29L34 28L33 28L33 25L32 25L32 24L33 24L33 23L34 23L34 25L36 25L36 26L34 26L34 27L35 27L35 30L33 30L33 32L34 32L34 31L35 31L35 30L36 30L36 32L35 32L35 33L36 33L36 32L37 32L37 33L38 33L38 31L39 31L39 30L40 30L40 28L38 28L38 29L37 29L37 28L36 28L36 26L37 26L37 24L38 24L38 23L39 23L39 22L38 22L38 23L37 23L37 21L41 21L41 20L40 20L40 19L37 19L37 20L36 20L36 21L35 21L35 22L33 22L33 21L32 21L32 22L31 22L31 20L30 20L30 19L29 19L29 21L25 21L25 20L28 20L28 17L27 17L27 18L25 18L25 17L26 17L26 13L27 13L27 14L29 14L29 12ZM36 12L36 13L38 13L38 12ZM41 12L41 13L40 13L40 14L42 14L42 15L43 15L43 14L42 14L42 12ZM14 13L14 14L15 14L15 13ZM6 14L6 15L7 15L7 16L6 16L6 17L7 17L7 18L6 18L6 19L5 19L5 20L6 20L6 21L7 21L7 20L8 20L8 21L10 21L10 20L9 20L9 19L10 19L10 18L8 18L8 17L7 17L7 16L8 16L8 15L9 15L9 14ZM15 15L15 16L16 16L16 17L18 17L18 16L16 16L16 15ZM35 15L35 16L37 16L37 17L38 17L38 16L37 16L37 15ZM13 16L13 17L14 17L14 16ZM44 16L44 17L46 17L46 16ZM17 18L17 20L16 20L16 21L17 21L17 20L19 20L19 19L18 19L18 18ZM46 18L46 19L45 19L45 20L44 20L44 21L43 21L43 22L46 22L46 20L47 20L47 18ZM6 19L6 20L7 20L7 19ZM18 21L18 22L17 22L17 23L18 23L18 22L19 22L19 21ZM28 22L28 23L27 23L27 24L28 24L28 25L27 25L27 26L28 26L28 27L29 27L29 28L27 28L27 29L29 29L29 28L30 28L30 29L31 29L31 28L32 28L32 27L31 27L31 26L29 26L29 25L30 25L30 24L29 24L29 22ZM30 22L30 23L31 23L31 24L32 24L32 23L33 23L33 22L32 22L32 23L31 23L31 22ZM5 23L5 26L8 26L8 23ZM23 23L23 26L26 26L26 23ZM35 23L35 24L37 24L37 23ZM41 23L41 26L44 26L44 23ZM6 24L6 25L7 25L7 24ZM24 24L24 25L25 25L25 24ZM42 24L42 25L43 25L43 24ZM14 25L14 26L15 26L15 25ZM38 26L38 27L39 27L39 26ZM30 27L30 28L31 28L31 27ZM42 27L42 28L43 28L43 27ZM7 29L7 30L6 30L6 31L7 31L7 30L8 30L8 29ZM12 29L12 31L11 31L11 30L10 30L10 32L14 32L14 30L13 30L13 29ZM38 29L38 30L37 30L37 31L38 31L38 30L39 30L39 29ZM0 30L0 31L1 31L1 30ZM44 30L44 31L45 31L45 30ZM19 31L19 33L17 33L17 34L19 34L19 35L20 35L20 32L21 32L21 31ZM2 33L2 34L4 34L4 33ZM6 33L6 34L5 34L5 35L2 35L2 37L1 37L1 38L2 38L2 37L3 37L3 36L5 36L5 35L6 35L6 36L7 36L7 35L6 35L6 34L7 34L7 33ZM29 33L29 34L30 34L30 33ZM34 34L34 35L36 35L36 34ZM37 34L37 35L39 35L39 34ZM29 35L29 36L28 36L28 37L29 37L29 38L28 38L28 39L29 39L29 38L30 38L30 37L29 37L29 36L30 36L30 35ZM40 35L40 36L41 36L41 35ZM43 35L43 36L44 36L44 35ZM25 37L25 38L26 38L26 37ZM37 37L37 38L39 38L39 37ZM17 38L17 39L18 39L18 38ZM32 39L32 40L34 40L34 39ZM36 40L36 41L35 41L35 42L36 42L36 41L38 41L38 40ZM23 41L23 44L26 44L26 41ZM41 41L41 44L44 44L44 41ZM24 42L24 43L25 43L25 42ZM42 42L42 43L43 43L43 42ZM47 42L47 43L49 43L49 42ZM34 43L34 44L33 44L33 45L34 45L34 44L35 44L35 43ZM38 45L38 46L37 46L37 47L38 47L38 46L39 46L39 47L40 47L40 46L42 46L42 45L40 45L40 46L39 46L39 45ZM43 45L43 46L44 46L44 47L45 47L45 48L48 48L48 47L47 47L47 46L46 46L46 47L45 47L45 46L44 46L44 45ZM24 46L24 47L23 47L23 48L24 48L24 49L25 49L25 48L26 48L26 47L25 47L25 46ZM15 47L15 48L17 48L17 47ZM24 47L24 48L25 48L25 47ZM0 0L0 7L7 7L7 0ZM1 1L1 6L6 6L6 1ZM2 2L2 5L5 5L5 2ZM42 0L42 7L49 7L49 0ZM43 1L43 6L48 6L48 1ZM44 2L44 5L47 5L47 2ZM0 42L0 49L7 49L7 42ZM1 43L1 48L6 48L6 43ZM2 44L2 47L5 47L5 44Z" fill="#000000"/></g></g></svg>
