<?xml version="1.0" encoding="UTF-8"?>
<svg xmlns="http://www.w3.org/2000/svg" version="1.1" width="300" height="300" viewBox="0 0 300 300"><rect x="0" y="0" width="300" height="300" fill="#ffffff"/><g transform="scale(8.108)"><g transform="translate(0,0)"><path fill-rule="evenodd" d="M8 0L8 1L9 1L9 2L8 2L8 4L9 4L9 5L8 5L8 8L5 8L5 9L8 9L8 10L6 10L6 11L9 11L9 13L8 13L8 12L5 12L5 10L4 10L4 8L3 8L3 9L2 9L2 8L1 8L1 9L0 9L0 12L1 12L1 13L0 13L0 15L1 15L1 17L0 17L0 18L1 18L1 17L4 17L4 16L3 16L3 15L4 15L4 14L5 14L5 18L6 18L6 19L7 19L7 20L5 20L5 19L3 19L3 18L2 18L2 19L3 19L3 20L1 20L1 22L0 22L0 23L2 23L2 24L3 24L3 25L4 25L4 27L3 27L3 26L2 26L2 27L1 27L1 26L0 26L0 27L1 27L1 28L0 28L0 29L4 29L4 27L5 27L5 28L6 28L6 29L8 29L8 32L9 32L9 33L8 33L8 34L9 34L9 33L10 33L10 34L11 34L11 33L10 33L10 32L11 32L11 31L10 31L10 30L11 30L11 29L14 29L14 30L13 30L13 31L12 31L12 32L14 32L14 31L15 31L15 33L16 33L16 32L17 32L17 31L16 31L16 30L18 30L18 29L19 29L19 30L20 30L20 31L22 31L22 32L23 32L23 35L20 35L20 33L21 33L21 34L22 34L22 33L21 33L21 32L19 32L19 31L18 31L18 32L19 32L19 34L18 34L18 33L17 33L17 34L16 34L16 35L19 35L19 36L22 36L22 37L25 37L25 33L26 33L26 34L27 34L27 33L26 33L26 32L27 32L27 31L28 31L28 34L29 34L29 35L28 35L28 37L31 37L31 36L32 36L32 37L34 37L34 35L33 35L33 31L34 31L34 32L35 32L35 31L34 31L34 29L33 29L33 28L32 28L32 26L31 26L31 28L30 28L30 26L28 26L28 25L29 25L29 24L30 24L30 25L34 25L34 23L36 23L36 24L35 24L35 26L36 26L36 27L34 27L34 28L36 28L36 29L35 29L35 30L36 30L36 31L37 31L37 28L36 28L36 27L37 27L37 25L36 25L36 24L37 24L37 23L36 23L36 21L37 21L37 20L36 20L36 19L37 19L37 16L36 16L36 15L37 15L37 8L36 8L36 9L35 9L35 8L33 8L33 9L32 9L32 8L29 8L29 5L28 5L28 4L29 4L29 0L27 0L27 1L26 1L26 0L25 0L25 4L26 4L26 5L27 5L27 6L26 6L26 7L25 7L25 6L24 6L24 5L23 5L23 4L22 4L22 5L20 5L20 7L19 7L19 5L18 5L18 7L17 7L17 6L16 6L16 7L15 7L15 5L12 5L12 4L10 4L10 3L11 3L11 2L12 2L12 3L13 3L13 4L15 4L15 3L13 3L13 1L12 1L12 0ZM14 0L14 2L15 2L15 0ZM18 0L18 1L19 1L19 0ZM20 0L20 4L21 4L21 2L22 2L22 3L23 3L23 0L22 0L22 1L21 1L21 0ZM10 1L10 2L9 2L9 3L10 3L10 2L11 2L11 1ZM16 1L16 2L17 2L17 3L16 3L16 4L17 4L17 3L18 3L18 4L19 4L19 3L18 3L18 2L17 2L17 1ZM26 2L26 3L27 3L27 2ZM10 5L10 6L9 6L9 7L10 7L10 8L11 8L11 7L12 7L12 5ZM10 6L10 7L11 7L11 6ZM13 6L13 7L14 7L14 8L12 8L12 9L14 9L14 8L15 8L15 9L17 9L17 10L15 10L15 11L13 11L13 10L11 10L11 9L9 9L9 10L10 10L10 13L9 13L9 14L8 14L8 13L5 13L5 14L8 14L8 15L6 15L6 16L7 16L7 17L6 17L6 18L7 18L7 17L8 17L8 19L10 19L10 21L9 21L9 22L10 22L10 21L11 21L11 23L13 23L13 22L15 22L15 23L16 23L16 22L17 22L17 25L16 25L16 24L15 24L15 25L13 25L13 28L14 28L14 29L15 29L15 30L16 30L16 29L15 29L15 27L16 27L16 28L17 28L17 29L18 29L18 28L19 28L19 27L20 27L20 28L21 28L21 29L20 29L20 30L22 30L22 31L23 31L23 32L24 32L24 30L23 30L23 29L24 29L24 28L25 28L25 32L26 32L26 31L27 31L27 29L26 29L26 28L25 28L25 27L26 27L26 26L25 26L25 25L26 25L26 24L27 24L27 23L28 23L28 24L29 24L29 23L30 23L30 24L31 24L31 23L32 23L32 22L33 22L33 23L34 23L34 22L35 22L35 21L36 21L36 20L34 20L34 19L36 19L36 18L35 18L35 17L34 17L34 19L33 19L33 21L32 21L32 22L31 22L31 23L30 23L30 21L29 21L29 20L32 20L32 19L30 19L30 18L29 18L29 17L30 17L30 16L32 16L32 17L33 17L33 10L32 10L32 9L30 9L30 10L32 10L32 11L30 11L30 12L29 12L29 11L28 11L28 10L29 10L29 8L28 8L28 6L27 6L27 7L26 7L26 8L24 8L24 6L23 6L23 10L21 10L21 9L20 9L20 8L21 8L21 7L22 7L22 6L21 6L21 7L20 7L20 8L19 8L19 7L18 7L18 9L17 9L17 8L15 8L15 7L14 7L14 6ZM26 8L26 9L25 9L25 11L24 11L24 12L25 12L25 13L27 13L27 14L26 14L26 15L25 15L25 14L22 14L22 13L23 13L23 11L21 11L21 10L20 10L20 11L21 11L21 12L22 12L22 13L20 13L20 14L22 14L22 15L20 15L20 16L19 16L19 15L18 15L18 14L19 14L19 13L18 13L18 14L17 14L17 12L16 12L16 13L15 13L15 12L12 12L12 13L11 13L11 14L13 14L13 15L10 15L10 14L9 14L9 15L8 15L8 16L12 16L12 17L16 17L16 16L18 16L18 17L17 17L17 18L16 18L16 20L15 20L15 19L14 19L14 18L13 18L13 19L14 19L14 21L17 21L17 22L18 22L18 23L19 23L19 22L20 22L20 20L21 20L21 22L22 22L22 23L21 23L21 25L23 25L23 24L22 24L22 23L23 23L23 22L24 22L24 19L23 19L23 17L22 17L22 19L20 19L20 16L23 16L23 15L25 15L25 16L26 16L26 17L25 17L25 18L26 18L26 20L27 20L27 16L28 16L28 17L29 17L29 16L28 16L28 15L27 15L27 14L29 14L29 12L28 12L28 11L27 11L27 10L28 10L28 9L27 9L27 8ZM1 9L1 10L2 10L2 11L1 11L1 12L2 12L2 13L1 13L1 14L2 14L2 13L4 13L4 12L3 12L3 11L4 11L4 10L2 10L2 9ZM18 9L18 10L17 10L17 11L18 11L18 10L19 10L19 9ZM26 9L26 10L27 10L27 9ZM34 9L34 12L36 12L36 11L35 11L35 9ZM27 12L27 13L28 13L28 12ZM30 12L30 14L31 14L31 15L32 15L32 14L31 14L31 13L32 13L32 12ZM13 13L13 14L14 14L14 13ZM15 14L15 16L16 16L16 14ZM35 14L35 15L34 15L34 16L35 16L35 15L36 15L36 14ZM26 15L26 16L27 16L27 15ZM9 17L9 18L10 18L10 19L11 19L11 17ZM18 17L18 18L17 18L17 20L18 20L18 22L19 22L19 19L18 19L18 18L19 18L19 17ZM11 20L11 21L12 21L12 22L13 22L13 20ZM2 21L2 23L3 23L3 21ZM5 21L5 22L4 22L4 24L5 24L5 22L7 22L7 23L6 23L6 24L7 24L7 25L6 25L6 26L5 26L5 27L6 27L6 28L8 28L8 26L9 26L9 29L10 29L10 28L12 28L12 27L11 27L11 26L9 26L9 25L10 25L10 23L8 23L8 22L7 22L7 21ZM22 21L22 22L23 22L23 21ZM25 21L25 24L26 24L26 23L27 23L27 21ZM0 24L0 25L1 25L1 24ZM11 24L11 25L12 25L12 24ZM7 25L7 26L6 26L6 27L7 27L7 26L8 26L8 25ZM15 25L15 26L14 26L14 27L15 27L15 26L16 26L16 25ZM18 25L18 26L17 26L17 27L18 27L18 26L20 26L20 27L22 27L22 26L20 26L20 25ZM23 26L23 28L22 28L22 29L23 29L23 28L24 28L24 27L25 27L25 26ZM2 27L2 28L3 28L3 27ZM27 27L27 28L28 28L28 27ZM29 29L29 32L32 32L32 29ZM30 30L30 31L31 31L31 30ZM30 33L30 35L29 35L29 36L30 36L30 35L32 35L32 36L33 36L33 35L32 35L32 34L31 34L31 33ZM35 33L35 34L36 34L36 35L37 35L37 33ZM12 34L12 35L8 35L8 36L9 36L9 37L13 37L13 36L14 36L14 37L16 37L16 36L15 36L15 35L13 35L13 34ZM26 35L26 36L27 36L27 35ZM17 36L17 37L18 37L18 36ZM35 36L35 37L37 37L37 36ZM0 0L0 7L7 7L7 0ZM1 1L1 6L6 6L6 1ZM2 2L2 5L5 5L5 2ZM30 0L30 7L37 7L37 0ZM31 1L31 6L36 6L36 1ZM32 2L32 5L35 5L35 2ZM0 30L0 37L7 37L7 30ZM1 31L1 36L6 36L6 31ZM2 32L2 35L5 35L5 32Z" fill="#000000"/></g></g></svg>
