<?xml version="1.0" encoding="UTF-8"?>
<svg xmlns="http://www.w3.org/2000/svg" version="1.1" width="300" height="300" viewBox="0 0 300 300"><rect x="0" y="0" width="300" height="300" fill="#ffffff"/><g transform="scale(8.108)"><g transform="translate(0,0)"><path fill-rule="evenodd" d="M9 0L9 1L8 1L8 2L9 2L9 3L8 3L8 5L9 5L9 6L8 6L8 9L7 9L7 8L3 8L3 9L5 9L5 10L3 10L3 11L0 11L0 12L1 12L1 13L0 13L0 17L1 17L1 18L0 18L0 19L1 19L1 20L0 20L0 29L1 29L1 27L2 27L2 29L7 29L7 28L6 28L6 27L8 27L8 28L9 28L9 29L8 29L8 30L9 30L9 29L10 29L10 30L11 30L11 29L10 29L10 28L11 28L11 27L12 27L12 26L13 26L13 23L12 23L12 22L14 22L14 23L15 23L15 24L14 24L14 27L13 27L13 28L12 28L12 29L13 29L13 30L15 30L15 31L16 31L16 30L15 30L15 28L14 28L14 27L16 27L16 28L17 28L17 27L18 27L18 26L19 26L19 27L20 27L20 29L21 29L21 30L19 30L19 28L18 28L18 30L17 30L17 34L16 34L16 33L15 33L15 32L14 32L14 31L13 31L13 33L12 33L12 32L11 32L11 35L8 35L8 36L9 36L9 37L10 37L10 36L11 36L11 35L13 35L13 36L12 36L12 37L13 37L13 36L15 36L15 37L16 37L16 35L17 35L17 36L18 36L18 35L17 35L17 34L19 34L19 33L20 33L20 34L21 34L21 35L22 35L22 34L23 34L23 33L22 33L22 31L21 31L21 30L23 30L23 32L24 32L24 33L25 33L25 34L24 34L24 35L25 35L25 36L24 36L24 37L26 37L26 33L25 33L25 32L26 32L26 28L25 28L25 27L27 27L27 28L28 28L28 29L27 29L27 30L28 30L28 32L27 32L27 33L29 33L29 36L28 36L28 35L27 35L27 37L30 37L30 36L31 36L31 35L30 35L30 34L32 34L32 35L34 35L34 36L36 36L36 37L37 37L37 34L35 34L35 33L36 33L36 32L37 32L37 30L35 30L35 29L36 29L36 28L37 28L37 26L35 26L35 25L34 25L34 24L36 24L36 23L33 23L33 22L35 22L35 21L36 21L36 22L37 22L37 18L35 18L35 14L36 14L36 17L37 17L37 14L36 14L36 13L37 13L37 12L36 12L36 11L37 11L37 10L36 10L36 8L35 8L35 9L34 9L34 8L32 8L32 9L31 9L31 8L29 8L29 5L28 5L28 8L27 8L27 4L25 4L25 3L24 3L24 2L25 2L25 1L24 1L24 0L16 0L16 1L15 1L15 0L13 0L13 1L14 1L14 2L11 2L11 0ZM26 0L26 1L27 1L27 0ZM16 1L16 2L14 2L14 3L13 3L13 4L14 4L14 5L12 5L12 6L11 6L11 7L12 7L12 6L13 6L13 8L14 8L14 6L15 6L15 7L16 7L16 9L14 9L14 10L16 10L16 11L18 11L18 14L14 14L14 13L15 13L15 11L13 11L13 10L11 10L11 8L9 8L9 9L8 9L8 10L7 10L7 9L6 9L6 10L5 10L5 11L3 11L3 12L2 12L2 13L1 13L1 14L2 14L2 13L4 13L4 14L3 14L3 16L4 16L4 17L3 17L3 18L1 18L1 19L2 19L2 20L3 20L3 18L4 18L4 17L5 17L5 18L7 18L7 19L5 19L5 20L4 20L4 21L6 21L6 22L3 22L3 24L2 24L2 25L4 25L4 27L3 27L3 28L5 28L5 25L6 25L6 26L8 26L8 27L11 27L11 26L10 26L10 25L12 25L12 23L11 23L11 22L12 22L12 20L10 20L10 21L9 21L9 23L6 23L6 22L7 22L7 21L8 21L8 20L9 20L9 19L11 19L11 15L12 15L12 16L15 16L15 17L16 17L16 16L19 16L19 12L20 12L20 14L22 14L22 13L21 13L21 12L24 12L24 11L25 11L25 13L24 13L24 14L23 14L23 15L20 15L20 17L19 17L19 19L17 19L17 18L18 18L18 17L17 17L17 18L15 18L15 19L16 19L16 20L14 20L14 21L16 21L16 22L17 22L17 20L18 20L18 21L19 21L19 25L20 25L20 27L25 27L25 26L27 26L27 27L28 27L28 28L29 28L29 27L31 27L31 28L32 28L32 27L33 27L33 26L29 26L29 27L28 27L28 25L24 25L24 26L21 26L21 25L22 25L22 24L23 24L23 22L24 22L24 23L25 23L25 24L26 24L26 22L27 22L27 21L28 21L28 22L31 22L31 21L28 21L28 20L29 20L29 19L30 19L30 20L31 20L31 19L30 19L30 18L34 18L34 17L33 17L33 16L31 16L31 17L30 17L30 16L29 16L29 15L27 15L27 16L29 16L29 17L30 17L30 18L29 18L29 19L26 19L26 21L25 21L25 20L24 20L24 19L25 19L25 18L27 18L27 17L25 17L25 16L26 16L26 14L25 14L25 13L26 13L26 9L24 9L24 11L23 11L23 10L22 10L22 9L23 9L23 7L24 7L24 8L26 8L26 6L25 6L25 7L24 7L24 5L25 5L25 4L24 4L24 5L21 5L21 3L20 3L20 5L19 5L19 4L18 4L18 3L19 3L19 2L18 2L18 3L17 3L17 1ZM20 1L20 2L21 2L21 1ZM28 1L28 3L29 3L29 1ZM15 3L15 4L16 4L16 3ZM9 4L9 5L10 5L10 4ZM17 4L17 5L18 5L18 7L17 7L17 6L16 6L16 7L17 7L17 9L18 9L18 11L22 11L22 10L20 10L20 9L21 9L21 8L20 8L20 7L21 7L21 5L20 5L20 7L19 7L19 5L18 5L18 4ZM9 6L9 7L10 7L10 6ZM22 6L22 7L23 7L23 6ZM18 7L18 9L19 9L19 7ZM1 8L1 9L0 9L0 10L2 10L2 8ZM28 8L28 9L27 9L27 10L28 10L28 9L29 9L29 12L30 12L30 9L29 9L29 8ZM9 9L9 10L10 10L10 9ZM32 9L32 10L31 10L31 11L33 11L33 12L31 12L31 13L30 13L30 15L33 15L33 14L31 14L31 13L34 13L34 14L35 14L35 13L34 13L34 11L35 11L35 10L34 10L34 9ZM6 10L6 11L7 11L7 10ZM10 11L10 12L11 12L11 14L12 14L12 15L13 15L13 14L12 14L12 13L14 13L14 12L12 12L12 11ZM27 11L27 12L28 12L28 11ZM4 12L4 13L7 13L7 14L6 14L6 15L8 15L8 13L9 13L9 14L10 14L10 13L9 13L9 12ZM16 12L16 13L17 13L17 12ZM27 13L27 14L29 14L29 13ZM24 14L24 16L25 16L25 14ZM4 15L4 16L5 16L5 15ZM15 15L15 16L16 16L16 15ZM6 16L6 17L7 17L7 16ZM9 16L9 17L8 17L8 18L9 18L9 17L10 17L10 16ZM21 16L21 17L20 17L20 18L21 18L21 19L22 19L22 22L20 22L20 24L21 24L21 23L22 23L22 22L23 22L23 19L24 19L24 18L25 18L25 17L23 17L23 18L21 18L21 17L22 17L22 16ZM13 17L13 18L12 18L12 19L13 19L13 18L14 18L14 17ZM33 19L33 21L35 21L35 20L36 20L36 19ZM6 20L6 21L7 21L7 20ZM1 21L1 23L2 23L2 21ZM24 21L24 22L25 22L25 21ZM4 23L4 25L5 25L5 23ZM10 23L10 24L11 24L11 23ZM16 23L16 24L18 24L18 23ZM27 23L27 24L28 24L28 23ZM29 23L29 24L30 24L30 23ZM31 23L31 25L32 25L32 24L33 24L33 23ZM6 24L6 25L8 25L8 24ZM15 25L15 26L16 26L16 27L17 27L17 26L18 26L18 25L17 25L17 26L16 26L16 25ZM34 26L34 29L33 29L33 30L34 30L34 33L35 33L35 30L34 30L34 29L35 29L35 28L36 28L36 27L35 27L35 26ZM13 28L13 29L14 29L14 28ZM24 28L24 29L23 29L23 30L24 30L24 29L25 29L25 28ZM29 29L29 32L32 32L32 29ZM18 30L18 33L19 33L19 30ZM30 30L30 31L31 31L31 30ZM8 31L8 34L9 34L9 31ZM20 31L20 32L21 32L21 31ZM24 31L24 32L25 32L25 31ZM14 33L14 34L15 34L15 35L16 35L16 34L15 34L15 33ZM21 33L21 34L22 34L22 33ZM32 33L32 34L33 34L33 33ZM34 34L34 35L35 35L35 34ZM19 36L19 37L20 37L20 36ZM21 36L21 37L23 37L23 36ZM32 36L32 37L33 37L33 36ZM0 0L0 7L7 7L7 0ZM1 1L1 6L6 6L6 1ZM2 2L2 5L5 5L5 2ZM30 0L30 7L37 7L37 0ZM31 1L31 6L36 6L36 1ZM32 2L32 5L35 5L35 2ZM0 30L0 37L7 37L7 30ZM1 31L1 36L6 36L6 31ZM2 32L2 35L5 35L5 32Z" fill="#000000"/></g></g></svg>
