<?xml version="1.0" encoding="UTF-8"?>
<svg xmlns="http://www.w3.org/2000/svg" version="1.1" width="300" height="300" viewBox="0 0 300 300"><rect x="0" y="0" width="300" height="300" fill="#ffffff"/><g transform="scale(8.108)"><g transform="translate(0,0)"><path fill-rule="evenodd" d="M11 0L11 1L12 1L12 0ZM13 0L13 1L14 1L14 2L13 2L13 4L11 4L11 3L10 3L10 5L9 5L9 4L8 4L8 7L9 7L9 8L8 8L8 9L10 9L10 10L11 10L11 11L12 11L12 10L13 10L13 9L14 9L14 7L15 7L15 9L16 9L16 10L15 10L15 11L13 11L13 12L15 12L15 11L16 11L16 12L18 12L18 11L17 11L17 10L19 10L19 9L20 9L20 11L19 11L19 13L20 13L20 14L18 14L18 13L17 13L17 14L16 14L16 13L15 13L15 14L13 14L13 15L12 15L12 14L11 14L11 17L10 17L10 18L11 18L11 19L15 19L15 20L13 20L13 21L11 21L11 20L10 20L10 21L9 21L9 18L8 18L8 16L10 16L10 15L7 15L7 14L10 14L10 13L11 13L11 12L10 12L10 11L8 11L8 10L5 10L5 8L4 8L4 10L2 10L2 12L0 12L0 14L1 14L1 15L0 15L0 18L2 18L2 19L0 19L0 22L1 22L1 20L2 20L2 21L3 21L3 22L2 22L2 23L1 23L1 24L0 24L0 26L2 26L2 27L3 27L3 28L0 28L0 29L3 29L3 28L4 28L4 29L8 29L8 30L9 30L9 29L11 29L11 30L12 30L12 29L13 29L13 30L14 30L14 32L15 32L15 30L16 30L16 31L18 31L18 32L17 32L17 33L16 33L16 34L17 34L17 35L15 35L15 36L14 36L14 37L16 37L16 36L17 36L17 37L20 37L20 36L18 36L18 34L20 34L20 35L21 35L21 36L22 36L22 35L23 35L23 34L21 34L21 33L18 33L18 32L19 32L19 31L20 31L20 30L19 30L19 28L20 28L20 27L21 27L21 26L23 26L23 27L22 27L22 29L21 29L21 30L22 30L22 29L23 29L23 31L22 31L22 33L23 33L23 32L24 32L24 33L25 33L25 32L24 32L24 29L25 29L25 28L24 28L24 29L23 29L23 27L25 27L25 26L24 26L24 25L27 25L27 23L28 23L28 24L29 24L29 23L30 23L30 22L28 22L28 21L32 21L32 22L31 22L31 24L30 24L30 25L28 25L28 27L32 27L32 26L33 26L33 27L34 27L34 26L35 26L35 27L36 27L36 24L37 24L37 20L36 20L36 19L33 19L33 21L32 21L32 20L31 20L31 19L32 19L32 18L34 18L34 17L37 17L37 16L36 16L36 13L37 13L37 11L36 11L36 13L35 13L35 14L34 14L34 15L32 15L32 14L33 14L33 13L34 13L34 12L35 12L35 10L34 10L34 11L33 11L33 10L32 10L32 11L28 11L28 10L27 10L27 9L26 9L26 7L27 7L27 6L26 6L26 7L25 7L25 5L23 5L23 2L24 2L24 3L26 3L26 5L28 5L28 9L30 9L30 10L31 10L31 9L33 9L33 8L31 8L31 9L30 9L30 8L29 8L29 1L28 1L28 0L27 0L27 1L28 1L28 2L27 2L27 3L26 3L26 2L25 2L25 1L21 1L21 0L18 0L18 1L17 1L17 3L18 3L18 2L20 2L20 3L19 3L19 4L18 4L18 5L17 5L17 6L16 6L16 7L15 7L15 4L16 4L16 2L15 2L15 1L16 1L16 0ZM9 1L9 2L8 2L8 3L9 3L9 2L10 2L10 1ZM20 1L20 2L21 2L21 1ZM20 3L20 4L19 4L19 5L20 5L20 6L19 6L19 7L20 7L20 9L21 9L21 10L22 10L22 9L23 9L23 8L24 8L24 6L23 6L23 5L22 5L22 3ZM13 4L13 5L14 5L14 4ZM20 4L20 5L21 5L21 4ZM10 5L10 6L9 6L9 7L10 7L10 6L11 6L11 7L12 7L12 8L11 8L11 10L12 10L12 9L13 9L13 7L14 7L14 6L13 6L13 7L12 7L12 6L11 6L11 5ZM17 6L17 7L16 7L16 8L17 8L17 9L19 9L19 8L17 8L17 7L18 7L18 6ZM20 6L20 7L21 7L21 9L22 9L22 7L23 7L23 6L22 6L22 7L21 7L21 6ZM1 8L1 9L0 9L0 11L1 11L1 9L2 9L2 8ZM6 8L6 9L7 9L7 8ZM34 8L34 9L35 9L35 8ZM24 9L24 10L25 10L25 9ZM4 10L4 11L5 11L5 12L2 12L2 13L1 13L1 14L2 14L2 15L1 15L1 17L2 17L2 15L5 15L5 13L6 13L6 14L7 14L7 13L6 13L6 12L7 12L7 11L5 11L5 10ZM26 10L26 11L24 11L24 12L23 12L23 11L22 11L22 12L21 12L21 11L20 11L20 12L21 12L21 14L20 14L20 15L19 15L19 17L20 17L20 18L21 18L21 19L23 19L23 18L24 18L24 17L26 17L26 16L27 16L27 17L28 17L28 19L27 19L27 18L25 18L25 19L24 19L24 20L22 20L22 21L20 21L20 20L19 20L19 19L17 19L17 20L15 20L15 21L13 21L13 25L14 25L14 24L15 24L15 26L16 26L16 27L18 27L18 28L16 28L16 30L17 30L17 29L18 29L18 28L19 28L19 27L20 27L20 26L21 26L21 23L20 23L20 22L22 22L22 25L24 25L24 24L26 24L26 23L27 23L27 21L28 21L28 19L29 19L29 17L30 17L30 19L31 19L31 17L30 17L30 16L32 16L32 17L33 17L33 16L32 16L32 15L30 15L30 14L32 14L32 13L33 13L33 12L32 12L32 13L30 13L30 12L27 12L27 14L26 14L26 11L27 11L27 10ZM2 13L2 14L4 14L4 13ZM22 13L22 14L21 14L21 16L22 16L22 15L24 15L24 14L25 14L25 13ZM29 13L29 14L30 14L30 13ZM27 14L27 16L28 16L28 17L29 17L29 15L28 15L28 14ZM6 15L6 16L7 16L7 15ZM13 15L13 17L15 17L15 19L16 19L16 17L18 17L18 16L15 16L15 15ZM3 16L3 18L4 18L4 19L2 19L2 20L4 20L4 19L6 19L6 20L7 20L7 21L5 21L5 22L4 22L4 23L5 23L5 24L7 24L7 25L6 25L6 26L4 26L4 28L7 28L7 27L9 27L9 28L10 28L10 27L11 27L11 29L12 29L12 24L11 24L11 23L12 23L12 22L9 22L9 21L8 21L8 20L7 20L7 19L6 19L6 18L7 18L7 17L6 17L6 18L5 18L5 16ZM11 17L11 18L12 18L12 17ZM22 17L22 18L23 18L23 17ZM26 19L26 20L25 20L25 21L24 21L24 22L23 22L23 24L24 24L24 23L25 23L25 22L26 22L26 21L27 21L27 19ZM7 21L7 22L5 22L5 23L9 23L9 25L8 25L8 26L9 26L9 27L10 27L10 25L11 25L11 24L10 24L10 23L9 23L9 22L8 22L8 21ZM15 21L15 22L16 22L16 23L15 23L15 24L16 24L16 23L17 23L17 24L19 24L19 26L18 26L18 25L16 25L16 26L18 26L18 27L19 27L19 26L20 26L20 24L19 24L19 22L18 22L18 21ZM34 21L34 22L35 22L35 23L36 23L36 21ZM32 22L32 24L31 24L31 25L32 25L32 24L33 24L33 22ZM2 23L2 25L3 25L3 23ZM6 26L6 27L7 27L7 26ZM26 26L26 29L27 29L27 30L26 30L26 33L27 33L27 32L28 32L28 35L27 35L27 34L25 34L25 35L24 35L24 36L23 36L23 37L26 37L26 35L27 35L27 37L28 37L28 35L29 35L29 37L31 37L31 33L33 33L33 31L34 31L34 37L37 37L37 36L36 36L36 34L35 34L35 33L36 33L36 32L35 32L35 31L36 31L36 29L37 29L37 28L36 28L36 29L35 29L35 30L34 30L34 29L33 29L33 28L27 28L27 26ZM13 27L13 28L14 28L14 27ZM29 29L29 32L32 32L32 29ZM27 30L27 31L28 31L28 30ZM30 30L30 31L31 31L31 30ZM9 31L9 32L8 32L8 33L9 33L9 35L8 35L8 36L9 36L9 37L10 37L10 36L11 36L11 37L12 37L12 36L13 36L13 35L12 35L12 34L13 34L13 33L12 33L12 31ZM14 33L14 34L15 34L15 33ZM29 33L29 35L30 35L30 33ZM9 35L9 36L10 36L10 35ZM11 35L11 36L12 36L12 35ZM32 35L32 37L33 37L33 35ZM0 0L0 7L7 7L7 0ZM1 1L1 6L6 6L6 1ZM2 2L2 5L5 5L5 2ZM30 0L30 7L37 7L37 0ZM31 1L31 6L36 6L36 1ZM32 2L32 5L35 5L35 2ZM0 30L0 37L7 37L7 30ZM1 31L1 36L6 36L6 31ZM2 32L2 35L5 35L5 32Z" fill="#000000"/></g></g></svg>
