<?xml version="1.0" encoding="UTF-8"?>
<svg xmlns="http://www.w3.org/2000/svg" version="1.1" width="300" height="300" viewBox="0 0 300 300"><rect x="0" y="0" width="300" height="300" fill="#ffffff"/><g transform="scale(8.108)"><g transform="translate(2,2)"><path fill-rule="evenodd" d="M8 0L8 1L11 1L11 3L10 3L10 2L9 2L9 3L10 3L10 5L9 5L9 6L8 6L8 8L9 8L9 9L10 9L10 10L8 10L8 9L7 9L7 8L6 8L6 9L5 9L5 8L3 8L3 9L2 9L2 8L0 8L0 10L1 10L1 12L2 12L2 13L1 13L1 14L0 14L0 15L1 15L1 16L2 16L2 17L3 17L3 18L4 18L4 20L3 20L3 19L2 19L2 20L1 20L1 19L0 19L0 20L1 20L1 21L0 21L0 25L2 25L2 24L3 24L3 25L5 25L5 24L6 24L6 25L8 25L8 26L9 26L9 25L8 25L8 23L7 23L7 22L6 22L6 21L8 21L8 22L10 22L10 23L9 23L9 24L10 24L10 25L13 25L13 26L10 26L10 27L9 27L9 28L8 28L8 30L9 30L9 31L8 31L8 33L9 33L9 31L10 31L10 33L11 33L11 31L12 31L12 33L18 33L18 32L19 32L19 33L21 33L21 31L22 31L22 30L23 30L23 32L22 32L22 33L23 33L23 32L24 32L24 33L26 33L26 32L27 32L27 31L28 31L28 32L29 32L29 30L28 30L28 29L29 29L29 24L31 24L31 25L30 25L30 26L32 26L32 24L31 24L31 23L33 23L33 22L32 22L32 21L30 21L30 20L33 20L33 15L32 15L32 16L31 16L31 15L30 15L30 12L31 12L31 13L33 13L33 12L31 12L31 11L30 11L30 10L29 10L29 9L28 9L28 10L26 10L26 9L27 9L27 8L26 8L26 9L25 9L25 8L24 8L24 7L25 7L25 4L24 4L24 2L23 2L23 4L24 4L24 5L23 5L23 6L22 6L22 7L23 7L23 8L22 8L22 9L21 9L21 5L22 5L22 2L21 2L21 3L20 3L20 1L21 1L21 0L20 0L20 1L19 1L19 0L18 0L18 1L19 1L19 3L17 3L17 2L15 2L15 0L13 0L13 1L12 1L12 0ZM22 0L22 1L23 1L23 0ZM13 1L13 2L12 2L12 4L13 4L13 5L12 5L12 6L11 6L11 5L10 5L10 6L9 6L9 7L10 7L10 9L11 9L11 10L10 10L10 11L9 11L9 12L8 12L8 10L7 10L7 9L6 9L6 10L7 10L7 11L5 11L5 9L3 9L3 10L2 10L2 11L3 11L3 10L4 10L4 12L3 12L3 14L1 14L1 15L2 15L2 16L3 16L3 17L5 17L5 20L8 20L8 21L10 21L10 22L12 22L12 23L13 23L13 25L14 25L14 27L12 27L12 28L10 28L10 29L14 29L14 30L12 30L12 31L13 31L13 32L14 32L14 31L15 31L15 29L14 29L14 27L15 27L15 28L17 28L17 30L16 30L16 32L18 32L18 31L17 31L17 30L19 30L19 29L20 29L20 28L21 28L21 30L22 30L22 28L24 28L24 27L22 27L22 26L24 26L24 24L28 24L28 23L30 23L30 21L29 21L29 20L30 20L30 19L32 19L32 18L31 18L31 16L30 16L30 15L29 15L29 16L30 16L30 17L29 17L29 18L28 18L28 15L25 15L25 14L29 14L29 11L28 11L28 13L24 13L24 14L23 14L23 11L21 11L21 13L18 13L18 12L20 12L20 10L19 10L19 9L17 9L17 8L18 8L18 6L19 6L19 7L20 7L20 5L21 5L21 4L20 4L20 3L19 3L19 4L18 4L18 6L17 6L17 8L16 8L16 9L17 9L17 10L16 10L16 11L15 11L15 8L13 8L13 9L12 9L12 6L13 6L13 7L14 7L14 6L15 6L15 7L16 7L16 5L17 5L17 3L16 3L16 4L15 4L15 2L14 2L14 1ZM13 2L13 4L14 4L14 5L13 5L13 6L14 6L14 5L15 5L15 4L14 4L14 2ZM19 4L19 5L20 5L20 4ZM10 6L10 7L11 7L11 6ZM23 6L23 7L24 7L24 6ZM32 8L32 9L31 9L31 10L32 10L32 11L33 11L33 10L32 10L32 9L33 9L33 8ZM22 9L22 10L23 10L23 9ZM24 9L24 11L26 11L26 12L27 12L27 11L26 11L26 10L25 10L25 9ZM12 10L12 11L14 11L14 12L15 12L15 13L12 13L12 14L13 14L13 15L12 15L12 16L11 16L11 18L10 18L10 19L9 19L9 20L10 20L10 21L12 21L12 22L13 22L13 21L12 21L12 19L13 19L13 20L14 20L14 22L15 22L15 23L14 23L14 25L15 25L15 27L18 27L18 29L19 29L19 28L20 28L20 26L19 26L19 25L21 25L21 21L19 21L19 20L20 20L20 18L21 18L21 19L22 19L22 21L23 21L23 23L24 23L24 21L23 21L23 20L25 20L25 22L26 22L26 23L28 23L28 22L29 22L29 21L28 21L28 20L29 20L29 19L28 19L28 18L27 18L27 16L26 16L26 17L25 17L25 15L22 15L22 14L18 14L18 15L19 15L19 16L18 16L18 17L17 17L17 15L16 15L16 12L18 12L18 11L16 11L16 12L15 12L15 11L14 11L14 10ZM4 12L4 13L5 13L5 14L6 14L6 15L3 15L3 16L6 16L6 17L8 17L8 18L6 18L6 19L8 19L8 18L9 18L9 17L8 17L8 16L10 16L10 15L11 15L11 12L9 12L9 14L8 14L8 12ZM6 13L6 14L7 14L7 15L6 15L6 16L8 16L8 14L7 14L7 13ZM9 14L9 15L10 15L10 14ZM13 15L13 16L15 16L15 17L16 17L16 15ZM21 15L21 18L24 18L24 19L25 19L25 17L23 17L23 16L22 16L22 15ZM19 16L19 17L18 17L18 18L17 18L17 20L16 20L16 21L17 21L17 20L19 20L19 19L18 19L18 18L19 18L19 17L20 17L20 16ZM0 17L0 18L1 18L1 17ZM12 17L12 18L11 18L11 19L12 19L12 18L13 18L13 19L14 19L14 20L15 20L15 19L14 19L14 17ZM26 18L26 19L27 19L27 18ZM2 20L2 21L1 21L1 24L2 24L2 23L6 23L6 24L7 24L7 23L6 23L6 22L2 22L2 21L3 21L3 20ZM26 20L26 22L28 22L28 21L27 21L27 20ZM18 22L18 24L17 24L17 23L15 23L15 25L16 25L16 26L18 26L18 25L19 25L19 24L20 24L20 22ZM10 23L10 24L11 24L11 23ZM16 24L16 25L17 25L17 24ZM25 25L25 28L28 28L28 25ZM26 26L26 27L27 27L27 26ZM30 27L30 28L31 28L31 27ZM32 28L32 29L33 29L33 28ZM25 29L25 31L24 31L24 32L25 32L25 31L27 31L27 29ZM30 29L30 30L31 30L31 29ZM32 30L32 31L30 31L30 32L33 32L33 30ZM19 31L19 32L20 32L20 31ZM0 0L0 7L7 7L7 0ZM1 1L1 6L6 6L6 1ZM2 2L2 5L5 5L5 2ZM26 0L26 7L33 7L33 0ZM27 1L27 6L32 6L32 1ZM28 2L28 5L31 5L31 2ZM0 26L0 33L7 33L7 26ZM1 27L1 32L6 32L6 27ZM2 28L2 31L5 31L5 28Z" fill="#000000"/></g></g></svg>
