<?xml version="1.0" encoding="UTF-8"?>
<svg xmlns="http://www.w3.org/2000/svg" version="1.1" width="300" height="300" viewBox="0 0 300 300"><rect x="0" y="0" width="300" height="300" fill="#ffffff"/><g transform="scale(8.108)"><g transform="translate(0,0)"><path fill-rule="evenodd" d="M8 0L8 5L9 5L9 3L10 3L10 5L11 5L11 3L12 3L12 4L13 4L13 5L12 5L12 7L13 7L13 6L14 6L14 7L15 7L15 6L14 6L14 4L16 4L16 2L14 2L14 1L15 1L15 0L13 0L13 1L12 1L12 0ZM18 0L18 2L21 2L21 0L20 0L20 1L19 1L19 0ZM22 0L22 4L21 4L21 3L20 3L20 5L19 5L19 4L18 4L18 3L17 3L17 4L18 4L18 5L17 5L17 6L16 6L16 8L15 8L15 9L14 9L14 12L13 12L13 14L14 14L14 15L12 15L12 13L11 13L11 15L10 15L10 14L9 14L9 16L10 16L10 18L9 18L9 17L8 17L8 16L6 16L6 15L8 15L8 12L9 12L9 13L10 13L10 12L9 12L9 10L8 10L8 8L9 8L9 9L10 9L10 10L11 10L11 12L12 12L12 8L11 8L11 6L10 6L10 8L9 8L9 6L8 6L8 8L6 8L6 9L5 9L5 8L4 8L4 9L3 9L3 8L1 8L1 9L0 9L0 11L2 11L2 12L0 12L0 13L1 13L1 14L2 14L2 15L1 15L1 16L2 16L2 15L4 15L4 13L3 13L3 14L2 14L2 12L4 12L4 11L7 11L7 12L6 12L6 13L7 13L7 14L6 14L6 15L5 15L5 16L3 16L3 17L4 17L4 18L5 18L5 19L4 19L4 20L6 20L6 21L8 21L8 22L6 22L6 23L8 23L8 24L5 24L5 23L4 23L4 24L3 24L3 25L4 25L4 26L5 26L5 25L7 25L7 26L6 26L6 27L5 27L5 28L4 28L4 27L3 27L3 28L2 28L2 27L1 27L1 26L2 26L2 25L1 25L1 24L0 24L0 25L1 25L1 26L0 26L0 27L1 27L1 28L0 28L0 29L1 29L1 28L2 28L2 29L7 29L7 28L6 28L6 27L9 27L9 28L8 28L8 31L9 31L9 32L8 32L8 33L10 33L10 34L11 34L11 33L12 33L12 31L11 31L11 33L10 33L10 30L13 30L13 29L14 29L14 28L15 28L15 29L16 29L16 30L17 30L17 29L16 29L16 27L14 27L14 25L15 25L15 26L17 26L17 24L16 24L16 21L17 21L17 20L18 20L18 22L19 22L19 21L20 21L20 20L21 20L21 21L23 21L23 22L22 22L22 23L18 23L18 25L19 25L19 26L20 26L20 28L21 28L21 27L22 27L22 26L23 26L23 24L24 24L24 23L23 23L23 22L24 22L24 21L23 21L23 20L24 20L24 19L23 19L23 20L22 20L22 19L20 19L20 18L24 18L24 17L23 17L23 12L25 12L25 13L27 13L27 14L26 14L26 15L25 15L25 14L24 14L24 15L25 15L25 18L26 18L26 19L25 19L25 20L26 20L26 21L25 21L25 22L26 22L26 23L25 23L25 24L26 24L26 26L27 26L27 27L25 27L25 28L24 28L24 27L23 27L23 28L24 28L24 31L23 31L23 32L24 32L24 33L23 33L23 34L22 34L22 33L21 33L21 34L22 34L22 35L21 35L21 36L22 36L22 37L25 37L25 35L26 35L26 34L25 34L25 33L26 33L26 32L28 32L28 33L27 33L27 34L28 34L28 33L29 33L29 35L28 35L28 37L29 37L29 36L30 36L30 37L31 37L31 36L32 36L32 37L33 37L33 36L32 36L32 35L35 35L35 37L37 37L37 36L36 36L36 35L37 35L37 33L36 33L36 32L35 32L35 34L33 34L33 33L34 33L34 31L33 31L33 28L32 28L32 27L33 27L33 26L32 26L32 25L34 25L34 26L35 26L35 25L36 25L36 27L34 27L34 29L35 29L35 28L36 28L36 31L37 31L37 25L36 25L36 24L37 24L37 23L36 23L36 21L37 21L37 20L36 20L36 19L37 19L37 16L36 16L36 15L37 15L37 12L36 12L36 11L37 11L37 8L32 8L32 10L33 10L33 11L32 11L32 12L31 12L31 10L30 10L30 9L31 9L31 8L30 8L30 9L29 9L29 10L30 10L30 12L28 12L28 11L25 11L25 10L26 10L26 9L25 9L25 10L24 10L24 11L23 11L23 9L24 9L24 8L25 8L25 6L24 6L24 8L23 8L23 6L22 6L22 5L23 5L23 3L24 3L24 2L23 2L23 0ZM25 0L25 1L26 1L26 2L25 2L25 5L26 5L26 7L27 7L27 6L28 6L28 8L29 8L29 5L28 5L28 3L29 3L29 0L27 0L27 1L26 1L26 0ZM13 2L13 3L14 3L14 2ZM27 2L27 3L28 3L28 2ZM17 6L17 7L18 7L18 8L16 8L16 9L17 9L17 11L16 11L16 10L15 10L15 12L14 12L14 13L15 13L15 17L14 17L14 16L13 16L13 17L12 17L12 18L11 18L11 19L10 19L10 20L11 20L11 21L12 21L12 20L13 20L13 23L11 23L11 22L10 22L10 21L9 21L9 23L11 23L11 26L12 26L12 27L10 27L10 28L9 28L9 29L11 29L11 28L12 28L12 27L13 27L13 28L14 28L14 27L13 27L13 23L14 23L14 24L15 24L15 25L16 25L16 24L15 24L15 23L14 23L14 22L15 22L15 21L16 21L16 20L15 20L15 19L17 19L17 17L18 17L18 18L19 18L19 17L18 17L18 16L17 16L17 15L22 15L22 14L21 14L21 13L22 13L22 12L21 12L21 13L18 13L18 12L20 12L20 11L22 11L22 10L21 10L21 9L19 9L19 10L18 10L18 8L19 8L19 7L20 7L20 8L21 8L21 7L22 7L22 6L21 6L21 7L20 7L20 6L19 6L19 7L18 7L18 6ZM1 9L1 10L2 10L2 11L4 11L4 10L5 10L5 9L4 9L4 10L2 10L2 9ZM6 9L6 10L7 10L7 9ZM27 9L27 10L28 10L28 9ZM34 9L34 10L35 10L35 11L34 11L34 12L35 12L35 13L33 13L33 12L32 12L32 14L30 14L30 15L29 15L29 13L28 13L28 12L27 12L27 13L28 13L28 14L27 14L27 15L26 15L26 16L27 16L27 15L28 15L28 16L29 16L29 18L28 18L28 17L26 17L26 18L27 18L27 19L28 19L28 20L27 20L27 25L28 25L28 22L29 22L29 28L31 28L31 27L30 27L30 26L31 26L31 25L30 25L30 24L31 24L31 23L32 23L32 24L33 24L33 23L34 23L34 25L35 25L35 23L34 23L34 22L35 22L35 19L36 19L36 17L35 17L35 15L36 15L36 12L35 12L35 11L36 11L36 9ZM17 11L17 12L16 12L16 14L17 14L17 12L18 12L18 11ZM32 14L32 15L34 15L34 14ZM11 15L11 16L12 16L12 15ZM16 16L16 17L17 17L17 16ZM20 16L20 17L22 17L22 16ZM30 16L30 18L29 18L29 20L30 20L30 23L31 23L31 20L32 20L32 17L31 17L31 16ZM0 17L0 18L2 18L2 19L1 19L1 20L0 20L0 21L1 21L1 22L0 22L0 23L1 23L1 22L2 22L2 23L3 23L3 21L1 21L1 20L2 20L2 19L3 19L3 18L2 18L2 17ZM5 17L5 18L7 18L7 17ZM13 17L13 18L14 18L14 19L13 19L13 20L14 20L14 19L15 19L15 18L14 18L14 17ZM33 17L33 18L34 18L34 19L33 19L33 22L34 22L34 19L35 19L35 17ZM8 18L8 19L6 19L6 20L8 20L8 19L9 19L9 18ZM18 19L18 20L20 20L20 19ZM8 24L8 26L10 26L10 25L9 25L9 24ZM19 24L19 25L20 25L20 24ZM21 25L21 26L22 26L22 25ZM27 27L27 28L26 28L26 29L25 29L25 31L27 31L27 30L28 30L28 29L27 29L27 28L28 28L28 27ZM18 28L18 30L19 30L19 31L18 31L18 32L16 32L16 31L15 31L15 30L14 30L14 31L13 31L13 33L14 33L14 32L16 32L16 33L15 33L15 34L16 34L16 35L19 35L19 36L20 36L20 35L19 35L19 34L20 34L20 32L21 32L21 31L22 31L22 30L21 30L21 29L19 29L19 28ZM29 29L29 32L32 32L32 29ZM20 30L20 31L19 31L19 32L18 32L18 34L19 34L19 32L20 32L20 31L21 31L21 30ZM30 30L30 31L31 31L31 30ZM16 33L16 34L17 34L17 33ZM30 33L30 35L32 35L32 33ZM8 34L8 36L9 36L9 37L18 37L18 36L13 36L13 35L14 35L14 34L12 34L12 36L10 36L10 35L9 35L9 34ZM35 34L35 35L36 35L36 34ZM23 35L23 36L24 36L24 35ZM0 0L0 7L7 7L7 0ZM1 1L1 6L6 6L6 1ZM2 2L2 5L5 5L5 2ZM30 0L30 7L37 7L37 0ZM31 1L31 6L36 6L36 1ZM32 2L32 5L35 5L35 2ZM0 30L0 37L7 37L7 30ZM1 31L1 36L6 36L6 31ZM2 32L2 35L5 35L5 32Z" fill="#000000"/></g></g></svg>
