<?xml version="1.0" encoding="UTF-8"?>
<svg xmlns="http://www.w3.org/2000/svg" version="1.1" width="300" height="300" viewBox="0 0 300 300"><rect x="0" y="0" width="300" height="300" fill="#ffffff"/><g transform="scale(8.108)"><g transform="translate(0,0)"><path fill-rule="evenodd" d="M8 0L8 1L9 1L9 4L8 4L8 7L9 7L9 6L10 6L10 9L11 9L11 14L10 14L10 15L9 15L9 14L8 14L8 13L10 13L10 12L8 12L8 11L9 11L9 9L8 9L8 8L1 8L1 9L0 9L0 16L1 16L1 14L3 14L3 15L2 15L2 16L3 16L3 15L5 15L5 14L3 14L3 12L4 12L4 11L5 11L5 13L7 13L7 14L6 14L6 15L7 15L7 16L5 16L5 17L3 17L3 18L2 18L2 19L1 19L1 17L0 17L0 20L4 20L4 22L5 22L5 23L3 23L3 24L5 24L5 23L7 23L7 22L6 22L6 21L8 21L8 22L10 22L10 23L11 23L11 24L12 24L12 23L13 23L13 22L16 22L16 21L17 21L17 23L16 23L16 24L17 24L17 23L18 23L18 25L15 25L15 28L14 28L14 30L13 30L13 31L12 31L12 32L14 32L14 33L11 33L11 32L10 32L10 31L11 31L11 30L12 30L12 29L11 29L11 28L12 28L12 26L14 26L14 24L13 24L13 25L10 25L10 24L9 24L9 23L8 23L8 24L9 24L9 25L10 25L10 26L11 26L11 27L10 27L10 28L9 28L9 26L5 26L5 27L4 27L4 26L2 26L2 27L3 27L3 29L7 29L7 28L6 28L6 27L8 27L8 36L9 36L9 35L10 35L10 37L12 37L12 35L13 35L13 37L14 37L14 36L15 36L15 35L16 35L16 36L17 36L17 35L19 35L19 33L18 33L18 31L17 31L17 30L19 30L19 32L20 32L20 33L21 33L21 34L20 34L20 35L21 35L21 36L20 36L20 37L22 37L22 36L23 36L23 37L25 37L25 36L26 36L26 37L28 37L28 36L29 36L29 35L28 35L28 36L26 36L26 35L27 35L27 34L34 34L34 33L36 33L36 32L37 32L37 30L36 30L36 29L37 29L37 28L36 28L36 29L35 29L35 30L36 30L36 31L35 31L35 32L34 32L34 31L33 31L33 29L34 29L34 28L35 28L35 27L37 27L37 26L35 26L35 25L36 25L36 24L34 24L34 22L35 22L35 23L36 23L36 22L37 22L37 18L35 18L35 19L36 19L36 20L34 20L34 18L33 18L33 20L32 20L32 18L30 18L30 17L31 17L31 15L30 15L30 14L28 14L28 11L29 11L29 13L33 13L33 14L32 14L32 15L33 15L33 14L34 14L34 15L35 15L35 14L36 14L36 16L32 16L32 17L37 17L37 14L36 14L36 13L37 13L37 12L36 12L36 11L37 11L37 10L36 10L36 9L37 9L37 8L36 8L36 9L35 9L35 10L36 10L36 11L35 11L35 12L36 12L36 13L35 13L35 14L34 14L34 13L33 13L33 12L34 12L34 11L33 11L33 10L34 10L34 9L33 9L33 8L31 8L31 9L30 9L30 11L29 11L29 10L28 10L28 9L29 9L29 4L28 4L28 3L29 3L29 2L28 2L28 1L27 1L27 0L25 0L25 1L23 1L23 2L21 2L21 1L22 1L22 0L21 0L21 1L20 1L20 3L19 3L19 2L18 2L18 1L19 1L19 0L16 0L16 1L15 1L15 0L14 0L14 1L13 1L13 2L11 2L11 3L10 3L10 1L9 1L9 0ZM11 0L11 1L12 1L12 0ZM13 2L13 3L12 3L12 4L10 4L10 5L12 5L12 6L11 6L11 8L12 8L12 10L13 10L13 11L12 11L12 13L14 13L14 12L19 12L19 14L17 14L17 13L15 13L15 14L14 14L14 15L13 15L13 14L11 14L11 16L10 16L10 17L11 17L11 19L13 19L13 21L14 21L14 20L15 20L15 21L16 21L16 20L17 20L17 21L18 21L18 19L19 19L19 18L20 18L20 17L19 17L19 18L18 18L18 16L21 16L21 10L20 10L20 9L23 9L23 7L24 7L24 9L25 9L25 10L22 10L22 11L23 11L23 12L22 12L22 13L24 13L24 14L22 14L22 15L23 15L23 16L22 16L22 17L21 17L21 18L22 18L22 19L23 19L23 20L21 20L21 21L22 21L22 23L23 23L23 24L21 24L21 23L20 23L20 21L19 21L19 22L18 22L18 23L19 23L19 25L18 25L18 26L17 26L17 27L16 27L16 28L15 28L15 29L17 29L17 27L19 27L19 28L18 28L18 29L19 29L19 30L20 30L20 31L21 31L21 32L23 32L23 33L22 33L22 35L23 35L23 34L25 34L25 33L24 33L24 32L26 32L26 33L27 33L27 32L26 32L26 30L23 30L23 29L25 29L25 28L26 28L26 29L27 29L27 31L28 31L28 27L29 27L29 26L27 26L27 28L26 28L26 26L25 26L25 25L27 25L27 24L28 24L28 25L30 25L30 24L29 24L29 23L30 23L30 22L31 22L31 24L32 24L32 25L31 25L31 26L32 26L32 27L31 27L31 28L34 28L34 27L33 27L33 26L34 26L34 24L32 24L32 23L33 23L33 21L34 21L34 20L33 20L33 21L27 21L27 20L26 20L26 19L27 19L27 18L28 18L28 19L29 19L29 17L30 17L30 16L29 16L29 15L28 15L28 16L29 16L29 17L27 17L27 11L25 11L25 10L27 10L27 9L26 9L26 8L28 8L28 6L27 6L27 7L26 7L26 6L25 6L25 7L24 7L24 6L23 6L23 5L25 5L25 4L26 4L26 5L28 5L28 4L26 4L26 3L27 3L27 2L26 2L26 3L25 3L25 2L24 2L24 3L25 3L25 4L23 4L23 3L20 3L20 5L19 5L19 4L18 4L18 3L17 3L17 2L15 2L15 4L14 4L14 5L12 5L12 4L13 4L13 3L14 3L14 2ZM15 4L15 5L16 5L16 4ZM17 4L17 6L16 6L16 7L15 7L15 6L14 6L14 7L13 7L13 6L12 6L12 8L14 8L14 11L13 11L13 12L14 12L14 11L16 11L16 10L17 10L17 11L18 11L18 10L19 10L19 12L20 12L20 10L19 10L19 8L18 8L18 7L19 7L19 6L18 6L18 4ZM21 4L21 5L20 5L20 7L21 7L21 8L22 8L22 7L23 7L23 6L22 6L22 5L23 5L23 4ZM17 6L17 7L16 7L16 8L15 8L15 7L14 7L14 8L15 8L15 9L16 9L16 8L17 8L17 9L18 9L18 8L17 8L17 7L18 7L18 6ZM21 6L21 7L22 7L22 6ZM25 7L25 8L26 8L26 7ZM4 9L4 10L5 10L5 11L6 11L6 12L7 12L7 11L6 11L6 10L8 10L8 9ZM1 10L1 11L2 11L2 10ZM31 10L31 11L30 11L30 12L31 12L31 11L32 11L32 10ZM1 12L1 13L2 13L2 12ZM24 12L24 13L25 13L25 14L24 14L24 16L23 16L23 17L22 17L22 18L23 18L23 17L24 17L24 18L25 18L25 17L26 17L26 16L25 16L25 14L26 14L26 12ZM15 14L15 15L16 15L16 18L15 18L15 17L14 17L14 19L16 19L16 18L17 18L17 14ZM19 14L19 15L20 15L20 14ZM8 15L8 16L9 16L9 15ZM12 15L12 16L11 16L11 17L12 17L12 18L13 18L13 15ZM24 16L24 17L25 17L25 16ZM6 17L6 18L8 18L8 17ZM4 18L4 20L7 20L7 19L5 19L5 18ZM24 19L24 20L25 20L25 19ZM8 20L8 21L10 21L10 22L12 22L12 20L11 20L11 21L10 21L10 20ZM0 21L0 29L1 29L1 24L2 24L2 23L1 23L1 21ZM2 21L2 22L3 22L3 21ZM24 21L24 22L25 22L25 21ZM26 21L26 22L27 22L27 23L26 23L26 24L27 24L27 23L29 23L29 22L27 22L27 21ZM35 21L35 22L36 22L36 21ZM24 23L24 25L22 25L22 27L23 27L23 28L21 28L21 27L20 27L20 26L21 26L21 24L20 24L20 25L19 25L19 27L20 27L20 30L21 30L21 29L23 29L23 28L25 28L25 26L24 26L24 25L25 25L25 23ZM6 24L6 25L7 25L7 24ZM23 26L23 27L24 27L24 26ZM29 29L29 32L32 32L32 29ZM9 30L9 31L10 31L10 30ZM15 30L15 33L16 33L16 35L17 35L17 34L18 34L18 33L16 33L16 32L17 32L17 31L16 31L16 30ZM22 30L22 31L23 31L23 32L24 32L24 31L23 31L23 30ZM30 30L30 31L31 31L31 30ZM9 32L9 34L10 34L10 32ZM33 32L33 33L34 33L34 32ZM11 34L11 35L12 35L12 34ZM36 34L36 36L32 36L32 35L31 35L31 36L30 36L30 37L31 37L31 36L32 36L32 37L37 37L37 34ZM24 35L24 36L25 36L25 35ZM0 0L0 7L7 7L7 0ZM1 1L1 6L6 6L6 1ZM2 2L2 5L5 5L5 2ZM30 0L30 7L37 7L37 0ZM31 1L31 6L36 6L36 1ZM32 2L32 5L35 5L35 2ZM0 30L0 37L7 37L7 30ZM1 31L1 36L6 36L6 31ZM2 32L2 35L5 35L5 32Z" fill="#000000"/></g></g></svg>
