<?xml version="1.0" encoding="UTF-8"?>
<svg xmlns="http://www.w3.org/2000/svg" version="1.1" width="300" height="300" viewBox="0 0 300 300"><rect x="0" y="0" width="300" height="300" fill="#ffffff"/><g transform="scale(8.108)"><g transform="translate(0,0)"><path fill-rule="evenodd" d="M8 0L8 1L9 1L9 2L8 2L8 4L9 4L9 5L8 5L8 8L5 8L5 9L7 9L7 10L6 10L6 11L7 11L7 12L5 12L5 10L4 10L4 8L3 8L3 9L2 9L2 8L1 8L1 9L2 9L2 10L4 10L4 11L3 11L3 14L2 14L2 11L1 11L1 10L0 10L0 11L1 11L1 13L0 13L0 15L1 15L1 17L0 17L0 18L1 18L1 17L2 17L2 16L4 16L4 15L3 15L3 14L5 14L5 18L4 18L4 19L3 19L3 18L2 18L2 19L0 19L0 21L1 21L1 22L0 22L0 23L2 23L2 24L3 24L3 25L4 25L4 26L5 26L5 27L3 27L3 26L2 26L2 27L1 27L1 26L0 26L0 27L1 27L1 28L0 28L0 29L4 29L4 28L5 28L5 27L7 27L7 28L6 28L6 29L8 29L8 32L9 32L9 33L8 33L8 34L9 34L9 33L10 33L10 34L11 34L11 33L12 33L12 32L14 32L14 30L15 30L15 32L17 32L17 30L21 30L21 31L18 31L18 32L20 32L20 33L19 33L19 34L18 34L18 35L17 35L17 34L16 34L16 33L15 33L15 34L14 34L14 33L13 33L13 34L12 34L12 35L11 35L11 37L12 37L12 36L13 36L13 34L14 34L14 37L18 37L18 35L19 35L19 36L22 36L22 37L25 37L25 33L26 33L26 34L27 34L27 33L26 33L26 32L28 32L28 33L29 33L29 35L28 35L28 37L33 37L33 36L31 36L31 35L30 35L30 33L31 33L31 34L32 34L32 35L34 35L34 32L35 32L35 30L36 30L36 31L37 31L37 28L35 28L35 27L34 27L34 28L35 28L35 30L34 30L34 29L33 29L33 28L32 28L32 26L31 26L31 28L30 28L30 26L28 26L28 25L29 25L29 24L30 24L30 25L34 25L34 23L36 23L36 24L35 24L35 26L36 26L36 27L37 27L37 25L36 25L36 24L37 24L37 23L36 23L36 21L37 21L37 20L36 20L36 19L37 19L37 16L36 16L36 15L37 15L37 8L36 8L36 11L35 11L35 12L34 12L34 9L35 9L35 8L33 8L33 9L32 9L32 8L29 8L29 10L28 10L28 9L27 9L27 8L26 8L26 7L27 7L27 6L28 6L28 7L29 7L29 6L28 6L28 4L29 4L29 3L28 3L28 1L29 1L29 0L27 0L27 1L26 1L26 0L25 0L25 4L26 4L26 5L27 5L27 6L26 6L26 7L25 7L25 6L24 6L24 5L21 5L21 4L20 4L20 5L21 5L21 6L20 6L20 7L21 7L21 10L20 10L20 8L19 8L19 3L18 3L18 2L19 2L19 0L13 0L13 1L12 1L12 0L10 0L10 1L9 1L9 0ZM20 0L20 3L21 3L21 0ZM22 0L22 1L23 1L23 0ZM10 1L10 2L11 2L11 4L12 4L12 5L11 5L11 7L12 7L12 9L11 9L11 8L9 8L9 9L8 9L8 12L7 12L7 13L6 13L6 14L7 14L7 15L6 15L6 16L8 16L8 19L9 19L9 20L10 20L10 19L11 19L11 20L13 20L13 21L11 21L11 22L9 22L9 23L10 23L10 25L8 25L8 28L9 28L9 29L10 29L10 31L11 31L11 29L10 29L10 28L12 28L12 30L13 30L13 28L14 28L14 29L15 29L15 30L16 30L16 29L18 29L18 26L17 26L17 25L16 25L16 26L15 26L15 25L12 25L12 27L10 27L10 25L11 25L11 24L13 24L13 23L12 23L12 22L14 22L14 20L13 20L13 18L14 18L14 19L16 19L16 21L17 21L17 20L18 20L18 21L19 21L19 22L20 22L20 23L19 23L19 24L18 24L18 22L17 22L17 23L16 23L16 24L18 24L18 25L21 25L21 26L22 26L22 27L21 27L21 28L20 28L20 26L19 26L19 29L21 29L21 30L22 30L22 31L21 31L21 33L20 33L20 35L23 35L23 32L22 32L22 31L24 31L24 30L25 30L25 32L26 32L26 31L27 31L27 30L28 30L28 29L26 29L26 28L24 28L24 27L26 27L26 26L24 26L24 24L25 24L25 25L26 25L26 24L27 24L27 23L28 23L28 24L29 24L29 23L30 23L30 24L32 24L32 22L33 22L33 23L34 23L34 22L35 22L35 21L36 21L36 20L34 20L34 18L35 18L35 19L36 19L36 18L35 18L35 17L33 17L33 15L34 15L34 16L35 16L35 15L36 15L36 14L35 14L35 15L34 15L34 14L33 14L33 10L32 10L32 9L30 9L30 10L32 10L32 11L30 11L30 12L29 12L29 11L28 11L28 10L27 10L27 9L26 9L26 8L25 8L25 9L26 9L26 10L24 10L24 6L23 6L23 7L22 7L22 6L21 6L21 7L22 7L22 8L23 8L23 10L21 10L21 11L20 11L20 10L19 10L19 11L17 11L17 10L14 10L14 8L15 8L15 9L17 9L17 8L15 8L15 7L16 7L16 6L17 6L17 7L18 7L18 4L17 4L17 5L16 5L16 6L15 6L15 7L14 7L14 6L13 6L13 5L15 5L15 2L16 2L16 3L17 3L17 2L16 2L16 1L13 1L13 3L12 3L12 2L11 2L11 1ZM22 2L22 4L23 4L23 2ZM26 2L26 3L27 3L27 2ZM9 3L9 4L10 4L10 3ZM13 3L13 4L14 4L14 3ZM9 5L9 7L10 7L10 5ZM12 6L12 7L13 7L13 8L14 8L14 7L13 7L13 6ZM18 8L18 9L19 9L19 8ZM9 9L9 11L10 11L10 14L9 14L9 13L8 13L8 14L9 14L9 15L8 15L8 16L11 16L11 17L10 17L10 18L9 18L9 19L10 19L10 18L11 18L11 17L14 17L14 18L17 18L17 17L14 17L14 16L15 16L15 15L17 15L17 16L18 16L18 17L19 17L19 18L18 18L18 19L19 19L19 21L20 21L20 22L21 22L21 25L23 25L23 22L24 22L24 19L22 19L22 18L23 18L23 17L24 17L24 14L22 14L22 13L23 13L23 11L21 11L21 12L20 12L20 13L18 13L18 12L17 12L17 13L16 13L16 14L14 14L14 13L15 13L15 12L14 12L14 13L13 13L13 12L11 12L11 11L10 11L10 9ZM12 9L12 10L13 10L13 11L14 11L14 10L13 10L13 9ZM25 11L25 13L27 13L27 14L26 14L26 15L25 15L25 16L26 16L26 17L25 17L25 18L26 18L26 20L27 20L27 21L25 21L25 24L26 24L26 23L27 23L27 21L28 21L28 20L29 20L29 21L30 21L30 23L31 23L31 22L32 22L32 21L33 21L33 20L32 20L32 19L31 19L31 18L33 18L33 17L32 17L32 16L30 16L30 17L29 17L29 16L28 16L28 17L29 17L29 18L28 18L28 19L27 19L27 14L28 14L28 15L29 15L29 12L28 12L28 11L27 11L27 12L26 12L26 11ZM4 12L4 13L5 13L5 12ZM21 12L21 13L20 13L20 15L19 15L19 14L18 14L18 13L17 13L17 14L18 14L18 15L19 15L19 16L20 16L20 19L21 19L21 17L23 17L23 16L21 16L21 15L22 15L22 14L21 14L21 13L22 13L22 12ZM27 12L27 13L28 13L28 12ZM30 12L30 14L31 14L31 13L32 13L32 12ZM35 12L35 13L36 13L36 12ZM11 13L11 14L10 14L10 15L11 15L11 16L12 16L12 15L14 15L14 14L13 14L13 13ZM32 14L32 15L33 15L33 14ZM6 17L6 18L5 18L5 20L3 20L3 19L2 19L2 20L1 20L1 21L2 21L2 22L3 22L3 21L4 21L4 23L3 23L3 24L4 24L4 25L5 25L5 26L7 26L7 25L6 25L6 24L8 24L8 23L5 23L5 21L6 21L6 22L8 22L8 21L6 21L6 20L7 20L7 19L6 19L6 18L7 18L7 17ZM29 18L29 20L30 20L30 18ZM2 20L2 21L3 21L3 20ZM20 20L20 21L21 21L21 20ZM22 21L22 22L23 22L23 21ZM4 23L4 24L5 24L5 23ZM0 24L0 25L1 25L1 24ZM13 26L13 27L14 27L14 26ZM23 26L23 27L24 27L24 26ZM2 27L2 28L3 28L3 27ZM15 27L15 29L16 29L16 27ZM27 27L27 28L28 28L28 27ZM22 28L22 29L23 29L23 30L24 30L24 29L23 29L23 28ZM29 29L29 32L32 32L32 29ZM30 30L30 31L31 31L31 30ZM33 30L33 31L34 31L34 30ZM10 32L10 33L11 33L11 32ZM21 33L21 34L22 34L22 33ZM35 33L35 34L36 34L36 35L37 35L37 33ZM8 35L8 36L10 36L10 35ZM16 35L16 36L17 36L17 35ZM26 35L26 36L27 36L27 35ZM29 35L29 36L30 36L30 35ZM35 36L35 37L37 37L37 36ZM0 0L0 7L7 7L7 0ZM1 1L1 6L6 6L6 1ZM2 2L2 5L5 5L5 2ZM30 0L30 7L37 7L37 0ZM31 1L31 6L36 6L36 1ZM32 2L32 5L35 5L35 2ZM0 30L0 37L7 37L7 30ZM1 31L1 36L6 36L6 31ZM2 32L2 35L5 35L5 32Z" fill="#000000"/></g></g></svg>
