<?xml version="1.0" encoding="UTF-8"?>
<svg xmlns="http://www.w3.org/2000/svg" version="1.1" width="300" height="300" viewBox="0 0 300 300"><rect x="0" y="0" width="300" height="300" fill="#ffffff"/><g transform="scale(8.108)"><g transform="translate(0,0)"><path fill-rule="evenodd" d="M8 0L8 1L9 1L9 0ZM10 0L10 2L8 2L8 4L9 4L9 5L8 5L8 8L5 8L5 9L4 9L4 8L3 8L3 9L2 9L2 8L1 8L1 9L2 9L2 10L1 10L1 11L0 11L0 16L3 16L3 15L4 15L4 14L5 14L5 17L4 17L4 18L3 18L3 17L1 17L1 18L0 18L0 21L1 21L1 22L0 22L0 23L2 23L2 24L3 24L3 25L4 25L4 26L6 26L6 27L8 27L8 28L6 28L6 29L8 29L8 32L9 32L9 33L8 33L8 34L9 34L9 33L10 33L10 36L9 36L9 35L8 35L8 36L9 36L9 37L16 37L16 36L17 36L17 37L19 37L19 36L22 36L22 37L25 37L25 33L26 33L26 34L27 34L27 35L26 35L26 36L27 36L27 37L29 37L29 35L30 35L30 37L31 37L31 35L32 35L32 37L33 37L33 35L34 35L34 32L35 32L35 31L34 31L34 29L33 29L33 28L32 28L32 26L28 26L28 25L29 25L29 24L30 24L30 25L33 25L33 23L36 23L36 24L35 24L35 26L36 26L36 27L34 27L34 28L36 28L36 27L37 27L37 25L36 25L36 24L37 24L37 23L36 23L36 21L37 21L37 20L36 20L36 19L37 19L37 16L36 16L36 15L37 15L37 8L36 8L36 11L35 11L35 12L34 12L34 9L35 9L35 8L33 8L33 9L32 9L32 8L29 8L29 5L28 5L28 4L29 4L29 3L26 3L26 2L29 2L29 0L27 0L27 1L26 1L26 0L25 0L25 4L26 4L26 5L27 5L27 6L26 6L26 7L25 7L25 6L24 6L24 5L21 5L21 2L23 2L23 0L22 0L22 1L21 1L21 0L20 0L20 8L19 8L19 9L20 9L20 10L19 10L19 12L22 12L22 13L21 13L21 14L22 14L22 15L20 15L20 16L19 16L19 15L18 15L18 14L16 14L16 15L17 15L17 16L16 16L16 17L15 17L15 13L14 13L14 11L15 11L15 10L17 10L17 11L18 11L18 9L15 9L15 8L14 8L14 7L15 7L15 6L16 6L16 7L17 7L17 8L18 8L18 7L19 7L19 4L18 4L18 5L17 5L17 4L15 4L15 3L16 3L16 1L18 1L18 2L17 2L17 3L19 3L19 0L16 0L16 1L14 1L14 0L13 0L13 1L12 1L12 0ZM11 2L11 4L10 4L10 3L9 3L9 4L10 4L10 5L9 5L9 7L10 7L10 8L9 8L9 9L5 9L5 10L9 10L9 11L5 11L5 12L3 12L3 11L4 11L4 10L2 10L2 14L1 14L1 15L2 15L2 14L4 14L4 13L6 13L6 14L7 14L7 15L6 15L6 16L7 16L7 17L6 17L6 18L7 18L7 17L8 17L8 19L10 19L10 22L8 22L8 21L6 21L6 20L7 20L7 19L6 19L6 20L5 20L5 19L3 19L3 18L2 18L2 19L1 19L1 21L3 21L3 22L2 22L2 23L4 23L4 21L5 21L5 24L4 24L4 25L6 25L6 26L7 26L7 25L6 25L6 24L8 24L8 23L10 23L10 28L9 28L9 29L11 29L11 30L10 30L10 31L11 31L11 32L10 32L10 33L11 33L11 35L12 35L12 34L13 34L13 36L14 36L14 34L15 34L15 32L17 32L17 34L19 34L19 33L20 33L20 35L23 35L23 32L24 32L24 30L25 30L25 32L26 32L26 33L28 33L28 35L29 35L29 33L28 33L28 31L27 31L27 30L26 30L26 29L27 29L27 28L28 28L28 27L27 27L27 28L25 28L25 27L26 27L26 26L25 26L25 27L23 27L23 26L24 26L24 24L25 24L25 25L26 25L26 24L27 24L27 25L28 25L28 24L29 24L29 23L30 23L30 24L31 24L31 23L30 23L30 22L29 22L29 23L28 23L28 18L29 18L29 21L30 21L30 20L31 20L31 19L32 19L32 20L33 20L33 21L32 21L32 23L33 23L33 22L35 22L35 21L36 21L36 20L34 20L34 19L36 19L36 18L35 18L35 17L33 17L33 14L34 14L34 13L33 13L33 10L32 10L32 9L30 9L30 10L29 10L29 8L27 8L27 7L28 7L28 6L27 6L27 7L26 7L26 8L24 8L24 6L23 6L23 7L22 7L22 6L21 6L21 7L22 7L22 10L21 10L21 11L23 11L23 13L22 13L22 14L24 14L24 16L20 16L20 19L21 19L21 17L23 17L23 19L24 19L24 22L23 22L23 21L22 21L22 22L23 22L23 23L22 23L22 24L23 24L23 25L21 25L21 21L20 21L20 23L18 23L18 22L19 22L19 19L18 19L18 18L19 18L19 17L18 17L18 16L17 16L17 18L15 18L15 17L14 17L14 16L13 16L13 17L11 17L11 16L12 16L12 15L11 15L11 14L10 14L10 11L11 11L11 13L12 13L12 11L13 11L13 9L14 9L14 8L13 8L13 9L11 9L11 7L12 7L12 6L11 6L11 7L10 7L10 5L11 5L11 4L12 4L12 5L14 5L14 2L13 2L13 4L12 4L12 2ZM22 3L22 4L23 4L23 3ZM13 6L13 7L14 7L14 6ZM17 6L17 7L18 7L18 6ZM20 8L20 9L21 9L21 8ZM26 8L26 9L25 9L25 11L24 11L24 12L25 12L25 13L27 13L27 14L26 14L26 15L25 15L25 16L26 16L26 17L25 17L25 18L26 18L26 20L27 20L27 16L28 16L28 17L29 17L29 18L30 18L30 19L31 19L31 18L32 18L32 19L34 19L34 18L33 18L33 17L32 17L32 16L30 16L30 17L29 17L29 14L32 14L32 13L31 13L31 11L32 11L32 10L30 10L30 11L29 11L29 10L28 10L28 9L27 9L27 8ZM26 9L26 12L27 12L27 13L28 13L28 12L29 12L29 11L28 11L28 10L27 10L27 9ZM11 10L11 11L12 11L12 10ZM27 11L27 12L28 12L28 11ZM6 12L6 13L8 13L8 14L9 14L9 15L8 15L8 16L11 16L11 15L10 15L10 14L9 14L9 13L8 13L8 12ZM16 12L16 13L18 13L18 12ZM35 12L35 14L36 14L36 12ZM19 13L19 14L20 14L20 13ZM13 14L13 15L14 15L14 14ZM27 14L27 15L28 15L28 14ZM34 15L34 16L35 16L35 15ZM10 17L10 19L11 19L11 17ZM13 17L13 19L14 19L14 22L12 22L12 23L11 23L11 24L12 24L12 25L11 25L11 29L12 29L12 30L13 30L13 29L14 29L14 27L15 27L15 31L14 31L14 32L13 32L13 33L14 33L14 32L15 32L15 31L16 31L16 30L18 30L18 29L16 29L16 27L15 27L15 26L16 26L16 25L17 25L17 26L18 26L18 27L17 27L17 28L21 28L21 27L22 27L22 26L18 26L18 23L17 23L17 24L16 24L16 25L15 25L15 23L16 23L16 22L18 22L18 20L17 20L17 19L16 19L16 20L17 20L17 21L15 21L15 18L14 18L14 17ZM3 20L3 21L4 21L4 20ZM11 20L11 21L13 21L13 20ZM25 21L25 24L26 24L26 23L27 23L27 24L28 24L28 23L27 23L27 21ZM6 22L6 23L7 23L7 22ZM0 24L0 25L1 25L1 24ZM19 24L19 25L20 25L20 24ZM8 25L8 26L9 26L9 25ZM12 25L12 26L13 26L13 27L12 27L12 28L13 28L13 27L14 27L14 26L15 26L15 25L14 25L14 26L13 26L13 25ZM0 26L0 27L1 27L1 28L0 28L0 29L3 29L3 28L5 28L5 27L3 27L3 26L2 26L2 27L1 27L1 26ZM2 27L2 28L3 28L3 27ZM22 28L22 29L23 29L23 30L24 30L24 29L23 29L23 28ZM29 29L29 32L32 32L32 29ZM35 29L35 30L36 30L36 31L37 31L37 29ZM21 30L21 31L22 31L22 32L23 32L23 31L22 31L22 30ZM30 30L30 31L31 31L31 30ZM18 31L18 32L19 32L19 31ZM26 31L26 32L27 32L27 31ZM11 32L11 33L12 33L12 32ZM20 32L20 33L21 33L21 34L22 34L22 33L21 33L21 32ZM30 33L30 35L31 35L31 34L32 34L32 33ZM35 33L35 34L36 34L36 35L37 35L37 33ZM15 35L15 36L16 36L16 35ZM35 36L35 37L37 37L37 36ZM0 0L0 7L7 7L7 0ZM1 1L1 6L6 6L6 1ZM2 2L2 5L5 5L5 2ZM30 0L30 7L37 7L37 0ZM31 1L31 6L36 6L36 1ZM32 2L32 5L35 5L35 2ZM0 30L0 37L7 37L7 30ZM1 31L1 36L6 36L6 31ZM2 32L2 35L5 35L5 32Z" fill="#000000"/></g></g></svg>
