<?xml version="1.0" encoding="UTF-8"?>
<svg xmlns="http://www.w3.org/2000/svg" version="1.1" width="300" height="300" viewBox="0 0 300 300"><rect x="0" y="0" width="300" height="300" fill="#ffffff"/><g transform="scale(8.108)"><g transform="translate(0,0)"><path fill-rule="evenodd" d="M8 0L8 1L9 1L9 4L8 4L8 7L9 7L9 9L8 9L8 8L1 8L1 10L0 10L0 11L1 11L1 12L0 12L0 13L1 13L1 14L0 14L0 16L2 16L2 17L1 17L1 18L0 18L0 29L1 29L1 24L2 24L2 23L3 23L3 24L4 24L4 23L5 23L5 25L4 25L4 26L2 26L2 27L3 27L3 29L5 29L5 28L6 28L6 29L8 29L8 36L9 36L9 37L10 37L10 36L11 36L11 37L17 37L17 35L19 35L19 33L18 33L18 31L16 31L16 29L15 29L15 28L16 28L16 27L17 27L17 28L18 28L18 27L19 27L19 29L23 29L23 30L22 30L22 31L23 31L23 30L24 30L24 33L25 33L25 34L23 34L23 35L22 35L22 33L23 33L23 32L20 32L20 31L21 31L21 30L19 30L19 32L20 32L20 33L21 33L21 34L20 34L20 35L21 35L21 36L20 36L20 37L22 37L22 36L23 36L23 37L25 37L25 36L26 36L26 37L27 37L27 36L29 36L29 35L30 35L30 36L31 36L31 37L32 37L32 36L33 36L33 37L37 37L37 34L36 34L36 36L33 36L33 35L32 35L32 34L33 34L33 32L34 32L34 33L36 33L36 32L37 32L37 30L36 30L36 29L35 29L35 30L36 30L36 31L35 31L35 32L34 32L34 31L33 31L33 30L34 30L34 28L35 28L35 26L36 26L36 28L37 28L37 26L36 26L36 24L33 24L33 25L34 25L34 26L33 26L33 27L34 27L34 28L31 28L31 27L32 27L32 26L31 26L31 25L32 25L32 24L31 24L31 22L32 22L32 23L34 23L34 21L36 21L36 22L35 22L35 23L36 23L36 22L37 22L37 18L36 18L36 17L37 17L37 14L35 14L35 13L33 13L33 12L34 12L34 11L33 11L33 10L34 10L34 9L33 9L33 8L31 8L31 9L30 9L30 11L29 11L29 10L28 10L28 9L29 9L29 8L28 8L28 7L29 7L29 6L28 6L28 5L29 5L29 4L28 4L28 3L29 3L29 0L28 0L28 1L26 1L26 0L25 0L25 1L22 1L22 0L21 0L21 1L20 1L20 3L19 3L19 4L18 4L18 3L17 3L17 4L14 4L14 3L15 3L15 1L19 1L19 0L15 0L15 1L14 1L14 0L13 0L13 2L11 2L11 1L12 1L12 0L11 0L11 1L10 1L10 0ZM22 2L22 3L21 3L21 4L19 4L19 5L20 5L20 6L19 6L19 7L20 7L20 6L21 6L21 7L22 7L22 6L23 6L23 7L24 7L24 9L25 9L25 12L26 12L26 13L24 13L24 12L22 12L22 13L24 13L24 14L22 14L22 15L25 15L25 16L22 16L22 17L23 17L23 18L21 18L21 19L22 19L22 20L20 20L20 21L18 21L18 23L17 23L17 17L18 17L18 16L19 16L19 18L20 18L20 15L19 15L19 14L21 14L21 13L19 13L19 14L16 14L16 15L17 15L17 17L16 17L16 16L15 16L15 12L17 12L17 10L16 10L16 11L15 11L15 10L14 10L14 8L16 8L16 5L13 5L13 3L12 3L12 4L11 4L11 3L10 3L10 6L9 6L9 7L10 7L10 8L12 8L12 6L13 6L13 7L14 7L14 8L13 8L13 9L10 9L10 10L14 10L14 11L11 11L11 13L9 13L9 15L8 15L8 12L10 12L10 11L9 11L9 10L8 10L8 9L5 9L5 10L8 10L8 11L6 11L6 12L4 12L4 14L5 14L5 15L4 15L4 16L3 16L3 17L5 17L5 16L7 16L7 17L6 17L6 18L8 18L8 16L9 16L9 15L10 15L10 14L14 14L14 15L11 15L11 16L10 16L10 17L11 17L11 18L10 18L10 19L9 19L9 20L8 20L8 21L9 21L9 20L10 20L10 22L9 22L9 23L10 23L10 22L11 22L11 23L12 23L12 21L13 21L13 20L11 20L11 19L13 19L13 18L12 18L12 17L11 17L11 16L13 16L13 17L15 17L15 18L14 18L14 19L15 19L15 20L16 20L16 21L14 21L14 22L13 22L13 24L12 24L12 26L15 26L15 25L17 25L17 26L19 26L19 27L20 27L20 26L21 26L21 28L23 28L23 29L25 29L25 28L26 28L26 29L28 29L28 27L29 27L29 28L30 28L30 27L31 27L31 26L27 26L27 28L26 28L26 26L25 26L25 25L27 25L27 24L26 24L26 23L27 23L27 22L28 22L28 23L30 23L30 22L31 22L31 21L32 21L32 22L33 22L33 21L34 21L34 20L36 20L36 18L35 18L35 17L32 17L32 16L36 16L36 15L35 15L35 14L33 14L33 13L30 13L30 12L29 12L29 11L28 11L28 14L29 14L29 13L30 13L30 15L31 15L31 17L29 17L29 15L28 15L28 17L27 17L27 15L26 15L26 14L27 14L27 12L26 12L26 11L27 11L27 9L26 9L26 8L27 8L27 7L28 7L28 6L27 6L27 7L26 7L26 6L25 6L25 7L24 7L24 6L23 6L23 5L25 5L25 4L26 4L26 5L28 5L28 4L26 4L26 3L27 3L27 2L26 2L26 3L25 3L25 2L24 2L24 3L25 3L25 4L22 4L22 3L23 3L23 2ZM17 4L17 5L18 5L18 4ZM11 5L11 6L10 6L10 7L11 7L11 6L12 6L12 5ZM21 5L21 6L22 6L22 5ZM14 6L14 7L15 7L15 6ZM17 6L17 7L18 7L18 6ZM25 7L25 8L26 8L26 7ZM18 8L18 9L19 9L19 8ZM21 8L21 9L23 9L23 8ZM36 8L36 9L35 9L35 10L36 10L36 11L35 11L35 12L36 12L36 13L37 13L37 10L36 10L36 9L37 9L37 8ZM1 10L1 11L2 11L2 10ZM18 10L18 12L20 12L20 11L19 11L19 10ZM22 10L22 11L24 11L24 10ZM31 10L31 11L32 11L32 10ZM14 11L14 12L13 12L13 13L14 13L14 12L15 12L15 11ZM6 12L6 13L5 13L5 14L6 14L6 15L7 15L7 14L6 14L6 13L7 13L7 12ZM2 13L2 15L3 15L3 13ZM32 14L32 15L33 15L33 14ZM25 16L25 17L24 17L24 18L25 18L25 17L26 17L26 16ZM28 17L28 18L27 18L27 19L26 19L26 20L27 20L27 21L26 21L26 22L27 22L27 21L31 21L31 20L32 20L32 21L33 21L33 20L34 20L34 19L35 19L35 18L32 18L32 19L31 19L31 18L29 18L29 17ZM15 18L15 19L16 19L16 18ZM28 18L28 19L27 19L27 20L30 20L30 19L29 19L29 18ZM1 19L1 21L2 21L2 22L1 22L1 23L2 23L2 22L5 22L5 23L6 23L6 24L8 24L8 22L7 22L7 21L6 21L6 20L7 20L7 19L6 19L6 20L2 20L2 19ZM24 19L24 20L25 20L25 19ZM32 19L32 20L33 20L33 19ZM5 21L5 22L6 22L6 23L7 23L7 22L6 22L6 21ZM20 21L20 22L19 22L19 25L20 25L20 23L21 23L21 24L22 24L22 23L23 23L23 22L22 22L22 21ZM24 21L24 22L25 22L25 21ZM21 22L21 23L22 23L22 22ZM15 23L15 24L16 24L16 23ZM24 23L24 25L22 25L22 27L23 27L23 28L25 28L25 26L24 26L24 25L25 25L25 23ZM10 24L10 25L9 25L9 26L8 26L8 25L6 25L6 26L4 26L4 28L5 28L5 27L6 27L6 28L7 28L7 27L9 27L9 28L8 28L8 29L11 29L11 31L10 31L10 30L9 30L9 31L10 31L10 32L9 32L9 33L10 33L10 32L11 32L11 33L13 33L13 34L16 34L16 35L15 35L15 36L16 36L16 35L17 35L17 34L16 34L16 33L17 33L17 32L16 32L16 31L15 31L15 29L12 29L12 27L11 27L11 26L10 26L10 25L11 25L11 24ZM13 24L13 25L14 25L14 24ZM17 24L17 25L18 25L18 24ZM28 24L28 25L30 25L30 24ZM6 26L6 27L7 27L7 26ZM9 26L9 27L10 27L10 28L11 28L11 27L10 27L10 26ZM23 26L23 27L24 27L24 26ZM13 27L13 28L15 28L15 27ZM17 29L17 30L18 30L18 29ZM29 29L29 32L32 32L32 29ZM13 30L13 31L12 31L12 32L13 32L13 33L14 33L14 30ZM25 30L25 32L26 32L26 33L27 33L27 32L28 32L28 30L27 30L27 32L26 32L26 30ZM30 30L30 31L31 31L31 30ZM29 33L29 34L28 34L28 35L29 35L29 34L30 34L30 35L31 35L31 36L32 36L32 35L31 35L31 34L32 34L32 33L31 33L31 34L30 34L30 33ZM10 34L10 35L12 35L12 36L14 36L14 35L12 35L12 34ZM34 34L34 35L35 35L35 34ZM24 35L24 36L25 36L25 35ZM26 35L26 36L27 36L27 35ZM0 0L0 7L7 7L7 0ZM1 1L1 6L6 6L6 1ZM2 2L2 5L5 5L5 2ZM30 0L30 7L37 7L37 0ZM31 1L31 6L36 6L36 1ZM32 2L32 5L35 5L35 2ZM0 30L0 37L7 37L7 30ZM1 31L1 36L6 36L6 31ZM2 32L2 35L5 35L5 32Z" fill="#000000"/></g></g></svg>
