<?xml version="1.0" encoding="UTF-8"?>
<svg xmlns="http://www.w3.org/2000/svg" version="1.1" width="300" height="300" viewBox="0 0 300 300"><rect x="0" y="0" width="300" height="300" fill="#ffffff"/><g transform="scale(8.108)"><g transform="translate(0,0)"><path fill-rule="evenodd" d="M9 0L9 1L8 1L8 3L10 3L10 5L9 5L9 6L8 6L8 7L9 7L9 6L10 6L10 9L9 9L9 12L8 12L8 11L7 11L7 10L8 10L8 9L7 9L7 8L5 8L5 9L4 9L4 8L1 8L1 10L4 10L4 12L5 12L5 13L7 13L7 12L8 12L8 14L6 14L6 15L8 15L8 14L9 14L9 16L11 16L11 17L12 17L12 16L13 16L13 17L15 17L15 18L13 18L13 19L14 19L14 20L12 20L12 21L11 21L11 20L10 20L10 18L9 18L9 17L8 17L8 16L6 16L6 17L5 17L5 19L7 19L7 20L5 20L5 22L3 22L3 23L2 23L2 24L4 24L4 25L2 25L2 26L1 26L1 27L0 27L0 28L1 28L1 27L3 27L3 28L2 28L2 29L3 29L3 28L5 28L5 27L7 27L7 26L6 26L6 25L7 25L7 24L8 24L8 25L9 25L9 24L8 24L8 23L10 23L10 24L12 24L12 23L10 23L10 22L12 22L12 21L13 21L13 22L14 22L14 23L13 23L13 25L12 25L12 26L11 26L11 27L10 27L10 26L9 26L9 27L8 27L8 28L9 28L9 29L8 29L8 30L9 30L9 29L10 29L10 28L11 28L11 27L12 27L12 28L13 28L13 27L14 27L14 26L15 26L15 25L16 25L16 26L17 26L17 25L16 25L16 24L17 24L17 23L18 23L18 22L16 22L16 21L19 21L19 22L21 22L21 23L19 23L19 25L18 25L18 26L19 26L19 27L20 27L20 29L21 29L21 30L22 30L22 31L20 31L20 30L19 30L19 31L18 31L18 32L17 32L17 31L16 31L16 32L15 32L15 30L18 30L18 29L19 29L19 28L17 28L17 29L16 29L16 27L15 27L15 29L13 29L13 30L12 30L12 29L11 29L11 30L10 30L10 31L11 31L11 32L12 32L12 33L10 33L10 32L9 32L9 31L8 31L8 32L9 32L9 33L8 33L8 36L9 36L9 37L10 37L10 36L9 36L9 35L10 35L10 34L11 34L11 37L15 37L15 36L18 36L18 35L19 35L19 36L20 36L20 37L22 37L22 36L20 36L20 35L19 35L19 32L20 32L20 33L21 33L21 34L22 34L22 33L21 33L21 32L22 32L22 31L23 31L23 33L24 33L24 31L25 31L25 29L26 29L26 31L27 31L27 32L26 32L26 33L25 33L25 35L23 35L23 37L25 37L25 35L26 35L26 33L27 33L27 32L28 32L28 33L30 33L30 35L31 35L31 34L32 34L32 35L33 35L33 33L34 33L34 32L33 32L33 31L34 31L34 30L36 30L36 31L37 31L37 29L36 29L36 28L37 28L37 27L36 27L36 28L35 28L35 27L34 27L34 28L35 28L35 29L33 29L33 28L31 28L31 27L30 27L30 26L29 26L29 25L28 25L28 23L29 23L29 24L30 24L30 25L32 25L32 26L35 26L35 25L36 25L36 26L37 26L37 25L36 25L36 24L37 24L37 21L36 21L36 19L37 19L37 17L36 17L36 18L35 18L35 16L34 16L34 14L33 14L33 11L34 11L34 12L35 12L35 15L36 15L36 16L37 16L37 15L36 15L36 14L37 14L37 11L36 11L36 8L34 8L34 9L30 9L30 10L33 10L33 11L32 11L32 12L31 12L31 11L30 11L30 14L28 14L28 17L27 17L27 15L26 15L26 14L27 14L27 13L28 13L28 12L29 12L29 10L28 10L28 9L27 9L27 5L28 5L28 4L29 4L29 1L28 1L28 3L26 3L26 4L25 4L25 2L26 2L26 1L27 1L27 0L25 0L25 2L23 2L23 1L22 1L22 0L21 0L21 2L19 2L19 3L18 3L18 2L17 2L17 1L16 1L16 0L15 0L15 2L17 2L17 3L16 3L16 4L15 4L15 5L17 5L17 3L18 3L18 7L19 7L19 5L21 5L21 2L22 2L22 3L23 3L23 4L22 4L22 8L21 8L21 9L19 9L19 8L18 8L18 9L16 9L16 7L17 7L17 6L16 6L16 7L15 7L15 6L14 6L14 4L13 4L13 3L14 3L14 1L12 1L12 0L11 0L11 3L10 3L10 2L9 2L9 1L10 1L10 0ZM18 0L18 1L19 1L19 0ZM12 2L12 3L13 3L13 2ZM12 4L12 5L11 5L11 8L12 8L12 9L10 9L10 10L11 10L11 11L13 11L13 10L14 10L14 9L13 9L13 7L14 7L14 6L13 6L13 4ZM24 5L24 6L23 6L23 8L24 8L24 6L25 6L25 7L26 7L26 5ZM12 6L12 7L13 7L13 6ZM20 6L20 7L21 7L21 6ZM28 6L28 7L29 7L29 6ZM5 9L5 10L7 10L7 9ZM12 9L12 10L13 10L13 9ZM18 9L18 10L15 10L15 11L14 11L14 13L13 13L13 12L10 12L10 13L12 13L12 15L13 15L13 16L15 16L15 17L17 17L17 18L16 18L16 19L17 19L17 18L18 18L18 19L19 19L19 15L18 15L18 13L19 13L19 12L20 12L20 10L19 10L19 9ZM25 9L25 10L24 10L24 12L23 12L23 10L21 10L21 12L22 12L22 13L21 13L21 14L20 14L20 15L22 15L22 13L23 13L23 16L20 16L20 17L21 17L21 18L22 18L22 19L20 19L20 20L19 20L19 21L20 21L20 20L23 20L23 21L22 21L22 22L24 22L24 20L26 20L26 21L25 21L25 23L21 23L21 25L23 25L23 26L22 26L22 27L21 27L21 29L22 29L22 28L23 28L23 27L25 27L25 28L24 28L24 29L25 29L25 28L26 28L26 27L25 27L25 25L26 25L26 26L28 26L28 25L27 25L27 24L25 24L25 23L26 23L26 21L27 21L27 23L28 23L28 22L29 22L29 21L30 21L30 24L32 24L32 25L34 25L34 22L35 22L35 24L36 24L36 21L35 21L35 18L34 18L34 17L33 17L33 14L32 14L32 13L31 13L31 16L29 16L29 18L28 18L28 20L27 20L27 17L26 17L26 18L25 18L25 17L23 17L23 16L26 16L26 15L24 15L24 12L25 12L25 11L26 11L26 10L27 10L27 12L26 12L26 13L27 13L27 12L28 12L28 10L27 10L27 9ZM34 9L34 11L35 11L35 9ZM18 10L18 11L19 11L19 10ZM1 11L1 12L2 12L2 14L3 14L3 15L0 15L0 17L1 17L1 16L2 16L2 18L1 18L1 19L0 19L0 22L1 22L1 21L2 21L2 20L1 20L1 19L3 19L3 20L4 20L4 18L3 18L3 17L4 17L4 14L3 14L3 11ZM6 11L6 12L7 12L7 11ZM15 11L15 13L14 13L14 14L13 14L13 15L14 15L14 14L17 14L17 13L18 13L18 12L17 12L17 11ZM16 12L16 13L17 13L17 12ZM10 14L10 15L11 15L11 14ZM17 16L17 17L18 17L18 16ZM6 17L6 18L7 18L7 17ZM30 17L30 18L29 18L29 20L30 20L30 19L32 19L32 21L33 21L33 22L31 22L31 23L33 23L33 22L34 22L34 20L33 20L33 18L32 18L32 17ZM8 19L8 20L7 20L7 21L6 21L6 22L7 22L7 23L4 23L4 24L5 24L5 25L6 25L6 24L7 24L7 23L8 23L8 22L10 22L10 20L9 20L9 19ZM23 19L23 20L24 20L24 19ZM15 20L15 21L16 21L16 20ZM14 23L14 25L15 25L15 24L16 24L16 23ZM0 24L0 25L1 25L1 24ZM19 25L19 26L20 26L20 25ZM3 26L3 27L4 27L4 26ZM12 26L12 27L13 27L13 26ZM9 27L9 28L10 28L10 27ZM27 27L27 28L28 28L28 27ZM29 27L29 28L30 28L30 27ZM6 28L6 29L7 29L7 28ZM27 29L27 31L28 31L28 29ZM29 29L29 32L32 32L32 29ZM11 30L11 31L12 31L12 30ZM13 30L13 31L14 31L14 30ZM23 30L23 31L24 31L24 30ZM30 30L30 31L31 31L31 30ZM13 32L13 34L12 34L12 35L13 35L13 36L15 36L15 35L18 35L18 33L17 33L17 34L16 34L16 33L15 33L15 35L14 35L14 32ZM35 32L35 33L37 33L37 32ZM9 33L9 34L10 34L10 33ZM28 34L28 35L27 35L27 36L26 36L26 37L28 37L28 35L29 35L29 34ZM35 34L35 35L34 35L34 37L37 37L37 36L35 36L35 35L36 35L36 34ZM31 36L31 37L32 37L32 36ZM0 0L0 7L7 7L7 0ZM1 1L1 6L6 6L6 1ZM2 2L2 5L5 5L5 2ZM30 0L30 7L37 7L37 0ZM31 1L31 6L36 6L36 1ZM32 2L32 5L35 5L35 2ZM0 30L0 37L7 37L7 30ZM1 31L1 36L6 36L6 31ZM2 32L2 35L5 35L5 32Z" fill="#000000"/></g></g></svg>
