<?xml version="1.0" encoding="UTF-8"?>
<svg xmlns="http://www.w3.org/2000/svg" version="1.1" width="300" height="300" viewBox="0 0 300 300"><rect x="0" y="0" width="300" height="300" fill="#ffffff"/><g transform="scale(8.108)"><g transform="translate(0,0)"><path fill-rule="evenodd" d="M8 0L8 1L9 1L9 2L8 2L8 4L9 4L9 5L8 5L8 8L5 8L5 10L4 10L4 8L3 8L3 9L2 9L2 8L1 8L1 9L0 9L0 10L1 10L1 9L2 9L2 10L4 10L4 11L3 11L3 12L4 12L4 11L5 11L5 13L4 13L4 14L5 14L5 17L4 17L4 15L3 15L3 17L2 17L2 16L1 16L1 13L2 13L2 14L3 14L3 13L2 13L2 12L1 12L1 13L0 13L0 16L1 16L1 18L3 18L3 19L2 19L2 20L3 20L3 21L2 21L2 22L0 22L0 23L3 23L3 21L4 21L4 19L5 19L5 20L6 20L6 21L7 21L7 22L4 22L4 24L2 24L2 25L4 25L4 27L3 27L3 26L2 26L2 27L1 27L1 26L0 26L0 27L1 27L1 28L0 28L0 29L8 29L8 32L9 32L9 33L8 33L8 34L9 34L9 35L8 35L8 36L9 36L9 37L10 37L10 36L11 36L11 37L12 37L12 36L13 36L13 37L14 37L14 36L15 36L15 37L16 37L16 35L13 35L13 34L12 34L12 35L11 35L11 33L10 33L10 32L12 32L12 31L14 31L14 32L13 32L13 33L16 33L16 34L18 34L18 35L17 35L17 36L18 36L18 35L19 35L19 36L22 36L22 37L25 37L25 33L26 33L26 34L27 34L27 35L26 35L26 36L27 36L27 35L28 35L28 37L29 37L29 35L30 35L30 33L32 33L32 34L31 34L31 35L32 35L32 36L31 36L31 37L34 37L34 35L35 35L35 34L36 34L36 35L37 35L37 33L35 33L35 34L34 34L34 32L35 32L35 30L36 30L36 31L37 31L37 25L36 25L36 24L37 24L37 23L36 23L36 21L37 21L37 20L36 20L36 19L37 19L37 16L36 16L36 15L37 15L37 8L36 8L36 11L35 11L35 12L34 12L34 9L35 9L35 8L33 8L33 9L32 9L32 8L29 8L29 6L28 6L28 4L29 4L29 1L28 1L28 0L25 0L25 4L26 4L26 5L27 5L27 6L26 6L26 7L25 7L25 6L24 6L24 5L23 5L23 4L20 4L20 7L19 7L19 5L18 5L18 4L17 4L17 3L19 3L19 0L18 0L18 2L17 2L17 3L16 3L16 2L14 2L14 1L12 1L12 0ZM15 0L15 1L17 1L17 0ZM20 0L20 3L21 3L21 0ZM22 0L22 1L23 1L23 0ZM10 1L10 2L9 2L9 4L10 4L10 6L9 6L9 7L10 7L10 9L12 9L12 8L13 8L13 10L12 10L12 13L11 13L11 10L7 10L7 9L6 9L6 10L7 10L7 11L6 11L6 12L7 12L7 13L5 13L5 14L8 14L8 11L10 11L10 12L9 12L9 14L10 14L10 15L11 15L11 16L7 16L7 15L6 15L6 16L7 16L7 17L6 17L6 18L7 18L7 17L8 17L8 19L9 19L9 18L10 18L10 17L11 17L11 19L10 19L10 20L9 20L9 21L10 21L10 22L8 22L8 23L5 23L5 24L4 24L4 25L6 25L6 26L8 26L8 27L9 27L9 28L8 28L8 29L9 29L9 28L10 28L10 29L14 29L14 31L15 31L15 32L17 32L17 33L18 33L18 34L19 34L19 32L20 32L20 30L22 30L22 31L21 31L21 33L20 33L20 35L23 35L23 32L26 32L26 33L28 33L28 32L26 32L26 31L27 31L27 30L28 30L28 29L27 29L27 28L28 28L28 27L27 27L27 28L25 28L25 31L24 31L24 30L23 30L23 29L24 29L24 28L23 28L23 26L25 26L25 27L26 27L26 26L25 26L25 25L26 25L26 24L27 24L27 25L28 25L28 26L32 26L32 28L33 28L33 29L34 29L34 30L33 30L33 31L34 31L34 30L35 30L35 29L36 29L36 27L35 27L35 26L36 26L36 25L35 25L35 24L36 24L36 23L34 23L34 22L35 22L35 21L36 21L36 20L34 20L34 19L36 19L36 18L35 18L35 17L33 17L33 15L32 15L32 14L34 14L34 16L35 16L35 15L36 15L36 14L34 14L34 13L33 13L33 10L32 10L32 9L30 9L30 10L32 10L32 11L31 11L31 12L32 12L32 13L31 13L31 14L30 14L30 12L29 12L29 11L28 11L28 10L29 10L29 8L27 8L27 7L28 7L28 6L27 6L27 7L26 7L26 8L24 8L24 6L23 6L23 5L22 5L22 6L21 6L21 7L22 7L22 8L23 8L23 10L20 10L20 9L19 9L19 10L18 10L18 11L19 11L19 12L18 12L18 13L17 13L17 10L14 10L14 8L15 8L15 9L18 9L18 6L17 6L17 4L16 4L16 3L15 3L15 4L16 4L16 5L15 5L15 7L14 7L14 6L13 6L13 7L12 7L12 6L11 6L11 5L12 5L12 4L13 4L13 5L14 5L14 4L13 4L13 3L12 3L12 2L11 2L11 1ZM26 2L26 3L27 3L27 2ZM10 3L10 4L11 4L11 3ZM10 6L10 7L11 7L11 6ZM16 6L16 7L15 7L15 8L16 8L16 7L17 7L17 6ZM22 6L22 7L23 7L23 6ZM13 7L13 8L14 8L14 7ZM26 8L26 9L25 9L25 10L26 10L26 9L27 9L27 10L28 10L28 9L27 9L27 8ZM13 10L13 12L14 12L14 14L13 14L13 13L12 13L12 14L11 14L11 13L10 13L10 14L11 14L11 15L13 15L13 16L11 16L11 17L13 17L13 21L14 21L14 22L13 22L13 24L12 24L12 25L13 25L13 26L11 26L11 24L10 24L10 23L12 23L12 20L11 20L11 22L10 22L10 23L8 23L8 24L10 24L10 28L11 28L11 27L13 27L13 28L15 28L15 30L18 30L18 29L16 29L16 27L15 27L15 26L16 26L16 25L17 25L17 24L18 24L18 26L17 26L17 27L18 27L18 26L19 26L19 24L21 24L21 25L23 25L23 24L22 24L22 23L21 23L21 22L20 22L20 20L21 20L21 21L23 21L23 22L24 22L24 19L20 19L20 17L19 17L19 15L18 15L18 14L20 14L20 16L23 16L23 15L25 15L25 16L26 16L26 17L25 17L25 18L26 18L26 20L27 20L27 16L29 16L29 17L28 17L28 18L29 18L29 19L30 19L30 21L29 21L29 22L30 22L30 23L29 23L29 24L28 24L28 23L27 23L27 21L25 21L25 24L26 24L26 23L27 23L27 24L28 24L28 25L29 25L29 24L30 24L30 25L34 25L34 23L32 23L32 21L33 21L33 20L31 20L31 18L33 18L33 17L32 17L32 16L29 16L29 15L27 15L27 14L29 14L29 12L28 12L28 11L27 11L27 12L26 12L26 11L25 11L25 13L27 13L27 14L22 14L22 13L23 13L23 12L24 12L24 11L20 11L20 12L19 12L19 13L18 13L18 14L17 14L17 13L16 13L16 14L15 14L15 12L14 12L14 10ZM20 12L20 13L22 13L22 12ZM27 12L27 13L28 13L28 12ZM16 14L16 15L17 15L17 14ZM21 14L21 15L22 15L22 14ZM14 15L14 16L13 16L13 17L14 17L14 18L15 18L15 19L17 19L17 20L18 20L18 21L15 21L15 23L16 23L16 24L17 24L17 23L20 23L20 22L19 22L19 20L18 20L18 19L19 19L19 17L18 17L18 16L17 16L17 17L14 17L14 16L15 16L15 15ZM26 15L26 16L27 16L27 15ZM3 17L3 18L4 18L4 17ZM21 17L21 18L23 18L23 17ZM29 17L29 18L30 18L30 17ZM17 18L17 19L18 19L18 18ZM0 19L0 21L1 21L1 19ZM6 19L6 20L7 20L7 19ZM16 22L16 23L17 23L17 22ZM30 23L30 24L32 24L32 23ZM0 24L0 25L1 25L1 24ZM6 24L6 25L7 25L7 24ZM14 25L14 26L15 26L15 25ZM21 26L21 27L22 27L22 26ZM2 27L2 28L3 28L3 27ZM5 27L5 28L7 28L7 27ZM19 27L19 29L20 29L20 27ZM29 27L29 28L31 28L31 27ZM34 27L34 28L35 28L35 27ZM22 28L22 29L23 29L23 28ZM26 29L26 30L27 30L27 29ZM29 29L29 32L32 32L32 29ZM10 30L10 31L11 31L11 30ZM30 30L30 31L31 31L31 30ZM18 31L18 32L19 32L19 31ZM22 31L22 32L23 32L23 31ZM9 33L9 34L10 34L10 33ZM21 33L21 34L22 34L22 33ZM28 34L28 35L29 35L29 34ZM35 36L35 37L37 37L37 36ZM0 0L0 7L7 7L7 0ZM1 1L1 6L6 6L6 1ZM2 2L2 5L5 5L5 2ZM30 0L30 7L37 7L37 0ZM31 1L31 6L36 6L36 1ZM32 2L32 5L35 5L35 2ZM0 30L0 37L7 37L7 30ZM1 31L1 36L6 36L6 31ZM2 32L2 35L5 35L5 32Z" fill="#000000"/></g></g></svg>
