<?xml version="1.0" encoding="UTF-8"?>
<svg xmlns="http://www.w3.org/2000/svg" version="1.1" width="300" height="300" viewBox="0 0 300 300"><rect x="0" y="0" width="300" height="300" fill="#ffffff"/><g transform="scale(6.122)"><g transform="translate(0,0)"><path fill-rule="evenodd" d="M8 0L8 1L9 1L9 4L8 4L8 7L9 7L9 6L10 6L10 8L11 8L11 6L12 6L12 7L13 7L13 9L14 9L14 10L13 10L13 11L17 11L17 10L18 10L18 12L17 12L17 15L15 15L15 17L18 17L18 16L17 16L17 15L19 15L19 16L20 16L20 17L21 17L21 16L20 16L20 15L21 15L21 14L22 14L22 15L23 15L23 16L22 16L22 17L23 17L23 18L25 18L25 19L24 19L24 20L23 20L23 19L22 19L22 18L21 18L21 19L22 19L22 20L23 20L23 21L22 21L22 22L21 22L21 24L20 24L20 22L19 22L19 21L20 21L20 19L18 19L18 18L17 18L17 19L16 19L16 18L13 18L13 17L14 17L14 16L13 16L13 15L12 15L12 16L11 16L11 14L13 14L13 13L11 13L11 14L10 14L10 13L9 13L9 12L8 12L8 11L7 11L7 10L6 10L6 9L8 9L8 10L9 10L9 9L8 9L8 8L1 8L1 10L0 10L0 14L2 14L2 16L3 16L3 17L4 17L4 19L3 19L3 18L1 18L1 15L0 15L0 18L1 18L1 19L0 19L0 20L1 20L1 21L0 21L0 27L2 27L2 28L4 28L4 30L3 30L3 29L2 29L2 31L4 31L4 30L5 30L5 29L7 29L7 28L12 28L12 27L13 27L13 29L12 29L12 31L9 31L9 32L8 32L8 30L9 30L9 29L8 29L8 30L6 30L6 31L5 31L5 32L2 32L2 34L3 34L3 33L4 33L4 35L3 35L3 36L2 36L2 37L1 37L1 36L0 36L0 38L1 38L1 40L0 40L0 41L3 41L3 40L4 40L4 39L2 39L2 38L3 38L3 36L4 36L4 35L5 35L5 39L7 39L7 38L6 38L6 37L7 37L7 36L10 36L10 38L11 38L11 37L13 37L13 36L14 36L14 39L15 39L15 41L14 41L14 40L13 40L13 38L12 38L12 41L14 41L14 42L12 42L12 43L11 43L11 42L10 42L10 41L11 41L11 39L10 39L10 40L9 40L9 39L8 39L8 40L6 40L6 41L8 41L8 48L9 48L9 49L10 49L10 48L11 48L11 49L12 49L12 48L11 48L11 47L10 47L10 45L11 45L11 44L13 44L13 46L12 46L12 47L13 47L13 46L14 46L14 48L15 48L15 49L18 49L18 46L19 46L19 45L20 45L20 43L21 43L21 42L22 42L22 45L21 45L21 46L20 46L20 47L21 47L21 48L20 48L20 49L21 49L21 48L22 48L22 46L23 46L23 45L27 45L27 44L29 44L29 45L28 45L28 46L27 46L27 49L28 49L28 48L29 48L29 49L30 49L30 47L28 47L28 46L31 46L31 47L32 47L32 48L31 48L31 49L32 49L32 48L33 48L33 49L34 49L34 47L37 47L37 48L35 48L35 49L38 49L38 48L40 48L40 49L41 49L41 46L42 46L42 48L43 48L43 47L44 47L44 48L45 48L45 49L49 49L49 45L48 45L48 44L46 44L46 46L45 46L45 43L46 43L46 42L45 42L45 41L48 41L48 40L45 40L45 39L44 39L44 37L45 37L45 38L46 38L46 37L47 37L47 36L48 36L48 37L49 37L49 34L47 34L47 36L46 36L46 34L42 34L42 33L41 33L41 32L42 32L42 31L43 31L43 33L47 33L47 32L48 32L48 33L49 33L49 30L48 30L48 31L47 31L47 28L48 28L48 29L49 29L49 28L48 28L48 27L49 27L49 26L48 26L48 24L45 24L45 23L46 23L46 22L47 22L47 23L49 23L49 22L47 22L47 20L48 20L48 21L49 21L49 18L47 18L47 17L48 17L48 16L46 16L46 15L45 15L45 13L44 13L44 12L46 12L46 13L48 13L48 12L46 12L46 11L44 11L44 10L43 10L43 9L45 9L45 8L43 8L43 9L42 9L42 10L41 10L41 11L42 11L42 10L43 10L43 11L44 11L44 12L42 12L42 14L40 14L40 13L41 13L41 12L39 12L39 14L38 14L38 12L36 12L36 13L35 13L35 14L34 14L34 13L32 13L32 12L33 12L33 11L34 11L34 12L35 12L35 10L36 10L36 11L39 11L39 10L37 10L37 9L41 9L41 8L37 8L37 6L38 6L38 7L39 7L39 5L38 5L38 3L35 3L35 2L37 2L37 1L38 1L38 2L39 2L39 4L40 4L40 3L41 3L41 0L40 0L40 1L38 1L38 0L35 0L35 1L31 1L31 0L29 0L29 1L28 1L28 0L26 0L26 1L28 1L28 3L23 3L23 2L24 2L24 1L25 1L25 0L24 0L24 1L23 1L23 2L22 2L22 0L21 0L21 1L20 1L20 2L19 2L19 3L18 3L18 1L19 1L19 0L16 0L16 1L15 1L15 0ZM10 1L10 2L11 2L11 3L12 3L12 4L14 4L14 5L12 5L12 6L13 6L13 7L14 7L14 9L15 9L15 10L17 10L17 9L18 9L18 8L19 8L19 9L20 9L20 10L21 10L21 11L19 11L19 12L21 12L21 11L22 11L22 10L23 10L23 11L25 11L25 10L23 10L23 9L21 9L21 8L20 8L20 5L21 5L21 4L19 4L19 7L18 7L18 6L17 6L17 5L18 5L18 3L17 3L17 1L16 1L16 3L17 3L17 5L16 5L16 6L15 6L15 1L14 1L14 2L13 2L13 1L12 1L12 2L11 2L11 1ZM29 1L29 2L30 2L30 4L32 4L32 5L30 5L30 6L29 6L29 7L30 7L30 6L31 6L31 7L32 7L32 8L30 8L30 9L32 9L32 10L29 10L29 8L28 8L28 6L27 6L27 9L26 9L26 10L27 10L27 9L28 9L28 11L26 11L26 12L23 12L23 13L24 13L24 14L23 14L23 15L24 15L24 16L23 16L23 17L25 17L25 18L27 18L27 17L28 17L28 20L26 20L26 19L25 19L25 21L23 21L23 22L27 22L27 21L29 21L29 19L30 19L30 20L31 20L31 22L30 22L30 23L31 23L31 24L32 24L32 25L33 25L33 28L32 28L32 27L31 27L31 26L29 26L29 25L30 25L30 24L29 24L29 22L28 22L28 23L27 23L27 24L28 24L28 25L27 25L27 26L28 26L28 27L29 27L29 28L27 28L27 27L26 27L26 28L25 28L25 29L24 29L24 27L22 27L22 26L21 26L21 27L20 27L20 28L19 28L19 26L20 26L20 25L19 25L19 22L18 22L18 21L19 21L19 20L15 20L15 19L13 19L13 18L10 18L10 17L11 17L11 16L10 16L10 14L9 14L9 13L6 13L6 12L7 12L7 11L6 11L6 10L5 10L5 13L2 13L2 12L1 12L1 13L2 13L2 14L4 14L4 15L5 15L5 18L7 18L7 17L8 17L8 18L10 18L10 19L9 19L9 20L10 20L10 21L8 21L8 20L7 20L7 19L6 19L6 20L5 20L5 19L4 19L4 21L3 21L3 19L1 19L1 20L2 20L2 21L1 21L1 23L2 23L2 24L1 24L1 26L2 26L2 24L3 24L3 25L4 25L4 24L3 24L3 22L5 22L5 21L6 21L6 22L10 22L10 23L12 23L12 24L13 24L13 25L9 25L9 26L10 26L10 27L12 27L12 26L13 26L13 27L14 27L14 26L15 26L15 25L14 25L14 23L15 23L15 24L16 24L16 27L15 27L15 28L14 28L14 29L13 29L13 30L14 30L14 29L15 29L15 32L11 32L11 33L13 33L13 35L14 35L14 36L15 36L15 39L16 39L16 40L17 40L17 39L18 39L18 38L19 38L19 37L18 37L18 38L17 38L17 39L16 39L16 36L18 36L18 34L19 34L19 35L20 35L20 37L21 37L21 40L23 40L23 39L22 39L22 35L20 35L20 32L22 32L22 33L21 33L21 34L23 34L23 35L24 35L24 36L23 36L23 38L25 38L25 39L27 39L27 40L28 40L28 42L27 42L27 43L29 43L29 42L30 42L30 41L29 41L29 40L30 40L30 39L31 39L31 42L32 42L32 43L33 43L33 44L32 44L32 47L33 47L33 46L35 46L35 44L37 44L37 43L35 43L35 41L36 41L36 40L38 40L38 41L37 41L37 42L38 42L38 43L40 43L40 41L39 41L39 40L41 40L41 39L42 39L42 40L44 40L44 39L42 39L42 38L41 38L41 39L36 39L36 40L35 40L35 39L34 39L34 40L32 40L32 39L33 39L33 38L35 38L35 37L36 37L36 36L37 36L37 38L39 38L39 37L38 37L38 36L40 36L40 37L41 37L41 36L42 36L42 37L44 37L44 36L45 36L45 37L46 37L46 36L45 36L45 35L42 35L42 34L39 34L39 33L38 33L38 34L37 34L37 32L40 32L40 31L41 31L41 30L42 30L42 29L41 29L41 27L40 27L40 24L39 24L39 23L40 23L40 22L41 22L41 21L42 21L42 16L43 16L43 14L42 14L42 15L41 15L41 16L39 16L39 17L40 17L40 18L37 18L37 19L36 19L36 18L34 18L34 17L33 17L33 16L34 16L34 14L32 14L32 13L31 13L31 14L30 14L30 13L29 13L29 14L27 14L27 13L26 13L26 12L29 12L29 11L31 11L31 12L32 12L32 11L33 11L33 10L35 10L35 9L36 9L36 8L35 8L35 7L36 7L36 6L37 6L37 4L33 4L33 3L34 3L34 2L33 2L33 3L32 3L32 2L31 2L31 1ZM12 2L12 3L13 3L13 2ZM21 2L21 3L22 3L22 4L23 4L23 3L22 3L22 2ZM27 4L27 5L29 5L29 4ZM23 5L23 8L26 8L26 5ZM33 5L33 6L32 6L32 7L33 7L33 6L34 6L34 7L35 7L35 5ZM14 6L14 7L15 7L15 9L17 9L17 8L18 8L18 7L17 7L17 6L16 6L16 7L15 7L15 6ZM21 6L21 7L22 7L22 6ZM24 6L24 7L25 7L25 6ZM40 6L40 7L41 7L41 6ZM33 8L33 9L35 9L35 8ZM48 8L48 9L46 9L46 10L48 10L48 11L49 11L49 10L48 10L48 9L49 9L49 8ZM2 9L2 11L4 11L4 10L3 10L3 9ZM11 10L11 11L10 11L10 12L11 12L11 11L12 11L12 10ZM14 12L14 14L15 14L15 13L16 13L16 12ZM18 13L18 14L19 14L19 13ZM25 13L25 17L26 17L26 13ZM5 14L5 15L7 15L7 16L6 16L6 17L7 17L7 16L8 16L8 15L9 15L9 14ZM29 14L29 15L28 15L28 17L29 17L29 18L30 18L30 19L32 19L32 20L34 20L34 18L32 18L32 17L31 17L31 18L30 18L30 17L29 17L29 16L30 16L30 14ZM31 14L31 16L33 16L33 15L32 15L32 14ZM37 14L37 15L36 15L36 16L35 16L35 17L36 17L36 16L37 16L37 17L38 17L38 16L37 16L37 15L38 15L38 14ZM47 14L47 15L49 15L49 14ZM44 16L44 17L46 17L46 16ZM46 18L46 19L45 19L45 20L44 20L44 21L43 21L43 22L46 22L46 20L47 20L47 18ZM10 19L10 20L11 20L11 22L12 22L12 21L13 21L13 20L11 20L11 19ZM37 19L37 20L36 20L36 21L35 21L35 22L33 22L33 21L32 21L32 22L31 22L31 23L32 23L32 24L33 24L33 23L34 23L34 25L36 25L36 26L34 26L34 27L35 27L35 30L33 30L33 32L31 32L31 31L32 31L32 28L31 28L31 27L30 27L30 28L29 28L29 29L28 29L28 30L27 30L27 31L26 31L26 30L25 30L25 32L24 32L24 33L25 33L25 32L28 32L28 33L26 33L26 35L25 35L25 34L24 34L24 35L25 35L25 36L24 36L24 37L25 37L25 38L26 38L26 37L25 37L25 36L26 36L26 35L27 35L27 34L28 34L28 36L27 36L27 37L28 37L28 38L29 38L29 39L28 39L28 40L29 40L29 39L30 39L30 38L31 38L31 39L32 39L32 38L33 38L33 37L35 37L35 36L36 36L36 34L33 34L33 32L34 32L34 31L35 31L35 30L36 30L36 32L35 32L35 33L36 33L36 32L37 32L37 30L38 30L38 31L39 31L39 30L40 30L40 28L38 28L38 29L37 29L37 28L36 28L36 26L37 26L37 24L38 24L38 23L39 23L39 22L38 22L38 23L37 23L37 21L41 21L41 20L40 20L40 19ZM6 20L6 21L7 21L7 20ZM14 21L14 22L15 22L15 23L18 23L18 22L17 22L17 21L16 21L16 22L15 22L15 21ZM32 22L32 23L33 23L33 22ZM5 23L5 26L8 26L8 23ZM23 23L23 26L26 26L26 23ZM35 23L35 24L37 24L37 23ZM41 23L41 26L44 26L44 23ZM6 24L6 25L7 25L7 24ZM24 24L24 25L25 25L25 24ZM42 24L42 25L43 25L43 24ZM13 25L13 26L14 26L14 25ZM17 25L17 27L16 27L16 29L17 29L17 32L16 32L16 35L15 35L15 34L14 34L14 35L15 35L15 36L16 36L16 35L17 35L17 33L18 33L18 32L19 32L19 31L21 31L21 30L22 30L22 32L23 32L23 30L22 30L22 29L23 29L23 28L22 28L22 29L21 29L21 30L20 30L20 29L17 29L17 28L18 28L18 25ZM45 25L45 27L44 27L44 28L45 28L45 29L43 29L43 31L44 31L44 32L47 32L47 31L46 31L46 28L47 28L47 27L48 27L48 26L47 26L47 25ZM3 26L3 27L4 27L4 28L7 28L7 27L4 27L4 26ZM38 26L38 27L39 27L39 26ZM46 26L46 27L47 27L47 26ZM42 27L42 28L43 28L43 27ZM0 28L0 29L1 29L1 28ZM26 28L26 29L27 29L27 28ZM30 28L30 29L31 29L31 28ZM33 28L33 29L34 29L34 28ZM38 29L38 30L39 30L39 29ZM0 30L0 31L1 31L1 30ZM28 30L28 32L29 32L29 31L31 31L31 30ZM6 31L6 32L7 32L7 33L6 33L6 34L5 34L5 35L6 35L6 36L7 36L7 35L9 35L9 34L10 34L10 36L12 36L12 34L10 34L10 33L8 33L8 32L7 32L7 31ZM0 32L0 34L1 34L1 32ZM31 33L31 34L29 34L29 35L31 35L31 34L32 34L32 33ZM6 34L6 35L7 35L7 34ZM38 34L38 35L39 35L39 34ZM34 35L34 36L35 36L35 35ZM40 35L40 36L41 36L41 35ZM28 36L28 37L29 37L29 38L30 38L30 37L31 37L31 38L32 38L32 37L33 37L33 36ZM8 37L8 38L9 38L9 37ZM47 38L47 39L49 39L49 38ZM8 40L8 41L9 41L9 40ZM18 40L18 41L15 41L15 42L14 42L14 43L13 43L13 44L14 44L14 45L15 45L15 44L17 44L17 45L16 45L16 46L17 46L17 45L18 45L18 44L17 44L17 43L18 43L18 42L19 42L19 43L20 43L20 42L21 42L21 41L20 41L20 40ZM23 41L23 44L26 44L26 41ZM32 41L32 42L34 42L34 41ZM41 41L41 44L44 44L44 41ZM9 42L9 44L10 44L10 42ZM16 42L16 43L17 43L17 42ZM24 42L24 43L25 43L25 42ZM42 42L42 43L43 43L43 42ZM47 42L47 43L49 43L49 42ZM34 43L34 44L33 44L33 45L34 45L34 44L35 44L35 43ZM38 45L38 46L37 46L37 47L38 47L38 46L39 46L39 47L40 47L40 46L41 46L41 45L40 45L40 46L39 46L39 45ZM43 45L43 46L44 46L44 47L45 47L45 48L48 48L48 47L47 47L47 46L46 46L46 47L45 47L45 46L44 46L44 45ZM24 46L24 47L23 47L23 48L24 48L24 49L25 49L25 48L26 48L26 47L25 47L25 46ZM24 47L24 48L25 48L25 47ZM0 0L0 7L7 7L7 0ZM1 1L1 6L6 6L6 1ZM2 2L2 5L5 5L5 2ZM42 0L42 7L49 7L49 0ZM43 1L43 6L48 6L48 1ZM44 2L44 5L47 5L47 2ZM0 42L0 49L7 49L7 42ZM1 43L1 48L6 48L6 43ZM2 44L2 47L5 47L5 44Z" fill="#000000"/></g></g></svg>
