<?xml version="1.0" encoding="UTF-8"?>
<svg xmlns="http://www.w3.org/2000/svg" version="1.1" width="300" height="300" viewBox="0 0 300 300"><rect x="0" y="0" width="300" height="300" fill="#ffffff"/><g transform="scale(8.108)"><g transform="translate(0,0)"><path fill-rule="evenodd" d="M8 0L8 2L10 2L10 1L11 1L11 0ZM13 0L13 1L15 1L15 2L17 2L17 0ZM18 0L18 2L19 2L19 1L20 1L20 3L19 3L19 4L18 4L18 3L17 3L17 4L14 4L14 2L11 2L11 3L10 3L10 5L11 5L11 4L12 4L12 5L15 5L15 6L14 6L14 7L13 7L13 6L12 6L12 7L11 7L11 6L10 6L10 7L11 7L11 8L12 8L12 9L13 9L13 8L14 8L14 9L17 9L17 10L20 10L20 11L19 11L19 12L18 12L18 13L17 13L17 12L16 12L16 10L13 10L13 12L12 12L12 11L11 11L11 10L9 10L9 11L8 11L8 13L7 13L7 12L5 12L5 10L6 10L6 11L7 11L7 10L8 10L8 9L9 9L9 8L6 8L6 9L5 9L5 10L2 10L2 8L1 8L1 9L0 9L0 12L1 12L1 11L2 11L2 12L3 12L3 13L5 13L5 14L4 14L4 16L5 16L5 19L3 19L3 18L4 18L4 17L2 17L2 18L1 18L1 14L2 14L2 13L1 13L1 14L0 14L0 19L2 19L2 20L1 20L1 21L0 21L0 29L1 29L1 25L3 25L3 26L2 26L2 28L3 28L3 27L4 27L4 25L7 25L7 24L5 24L5 21L4 21L4 20L5 20L5 19L7 19L7 20L6 20L6 21L8 21L8 20L9 20L9 19L7 19L7 18L6 18L6 17L8 17L8 18L9 18L9 17L10 17L10 19L11 19L11 20L10 20L10 21L9 21L9 22L6 22L6 23L10 23L10 25L12 25L12 26L10 26L10 30L11 30L11 29L12 29L12 31L11 31L11 32L10 32L10 33L11 33L11 34L10 34L10 35L8 35L8 36L9 36L9 37L11 37L11 36L12 36L12 37L14 37L14 36L15 36L15 35L16 35L16 34L17 34L17 33L18 33L18 35L19 35L19 33L18 33L18 28L20 28L20 29L19 29L19 30L20 30L20 31L19 31L19 32L20 32L20 35L22 35L22 36L21 36L21 37L23 37L23 36L24 36L24 37L26 37L26 35L27 35L27 37L33 37L33 35L34 35L34 34L35 34L35 33L36 33L36 32L37 32L37 30L36 30L36 29L37 29L37 28L35 28L35 30L34 30L34 27L37 27L37 26L35 26L35 25L33 25L33 24L32 24L32 22L33 22L33 21L34 21L34 23L36 23L36 22L37 22L37 18L36 18L36 20L34 20L34 19L35 19L35 18L34 18L34 17L37 17L37 14L33 14L33 16L32 16L32 17L33 17L33 18L32 18L32 19L33 19L33 20L32 20L32 21L31 21L31 18L30 18L30 17L31 17L31 15L30 15L30 14L29 14L29 16L28 16L28 14L24 14L24 13L25 13L25 12L23 12L23 11L22 11L22 10L24 10L24 11L25 11L25 10L24 10L24 9L25 9L25 8L26 8L26 13L29 13L29 12L27 12L27 11L30 11L30 13L31 13L31 14L32 14L32 12L33 12L33 10L32 10L32 9L30 9L30 8L29 8L29 6L28 6L28 8L26 8L26 7L27 7L27 5L26 5L26 4L25 4L25 3L26 3L26 2L27 2L27 1L24 1L24 0ZM28 0L28 1L29 1L29 0ZM21 1L21 2L22 2L22 1ZM24 2L24 3L25 3L25 2ZM12 3L12 4L13 4L13 3ZM20 3L20 5L18 5L18 4L17 4L17 5L18 5L18 6L17 6L17 7L16 7L16 6L15 6L15 7L14 7L14 8L15 8L15 7L16 7L16 8L17 8L17 9L20 9L20 8L19 8L19 7L20 7L20 6L21 6L21 10L22 10L22 6L23 6L23 7L24 7L24 8L25 8L25 7L26 7L26 6L25 6L25 7L24 7L24 6L23 6L23 5L25 5L25 4L23 4L23 5L21 5L21 3ZM28 3L28 5L29 5L29 3ZM8 6L8 7L9 7L9 6ZM18 6L18 7L17 7L17 8L18 8L18 7L19 7L19 6ZM12 7L12 8L13 8L13 7ZM35 8L35 9L34 9L34 10L36 10L36 11L35 11L35 12L34 12L34 13L37 13L37 12L36 12L36 11L37 11L37 10L36 10L36 9L37 9L37 8ZM6 9L6 10L7 10L7 9ZM27 9L27 10L28 10L28 9ZM29 9L29 10L30 10L30 9ZM31 10L31 11L32 11L32 10ZM3 11L3 12L4 12L4 11ZM9 11L9 13L10 13L10 14L9 14L9 16L10 16L10 17L11 17L11 18L12 18L12 19L13 19L13 21L15 21L15 22L12 22L12 20L11 20L11 21L10 21L10 22L12 22L12 24L13 24L13 25L14 25L14 26L12 26L12 27L11 27L11 28L12 28L12 29L13 29L13 32L12 32L12 33L13 33L13 35L12 35L12 34L11 34L11 35L12 35L12 36L13 36L13 35L15 35L15 32L16 32L16 33L17 33L17 29L16 29L16 27L15 27L15 26L16 26L16 25L14 25L14 24L16 24L16 23L15 23L15 22L16 22L16 21L18 21L18 20L16 20L16 21L15 21L15 19L13 19L13 18L14 18L14 17L13 17L13 18L12 18L12 17L11 17L11 16L12 16L12 15L13 15L13 16L15 16L15 18L18 18L18 19L21 19L21 20L20 20L20 21L19 21L19 22L20 22L20 23L18 23L18 24L17 24L17 25L18 25L18 24L20 24L20 25L19 25L19 26L17 26L17 27L20 27L20 26L21 26L21 27L22 27L22 26L21 26L21 25L22 25L22 24L24 24L24 25L25 25L25 24L26 24L26 23L27 23L27 24L28 24L28 23L30 23L30 22L31 22L31 21L30 21L30 20L29 20L29 21L30 21L30 22L28 22L28 23L27 23L27 20L26 20L26 19L25 19L25 18L27 18L27 15L25 15L25 16L24 16L24 14L22 14L22 13L21 13L21 12L22 12L22 11L20 11L20 13L19 13L19 14L17 14L17 13L15 13L15 12L13 12L13 13L14 13L14 15L13 15L13 14L11 14L11 13L10 13L10 11ZM6 13L6 14L5 14L5 16L7 16L7 15L6 15L6 14L7 14L7 13ZM10 14L10 15L11 15L11 14ZM19 14L19 16L18 16L18 18L19 18L19 17L20 17L20 18L21 18L21 17L22 17L22 18L23 18L23 19L24 19L24 20L25 20L25 19L24 19L24 18L25 18L25 17L26 17L26 16L25 16L25 17L24 17L24 16L23 16L23 17L22 17L22 16L20 16L20 15L22 15L22 14ZM2 15L2 16L3 16L3 15ZM15 15L15 16L17 16L17 15ZM35 15L35 16L36 16L36 15ZM29 16L29 17L28 17L28 19L30 19L30 18L29 18L29 17L30 17L30 16ZM23 17L23 18L24 18L24 17ZM33 18L33 19L34 19L34 18ZM3 21L3 22L1 22L1 23L3 23L3 25L4 25L4 21ZM20 21L20 22L21 22L21 23L20 23L20 24L21 24L21 23L23 23L23 21L22 21L22 22L21 22L21 21ZM24 21L24 22L25 22L25 21ZM35 21L35 22L36 22L36 21ZM24 23L24 24L25 24L25 23ZM8 24L8 26L5 26L5 28L4 28L4 29L5 29L5 28L6 28L6 29L8 29L8 31L9 31L9 29L8 29L8 28L9 28L9 24ZM31 24L31 26L32 26L32 27L31 27L31 28L32 28L32 27L33 27L33 25L32 25L32 24ZM27 25L27 27L26 27L26 26L23 26L23 29L22 29L22 30L21 30L21 29L20 29L20 30L21 30L21 31L20 31L20 32L21 32L21 31L22 31L22 32L23 32L23 34L22 34L22 33L21 33L21 34L22 34L22 35L23 35L23 34L25 34L25 33L24 33L24 32L26 32L26 34L27 34L27 32L28 32L28 30L26 30L26 31L25 31L25 30L24 30L24 32L23 32L23 29L25 29L25 28L26 28L26 29L28 29L28 28L29 28L29 27L30 27L30 26L28 26L28 25ZM6 27L6 28L8 28L8 27ZM12 27L12 28L13 28L13 29L14 29L14 30L15 30L15 31L16 31L16 29L15 29L15 28L13 28L13 27ZM27 27L27 28L28 28L28 27ZM29 29L29 32L32 32L32 29ZM30 30L30 31L31 31L31 30ZM33 30L33 31L34 31L34 32L35 32L35 31L34 31L34 30ZM26 31L26 32L27 32L27 31ZM13 32L13 33L14 33L14 32ZM28 33L28 35L29 35L29 36L31 36L31 35L33 35L33 33L32 33L32 34L29 34L29 33ZM36 34L36 37L37 37L37 34ZM24 35L24 36L25 36L25 35ZM16 36L16 37L17 37L17 36ZM19 36L19 37L20 37L20 36ZM0 0L0 7L7 7L7 0ZM1 1L1 6L6 6L6 1ZM2 2L2 5L5 5L5 2ZM30 0L30 7L37 7L37 0ZM31 1L31 6L36 6L36 1ZM32 2L32 5L35 5L35 2ZM0 30L0 37L7 37L7 30ZM1 31L1 36L6 36L6 31ZM2 32L2 35L5 35L5 32Z" fill="#000000"/></g></g></svg>
